<svg xmlns="http://www.w3.org/2000/svg" xmlns:xlink="http://www.w3.org/1999/xlink" width="1500" zoomAndPan="magnify" viewBox="0 0 1125 374.999991" height="500" preserveAspectRatio="xMidYMid meet" version="1.0"><defs><filter x="0%" y="0%" width="100%" height="100%" id="25f0b240e2"><feColorMatrix values="0 0 0 0 1 0 0 0 0 1 0 0 0 0 1 0 0 0 1 0" color-interpolation-filters="sRGB"/></filter><g/><mask id="8b7dde4ee5"><g filter="url(#25f0b240e2)"><rect x="-112.5" width="1350" fill="#000000" y="-37.499999" height="449.999989" fill-opacity="0.2"/></g></mask><clipPath id="52385aad11"><path d="M 0.238281 0.078125 L 837 0.078125 L 837 246.75 L 0.238281 246.75 Z M 0.238281 0.078125 " clip-rule="nonzero"/></clipPath><clipPath id="fd5b63081b"><path d="M 29.589844 0.25 L 807.410156 0.25 C 815.164062 0.25 822.597656 3.328125 828.082031 8.8125 C 833.5625 14.292969 836.640625 21.726562 836.640625 29.480469 L 836.640625 217.519531 C 836.640625 225.273438 833.5625 232.707031 828.082031 238.1875 C 822.597656 243.671875 815.164062 246.75 807.410156 246.75 L 29.589844 246.75 C 21.835938 246.75 14.402344 243.671875 8.917969 238.1875 C 3.4375 232.707031 0.359375 225.273438 0.359375 217.519531 L 0.359375 29.480469 C 0.359375 21.726562 3.4375 14.292969 8.917969 8.8125 C 14.402344 3.328125 21.835938 0.25 29.589844 0.25 Z M 29.589844 0.25 " clip-rule="nonzero"/></clipPath><clipPath id="644baa5102"><rect x="0" width="838" y="0" height="247"/></clipPath></defs><g mask="url(#8b7dde4ee5)"><g transform="matrix(1, 0, 0, 1, 144, 64)"><g clip-path="url(#644baa5102)"><g clip-path="url(#52385aad11)"><g clip-path="url(#fd5b63081b)"><path fill="#f05f1b" d="M 0.359375 0.25 L 837.113281 0.25 L 837.113281 246.75 L 0.359375 246.75 Z M 0.359375 0.25 " fill-opacity="1" fill-rule="nonzero"/></g></g></g></g></g><path fill="#000000" d="M 481.484375 265.875 L 725.082031 265.875 L 725.082031 283.125 L 481.484375 283.125 Z M 481.484375 265.875 " fill-opacity="1" fill-rule="nonzero"/><path stroke-linecap="butt" transform="matrix(0.75, 0, 0, 0.75, 280.108646, 64.124996)" fill="none" stroke-linejoin="miter" d="M 368.855162 201.05731 C 368.167662 200.828144 367.417662 200.598977 366.730162 200.598977 C 362.48537 200.598977 362.48537 204.614602 358.756203 211.614603 C 352.844745 222.458354 346.761411 232.098979 335.000994 232.098979 C 330.756202 232.098979 326.339535 229.973979 323.756201 226.932312 C 324.214535 226.473979 324.443701 225.729187 324.672868 225.270854 C 333.85516 209.031269 341.370786 188.145851 341.599952 172.135434 C 341.599952 157.333349 336.662452 145.85939 321.860368 145.85939 C 313.141617 145.85939 305.625992 150.04689 299.027033 156.875016 C 303.042658 146.088557 304.933283 140.177098 308.948909 128.416681 L 314.115576 113.151055 C 315.261409 110.114596 312.91245 106.614596 309.41245 106.614596 C 307.28745 106.614596 305.391617 107.760429 304.704117 109.885429 C 302.813491 115.046888 300.917658 121.187514 299.542658 125.604181 C 298.797866 127.958347 272.974948 202.031269 271.542656 206.218769 C 268.730156 213.96877 264.256197 225.729187 264.256197 236.343771 C 264.256197 249.94273 270.162448 257.000022 282.84474 257.000022 C 297.417658 257.000022 308.66245 248.56773 318.303076 235.369813 C 322.777034 239.843771 328.688493 241.968772 335.000994 241.968772 C 350.032245 241.968772 359.67287 231.411479 367.417662 216.088561 C 368.855162 213.505228 371.896829 207.427103 371.896829 205.531269 C 371.896829 203.640644 370.745788 201.744811 368.855162 201.05731 Z M 316.928076 200.598977 C 314.803076 200.598977 312.91245 202.031269 312.219742 204.328144 C 310.78745 208.572936 310.558284 212.130228 310.558284 215.630228 C 310.558284 219.87502 311.245784 223.37502 312.448909 226.473979 C 304.245783 238.927105 294.089533 247.13023 283.073907 247.13023 C 276.704115 247.13023 274.120781 243.343772 274.120781 235.828146 C 274.120781 231.125021 275.787448 224.81252 279.287448 214.942728 C 288.698907 191.187518 303.271825 155.729183 322.318701 155.729183 C 330.297868 155.729183 331.500993 162.27085 331.500993 171.6771 C 331.500993 183.213559 327.027035 198.703144 320.886409 210.927103 C 321.172868 209.776061 321.402034 208.343769 321.860368 206.968769 C 322.547868 203.640644 320.198909 200.598977 316.928076 200.598977 Z M 463.334335 207.427103 C 464.714544 204.098977 462.13121 200.598977 458.63121 200.598977 C 456.735377 200.598977 454.844751 201.744811 454.152043 203.640644 C 445.948918 223.145854 437.6885 232.098979 427.818708 232.098979 C 422.422874 232.098979 418.464541 230.432312 415.881207 227.161479 C 426.672875 208.802103 434.1885 185.791684 434.1885 170.9896 C 434.1885 156.875016 426.209333 146.317724 410.662457 145.85939 C 398.959331 145.85939 387.422872 154.062516 377.55308 170.531267 C 369.808288 183.213559 357.589537 205.989602 357.589537 233.244813 C 357.589537 246.901063 362.750995 257.000022 378.011413 257.000022 C 389.318705 257.000022 401.30829 247.359397 409.974957 235.598979 C 415.136416 239.843771 421.277041 241.968772 427.818708 241.968772 C 441.933292 241.968772 453.00621 231.125021 463.334335 207.427103 Z M 408.823915 200.598977 C 406.474957 200.598977 404.349956 202.031269 403.891623 204.328144 C 402.224956 210.234394 401.766623 220.56252 404.349956 226.703146 C 396.605164 237.718771 386.735372 247.13023 378.011413 247.13023 C 370.495788 247.13023 367.688496 241.276063 367.688496 232.786479 C 367.688496 208.572936 380.136413 185.791684 386.219747 175.697934 C 393.047872 163.932308 401.537456 155.729183 410.43329 155.729183 C 418.464541 155.729183 424.318708 160.890641 424.318708 170.760433 C 424.318708 181.546893 419.844749 197.786477 412.553082 212.359395 C 412.787457 210.697936 412.787457 208.802103 413.532249 206.968769 C 414.448915 203.640644 412.094749 200.598977 408.823915 200.598977 Z M 555.224966 201.05731 C 554.537466 200.828144 553.792675 200.598977 553.105175 200.598977 C 551.209341 200.598977 549.376008 201.744811 548.626008 203.640644 C 535.256215 233.703146 526.079131 247.13023 514.777047 247.13023 C 509.839547 247.13023 507.777047 244.088563 507.777047 237.260438 C 507.777047 230.890646 513.167672 211.901061 522.063506 187.687518 C 525.620798 178.276059 530.094756 165.598975 535.256215 151.942724 C 536.407257 148.901057 534.05309 145.343765 530.323923 145.343765 C 528.42809 145.343765 526.537465 146.54689 525.849964 148.442724 C 513.626005 181.776059 504.907255 206.677103 496.698921 223.145854 C 488.954129 239.156271 479.313503 247.13023 469.678086 247.13023 C 461.240585 247.13023 456.766627 242.197938 456.766627 232.557313 C 456.766627 223.145854 459.34996 218.213562 484.251003 151.942724 C 485.396837 148.901057 483.563503 145.343765 479.54267 145.343765 C 477.652045 145.343765 475.756211 146.54689 475.068711 148.442724 C 452.521835 206.968769 446.896834 220.796895 446.896834 232.557313 C 446.896834 248.56773 454.641626 257.000022 469.443711 257.000022 L 469.678086 257.000022 C 480.235378 257.000022 491.079129 249.94273 497.849963 240.302105 C 499.282254 250.63023 504.448921 257.000022 514.777047 257.000022 C 530.55309 257.000022 542.313507 242.656272 557.579133 207.656269 C 557.8083 206.968769 558.037467 206.218769 558.037467 205.531269 C 558.037467 203.640644 556.891633 202.031269 555.224966 201.05731 Z M 604.079136 201.05731 C 603.391636 200.828144 602.704136 200.598977 602.016636 200.598977 C 600.120803 200.598977 598.230178 201.744811 597.308302 203.411477 C 586.235385 227.625021 574.933301 247.13023 558.063508 247.13023 C 553.360383 247.13023 550.490591 243.63023 550.490591 237.260438 C 550.490591 230.432312 553.58955 219.645853 563.230175 192.390643 C 570.974967 170.531267 574.933301 159.687516 576.365593 155.213557 L 595.646844 155.213557 C 598.459344 155.213557 600.579136 153.145849 600.579136 150.276057 C 600.579136 147.692724 598.459344 145.343765 595.646844 145.343765 L 579.865593 145.343765 C 581.53226 140.92189 591.631219 112.234388 590.943719 113.614596 C 592.089552 110.57293 589.792677 107.072929 586.235385 107.072929 C 584.115593 107.072929 582.21976 108.218763 581.53226 110.343763 C 581.303093 111.26043 569.771842 144.427098 569.308301 145.343765 L 551.235383 145.343765 C 548.422883 145.343765 546.303091 147.692724 546.303091 150.276057 C 546.303091 153.145849 548.422883 155.213557 551.235383 155.213557 L 566.037467 155.213557 L 554.047883 188.833351 C 546.532257 208.114603 540.620799 228.541687 540.620799 237.260438 C 540.620799 248.56773 546.761424 257.000022 558.063508 257.000022 C 579.636426 257.000022 592.834344 237.031271 606.433303 207.656269 C 606.66247 206.968769 606.948928 206.218769 606.948928 205.531269 C 606.948928 203.640644 605.745803 202.031269 604.079136 201.05731 Z M 604.079136 201.05731 " stroke="#000000" stroke-width="7.638443" stroke-opacity="1" stroke-miterlimit="4"/><path fill="#000000" d="M 481.484375 265.875 L 725.082031 265.875 L 725.082031 283.125 L 481.484375 283.125 Z M 481.484375 265.875 " fill-opacity="1" fill-rule="nonzero"/><g fill="#000000" fill-opacity="1"><g transform="translate(481.483633, 256.874983)"><g><path d="M 75.265625 -41.949219 C 74.738281 -42.128906 74.207031 -42.304688 73.679688 -42.304688 C 70.507812 -42.304688 70.507812 -39.308594 67.6875 -34.019531 C 63.277344 -25.910156 58.695312 -18.683594 49.882812 -18.683594 C 46.710938 -18.683594 43.359375 -20.269531 41.421875 -22.5625 C 41.773438 -22.914062 41.949219 -23.441406 42.128906 -23.796875 C 49 -35.957031 54.640625 -51.644531 54.820312 -63.632812 C 54.820312 -74.738281 51.117188 -83.375 40.011719 -83.375 C 33.492188 -83.375 27.851562 -80.199219 22.914062 -75.089844 C 25.910156 -83.195312 27.320312 -87.605469 30.316406 -96.417969 L 34.195312 -107.875 C 35.078125 -110.164062 33.3125 -112.808594 30.671875 -112.808594 C 29.082031 -112.808594 27.671875 -111.929688 27.144531 -110.34375 C 25.734375 -106.464844 24.324219 -101.882812 23.265625 -98.53125 C 22.738281 -96.769531 3.347656 -41.246094 2.292969 -38.074219 C 0.175781 -32.257812 -3.171875 -23.441406 -3.171875 -15.511719 C -3.171875 -5.289062 1.234375 0 10.753906 0 C 21.679688 0 30.140625 -6.34375 37.367188 -16.214844 C 40.71875 -12.867188 45.125 -11.28125 49.882812 -11.28125 C 61.164062 -11.28125 68.390625 -19.210938 74.207031 -30.671875 C 75.265625 -32.609375 77.554688 -37.191406 77.554688 -38.601562 C 77.554688 -40.011719 76.675781 -41.421875 75.265625 -41.949219 Z M 36.3125 -42.304688 C 34.722656 -42.304688 33.3125 -41.246094 32.785156 -39.484375 C 31.726562 -36.3125 31.550781 -33.667969 31.550781 -31.023438 C 31.550781 -27.851562 32.082031 -25.207031 32.960938 -22.914062 C 26.792969 -13.574219 19.210938 -7.402344 10.929688 -7.402344 C 6.167969 -7.402344 4.230469 -10.222656 4.230469 -15.863281 C 4.230469 -19.390625 5.464844 -24.148438 8.109375 -31.550781 C 15.160156 -49.355469 26.085938 -75.96875 40.363281 -75.96875 C 46.359375 -75.96875 47.238281 -71.035156 47.238281 -63.984375 C 47.238281 -55.347656 43.890625 -43.714844 39.308594 -34.546875 C 39.484375 -35.429688 39.660156 -36.488281 40.011719 -37.542969 C 40.539062 -40.011719 38.777344 -42.304688 36.3125 -42.304688 Z M 36.3125 -42.304688 "/></g></g></g><g fill="#000000" fill-opacity="1"><g transform="translate(548.815606, 256.874983)"><g><path d="M 78.789062 -37.191406 C 79.847656 -39.660156 77.910156 -42.304688 75.265625 -42.304688 C 73.855469 -42.304688 72.445312 -41.421875 71.917969 -40.011719 C 65.746094 -25.382812 59.578125 -18.683594 52.175781 -18.683594 C 48.121094 -18.683594 45.125 -19.917969 43.183594 -22.386719 C 51.292969 -36.132812 56.933594 -53.410156 56.933594 -64.511719 C 56.933594 -75.089844 50.941406 -83.019531 39.308594 -83.375 C 30.492188 -83.375 21.855469 -77.203125 14.453125 -64.867188 C 8.636719 -55.347656 -0.527344 -38.25 -0.527344 -17.804688 C -0.527344 -7.578125 3.347656 0 14.804688 0 C 23.265625 0 32.257812 -7.226562 38.777344 -16.039062 C 42.65625 -12.867188 47.238281 -11.28125 52.175781 -11.28125 C 62.75 -11.28125 71.035156 -19.390625 78.789062 -37.191406 Z M 37.898438 -42.304688 C 36.132812 -42.304688 34.546875 -41.246094 34.195312 -39.484375 C 32.960938 -35.078125 32.609375 -27.320312 34.546875 -22.738281 C 28.730469 -14.453125 21.328125 -7.402344 14.804688 -7.402344 C 9.164062 -7.402344 7.050781 -11.808594 7.050781 -18.15625 C 7.050781 -36.3125 16.394531 -53.410156 20.976562 -60.988281 C 26.085938 -69.800781 32.433594 -75.96875 39.128906 -75.96875 C 45.125 -75.96875 49.53125 -72.09375 49.53125 -64.6875 C 49.53125 -56.582031 46.179688 -44.417969 40.71875 -33.492188 C 40.894531 -34.722656 40.894531 -36.132812 41.421875 -37.542969 C 42.128906 -40.011719 40.363281 -42.304688 37.898438 -42.304688 Z M 37.898438 -42.304688 "/></g></g></g><g fill="#000000" fill-opacity="1"><g transform="translate(617.733936, 256.874983)"><g><path d="M 78.789062 -41.949219 C 78.261719 -42.128906 77.734375 -42.304688 77.203125 -42.304688 C 75.792969 -42.304688 74.382812 -41.421875 73.855469 -40.011719 C 63.808594 -17.449219 56.933594 -7.402344 48.472656 -7.402344 C 44.769531 -7.402344 43.183594 -9.695312 43.183594 -14.804688 C 43.183594 -19.566406 47.238281 -33.84375 53.9375 -52 C 56.582031 -59.046875 59.929688 -68.566406 63.808594 -78.789062 C 64.6875 -81.082031 62.925781 -83.726562 60.105469 -83.726562 C 58.695312 -83.726562 57.285156 -82.84375 56.757812 -81.433594 C 47.589844 -56.40625 41.070312 -37.722656 34.902344 -25.382812 C 29.082031 -13.394531 21.855469 -7.402344 14.628906 -7.402344 C 8.285156 -7.402344 4.933594 -11.105469 4.933594 -18.332031 C 4.933594 -25.382812 6.875 -29.082031 25.558594 -78.789062 C 26.441406 -81.082031 25.03125 -83.726562 22.03125 -83.726562 C 20.621094 -83.726562 19.210938 -82.84375 18.683594 -81.433594 C 1.761719 -37.542969 -2.46875 -27.144531 -2.46875 -18.332031 C -2.46875 -6.34375 3.347656 0 14.453125 0 L 14.628906 0 C 22.5625 0 30.671875 -5.289062 35.78125 -12.515625 C 36.839844 -4.757812 40.71875 0 48.472656 0 C 60.28125 0 69.097656 -10.753906 80.554688 -37.015625 C 80.730469 -37.542969 80.90625 -38.074219 80.90625 -38.601562 C 80.90625 -40.011719 80.023438 -41.246094 78.789062 -41.949219 Z M 78.789062 -41.949219 "/></g></g></g><g fill="#000000" fill-opacity="1"><g transform="translate(688.414886, 256.874983)"><g><path d="M 44.769531 -41.949219 C 44.242188 -42.128906 43.714844 -42.304688 43.183594 -42.304688 C 41.773438 -42.304688 40.363281 -41.421875 39.660156 -40.1875 C 31.375 -22.03125 22.914062 -7.402344 10.222656 -7.402344 C 6.699219 -7.402344 4.582031 -10.046875 4.582031 -14.804688 C 4.582031 -19.917969 6.875 -28.027344 14.101562 -48.472656 C 19.917969 -64.867188 22.914062 -72.972656 23.972656 -76.324219 L 38.425781 -76.324219 C 40.539062 -76.324219 42.128906 -77.910156 42.128906 -80.023438 C 42.128906 -81.964844 40.539062 -83.726562 38.425781 -83.726562 L 26.617188 -83.726562 C 27.851562 -87.074219 35.429688 -108.578125 34.902344 -107.523438 C 35.78125 -109.8125 34.019531 -112.457031 31.375 -112.457031 C 29.789062 -112.457031 28.378906 -111.574219 27.851562 -109.988281 C 27.671875 -109.285156 19.035156 -84.429688 18.683594 -83.726562 L 5.113281 -83.726562 C 2.996094 -83.726562 1.410156 -81.964844 1.410156 -80.023438 C 1.410156 -77.910156 2.996094 -76.324219 5.113281 -76.324219 L 16.214844 -76.324219 L 7.226562 -51.117188 C 1.585938 -36.664062 -2.820312 -21.328125 -2.820312 -14.804688 C -2.820312 -6.34375 1.761719 0 10.222656 0 C 26.441406 0 36.3125 -14.984375 46.535156 -37.015625 C 46.710938 -37.542969 46.886719 -38.074219 46.886719 -38.601562 C 46.886719 -40.011719 46.003906 -41.246094 44.769531 -41.949219 Z M 44.769531 -41.949219 "/></g></g></g><path stroke-linecap="butt" transform="matrix(2.583998, 0, 0, 2.583998, 198.648956, -81.704731)" fill="none" stroke-linejoin="miter" d="M 111.405101 79.356207 C 114.535848 70.458295 118.820027 58.647323 118.820027 50.215017 C 118.820027 44.035156 116.569095 39.750976 109.811761 39.750976 C 105.884344 39.750976 101.48981 42.443328 98.221498 46.397955 C 94.183726 51.670792 89.45964 60.570215 84.158081 70.347941 C 81.467241 75.182382 78.774889 80.263232 75.946484 85.206516 L 67.624533 85.206516 C 66.279113 85.206516 65.152891 86.332738 65.152891 87.67967 C 65.152891 88.914735 66.279113 90.040957 67.624533 90.040957 L 73.14529 90.040957 C 65.509654 102.867798 55.813561 118.16628 44.471218 118.16628 C 37.713884 118.16628 32.082773 113.990943 32.082773 107.591884 C 32.082773 100.615353 38.153791 93.749176 44.690415 93.749176 C 46.365387 93.749176 48.28828 94.654689 48.83703 94.654689 C 50.183961 94.654689 51.199829 93.528467 51.199829 92.293402 C 51.199829 91.386377 50.759922 90.589707 49.854409 90.151312 C 48.177925 89.354642 46.365387 89.02509 44.690415 89.02509 C 35.682149 89.02509 27.358686 97.676593 27.358686 107.591884 C 27.358686 116.929703 35.131887 123.000721 44.471218 123.000721 C 58.285203 123.000721 69.656268 105.558637 78.666047 90.040957 L 102.505677 90.040957 L 102.065771 91.277534 C 97.562393 103.307704 89.45964 124.675693 89.45964 131.54187 C 89.45964 140.879689 93.387056 146.400445 101.846573 146.621154 C 103.08315 146.621154 104.209372 145.494932 104.209372 144.258355 C 104.209372 142.912935 103.08315 141.786713 101.846573 141.786713 C 96.546526 141.786713 94.294081 138.628756 94.294081 131.54187 C 94.294081 125.691561 102.065771 104.761967 106.433094 92.842152 C 107.010567 91.496732 108.933459 86.332738 111.405101 79.356207 Z M 106.900212 77.654024 L 104.209372 85.206516 L 81.356886 85.206516 C 83.719685 81.032691 86.080973 76.638157 88.333417 72.600385 C 93.497411 63.041857 98.221498 54.252789 102.065771 49.309504 C 103.961452 46.837862 107.229764 44.585418 109.811761 44.585418 C 113.080073 44.585418 114.206295 47.05706 114.206295 50.765279 C 114.206295 58.098573 109.482209 70.458295 106.900212 77.654024 Z M 106.900212 77.654024 " stroke="#000000" stroke-width="3.656445" stroke-opacity="1" stroke-miterlimit="4"/><g fill="#000000" fill-opacity="1"><g transform="translate(269.34553, 236.127043)"><g><path d="M 217.152344 -112.792969 C 225.292969 -135.757812 236.339844 -166.28125 236.339844 -188.082031 C 236.339844 -204.070312 230.523438 -215.117188 213.082031 -215.117188 C 202.910156 -215.117188 191.570312 -208.140625 183.140625 -197.964844 C 172.675781 -184.304688 160.464844 -161.339844 146.804688 -136.046875 C 139.828125 -123.546875 132.851562 -110.464844 125.582031 -97.675781 L 104.070312 -97.675781 C 100.582031 -97.675781 97.675781 -94.769531 97.675781 -91.28125 C 97.675781 -88.082031 100.582031 -85.175781 104.070312 -85.175781 L 118.316406 -85.175781 C 98.546875 -52.035156 73.546875 -12.5 44.1875 -12.5 C 26.746094 -12.5 12.210938 -23.257812 12.210938 -39.824219 C 12.210938 -57.847656 27.90625 -75.582031 44.769531 -75.582031 C 49.128906 -75.582031 54.070312 -73.257812 55.523438 -73.257812 C 59.011719 -73.257812 61.628906 -76.164062 61.628906 -79.359375 C 61.628906 -81.6875 60.464844 -83.722656 58.140625 -84.882812 C 53.78125 -86.917969 49.128906 -87.792969 44.769531 -87.792969 C 21.511719 -87.792969 0 -65.40625 0 -39.824219 C 0 -15.699219 20.058594 0 44.1875 0 C 79.941406 0 109.304688 -45.058594 132.558594 -85.175781 L 194.1875 -85.175781 L 193.023438 -81.976562 C 181.398438 -50.871094 160.464844 4.359375 160.464844 22.09375 C 160.464844 46.222656 170.640625 60.464844 192.441406 61.046875 C 195.640625 61.046875 198.546875 58.140625 198.546875 54.941406 C 198.546875 51.453125 195.640625 48.546875 192.441406 48.546875 C 178.78125 48.546875 172.964844 40.40625 172.964844 22.09375 C 172.964844 6.976562 193.023438 -47.09375 204.363281 -77.90625 C 205.816406 -81.394531 210.757812 -94.769531 217.152344 -112.792969 Z M 205.523438 -117.152344 L 198.546875 -97.675781 L 139.535156 -97.675781 C 145.640625 -108.429688 151.746094 -119.769531 157.558594 -130.234375 C 170.929688 -154.941406 183.140625 -177.617188 193.023438 -190.410156 C 197.964844 -196.804688 206.398438 -202.617188 213.082031 -202.617188 C 221.511719 -202.617188 224.421875 -196.222656 224.421875 -186.628906 C 224.421875 -167.734375 212.210938 -135.757812 205.523438 -117.152344 Z M 205.523438 -117.152344 "/></g></g></g></svg>