<svg xmlns="http://www.w3.org/2000/svg" xmlns:xlink="http://www.w3.org/1999/xlink" width="1500" zoomAndPan="magnify" viewBox="0 0 1125 374.999991" height="500" preserveAspectRatio="xMidYMid meet" version="1.0"><defs><filter x="0%" y="0%" width="100%" height="100%" id="a6fefbfd1a"><feColorMatrix values="0 0 0 0 1 0 0 0 0 1 0 0 0 0 1 0 0 0 1 0" color-interpolation-filters="sRGB"/></filter><g/><mask id="7a54e4dd58"><g filter="url(#a6fefbfd1a)"><rect x="-112.5" width="1350" fill="#000000" y="-37.499999" height="449.999989" fill-opacity="0.2"/></g></mask><clipPath id="8ebc1f7548"><path d="M 0.238281 0.078125 L 837 0.078125 L 837 246.75 L 0.238281 246.75 Z M 0.238281 0.078125 " clip-rule="nonzero"/></clipPath><clipPath id="72f51c6846"><path d="M 29.589844 0.25 L 807.410156 0.25 C 815.164062 0.25 822.597656 3.328125 828.082031 8.8125 C 833.5625 14.292969 836.640625 21.726562 836.640625 29.480469 L 836.640625 217.519531 C 836.640625 225.273438 833.5625 232.707031 828.082031 238.1875 C 822.597656 243.671875 815.164062 246.75 807.410156 246.75 L 29.589844 246.75 C 21.835938 246.75 14.402344 243.671875 8.917969 238.1875 C 3.4375 232.707031 0.359375 225.273438 0.359375 217.519531 L 0.359375 29.480469 C 0.359375 21.726562 3.4375 14.292969 8.917969 8.8125 C 14.402344 3.328125 21.835938 0.25 29.589844 0.25 Z M 29.589844 0.25 " clip-rule="nonzero"/></clipPath><clipPath id="aba67012f0"><rect x="0" width="838" y="0" height="247"/></clipPath></defs><g mask="url(#7a54e4dd58)"><g transform="matrix(1, 0, 0, 1, 144, 64)"><g clip-path="url(#aba67012f0)"><g clip-path="url(#8ebc1f7548)"><g clip-path="url(#72f51c6846)"><path fill="#f05f1b" d="M 0.359375 0.25 L 837.113281 0.25 L 837.113281 246.75 L 0.359375 246.75 Z M 0.359375 0.25 " fill-opacity="1" fill-rule="nonzero"/></g></g></g></g></g><g fill="#eb5e28" fill-opacity="1"><g transform="translate(491.383896, 264.665169)"><g><path d="M 75.265625 -41.949219 C 74.738281 -42.128906 74.207031 -42.304688 73.679688 -42.304688 C 70.507812 -42.304688 70.507812 -39.308594 67.6875 -34.019531 C 63.277344 -25.910156 58.695312 -18.683594 49.882812 -18.683594 C 46.710938 -18.683594 43.359375 -20.269531 41.421875 -22.5625 C 41.773438 -22.914062 41.949219 -23.441406 42.128906 -23.796875 C 49 -35.957031 54.640625 -51.644531 54.820312 -63.632812 C 54.820312 -74.738281 51.117188 -83.375 40.011719 -83.375 C 33.492188 -83.375 27.851562 -80.199219 22.914062 -75.089844 C 25.910156 -83.195312 27.320312 -87.605469 30.316406 -96.417969 L 34.195312 -107.875 C 35.078125 -110.164062 33.3125 -112.808594 30.671875 -112.808594 C 29.082031 -112.808594 27.671875 -111.929688 27.144531 -110.34375 C 25.734375 -106.464844 24.324219 -101.882812 23.265625 -98.53125 C 22.738281 -96.769531 3.347656 -41.246094 2.292969 -38.074219 C 0.175781 -32.257812 -3.171875 -23.441406 -3.171875 -15.511719 C -3.171875 -5.289062 1.234375 0 10.753906 0 C 21.679688 0 30.140625 -6.34375 37.367188 -16.214844 C 40.71875 -12.867188 45.125 -11.28125 49.882812 -11.28125 C 61.164062 -11.28125 68.390625 -19.210938 74.207031 -30.671875 C 75.265625 -32.609375 77.554688 -37.191406 77.554688 -38.601562 C 77.554688 -40.011719 76.675781 -41.421875 75.265625 -41.949219 Z M 36.3125 -42.304688 C 34.722656 -42.304688 33.3125 -41.246094 32.785156 -39.484375 C 31.726562 -36.3125 31.550781 -33.667969 31.550781 -31.023438 C 31.550781 -27.851562 32.082031 -25.207031 32.960938 -22.914062 C 26.792969 -13.574219 19.210938 -7.402344 10.929688 -7.402344 C 6.167969 -7.402344 4.230469 -10.222656 4.230469 -15.863281 C 4.230469 -19.390625 5.464844 -24.148438 8.109375 -31.550781 C 15.160156 -49.355469 26.085938 -75.96875 40.363281 -75.96875 C 46.359375 -75.96875 47.238281 -71.035156 47.238281 -63.984375 C 47.238281 -55.347656 43.890625 -43.714844 39.308594 -34.546875 C 39.484375 -35.429688 39.660156 -36.488281 40.011719 -37.542969 C 40.539062 -40.011719 38.777344 -42.304688 36.3125 -42.304688 Z M 36.3125 -42.304688 "/></g></g></g><g fill="#eb5e28" fill-opacity="1"><g transform="translate(558.71587, 264.665169)"><g><path d="M 78.789062 -37.191406 C 79.847656 -39.660156 77.910156 -42.304688 75.265625 -42.304688 C 73.855469 -42.304688 72.445312 -41.421875 71.917969 -40.011719 C 65.746094 -25.382812 59.578125 -18.683594 52.175781 -18.683594 C 48.121094 -18.683594 45.125 -19.917969 43.183594 -22.386719 C 51.292969 -36.132812 56.933594 -53.410156 56.933594 -64.511719 C 56.933594 -75.089844 50.941406 -83.019531 39.308594 -83.375 C 30.492188 -83.375 21.855469 -77.203125 14.453125 -64.867188 C 8.636719 -55.347656 -0.527344 -38.25 -0.527344 -17.804688 C -0.527344 -7.578125 3.347656 0 14.804688 0 C 23.265625 0 32.257812 -7.226562 38.777344 -16.039062 C 42.65625 -12.867188 47.238281 -11.28125 52.175781 -11.28125 C 62.75 -11.28125 71.035156 -19.390625 78.789062 -37.191406 Z M 37.898438 -42.304688 C 36.132812 -42.304688 34.546875 -41.246094 34.195312 -39.484375 C 32.960938 -35.078125 32.609375 -27.320312 34.546875 -22.738281 C 28.730469 -14.453125 21.328125 -7.402344 14.804688 -7.402344 C 9.164062 -7.402344 7.050781 -11.808594 7.050781 -18.15625 C 7.050781 -36.3125 16.394531 -53.410156 20.976562 -60.988281 C 26.085938 -69.800781 32.433594 -75.96875 39.128906 -75.96875 C 45.125 -75.96875 49.53125 -72.09375 49.53125 -64.6875 C 49.53125 -56.582031 46.179688 -44.417969 40.71875 -33.492188 C 40.894531 -34.722656 40.894531 -36.132812 41.421875 -37.542969 C 42.128906 -40.011719 40.363281 -42.304688 37.898438 -42.304688 Z M 37.898438 -42.304688 "/></g></g></g><g fill="#eb5e28" fill-opacity="1"><g transform="translate(627.6342, 264.665169)"><g><path d="M 78.789062 -41.949219 C 78.261719 -42.128906 77.734375 -42.304688 77.203125 -42.304688 C 75.792969 -42.304688 74.382812 -41.421875 73.855469 -40.011719 C 63.808594 -17.449219 56.933594 -7.402344 48.472656 -7.402344 C 44.769531 -7.402344 43.183594 -9.695312 43.183594 -14.804688 C 43.183594 -19.566406 47.238281 -33.84375 53.9375 -52 C 56.582031 -59.046875 59.929688 -68.566406 63.808594 -78.789062 C 64.6875 -81.082031 62.925781 -83.726562 60.105469 -83.726562 C 58.695312 -83.726562 57.285156 -82.84375 56.757812 -81.433594 C 47.589844 -56.40625 41.070312 -37.722656 34.902344 -25.382812 C 29.082031 -13.394531 21.855469 -7.402344 14.628906 -7.402344 C 8.285156 -7.402344 4.933594 -11.105469 4.933594 -18.332031 C 4.933594 -25.382812 6.875 -29.082031 25.558594 -78.789062 C 26.441406 -81.082031 25.03125 -83.726562 22.03125 -83.726562 C 20.621094 -83.726562 19.210938 -82.84375 18.683594 -81.433594 C 1.761719 -37.542969 -2.46875 -27.144531 -2.46875 -18.332031 C -2.46875 -6.34375 3.347656 0 14.453125 0 L 14.628906 0 C 22.5625 0 30.671875 -5.289062 35.78125 -12.515625 C 36.839844 -4.757812 40.71875 0 48.472656 0 C 60.28125 0 69.097656 -10.753906 80.554688 -37.015625 C 80.730469 -37.542969 80.90625 -38.074219 80.90625 -38.601562 C 80.90625 -40.011719 80.023438 -41.246094 78.789062 -41.949219 Z M 78.789062 -41.949219 "/></g></g></g><g fill="#eb5e28" fill-opacity="1"><g transform="translate(698.315149, 264.665169)"><g><path d="M 44.769531 -41.949219 C 44.242188 -42.128906 43.714844 -42.304688 43.183594 -42.304688 C 41.773438 -42.304688 40.363281 -41.421875 39.660156 -40.1875 C 31.375 -22.03125 22.914062 -7.402344 10.222656 -7.402344 C 6.699219 -7.402344 4.582031 -10.046875 4.582031 -14.804688 C 4.582031 -19.917969 6.875 -28.027344 14.101562 -48.472656 C 19.917969 -64.867188 22.914062 -72.972656 23.972656 -76.324219 L 38.425781 -76.324219 C 40.539062 -76.324219 42.128906 -77.910156 42.128906 -80.023438 C 42.128906 -81.964844 40.539062 -83.726562 38.425781 -83.726562 L 26.617188 -83.726562 C 27.851562 -87.074219 35.429688 -108.578125 34.902344 -107.523438 C 35.78125 -109.8125 34.019531 -112.457031 31.375 -112.457031 C 29.789062 -112.457031 28.378906 -111.574219 27.851562 -109.988281 C 27.671875 -109.285156 19.035156 -84.429688 18.683594 -83.726562 L 5.113281 -83.726562 C 2.996094 -83.726562 1.410156 -81.964844 1.410156 -80.023438 C 1.410156 -77.910156 2.996094 -76.324219 5.113281 -76.324219 L 16.214844 -76.324219 L 7.226562 -51.117188 C 1.585938 -36.664062 -2.820312 -21.328125 -2.820312 -14.804688 C -2.820312 -6.34375 1.761719 0 10.222656 0 C 26.441406 0 36.3125 -14.984375 46.535156 -37.015625 C 46.710938 -37.542969 46.886719 -38.074219 46.886719 -38.601562 C 46.886719 -40.011719 46.003906 -41.246094 44.769531 -41.949219 Z M 44.769531 -41.949219 "/></g></g></g><g fill="#000000" fill-opacity="1"><g transform="translate(483.593713, 256.874983)"><g><path d="M 75.265625 -41.949219 C 74.738281 -42.128906 74.207031 -42.304688 73.679688 -42.304688 C 70.507812 -42.304688 70.507812 -39.308594 67.6875 -34.019531 C 63.277344 -25.910156 58.695312 -18.683594 49.882812 -18.683594 C 46.710938 -18.683594 43.359375 -20.269531 41.421875 -22.5625 C 41.773438 -22.914062 41.949219 -23.441406 42.128906 -23.796875 C 49 -35.957031 54.640625 -51.644531 54.820312 -63.632812 C 54.820312 -74.738281 51.117188 -83.375 40.011719 -83.375 C 33.492188 -83.375 27.851562 -80.199219 22.914062 -75.089844 C 25.910156 -83.195312 27.320312 -87.605469 30.316406 -96.417969 L 34.195312 -107.875 C 35.078125 -110.164062 33.3125 -112.808594 30.671875 -112.808594 C 29.082031 -112.808594 27.671875 -111.929688 27.144531 -110.34375 C 25.734375 -106.464844 24.324219 -101.882812 23.265625 -98.53125 C 22.738281 -96.769531 3.347656 -41.246094 2.292969 -38.074219 C 0.175781 -32.257812 -3.171875 -23.441406 -3.171875 -15.511719 C -3.171875 -5.289062 1.234375 0 10.753906 0 C 21.679688 0 30.140625 -6.34375 37.367188 -16.214844 C 40.71875 -12.867188 45.125 -11.28125 49.882812 -11.28125 C 61.164062 -11.28125 68.390625 -19.210938 74.207031 -30.671875 C 75.265625 -32.609375 77.554688 -37.191406 77.554688 -38.601562 C 77.554688 -40.011719 76.675781 -41.421875 75.265625 -41.949219 Z M 36.3125 -42.304688 C 34.722656 -42.304688 33.3125 -41.246094 32.785156 -39.484375 C 31.726562 -36.3125 31.550781 -33.667969 31.550781 -31.023438 C 31.550781 -27.851562 32.082031 -25.207031 32.960938 -22.914062 C 26.792969 -13.574219 19.210938 -7.402344 10.929688 -7.402344 C 6.167969 -7.402344 4.230469 -10.222656 4.230469 -15.863281 C 4.230469 -19.390625 5.464844 -24.148438 8.109375 -31.550781 C 15.160156 -49.355469 26.085938 -75.96875 40.363281 -75.96875 C 46.359375 -75.96875 47.238281 -71.035156 47.238281 -63.984375 C 47.238281 -55.347656 43.890625 -43.714844 39.308594 -34.546875 C 39.484375 -35.429688 39.660156 -36.488281 40.011719 -37.542969 C 40.539062 -40.011719 38.777344 -42.304688 36.3125 -42.304688 Z M 36.3125 -42.304688 "/></g></g></g><g fill="#000000" fill-opacity="1"><g transform="translate(550.925686, 256.874983)"><g><path d="M 78.789062 -37.191406 C 79.847656 -39.660156 77.910156 -42.304688 75.265625 -42.304688 C 73.855469 -42.304688 72.445312 -41.421875 71.917969 -40.011719 C 65.746094 -25.382812 59.578125 -18.683594 52.175781 -18.683594 C 48.121094 -18.683594 45.125 -19.917969 43.183594 -22.386719 C 51.292969 -36.132812 56.933594 -53.410156 56.933594 -64.511719 C 56.933594 -75.089844 50.941406 -83.019531 39.308594 -83.375 C 30.492188 -83.375 21.855469 -77.203125 14.453125 -64.867188 C 8.636719 -55.347656 -0.527344 -38.25 -0.527344 -17.804688 C -0.527344 -7.578125 3.347656 0 14.804688 0 C 23.265625 0 32.257812 -7.226562 38.777344 -16.039062 C 42.65625 -12.867188 47.238281 -11.28125 52.175781 -11.28125 C 62.75 -11.28125 71.035156 -19.390625 78.789062 -37.191406 Z M 37.898438 -42.304688 C 36.132812 -42.304688 34.546875 -41.246094 34.195312 -39.484375 C 32.960938 -35.078125 32.609375 -27.320312 34.546875 -22.738281 C 28.730469 -14.453125 21.328125 -7.402344 14.804688 -7.402344 C 9.164062 -7.402344 7.050781 -11.808594 7.050781 -18.15625 C 7.050781 -36.3125 16.394531 -53.410156 20.976562 -60.988281 C 26.085938 -69.800781 32.433594 -75.96875 39.128906 -75.96875 C 45.125 -75.96875 49.53125 -72.09375 49.53125 -64.6875 C 49.53125 -56.582031 46.179688 -44.417969 40.71875 -33.492188 C 40.894531 -34.722656 40.894531 -36.132812 41.421875 -37.542969 C 42.128906 -40.011719 40.363281 -42.304688 37.898438 -42.304688 Z M 37.898438 -42.304688 "/></g></g></g><g fill="#000000" fill-opacity="1"><g transform="translate(619.844016, 256.874983)"><g><path d="M 78.789062 -41.949219 C 78.261719 -42.128906 77.734375 -42.304688 77.203125 -42.304688 C 75.792969 -42.304688 74.382812 -41.421875 73.855469 -40.011719 C 63.808594 -17.449219 56.933594 -7.402344 48.472656 -7.402344 C 44.769531 -7.402344 43.183594 -9.695312 43.183594 -14.804688 C 43.183594 -19.566406 47.238281 -33.84375 53.9375 -52 C 56.582031 -59.046875 59.929688 -68.566406 63.808594 -78.789062 C 64.6875 -81.082031 62.925781 -83.726562 60.105469 -83.726562 C 58.695312 -83.726562 57.285156 -82.84375 56.757812 -81.433594 C 47.589844 -56.40625 41.070312 -37.722656 34.902344 -25.382812 C 29.082031 -13.394531 21.855469 -7.402344 14.628906 -7.402344 C 8.285156 -7.402344 4.933594 -11.105469 4.933594 -18.332031 C 4.933594 -25.382812 6.875 -29.082031 25.558594 -78.789062 C 26.441406 -81.082031 25.03125 -83.726562 22.03125 -83.726562 C 20.621094 -83.726562 19.210938 -82.84375 18.683594 -81.433594 C 1.761719 -37.542969 -2.46875 -27.144531 -2.46875 -18.332031 C -2.46875 -6.34375 3.347656 0 14.453125 0 L 14.628906 0 C 22.5625 0 30.671875 -5.289062 35.78125 -12.515625 C 36.839844 -4.757812 40.71875 0 48.472656 0 C 60.28125 0 69.097656 -10.753906 80.554688 -37.015625 C 80.730469 -37.542969 80.90625 -38.074219 80.90625 -38.601562 C 80.90625 -40.011719 80.023438 -41.246094 78.789062 -41.949219 Z M 78.789062 -41.949219 "/></g></g></g><g fill="#000000" fill-opacity="1"><g transform="translate(690.524966, 256.874983)"><g><path d="M 44.769531 -41.949219 C 44.242188 -42.128906 43.714844 -42.304688 43.183594 -42.304688 C 41.773438 -42.304688 40.363281 -41.421875 39.660156 -40.1875 C 31.375 -22.03125 22.914062 -7.402344 10.222656 -7.402344 C 6.699219 -7.402344 4.582031 -10.046875 4.582031 -14.804688 C 4.582031 -19.917969 6.875 -28.027344 14.101562 -48.472656 C 19.917969 -64.867188 22.914062 -72.972656 23.972656 -76.324219 L 38.425781 -76.324219 C 40.539062 -76.324219 42.128906 -77.910156 42.128906 -80.023438 C 42.128906 -81.964844 40.539062 -83.726562 38.425781 -83.726562 L 26.617188 -83.726562 C 27.851562 -87.074219 35.429688 -108.578125 34.902344 -107.523438 C 35.78125 -109.8125 34.019531 -112.457031 31.375 -112.457031 C 29.789062 -112.457031 28.378906 -111.574219 27.851562 -109.988281 C 27.671875 -109.285156 19.035156 -84.429688 18.683594 -83.726562 L 5.113281 -83.726562 C 2.996094 -83.726562 1.410156 -81.964844 1.410156 -80.023438 C 1.410156 -77.910156 2.996094 -76.324219 5.113281 -76.324219 L 16.214844 -76.324219 L 7.226562 -51.117188 C 1.585938 -36.664062 -2.820312 -21.328125 -2.820312 -14.804688 C -2.820312 -6.34375 1.761719 0 10.222656 0 C 26.441406 0 36.3125 -14.984375 46.535156 -37.015625 C 46.710938 -37.542969 46.886719 -38.074219 46.886719 -38.601562 C 46.886719 -40.011719 46.003906 -41.246094 44.769531 -41.949219 Z M 44.769531 -41.949219 "/></g></g></g><g fill="#eb5e28" fill-opacity="1"><g transform="translate(282.193454, 248.974967)"><g><path d="M 217.152344 -112.792969 C 225.292969 -135.757812 236.339844 -166.28125 236.339844 -188.082031 C 236.339844 -204.070312 230.523438 -215.117188 213.082031 -215.117188 C 202.910156 -215.117188 191.570312 -208.140625 183.140625 -197.964844 C 172.675781 -184.304688 160.464844 -161.339844 146.804688 -136.046875 C 139.828125 -123.546875 132.851562 -110.464844 125.582031 -97.675781 L 104.070312 -97.675781 C 100.582031 -97.675781 97.675781 -94.769531 97.675781 -91.28125 C 97.675781 -88.082031 100.582031 -85.175781 104.070312 -85.175781 L 118.316406 -85.175781 C 98.546875 -52.035156 73.546875 -12.5 44.1875 -12.5 C 26.746094 -12.5 12.210938 -23.257812 12.210938 -39.824219 C 12.210938 -57.847656 27.90625 -75.582031 44.769531 -75.582031 C 49.128906 -75.582031 54.070312 -73.257812 55.523438 -73.257812 C 59.011719 -73.257812 61.628906 -76.164062 61.628906 -79.359375 C 61.628906 -81.6875 60.464844 -83.722656 58.140625 -84.882812 C 53.78125 -86.917969 49.128906 -87.792969 44.769531 -87.792969 C 21.511719 -87.792969 0 -65.40625 0 -39.824219 C 0 -15.699219 20.058594 0 44.1875 0 C 79.941406 0 109.304688 -45.058594 132.558594 -85.175781 L 194.1875 -85.175781 L 193.023438 -81.976562 C 181.398438 -50.871094 160.464844 4.359375 160.464844 22.09375 C 160.464844 46.222656 170.640625 60.464844 192.441406 61.046875 C 195.640625 61.046875 198.546875 58.140625 198.546875 54.941406 C 198.546875 51.453125 195.640625 48.546875 192.441406 48.546875 C 178.78125 48.546875 172.964844 40.40625 172.964844 22.09375 C 172.964844 6.976562 193.023438 -47.09375 204.363281 -77.90625 C 205.816406 -81.394531 210.757812 -94.769531 217.152344 -112.792969 Z M 205.523438 -117.152344 L 198.546875 -97.675781 L 139.535156 -97.675781 C 145.640625 -108.429688 151.746094 -119.769531 157.558594 -130.234375 C 170.929688 -154.941406 183.140625 -177.617188 193.023438 -190.410156 C 197.964844 -196.804688 206.398438 -202.617188 213.082031 -202.617188 C 221.511719 -202.617188 224.421875 -196.222656 224.421875 -186.628906 C 224.421875 -167.734375 212.210938 -135.757812 205.523438 -117.152344 Z M 205.523438 -117.152344 "/></g></g></g><g fill="#000000" fill-opacity="1"><g transform="translate(269.34553, 236.127043)"><g><path d="M 217.152344 -112.792969 C 225.292969 -135.757812 236.339844 -166.28125 236.339844 -188.082031 C 236.339844 -204.070312 230.523438 -215.117188 213.082031 -215.117188 C 202.910156 -215.117188 191.570312 -208.140625 183.140625 -197.964844 C 172.675781 -184.304688 160.464844 -161.339844 146.804688 -136.046875 C 139.828125 -123.546875 132.851562 -110.464844 125.582031 -97.675781 L 104.070312 -97.675781 C 100.582031 -97.675781 97.675781 -94.769531 97.675781 -91.28125 C 97.675781 -88.082031 100.582031 -85.175781 104.070312 -85.175781 L 118.316406 -85.175781 C 98.546875 -52.035156 73.546875 -12.5 44.1875 -12.5 C 26.746094 -12.5 12.210938 -23.257812 12.210938 -39.824219 C 12.210938 -57.847656 27.90625 -75.582031 44.769531 -75.582031 C 49.128906 -75.582031 54.070312 -73.257812 55.523438 -73.257812 C 59.011719 -73.257812 61.628906 -76.164062 61.628906 -79.359375 C 61.628906 -81.6875 60.464844 -83.722656 58.140625 -84.882812 C 53.78125 -86.917969 49.128906 -87.792969 44.769531 -87.792969 C 21.511719 -87.792969 0 -65.40625 0 -39.824219 C 0 -15.699219 20.058594 0 44.1875 0 C 79.941406 0 109.304688 -45.058594 132.558594 -85.175781 L 194.1875 -85.175781 L 193.023438 -81.976562 C 181.398438 -50.871094 160.464844 4.359375 160.464844 22.09375 C 160.464844 46.222656 170.640625 60.464844 192.441406 61.046875 C 195.640625 61.046875 198.546875 58.140625 198.546875 54.941406 C 198.546875 51.453125 195.640625 48.546875 192.441406 48.546875 C 178.78125 48.546875 172.964844 40.40625 172.964844 22.09375 C 172.964844 6.976562 193.023438 -47.09375 204.363281 -77.90625 C 205.816406 -81.394531 210.757812 -94.769531 217.152344 -112.792969 Z M 205.523438 -117.152344 L 198.546875 -97.675781 L 139.535156 -97.675781 C 145.640625 -108.429688 151.746094 -119.769531 157.558594 -130.234375 C 170.929688 -154.941406 183.140625 -177.617188 193.023438 -190.410156 C 197.964844 -196.804688 206.398438 -202.617188 213.082031 -202.617188 C 221.511719 -202.617188 224.421875 -196.222656 224.421875 -186.628906 C 224.421875 -167.734375 212.210938 -135.757812 205.523438 -117.152344 Z M 205.523438 -117.152344 "/></g></g></g><g fill="#eb5e28" fill-opacity="1"><g transform="translate(747.644976, 333.054441)"><g><path d="M 53.761719 -129.203125 C 51.820312 -129.90625 49.707031 -128.851562 49.179688 -126.910156 L -1.234375 16.570312 C -1.9375 18.507812 -1.058594 20.621094 0.882812 21.328125 C 2.820312 22.03125 4.933594 20.976562 5.640625 19.035156 L 56.050781 -124.441406 C 56.757812 -126.382812 55.699219 -128.496094 53.761719 -129.203125 Z M 53.761719 -129.203125 "/></g></g></g><g fill="#eb5e28" fill-opacity="1"><g transform="translate(784.307415, 333.054441)"><g><path d="M 15.511719 -31.726562 C 16.214844 -29.789062 18.332031 -28.730469 20.269531 -29.4375 L 77.734375 -51.117188 C 79.671875 -51.820312 80.730469 -53.9375 80.023438 -55.875 C 79.671875 -56.933594 78.789062 -57.636719 77.910156 -57.992188 L 32.960938 -77.910156 C 31.023438 -78.789062 28.90625 -77.910156 28.027344 -76.144531 C 27.144531 -74.207031 28.027344 -71.917969 29.964844 -71.210938 L 66.628906 -54.820312 L 17.625 -36.488281 C 15.6875 -35.78125 14.804688 -33.667969 15.511719 -31.726562 Z M 15.511719 -31.726562 "/></g></g></g><g fill="#000000" fill-opacity="1"><g transform="translate(739.854793, 325.264255)"><g><path d="M 53.761719 -129.203125 C 51.820312 -129.90625 49.707031 -128.851562 49.179688 -126.910156 L -1.234375 16.570312 C -1.9375 18.507812 -1.058594 20.621094 0.882812 21.328125 C 2.820312 22.03125 4.933594 20.976562 5.640625 19.035156 L 56.050781 -124.441406 C 56.757812 -126.382812 55.699219 -128.496094 53.761719 -129.203125 Z M 53.761719 -129.203125 "/></g></g></g><g fill="#000000" fill-opacity="1"><g transform="translate(776.517232, 325.264255)"><g><path d="M 15.511719 -31.726562 C 16.214844 -29.789062 18.332031 -28.730469 20.269531 -29.4375 L 77.734375 -51.117188 C 79.671875 -51.820312 80.730469 -53.9375 80.023438 -55.875 C 79.671875 -56.933594 78.789062 -57.636719 77.910156 -57.992188 L 32.960938 -77.910156 C 31.023438 -78.789062 28.90625 -77.910156 28.027344 -76.144531 C 27.144531 -74.207031 28.027344 -71.917969 29.964844 -71.210938 L 66.628906 -54.820312 L 17.625 -36.488281 C 15.6875 -35.78125 14.804688 -33.667969 15.511719 -31.726562 Z M 15.511719 -31.726562 "/></g></g></g><g fill="#eb5e28" fill-opacity="1"><g transform="translate(189.403712, 247.162573)"><g><path d="M 80.023438 -75.792969 C 79.320312 -77.734375 77.203125 -78.789062 75.265625 -78.085938 L 17.804688 -56.40625 C 15.863281 -55.699219 14.804688 -53.585938 15.511719 -51.644531 C 15.863281 -50.589844 16.746094 -49.882812 17.625 -49.53125 L 62.574219 -29.613281 C 64.511719 -28.730469 66.628906 -29.613281 67.507812 -31.375 C 68.390625 -33.3125 67.507812 -35.605469 65.570312 -36.3125 L 28.90625 -52.703125 L 77.910156 -71.035156 C 79.847656 -71.738281 80.730469 -73.855469 80.023438 -75.792969 Z M 80.023438 -75.792969 "/></g></g></g><g fill="#000000" fill-opacity="1"><g transform="translate(181.613526, 239.372387)"><g><path d="M 80.023438 -75.792969 C 79.320312 -77.734375 77.203125 -78.789062 75.265625 -78.085938 L 17.804688 -56.40625 C 15.863281 -55.699219 14.804688 -53.585938 15.511719 -51.644531 C 15.863281 -50.589844 16.746094 -49.882812 17.625 -49.53125 L 62.574219 -29.613281 C 64.511719 -28.730469 66.628906 -29.613281 67.507812 -31.375 C 68.390625 -33.3125 67.507812 -35.605469 65.570312 -36.3125 L 28.90625 -52.703125 L 77.910156 -71.035156 C 79.847656 -71.738281 80.730469 -73.855469 80.023438 -75.792969 Z M 80.023438 -75.792969 "/></g></g></g></svg>