<svg xmlns="http://www.w3.org/2000/svg" xmlns:xlink="http://www.w3.org/1999/xlink" width="1500" zoomAndPan="magnify" viewBox="0 0 1125 374.999991" height="500" preserveAspectRatio="xMidYMid meet" version="1.0"><defs><filter x="0%" y="0%" width="100%" height="100%" id="1ffe280ed8"><feColorMatrix values="0 0 0 0 1 0 0 0 0 1 0 0 0 0 1 0 0 0 1 0" color-interpolation-filters="sRGB"/></filter><g/><mask id="ddc65731a4"><g filter="url(#1ffe280ed8)"><rect x="-112.5" width="1350" fill="#000000" y="-37.499999" height="449.999989" fill-opacity="0.2"/></g></mask><clipPath id="43558bf45b"><path d="M 0.238281 0.078125 L 837 0.078125 L 837 246.75 L 0.238281 246.75 Z M 0.238281 0.078125 " clip-rule="nonzero"/></clipPath><clipPath id="b6485d6aaa"><path d="M 29.589844 0.25 L 807.410156 0.25 C 815.164062 0.25 822.597656 3.328125 828.082031 8.808594 C 833.5625 14.292969 836.640625 21.726562 836.640625 29.480469 L 836.640625 217.519531 C 836.640625 225.273438 833.5625 232.707031 828.082031 238.1875 C 822.597656 243.671875 815.164062 246.75 807.410156 246.75 L 29.589844 246.75 C 21.835938 246.75 14.402344 243.671875 8.917969 238.1875 C 3.4375 232.707031 0.359375 225.273438 0.359375 217.519531 L 0.359375 29.480469 C 0.359375 21.726562 3.4375 14.292969 8.917969 8.808594 C 14.402344 3.328125 21.835938 0.25 29.589844 0.25 Z M 29.589844 0.25 " clip-rule="nonzero"/></clipPath><clipPath id="f3bbf4fd60"><rect x="0" width="838" y="0" height="247"/></clipPath></defs><g mask="url(#ddc65731a4)"><g transform="matrix(1, 0, 0, 1, 144, 64)"><g clip-path="url(#f3bbf4fd60)"><g clip-path="url(#43558bf45b)"><g clip-path="url(#b6485d6aaa)"><path fill="#f05f1b" d="M 0.359375 0.25 L 837.113281 0.25 L 837.113281 246.75 L 0.359375 246.75 Z M 0.359375 0.25 " fill-opacity="1" fill-rule="nonzero"/></g></g></g></g></g><g fill="#eb5e28" fill-opacity="1"><g transform="translate(503.918448, 266.32888)"><g><path d="M 78.789062 -37.191406 C 79.847656 -39.660156 77.910156 -42.304688 75.265625 -42.304688 C 73.855469 -42.304688 72.445312 -41.421875 71.917969 -40.011719 C 65.746094 -25.382812 59.578125 -18.683594 52.175781 -18.683594 C 48.121094 -18.683594 45.125 -19.917969 43.183594 -22.386719 C 51.292969 -36.132812 56.933594 -53.410156 56.933594 -64.511719 C 56.933594 -75.089844 50.941406 -83.019531 39.308594 -83.375 C 30.492188 -83.375 21.855469 -77.203125 14.453125 -64.867188 C 8.636719 -55.347656 -0.527344 -38.25 -0.527344 -17.804688 C -0.527344 -7.578125 3.347656 0 14.804688 0 C 23.265625 0 32.257812 -7.226562 38.777344 -16.039062 C 42.65625 -12.867188 47.238281 -11.28125 52.175781 -11.28125 C 62.75 -11.28125 71.035156 -19.390625 78.789062 -37.191406 Z M 37.898438 -42.304688 C 36.132812 -42.304688 34.546875 -41.246094 34.195312 -39.484375 C 32.960938 -35.078125 32.609375 -27.320312 34.546875 -22.738281 C 28.730469 -14.453125 21.328125 -7.402344 14.804688 -7.402344 C 9.164062 -7.402344 7.050781 -11.808594 7.050781 -18.15625 C 7.050781 -36.3125 16.394531 -53.410156 20.976562 -60.988281 C 26.085938 -69.800781 32.433594 -75.96875 39.128906 -75.96875 C 45.125 -75.96875 49.53125 -72.09375 49.53125 -64.6875 C 49.53125 -56.582031 46.179688 -44.417969 40.71875 -33.492188 C 40.894531 -34.722656 40.894531 -36.132812 41.421875 -37.542969 C 42.128906 -40.011719 40.363281 -42.304688 37.898438 -42.304688 Z M 37.898438 -42.304688 "/></g></g></g><g fill="#eb5e28" fill-opacity="1"><g transform="translate(572.836778, 266.32888)"><g><path d="M 75.265625 -41.949219 C 74.738281 -42.128906 74.207031 -42.304688 73.679688 -42.304688 C 70.507812 -42.304688 70.507812 -39.308594 67.6875 -34.019531 C 63.277344 -25.910156 58.695312 -18.683594 49.882812 -18.683594 C 46.710938 -18.683594 43.359375 -20.269531 41.421875 -22.5625 C 41.773438 -22.914062 41.949219 -23.441406 42.128906 -23.796875 C 49 -35.957031 54.640625 -51.644531 54.820312 -63.632812 C 54.820312 -74.738281 51.117188 -83.375 40.011719 -83.375 C 33.492188 -83.375 27.851562 -80.199219 22.914062 -75.089844 C 25.910156 -83.195312 27.320312 -87.605469 30.316406 -96.417969 L 34.195312 -107.875 C 35.078125 -110.164062 33.3125 -112.808594 30.671875 -112.808594 C 29.082031 -112.808594 27.671875 -111.929688 27.144531 -110.34375 C 25.734375 -106.464844 24.324219 -101.882812 23.265625 -98.53125 C 22.738281 -96.769531 3.347656 -41.246094 2.292969 -38.074219 C 0.175781 -32.257812 -3.171875 -23.441406 -3.171875 -15.511719 C -3.171875 -5.289062 1.234375 0 10.753906 0 C 21.679688 0 30.140625 -6.34375 37.367188 -16.214844 C 40.71875 -12.867188 45.125 -11.28125 49.882812 -11.28125 C 61.164062 -11.28125 68.390625 -19.210938 74.207031 -30.671875 C 75.265625 -32.609375 77.554688 -37.191406 77.554688 -38.601562 C 77.554688 -40.011719 76.675781 -41.421875 75.265625 -41.949219 Z M 36.3125 -42.304688 C 34.722656 -42.304688 33.3125 -41.246094 32.785156 -39.484375 C 31.726562 -36.3125 31.550781 -33.667969 31.550781 -31.023438 C 31.550781 -27.851562 32.082031 -25.207031 32.960938 -22.914062 C 26.792969 -13.574219 19.210938 -7.402344 10.929688 -7.402344 C 6.167969 -7.402344 4.230469 -10.222656 4.230469 -15.863281 C 4.230469 -19.390625 5.464844 -24.148438 8.109375 -31.550781 C 15.160156 -49.355469 26.085938 -75.96875 40.363281 -75.96875 C 46.359375 -75.96875 47.238281 -71.035156 47.238281 -63.984375 C 47.238281 -55.347656 43.890625 -43.714844 39.308594 -34.546875 C 39.484375 -35.429688 39.660156 -36.488281 40.011719 -37.542969 C 40.539062 -40.011719 38.777344 -42.304688 36.3125 -42.304688 Z M 36.3125 -42.304688 "/></g></g></g><g fill="#eb5e28" fill-opacity="1"><g transform="translate(640.168752, 266.32888)"><g><path d="M 75.265625 -41.949219 C 74.738281 -42.128906 74.207031 -42.304688 73.679688 -42.304688 C 70.507812 -42.304688 70.507812 -39.308594 67.6875 -34.019531 C 63.277344 -25.910156 58.695312 -18.683594 49.882812 -18.683594 C 46.710938 -18.683594 43.359375 -20.269531 41.421875 -22.5625 C 41.773438 -22.914062 41.949219 -23.441406 42.128906 -23.796875 C 49 -35.957031 54.640625 -51.644531 54.820312 -63.632812 C 54.820312 -74.738281 51.117188 -83.375 40.011719 -83.375 C 33.492188 -83.375 27.851562 -80.199219 22.914062 -75.089844 C 25.910156 -83.195312 27.320312 -87.605469 30.316406 -96.417969 L 34.195312 -107.875 C 35.078125 -110.164062 33.3125 -112.808594 30.671875 -112.808594 C 29.082031 -112.808594 27.671875 -111.929688 27.144531 -110.34375 C 25.734375 -106.464844 24.324219 -101.882812 23.265625 -98.53125 C 22.738281 -96.769531 3.347656 -41.246094 2.292969 -38.074219 C 0.175781 -32.257812 -3.171875 -23.441406 -3.171875 -15.511719 C -3.171875 -5.289062 1.234375 0 10.753906 0 C 21.679688 0 30.140625 -6.34375 37.367188 -16.214844 C 40.71875 -12.867188 45.125 -11.28125 49.882812 -11.28125 C 61.164062 -11.28125 68.390625 -19.210938 74.207031 -30.671875 C 75.265625 -32.609375 77.554688 -37.191406 77.554688 -38.601562 C 77.554688 -40.011719 76.675781 -41.421875 75.265625 -41.949219 Z M 36.3125 -42.304688 C 34.722656 -42.304688 33.3125 -41.246094 32.785156 -39.484375 C 31.726562 -36.3125 31.550781 -33.667969 31.550781 -31.023438 C 31.550781 -27.851562 32.082031 -25.207031 32.960938 -22.914062 C 26.792969 -13.574219 19.210938 -7.402344 10.929688 -7.402344 C 6.167969 -7.402344 4.230469 -10.222656 4.230469 -15.863281 C 4.230469 -19.390625 5.464844 -24.148438 8.109375 -31.550781 C 15.160156 -49.355469 26.085938 -75.96875 40.363281 -75.96875 C 46.359375 -75.96875 47.238281 -71.035156 47.238281 -63.984375 C 47.238281 -55.347656 43.890625 -43.714844 39.308594 -34.546875 C 39.484375 -35.429688 39.660156 -36.488281 40.011719 -37.542969 C 40.539062 -40.011719 38.777344 -42.304688 36.3125 -42.304688 Z M 36.3125 -42.304688 "/></g></g></g><g fill="#eb5e28" fill-opacity="1"><g transform="translate(707.500725, 266.32888)"><g><path d="M 28.730469 -92.363281 C 32.082031 -92.363281 34.722656 -95.007812 34.722656 -98.355469 C 34.722656 -101.703125 32.082031 -104.347656 28.730469 -104.347656 C 25.382812 -104.347656 22.5625 -101.703125 22.5625 -98.355469 C 22.5625 -95.007812 25.382812 -92.363281 28.730469 -92.363281 Z M 40.363281 -41.949219 C 39.835938 -42.128906 39.484375 -42.304688 38.953125 -42.304688 C 37.542969 -42.304688 36.132812 -41.421875 35.429688 -40.011719 C 28.90625 -25.558594 20.800781 -7.402344 9.871094 -7.402344 C 6.167969 -7.402344 4.582031 -9.695312 4.582031 -14.804688 C 4.582031 -22.386719 7.753906 -30.492188 24.851562 -78.613281 C 25.910156 -81.609375 23.621094 -83.375 21.328125 -83.375 C 19.917969 -83.375 18.507812 -82.492188 17.980469 -80.90625 C 10.222656 -60.8125 -2.292969 -28.554688 -2.820312 -14.804688 C -3.171875 -6.699219 1.410156 0 9.871094 0 C 24.675781 0 33.84375 -17.980469 42.304688 -37.015625 C 42.480469 -37.542969 42.65625 -38.074219 42.65625 -38.601562 C 42.65625 -40.011719 41.773438 -41.421875 40.363281 -41.949219 Z M 40.363281 -41.949219 "/></g></g></g><g fill="#eb5e28" fill-opacity="1"><g transform="translate(739.932867, 266.32888)"><g><path d="M 63.808594 -41.949219 C 61.867188 -42.65625 59.753906 -41.773438 58.871094 -40.011719 C 49 -17.273438 37.722656 -7.050781 23.265625 -7.402344 C 12.691406 -7.753906 7.050781 -13.925781 7.402344 -23.972656 C 7.578125 -27.671875 8.109375 -31.023438 9.34375 -35.605469 C 28.90625 -40.363281 55.171875 -51.644531 55.171875 -70.328125 C 55.171875 -78.789062 49 -83.375 40.1875 -83.375 C 19.390625 -83.375 1.058594 -46.710938 0 -24.148438 C -0.351562 -9.695312 8.460938 0 23.089844 0 C 40.894531 0 54.289062 -11.632812 65.746094 -37.015625 C 65.921875 -37.542969 66.097656 -37.898438 66.097656 -38.425781 C 66.097656 -39.835938 65.21875 -41.246094 63.808594 -41.949219 Z M 12.164062 -44.066406 C 17.804688 -57.636719 28.027344 -75.96875 40.1875 -75.96875 C 44.066406 -75.96875 47.769531 -75.089844 47.769531 -70.328125 C 47.769531 -57.285156 26.792969 -48.648438 12.164062 -44.066406 Z M 12.164062 -44.066406 "/></g></g></g><g fill="#eb5e28" fill-opacity="1"><g transform="translate(795.807817, 266.32888)"><g><path d="M 58.167969 -31.199219 C 57.992188 -43.183594 53.230469 -49.355469 44.066406 -66.277344 C 49.53125 -72.445312 53.9375 -80.199219 53.9375 -87.25 C 53.585938 -92.363281 50.589844 -96.417969 45.476562 -96.417969 C 38.25 -96.417969 32.609375 -88.660156 32.609375 -79.496094 C 32.609375 -75.441406 33.667969 -71.5625 35.253906 -67.863281 C 33.136719 -65.746094 31.375 -63.808594 29.261719 -61.339844 C 28.730469 -60.636719 28.378906 -59.753906 28.378906 -59.046875 C 28.378906 -57.992188 28.730469 -56.757812 29.613281 -56.050781 C 30.316406 -55.347656 31.375 -55.171875 32.257812 -55.171875 C 33.3125 -55.171875 34.371094 -55.699219 35.078125 -56.582031 C 36.132812 -57.992188 37.367188 -59.402344 38.601562 -60.636719 C 47.945312 -44.242188 50.589844 -39.128906 50.765625 -31.375 C 50.410156 -16.746094 40.1875 -7.402344 25.910156 -7.402344 C 15.6875 -7.402344 6.699219 -14.984375 6.699219 -25.734375 C 7.402344 -36.488281 13.75 -44.59375 23.441406 -44.59375 C 28.027344 -44.59375 32.433594 -40.1875 32.785156 -34.195312 C 32.785156 -32.082031 34.371094 -30.492188 36.488281 -30.492188 C 38.601562 -30.492188 40.1875 -32.082031 40.1875 -34.195312 C 39.835938 -43.890625 32.433594 -52 23.265625 -52 C 9.164062 -52 0.351562 -41.597656 -0.703125 -25.734375 C -0.703125 -11.457031 11.28125 0 25.910156 0 C 43.714844 0 57.816406 -12.164062 58.167969 -31.199219 Z M 40.894531 -74.03125 C 40.363281 -75.96875 40.011719 -77.734375 40.011719 -79.671875 C 40.011719 -82.140625 40.539062 -85.3125 42.65625 -87.425781 C 44.417969 -89.191406 46.359375 -89.71875 46.359375 -87.25 C 46.359375 -83.375 43.714844 -77.910156 40.894531 -74.03125 Z M 40.894531 -74.03125 "/></g></g></g><g fill="#000000" fill-opacity="1"><g transform="translate(496.128262, 258.538694)"><g><path d="M 78.789062 -37.191406 C 79.847656 -39.660156 77.910156 -42.304688 75.265625 -42.304688 C 73.855469 -42.304688 72.445312 -41.421875 71.917969 -40.011719 C 65.746094 -25.382812 59.578125 -18.683594 52.175781 -18.683594 C 48.121094 -18.683594 45.125 -19.917969 43.183594 -22.386719 C 51.292969 -36.132812 56.933594 -53.410156 56.933594 -64.511719 C 56.933594 -75.089844 50.941406 -83.019531 39.308594 -83.375 C 30.492188 -83.375 21.855469 -77.203125 14.453125 -64.867188 C 8.636719 -55.347656 -0.527344 -38.25 -0.527344 -17.804688 C -0.527344 -7.578125 3.347656 0 14.804688 0 C 23.265625 0 32.257812 -7.226562 38.777344 -16.039062 C 42.65625 -12.867188 47.238281 -11.28125 52.175781 -11.28125 C 62.75 -11.28125 71.035156 -19.390625 78.789062 -37.191406 Z M 37.898438 -42.304688 C 36.132812 -42.304688 34.546875 -41.246094 34.195312 -39.484375 C 32.960938 -35.078125 32.609375 -27.320312 34.546875 -22.738281 C 28.730469 -14.453125 21.328125 -7.402344 14.804688 -7.402344 C 9.164062 -7.402344 7.050781 -11.808594 7.050781 -18.15625 C 7.050781 -36.3125 16.394531 -53.410156 20.976562 -60.988281 C 26.085938 -69.800781 32.433594 -75.96875 39.128906 -75.96875 C 45.125 -75.96875 49.53125 -72.09375 49.53125 -64.6875 C 49.53125 -56.582031 46.179688 -44.417969 40.71875 -33.492188 C 40.894531 -34.722656 40.894531 -36.132812 41.421875 -37.542969 C 42.128906 -40.011719 40.363281 -42.304688 37.898438 -42.304688 Z M 37.898438 -42.304688 "/></g></g></g><g fill="#000000" fill-opacity="1"><g transform="translate(565.046593, 258.538694)"><g><path d="M 75.265625 -41.949219 C 74.738281 -42.128906 74.207031 -42.304688 73.679688 -42.304688 C 70.507812 -42.304688 70.507812 -39.308594 67.6875 -34.019531 C 63.277344 -25.910156 58.695312 -18.683594 49.882812 -18.683594 C 46.710938 -18.683594 43.359375 -20.269531 41.421875 -22.5625 C 41.773438 -22.914062 41.949219 -23.441406 42.128906 -23.796875 C 49 -35.957031 54.640625 -51.644531 54.820312 -63.632812 C 54.820312 -74.738281 51.117188 -83.375 40.011719 -83.375 C 33.492188 -83.375 27.851562 -80.199219 22.914062 -75.089844 C 25.910156 -83.195312 27.320312 -87.605469 30.316406 -96.417969 L 34.195312 -107.875 C 35.078125 -110.164062 33.3125 -112.808594 30.671875 -112.808594 C 29.082031 -112.808594 27.671875 -111.929688 27.144531 -110.34375 C 25.734375 -106.464844 24.324219 -101.882812 23.265625 -98.53125 C 22.738281 -96.769531 3.347656 -41.246094 2.292969 -38.074219 C 0.175781 -32.257812 -3.171875 -23.441406 -3.171875 -15.511719 C -3.171875 -5.289062 1.234375 0 10.753906 0 C 21.679688 0 30.140625 -6.34375 37.367188 -16.214844 C 40.71875 -12.867188 45.125 -11.28125 49.882812 -11.28125 C 61.164062 -11.28125 68.390625 -19.210938 74.207031 -30.671875 C 75.265625 -32.609375 77.554688 -37.191406 77.554688 -38.601562 C 77.554688 -40.011719 76.675781 -41.421875 75.265625 -41.949219 Z M 36.3125 -42.304688 C 34.722656 -42.304688 33.3125 -41.246094 32.785156 -39.484375 C 31.726562 -36.3125 31.550781 -33.667969 31.550781 -31.023438 C 31.550781 -27.851562 32.082031 -25.207031 32.960938 -22.914062 C 26.792969 -13.574219 19.210938 -7.402344 10.929688 -7.402344 C 6.167969 -7.402344 4.230469 -10.222656 4.230469 -15.863281 C 4.230469 -19.390625 5.464844 -24.148438 8.109375 -31.550781 C 15.160156 -49.355469 26.085938 -75.96875 40.363281 -75.96875 C 46.359375 -75.96875 47.238281 -71.035156 47.238281 -63.984375 C 47.238281 -55.347656 43.890625 -43.714844 39.308594 -34.546875 C 39.484375 -35.429688 39.660156 -36.488281 40.011719 -37.542969 C 40.539062 -40.011719 38.777344 -42.304688 36.3125 -42.304688 Z M 36.3125 -42.304688 "/></g></g></g><g fill="#000000" fill-opacity="1"><g transform="translate(632.378566, 258.538694)"><g><path d="M 75.265625 -41.949219 C 74.738281 -42.128906 74.207031 -42.304688 73.679688 -42.304688 C 70.507812 -42.304688 70.507812 -39.308594 67.6875 -34.019531 C 63.277344 -25.910156 58.695312 -18.683594 49.882812 -18.683594 C 46.710938 -18.683594 43.359375 -20.269531 41.421875 -22.5625 C 41.773438 -22.914062 41.949219 -23.441406 42.128906 -23.796875 C 49 -35.957031 54.640625 -51.644531 54.820312 -63.632812 C 54.820312 -74.738281 51.117188 -83.375 40.011719 -83.375 C 33.492188 -83.375 27.851562 -80.199219 22.914062 -75.089844 C 25.910156 -83.195312 27.320312 -87.605469 30.316406 -96.417969 L 34.195312 -107.875 C 35.078125 -110.164062 33.3125 -112.808594 30.671875 -112.808594 C 29.082031 -112.808594 27.671875 -111.929688 27.144531 -110.34375 C 25.734375 -106.464844 24.324219 -101.882812 23.265625 -98.53125 C 22.738281 -96.769531 3.347656 -41.246094 2.292969 -38.074219 C 0.175781 -32.257812 -3.171875 -23.441406 -3.171875 -15.511719 C -3.171875 -5.289062 1.234375 0 10.753906 0 C 21.679688 0 30.140625 -6.34375 37.367188 -16.214844 C 40.71875 -12.867188 45.125 -11.28125 49.882812 -11.28125 C 61.164062 -11.28125 68.390625 -19.210938 74.207031 -30.671875 C 75.265625 -32.609375 77.554688 -37.191406 77.554688 -38.601562 C 77.554688 -40.011719 76.675781 -41.421875 75.265625 -41.949219 Z M 36.3125 -42.304688 C 34.722656 -42.304688 33.3125 -41.246094 32.785156 -39.484375 C 31.726562 -36.3125 31.550781 -33.667969 31.550781 -31.023438 C 31.550781 -27.851562 32.082031 -25.207031 32.960938 -22.914062 C 26.792969 -13.574219 19.210938 -7.402344 10.929688 -7.402344 C 6.167969 -7.402344 4.230469 -10.222656 4.230469 -15.863281 C 4.230469 -19.390625 5.464844 -24.148438 8.109375 -31.550781 C 15.160156 -49.355469 26.085938 -75.96875 40.363281 -75.96875 C 46.359375 -75.96875 47.238281 -71.035156 47.238281 -63.984375 C 47.238281 -55.347656 43.890625 -43.714844 39.308594 -34.546875 C 39.484375 -35.429688 39.660156 -36.488281 40.011719 -37.542969 C 40.539062 -40.011719 38.777344 -42.304688 36.3125 -42.304688 Z M 36.3125 -42.304688 "/></g></g></g><g fill="#000000" fill-opacity="1"><g transform="translate(699.710539, 258.538694)"><g><path d="M 28.730469 -92.363281 C 32.082031 -92.363281 34.722656 -95.007812 34.722656 -98.355469 C 34.722656 -101.703125 32.082031 -104.347656 28.730469 -104.347656 C 25.382812 -104.347656 22.5625 -101.703125 22.5625 -98.355469 C 22.5625 -95.007812 25.382812 -92.363281 28.730469 -92.363281 Z M 40.363281 -41.949219 C 39.835938 -42.128906 39.484375 -42.304688 38.953125 -42.304688 C 37.542969 -42.304688 36.132812 -41.421875 35.429688 -40.011719 C 28.90625 -25.558594 20.800781 -7.402344 9.871094 -7.402344 C 6.167969 -7.402344 4.582031 -9.695312 4.582031 -14.804688 C 4.582031 -22.386719 7.753906 -30.492188 24.851562 -78.613281 C 25.910156 -81.609375 23.621094 -83.375 21.328125 -83.375 C 19.917969 -83.375 18.507812 -82.492188 17.980469 -80.90625 C 10.222656 -60.8125 -2.292969 -28.554688 -2.820312 -14.804688 C -3.171875 -6.699219 1.410156 0 9.871094 0 C 24.675781 0 33.84375 -17.980469 42.304688 -37.015625 C 42.480469 -37.542969 42.65625 -38.074219 42.65625 -38.601562 C 42.65625 -40.011719 41.773438 -41.421875 40.363281 -41.949219 Z M 40.363281 -41.949219 "/></g></g></g><g fill="#000000" fill-opacity="1"><g transform="translate(732.142681, 258.538694)"><g><path d="M 63.808594 -41.949219 C 61.867188 -42.65625 59.753906 -41.773438 58.871094 -40.011719 C 49 -17.273438 37.722656 -7.050781 23.265625 -7.402344 C 12.691406 -7.753906 7.050781 -13.925781 7.402344 -23.972656 C 7.578125 -27.671875 8.109375 -31.023438 9.34375 -35.605469 C 28.90625 -40.363281 55.171875 -51.644531 55.171875 -70.328125 C 55.171875 -78.789062 49 -83.375 40.1875 -83.375 C 19.390625 -83.375 1.058594 -46.710938 0 -24.148438 C -0.351562 -9.695312 8.460938 0 23.089844 0 C 40.894531 0 54.289062 -11.632812 65.746094 -37.015625 C 65.921875 -37.542969 66.097656 -37.898438 66.097656 -38.425781 C 66.097656 -39.835938 65.21875 -41.246094 63.808594 -41.949219 Z M 12.164062 -44.066406 C 17.804688 -57.636719 28.027344 -75.96875 40.1875 -75.96875 C 44.066406 -75.96875 47.769531 -75.089844 47.769531 -70.328125 C 47.769531 -57.285156 26.792969 -48.648438 12.164062 -44.066406 Z M 12.164062 -44.066406 "/></g></g></g><g fill="#000000" fill-opacity="1"><g transform="translate(788.017631, 258.538694)"><g><path d="M 58.167969 -31.199219 C 57.992188 -43.183594 53.230469 -49.355469 44.066406 -66.277344 C 49.53125 -72.445312 53.9375 -80.199219 53.9375 -87.25 C 53.585938 -92.363281 50.589844 -96.417969 45.476562 -96.417969 C 38.25 -96.417969 32.609375 -88.660156 32.609375 -79.496094 C 32.609375 -75.441406 33.667969 -71.5625 35.253906 -67.863281 C 33.136719 -65.746094 31.375 -63.808594 29.261719 -61.339844 C 28.730469 -60.636719 28.378906 -59.753906 28.378906 -59.046875 C 28.378906 -57.992188 28.730469 -56.757812 29.613281 -56.050781 C 30.316406 -55.347656 31.375 -55.171875 32.257812 -55.171875 C 33.3125 -55.171875 34.371094 -55.699219 35.078125 -56.582031 C 36.132812 -57.992188 37.367188 -59.402344 38.601562 -60.636719 C 47.945312 -44.242188 50.589844 -39.128906 50.765625 -31.375 C 50.410156 -16.746094 40.1875 -7.402344 25.910156 -7.402344 C 15.6875 -7.402344 6.699219 -14.984375 6.699219 -25.734375 C 7.402344 -36.488281 13.75 -44.59375 23.441406 -44.59375 C 28.027344 -44.59375 32.433594 -40.1875 32.785156 -34.195312 C 32.785156 -32.082031 34.371094 -30.492188 36.488281 -30.492188 C 38.601562 -30.492188 40.1875 -32.082031 40.1875 -34.195312 C 39.835938 -43.890625 32.433594 -52 23.265625 -52 C 9.164062 -52 0.351562 -41.597656 -0.703125 -25.734375 C -0.703125 -11.457031 11.28125 0 25.910156 0 C 43.714844 0 57.816406 -12.164062 58.167969 -31.199219 Z M 40.894531 -74.03125 C 40.363281 -75.96875 40.011719 -77.734375 40.011719 -79.671875 C 40.011719 -82.140625 40.539062 -85.3125 42.65625 -87.425781 C 44.417969 -89.191406 46.359375 -89.71875 46.359375 -87.25 C 46.359375 -83.375 43.714844 -77.910156 40.894531 -74.03125 Z M 40.894531 -74.03125 "/></g></g></g><g fill="#eb5e28" fill-opacity="1"><g transform="translate(275.491209, 248.974938)"><g><path d="M 256.980469 -208.433594 C 254.652344 -208.433594 252.328125 -206.976562 251.457031 -204.652344 C 250.582031 -202.617188 244.1875 -184.011719 236.339844 -161.339844 C 228.78125 -140.40625 220.351562 -115.988281 213.953125 -97.675781 L 138.664062 -97.675781 L 142.152344 -109.011719 C 148.839844 -129.652344 156.976562 -155.523438 167.441406 -175 C 171.804688 -184.011719 180.523438 -191.570312 189.828125 -196.804688 C 192.152344 -197.964844 193.316406 -200 193.316406 -202.328125 C 193.316406 -204.652344 191.570312 -208.433594 187.210938 -208.433594 C 186.339844 -208.433594 185.175781 -208.140625 184.304688 -207.558594 C 177.910156 -204.070312 172.386719 -200 165.699219 -193.605469 C 151.453125 -196.222656 138.664062 -200.292969 126.746094 -204.070312 C 106.976562 -210.175781 88.953125 -215.699219 67.441406 -215.699219 C 41.859375 -215.699219 17.152344 -192.441406 17.152344 -164.246094 C 17.152344 -138.953125 34.59375 -121.804688 62.792969 -121.804688 C 73.257812 -121.804688 84.59375 -124.417969 94.769531 -129.070312 C 97.09375 -130.234375 98.257812 -132.269531 98.257812 -134.59375 C 98.257812 -136.917969 96.511719 -140.699219 92.441406 -140.699219 C 91.28125 -140.699219 90.40625 -140.40625 89.535156 -140.117188 C 80.816406 -136.339844 71.511719 -134.011719 63.082031 -134.011719 C 43.3125 -134.011719 29.359375 -143.605469 29.359375 -165.117188 C 29.359375 -184.59375 48.257812 -203.488281 67.441406 -203.488281 C 86.917969 -203.488281 104.359375 -197.964844 122.964844 -192.152344 C 133.722656 -188.953125 145.058594 -185.464844 157.558594 -182.558594 L 156.6875 -180.816406 C 145.351562 -160.175781 137.210938 -133.722656 130.523438 -112.792969 L 125.582031 -97.675781 L 109.304688 -97.675781 C 105.816406 -97.675781 103.199219 -94.769531 103.199219 -91.28125 C 103.199219 -88.082031 105.816406 -85.175781 109.304688 -85.175781 L 121.511719 -85.175781 C 120.640625 -82.847656 119.769531 -79.941406 118.894531 -77.324219 C 105.523438 -36.046875 92.441406 3.777344 50.582031 3.777344 C 25.582031 3.777344 12.210938 -13.082031 12.210938 -36.046875 C 12.210938 -64.246094 36.917969 -85.464844 62.792969 -85.464844 C 66.28125 -85.464844 68.894531 -88.371094 68.894531 -91.859375 C 68.894531 -95.058594 66.28125 -97.964844 62.792969 -97.964844 C 30.523438 -97.382812 0 -71.511719 0 -36.335938 C 0 -6.6875 17.734375 15.988281 50.292969 15.988281 C 101.453125 15.988281 115.988281 -27.90625 130.816406 -73.546875 C 131.976562 -77.324219 133.140625 -81.105469 134.59375 -85.175781 L 209.59375 -85.175781 L 204.652344 -71.511719 C 186.628906 -24.128906 176.164062 5.523438 176.164062 22.964844 C 176.164062 44.1875 185.464844 60.464844 207.851562 61.046875 C 211.339844 61.046875 213.953125 58.140625 214.246094 54.941406 C 214.246094 51.453125 211.339844 48.546875 208.140625 48.546875 C 193.316406 48.546875 187.792969 37.5 188.375 22.964844 C 188.953125 7.847656 197.386719 -15.988281 216.28125 -67.441406 C 218.316406 -72.964844 234.886719 -120.640625 247.675781 -157.269531 L 262.792969 -200.292969 C 264.246094 -204.070312 261.921875 -208.433594 256.980469 -208.433594 Z M 256.980469 -208.433594 "/></g></g></g><g fill="#000000" fill-opacity="1"><g transform="translate(262.643285, 236.127014)"><g><path d="M 256.980469 -208.433594 C 254.652344 -208.433594 252.328125 -206.976562 251.457031 -204.652344 C 250.582031 -202.617188 244.1875 -184.011719 236.339844 -161.339844 C 228.78125 -140.40625 220.351562 -115.988281 213.953125 -97.675781 L 138.664062 -97.675781 L 142.152344 -109.011719 C 148.839844 -129.652344 156.976562 -155.523438 167.441406 -175 C 171.804688 -184.011719 180.523438 -191.570312 189.828125 -196.804688 C 192.152344 -197.964844 193.316406 -200 193.316406 -202.328125 C 193.316406 -204.652344 191.570312 -208.433594 187.210938 -208.433594 C 186.339844 -208.433594 185.175781 -208.140625 184.304688 -207.558594 C 177.910156 -204.070312 172.386719 -200 165.699219 -193.605469 C 151.453125 -196.222656 138.664062 -200.292969 126.746094 -204.070312 C 106.976562 -210.175781 88.953125 -215.699219 67.441406 -215.699219 C 41.859375 -215.699219 17.152344 -192.441406 17.152344 -164.246094 C 17.152344 -138.953125 34.59375 -121.804688 62.792969 -121.804688 C 73.257812 -121.804688 84.59375 -124.417969 94.769531 -129.070312 C 97.09375 -130.234375 98.257812 -132.269531 98.257812 -134.59375 C 98.257812 -136.917969 96.511719 -140.699219 92.441406 -140.699219 C 91.28125 -140.699219 90.40625 -140.40625 89.535156 -140.117188 C 80.816406 -136.339844 71.511719 -134.011719 63.082031 -134.011719 C 43.3125 -134.011719 29.359375 -143.605469 29.359375 -165.117188 C 29.359375 -184.59375 48.257812 -203.488281 67.441406 -203.488281 C 86.917969 -203.488281 104.359375 -197.964844 122.964844 -192.152344 C 133.722656 -188.953125 145.058594 -185.464844 157.558594 -182.558594 L 156.6875 -180.816406 C 145.351562 -160.175781 137.210938 -133.722656 130.523438 -112.792969 L 125.582031 -97.675781 L 109.304688 -97.675781 C 105.816406 -97.675781 103.199219 -94.769531 103.199219 -91.28125 C 103.199219 -88.082031 105.816406 -85.175781 109.304688 -85.175781 L 121.511719 -85.175781 C 120.640625 -82.847656 119.769531 -79.941406 118.894531 -77.324219 C 105.523438 -36.046875 92.441406 3.777344 50.582031 3.777344 C 25.582031 3.777344 12.210938 -13.082031 12.210938 -36.046875 C 12.210938 -64.246094 36.917969 -85.464844 62.792969 -85.464844 C 66.28125 -85.464844 68.894531 -88.371094 68.894531 -91.859375 C 68.894531 -95.058594 66.28125 -97.964844 62.792969 -97.964844 C 30.523438 -97.382812 0 -71.511719 0 -36.335938 C 0 -6.6875 17.734375 15.988281 50.292969 15.988281 C 101.453125 15.988281 115.988281 -27.90625 130.816406 -73.546875 C 131.976562 -77.324219 133.140625 -81.105469 134.59375 -85.175781 L 209.59375 -85.175781 L 204.652344 -71.511719 C 186.628906 -24.128906 176.164062 5.523438 176.164062 22.964844 C 176.164062 44.1875 185.464844 60.464844 207.851562 61.046875 C 211.339844 61.046875 213.953125 58.140625 214.246094 54.941406 C 214.246094 51.453125 211.339844 48.546875 208.140625 48.546875 C 193.316406 48.546875 187.792969 37.5 188.375 22.964844 C 188.953125 7.847656 197.386719 -15.988281 216.28125 -67.441406 C 218.316406 -72.964844 234.886719 -120.640625 247.675781 -157.269531 L 262.792969 -200.292969 C 264.246094 -204.070312 261.921875 -208.433594 256.980469 -208.433594 Z M 256.980469 -208.433594 "/></g></g></g><g fill="#eb5e28" fill-opacity="1"><g transform="translate(850.00473, 308.917391)"><g><path d="M 53.761719 -129.203125 C 51.820312 -129.90625 49.707031 -128.851562 49.179688 -126.910156 L -1.234375 16.570312 C -1.9375 18.507812 -1.058594 20.621094 0.882812 21.328125 C 2.820312 22.03125 4.933594 20.976562 5.640625 19.035156 L 56.050781 -124.441406 C 56.757812 -126.382812 55.699219 -128.496094 53.761719 -129.203125 Z M 53.761719 -129.203125 "/></g></g></g><g fill="#eb5e28" fill-opacity="1"><g transform="translate(886.667169, 308.917391)"><g><path d="M 15.511719 -31.726562 C 16.214844 -29.789062 18.332031 -28.730469 20.269531 -29.4375 L 77.734375 -51.117188 C 79.671875 -51.820312 80.730469 -53.9375 80.023438 -55.875 C 79.671875 -56.933594 78.789062 -57.636719 77.910156 -57.992188 L 32.960938 -77.910156 C 31.023438 -78.789062 28.90625 -77.910156 28.027344 -76.144531 C 27.144531 -74.207031 28.027344 -71.917969 29.964844 -71.210938 L 66.628906 -54.820312 L 17.625 -36.488281 C 15.6875 -35.78125 14.804688 -33.667969 15.511719 -31.726562 Z M 15.511719 -31.726562 "/></g></g></g><g fill="#000000" fill-opacity="1"><g transform="translate(842.21457, 301.127207)"><g><path d="M 53.761719 -129.203125 C 51.820312 -129.90625 49.707031 -128.851562 49.179688 -126.910156 L -1.234375 16.570312 C -1.9375 18.507812 -1.058594 20.621094 0.882812 21.328125 C 2.820312 22.03125 4.933594 20.976562 5.640625 19.035156 L 56.050781 -124.441406 C 56.757812 -126.382812 55.699219 -128.496094 53.761719 -129.203125 Z M 53.761719 -129.203125 "/></g></g></g><g fill="#000000" fill-opacity="1"><g transform="translate(878.877009, 301.127207)"><g><path d="M 15.511719 -31.726562 C 16.214844 -29.789062 18.332031 -28.730469 20.269531 -29.4375 L 77.734375 -51.117188 C 79.671875 -51.820312 80.730469 -53.9375 80.023438 -55.875 C 79.671875 -56.933594 78.789062 -57.636719 77.910156 -57.992188 L 32.960938 -77.910156 C 31.023438 -78.789062 28.90625 -77.910156 28.027344 -76.144531 C 27.144531 -74.207031 28.027344 -71.917969 29.964844 -71.210938 L 66.628906 -54.820312 L 17.625 -36.488281 C 15.6875 -35.78125 14.804688 -33.667969 15.511719 -31.726562 Z M 15.511719 -31.726562 "/></g></g></g><g fill="#eb5e28" fill-opacity="1"><g transform="translate(182.833902, 141.414747)"><g><path d="M 80.023438 -75.792969 C 79.320312 -77.734375 77.203125 -78.789062 75.265625 -78.085938 L 17.804688 -56.40625 C 15.863281 -55.699219 14.804688 -53.585938 15.511719 -51.644531 C 15.863281 -50.589844 16.746094 -49.882812 17.625 -49.53125 L 62.574219 -29.613281 C 64.511719 -28.730469 66.628906 -29.613281 67.507812 -31.375 C 68.390625 -33.3125 67.507812 -35.605469 65.570312 -36.3125 L 28.90625 -52.703125 L 77.910156 -71.035156 C 79.847656 -71.738281 80.730469 -73.855469 80.023438 -75.792969 Z M 80.023438 -75.792969 "/></g></g></g><g fill="#000000" fill-opacity="1"><g transform="translate(175.043718, 133.624561)"><g><path d="M 80.023438 -75.792969 C 79.320312 -77.734375 77.203125 -78.789062 75.265625 -78.085938 L 17.804688 -56.40625 C 15.863281 -55.699219 14.804688 -53.585938 15.511719 -51.644531 C 15.863281 -50.589844 16.746094 -49.882812 17.625 -49.53125 L 62.574219 -29.613281 C 64.511719 -28.730469 66.628906 -29.613281 67.507812 -31.375 C 68.390625 -33.3125 67.507812 -35.605469 65.570312 -36.3125 L 28.90625 -52.703125 L 77.910156 -71.035156 C 79.847656 -71.738281 80.730469 -73.855469 80.023438 -75.792969 Z M 80.023438 -75.792969 "/></g></g></g></svg>