<svg xmlns="http://www.w3.org/2000/svg" xmlns:xlink="http://www.w3.org/1999/xlink" width="1500" zoomAndPan="magnify" viewBox="0 0 1125 374.999991" height="500" preserveAspectRatio="xMidYMid meet" version="1.0"><defs><filter x="0%" y="0%" width="100%" height="100%" id="b8e995272b"><feColorMatrix values="0 0 0 0 1 0 0 0 0 1 0 0 0 0 1 0 0 0 1 0" color-interpolation-filters="sRGB"/></filter><g/><mask id="9c0ef1a921"><g filter="url(#b8e995272b)"><rect x="-112.5" width="1350" fill="#000000" y="-37.499999" height="449.999989" fill-opacity="0.2"/></g></mask><clipPath id="a27f754c8b"><path d="M 0.238281 0.078125 L 837 0.078125 L 837 246.75 L 0.238281 246.75 Z M 0.238281 0.078125 " clip-rule="nonzero"/></clipPath><clipPath id="bc417dccfe"><path d="M 29.589844 0.25 L 807.410156 0.25 C 815.164062 0.25 822.597656 3.328125 828.082031 8.8125 C 833.5625 14.292969 836.640625 21.726562 836.640625 29.480469 L 836.640625 217.519531 C 836.640625 225.273438 833.5625 232.707031 828.082031 238.1875 C 822.597656 243.671875 815.164062 246.75 807.410156 246.75 L 29.589844 246.75 C 21.835938 246.75 14.402344 243.671875 8.917969 238.1875 C 3.4375 232.707031 0.359375 225.273438 0.359375 217.519531 L 0.359375 29.480469 C 0.359375 21.726562 3.4375 14.292969 8.917969 8.8125 C 14.402344 3.328125 21.835938 0.25 29.589844 0.25 Z M 29.589844 0.25 " clip-rule="nonzero"/></clipPath><clipPath id="7381d80fc9"><rect x="0" width="838" y="0" height="247"/></clipPath></defs><g mask="url(#9c0ef1a921)"><g transform="matrix(1, 0, 0, 1, 144, 64)"><g clip-path="url(#7381d80fc9)"><g clip-path="url(#a27f754c8b)"><g clip-path="url(#bc417dccfe)"><path fill="#f05f1b" d="M 0.359375 0.25 L 837.113281 0.25 L 837.113281 246.75 L 0.359375 246.75 Z M 0.359375 0.25 " fill-opacity="1" fill-rule="nonzero"/></g></g></g></g></g><path fill="#000000" d="M 496.128906 267.539062 L 855.882812 267.539062 L 855.882812 284.789062 L 496.128906 284.789062 Z M 496.128906 267.539062 " fill-opacity="1" fill-rule="nonzero"/><path stroke-linecap="butt" transform="matrix(0.75, 0, 0, 0.75, 352.831397, 65.788589)" fill="none" stroke-linejoin="miter" d="M 296.120657 207.427728 C 297.500866 204.099603 294.917532 200.599602 291.417532 200.599602 C 289.521698 200.599602 287.631073 201.745436 286.943573 203.636061 C 278.735239 223.146479 270.474822 232.099605 260.60503 232.099605 C 255.209196 232.099605 251.250863 230.432938 248.667529 227.162104 C 259.459196 208.802728 266.974822 185.79231 266.974822 170.990226 C 266.974822 156.875641 258.995655 146.318349 243.448779 145.860016 C 231.745653 145.860016 220.209194 154.063141 210.339402 170.531892 C 202.594609 183.214185 190.375859 205.990228 190.375859 233.245438 C 190.375859 246.901689 195.537317 257.000648 210.802943 257.000648 C 222.105027 257.000648 234.094611 247.360022 242.761279 235.599605 C 247.922737 239.844397 254.063363 241.969397 260.60503 241.969397 C 274.719614 241.969397 285.792531 231.120438 296.120657 207.427728 Z M 241.610237 200.599602 C 239.261278 200.599602 237.136278 202.031894 236.677945 204.328769 C 235.016486 210.23502 234.552945 220.563145 237.136278 226.703771 C 229.391486 237.719397 219.521694 247.130856 210.802943 247.130856 C 203.282109 247.130856 200.474818 241.276688 200.474818 232.787105 C 200.474818 208.573561 212.922735 185.79231 219.006069 175.693351 C 225.834194 163.932933 234.323778 155.729808 243.219612 155.729808 C 251.250863 155.729808 257.10503 160.891267 257.10503 170.761059 C 257.10503 181.547518 252.631071 197.787102 245.344612 212.36002 C 245.573779 210.698561 245.573779 208.802728 246.318571 206.964186 C 247.235237 203.636061 244.88107 200.599602 241.610237 200.599602 Z M 383.308163 201.057936 C 382.620663 200.828769 381.870663 200.599602 381.183163 200.599602 C 376.938371 200.599602 376.938371 204.615228 373.209204 211.615228 C 367.297745 222.458979 361.21962 232.099605 349.453994 232.099605 C 345.209202 232.099605 340.792535 229.974604 338.209202 226.932938 C 338.667535 226.474604 338.896702 225.729812 339.125868 225.271479 C 348.308161 209.031895 355.823786 188.146477 356.052953 172.136059 C 356.052953 157.333975 351.120661 145.860016 336.313368 145.860016 C 327.594618 145.860016 320.078992 150.047516 313.480033 156.875641 C 317.495659 146.089182 319.386284 140.177723 323.407117 128.417306 L 328.568576 113.15168 C 329.714409 110.110013 327.365451 106.610013 323.865451 106.610013 C 321.74045 106.610013 319.849825 107.761055 319.157117 109.880847 C 317.266492 115.047514 315.370658 121.188139 313.995658 125.604806 C 313.250867 127.958973 287.427948 202.031894 285.995656 206.219395 C 283.183156 213.964187 278.709198 225.729812 278.709198 236.344396 C 278.709198 249.943356 284.615448 257.000648 297.297741 257.000648 C 311.870658 257.000648 323.120659 248.563147 332.756076 235.370438 C 337.235243 239.844397 343.141494 241.969397 349.453994 241.969397 C 364.485245 241.969397 374.125871 231.406896 381.870663 216.089187 C 383.308163 213.505853 386.34983 207.427728 386.34983 205.531894 C 386.34983 203.636061 385.198788 201.745436 383.308163 201.057936 Z M 331.381076 200.599602 C 329.256076 200.599602 327.365451 202.031894 326.677951 204.328769 C 325.240451 208.573561 325.011284 212.130853 325.011284 215.630853 C 325.011284 219.875645 325.698784 223.375646 326.907117 226.474604 C 318.698784 238.92773 308.542533 247.130856 297.526907 247.130856 C 291.157115 247.130856 288.57899 243.344397 288.57899 235.828771 C 288.57899 231.120438 290.240448 224.813146 293.740449 214.943353 C 303.151908 191.188144 317.724825 155.729808 336.771701 155.729808 C 344.750869 155.729808 345.953994 162.271475 345.953994 171.677726 C 345.953994 183.214185 341.480035 198.703769 335.33941 210.927728 C 335.625868 209.776686 335.855035 208.344395 336.313368 206.964186 C 337.006076 203.636061 334.65191 200.599602 331.381076 200.599602 Z M 473.08421 201.057936 C 472.39671 200.828769 471.64671 200.599602 470.95921 200.599602 C 466.714418 200.599602 466.714418 204.615228 462.985251 211.615228 C 457.073793 222.458979 450.995667 232.099605 439.230042 232.099605 C 434.98525 232.099605 430.568583 229.974604 427.985249 226.932938 C 428.443582 226.474604 428.672749 225.729812 428.901916 225.271479 C 438.084208 209.031895 445.599834 188.146477 445.829 172.136059 C 445.829 157.333975 440.896708 145.860016 426.089416 145.860016 C 417.370665 145.860016 409.85504 150.047516 403.256081 156.875641 C 407.271706 146.089182 409.162331 140.177723 413.183165 128.417306 L 418.344623 113.15168 C 419.490457 110.110013 417.141498 106.610013 413.641498 106.610013 C 411.516498 106.610013 409.625873 107.761055 408.933165 109.880847 C 407.042539 115.047514 405.146706 121.188139 403.771706 125.604806 C 403.026914 127.958973 377.203996 202.031894 375.771704 206.219395 C 372.959204 213.964187 368.485245 225.729812 368.485245 236.344396 C 368.485245 249.943356 374.391496 257.000648 387.073788 257.000648 C 401.646706 257.000648 412.896706 248.563147 422.532124 235.370438 C 427.011291 239.844397 432.917541 241.969397 439.230042 241.969397 C 454.261293 241.969397 463.901918 231.406896 471.64671 216.089187 C 473.08421 213.505853 476.125877 207.427728 476.125877 205.531894 C 476.125877 203.636061 474.974836 201.745436 473.08421 201.057936 Z M 421.157124 200.599602 C 419.032124 200.599602 417.141498 202.031894 416.453998 204.328769 C 415.016498 208.573561 414.787332 212.130853 414.787332 215.630853 C 414.787332 219.875645 415.474832 223.375646 416.683165 226.474604 C 408.474831 238.92773 398.318581 247.130856 387.302955 247.130856 C 380.933163 247.130856 378.355038 243.344397 378.355038 235.828771 C 378.355038 231.120438 380.016496 224.813146 383.516496 214.943353 C 392.927955 191.188144 407.500873 155.729808 426.547749 155.729808 C 434.526916 155.729808 435.730041 162.271475 435.730041 171.677726 C 435.730041 183.214185 431.256083 198.703769 425.115457 210.927728 C 425.401916 209.776686 425.631082 208.344395 426.089416 206.964186 C 426.782124 203.636061 424.427957 200.599602 421.157124 200.599602 Z M 500.834212 133.865223 C 505.250879 133.865223 508.808171 130.307931 508.808171 125.833973 C 508.808171 121.417306 505.250879 117.860014 500.834212 117.860014 C 496.360254 117.860014 492.573795 121.417306 492.573795 125.833973 C 492.573795 130.307931 496.360254 133.865223 500.834212 133.865223 Z M 516.323797 201.057936 C 515.636297 200.828769 515.177963 200.599602 514.433171 200.599602 C 512.537338 200.599602 510.704005 201.745436 509.730046 203.636061 C 501.063379 222.917312 490.219628 247.130856 475.646711 247.130856 C 470.70921 247.130856 468.589418 244.089189 468.589418 237.261063 C 468.589418 227.162104 472.83421 216.318353 495.667545 152.172516 C 497.047754 148.208974 494.006087 145.860016 490.96442 145.860016 C 489.073795 145.860016 487.177961 147.005849 486.490461 149.130849 C 476.162336 175.922518 459.464418 218.901687 458.719626 237.261063 C 458.261293 248.047522 464.39671 257.000648 475.646711 257.000648 C 495.381087 257.000648 507.605046 233.016271 518.90713 207.656895 C 519.136297 206.964186 519.365463 206.219395 519.365463 205.531894 C 519.365463 203.636061 518.21963 201.745436 516.323797 201.057936 Z M 590.839426 201.057936 C 588.256093 200.136061 585.448801 201.287103 584.240468 203.636061 C 571.099842 233.99023 556.068591 247.589189 536.78734 247.130856 C 522.672755 246.672522 515.15713 238.412105 515.615463 225.042312 C 515.84463 220.104812 516.537338 215.630853 518.198797 209.54752 C 544.308173 203.177728 579.308176 188.146477 579.308176 163.245433 C 579.308176 151.943349 571.099842 145.860016 559.339424 145.860016 C 531.625881 145.860016 507.183171 194.745435 505.750879 224.813146 C 505.287338 244.089189 517.052963 257.000648 536.558173 257.000648 C 560.256091 257.000648 578.157134 241.505855 593.42276 207.656895 C 593.651927 206.964186 593.881093 206.448561 593.881093 205.761061 C 593.881093 203.870436 592.73526 202.031894 590.839426 201.057936 Z M 521.985255 198.245436 C 529.500881 180.172518 543.09984 155.729808 559.339424 155.729808 C 564.500883 155.729808 569.438383 156.875641 569.438383 163.245433 C 569.438383 180.630851 541.495673 192.162102 521.985255 198.245436 Z M 657.823806 215.401687 C 657.594639 199.391269 651.224847 191.188144 639.000888 168.636059 C 646.292555 160.432933 652.141514 150.047516 652.141514 140.636057 C 651.68318 133.865223 647.724847 128.417306 640.896721 128.417306 C 631.256096 128.417306 623.74047 138.802723 623.74047 151.021474 C 623.74047 156.417308 625.11547 161.578767 627.240471 166.516267 C 624.42797 169.328767 622.079012 171.906892 619.266512 175.235017 C 618.579012 176.156893 618.058178 177.302726 618.058178 178.276684 C 618.058178 179.656893 618.579012 181.318351 619.724845 182.235018 C 620.698803 183.214185 622.079012 183.443351 623.282137 183.443351 C 624.657137 183.443351 626.094637 182.750643 627.011304 181.547518 C 628.443596 179.656893 630.052971 177.818351 631.714429 176.156893 C 644.167555 198.016269 647.724847 204.844394 647.954014 215.17252 C 647.438389 234.67773 633.839429 247.130856 614.787345 247.130856 C 601.193594 247.130856 589.198801 237.031897 589.198801 222.688146 C 590.115468 208.344395 598.552969 197.557936 611.52172 197.557936 C 617.599845 197.557936 623.511304 203.406894 623.969637 211.386062 C 623.969637 214.255853 626.094637 216.318353 628.907137 216.318353 C 631.714429 216.318353 633.839429 214.255853 633.839429 211.386062 C 633.381096 198.474602 623.511304 187.688143 611.287345 187.688143 C 592.469635 187.688143 580.709217 201.516269 579.329009 222.688146 C 579.329009 241.735022 595.282135 257.000648 614.787345 257.000648 C 638.542555 257.000648 657.308181 240.761063 657.823806 215.401687 Z M 634.756096 158.307933 C 634.068596 155.729808 633.610263 153.375641 633.610263 150.792308 C 633.610263 147.464182 634.297763 143.276682 637.110263 140.40689 C 639.46443 138.057932 642.042555 137.365223 642.042555 140.636057 C 642.042555 145.860016 638.542555 153.146474 634.756096 158.307933 Z M 634.756096 158.307933 " stroke="#000000" stroke-width="7.638443" stroke-opacity="1" stroke-miterlimit="4"/><path fill="#000000" d="M 496.128906 267.539062 L 855.882812 267.539062 L 855.882812 284.789062 L 496.128906 284.789062 Z M 496.128906 267.539062 " fill-opacity="1" fill-rule="nonzero"/><g fill="#000000" fill-opacity="1"><g transform="translate(496.128262, 258.538577)"><g><path d="M 78.789062 -37.191406 C 79.847656 -39.660156 77.910156 -42.304688 75.265625 -42.304688 C 73.855469 -42.304688 72.445312 -41.421875 71.917969 -40.011719 C 65.746094 -25.382812 59.578125 -18.683594 52.175781 -18.683594 C 48.121094 -18.683594 45.125 -19.917969 43.183594 -22.386719 C 51.292969 -36.132812 56.933594 -53.410156 56.933594 -64.511719 C 56.933594 -75.089844 50.941406 -83.019531 39.308594 -83.375 C 30.492188 -83.375 21.855469 -77.203125 14.453125 -64.867188 C 8.636719 -55.347656 -0.527344 -38.25 -0.527344 -17.804688 C -0.527344 -7.578125 3.347656 0 14.804688 0 C 23.265625 0 32.257812 -7.226562 38.777344 -16.039062 C 42.65625 -12.867188 47.238281 -11.28125 52.175781 -11.28125 C 62.75 -11.28125 71.035156 -19.390625 78.789062 -37.191406 Z M 37.898438 -42.304688 C 36.132812 -42.304688 34.546875 -41.246094 34.195312 -39.484375 C 32.960938 -35.078125 32.609375 -27.320312 34.546875 -22.738281 C 28.730469 -14.453125 21.328125 -7.402344 14.804688 -7.402344 C 9.164062 -7.402344 7.050781 -11.808594 7.050781 -18.15625 C 7.050781 -36.3125 16.394531 -53.410156 20.976562 -60.988281 C 26.085938 -69.800781 32.433594 -75.96875 39.128906 -75.96875 C 45.125 -75.96875 49.53125 -72.09375 49.53125 -64.6875 C 49.53125 -56.582031 46.179688 -44.417969 40.71875 -33.492188 C 40.894531 -34.722656 40.894531 -36.132812 41.421875 -37.542969 C 42.128906 -40.011719 40.363281 -42.304688 37.898438 -42.304688 Z M 37.898438 -42.304688 "/></g></g></g><g fill="#000000" fill-opacity="1"><g transform="translate(565.046593, 258.538577)"><g><path d="M 75.265625 -41.949219 C 74.738281 -42.128906 74.207031 -42.304688 73.679688 -42.304688 C 70.507812 -42.304688 70.507812 -39.308594 67.6875 -34.019531 C 63.277344 -25.910156 58.695312 -18.683594 49.882812 -18.683594 C 46.710938 -18.683594 43.359375 -20.269531 41.421875 -22.5625 C 41.773438 -22.914062 41.949219 -23.441406 42.128906 -23.796875 C 49 -35.957031 54.640625 -51.644531 54.820312 -63.632812 C 54.820312 -74.738281 51.117188 -83.375 40.011719 -83.375 C 33.492188 -83.375 27.851562 -80.199219 22.914062 -75.089844 C 25.910156 -83.195312 27.320312 -87.605469 30.316406 -96.417969 L 34.195312 -107.875 C 35.078125 -110.164062 33.3125 -112.808594 30.671875 -112.808594 C 29.082031 -112.808594 27.671875 -111.929688 27.144531 -110.34375 C 25.734375 -106.464844 24.324219 -101.882812 23.265625 -98.53125 C 22.738281 -96.769531 3.347656 -41.246094 2.292969 -38.074219 C 0.175781 -32.257812 -3.171875 -23.441406 -3.171875 -15.511719 C -3.171875 -5.289062 1.234375 0 10.753906 0 C 21.679688 0 30.140625 -6.34375 37.367188 -16.214844 C 40.71875 -12.867188 45.125 -11.28125 49.882812 -11.28125 C 61.164062 -11.28125 68.390625 -19.210938 74.207031 -30.671875 C 75.265625 -32.609375 77.554688 -37.191406 77.554688 -38.601562 C 77.554688 -40.011719 76.675781 -41.421875 75.265625 -41.949219 Z M 36.3125 -42.304688 C 34.722656 -42.304688 33.3125 -41.246094 32.785156 -39.484375 C 31.726562 -36.3125 31.550781 -33.667969 31.550781 -31.023438 C 31.550781 -27.851562 32.082031 -25.207031 32.960938 -22.914062 C 26.792969 -13.574219 19.210938 -7.402344 10.929688 -7.402344 C 6.167969 -7.402344 4.230469 -10.222656 4.230469 -15.863281 C 4.230469 -19.390625 5.464844 -24.148438 8.109375 -31.550781 C 15.160156 -49.355469 26.085938 -75.96875 40.363281 -75.96875 C 46.359375 -75.96875 47.238281 -71.035156 47.238281 -63.984375 C 47.238281 -55.347656 43.890625 -43.714844 39.308594 -34.546875 C 39.484375 -35.429688 39.660156 -36.488281 40.011719 -37.542969 C 40.539062 -40.011719 38.777344 -42.304688 36.3125 -42.304688 Z M 36.3125 -42.304688 "/></g></g></g><g fill="#000000" fill-opacity="1"><g transform="translate(632.378566, 258.538577)"><g><path d="M 75.265625 -41.949219 C 74.738281 -42.128906 74.207031 -42.304688 73.679688 -42.304688 C 70.507812 -42.304688 70.507812 -39.308594 67.6875 -34.019531 C 63.277344 -25.910156 58.695312 -18.683594 49.882812 -18.683594 C 46.710938 -18.683594 43.359375 -20.269531 41.421875 -22.5625 C 41.773438 -22.914062 41.949219 -23.441406 42.128906 -23.796875 C 49 -35.957031 54.640625 -51.644531 54.820312 -63.632812 C 54.820312 -74.738281 51.117188 -83.375 40.011719 -83.375 C 33.492188 -83.375 27.851562 -80.199219 22.914062 -75.089844 C 25.910156 -83.195312 27.320312 -87.605469 30.316406 -96.417969 L 34.195312 -107.875 C 35.078125 -110.164062 33.3125 -112.808594 30.671875 -112.808594 C 29.082031 -112.808594 27.671875 -111.929688 27.144531 -110.34375 C 25.734375 -106.464844 24.324219 -101.882812 23.265625 -98.53125 C 22.738281 -96.769531 3.347656 -41.246094 2.292969 -38.074219 C 0.175781 -32.257812 -3.171875 -23.441406 -3.171875 -15.511719 C -3.171875 -5.289062 1.234375 0 10.753906 0 C 21.679688 0 30.140625 -6.34375 37.367188 -16.214844 C 40.71875 -12.867188 45.125 -11.28125 49.882812 -11.28125 C 61.164062 -11.28125 68.390625 -19.210938 74.207031 -30.671875 C 75.265625 -32.609375 77.554688 -37.191406 77.554688 -38.601562 C 77.554688 -40.011719 76.675781 -41.421875 75.265625 -41.949219 Z M 36.3125 -42.304688 C 34.722656 -42.304688 33.3125 -41.246094 32.785156 -39.484375 C 31.726562 -36.3125 31.550781 -33.667969 31.550781 -31.023438 C 31.550781 -27.851562 32.082031 -25.207031 32.960938 -22.914062 C 26.792969 -13.574219 19.210938 -7.402344 10.929688 -7.402344 C 6.167969 -7.402344 4.230469 -10.222656 4.230469 -15.863281 C 4.230469 -19.390625 5.464844 -24.148438 8.109375 -31.550781 C 15.160156 -49.355469 26.085938 -75.96875 40.363281 -75.96875 C 46.359375 -75.96875 47.238281 -71.035156 47.238281 -63.984375 C 47.238281 -55.347656 43.890625 -43.714844 39.308594 -34.546875 C 39.484375 -35.429688 39.660156 -36.488281 40.011719 -37.542969 C 40.539062 -40.011719 38.777344 -42.304688 36.3125 -42.304688 Z M 36.3125 -42.304688 "/></g></g></g><g fill="#000000" fill-opacity="1"><g transform="translate(699.710539, 258.538577)"><g><path d="M 28.730469 -92.363281 C 32.082031 -92.363281 34.722656 -95.007812 34.722656 -98.355469 C 34.722656 -101.703125 32.082031 -104.347656 28.730469 -104.347656 C 25.382812 -104.347656 22.5625 -101.703125 22.5625 -98.355469 C 22.5625 -95.007812 25.382812 -92.363281 28.730469 -92.363281 Z M 40.363281 -41.949219 C 39.835938 -42.128906 39.484375 -42.304688 38.953125 -42.304688 C 37.542969 -42.304688 36.132812 -41.421875 35.429688 -40.011719 C 28.90625 -25.558594 20.800781 -7.402344 9.871094 -7.402344 C 6.167969 -7.402344 4.582031 -9.695312 4.582031 -14.804688 C 4.582031 -22.386719 7.753906 -30.492188 24.851562 -78.613281 C 25.910156 -81.609375 23.621094 -83.375 21.328125 -83.375 C 19.917969 -83.375 18.507812 -82.492188 17.980469 -80.90625 C 10.222656 -60.8125 -2.292969 -28.554688 -2.820312 -14.804688 C -3.171875 -6.699219 1.410156 0 9.871094 0 C 24.675781 0 33.84375 -17.980469 42.304688 -37.015625 C 42.480469 -37.542969 42.65625 -38.074219 42.65625 -38.601562 C 42.65625 -40.011719 41.773438 -41.421875 40.363281 -41.949219 Z M 40.363281 -41.949219 "/></g></g></g><g fill="#000000" fill-opacity="1"><g transform="translate(732.142681, 258.538577)"><g><path d="M 63.808594 -41.949219 C 61.867188 -42.65625 59.753906 -41.773438 58.871094 -40.011719 C 49 -17.273438 37.722656 -7.050781 23.265625 -7.402344 C 12.691406 -7.753906 7.050781 -13.925781 7.402344 -23.972656 C 7.578125 -27.671875 8.109375 -31.023438 9.34375 -35.605469 C 28.90625 -40.363281 55.171875 -51.644531 55.171875 -70.328125 C 55.171875 -78.789062 49 -83.375 40.1875 -83.375 C 19.390625 -83.375 1.058594 -46.710938 0 -24.148438 C -0.351562 -9.695312 8.460938 0 23.089844 0 C 40.894531 0 54.289062 -11.632812 65.746094 -37.015625 C 65.921875 -37.542969 66.097656 -37.898438 66.097656 -38.425781 C 66.097656 -39.835938 65.21875 -41.246094 63.808594 -41.949219 Z M 12.164062 -44.066406 C 17.804688 -57.636719 28.027344 -75.96875 40.1875 -75.96875 C 44.066406 -75.96875 47.769531 -75.089844 47.769531 -70.328125 C 47.769531 -57.285156 26.792969 -48.648438 12.164062 -44.066406 Z M 12.164062 -44.066406 "/></g></g></g><g fill="#000000" fill-opacity="1"><g transform="translate(788.017631, 258.538577)"><g><path d="M 58.167969 -31.199219 C 57.992188 -43.183594 53.230469 -49.355469 44.066406 -66.277344 C 49.53125 -72.445312 53.9375 -80.199219 53.9375 -87.25 C 53.585938 -92.363281 50.589844 -96.417969 45.476562 -96.417969 C 38.25 -96.417969 32.609375 -88.660156 32.609375 -79.496094 C 32.609375 -75.441406 33.667969 -71.5625 35.253906 -67.863281 C 33.136719 -65.746094 31.375 -63.808594 29.261719 -61.339844 C 28.730469 -60.636719 28.378906 -59.753906 28.378906 -59.046875 C 28.378906 -57.992188 28.730469 -56.757812 29.613281 -56.050781 C 30.316406 -55.347656 31.375 -55.171875 32.257812 -55.171875 C 33.3125 -55.171875 34.371094 -55.699219 35.078125 -56.582031 C 36.132812 -57.992188 37.367188 -59.402344 38.601562 -60.636719 C 47.945312 -44.242188 50.589844 -39.128906 50.765625 -31.375 C 50.410156 -16.746094 40.1875 -7.402344 25.910156 -7.402344 C 15.6875 -7.402344 6.699219 -14.984375 6.699219 -25.734375 C 7.402344 -36.488281 13.75 -44.59375 23.441406 -44.59375 C 28.027344 -44.59375 32.433594 -40.1875 32.785156 -34.195312 C 32.785156 -32.082031 34.371094 -30.492188 36.488281 -30.492188 C 38.601562 -30.492188 40.1875 -32.082031 40.1875 -34.195312 C 39.835938 -43.890625 32.433594 -52 23.265625 -52 C 9.164062 -52 0.351562 -41.597656 -0.703125 -25.734375 C -0.703125 -11.457031 11.28125 0 25.910156 0 C 43.714844 0 57.816406 -12.164062 58.167969 -31.199219 Z M 40.894531 -74.03125 C 40.363281 -75.96875 40.011719 -77.734375 40.011719 -79.671875 C 40.011719 -82.140625 40.539062 -85.3125 42.65625 -87.425781 C 44.417969 -89.191406 46.359375 -89.71875 46.359375 -87.25 C 46.359375 -83.375 43.714844 -77.910156 40.894531 -74.03125 Z M 40.894531 -74.03125 "/></g></g></g><path stroke-linecap="butt" transform="matrix(2.583998, 0, 0, 2.583998, 198.648956, -81.704759)" fill="none" stroke-linejoin="miter" d="M 124.219847 42.332984 C 123.312823 42.332984 122.40731 42.908945 122.077758 43.788759 C 121.746694 44.585429 119.275051 51.781158 116.227449 60.570226 C 113.315899 68.67298 110.047587 78.121153 107.574434 85.206527 L 78.433244 85.206527 L 79.780175 80.811993 C 82.362172 72.819594 85.520129 62.822671 89.557901 55.268667 C 91.260084 51.781158 94.63875 48.869608 98.236615 46.837873 C 99.114917 46.397966 99.582035 45.601296 99.582035 44.694272 C 99.582035 43.788759 98.895719 42.332984 97.220747 42.332984 C 96.891195 42.332984 96.424077 42.443339 96.094525 42.662536 C 93.622883 44.035167 91.480793 45.601296 88.898796 48.072938 C 83.37804 47.057071 78.433244 45.490942 73.819512 44.035167 C 66.156665 41.67388 59.180134 39.53179 50.858183 39.53179 C 40.970102 39.53179 31.413086 48.512845 31.413086 59.444004 C 31.413086 69.22173 38.141697 75.868709 49.072856 75.868709 C 53.110627 75.868709 57.505162 74.852841 61.432578 73.040303 C 62.339603 72.600396 62.777998 71.803726 62.777998 70.925424 C 62.777998 70.0184 62.118894 68.562625 60.554276 68.562625 C 60.087158 68.562625 59.757606 68.67298 59.428054 68.781823 C 56.049387 70.237597 52.451523 71.144622 49.183211 71.144622 C 41.520364 71.144622 36.137173 67.436403 36.137173 59.087241 C 36.137173 51.56196 43.441745 44.255876 50.858183 44.255876 C 58.410675 44.255876 65.140797 46.397966 72.363737 48.650411 C 76.511863 49.885476 80.906397 51.232408 85.739327 52.35863 L 85.409775 53.017734 C 81.01524 61.010133 77.857283 71.254977 75.275286 79.356218 L 73.352394 85.206527 L 67.06369 85.206527 C 65.716758 85.206527 64.70089 86.332749 64.70089 87.679681 C 64.70089 88.914746 65.716758 90.040969 67.06369 90.040969 L 71.787776 90.040969 C 71.458224 90.947993 71.128672 92.074215 70.770397 93.062872 C 65.607915 109.04767 60.554276 124.454995 44.348769 124.454995 C 34.652676 124.454995 29.490194 117.945582 29.490194 109.04767 C 29.490194 98.143722 39.04721 89.930614 49.072856 89.930614 C 50.418276 89.930614 51.435655 88.804392 51.435655 87.458972 C 51.435655 86.223907 50.418276 85.097684 49.072856 85.097684 C 36.575568 85.316882 24.766107 95.313805 24.766107 108.937315 C 24.766107 120.418735 31.632284 129.179082 44.238415 129.179082 C 64.041786 129.179082 69.644175 112.205627 75.385641 94.545858 C 75.852758 93.062872 76.291154 91.607098 76.841415 90.040969 L 105.872251 90.040969 L 103.976569 95.313805 C 97.000038 113.661402 92.935056 125.142822 92.935056 131.898644 C 92.935056 140.111752 96.534432 146.400456 105.213146 146.621166 C 106.558566 146.621166 107.574434 145.494943 107.684788 144.258366 C 107.684788 142.912947 106.558566 141.786724 105.323501 141.786724 C 99.582035 141.786724 97.439945 137.502545 97.660654 131.898644 C 97.879852 126.048335 101.148164 116.820871 108.454247 96.907145 C 109.250917 94.765055 115.677187 76.308616 120.621983 62.136356 L 126.472292 45.490942 C 127.021042 44.035167 126.114017 42.332984 124.219847 42.332984 Z M 124.219847 42.332984 " stroke="#000000" stroke-width="3.656445" stroke-opacity="1" stroke-miterlimit="4"/><g fill="#000000" fill-opacity="1"><g transform="translate(262.643285, 236.127014)"><g><path d="M 256.980469 -208.433594 C 254.652344 -208.433594 252.328125 -206.976562 251.457031 -204.652344 C 250.582031 -202.617188 244.1875 -184.011719 236.339844 -161.339844 C 228.78125 -140.40625 220.351562 -115.988281 213.953125 -97.675781 L 138.664062 -97.675781 L 142.152344 -109.011719 C 148.839844 -129.652344 156.976562 -155.523438 167.441406 -175 C 171.804688 -184.011719 180.523438 -191.570312 189.828125 -196.804688 C 192.152344 -197.964844 193.316406 -200 193.316406 -202.328125 C 193.316406 -204.652344 191.570312 -208.433594 187.210938 -208.433594 C 186.339844 -208.433594 185.175781 -208.140625 184.304688 -207.558594 C 177.910156 -204.070312 172.386719 -200 165.699219 -193.605469 C 151.453125 -196.222656 138.664062 -200.292969 126.746094 -204.070312 C 106.976562 -210.175781 88.953125 -215.699219 67.441406 -215.699219 C 41.859375 -215.699219 17.152344 -192.441406 17.152344 -164.246094 C 17.152344 -138.953125 34.59375 -121.804688 62.792969 -121.804688 C 73.257812 -121.804688 84.59375 -124.417969 94.769531 -129.070312 C 97.09375 -130.234375 98.257812 -132.269531 98.257812 -134.59375 C 98.257812 -136.917969 96.511719 -140.699219 92.441406 -140.699219 C 91.28125 -140.699219 90.40625 -140.40625 89.535156 -140.117188 C 80.816406 -136.339844 71.511719 -134.011719 63.082031 -134.011719 C 43.3125 -134.011719 29.359375 -143.605469 29.359375 -165.117188 C 29.359375 -184.59375 48.257812 -203.488281 67.441406 -203.488281 C 86.917969 -203.488281 104.359375 -197.964844 122.964844 -192.152344 C 133.722656 -188.953125 145.058594 -185.464844 157.558594 -182.558594 L 156.6875 -180.816406 C 145.351562 -160.175781 137.210938 -133.722656 130.523438 -112.792969 L 125.582031 -97.675781 L 109.304688 -97.675781 C 105.816406 -97.675781 103.199219 -94.769531 103.199219 -91.28125 C 103.199219 -88.082031 105.816406 -85.175781 109.304688 -85.175781 L 121.511719 -85.175781 C 120.640625 -82.847656 119.769531 -79.941406 118.894531 -77.324219 C 105.523438 -36.046875 92.441406 3.777344 50.582031 3.777344 C 25.582031 3.777344 12.210938 -13.082031 12.210938 -36.046875 C 12.210938 -64.246094 36.917969 -85.464844 62.792969 -85.464844 C 66.28125 -85.464844 68.894531 -88.371094 68.894531 -91.859375 C 68.894531 -95.058594 66.28125 -97.964844 62.792969 -97.964844 C 30.523438 -97.382812 0 -71.511719 0 -36.335938 C 0 -6.6875 17.734375 15.988281 50.292969 15.988281 C 101.453125 15.988281 115.988281 -27.90625 130.816406 -73.546875 C 131.976562 -77.324219 133.140625 -81.105469 134.59375 -85.175781 L 209.59375 -85.175781 L 204.652344 -71.511719 C 186.628906 -24.128906 176.164062 5.523438 176.164062 22.964844 C 176.164062 44.1875 185.464844 60.464844 207.851562 61.046875 C 211.339844 61.046875 213.953125 58.140625 214.246094 54.941406 C 214.246094 51.453125 211.339844 48.546875 208.140625 48.546875 C 193.316406 48.546875 187.792969 37.5 188.375 22.964844 C 188.953125 7.847656 197.386719 -15.988281 216.28125 -67.441406 C 218.316406 -72.964844 234.886719 -120.640625 247.675781 -157.269531 L 262.792969 -200.292969 C 264.246094 -204.070312 261.921875 -208.433594 256.980469 -208.433594 Z M 256.980469 -208.433594 "/></g></g></g></svg>