<svg xmlns="http://www.w3.org/2000/svg" xmlns:xlink="http://www.w3.org/1999/xlink" width="1500" zoomAndPan="magnify" viewBox="0 0 1125 374.999991" height="500" preserveAspectRatio="xMidYMid meet" version="1.0"><defs><filter x="0%" y="0%" width="100%" height="100%" id="ba057c975e"><feColorMatrix values="0 0 0 0 1 0 0 0 0 1 0 0 0 0 1 0 0 0 1 0" color-interpolation-filters="sRGB"/></filter><g/><mask id="4c1428b6cb"><g filter="url(#ba057c975e)"><rect x="-112.5" width="1350" fill="#000000" y="-37.499999" height="449.999989" fill-opacity="0.2"/></g></mask><clipPath id="c320f5cf11"><path d="M 0.238281 0.078125 L 837 0.078125 L 837 246.75 L 0.238281 246.75 Z M 0.238281 0.078125 " clip-rule="nonzero"/></clipPath><clipPath id="af83f70326"><path d="M 29.589844 0.25 L 807.410156 0.25 C 815.164062 0.25 822.597656 3.328125 828.082031 8.8125 C 833.5625 14.292969 836.640625 21.726562 836.640625 29.480469 L 836.640625 217.519531 C 836.640625 225.273438 833.5625 232.707031 828.082031 238.1875 C 822.597656 243.671875 815.164062 246.75 807.410156 246.75 L 29.589844 246.75 C 21.835938 246.75 14.402344 243.671875 8.917969 238.1875 C 3.4375 232.707031 0.359375 225.273438 0.359375 217.519531 L 0.359375 29.480469 C 0.359375 21.726562 3.4375 14.292969 8.917969 8.8125 C 14.402344 3.328125 21.835938 0.25 29.589844 0.25 Z M 29.589844 0.25 " clip-rule="nonzero"/></clipPath><clipPath id="02c13ac68f"><rect x="0" width="838" y="0" height="247"/></clipPath><clipPath id="f613b18ec9"><path d="M 638.984375 267 L 733.105469 267 L 733.105469 285 L 638.984375 285 Z M 817.238281 267 L 898 267 L 898 285 L 817.238281 285 Z M 397 267 L 591.078125 267 L 591.078125 285 L 397 285 Z M 397 267 " clip-rule="nonzero"/></clipPath><clipPath id="747e523d71"><path d="M 638.984375 267 L 733.105469 267 L 733.105469 285 L 638.984375 285 Z M 817.238281 267 L 898 267 L 898 285 L 817.238281 285 Z M 397 267 L 591.078125 267 L 591.078125 285 L 397 285 Z M 397 267 " clip-rule="nonzero"/></clipPath></defs><g mask="url(#4c1428b6cb)"><g transform="matrix(1, 0, 0, 1, 144, 64)"><g clip-path="url(#02c13ac68f)"><g clip-path="url(#c320f5cf11)"><g clip-path="url(#af83f70326)"><path fill="#f05f1b" d="M 0.359375 0.25 L 837.113281 0.25 L 837.113281 246.75 L 0.359375 246.75 Z M 0.359375 0.25 " fill-opacity="1" fill-rule="nonzero"/></g></g></g></g></g><g clip-path="url(#f613b18ec9)"><path fill="#000000" d="M 397.3125 267.242188 L 897.597656 267.242188 L 897.597656 284.03125 L 397.3125 284.03125 Z M 397.3125 267.242188 " fill-opacity="1" fill-rule="nonzero"/></g><path stroke-linecap="butt" transform="matrix(4.196942, 0, 0, 4.196942, 324.323138, 65.788671)" fill="none" stroke-linejoin="miter" d="M 36.165914 36.140619 C 36.411628 35.545878 35.949982 34.920423 35.324527 34.920423 C 34.986669 34.920423 34.647881 35.125185 34.525024 35.463973 C 33.058182 38.950515 31.582033 40.549522 29.818286 40.549522 C 28.854042 40.549522 28.146682 40.252616 27.685967 39.668113 C 29.613524 36.386334 30.956577 32.275268 30.956577 29.629182 C 30.956577 27.106884 29.531619 25.22028 26.752437 25.138375 C 24.661071 25.138375 22.599488 26.604286 20.835741 29.547277 C 19.451735 31.813622 17.267294 35.884667 17.267294 40.755214 C 17.267294 43.195607 18.190586 45.000307 20.917646 45.000307 C 22.938276 45.000307 25.080833 43.277512 26.62958 41.174977 C 27.551941 41.934459 28.64928 42.313269 29.818286 42.313269 C 32.340584 42.313269 34.320262 40.375474 36.165914 36.140619 Z M 26.423887 34.920423 C 26.004125 34.920423 25.624384 35.176376 25.542479 35.586831 C 25.245574 36.643217 25.162738 38.488869 25.624384 39.586209 C 24.240378 41.554718 22.476631 43.23656 20.917646 43.23656 C 19.574592 43.23656 19.071994 42.190411 19.071994 40.67331 C 19.071994 36.345382 21.297387 32.275268 22.384488 30.470568 C 23.604684 28.368033 25.121786 26.902122 26.711485 26.902122 C 28.146682 26.902122 29.19283 27.824482 29.19283 29.588229 C 29.19283 31.515786 28.393327 34.417825 27.091226 37.022028 C 27.132178 36.725122 27.132178 36.386334 27.265274 36.058714 C 27.429083 35.463973 27.00839 34.920423 26.423887 34.920423 Z M 62.165127 35.801831 C 62.165127 35.341116 61.703481 34.920423 61.282788 34.920423 C 60.94493 34.920423 60.56519 35.125185 60.442332 35.463973 C 58.175987 40.755214 56.494145 43.23656 54.433493 43.23656 C 53.551154 43.23656 53.172344 42.693009 53.172344 41.472813 C 53.172344 37.863414 56.41224 33.033819 56.41224 28.993488 C 56.41224 26.768096 55.488949 25.046232 52.464053 25.046232 C 50.485306 25.046232 48.342748 26.984027 47.122552 28.911583 C 47.122552 26.686191 45.778567 25.046232 43.266508 25.046232 C 41.831311 25.046232 40.488257 26.019783 39.268061 27.445672 C 39.401156 27.024979 39.524013 26.686191 39.687823 26.307381 C 39.903754 25.76383 39.483061 25.138375 38.857606 25.138375 C 38.477865 25.138375 38.140007 25.343137 38.01715 25.722878 C 35.873662 31.77267 33.689222 37.822462 31.546665 43.862015 C 31.372617 44.323661 31.62857 44.835566 32.090215 45.000307 C 32.551861 45.123164 33.053528 44.918402 33.228507 44.415804 L 36.078424 36.304429 C 36.335308 35.638021 38.857606 31.014119 39.605918 29.875827 C 40.826115 28.163271 42.087264 26.809979 43.266508 26.809979 C 44.774302 26.809979 45.358805 27.609482 45.358805 29.167536 C 45.358805 30.634378 44.73335 32.520982 43.851011 35.084233 C 43.810058 35.176376 41.042046 43.40037 40.989924 43.533465 C 40.785162 44.077016 41.205856 44.702471 41.831311 44.702471 C 42.211052 44.702471 42.548909 44.497709 42.671767 44.117968 C 42.630814 44.199873 45.450948 35.966572 45.532853 35.719926 C 46.753049 32.31622 50.02366 26.809979 52.464053 26.809979 C 54.135657 26.809979 54.648493 27.78353 54.648493 28.993488 C 54.648493 32.439077 51.367644 37.648414 51.367644 41.472813 C 51.367644 43.533465 52.37191 45.000307 54.433493 45.000307 C 58.175987 45.000307 60.483285 39.831923 62.041339 36.304429 C 62.123244 36.007524 62.165127 35.925619 62.165127 35.801831 Z M 74.93298 35.002328 C 74.472265 34.838518 73.969667 35.04328 73.753736 35.463973 C 71.405486 40.88831 68.719378 43.318465 65.273789 43.23656 C 62.751491 43.154655 61.408438 41.677575 61.490342 39.288373 C 61.531295 38.406964 61.654152 37.60653 61.951988 36.52036 C 66.617774 35.382069 72.872328 32.69503 72.872328 28.245176 C 72.872328 26.225476 71.405486 25.138375 69.303881 25.138375 C 64.351429 25.138375 59.983479 33.874274 59.726595 39.24742 C 59.64469 42.693009 61.746295 45.000307 65.232837 45.000307 C 69.467691 45.000307 72.667566 42.231364 75.394626 36.181572 C 75.435578 36.058714 75.476531 35.966572 75.476531 35.843714 C 75.476531 35.504926 75.271768 35.176376 74.93298 35.002328 Z M 62.628634 34.49973 C 63.971688 31.270072 66.401843 26.902122 69.303881 26.902122 C 70.226242 26.902122 71.108581 27.106884 71.108581 28.245176 C 71.108581 31.351976 66.115176 33.412629 62.628634 34.49973 Z M 90.892331 35.002328 C 90.769474 34.961375 90.636378 34.920423 90.513521 34.920423 C 90.174733 34.920423 89.877827 35.125185 89.713087 35.463973 C 89.046679 37.822462 87.108884 40.549522 84.884422 40.549522 C 84.124941 40.549522 83.41758 40.252616 82.914982 39.709066 C 84.422777 37.442721 86.145571 32.735983 86.145571 29.834875 C 86.145571 27.229741 85.263232 25.046232 82.618077 25.046232 C 81.059092 25.046232 79.716039 25.886687 78.547033 27.106884 L 78.875583 26.225476 C 79.090583 25.681925 78.66989 25.046232 78.034196 25.046232 C 77.665624 25.046232 77.326836 25.261232 77.203979 25.640973 L 76.947095 26.307381 C 76.445428 27.609482 74.004104 34.376872 71.615833 40.929262 L 66.909094 54.074995 C 66.703402 54.618545 67.113857 55.244001 67.74955 55.244001 C 68.129291 55.244001 68.467149 55.038308 68.590937 54.659498 C 69.010699 53.398349 70.733494 48.609706 72.620098 43.359417 C 73.081744 44.497709 74.045987 45.041259 75.644994 45.123164 C 78.085387 45.205069 80.218637 43.533465 81.941431 41.215929 C 82.577125 41.851623 83.622343 42.313269 84.842539 42.313269 C 87.744578 42.313269 90.472569 39.24742 91.353977 36.140619 C 91.394929 36.007524 91.435882 35.925619 91.435882 35.801831 C 91.435882 35.463973 91.231119 35.125185 90.892331 35.002328 Z M 81.612881 34.920423 C 81.23314 34.920423 80.85433 35.176376 80.772425 35.586831 C 80.433637 36.766075 80.31078 38.406964 80.85433 39.668113 C 79.428441 41.851623 77.613503 43.40037 75.685946 43.359417 C 74.506702 43.318465 74.08694 42.652057 74.08694 41.174977 C 74.08694 39.790971 74.383845 39.24742 75.019539 37.483673 C 76.691143 33.238581 79.254393 26.809979 82.699982 26.809979 C 83.961131 26.809979 84.340872 27.989223 84.340872 29.752039 C 84.340872 31.854574 83.499485 34.581635 82.279289 37.145816 C 82.320241 36.807027 82.361194 36.427286 82.49522 36.058714 C 82.618077 35.463973 82.197384 34.920423 81.612881 34.920423 Z M 107.816857 35.002328 C 107.693999 34.961375 107.559973 34.920423 107.437116 34.920423 C 107.099258 34.920423 106.81166 35.125185 106.637612 35.463973 L 106.59666 35.586831 C 105.211723 38.70387 103.192023 43.23656 100.587821 43.23656 C 99.705482 43.23656 99.33691 42.733962 99.33691 41.472813 C 99.33691 39.627161 100.720916 35.966572 102.22871 31.731717 L 104.330315 26.101688 C 104.545315 25.60002 104.207458 24.922444 103.530812 24.922444 C 103.151071 24.922444 102.822521 25.138375 102.689425 25.465994 C 102.484663 26.019783 102.22871 26.645238 101.982065 27.362837 C 101.223514 25.845735 99.921413 25.138375 98.157666 25.138375 C 93.112139 25.138375 88.877285 34.961375 88.877285 40.467617 C 88.877285 42.979676 89.964386 45.000307 92.322874 45.000307 C 94.127574 45.000307 95.891321 43.821063 97.573163 41.472813 C 97.573163 43.533465 98.577428 45.000307 100.587821 45.000307 C 104.371267 45.000307 106.637612 39.831923 108.236619 36.304429 L 108.278502 36.181572 C 108.319455 36.058714 108.360407 35.925619 108.360407 35.801831 C 108.360407 35.463973 108.154714 35.176376 107.816857 35.002328 Z M 92.271684 43.23656 C 91.020773 43.23656 90.641032 42.016363 90.641032 40.170711 C 90.722937 36.007524 94.291383 26.984027 98.157666 26.902122 C 99.664529 26.902122 100.761868 28.030175 100.843773 29.96797 L 99.839508 32.654078 C 98.157666 36.940123 95.67632 43.23656 92.271684 43.23656 Z M 125.163006 35.04328 C 125.040149 35.002328 124.907053 34.961375 124.783265 34.961375 C 124.445408 34.961375 124.15781 35.176376 123.983762 35.504926 C 121.882157 40.467617 118.949404 44.323661 114.119809 45.96362 L 115.883556 40.837119 L 118.108018 34.581635 C 119.452002 31.014119 120.589363 27.989223 121.256702 26.348333 C 121.512655 25.60002 120.958866 25.138375 120.374363 25.138375 C 120.036505 25.138375 119.697717 25.343137 119.57486 25.722878 L 118.908452 27.445672 C 118.190854 26.019783 116.928774 25.138375 115.04217 25.138375 C 110.038526 25.138375 106.049387 34.622587 105.844624 40.170711 C 105.844624 42.856819 106.511032 45.000307 109.290214 45.000307 C 110.797077 45.000307 112.141062 44.15892 113.278422 42.979676 L 112.017274 46.599313 C 110.878982 46.886911 109.751859 47.101912 108.695472 47.265721 C 103.660184 48.189013 101.599532 50.126807 101.599532 52.772893 C 101.599532 55.244001 103.240422 56.88396 105.762719 56.843007 C 108.787615 56.802055 111.38158 53.818111 113.402211 48.066155 C 119.533907 46.261456 123.020449 42.354221 125.624652 36.222524 C 125.665604 36.099667 125.706557 35.966572 125.706557 35.843714 C 125.706557 35.504926 125.501794 35.217328 125.163006 35.04328 Z M 109.198071 43.23656 C 107.649324 43.23656 107.567419 41.934459 107.649324 40.211664 C 107.731229 36.058714 111.176818 26.984027 115.083122 26.902122 C 116.590916 26.902122 117.729208 28.071128 117.729208 30.29559 L 116.805917 32.69503 C 115.124074 36.981075 112.560824 43.23656 109.198071 43.23656 Z M 105.762719 55.07926 C 104.327523 55.120213 103.363279 54.197852 103.363279 52.73101 C 103.537327 50.793215 105.167978 49.706114 109.03333 49.029468 C 109.792812 48.906611 110.551362 48.742801 111.340628 48.568753 C 109.956621 52.813846 108.029065 55.038308 105.762719 55.07926 Z M 138.479063 35.002328 C 138.017418 34.838518 137.51575 35.04328 137.299819 35.463973 C 134.951569 40.88831 132.265462 43.318465 128.819873 43.23656 C 126.297575 43.154655 124.954521 41.677575 125.036426 39.288373 C 125.077378 38.406964 125.200235 37.60653 125.498071 36.52036 C 130.162926 35.382069 136.418411 32.69503 136.418411 28.245176 C 136.418411 26.225476 134.951569 25.138375 132.849965 25.138375 C 127.897512 25.138375 123.529562 33.874274 123.272679 39.24742 C 123.190774 42.693009 125.292378 45.000307 128.77892 45.000307 C 133.013774 45.000307 136.213649 42.231364 138.940709 36.181572 C 138.981661 36.058714 139.022614 35.966572 139.022614 35.843714 C 139.022614 35.504926 138.817852 35.176376 138.479063 35.002328 Z M 126.174717 34.49973 C 127.517771 31.270072 129.947926 26.902122 132.849965 26.902122 C 133.772325 26.902122 134.654664 27.106884 134.654664 28.245176 C 134.654664 31.351976 129.661259 33.412629 126.174717 34.49973 Z M 126.174717 34.49973 " stroke="#000000" stroke-width="1.365" stroke-opacity="1" stroke-miterlimit="4"/><g clip-path="url(#747e523d71)"><path fill="#000000" d="M 397.3125 267.242188 L 897.597656 267.242188 L 897.597656 284.03125 L 397.3125 284.03125 Z M 397.3125 267.242188 " fill-opacity="1" fill-rule="nonzero"/></g><g fill="#000000" fill-opacity="1"><g transform="translate(397.31058, 254.651056)"><g><path d="M 78.792969 -37.191406 C 79.851562 -39.660156 77.910156 -42.304688 75.269531 -42.304688 C 73.859375 -42.304688 72.449219 -41.421875 71.917969 -40.011719 C 65.75 -25.382812 59.578125 -18.683594 52.175781 -18.683594 C 48.121094 -18.683594 45.125 -19.917969 43.1875 -22.386719 C 51.296875 -36.136719 56.9375 -53.410156 56.9375 -64.515625 C 56.9375 -75.089844 50.941406 -83.023438 39.308594 -83.375 C 30.496094 -83.375 21.859375 -77.207031 14.453125 -64.867188 C 8.636719 -55.347656 -0.527344 -38.25 -0.527344 -17.804688 C -0.527344 -7.578125 3.347656 0 14.808594 0 C 23.269531 0 32.257812 -7.226562 38.78125 -16.039062 C 42.65625 -12.867188 47.242188 -11.28125 52.175781 -11.28125 C 62.753906 -11.28125 71.039062 -19.390625 78.792969 -37.191406 Z M 37.898438 -42.304688 C 36.136719 -42.304688 34.550781 -41.246094 34.195312 -39.484375 C 32.960938 -35.078125 32.609375 -27.320312 34.550781 -22.738281 C 28.730469 -14.453125 21.328125 -7.402344 14.808594 -7.402344 C 9.167969 -7.402344 7.050781 -11.808594 7.050781 -18.15625 C 7.050781 -36.3125 16.394531 -53.410156 20.976562 -60.988281 C 26.089844 -69.804688 32.433594 -75.972656 39.132812 -75.972656 C 45.125 -75.972656 49.53125 -72.09375 49.53125 -64.691406 C 49.53125 -56.582031 46.183594 -44.421875 40.71875 -33.492188 C 40.894531 -34.726562 40.894531 -36.136719 41.421875 -37.546875 C 42.128906 -40.011719 40.367188 -42.304688 37.898438 -42.304688 Z M 37.898438 -42.304688 "/></g></g></g><g fill="#000000" fill-opacity="1"><g transform="translate(466.232876, 254.651056)"><g><path d="M 118.984375 -38.601562 C 118.984375 -40.542969 117.042969 -42.304688 115.28125 -42.304688 C 113.871094 -42.304688 112.285156 -41.421875 111.757812 -40.011719 C 102.238281 -17.804688 95.1875 -7.402344 86.550781 -7.402344 C 82.847656 -7.402344 81.261719 -9.695312 81.261719 -14.808594 C 81.261719 -29.964844 94.835938 -50.238281 94.835938 -67.160156 C 94.835938 -76.5 90.957031 -83.730469 78.265625 -83.730469 C 69.980469 -83.730469 60.988281 -75.621094 55.878906 -67.511719 C 55.878906 -76.855469 50.238281 -83.730469 39.660156 -83.730469 C 33.667969 -83.730469 28.027344 -79.675781 22.914062 -73.679688 C 23.445312 -75.445312 23.972656 -76.855469 24.679688 -78.441406 C 25.558594 -80.730469 23.796875 -83.375 21.152344 -83.375 C 19.566406 -83.375 18.15625 -82.496094 17.628906 -80.910156 C 8.636719 -55.527344 -0.527344 -30.140625 -9.519531 -4.757812 C -10.222656 -2.820312 -9.167969 -0.707031 -7.226562 0 C -5.289062 0.527344 -3.171875 -0.351562 -2.46875 -2.46875 L 9.519531 -36.488281 C 10.578125 -39.308594 21.152344 -58.699219 24.324219 -63.457031 C 29.4375 -70.683594 34.726562 -76.324219 39.660156 -76.324219 C 46.007812 -76.324219 48.476562 -72.976562 48.476562 -66.453125 C 48.476562 -60.285156 45.832031 -52.351562 42.128906 -41.601562 C 41.953125 -41.246094 30.320312 -6.699219 30.140625 -6.167969 C 29.261719 -3.878906 31.023438 -1.234375 33.667969 -1.234375 C 35.253906 -1.234375 36.664062 -2.117188 37.191406 -3.703125 C 37.015625 -3.347656 48.828125 -37.898438 49.179688 -38.957031 C 54.292969 -53.234375 68.039062 -76.324219 78.265625 -76.324219 C 85.316406 -76.324219 87.429688 -72.269531 87.429688 -67.160156 C 87.429688 -52.707031 73.679688 -30.847656 73.679688 -14.808594 C 73.679688 -6.167969 77.910156 0 86.550781 0 C 102.238281 0 111.933594 -21.679688 118.453125 -36.488281 C 118.808594 -37.722656 118.984375 -38.074219 118.984375 -38.601562 Z M 118.984375 -38.601562 "/></g></g></g><g fill="#000000" fill-opacity="1"><g transform="translate(574.992562, 254.651056)"><g><path d="M 63.808594 -41.953125 C 61.871094 -42.65625 59.757812 -41.777344 58.875 -40.011719 C 49.003906 -17.273438 37.722656 -7.050781 23.269531 -7.402344 C 12.691406 -7.757812 7.050781 -13.925781 7.402344 -23.972656 C 7.578125 -27.675781 8.109375 -31.023438 9.34375 -35.605469 C 28.910156 -40.367188 55.171875 -51.648438 55.171875 -70.332031 C 55.171875 -78.792969 49.003906 -83.375 40.191406 -83.375 C 19.390625 -83.375 1.058594 -46.710938 0 -24.148438 C -0.351562 -9.695312 8.460938 0 23.089844 0 C 40.894531 0 54.292969 -11.632812 65.75 -37.015625 C 65.925781 -37.546875 66.101562 -37.898438 66.101562 -38.425781 C 66.101562 -39.835938 65.21875 -41.246094 63.808594 -41.953125 Z M 12.164062 -44.066406 C 17.804688 -57.640625 28.027344 -75.972656 40.191406 -75.972656 C 44.066406 -75.972656 47.769531 -75.089844 47.769531 -70.332031 C 47.769531 -57.289062 26.792969 -48.652344 12.164062 -44.066406 Z M 12.164062 -44.066406 "/></g></g></g><g fill="#000000" fill-opacity="1"><g transform="translate(630.870691, 254.651056)"><g><path d="M 74.914062 -41.953125 C 74.386719 -42.128906 73.859375 -42.304688 73.328125 -42.304688 C 71.917969 -42.304688 70.683594 -41.421875 69.980469 -40.011719 C 67.160156 -30.140625 59.050781 -18.683594 49.707031 -18.683594 C 46.535156 -18.683594 43.539062 -19.917969 41.421875 -22.210938 C 47.769531 -31.730469 54.996094 -51.472656 54.996094 -63.632812 C 54.996094 -74.5625 51.296875 -83.730469 40.191406 -83.730469 C 33.667969 -83.730469 28.027344 -80.203125 23.089844 -75.089844 L 24.5 -78.792969 C 25.382812 -81.085938 23.621094 -83.730469 20.976562 -83.730469 C 19.390625 -83.730469 17.980469 -82.847656 17.449219 -81.261719 L 16.394531 -78.441406 C 14.277344 -72.976562 4.054688 -44.597656 -5.992188 -17.097656 L -25.734375 38.074219 C -26.617188 40.367188 -24.855469 43.011719 -22.210938 43.011719 C -20.625 43.011719 -19.214844 42.128906 -18.683594 40.542969 C -16.921875 35.253906 -9.695312 15.160156 -1.761719 -6.875 C 0.175781 -2.117188 4.230469 0.175781 10.929688 0.527344 C 21.152344 0.882812 30.140625 -6.167969 37.371094 -15.863281 C 40.011719 -13.21875 44.421875 -11.28125 49.53125 -11.28125 C 61.695312 -11.28125 73.152344 -24.148438 76.855469 -37.191406 C 77.03125 -37.722656 77.207031 -38.074219 77.207031 -38.601562 C 77.207031 -40.011719 76.324219 -41.421875 74.914062 -41.953125 Z M 35.960938 -42.304688 C 34.371094 -42.304688 32.785156 -41.246094 32.433594 -39.484375 C 31.023438 -34.550781 30.496094 -27.675781 32.785156 -22.386719 C 26.792969 -13.21875 19.214844 -6.699219 11.105469 -6.875 C 6.167969 -7.050781 4.40625 -9.871094 4.40625 -16.039062 C 4.40625 -21.859375 5.640625 -24.148438 8.285156 -31.550781 C 15.335938 -49.355469 26.089844 -76.324219 40.542969 -76.324219 C 45.832031 -76.324219 47.417969 -71.390625 47.417969 -63.988281 C 47.417969 -55.171875 43.890625 -43.714844 38.78125 -32.960938 C 38.957031 -34.371094 39.132812 -35.960938 39.660156 -37.546875 C 40.191406 -40.011719 38.425781 -42.304688 35.960938 -42.304688 Z M 35.960938 -42.304688 "/></g></g></g><g fill="#000000" fill-opacity="1"><g transform="translate(697.853976, 254.651056)"><g><path d="M 78.96875 -41.953125 C 78.441406 -42.128906 77.910156 -42.304688 77.382812 -42.304688 C 75.972656 -42.304688 74.738281 -41.421875 74.035156 -40.011719 L 73.859375 -39.484375 C 68.039062 -26.441406 59.578125 -7.402344 48.652344 -7.402344 C 44.949219 -7.402344 43.363281 -9.519531 43.363281 -14.808594 C 43.363281 -22.5625 49.179688 -37.898438 55.527344 -55.703125 L 64.339844 -79.320312 C 65.21875 -81.4375 63.808594 -84.257812 60.988281 -84.257812 C 59.402344 -84.257812 57.992188 -83.375 57.464844 -81.964844 C 56.582031 -79.675781 55.527344 -77.03125 54.46875 -74.035156 C 51.296875 -80.378906 45.832031 -83.375 38.425781 -83.375 C 17.273438 -83.375 -0.527344 -42.128906 -0.527344 -19.039062 C -0.527344 -8.460938 4.054688 0 13.925781 0 C 21.503906 0 28.910156 -4.9375 35.960938 -14.808594 C 35.960938 -6.167969 40.191406 0 48.652344 0 C 64.515625 0 74.035156 -21.679688 80.730469 -36.488281 L 80.910156 -37.015625 C 81.085938 -37.546875 81.261719 -38.074219 81.261719 -38.601562 C 81.261719 -40.011719 80.378906 -41.246094 78.96875 -41.953125 Z M 13.75 -7.402344 C 8.460938 -7.402344 6.875 -12.515625 6.875 -20.269531 C 7.226562 -37.722656 22.210938 -75.621094 38.425781 -75.972656 C 44.773438 -75.972656 49.355469 -71.214844 49.707031 -63.105469 L 45.476562 -51.824219 C 38.425781 -33.84375 28.027344 -7.402344 13.75 -7.402344 Z M 13.75 -7.402344 "/></g></g></g><g fill="#000000" fill-opacity="1"><g transform="translate(768.891519, 254.651056)"><g><path d="M 80.730469 -41.777344 C 80.203125 -41.953125 79.675781 -42.128906 79.144531 -42.128906 C 77.734375 -42.128906 76.5 -41.246094 75.796875 -39.835938 C 66.984375 -19.039062 54.644531 -2.820312 34.371094 4.054688 L 41.777344 -17.449219 L 51.117188 -43.714844 C 56.757812 -58.699219 61.519531 -71.390625 64.339844 -78.265625 C 65.398438 -81.4375 63.105469 -83.375 60.636719 -83.375 C 59.226562 -83.375 57.816406 -82.496094 57.289062 -80.910156 L 54.46875 -73.679688 C 51.472656 -79.675781 46.183594 -83.375 38.25 -83.375 C 17.273438 -83.375 0.527344 -43.539062 -0.351562 -20.269531 C -0.351562 -8.988281 2.46875 0 14.101562 0 C 20.449219 0 26.089844 -3.527344 30.847656 -8.460938 L 25.558594 6.699219 C 20.800781 7.933594 16.039062 8.8125 11.632812 9.519531 C -9.519531 13.398438 -18.15625 21.503906 -18.15625 32.609375 C -18.15625 43.011719 -11.28125 49.886719 -0.707031 49.707031 C 11.988281 49.53125 22.914062 37.015625 31.375 12.867188 C 57.113281 5.289062 71.742188 -11.105469 82.671875 -36.839844 C 82.847656 -37.371094 83.023438 -37.898438 83.023438 -38.425781 C 83.023438 -39.835938 82.140625 -41.070312 80.730469 -41.777344 Z M 13.75 -7.402344 C 7.226562 -7.402344 6.875 -12.867188 7.226562 -20.09375 C 7.578125 -37.546875 22.035156 -75.621094 38.425781 -75.972656 C 44.773438 -75.972656 49.53125 -71.039062 49.53125 -61.695312 L 45.65625 -51.648438 C 38.601562 -33.667969 27.851562 -7.402344 13.75 -7.402344 Z M -0.707031 42.304688 C -6.699219 42.480469 -10.753906 38.601562 -10.753906 32.433594 C -10.046875 24.324219 -3.171875 19.742188 13.042969 16.921875 C 16.21875 16.394531 19.390625 15.6875 22.738281 14.984375 C 16.921875 32.785156 8.8125 42.128906 -0.707031 42.304688 Z M -0.707031 42.304688 "/></g></g></g><g fill="#000000" fill-opacity="1"><g transform="translate(841.691773, 254.651056)"><g><path d="M 63.808594 -41.953125 C 61.871094 -42.65625 59.757812 -41.777344 58.875 -40.011719 C 49.003906 -17.273438 37.722656 -7.050781 23.269531 -7.402344 C 12.691406 -7.757812 7.050781 -13.925781 7.402344 -23.972656 C 7.578125 -27.675781 8.109375 -31.023438 9.34375 -35.605469 C 28.910156 -40.367188 55.171875 -51.648438 55.171875 -70.332031 C 55.171875 -78.792969 49.003906 -83.375 40.191406 -83.375 C 19.390625 -83.375 1.058594 -46.710938 0 -24.148438 C -0.351562 -9.695312 8.460938 0 23.089844 0 C 40.894531 0 54.292969 -11.632812 65.75 -37.015625 C 65.925781 -37.546875 66.101562 -37.898438 66.101562 -38.425781 C 66.101562 -39.835938 65.21875 -41.246094 63.808594 -41.953125 Z M 12.164062 -44.066406 C 17.804688 -57.640625 28.027344 -75.972656 40.191406 -75.972656 C 44.066406 -75.972656 47.769531 -75.089844 47.769531 -70.332031 C 47.769531 -57.289062 26.792969 -48.652344 12.164062 -44.066406 Z M 12.164062 -44.066406 "/></g></g></g><path stroke-linecap="butt" transform="matrix(2.583998, 0, 0, 2.583998, 109.792221, -85.032042)" fill="none" stroke-linejoin="miter" d="M 124.218826 42.332658 C 123.313313 42.332658 122.406288 42.910131 122.076736 43.788433 C 121.747184 44.585103 119.275541 51.780832 116.226427 60.5699 C 113.314878 68.672654 110.046566 78.120827 107.574924 85.207713 L 78.433734 85.207713 L 79.779153 80.813179 C 82.36115 72.819268 85.520619 62.822345 89.556879 55.269853 C 91.260574 51.780832 94.63924 48.869283 98.237105 46.837547 C 99.115407 46.39764 99.582525 45.60097 99.582525 44.695458 C 99.582525 43.788433 98.896209 42.332658 97.219726 42.332658 C 96.890173 42.332658 96.424567 42.443013 96.095015 42.662211 C 93.621861 44.036353 91.479771 45.60097 88.897774 48.072613 C 83.377018 47.056745 78.433734 45.492127 73.820002 44.036353 C 66.157155 41.673554 59.180624 39.531464 50.858673 39.531464 C 40.970592 39.531464 31.412064 48.51252 31.412064 59.443678 C 31.412064 69.221404 38.142187 75.868383 49.073346 75.868383 C 53.109606 75.868383 57.50414 74.852515 61.433068 73.039978 C 62.338581 72.600071 62.778488 71.803401 62.778488 70.925098 C 62.778488 70.018074 62.119384 68.562299 60.553254 68.562299 C 60.086137 68.562299 59.756585 68.672654 59.427032 68.783009 C 56.049877 70.238783 52.450501 71.144296 49.182189 71.144296 C 41.519342 71.144296 36.136151 67.436077 36.136151 59.086915 C 36.136151 51.561634 43.442235 44.255551 50.858673 44.255551 C 58.411165 44.255551 65.139776 46.39764 72.364227 48.650085 C 76.510841 49.886662 80.905376 51.232082 85.739817 52.358304 L 85.410265 53.017409 C 81.01573 61.009807 77.857773 71.254651 75.275776 79.357404 L 73.352884 85.207713 L 67.062668 85.207713 C 65.717248 85.207713 64.701381 86.332424 64.701381 87.679355 C 64.701381 88.91442 65.717248 90.040643 67.062668 90.040643 L 71.786755 90.040643 C 71.457202 90.947667 71.12765 92.07389 70.770887 93.062546 C 65.606893 109.047344 60.553254 124.456181 44.349259 124.456181 C 34.653166 124.456181 29.489172 117.946767 29.489172 109.047344 C 29.489172 98.143396 39.0477 89.9318 49.073346 89.9318 C 50.418766 89.9318 51.434633 88.805577 51.434633 87.458646 C 51.434633 86.223581 50.418766 85.097358 49.073346 85.097358 C 36.576058 85.316556 24.765086 95.314991 24.765086 108.936989 C 24.765086 120.41841 31.632774 129.180268 44.238905 129.180268 C 64.042276 129.180268 69.644665 112.205301 75.384619 94.545532 C 75.851737 93.062546 76.291644 91.606772 76.840394 90.040643 L 105.872741 90.040643 L 103.977059 95.314991 C 97.000528 113.661076 92.935546 125.142496 92.935546 131.898318 C 92.935546 140.111426 96.53341 146.40013 105.213636 146.62084 C 106.559056 146.62084 107.574924 145.494618 107.685278 144.258041 C 107.685278 142.912621 106.559056 141.786398 105.322479 141.786398 C 99.582525 141.786398 97.440435 137.502219 97.659633 131.898318 C 97.880342 126.048009 101.148654 116.820545 108.453226 96.906819 C 109.249896 94.764729 115.677677 76.30829 120.620961 62.13603 L 126.47127 45.492127 C 127.021532 44.036353 126.114507 42.332658 124.218826 42.332658 Z M 124.218826 42.332658 " stroke="#000000" stroke-width="3.656445" stroke-opacity="1" stroke-miterlimit="4"/><g fill="#000000" fill-opacity="1"><g transform="translate(173.78655, 232.799731)"><g><path d="M 256.980469 -208.433594 C 254.652344 -208.433594 252.328125 -206.976562 251.457031 -204.652344 C 250.582031 -202.617188 244.1875 -184.011719 236.339844 -161.339844 C 228.78125 -140.40625 220.351562 -115.988281 213.953125 -97.675781 L 138.664062 -97.675781 L 142.152344 -109.011719 C 148.839844 -129.652344 156.976562 -155.523438 167.441406 -175 C 171.804688 -184.011719 180.523438 -191.570312 189.828125 -196.804688 C 192.152344 -197.964844 193.316406 -200 193.316406 -202.328125 C 193.316406 -204.652344 191.570312 -208.433594 187.210938 -208.433594 C 186.339844 -208.433594 185.175781 -208.140625 184.304688 -207.558594 C 177.910156 -204.070312 172.386719 -200 165.699219 -193.605469 C 151.453125 -196.222656 138.664062 -200.292969 126.746094 -204.070312 C 106.976562 -210.175781 88.953125 -215.699219 67.441406 -215.699219 C 41.859375 -215.699219 17.152344 -192.441406 17.152344 -164.246094 C 17.152344 -138.953125 34.59375 -121.804688 62.792969 -121.804688 C 73.257812 -121.804688 84.59375 -124.417969 94.769531 -129.070312 C 97.09375 -130.234375 98.257812 -132.269531 98.257812 -134.59375 C 98.257812 -136.917969 96.511719 -140.699219 92.441406 -140.699219 C 91.28125 -140.699219 90.40625 -140.40625 89.535156 -140.117188 C 80.816406 -136.339844 71.511719 -134.011719 63.082031 -134.011719 C 43.3125 -134.011719 29.359375 -143.605469 29.359375 -165.117188 C 29.359375 -184.59375 48.257812 -203.488281 67.441406 -203.488281 C 86.917969 -203.488281 104.359375 -197.964844 122.964844 -192.152344 C 133.722656 -188.953125 145.058594 -185.464844 157.558594 -182.558594 L 156.6875 -180.816406 C 145.351562 -160.175781 137.210938 -133.722656 130.523438 -112.792969 L 125.582031 -97.675781 L 109.304688 -97.675781 C 105.816406 -97.675781 103.199219 -94.769531 103.199219 -91.28125 C 103.199219 -88.082031 105.816406 -85.175781 109.304688 -85.175781 L 121.511719 -85.175781 C 120.640625 -82.847656 119.769531 -79.941406 118.894531 -77.324219 C 105.523438 -36.046875 92.441406 3.777344 50.582031 3.777344 C 25.582031 3.777344 12.210938 -13.082031 12.210938 -36.046875 C 12.210938 -64.246094 36.917969 -85.464844 62.792969 -85.464844 C 66.28125 -85.464844 68.894531 -88.371094 68.894531 -91.859375 C 68.894531 -95.058594 66.28125 -97.964844 62.792969 -97.964844 C 30.523438 -97.382812 0 -71.511719 0 -36.335938 C 0 -6.6875 17.734375 15.988281 50.292969 15.988281 C 101.453125 15.988281 115.988281 -27.90625 130.816406 -73.546875 C 131.976562 -77.324219 133.140625 -81.105469 134.59375 -85.175781 L 209.59375 -85.175781 L 204.652344 -71.511719 C 186.628906 -24.128906 176.164062 5.523438 176.164062 22.964844 C 176.164062 44.1875 185.464844 60.464844 207.851562 61.046875 C 211.339844 61.046875 213.953125 58.140625 214.246094 54.941406 C 214.246094 51.453125 211.339844 48.546875 208.140625 48.546875 C 193.316406 48.546875 187.792969 37.5 188.375 22.964844 C 188.953125 7.847656 197.386719 -15.988281 216.28125 -67.441406 C 218.316406 -72.964844 234.886719 -120.640625 247.675781 -157.269531 L 262.792969 -200.292969 C 264.246094 -204.070312 261.921875 -208.433594 256.980469 -208.433594 Z M 256.980469 -208.433594 "/></g></g></g></svg>