<svg xmlns="http://www.w3.org/2000/svg" xmlns:xlink="http://www.w3.org/1999/xlink" width="1500" zoomAndPan="magnify" viewBox="0 0 1125 374.999991" height="500" preserveAspectRatio="xMidYMid meet" version="1.0"><defs><filter x="0%" y="0%" width="100%" height="100%" id="0618199ba5"><feColorMatrix values="0 0 0 0 1 0 0 0 0 1 0 0 0 0 1 0 0 0 1 0" color-interpolation-filters="sRGB"/></filter><g/><mask id="99d1a970ee"><g filter="url(#0618199ba5)"><rect x="-112.5" width="1350" fill="#000000" y="-37.499999" height="449.999989" fill-opacity="0.2"/></g></mask><clipPath id="835d20d23f"><path d="M 0.238281 0.078125 L 837 0.078125 L 837 246.75 L 0.238281 246.75 Z M 0.238281 0.078125 " clip-rule="nonzero"/></clipPath><clipPath id="1af772164a"><path d="M 29.589844 0.25 L 807.410156 0.25 C 815.164062 0.25 822.597656 3.328125 828.082031 8.8125 C 833.5625 14.292969 836.640625 21.726562 836.640625 29.480469 L 836.640625 217.519531 C 836.640625 225.273438 833.5625 232.707031 828.082031 238.1875 C 822.597656 243.671875 815.164062 246.75 807.410156 246.75 L 29.589844 246.75 C 21.835938 246.75 14.402344 243.671875 8.917969 238.1875 C 3.4375 232.707031 0.359375 225.273438 0.359375 217.519531 L 0.359375 29.480469 C 0.359375 21.726562 3.4375 14.292969 8.917969 8.8125 C 14.402344 3.328125 21.835938 0.25 29.589844 0.25 Z M 29.589844 0.25 " clip-rule="nonzero"/></clipPath><clipPath id="6215ff1742"><rect x="0" width="838" y="0" height="247"/></clipPath></defs><g mask="url(#99d1a970ee)"><g transform="matrix(1, 0, 0, 1, 144, 64)"><g clip-path="url(#6215ff1742)"><g clip-path="url(#835d20d23f)"><g clip-path="url(#1af772164a)"><path fill="#f05f1b" d="M 0.359375 0.25 L 837.113281 0.25 L 837.113281 246.75 L 0.359375 246.75 Z M 0.359375 0.25 " fill-opacity="1" fill-rule="nonzero"/></g></g></g></g></g><g fill="#eb5e28" fill-opacity="1"><g transform="translate(405.168004, 266.328827)"><g><path d="M 78.789062 -37.191406 C 79.847656 -39.660156 77.910156 -42.304688 75.265625 -42.304688 C 73.855469 -42.304688 72.445312 -41.421875 71.917969 -40.011719 C 65.746094 -25.382812 59.578125 -18.683594 52.175781 -18.683594 C 48.121094 -18.683594 45.125 -19.917969 43.183594 -22.386719 C 51.292969 -36.132812 56.933594 -53.410156 56.933594 -64.511719 C 56.933594 -75.089844 50.941406 -83.019531 39.308594 -83.375 C 30.492188 -83.375 21.855469 -77.203125 14.453125 -64.867188 C 8.636719 -55.347656 -0.527344 -38.25 -0.527344 -17.804688 C -0.527344 -7.578125 3.347656 0 14.804688 0 C 23.265625 0 32.257812 -7.226562 38.777344 -16.039062 C 42.65625 -12.867188 47.238281 -11.28125 52.175781 -11.28125 C 62.75 -11.28125 71.035156 -19.390625 78.789062 -37.191406 Z M 37.898438 -42.304688 C 36.132812 -42.304688 34.546875 -41.246094 34.195312 -39.484375 C 32.960938 -35.078125 32.609375 -27.320312 34.546875 -22.738281 C 28.730469 -14.453125 21.328125 -7.402344 14.804688 -7.402344 C 9.164062 -7.402344 7.050781 -11.808594 7.050781 -18.15625 C 7.050781 -36.3125 16.394531 -53.410156 20.976562 -60.988281 C 26.085938 -69.800781 32.433594 -75.96875 39.128906 -75.96875 C 45.125 -75.96875 49.53125 -72.09375 49.53125 -64.6875 C 49.53125 -56.582031 46.179688 -44.417969 40.71875 -33.492188 C 40.894531 -34.722656 40.894531 -36.132812 41.421875 -37.542969 C 42.128906 -40.011719 40.363281 -42.304688 37.898438 -42.304688 Z M 37.898438 -42.304688 "/></g></g></g><g fill="#eb5e28" fill-opacity="1"><g transform="translate(474.086334, 266.328827)"><g><path d="M 118.980469 -38.601562 C 118.980469 -40.539062 117.039062 -42.304688 115.277344 -42.304688 C 113.867188 -42.304688 112.28125 -41.421875 111.753906 -40.011719 C 102.234375 -17.804688 95.183594 -7.402344 86.546875 -7.402344 C 82.84375 -7.402344 81.257812 -9.695312 81.257812 -14.804688 C 81.257812 -29.964844 94.832031 -50.234375 94.832031 -67.15625 C 94.832031 -76.5 90.953125 -83.726562 78.261719 -83.726562 C 69.976562 -83.726562 60.988281 -75.617188 55.875 -67.507812 C 55.875 -76.851562 50.234375 -83.726562 39.660156 -83.726562 C 33.667969 -83.726562 28.027344 -79.671875 22.914062 -73.679688 C 23.441406 -75.441406 23.972656 -76.851562 24.675781 -78.4375 C 25.558594 -80.730469 23.796875 -83.375 21.152344 -83.375 C 19.566406 -83.375 18.15625 -82.492188 17.625 -80.90625 C 8.636719 -55.523438 -0.527344 -30.140625 -9.519531 -4.757812 C -10.222656 -2.820312 -9.164062 -0.703125 -7.226562 0 C -5.289062 0.527344 -3.171875 -0.351562 -2.46875 -2.46875 L 9.519531 -36.488281 C 10.574219 -39.308594 21.152344 -58.695312 24.324219 -63.457031 C 29.4375 -70.683594 34.722656 -76.324219 39.660156 -76.324219 C 46.003906 -76.324219 48.472656 -72.972656 48.472656 -66.453125 C 48.472656 -60.28125 45.828125 -52.351562 42.128906 -41.597656 C 41.949219 -41.246094 30.316406 -6.699219 30.140625 -6.167969 C 29.261719 -3.878906 31.023438 -1.234375 33.667969 -1.234375 C 35.253906 -1.234375 36.664062 -2.113281 37.191406 -3.703125 C 37.015625 -3.347656 48.824219 -37.898438 49.179688 -38.953125 C 54.289062 -53.230469 68.039062 -76.324219 78.261719 -76.324219 C 85.3125 -76.324219 87.425781 -72.269531 87.425781 -67.15625 C 87.425781 -52.703125 73.679688 -30.847656 73.679688 -14.804688 C 73.679688 -6.167969 77.910156 0 86.546875 0 C 102.234375 0 111.929688 -21.679688 118.449219 -36.488281 C 118.800781 -37.722656 118.980469 -38.074219 118.980469 -38.601562 Z M 118.980469 -38.601562 "/></g></g></g><g fill="#eb5e28" fill-opacity="1"><g transform="translate(582.839806, 266.328827)"><g><path d="M 63.808594 -41.949219 C 61.867188 -42.65625 59.753906 -41.773438 58.871094 -40.011719 C 49 -17.273438 37.722656 -7.050781 23.265625 -7.402344 C 12.691406 -7.753906 7.050781 -13.925781 7.402344 -23.972656 C 7.578125 -27.671875 8.109375 -31.023438 9.34375 -35.605469 C 28.90625 -40.363281 55.171875 -51.644531 55.171875 -70.328125 C 55.171875 -78.789062 49 -83.375 40.1875 -83.375 C 19.390625 -83.375 1.058594 -46.710938 0 -24.148438 C -0.351562 -9.695312 8.460938 0 23.089844 0 C 40.894531 0 54.289062 -11.632812 65.746094 -37.015625 C 65.921875 -37.542969 66.097656 -37.898438 66.097656 -38.425781 C 66.097656 -39.835938 65.21875 -41.246094 63.808594 -41.949219 Z M 12.164062 -44.066406 C 17.804688 -57.636719 28.027344 -75.96875 40.1875 -75.96875 C 44.066406 -75.96875 47.769531 -75.089844 47.769531 -70.328125 C 47.769531 -57.285156 26.792969 -48.648438 12.164062 -44.066406 Z M 12.164062 -44.066406 "/></g></g></g><g fill="#eb5e28" fill-opacity="1"><g transform="translate(638.714757, 266.328827)"><g><path d="M 74.914062 -41.949219 C 74.382812 -42.128906 73.855469 -42.304688 73.328125 -42.304688 C 71.917969 -42.304688 70.683594 -41.421875 69.976562 -40.011719 C 67.15625 -30.140625 59.046875 -18.683594 49.707031 -18.683594 C 46.535156 -18.683594 43.539062 -19.917969 41.421875 -22.210938 C 47.769531 -31.726562 54.996094 -51.46875 54.996094 -63.632812 C 54.996094 -74.558594 51.292969 -83.726562 40.1875 -83.726562 C 33.667969 -83.726562 28.027344 -80.199219 23.089844 -75.089844 L 24.5 -78.789062 C 25.382812 -81.082031 23.621094 -83.726562 20.976562 -83.726562 C 19.390625 -83.726562 17.980469 -82.84375 17.449219 -81.257812 L 16.394531 -78.4375 C 14.277344 -72.972656 4.054688 -44.59375 -5.992188 -17.097656 L -25.734375 38.074219 C -26.617188 40.363281 -24.851562 43.007812 -22.210938 43.007812 C -20.621094 43.007812 -19.210938 42.128906 -18.683594 40.539062 C -16.921875 35.253906 -9.695312 15.160156 -1.761719 -6.875 C 0.175781 -2.113281 4.230469 0.175781 10.929688 0.527344 C 21.152344 0.882812 30.140625 -6.167969 37.367188 -15.863281 C 40.011719 -13.21875 44.417969 -11.28125 49.53125 -11.28125 C 61.691406 -11.28125 73.148438 -24.148438 76.851562 -37.191406 C 77.027344 -37.722656 77.203125 -38.074219 77.203125 -38.601562 C 77.203125 -40.011719 76.324219 -41.421875 74.914062 -41.949219 Z M 35.957031 -42.304688 C 34.371094 -42.304688 32.785156 -41.246094 32.433594 -39.484375 C 31.023438 -34.546875 30.492188 -27.671875 32.785156 -22.386719 C 26.792969 -13.21875 19.210938 -6.699219 11.105469 -6.875 C 6.167969 -7.050781 4.40625 -9.871094 4.40625 -16.039062 C 4.40625 -21.855469 5.640625 -24.148438 8.285156 -31.550781 C 15.335938 -49.355469 26.085938 -76.324219 40.539062 -76.324219 C 45.828125 -76.324219 47.414062 -71.386719 47.414062 -63.984375 C 47.414062 -55.171875 43.890625 -43.714844 38.777344 -32.960938 C 38.953125 -34.371094 39.128906 -35.957031 39.660156 -37.542969 C 40.1875 -40.011719 38.425781 -42.304688 35.957031 -42.304688 Z M 35.957031 -42.304688 "/></g></g></g><g fill="#eb5e28" fill-opacity="1"><g transform="translate(705.694207, 266.328827)"><g><path d="M 78.964844 -41.949219 C 78.4375 -42.128906 77.910156 -42.304688 77.378906 -42.304688 C 75.96875 -42.304688 74.738281 -41.421875 74.03125 -40.011719 L 73.855469 -39.484375 C 68.039062 -26.441406 59.578125 -7.402344 48.648438 -7.402344 C 44.949219 -7.402344 43.359375 -9.519531 43.359375 -14.804688 C 43.359375 -22.5625 49.179688 -37.898438 55.523438 -55.699219 L 64.335938 -79.320312 C 65.21875 -81.433594 63.808594 -84.253906 60.988281 -84.253906 C 59.402344 -84.253906 57.992188 -83.375 57.460938 -81.964844 C 56.582031 -79.671875 55.523438 -77.027344 54.464844 -74.03125 C 51.292969 -80.375 45.828125 -83.375 38.425781 -83.375 C 17.273438 -83.375 -0.527344 -42.128906 -0.527344 -19.035156 C -0.527344 -8.460938 4.054688 0 13.925781 0 C 21.503906 0 28.90625 -4.933594 35.957031 -14.804688 C 35.957031 -6.167969 40.1875 0 48.648438 0 C 64.511719 0 74.03125 -21.679688 80.730469 -36.488281 L 80.90625 -37.015625 C 81.082031 -37.542969 81.257812 -38.074219 81.257812 -38.601562 C 81.257812 -40.011719 80.375 -41.246094 78.964844 -41.949219 Z M 13.75 -7.402344 C 8.460938 -7.402344 6.875 -12.515625 6.875 -20.269531 C 7.226562 -37.722656 22.210938 -75.617188 38.425781 -75.96875 C 44.769531 -75.96875 49.355469 -71.210938 49.707031 -63.101562 L 45.476562 -51.820312 C 38.425781 -33.84375 28.027344 -7.402344 13.75 -7.402344 Z M 13.75 -7.402344 "/></g></g></g><g fill="#eb5e28" fill-opacity="1"><g transform="translate(776.72768, 266.328827)"><g><path d="M 80.730469 -41.773438 C 80.199219 -41.949219 79.671875 -42.128906 79.144531 -42.128906 C 77.734375 -42.128906 76.5 -41.246094 75.792969 -39.835938 C 66.980469 -19.035156 54.640625 -2.820312 34.371094 4.054688 L 41.773438 -17.449219 L 51.117188 -43.714844 C 56.757812 -58.695312 61.515625 -71.386719 64.335938 -78.261719 C 65.394531 -81.433594 63.101562 -83.375 60.636719 -83.375 C 59.226562 -83.375 57.816406 -82.492188 57.285156 -80.90625 L 54.464844 -73.679688 C 51.46875 -79.671875 46.179688 -83.375 38.25 -83.375 C 17.273438 -83.375 0.527344 -43.539062 -0.351562 -20.269531 C -0.351562 -8.988281 2.46875 0 14.101562 0 C 20.445312 0 26.085938 -3.523438 30.847656 -8.460938 L 25.558594 6.699219 C 20.800781 7.933594 16.039062 8.8125 11.632812 9.519531 C -9.519531 13.394531 -18.15625 21.503906 -18.15625 32.609375 C -18.15625 43.007812 -11.28125 49.882812 -0.703125 49.707031 C 11.984375 49.53125 22.914062 37.015625 31.375 12.867188 C 57.109375 5.289062 71.738281 -11.105469 82.667969 -36.839844 C 82.84375 -37.367188 83.019531 -37.898438 83.019531 -38.425781 C 83.019531 -39.835938 82.140625 -41.070312 80.730469 -41.773438 Z M 13.75 -7.402344 C 7.226562 -7.402344 6.875 -12.867188 7.226562 -20.09375 C 7.578125 -37.542969 22.03125 -75.617188 38.425781 -75.96875 C 44.769531 -75.96875 49.53125 -71.035156 49.53125 -61.691406 L 45.652344 -51.644531 C 38.601562 -33.667969 27.851562 -7.402344 13.75 -7.402344 Z M -0.703125 42.304688 C -6.699219 42.480469 -10.753906 38.601562 -10.753906 32.433594 C -10.046875 24.324219 -3.171875 19.742188 13.042969 16.921875 C 16.214844 16.394531 19.390625 15.6875 22.738281 14.984375 C 16.921875 32.785156 8.8125 42.128906 -0.703125 42.304688 Z M -0.703125 42.304688 "/></g></g></g><g fill="#eb5e28" fill-opacity="1"><g transform="translate(849.523749, 266.328827)"><g><path d="M 63.808594 -41.949219 C 61.867188 -42.65625 59.753906 -41.773438 58.871094 -40.011719 C 49 -17.273438 37.722656 -7.050781 23.265625 -7.402344 C 12.691406 -7.753906 7.050781 -13.925781 7.402344 -23.972656 C 7.578125 -27.671875 8.109375 -31.023438 9.34375 -35.605469 C 28.90625 -40.363281 55.171875 -51.644531 55.171875 -70.328125 C 55.171875 -78.789062 49 -83.375 40.1875 -83.375 C 19.390625 -83.375 1.058594 -46.710938 0 -24.148438 C -0.351562 -9.695312 8.460938 0 23.089844 0 C 40.894531 0 54.289062 -11.632812 65.746094 -37.015625 C 65.921875 -37.542969 66.097656 -37.898438 66.097656 -38.425781 C 66.097656 -39.835938 65.21875 -41.246094 63.808594 -41.949219 Z M 12.164062 -44.066406 C 17.804688 -57.636719 28.027344 -75.96875 40.1875 -75.96875 C 44.066406 -75.96875 47.769531 -75.089844 47.769531 -70.328125 C 47.769531 -57.285156 26.792969 -48.648438 12.164062 -44.066406 Z M 12.164062 -44.066406 "/></g></g></g><g fill="#000000" fill-opacity="1"><g transform="translate(397.377821, 258.538644)"><g><path d="M 78.789062 -37.191406 C 79.847656 -39.660156 77.910156 -42.304688 75.265625 -42.304688 C 73.855469 -42.304688 72.445312 -41.421875 71.917969 -40.011719 C 65.746094 -25.382812 59.578125 -18.683594 52.175781 -18.683594 C 48.121094 -18.683594 45.125 -19.917969 43.183594 -22.386719 C 51.292969 -36.132812 56.933594 -53.410156 56.933594 -64.511719 C 56.933594 -75.089844 50.941406 -83.019531 39.308594 -83.375 C 30.492188 -83.375 21.855469 -77.203125 14.453125 -64.867188 C 8.636719 -55.347656 -0.527344 -38.25 -0.527344 -17.804688 C -0.527344 -7.578125 3.347656 0 14.804688 0 C 23.265625 0 32.257812 -7.226562 38.777344 -16.039062 C 42.65625 -12.867188 47.238281 -11.28125 52.175781 -11.28125 C 62.75 -11.28125 71.035156 -19.390625 78.789062 -37.191406 Z M 37.898438 -42.304688 C 36.132812 -42.304688 34.546875 -41.246094 34.195312 -39.484375 C 32.960938 -35.078125 32.609375 -27.320312 34.546875 -22.738281 C 28.730469 -14.453125 21.328125 -7.402344 14.804688 -7.402344 C 9.164062 -7.402344 7.050781 -11.808594 7.050781 -18.15625 C 7.050781 -36.3125 16.394531 -53.410156 20.976562 -60.988281 C 26.085938 -69.800781 32.433594 -75.96875 39.128906 -75.96875 C 45.125 -75.96875 49.53125 -72.09375 49.53125 -64.6875 C 49.53125 -56.582031 46.179688 -44.417969 40.71875 -33.492188 C 40.894531 -34.722656 40.894531 -36.132812 41.421875 -37.542969 C 42.128906 -40.011719 40.363281 -42.304688 37.898438 -42.304688 Z M 37.898438 -42.304688 "/></g></g></g><g fill="#000000" fill-opacity="1"><g transform="translate(466.296151, 258.538644)"><g><path d="M 118.980469 -38.601562 C 118.980469 -40.539062 117.039062 -42.304688 115.277344 -42.304688 C 113.867188 -42.304688 112.28125 -41.421875 111.753906 -40.011719 C 102.234375 -17.804688 95.183594 -7.402344 86.546875 -7.402344 C 82.84375 -7.402344 81.257812 -9.695312 81.257812 -14.804688 C 81.257812 -29.964844 94.832031 -50.234375 94.832031 -67.15625 C 94.832031 -76.5 90.953125 -83.726562 78.261719 -83.726562 C 69.976562 -83.726562 60.988281 -75.617188 55.875 -67.507812 C 55.875 -76.851562 50.234375 -83.726562 39.660156 -83.726562 C 33.667969 -83.726562 28.027344 -79.671875 22.914062 -73.679688 C 23.441406 -75.441406 23.972656 -76.851562 24.675781 -78.4375 C 25.558594 -80.730469 23.796875 -83.375 21.152344 -83.375 C 19.566406 -83.375 18.15625 -82.492188 17.625 -80.90625 C 8.636719 -55.523438 -0.527344 -30.140625 -9.519531 -4.757812 C -10.222656 -2.820312 -9.164062 -0.703125 -7.226562 0 C -5.289062 0.527344 -3.171875 -0.351562 -2.46875 -2.46875 L 9.519531 -36.488281 C 10.574219 -39.308594 21.152344 -58.695312 24.324219 -63.457031 C 29.4375 -70.683594 34.722656 -76.324219 39.660156 -76.324219 C 46.003906 -76.324219 48.472656 -72.972656 48.472656 -66.453125 C 48.472656 -60.28125 45.828125 -52.351562 42.128906 -41.597656 C 41.949219 -41.246094 30.316406 -6.699219 30.140625 -6.167969 C 29.261719 -3.878906 31.023438 -1.234375 33.667969 -1.234375 C 35.253906 -1.234375 36.664062 -2.113281 37.191406 -3.703125 C 37.015625 -3.347656 48.824219 -37.898438 49.179688 -38.953125 C 54.289062 -53.230469 68.039062 -76.324219 78.261719 -76.324219 C 85.3125 -76.324219 87.425781 -72.269531 87.425781 -67.15625 C 87.425781 -52.703125 73.679688 -30.847656 73.679688 -14.804688 C 73.679688 -6.167969 77.910156 0 86.546875 0 C 102.234375 0 111.929688 -21.679688 118.449219 -36.488281 C 118.800781 -37.722656 118.980469 -38.074219 118.980469 -38.601562 Z M 118.980469 -38.601562 "/></g></g></g><g fill="#000000" fill-opacity="1"><g transform="translate(575.049623, 258.538644)"><g><path d="M 63.808594 -41.949219 C 61.867188 -42.65625 59.753906 -41.773438 58.871094 -40.011719 C 49 -17.273438 37.722656 -7.050781 23.265625 -7.402344 C 12.691406 -7.753906 7.050781 -13.925781 7.402344 -23.972656 C 7.578125 -27.671875 8.109375 -31.023438 9.34375 -35.605469 C 28.90625 -40.363281 55.171875 -51.644531 55.171875 -70.328125 C 55.171875 -78.789062 49 -83.375 40.1875 -83.375 C 19.390625 -83.375 1.058594 -46.710938 0 -24.148438 C -0.351562 -9.695312 8.460938 0 23.089844 0 C 40.894531 0 54.289062 -11.632812 65.746094 -37.015625 C 65.921875 -37.542969 66.097656 -37.898438 66.097656 -38.425781 C 66.097656 -39.835938 65.21875 -41.246094 63.808594 -41.949219 Z M 12.164062 -44.066406 C 17.804688 -57.636719 28.027344 -75.96875 40.1875 -75.96875 C 44.066406 -75.96875 47.769531 -75.089844 47.769531 -70.328125 C 47.769531 -57.285156 26.792969 -48.648438 12.164062 -44.066406 Z M 12.164062 -44.066406 "/></g></g></g><g fill="#000000" fill-opacity="1"><g transform="translate(630.924573, 258.538644)"><g><path d="M 74.914062 -41.949219 C 74.382812 -42.128906 73.855469 -42.304688 73.328125 -42.304688 C 71.917969 -42.304688 70.683594 -41.421875 69.976562 -40.011719 C 67.15625 -30.140625 59.046875 -18.683594 49.707031 -18.683594 C 46.535156 -18.683594 43.539062 -19.917969 41.421875 -22.210938 C 47.769531 -31.726562 54.996094 -51.46875 54.996094 -63.632812 C 54.996094 -74.558594 51.292969 -83.726562 40.1875 -83.726562 C 33.667969 -83.726562 28.027344 -80.199219 23.089844 -75.089844 L 24.5 -78.789062 C 25.382812 -81.082031 23.621094 -83.726562 20.976562 -83.726562 C 19.390625 -83.726562 17.980469 -82.84375 17.449219 -81.257812 L 16.394531 -78.4375 C 14.277344 -72.972656 4.054688 -44.59375 -5.992188 -17.097656 L -25.734375 38.074219 C -26.617188 40.363281 -24.851562 43.007812 -22.210938 43.007812 C -20.621094 43.007812 -19.210938 42.128906 -18.683594 40.539062 C -16.921875 35.253906 -9.695312 15.160156 -1.761719 -6.875 C 0.175781 -2.113281 4.230469 0.175781 10.929688 0.527344 C 21.152344 0.882812 30.140625 -6.167969 37.367188 -15.863281 C 40.011719 -13.21875 44.417969 -11.28125 49.53125 -11.28125 C 61.691406 -11.28125 73.148438 -24.148438 76.851562 -37.191406 C 77.027344 -37.722656 77.203125 -38.074219 77.203125 -38.601562 C 77.203125 -40.011719 76.324219 -41.421875 74.914062 -41.949219 Z M 35.957031 -42.304688 C 34.371094 -42.304688 32.785156 -41.246094 32.433594 -39.484375 C 31.023438 -34.546875 30.492188 -27.671875 32.785156 -22.386719 C 26.792969 -13.21875 19.210938 -6.699219 11.105469 -6.875 C 6.167969 -7.050781 4.40625 -9.871094 4.40625 -16.039062 C 4.40625 -21.855469 5.640625 -24.148438 8.285156 -31.550781 C 15.335938 -49.355469 26.085938 -76.324219 40.539062 -76.324219 C 45.828125 -76.324219 47.414062 -71.386719 47.414062 -63.984375 C 47.414062 -55.171875 43.890625 -43.714844 38.777344 -32.960938 C 38.953125 -34.371094 39.128906 -35.957031 39.660156 -37.542969 C 40.1875 -40.011719 38.425781 -42.304688 35.957031 -42.304688 Z M 35.957031 -42.304688 "/></g></g></g><g fill="#000000" fill-opacity="1"><g transform="translate(697.904023, 258.538644)"><g><path d="M 78.964844 -41.949219 C 78.4375 -42.128906 77.910156 -42.304688 77.378906 -42.304688 C 75.96875 -42.304688 74.738281 -41.421875 74.03125 -40.011719 L 73.855469 -39.484375 C 68.039062 -26.441406 59.578125 -7.402344 48.648438 -7.402344 C 44.949219 -7.402344 43.359375 -9.519531 43.359375 -14.804688 C 43.359375 -22.5625 49.179688 -37.898438 55.523438 -55.699219 L 64.335938 -79.320312 C 65.21875 -81.433594 63.808594 -84.253906 60.988281 -84.253906 C 59.402344 -84.253906 57.992188 -83.375 57.460938 -81.964844 C 56.582031 -79.671875 55.523438 -77.027344 54.464844 -74.03125 C 51.292969 -80.375 45.828125 -83.375 38.425781 -83.375 C 17.273438 -83.375 -0.527344 -42.128906 -0.527344 -19.035156 C -0.527344 -8.460938 4.054688 0 13.925781 0 C 21.503906 0 28.90625 -4.933594 35.957031 -14.804688 C 35.957031 -6.167969 40.1875 0 48.648438 0 C 64.511719 0 74.03125 -21.679688 80.730469 -36.488281 L 80.90625 -37.015625 C 81.082031 -37.542969 81.257812 -38.074219 81.257812 -38.601562 C 81.257812 -40.011719 80.375 -41.246094 78.964844 -41.949219 Z M 13.75 -7.402344 C 8.460938 -7.402344 6.875 -12.515625 6.875 -20.269531 C 7.226562 -37.722656 22.210938 -75.617188 38.425781 -75.96875 C 44.769531 -75.96875 49.355469 -71.210938 49.707031 -63.101562 L 45.476562 -51.820312 C 38.425781 -33.84375 28.027344 -7.402344 13.75 -7.402344 Z M 13.75 -7.402344 "/></g></g></g><g fill="#000000" fill-opacity="1"><g transform="translate(768.937497, 258.538644)"><g><path d="M 80.730469 -41.773438 C 80.199219 -41.949219 79.671875 -42.128906 79.144531 -42.128906 C 77.734375 -42.128906 76.5 -41.246094 75.792969 -39.835938 C 66.980469 -19.035156 54.640625 -2.820312 34.371094 4.054688 L 41.773438 -17.449219 L 51.117188 -43.714844 C 56.757812 -58.695312 61.515625 -71.386719 64.335938 -78.261719 C 65.394531 -81.433594 63.101562 -83.375 60.636719 -83.375 C 59.226562 -83.375 57.816406 -82.492188 57.285156 -80.90625 L 54.464844 -73.679688 C 51.46875 -79.671875 46.179688 -83.375 38.25 -83.375 C 17.273438 -83.375 0.527344 -43.539062 -0.351562 -20.269531 C -0.351562 -8.988281 2.46875 0 14.101562 0 C 20.445312 0 26.085938 -3.523438 30.847656 -8.460938 L 25.558594 6.699219 C 20.800781 7.933594 16.039062 8.8125 11.632812 9.519531 C -9.519531 13.394531 -18.15625 21.503906 -18.15625 32.609375 C -18.15625 43.007812 -11.28125 49.882812 -0.703125 49.707031 C 11.984375 49.53125 22.914062 37.015625 31.375 12.867188 C 57.109375 5.289062 71.738281 -11.105469 82.667969 -36.839844 C 82.84375 -37.367188 83.019531 -37.898438 83.019531 -38.425781 C 83.019531 -39.835938 82.140625 -41.070312 80.730469 -41.773438 Z M 13.75 -7.402344 C 7.226562 -7.402344 6.875 -12.867188 7.226562 -20.09375 C 7.578125 -37.542969 22.03125 -75.617188 38.425781 -75.96875 C 44.769531 -75.96875 49.53125 -71.035156 49.53125 -61.691406 L 45.652344 -51.644531 C 38.601562 -33.667969 27.851562 -7.402344 13.75 -7.402344 Z M -0.703125 42.304688 C -6.699219 42.480469 -10.753906 38.601562 -10.753906 32.433594 C -10.046875 24.324219 -3.171875 19.742188 13.042969 16.921875 C 16.214844 16.394531 19.390625 15.6875 22.738281 14.984375 C 16.921875 32.785156 8.8125 42.128906 -0.703125 42.304688 Z M -0.703125 42.304688 "/></g></g></g><g fill="#000000" fill-opacity="1"><g transform="translate(841.733566, 258.538644)"><g><path d="M 63.808594 -41.949219 C 61.867188 -42.65625 59.753906 -41.773438 58.871094 -40.011719 C 49 -17.273438 37.722656 -7.050781 23.265625 -7.402344 C 12.691406 -7.753906 7.050781 -13.925781 7.402344 -23.972656 C 7.578125 -27.671875 8.109375 -31.023438 9.34375 -35.605469 C 28.90625 -40.363281 55.171875 -51.644531 55.171875 -70.328125 C 55.171875 -78.789062 49 -83.375 40.1875 -83.375 C 19.390625 -83.375 1.058594 -46.710938 0 -24.148438 C -0.351562 -9.695312 8.460938 0 23.089844 0 C 40.894531 0 54.289062 -11.632812 65.746094 -37.015625 C 65.921875 -37.542969 66.097656 -37.898438 66.097656 -38.425781 C 66.097656 -39.835938 65.21875 -41.246094 63.808594 -41.949219 Z M 12.164062 -44.066406 C 17.804688 -57.636719 28.027344 -75.96875 40.1875 -75.96875 C 44.066406 -75.96875 47.769531 -75.089844 47.769531 -70.328125 C 47.769531 -57.285156 26.792969 -48.648438 12.164062 -44.066406 Z M 12.164062 -44.066406 "/></g></g></g><g fill="#eb5e28" fill-opacity="1"><g transform="translate(186.634474, 245.647655)"><g><path d="M 256.980469 -208.433594 C 254.652344 -208.433594 252.328125 -206.976562 251.457031 -204.652344 C 250.582031 -202.617188 244.1875 -184.011719 236.339844 -161.339844 C 228.78125 -140.40625 220.351562 -115.988281 213.953125 -97.675781 L 138.664062 -97.675781 L 142.152344 -109.011719 C 148.839844 -129.652344 156.976562 -155.523438 167.441406 -175 C 171.804688 -184.011719 180.523438 -191.570312 189.828125 -196.804688 C 192.152344 -197.964844 193.316406 -200 193.316406 -202.328125 C 193.316406 -204.652344 191.570312 -208.433594 187.210938 -208.433594 C 186.339844 -208.433594 185.175781 -208.140625 184.304688 -207.558594 C 177.910156 -204.070312 172.386719 -200 165.699219 -193.605469 C 151.453125 -196.222656 138.664062 -200.292969 126.746094 -204.070312 C 106.976562 -210.175781 88.953125 -215.699219 67.441406 -215.699219 C 41.859375 -215.699219 17.152344 -192.441406 17.152344 -164.246094 C 17.152344 -138.953125 34.59375 -121.804688 62.792969 -121.804688 C 73.257812 -121.804688 84.59375 -124.417969 94.769531 -129.070312 C 97.09375 -130.234375 98.257812 -132.269531 98.257812 -134.59375 C 98.257812 -136.917969 96.511719 -140.699219 92.441406 -140.699219 C 91.28125 -140.699219 90.40625 -140.40625 89.535156 -140.117188 C 80.816406 -136.339844 71.511719 -134.011719 63.082031 -134.011719 C 43.3125 -134.011719 29.359375 -143.605469 29.359375 -165.117188 C 29.359375 -184.59375 48.257812 -203.488281 67.441406 -203.488281 C 86.917969 -203.488281 104.359375 -197.964844 122.964844 -192.152344 C 133.722656 -188.953125 145.058594 -185.464844 157.558594 -182.558594 L 156.6875 -180.816406 C 145.351562 -160.175781 137.210938 -133.722656 130.523438 -112.792969 L 125.582031 -97.675781 L 109.304688 -97.675781 C 105.816406 -97.675781 103.199219 -94.769531 103.199219 -91.28125 C 103.199219 -88.082031 105.816406 -85.175781 109.304688 -85.175781 L 121.511719 -85.175781 C 120.640625 -82.847656 119.769531 -79.941406 118.894531 -77.324219 C 105.523438 -36.046875 92.441406 3.777344 50.582031 3.777344 C 25.582031 3.777344 12.210938 -13.082031 12.210938 -36.046875 C 12.210938 -64.246094 36.917969 -85.464844 62.792969 -85.464844 C 66.28125 -85.464844 68.894531 -88.371094 68.894531 -91.859375 C 68.894531 -95.058594 66.28125 -97.964844 62.792969 -97.964844 C 30.523438 -97.382812 0 -71.511719 0 -36.335938 C 0 -6.6875 17.734375 15.988281 50.292969 15.988281 C 101.453125 15.988281 115.988281 -27.90625 130.816406 -73.546875 C 131.976562 -77.324219 133.140625 -81.105469 134.59375 -85.175781 L 209.59375 -85.175781 L 204.652344 -71.511719 C 186.628906 -24.128906 176.164062 5.523438 176.164062 22.964844 C 176.164062 44.1875 185.464844 60.464844 207.851562 61.046875 C 211.339844 61.046875 213.953125 58.140625 214.246094 54.941406 C 214.246094 51.453125 211.339844 48.546875 208.140625 48.546875 C 193.316406 48.546875 187.792969 37.5 188.375 22.964844 C 188.953125 7.847656 197.386719 -15.988281 216.28125 -67.441406 C 218.316406 -72.964844 234.886719 -120.640625 247.675781 -157.269531 L 262.792969 -200.292969 C 264.246094 -204.070312 261.921875 -208.433594 256.980469 -208.433594 Z M 256.980469 -208.433594 "/></g></g></g><g fill="#000000" fill-opacity="1"><g transform="translate(173.78655, 232.799731)"><g><path d="M 256.980469 -208.433594 C 254.652344 -208.433594 252.328125 -206.976562 251.457031 -204.652344 C 250.582031 -202.617188 244.1875 -184.011719 236.339844 -161.339844 C 228.78125 -140.40625 220.351562 -115.988281 213.953125 -97.675781 L 138.664062 -97.675781 L 142.152344 -109.011719 C 148.839844 -129.652344 156.976562 -155.523438 167.441406 -175 C 171.804688 -184.011719 180.523438 -191.570312 189.828125 -196.804688 C 192.152344 -197.964844 193.316406 -200 193.316406 -202.328125 C 193.316406 -204.652344 191.570312 -208.433594 187.210938 -208.433594 C 186.339844 -208.433594 185.175781 -208.140625 184.304688 -207.558594 C 177.910156 -204.070312 172.386719 -200 165.699219 -193.605469 C 151.453125 -196.222656 138.664062 -200.292969 126.746094 -204.070312 C 106.976562 -210.175781 88.953125 -215.699219 67.441406 -215.699219 C 41.859375 -215.699219 17.152344 -192.441406 17.152344 -164.246094 C 17.152344 -138.953125 34.59375 -121.804688 62.792969 -121.804688 C 73.257812 -121.804688 84.59375 -124.417969 94.769531 -129.070312 C 97.09375 -130.234375 98.257812 -132.269531 98.257812 -134.59375 C 98.257812 -136.917969 96.511719 -140.699219 92.441406 -140.699219 C 91.28125 -140.699219 90.40625 -140.40625 89.535156 -140.117188 C 80.816406 -136.339844 71.511719 -134.011719 63.082031 -134.011719 C 43.3125 -134.011719 29.359375 -143.605469 29.359375 -165.117188 C 29.359375 -184.59375 48.257812 -203.488281 67.441406 -203.488281 C 86.917969 -203.488281 104.359375 -197.964844 122.964844 -192.152344 C 133.722656 -188.953125 145.058594 -185.464844 157.558594 -182.558594 L 156.6875 -180.816406 C 145.351562 -160.175781 137.210938 -133.722656 130.523438 -112.792969 L 125.582031 -97.675781 L 109.304688 -97.675781 C 105.816406 -97.675781 103.199219 -94.769531 103.199219 -91.28125 C 103.199219 -88.082031 105.816406 -85.175781 109.304688 -85.175781 L 121.511719 -85.175781 C 120.640625 -82.847656 119.769531 -79.941406 118.894531 -77.324219 C 105.523438 -36.046875 92.441406 3.777344 50.582031 3.777344 C 25.582031 3.777344 12.210938 -13.082031 12.210938 -36.046875 C 12.210938 -64.246094 36.917969 -85.464844 62.792969 -85.464844 C 66.28125 -85.464844 68.894531 -88.371094 68.894531 -91.859375 C 68.894531 -95.058594 66.28125 -97.964844 62.792969 -97.964844 C 30.523438 -97.382812 0 -71.511719 0 -36.335938 C 0 -6.6875 17.734375 15.988281 50.292969 15.988281 C 101.453125 15.988281 115.988281 -27.90625 130.816406 -73.546875 C 131.976562 -77.324219 133.140625 -81.105469 134.59375 -85.175781 L 209.59375 -85.175781 L 204.652344 -71.511719 C 186.628906 -24.128906 176.164062 5.523438 176.164062 22.964844 C 176.164062 44.1875 185.464844 60.464844 207.851562 61.046875 C 211.339844 61.046875 213.953125 58.140625 214.246094 54.941406 C 214.246094 51.453125 211.339844 48.546875 208.140625 48.546875 C 193.316406 48.546875 187.792969 37.5 188.375 22.964844 C 188.953125 7.847656 197.386719 -15.988281 216.28125 -67.441406 C 218.316406 -72.964844 234.886719 -120.640625 247.675781 -157.269531 L 262.792969 -200.292969 C 264.246094 -204.070312 261.921875 -208.433594 256.980469 -208.433594 Z M 256.980469 -208.433594 "/></g></g></g><g fill="#eb5e28" fill-opacity="1"><g transform="translate(926.470213, 346.417331)"><g><path d="M 53.761719 -129.203125 C 51.820312 -129.90625 49.707031 -128.851562 49.179688 -126.910156 L -1.234375 16.570312 C -1.9375 18.507812 -1.058594 20.621094 0.882812 21.328125 C 2.820312 22.03125 4.933594 20.976562 5.640625 19.035156 L 56.050781 -124.441406 C 56.757812 -126.382812 55.699219 -128.496094 53.761719 -129.203125 Z M 53.761719 -129.203125 "/></g></g></g><g fill="#eb5e28" fill-opacity="1"><g transform="translate(963.132652, 346.417331)"><g><path d="M 15.511719 -31.726562 C 16.214844 -29.789062 18.332031 -28.730469 20.269531 -29.4375 L 77.734375 -51.117188 C 79.671875 -51.820312 80.730469 -53.9375 80.023438 -55.875 C 79.671875 -56.933594 78.789062 -57.636719 77.910156 -57.992188 L 32.960938 -77.910156 C 31.023438 -78.789062 28.90625 -77.910156 28.027344 -76.144531 C 27.144531 -74.207031 28.027344 -71.917969 29.964844 -71.210938 L 66.628906 -54.820312 L 17.625 -36.488281 C 15.6875 -35.78125 14.804688 -33.667969 15.511719 -31.726562 Z M 15.511719 -31.726562 "/></g></g></g><g fill="#000000" fill-opacity="1"><g transform="translate(918.680053, 338.627145)"><g><path d="M 53.761719 -129.203125 C 51.820312 -129.90625 49.707031 -128.851562 49.179688 -126.910156 L -1.234375 16.570312 C -1.9375 18.507812 -1.058594 20.621094 0.882812 21.328125 C 2.820312 22.03125 4.933594 20.976562 5.640625 19.035156 L 56.050781 -124.441406 C 56.757812 -126.382812 55.699219 -128.496094 53.761719 -129.203125 Z M 53.761719 -129.203125 "/></g></g></g><g fill="#000000" fill-opacity="1"><g transform="translate(955.342492, 338.627145)"><g><path d="M 15.511719 -31.726562 C 16.214844 -29.789062 18.332031 -28.730469 20.269531 -29.4375 L 77.734375 -51.117188 C 79.671875 -51.820312 80.730469 -53.9375 80.023438 -55.875 C 79.671875 -56.933594 78.789062 -57.636719 77.910156 -57.992188 L 32.960938 -77.910156 C 31.023438 -78.789062 28.90625 -77.910156 28.027344 -76.144531 C 27.144531 -74.207031 28.027344 -71.917969 29.964844 -71.210938 L 66.628906 -54.820312 L 17.625 -36.488281 C 15.6875 -35.78125 14.804688 -33.667969 15.511719 -31.726562 Z M 15.511719 -31.726562 "/></g></g></g><g fill="#eb5e28" fill-opacity="1"><g transform="translate(109.043034, 114.665179)"><g><path d="M 80.023438 -75.792969 C 79.320312 -77.734375 77.203125 -78.789062 75.265625 -78.085938 L 17.804688 -56.40625 C 15.863281 -55.699219 14.804688 -53.585938 15.511719 -51.644531 C 15.863281 -50.589844 16.746094 -49.882812 17.625 -49.53125 L 62.574219 -29.613281 C 64.511719 -28.730469 66.628906 -29.613281 67.507812 -31.375 C 68.390625 -33.3125 67.507812 -35.605469 65.570312 -36.3125 L 28.90625 -52.703125 L 77.910156 -71.035156 C 79.847656 -71.738281 80.730469 -73.855469 80.023438 -75.792969 Z M 80.023438 -75.792969 "/></g></g></g><g fill="#000000" fill-opacity="1"><g transform="translate(101.252848, 106.874993)"><g><path d="M 80.023438 -75.792969 C 79.320312 -77.734375 77.203125 -78.789062 75.265625 -78.085938 L 17.804688 -56.40625 C 15.863281 -55.699219 14.804688 -53.585938 15.511719 -51.644531 C 15.863281 -50.589844 16.746094 -49.882812 17.625 -49.53125 L 62.574219 -29.613281 C 64.511719 -28.730469 66.628906 -29.613281 67.507812 -31.375 C 68.390625 -33.3125 67.507812 -35.605469 65.570312 -36.3125 L 28.90625 -52.703125 L 77.910156 -71.035156 C 79.847656 -71.738281 80.730469 -73.855469 80.023438 -75.792969 Z M 80.023438 -75.792969 "/></g></g></g></svg>