<svg xmlns="http://www.w3.org/2000/svg" xmlns:xlink="http://www.w3.org/1999/xlink" width="1500" zoomAndPan="magnify" viewBox="0 0 1125 374.999991" height="500" preserveAspectRatio="xMidYMid meet" version="1.0"><defs><filter x="0%" y="0%" width="100%" height="100%" id="f088b10c91"><feColorMatrix values="0 0 0 0 1 0 0 0 0 1 0 0 0 0 1 0 0 0 1 0" color-interpolation-filters="sRGB"/></filter><g/><mask id="d028648c34"><g filter="url(#f088b10c91)"><rect x="-112.5" width="1350" fill="#000000" y="-37.499999" height="449.999989" fill-opacity="0.2"/></g></mask><clipPath id="e7ab792ac3"><path d="M 0.238281 0.078125 L 837 0.078125 L 837 246.75 L 0.238281 246.75 Z M 0.238281 0.078125 " clip-rule="nonzero"/></clipPath><clipPath id="060b5e9184"><path d="M 29.589844 0.25 L 807.410156 0.25 C 815.164062 0.25 822.597656 3.328125 828.082031 8.8125 C 833.5625 14.292969 836.640625 21.726562 836.640625 29.480469 L 836.640625 217.519531 C 836.640625 225.273438 833.5625 232.707031 828.082031 238.1875 C 822.597656 243.671875 815.164062 246.75 807.410156 246.75 L 29.589844 246.75 C 21.835938 246.75 14.402344 243.671875 8.917969 238.1875 C 3.4375 232.707031 0.359375 225.273438 0.359375 217.519531 L 0.359375 29.480469 C 0.359375 21.726562 3.4375 14.292969 8.917969 8.8125 C 14.402344 3.328125 21.835938 0.25 29.589844 0.25 Z M 29.589844 0.25 " clip-rule="nonzero"/></clipPath><clipPath id="07517d3e36"><rect x="0" width="838" y="0" height="247"/></clipPath></defs><g mask="url(#d028648c34)"><g transform="matrix(1, 0, 0, 1, 144, 64)"><g clip-path="url(#07517d3e36)"><g clip-path="url(#e7ab792ac3)"><g clip-path="url(#060b5e9184)"><path fill="#f05f1b" d="M 0.359375 0.25 L 837.113281 0.25 L 837.113281 246.75 L 0.359375 246.75 Z M 0.359375 0.25 " fill-opacity="1" fill-rule="nonzero"/></g></g></g></g></g><g fill="#eb5e28" fill-opacity="1"><g transform="translate(387.892167, 266.328827)"><g><path d="M 78.261719 -41.949219 C 77.734375 -42.128906 77.203125 -42.304688 76.675781 -42.304688 C 75.265625 -42.304688 74.03125 -41.421875 73.328125 -40.011719 C 62.574219 -16.746094 56.230469 -7.402344 47.945312 -7.402344 C 44.242188 -7.402344 42.65625 -9.695312 42.65625 -14.804688 C 42.65625 -28.378906 56.40625 -51.46875 56.40625 -67.15625 C 56.40625 -76.5 52.527344 -83.726562 39.835938 -83.726562 C 34.019531 -83.726562 28.554688 -80.375 23.441406 -75.089844 L 24.851562 -78.613281 C 25.734375 -80.90625 23.972656 -83.550781 21.328125 -83.550781 C 19.742188 -83.550781 18.332031 -82.667969 17.804688 -81.082031 C 10.929688 -62.222656 -0.175781 -30.316406 -9.34375 -4.933594 C -10.046875 -2.820312 -8.988281 -0.882812 -7.050781 -0.175781 C -5.113281 0.351562 -2.996094 -0.527344 -2.292969 -2.644531 L 10.046875 -37.542969 C 15.6875 -52.527344 29.082031 -76.324219 39.835938 -76.324219 C 46.710938 -76.324219 49 -72.269531 49 -67.15625 C 49 -51.820312 35.253906 -31.375 35.253906 -14.804688 C 35.253906 -6.167969 39.484375 0 47.945312 0 C 59.929688 0 68.214844 -10.398438 80.199219 -37.015625 C 80.375 -37.542969 80.554688 -38.074219 80.554688 -38.601562 C 80.554688 -40.011719 79.671875 -41.246094 78.261719 -41.949219 Z M 78.261719 -41.949219 "/></g></g></g><g fill="#eb5e28" fill-opacity="1"><g transform="translate(458.220592, 266.328827)"><g><path d="M 44.769531 -41.949219 C 44.242188 -42.128906 43.714844 -42.304688 43.183594 -42.304688 C 41.773438 -42.304688 40.363281 -41.421875 39.660156 -40.1875 C 31.375 -22.03125 22.914062 -7.402344 10.222656 -7.402344 C 6.699219 -7.402344 4.582031 -10.046875 4.582031 -14.804688 C 4.582031 -19.917969 6.875 -28.027344 14.101562 -48.472656 C 19.917969 -64.867188 22.914062 -72.972656 23.972656 -76.324219 L 38.425781 -76.324219 C 40.539062 -76.324219 42.128906 -77.910156 42.128906 -80.023438 C 42.128906 -81.964844 40.539062 -83.726562 38.425781 -83.726562 L 26.617188 -83.726562 C 27.851562 -87.074219 35.429688 -108.578125 34.902344 -107.523438 C 35.78125 -109.8125 34.019531 -112.457031 31.375 -112.457031 C 29.789062 -112.457031 28.378906 -111.574219 27.851562 -109.988281 C 27.671875 -109.285156 19.035156 -84.429688 18.683594 -83.726562 L 5.113281 -83.726562 C 2.996094 -83.726562 1.410156 -81.964844 1.410156 -80.023438 C 1.410156 -77.910156 2.996094 -76.324219 5.113281 -76.324219 L 16.214844 -76.324219 L 7.226562 -51.117188 C 1.585938 -36.664062 -2.820312 -21.328125 -2.820312 -14.804688 C -2.820312 -6.34375 1.761719 0 10.222656 0 C 26.441406 0 36.3125 -14.984375 46.535156 -37.015625 C 46.710938 -37.542969 46.886719 -38.074219 46.886719 -38.601562 C 46.886719 -40.011719 46.003906 -41.246094 44.769531 -41.949219 Z M 44.769531 -41.949219 "/></g></g></g><g fill="#eb5e28" fill-opacity="1"><g transform="translate(494.883031, 266.328827)"><g><path d="M 63.808594 -41.949219 C 61.867188 -42.65625 59.753906 -41.773438 58.871094 -40.011719 C 49 -17.273438 37.722656 -7.050781 23.265625 -7.402344 C 12.691406 -7.753906 7.050781 -13.925781 7.402344 -23.972656 C 7.578125 -27.671875 8.109375 -31.023438 9.34375 -35.605469 C 28.90625 -40.363281 55.171875 -51.644531 55.171875 -70.328125 C 55.171875 -78.789062 49 -83.375 40.1875 -83.375 C 19.390625 -83.375 1.058594 -46.710938 0 -24.148438 C -0.351562 -9.695312 8.460938 0 23.089844 0 C 40.894531 0 54.289062 -11.632812 65.746094 -37.015625 C 65.921875 -37.542969 66.097656 -37.898438 66.097656 -38.425781 C 66.097656 -39.835938 65.21875 -41.246094 63.808594 -41.949219 Z M 12.164062 -44.066406 C 17.804688 -57.636719 28.027344 -75.96875 40.1875 -75.96875 C 44.066406 -75.96875 47.769531 -75.089844 47.769531 -70.328125 C 47.769531 -57.285156 26.792969 -48.648438 12.164062 -44.066406 Z M 12.164062 -44.066406 "/></g></g></g><g fill="#eb5e28" fill-opacity="1"><g transform="translate(550.757993, 266.328827)"><g><path d="M 72.796875 -41.949219 C 72.269531 -42.128906 71.738281 -42.304688 71.210938 -42.304688 C 69.800781 -42.304688 68.566406 -41.421875 67.863281 -40.011719 C 57.816406 -17.273438 51.117188 -7.402344 42.480469 -7.402344 C 38.601562 -7.402344 37.191406 -10.398438 37.191406 -14.804688 C 37.367188 -17.804688 37.722656 -20.800781 38.777344 -24.5 C 39.835938 -28.90625 48.296875 -54.113281 50.589844 -59.929688 C 51.292969 -62.046875 50.410156 -64.335938 48.472656 -65.042969 C 46.535156 -65.746094 44.242188 -66.453125 41.773438 -67.15625 C 36.664062 -68.917969 30.671875 -70.859375 25.734375 -73.328125 C 27.851562 -80.199219 28.554688 -81.785156 28.554688 -84.605469 C 28.554688 -91.65625 24.675781 -96.242188 18.332031 -96.242188 C 12.691406 -96.242188 7.578125 -92.011719 7.578125 -84.785156 C 7.578125 -78.261719 11.28125 -73.679688 16.570312 -69.976562 L 14.453125 -64.6875 L 0.351562 -34.019531 C 0.175781 -33.492188 0 -32.960938 0 -32.433594 C 0 -31.023438 0.882812 -29.789062 2.113281 -29.082031 C 2.644531 -28.90625 3.171875 -28.730469 3.878906 -28.730469 C 5.113281 -28.730469 6.34375 -29.4375 7.050781 -30.847656 C 21.152344 -61.691406 22.386719 -64.160156 23.089844 -66.277344 C 26.96875 -64.335938 28.90625 -63.632812 42.304688 -59.226562 C 40.71875 -55.347656 32.960938 -31.902344 31.550781 -26.261719 C 30.316406 -21.855469 29.789062 -18.332031 29.789062 -14.804688 C 29.789062 -6.167969 34.019531 0 42.304688 0 L 42.480469 0 C 54.464844 0 63.277344 -10.753906 74.738281 -37.015625 C 74.914062 -37.542969 75.089844 -38.074219 75.089844 -38.601562 C 75.089844 -40.011719 74.207031 -41.246094 72.796875 -41.949219 Z M 21.152344 -84.785156 C 21.152344 -83.019531 20.09375 -79.847656 19.210938 -77.378906 C 16.570312 -79.496094 14.984375 -82.667969 14.984375 -85.488281 C 14.984375 -87.425781 16.039062 -88.835938 18.332031 -88.835938 C 19.742188 -88.835938 21.152344 -87.78125 21.152344 -84.785156 Z M 21.152344 -84.785156 "/></g></g></g><g fill="#eb5e28" fill-opacity="1"><g transform="translate(615.6223, 266.328827)"><g><path d="M 63.808594 -41.949219 C 61.867188 -42.65625 59.753906 -41.773438 58.871094 -40.011719 C 49 -17.273438 37.722656 -7.050781 23.265625 -7.402344 C 12.691406 -7.753906 7.050781 -13.925781 7.402344 -23.972656 C 7.578125 -27.671875 8.109375 -31.023438 9.34375 -35.605469 C 28.90625 -40.363281 55.171875 -51.644531 55.171875 -70.328125 C 55.171875 -78.789062 49 -83.375 40.1875 -83.375 C 19.390625 -83.375 1.058594 -46.710938 0 -24.148438 C -0.351562 -9.695312 8.460938 0 23.089844 0 C 40.894531 0 54.289062 -11.632812 65.746094 -37.015625 C 65.921875 -37.542969 66.097656 -37.898438 66.097656 -38.425781 C 66.097656 -39.835938 65.21875 -41.246094 63.808594 -41.949219 Z M 12.164062 -44.066406 C 17.804688 -57.636719 28.027344 -75.96875 40.1875 -75.96875 C 44.066406 -75.96875 47.769531 -75.089844 47.769531 -70.328125 C 47.769531 -57.285156 26.792969 -48.648438 12.164062 -44.066406 Z M 12.164062 -44.066406 "/></g></g></g><g fill="#eb5e28" fill-opacity="1"><g transform="translate(671.49725, 266.328827)"><g><path d="M 58.167969 -31.199219 C 57.992188 -43.183594 53.230469 -49.355469 44.066406 -66.277344 C 49.53125 -72.445312 53.9375 -80.199219 53.9375 -87.25 C 53.585938 -92.363281 50.589844 -96.417969 45.476562 -96.417969 C 38.25 -96.417969 32.609375 -88.660156 32.609375 -79.496094 C 32.609375 -75.441406 33.667969 -71.5625 35.253906 -67.863281 C 33.136719 -65.746094 31.375 -63.808594 29.261719 -61.339844 C 28.730469 -60.636719 28.378906 -59.753906 28.378906 -59.046875 C 28.378906 -57.992188 28.730469 -56.757812 29.613281 -56.050781 C 30.316406 -55.347656 31.375 -55.171875 32.257812 -55.171875 C 33.3125 -55.171875 34.371094 -55.699219 35.078125 -56.582031 C 36.132812 -57.992188 37.367188 -59.402344 38.601562 -60.636719 C 47.945312 -44.242188 50.589844 -39.128906 50.765625 -31.375 C 50.410156 -16.746094 40.1875 -7.402344 25.910156 -7.402344 C 15.6875 -7.402344 6.699219 -14.984375 6.699219 -25.734375 C 7.402344 -36.488281 13.75 -44.59375 23.441406 -44.59375 C 28.027344 -44.59375 32.433594 -40.1875 32.785156 -34.195312 C 32.785156 -32.082031 34.371094 -30.492188 36.488281 -30.492188 C 38.601562 -30.492188 40.1875 -32.082031 40.1875 -34.195312 C 39.835938 -43.890625 32.433594 -52 23.265625 -52 C 9.164062 -52 0.351562 -41.597656 -0.703125 -25.734375 C -0.703125 -11.457031 11.28125 0 25.910156 0 C 43.714844 0 57.816406 -12.164062 58.167969 -31.199219 Z M 40.894531 -74.03125 C 40.363281 -75.96875 40.011719 -77.734375 40.011719 -79.671875 C 40.011719 -82.140625 40.539062 -85.3125 42.65625 -87.425781 C 44.417969 -89.191406 46.359375 -89.71875 46.359375 -87.25 C 46.359375 -83.375 43.714844 -77.910156 40.894531 -74.03125 Z M 40.894531 -74.03125 "/></g></g></g><g fill="#eb5e28" fill-opacity="1"><g transform="translate(739.358009, 266.328827)"><g><path d="M 44.769531 -41.949219 C 44.242188 -42.128906 43.714844 -42.304688 43.183594 -42.304688 C 41.773438 -42.304688 40.363281 -41.421875 39.660156 -40.1875 C 31.375 -22.03125 22.914062 -7.402344 10.222656 -7.402344 C 6.699219 -7.402344 4.582031 -10.046875 4.582031 -14.804688 C 4.582031 -19.917969 6.875 -28.027344 14.101562 -48.472656 C 19.917969 -64.867188 22.914062 -72.972656 23.972656 -76.324219 L 38.425781 -76.324219 C 40.539062 -76.324219 42.128906 -77.910156 42.128906 -80.023438 C 42.128906 -81.964844 40.539062 -83.726562 38.425781 -83.726562 L 26.617188 -83.726562 C 27.851562 -87.074219 35.429688 -108.578125 34.902344 -107.523438 C 35.78125 -109.8125 34.019531 -112.457031 31.375 -112.457031 C 29.789062 -112.457031 28.378906 -111.574219 27.851562 -109.988281 C 27.671875 -109.285156 19.035156 -84.429688 18.683594 -83.726562 L 5.113281 -83.726562 C 2.996094 -83.726562 1.410156 -81.964844 1.410156 -80.023438 C 1.410156 -77.910156 2.996094 -76.324219 5.113281 -76.324219 L 16.214844 -76.324219 L 7.226562 -51.117188 C 1.585938 -36.664062 -2.820312 -21.328125 -2.820312 -14.804688 C -2.820312 -6.34375 1.761719 0 10.222656 0 C 26.441406 0 36.3125 -14.984375 46.535156 -37.015625 C 46.710938 -37.542969 46.886719 -38.074219 46.886719 -38.601562 C 46.886719 -40.011719 46.003906 -41.246094 44.769531 -41.949219 Z M 44.769531 -41.949219 "/></g></g></g><g fill="#eb5e28" fill-opacity="1"><g transform="translate(776.020437, 266.328827)"><g><path d="M 58.167969 -31.199219 C 57.992188 -43.183594 53.230469 -49.355469 44.066406 -66.277344 C 49.53125 -72.445312 53.9375 -80.199219 53.9375 -87.25 C 53.585938 -92.363281 50.589844 -96.417969 45.476562 -96.417969 C 38.25 -96.417969 32.609375 -88.660156 32.609375 -79.496094 C 32.609375 -75.441406 33.667969 -71.5625 35.253906 -67.863281 C 33.136719 -65.746094 31.375 -63.808594 29.261719 -61.339844 C 28.730469 -60.636719 28.378906 -59.753906 28.378906 -59.046875 C 28.378906 -57.992188 28.730469 -56.757812 29.613281 -56.050781 C 30.316406 -55.347656 31.375 -55.171875 32.257812 -55.171875 C 33.3125 -55.171875 34.371094 -55.699219 35.078125 -56.582031 C 36.132812 -57.992188 37.367188 -59.402344 38.601562 -60.636719 C 47.945312 -44.242188 50.589844 -39.128906 50.765625 -31.375 C 50.410156 -16.746094 40.1875 -7.402344 25.910156 -7.402344 C 15.6875 -7.402344 6.699219 -14.984375 6.699219 -25.734375 C 7.402344 -36.488281 13.75 -44.59375 23.441406 -44.59375 C 28.027344 -44.59375 32.433594 -40.1875 32.785156 -34.195312 C 32.785156 -32.082031 34.371094 -30.492188 36.488281 -30.492188 C 38.601562 -30.492188 40.1875 -32.082031 40.1875 -34.195312 C 39.835938 -43.890625 32.433594 -52 23.265625 -52 C 9.164062 -52 0.351562 -41.597656 -0.703125 -25.734375 C -0.703125 -11.457031 11.28125 0 25.910156 0 C 43.714844 0 57.816406 -12.164062 58.167969 -31.199219 Z M 40.894531 -74.03125 C 40.363281 -75.96875 40.011719 -77.734375 40.011719 -79.671875 C 40.011719 -82.140625 40.539062 -85.3125 42.65625 -87.425781 C 44.417969 -89.191406 46.359375 -89.71875 46.359375 -87.25 C 46.359375 -83.375 43.714844 -77.910156 40.894531 -74.03125 Z M 40.894531 -74.03125 "/></g></g></g><g fill="#000000" fill-opacity="1"><g transform="translate(380.101981, 258.538644)"><g><path d="M 78.261719 -41.949219 C 77.734375 -42.128906 77.203125 -42.304688 76.675781 -42.304688 C 75.265625 -42.304688 74.03125 -41.421875 73.328125 -40.011719 C 62.574219 -16.746094 56.230469 -7.402344 47.945312 -7.402344 C 44.242188 -7.402344 42.65625 -9.695312 42.65625 -14.804688 C 42.65625 -28.378906 56.40625 -51.46875 56.40625 -67.15625 C 56.40625 -76.5 52.527344 -83.726562 39.835938 -83.726562 C 34.019531 -83.726562 28.554688 -80.375 23.441406 -75.089844 L 24.851562 -78.613281 C 25.734375 -80.90625 23.972656 -83.550781 21.328125 -83.550781 C 19.742188 -83.550781 18.332031 -82.667969 17.804688 -81.082031 C 10.929688 -62.222656 -0.175781 -30.316406 -9.34375 -4.933594 C -10.046875 -2.820312 -8.988281 -0.882812 -7.050781 -0.175781 C -5.113281 0.351562 -2.996094 -0.527344 -2.292969 -2.644531 L 10.046875 -37.542969 C 15.6875 -52.527344 29.082031 -76.324219 39.835938 -76.324219 C 46.710938 -76.324219 49 -72.269531 49 -67.15625 C 49 -51.820312 35.253906 -31.375 35.253906 -14.804688 C 35.253906 -6.167969 39.484375 0 47.945312 0 C 59.929688 0 68.214844 -10.398438 80.199219 -37.015625 C 80.375 -37.542969 80.554688 -38.074219 80.554688 -38.601562 C 80.554688 -40.011719 79.671875 -41.246094 78.261719 -41.949219 Z M 78.261719 -41.949219 "/></g></g></g><g fill="#000000" fill-opacity="1"><g transform="translate(450.430406, 258.538644)"><g><path d="M 44.769531 -41.949219 C 44.242188 -42.128906 43.714844 -42.304688 43.183594 -42.304688 C 41.773438 -42.304688 40.363281 -41.421875 39.660156 -40.1875 C 31.375 -22.03125 22.914062 -7.402344 10.222656 -7.402344 C 6.699219 -7.402344 4.582031 -10.046875 4.582031 -14.804688 C 4.582031 -19.917969 6.875 -28.027344 14.101562 -48.472656 C 19.917969 -64.867188 22.914062 -72.972656 23.972656 -76.324219 L 38.425781 -76.324219 C 40.539062 -76.324219 42.128906 -77.910156 42.128906 -80.023438 C 42.128906 -81.964844 40.539062 -83.726562 38.425781 -83.726562 L 26.617188 -83.726562 C 27.851562 -87.074219 35.429688 -108.578125 34.902344 -107.523438 C 35.78125 -109.8125 34.019531 -112.457031 31.375 -112.457031 C 29.789062 -112.457031 28.378906 -111.574219 27.851562 -109.988281 C 27.671875 -109.285156 19.035156 -84.429688 18.683594 -83.726562 L 5.113281 -83.726562 C 2.996094 -83.726562 1.410156 -81.964844 1.410156 -80.023438 C 1.410156 -77.910156 2.996094 -76.324219 5.113281 -76.324219 L 16.214844 -76.324219 L 7.226562 -51.117188 C 1.585938 -36.664062 -2.820312 -21.328125 -2.820312 -14.804688 C -2.820312 -6.34375 1.761719 0 10.222656 0 C 26.441406 0 36.3125 -14.984375 46.535156 -37.015625 C 46.710938 -37.542969 46.886719 -38.074219 46.886719 -38.601562 C 46.886719 -40.011719 46.003906 -41.246094 44.769531 -41.949219 Z M 44.769531 -41.949219 "/></g></g></g><g fill="#000000" fill-opacity="1"><g transform="translate(487.092845, 258.538644)"><g><path d="M 63.808594 -41.949219 C 61.867188 -42.65625 59.753906 -41.773438 58.871094 -40.011719 C 49 -17.273438 37.722656 -7.050781 23.265625 -7.402344 C 12.691406 -7.753906 7.050781 -13.925781 7.402344 -23.972656 C 7.578125 -27.671875 8.109375 -31.023438 9.34375 -35.605469 C 28.90625 -40.363281 55.171875 -51.644531 55.171875 -70.328125 C 55.171875 -78.789062 49 -83.375 40.1875 -83.375 C 19.390625 -83.375 1.058594 -46.710938 0 -24.148438 C -0.351562 -9.695312 8.460938 0 23.089844 0 C 40.894531 0 54.289062 -11.632812 65.746094 -37.015625 C 65.921875 -37.542969 66.097656 -37.898438 66.097656 -38.425781 C 66.097656 -39.835938 65.21875 -41.246094 63.808594 -41.949219 Z M 12.164062 -44.066406 C 17.804688 -57.636719 28.027344 -75.96875 40.1875 -75.96875 C 44.066406 -75.96875 47.769531 -75.089844 47.769531 -70.328125 C 47.769531 -57.285156 26.792969 -48.648438 12.164062 -44.066406 Z M 12.164062 -44.066406 "/></g></g></g><g fill="#000000" fill-opacity="1"><g transform="translate(542.967807, 258.538644)"><g><path d="M 72.796875 -41.949219 C 72.269531 -42.128906 71.738281 -42.304688 71.210938 -42.304688 C 69.800781 -42.304688 68.566406 -41.421875 67.863281 -40.011719 C 57.816406 -17.273438 51.117188 -7.402344 42.480469 -7.402344 C 38.601562 -7.402344 37.191406 -10.398438 37.191406 -14.804688 C 37.367188 -17.804688 37.722656 -20.800781 38.777344 -24.5 C 39.835938 -28.90625 48.296875 -54.113281 50.589844 -59.929688 C 51.292969 -62.046875 50.410156 -64.335938 48.472656 -65.042969 C 46.535156 -65.746094 44.242188 -66.453125 41.773438 -67.15625 C 36.664062 -68.917969 30.671875 -70.859375 25.734375 -73.328125 C 27.851562 -80.199219 28.554688 -81.785156 28.554688 -84.605469 C 28.554688 -91.65625 24.675781 -96.242188 18.332031 -96.242188 C 12.691406 -96.242188 7.578125 -92.011719 7.578125 -84.785156 C 7.578125 -78.261719 11.28125 -73.679688 16.570312 -69.976562 L 14.453125 -64.6875 L 0.351562 -34.019531 C 0.175781 -33.492188 0 -32.960938 0 -32.433594 C 0 -31.023438 0.882812 -29.789062 2.113281 -29.082031 C 2.644531 -28.90625 3.171875 -28.730469 3.878906 -28.730469 C 5.113281 -28.730469 6.34375 -29.4375 7.050781 -30.847656 C 21.152344 -61.691406 22.386719 -64.160156 23.089844 -66.277344 C 26.96875 -64.335938 28.90625 -63.632812 42.304688 -59.226562 C 40.71875 -55.347656 32.960938 -31.902344 31.550781 -26.261719 C 30.316406 -21.855469 29.789062 -18.332031 29.789062 -14.804688 C 29.789062 -6.167969 34.019531 0 42.304688 0 L 42.480469 0 C 54.464844 0 63.277344 -10.753906 74.738281 -37.015625 C 74.914062 -37.542969 75.089844 -38.074219 75.089844 -38.601562 C 75.089844 -40.011719 74.207031 -41.246094 72.796875 -41.949219 Z M 21.152344 -84.785156 C 21.152344 -83.019531 20.09375 -79.847656 19.210938 -77.378906 C 16.570312 -79.496094 14.984375 -82.667969 14.984375 -85.488281 C 14.984375 -87.425781 16.039062 -88.835938 18.332031 -88.835938 C 19.742188 -88.835938 21.152344 -87.78125 21.152344 -84.785156 Z M 21.152344 -84.785156 "/></g></g></g><g fill="#000000" fill-opacity="1"><g transform="translate(607.832114, 258.538644)"><g><path d="M 63.808594 -41.949219 C 61.867188 -42.65625 59.753906 -41.773438 58.871094 -40.011719 C 49 -17.273438 37.722656 -7.050781 23.265625 -7.402344 C 12.691406 -7.753906 7.050781 -13.925781 7.402344 -23.972656 C 7.578125 -27.671875 8.109375 -31.023438 9.34375 -35.605469 C 28.90625 -40.363281 55.171875 -51.644531 55.171875 -70.328125 C 55.171875 -78.789062 49 -83.375 40.1875 -83.375 C 19.390625 -83.375 1.058594 -46.710938 0 -24.148438 C -0.351562 -9.695312 8.460938 0 23.089844 0 C 40.894531 0 54.289062 -11.632812 65.746094 -37.015625 C 65.921875 -37.542969 66.097656 -37.898438 66.097656 -38.425781 C 66.097656 -39.835938 65.21875 -41.246094 63.808594 -41.949219 Z M 12.164062 -44.066406 C 17.804688 -57.636719 28.027344 -75.96875 40.1875 -75.96875 C 44.066406 -75.96875 47.769531 -75.089844 47.769531 -70.328125 C 47.769531 -57.285156 26.792969 -48.648438 12.164062 -44.066406 Z M 12.164062 -44.066406 "/></g></g></g><g fill="#000000" fill-opacity="1"><g transform="translate(663.707064, 258.538644)"><g><path d="M 58.167969 -31.199219 C 57.992188 -43.183594 53.230469 -49.355469 44.066406 -66.277344 C 49.53125 -72.445312 53.9375 -80.199219 53.9375 -87.25 C 53.585938 -92.363281 50.589844 -96.417969 45.476562 -96.417969 C 38.25 -96.417969 32.609375 -88.660156 32.609375 -79.496094 C 32.609375 -75.441406 33.667969 -71.5625 35.253906 -67.863281 C 33.136719 -65.746094 31.375 -63.808594 29.261719 -61.339844 C 28.730469 -60.636719 28.378906 -59.753906 28.378906 -59.046875 C 28.378906 -57.992188 28.730469 -56.757812 29.613281 -56.050781 C 30.316406 -55.347656 31.375 -55.171875 32.257812 -55.171875 C 33.3125 -55.171875 34.371094 -55.699219 35.078125 -56.582031 C 36.132812 -57.992188 37.367188 -59.402344 38.601562 -60.636719 C 47.945312 -44.242188 50.589844 -39.128906 50.765625 -31.375 C 50.410156 -16.746094 40.1875 -7.402344 25.910156 -7.402344 C 15.6875 -7.402344 6.699219 -14.984375 6.699219 -25.734375 C 7.402344 -36.488281 13.75 -44.59375 23.441406 -44.59375 C 28.027344 -44.59375 32.433594 -40.1875 32.785156 -34.195312 C 32.785156 -32.082031 34.371094 -30.492188 36.488281 -30.492188 C 38.601562 -30.492188 40.1875 -32.082031 40.1875 -34.195312 C 39.835938 -43.890625 32.433594 -52 23.265625 -52 C 9.164062 -52 0.351562 -41.597656 -0.703125 -25.734375 C -0.703125 -11.457031 11.28125 0 25.910156 0 C 43.714844 0 57.816406 -12.164062 58.167969 -31.199219 Z M 40.894531 -74.03125 C 40.363281 -75.96875 40.011719 -77.734375 40.011719 -79.671875 C 40.011719 -82.140625 40.539062 -85.3125 42.65625 -87.425781 C 44.417969 -89.191406 46.359375 -89.71875 46.359375 -87.25 C 46.359375 -83.375 43.714844 -77.910156 40.894531 -74.03125 Z M 40.894531 -74.03125 "/></g></g></g><g fill="#000000" fill-opacity="1"><g transform="translate(731.567823, 258.538644)"><g><path d="M 44.769531 -41.949219 C 44.242188 -42.128906 43.714844 -42.304688 43.183594 -42.304688 C 41.773438 -42.304688 40.363281 -41.421875 39.660156 -40.1875 C 31.375 -22.03125 22.914062 -7.402344 10.222656 -7.402344 C 6.699219 -7.402344 4.582031 -10.046875 4.582031 -14.804688 C 4.582031 -19.917969 6.875 -28.027344 14.101562 -48.472656 C 19.917969 -64.867188 22.914062 -72.972656 23.972656 -76.324219 L 38.425781 -76.324219 C 40.539062 -76.324219 42.128906 -77.910156 42.128906 -80.023438 C 42.128906 -81.964844 40.539062 -83.726562 38.425781 -83.726562 L 26.617188 -83.726562 C 27.851562 -87.074219 35.429688 -108.578125 34.902344 -107.523438 C 35.78125 -109.8125 34.019531 -112.457031 31.375 -112.457031 C 29.789062 -112.457031 28.378906 -111.574219 27.851562 -109.988281 C 27.671875 -109.285156 19.035156 -84.429688 18.683594 -83.726562 L 5.113281 -83.726562 C 2.996094 -83.726562 1.410156 -81.964844 1.410156 -80.023438 C 1.410156 -77.910156 2.996094 -76.324219 5.113281 -76.324219 L 16.214844 -76.324219 L 7.226562 -51.117188 C 1.585938 -36.664062 -2.820312 -21.328125 -2.820312 -14.804688 C -2.820312 -6.34375 1.761719 0 10.222656 0 C 26.441406 0 36.3125 -14.984375 46.535156 -37.015625 C 46.710938 -37.542969 46.886719 -38.074219 46.886719 -38.601562 C 46.886719 -40.011719 46.003906 -41.246094 44.769531 -41.949219 Z M 44.769531 -41.949219 "/></g></g></g><g fill="#000000" fill-opacity="1"><g transform="translate(768.230251, 258.538644)"><g><path d="M 58.167969 -31.199219 C 57.992188 -43.183594 53.230469 -49.355469 44.066406 -66.277344 C 49.53125 -72.445312 53.9375 -80.199219 53.9375 -87.25 C 53.585938 -92.363281 50.589844 -96.417969 45.476562 -96.417969 C 38.25 -96.417969 32.609375 -88.660156 32.609375 -79.496094 C 32.609375 -75.441406 33.667969 -71.5625 35.253906 -67.863281 C 33.136719 -65.746094 31.375 -63.808594 29.261719 -61.339844 C 28.730469 -60.636719 28.378906 -59.753906 28.378906 -59.046875 C 28.378906 -57.992188 28.730469 -56.757812 29.613281 -56.050781 C 30.316406 -55.347656 31.375 -55.171875 32.257812 -55.171875 C 33.3125 -55.171875 34.371094 -55.699219 35.078125 -56.582031 C 36.132812 -57.992188 37.367188 -59.402344 38.601562 -60.636719 C 47.945312 -44.242188 50.589844 -39.128906 50.765625 -31.375 C 50.410156 -16.746094 40.1875 -7.402344 25.910156 -7.402344 C 15.6875 -7.402344 6.699219 -14.984375 6.699219 -25.734375 C 7.402344 -36.488281 13.75 -44.59375 23.441406 -44.59375 C 28.027344 -44.59375 32.433594 -40.1875 32.785156 -34.195312 C 32.785156 -32.082031 34.371094 -30.492188 36.488281 -30.492188 C 38.601562 -30.492188 40.1875 -32.082031 40.1875 -34.195312 C 39.835938 -43.890625 32.433594 -52 23.265625 -52 C 9.164062 -52 0.351562 -41.597656 -0.703125 -25.734375 C -0.703125 -11.457031 11.28125 0 25.910156 0 C 43.714844 0 57.816406 -12.164062 58.167969 -31.199219 Z M 40.894531 -74.03125 C 40.363281 -75.96875 40.011719 -77.734375 40.011719 -79.671875 C 40.011719 -82.140625 40.539062 -85.3125 42.65625 -87.425781 C 44.417969 -89.191406 46.359375 -89.71875 46.359375 -87.25 C 46.359375 -83.375 43.714844 -77.910156 40.894531 -74.03125 Z M 40.894531 -74.03125 "/></g></g></g><g fill="#eb5e28" fill-opacity="1"><g transform="translate(252.968282, 248.974967)"><g><path d="M 207.269531 -209.886719 C 207.269531 -219.1875 200.292969 -225.582031 190.117188 -225.582031 C 175.292969 -225.582031 162.792969 -206.6875 156.398438 -189.828125 L 140.699219 -186.339844 C 104.070312 -177.910156 69.1875 -174.128906 68.023438 -138.082031 C 67.441406 -116.570312 82.847656 -99.417969 103.199219 -99.417969 C 106.394531 -99.417969 109.304688 -102.035156 109.304688 -105.234375 C 109.59375 -108.722656 106.6875 -111.628906 103.488281 -111.628906 C 90.40625 -111.628906 79.941406 -122.675781 80.523438 -137.792969 C 80.523438 -161.339844 116.859375 -168.316406 143.316406 -174.417969 L 151.746094 -176.164062 C 150.875 -173.257812 139.828125 -137.792969 135.757812 -124.128906 C 119.769531 -70.347656 99.417969 2.617188 49.417969 2.617188 C 28.199219 2.617188 11.628906 -14.246094 12.210938 -38.371094 C 12.210938 -63.371094 36.917969 -86.628906 63.953125 -86.628906 C 67.441406 -86.628906 70.347656 -89.246094 70.347656 -92.441406 C 70.347656 -95.929688 67.734375 -98.839844 64.246094 -98.839844 C 32.847656 -99.417969 0 -72.09375 0 -38.664062 C 0 -7.847656 20.347656 14.824219 49.128906 14.824219 C 108.722656 14.824219 131.105469 -61.917969 147.675781 -120.640625 C 149.710938 -128.199219 164.535156 -176.164062 165.699219 -179.652344 C 186.339844 -185.175781 207.269531 -196.222656 207.269531 -209.886719 Z M 171.511719 -194.1875 C 176.164062 -204.070312 183.722656 -213.953125 190.117188 -213.953125 C 192.441406 -213.953125 194.1875 -212.210938 194.1875 -209.886719 C 194.1875 -205.234375 183.722656 -196.804688 171.511719 -194.1875 Z M 171.511719 -194.1875 "/></g></g></g><g fill="#000000" fill-opacity="1"><g transform="translate(240.120358, 236.127043)"><g><path d="M 207.269531 -209.886719 C 207.269531 -219.1875 200.292969 -225.582031 190.117188 -225.582031 C 175.292969 -225.582031 162.792969 -206.6875 156.398438 -189.828125 L 140.699219 -186.339844 C 104.070312 -177.910156 69.1875 -174.128906 68.023438 -138.082031 C 67.441406 -116.570312 82.847656 -99.417969 103.199219 -99.417969 C 106.394531 -99.417969 109.304688 -102.035156 109.304688 -105.234375 C 109.59375 -108.722656 106.6875 -111.628906 103.488281 -111.628906 C 90.40625 -111.628906 79.941406 -122.675781 80.523438 -137.792969 C 80.523438 -161.339844 116.859375 -168.316406 143.316406 -174.417969 L 151.746094 -176.164062 C 150.875 -173.257812 139.828125 -137.792969 135.757812 -124.128906 C 119.769531 -70.347656 99.417969 2.617188 49.417969 2.617188 C 28.199219 2.617188 11.628906 -14.246094 12.210938 -38.371094 C 12.210938 -63.371094 36.917969 -86.628906 63.953125 -86.628906 C 67.441406 -86.628906 70.347656 -89.246094 70.347656 -92.441406 C 70.347656 -95.929688 67.734375 -98.839844 64.246094 -98.839844 C 32.847656 -99.417969 0 -72.09375 0 -38.664062 C 0 -7.847656 20.347656 14.824219 49.128906 14.824219 C 108.722656 14.824219 131.105469 -61.917969 147.675781 -120.640625 C 149.710938 -128.199219 164.535156 -176.164062 165.699219 -179.652344 C 186.339844 -185.175781 207.269531 -196.222656 207.269531 -209.886719 Z M 171.511719 -194.1875 C 176.164062 -204.070312 183.722656 -213.953125 190.117188 -213.953125 C 192.441406 -213.953125 194.1875 -212.210938 194.1875 -209.886719 C 194.1875 -205.234375 183.722656 -196.804688 171.511719 -194.1875 Z M 171.511719 -194.1875 "/></g></g></g><g fill="#eb5e28" fill-opacity="1"><g transform="translate(831.512779, 304.052133)"><g><path d="M 53.761719 -129.203125 C 51.820312 -129.90625 49.707031 -128.851562 49.179688 -126.910156 L -1.234375 16.570312 C -1.9375 18.507812 -1.058594 20.621094 0.882812 21.328125 C 2.820312 22.03125 4.933594 20.976562 5.640625 19.035156 L 56.050781 -124.441406 C 56.757812 -126.382812 55.699219 -128.496094 53.761719 -129.203125 Z M 53.761719 -129.203125 "/></g></g></g><g fill="#eb5e28" fill-opacity="1"><g transform="translate(868.175218, 304.052133)"><g><path d="M 15.511719 -31.726562 C 16.214844 -29.789062 18.332031 -28.730469 20.269531 -29.4375 L 77.734375 -51.117188 C 79.671875 -51.820312 80.730469 -53.9375 80.023438 -55.875 C 79.671875 -56.933594 78.789062 -57.636719 77.910156 -57.992188 L 32.960938 -77.910156 C 31.023438 -78.789062 28.90625 -77.910156 28.027344 -76.144531 C 27.144531 -74.207031 28.027344 -71.917969 29.964844 -71.210938 L 66.628906 -54.820312 L 17.625 -36.488281 C 15.6875 -35.78125 14.804688 -33.667969 15.511719 -31.726562 Z M 15.511719 -31.726562 "/></g></g></g><g fill="#000000" fill-opacity="1"><g transform="translate(823.722619, 296.261949)"><g><path d="M 53.761719 -129.203125 C 51.820312 -129.90625 49.707031 -128.851562 49.179688 -126.910156 L -1.234375 16.570312 C -1.9375 18.507812 -1.058594 20.621094 0.882812 21.328125 C 2.820312 22.03125 4.933594 20.976562 5.640625 19.035156 L 56.050781 -124.441406 C 56.757812 -126.382812 55.699219 -128.496094 53.761719 -129.203125 Z M 53.761719 -129.203125 "/></g></g></g><g fill="#000000" fill-opacity="1"><g transform="translate(860.385058, 296.261949)"><g><path d="M 15.511719 -31.726562 C 16.214844 -29.789062 18.332031 -28.730469 20.269531 -29.4375 L 77.734375 -51.117188 C 79.671875 -51.820312 80.730469 -53.9375 80.023438 -55.875 C 79.671875 -56.933594 78.789062 -57.636719 77.910156 -57.992188 L 32.960938 -77.910156 C 31.023438 -78.789062 28.90625 -77.910156 28.027344 -76.144531 C 27.144531 -74.207031 28.027344 -71.917969 29.964844 -71.210938 L 66.628906 -54.820312 L 17.625 -36.488281 C 15.6875 -35.78125 14.804688 -33.667969 15.511719 -31.726562 Z M 15.511719 -31.726562 "/></g></g></g><g fill="#eb5e28" fill-opacity="1"><g transform="translate(182.833902, 141.414768)"><g><path d="M 80.023438 -75.792969 C 79.320312 -77.734375 77.203125 -78.789062 75.265625 -78.085938 L 17.804688 -56.40625 C 15.863281 -55.699219 14.804688 -53.585938 15.511719 -51.644531 C 15.863281 -50.589844 16.746094 -49.882812 17.625 -49.53125 L 62.574219 -29.613281 C 64.511719 -28.730469 66.628906 -29.613281 67.507812 -31.375 C 68.390625 -33.3125 67.507812 -35.605469 65.570312 -36.3125 L 28.90625 -52.703125 L 77.910156 -71.035156 C 79.847656 -71.738281 80.730469 -73.855469 80.023438 -75.792969 Z M 80.023438 -75.792969 "/></g></g></g><g fill="#000000" fill-opacity="1"><g transform="translate(175.043718, 133.624582)"><g><path d="M 80.023438 -75.792969 C 79.320312 -77.734375 77.203125 -78.789062 75.265625 -78.085938 L 17.804688 -56.40625 C 15.863281 -55.699219 14.804688 -53.585938 15.511719 -51.644531 C 15.863281 -50.589844 16.746094 -49.882812 17.625 -49.53125 L 62.574219 -29.613281 C 64.511719 -28.730469 66.628906 -29.613281 67.507812 -31.375 C 68.390625 -33.3125 67.507812 -35.605469 65.570312 -36.3125 L 28.90625 -52.703125 L 77.910156 -71.035156 C 79.847656 -71.738281 80.730469 -73.855469 80.023438 -75.792969 Z M 80.023438 -75.792969 "/></g></g></g></svg>