<svg xmlns="http://www.w3.org/2000/svg" xmlns:xlink="http://www.w3.org/1999/xlink" width="1500" zoomAndPan="magnify" viewBox="0 0 1125 374.999991" height="500" preserveAspectRatio="xMidYMid meet" version="1.0"><defs><filter x="0%" y="0%" width="100%" height="100%" id="37f6e3f2a0"><feColorMatrix values="0 0 0 0 1 0 0 0 0 1 0 0 0 0 1 0 0 0 1 0" color-interpolation-filters="sRGB"/></filter><g/><mask id="c45e332acf"><g filter="url(#37f6e3f2a0)"><rect x="-112.5" width="1350" fill="#000000" y="-37.499999" height="449.999989" fill-opacity="0.2"/></g></mask><clipPath id="63ef8af9f4"><path d="M 0.238281 0.078125 L 837 0.078125 L 837 246.75 L 0.238281 246.75 Z M 0.238281 0.078125 " clip-rule="nonzero"/></clipPath><clipPath id="40f2cfb1e8"><path d="M 29.589844 0.25 L 807.410156 0.25 C 815.164062 0.25 822.597656 3.328125 828.082031 8.8125 C 833.5625 14.292969 836.640625 21.726562 836.640625 29.480469 L 836.640625 217.519531 C 836.640625 225.273438 833.5625 232.707031 828.082031 238.1875 C 822.597656 243.671875 815.164062 246.75 807.410156 246.75 L 29.589844 246.75 C 21.835938 246.75 14.402344 243.671875 8.917969 238.1875 C 3.4375 232.707031 0.359375 225.273438 0.359375 217.519531 L 0.359375 29.480469 C 0.359375 21.726562 3.4375 14.292969 8.917969 8.8125 C 14.402344 3.328125 21.835938 0.25 29.589844 0.25 Z M 29.589844 0.25 " clip-rule="nonzero"/></clipPath><clipPath id="410a12c5aa"><rect x="0" width="838" y="0" height="247"/></clipPath></defs><g mask="url(#c45e332acf)"><g transform="matrix(1, 0, 0, 1, 144, 64)"><g clip-path="url(#410a12c5aa)"><g clip-path="url(#63ef8af9f4)"><g clip-path="url(#40f2cfb1e8)"><path fill="#f05f1b" d="M 0.359375 0.25 L 837.113281 0.25 L 837.113281 246.75 L 0.359375 246.75 Z M 0.359375 0.25 " fill-opacity="1" fill-rule="nonzero"/></g></g></g></g></g><path fill="#000000" d="M 380.101562 267.539062 L 836.101562 267.539062 L 836.101562 284.789062 L 380.101562 284.789062 Z M 380.101562 267.539062 " fill-opacity="1" fill-rule="nonzero"/><path stroke-linecap="butt" transform="matrix(0.75, 0, 0, 0.75, 284.9223, 65.788656)" fill="none" stroke-linejoin="miter" d="M 231.275491 201.057846 C 230.530699 200.82868 229.843199 200.599513 229.155699 200.599513 C 227.259865 200.599513 225.598407 201.745346 224.676532 203.635971 C 210.332781 234.67764 201.900489 247.130766 190.827571 247.130766 C 185.890071 247.130766 183.770279 244.089099 183.770279 237.260974 C 183.770279 219.188056 202.129655 188.375554 202.129655 167.432844 C 202.129655 154.979718 196.962988 145.344301 180.035904 145.344301 C 172.291112 145.344301 165.004653 149.81826 158.176528 156.875552 L 160.072361 152.172426 C 161.218194 149.130759 158.864028 145.573468 155.364027 145.573468 C 153.244236 145.573468 151.348402 146.776593 150.660902 148.901593 C 141.47861 174.031803 126.676526 216.547431 114.457775 250.401599 C 113.5359 253.2141 114.916108 255.854725 117.494233 256.771392 C 120.077567 257.458892 122.890067 256.313058 123.864025 253.500558 L 140.275485 206.964097 C 147.848402 186.943262 165.692153 155.214093 180.035904 155.214093 C 189.160905 155.214093 192.259863 160.66201 192.259863 167.432844 C 192.259863 187.91722 173.900487 215.17243 173.900487 237.260974 C 173.900487 248.797433 179.577571 257.000558 190.827571 257.000558 C 206.832781 257.000558 217.848407 243.115141 233.858824 207.656805 C 234.087991 206.964097 234.317158 206.219305 234.317158 205.531805 C 234.317158 203.635971 233.114033 202.031805 231.275491 201.057846 Z M 280.348411 201.057846 C 279.660911 200.82868 278.973411 200.599513 278.28591 200.599513 C 276.390077 200.599513 274.499452 201.745346 273.577577 203.406805 C 262.504659 227.620348 251.202575 247.130766 234.332783 247.130766 C 229.629657 247.130766 226.759865 243.630766 226.759865 237.260974 C 226.759865 230.432848 229.858824 219.646389 239.49945 192.391179 C 247.244242 170.531803 251.202575 159.688052 252.634867 155.214093 L 271.916118 155.214093 C 274.728619 155.214093 276.84841 153.146385 276.84841 150.276593 C 276.84841 147.693259 274.728619 145.344301 271.916118 145.344301 L 256.134867 145.344301 C 257.801534 140.922426 267.900493 112.234924 267.212993 113.615132 C 268.358827 110.573465 266.061951 107.073465 262.504659 107.073465 C 260.384868 107.073465 258.489034 108.219298 257.801534 110.344299 C 257.572367 111.260965 246.041117 144.422426 245.577575 145.344301 L 227.504657 145.344301 C 224.692157 145.344301 222.572365 147.693259 222.572365 150.276593 C 222.572365 153.146385 224.692157 155.214093 227.504657 155.214093 L 242.306741 155.214093 L 230.317157 188.833887 C 222.801532 208.115138 216.890073 228.542223 216.890073 237.260974 C 216.890073 248.563058 223.030699 257.000558 234.332783 257.000558 C 255.905701 257.000558 269.103618 237.031807 282.702577 207.656805 C 282.931744 206.964097 283.218202 206.219305 283.218202 205.531805 C 283.218202 203.635971 282.015077 202.031805 280.348411 201.057846 Z M 354.650499 201.057846 C 352.072374 200.135971 349.259873 201.287013 348.05154 203.635971 C 334.916123 233.99014 319.879663 247.589099 300.60362 247.130766 C 286.489036 246.672433 278.968202 238.412015 279.431744 225.042223 C 279.660911 220.104722 280.348411 215.630764 282.009869 209.54743 C 308.119246 203.177638 343.119248 188.146387 343.119248 163.245344 C 343.119248 151.94326 334.916123 145.859926 323.150497 145.859926 C 295.436953 145.859926 270.994243 194.745346 269.561952 224.813056 C 269.103618 244.089099 280.864036 257.000558 300.374454 257.000558 C 324.067163 257.000558 341.973415 241.505766 357.233832 207.656805 C 357.462999 206.964097 357.692166 206.448472 357.692166 205.760972 C 357.692166 203.870346 356.546332 202.031805 354.650499 201.057846 Z M 285.796328 198.245346 C 293.317161 180.172428 306.916121 155.729718 323.150497 155.729718 C 328.317164 155.729718 333.249456 156.875552 333.249456 163.245344 C 333.249456 180.630762 305.306746 192.162012 285.796328 198.245346 Z M 441.145296 201.057846 C 440.400504 200.82868 439.707796 200.599513 439.020296 200.599513 C 437.129671 200.599513 435.463004 201.745346 434.546337 203.635971 C 421.119253 233.99014 412.223419 247.130766 400.692169 247.130766 C 395.53071 247.130766 393.634876 243.115141 393.634876 237.260974 C 393.864043 233.245348 394.379668 229.287015 395.759877 224.349514 C 397.192168 218.443264 408.436961 184.875554 411.535919 177.07347 C 412.457794 174.260969 411.249461 171.219303 408.666127 170.302636 C 406.088002 169.328677 403.046335 168.406802 399.775502 167.432844 C 392.947376 165.078677 384.973417 162.500552 378.374459 159.229718 C 381.181751 150.047426 382.160917 147.922426 382.160917 144.193259 C 382.160917 134.787009 376.936959 128.703675 368.504666 128.703675 C 360.989041 128.703675 354.160915 134.323467 354.160915 143.964092 C 354.160915 152.63076 359.093207 158.771385 366.1505 163.703677 L 363.337999 170.760969 L 344.52029 211.615139 C 344.291123 212.35993 344.061956 213.04743 344.061956 213.73493 C 344.061956 215.630764 345.20779 217.292222 346.874457 218.214097 C 347.561957 218.443264 348.306748 218.672431 349.223415 218.672431 C 350.890082 218.672431 352.494249 217.755764 353.468207 215.859931 C 372.291125 174.719303 373.895292 171.448469 374.874458 168.635969 C 380.035917 171.219303 382.619251 172.135969 400.463002 178.047428 C 398.338002 183.214095 388.009876 214.48493 386.119251 222.000556 C 384.509876 227.849515 383.765084 232.557848 383.765084 237.260974 C 383.765084 248.797433 389.447376 257.000558 400.463002 257.000558 L 400.692169 257.000558 C 416.702586 257.000558 428.405712 242.656807 443.72863 207.656805 C 443.957796 206.964097 444.186963 206.219305 444.186963 205.531805 C 444.186963 203.635971 442.97863 202.031805 441.145296 201.057846 Z M 372.291125 143.964092 C 372.291125 146.318259 370.853625 150.563051 369.6505 153.833885 C 366.1505 151.021385 364.030708 146.776593 364.030708 142.990134 C 364.030708 140.406801 365.463 138.573467 368.504666 138.573467 C 370.395292 138.573467 372.291125 139.948467 372.291125 143.964092 Z M 515.640093 201.057846 C 513.056759 200.135971 510.244259 201.287013 509.041134 203.635971 C 495.900508 233.99014 480.869257 247.589099 461.588006 247.130766 C 447.473422 246.672433 439.957796 238.412015 440.416129 225.042223 C 440.645296 220.104722 441.332796 215.630764 442.999463 209.54743 C 469.103631 203.177638 504.103634 188.146387 504.103634 163.245344 C 504.103634 151.94326 495.900508 145.859926 484.134882 145.859926 C 456.421339 145.859926 431.978629 194.745346 430.546337 224.813056 C 430.088004 244.089099 441.848421 257.000558 461.358839 257.000558 C 485.056757 257.000558 502.9578 241.505766 518.218218 207.656805 C 518.447385 206.964097 518.676551 206.448472 518.676551 205.760972 C 518.676551 203.870346 517.530718 202.031805 515.640093 201.057846 Z M 446.785922 198.245346 C 454.301547 180.172428 467.900506 155.729718 484.134882 155.729718 C 489.301549 155.729718 494.233841 156.875552 494.233841 163.245344 C 494.233841 180.630762 466.291131 192.162012 446.785922 198.245346 Z M 582.619264 215.401597 C 582.390097 199.391179 576.020305 191.188054 563.801554 168.635969 C 571.088013 160.432844 576.94218 150.047426 576.94218 140.635967 C 576.483847 133.865133 572.520305 128.417216 565.697388 128.417216 C 556.056762 128.417216 548.541137 138.802634 548.541137 151.021385 C 548.541137 156.417218 549.916137 161.578677 552.041137 166.516177 C 549.228637 169.328677 546.87447 171.906803 544.06197 175.234928 C 543.37447 176.156803 542.858845 177.302636 542.858845 178.276595 C 542.858845 179.656803 543.37447 181.318262 544.520303 182.234928 C 545.49947 183.214095 546.87447 183.443262 548.077595 183.443262 C 549.457803 183.443262 550.890095 182.750553 551.81197 181.547428 C 553.244262 179.656803 554.848429 177.818261 556.515095 176.156803 C 568.963013 198.016179 572.520305 204.844305 572.75468 215.17243 C 572.233846 234.67764 558.634887 247.130766 539.588011 247.130766 C 525.989052 247.130766 513.999468 237.031807 513.999468 222.688056 C 514.916134 208.344305 523.348427 197.557846 536.317177 197.557846 C 542.400511 197.557846 548.306762 203.406805 548.770303 211.385972 C 548.770303 214.255764 550.890095 216.318264 553.702595 216.318264 C 556.515095 216.318264 558.634887 214.255764 558.634887 211.385972 C 558.176554 198.474513 548.306762 187.688054 536.088011 187.688054 C 517.270301 187.688054 505.504675 201.51618 504.129675 222.688056 C 504.129675 241.734932 520.077593 257.000558 539.588011 257.000558 C 563.343221 257.000558 582.103639 240.760974 582.619264 215.401597 Z M 559.556762 158.307843 C 558.869262 155.729718 558.405721 153.375551 558.405721 150.792218 C 558.405721 147.464093 559.098429 143.276592 561.905721 140.406801 C 564.259888 138.057842 566.843221 137.365134 566.843221 140.635967 C 566.843221 145.859926 563.343221 153.146385 559.556762 158.307843 Z M 655.202602 201.057846 C 654.509894 200.82868 653.822393 200.599513 653.134893 200.599513 C 651.23906 200.599513 649.348435 201.745346 648.431768 203.406805 C 637.353642 227.620348 626.051558 247.130766 609.181766 247.130766 C 604.47864 247.130766 601.608848 243.630766 601.608848 237.260974 C 601.608848 230.432848 604.707807 219.646389 614.348433 192.391179 C 622.093225 170.531803 626.051558 159.688052 627.489058 155.214093 L 646.765101 155.214093 C 649.577602 155.214093 651.702602 153.146385 651.702602 150.276593 C 651.702602 147.693259 649.577602 145.344301 646.765101 145.344301 L 630.989059 145.344301 C 632.650517 140.922426 642.749476 112.234924 642.061976 113.615132 C 643.207809 110.573465 640.910934 107.073465 637.353642 107.073465 C 635.233851 107.073465 633.338017 108.219298 632.650517 110.344299 C 632.42135 111.260965 620.8901 144.422426 620.431766 145.344301 L 602.35364 145.344301 C 599.546348 145.344301 597.421348 147.693259 597.421348 150.276593 C 597.421348 153.146385 599.546348 155.214093 602.35364 155.214093 L 617.160933 155.214093 L 605.16614 188.833887 C 597.650515 208.115138 591.739056 228.542223 591.739056 237.260974 C 591.739056 248.563058 597.879681 257.000558 609.181766 257.000558 C 630.759892 257.000558 643.952601 237.031807 657.55156 207.656805 C 657.780727 206.964097 658.067185 206.219305 658.067185 205.531805 C 658.067185 203.635971 656.86406 202.031805 655.202602 201.057846 Z M 721.983856 215.401597 C 721.75469 199.391179 715.384898 191.188054 703.166147 168.635969 C 710.452606 160.432844 716.306773 150.047426 716.306773 140.635967 C 715.848439 133.865133 711.884897 128.417216 705.056772 128.417216 C 695.421355 128.417216 687.905729 138.802634 687.905729 151.021385 C 687.905729 156.417218 689.280729 161.578677 691.405729 166.516177 C 688.593229 169.328677 686.239062 171.906803 683.426562 175.234928 C 682.739062 176.156803 682.223437 177.302636 682.223437 178.276595 C 682.223437 179.656803 682.739062 181.318262 683.884895 182.234928 C 684.864062 183.214095 686.239062 183.443262 687.442187 183.443262 C 688.822396 183.443262 690.254688 182.750553 691.171354 181.547428 C 692.608854 179.656803 694.213021 177.818261 695.879688 176.156803 C 708.327605 198.016179 711.884897 204.844305 712.114064 215.17243 C 711.598439 234.67764 697.99948 247.130766 678.952603 247.130766 C 665.353644 247.130766 653.36406 237.031807 653.36406 222.688056 C 654.280727 208.344305 662.713019 197.557846 675.68177 197.557846 C 681.765104 197.557846 687.671354 203.406805 688.134896 211.385972 C 688.134896 214.255764 690.254688 216.318264 693.067188 216.318264 C 695.879688 216.318264 697.99948 214.255764 697.99948 211.385972 C 697.541146 198.474513 687.671354 187.688054 675.452603 187.688054 C 656.629685 187.688054 644.869268 201.51618 643.494268 222.688056 C 643.494268 241.734932 659.442186 257.000558 678.952603 257.000558 C 702.707813 257.000558 721.468231 240.760974 721.983856 215.401597 Z M 698.921355 158.307843 C 698.228646 155.729718 697.770313 153.375551 697.770313 150.792218 C 697.770313 147.464093 698.463021 143.276592 701.270313 140.406801 C 703.62448 138.057842 706.207814 137.365134 706.207814 140.635967 C 706.207814 145.859926 702.707813 153.146385 698.921355 158.307843 Z M 698.921355 158.307843 " stroke="#000000" stroke-width="7.638443" stroke-opacity="1" stroke-miterlimit="4"/><path fill="#000000" d="M 380.101562 267.539062 L 836.101562 267.539062 L 836.101562 284.789062 L 380.101562 284.789062 Z M 380.101562 267.539062 " fill-opacity="1" fill-rule="nonzero"/><g fill="#000000" fill-opacity="1"><g transform="translate(380.101981, 258.538644)"><g><path d="M 78.261719 -41.949219 C 77.734375 -42.128906 77.203125 -42.304688 76.675781 -42.304688 C 75.265625 -42.304688 74.03125 -41.421875 73.328125 -40.011719 C 62.574219 -16.746094 56.230469 -7.402344 47.945312 -7.402344 C 44.242188 -7.402344 42.65625 -9.695312 42.65625 -14.804688 C 42.65625 -28.378906 56.40625 -51.46875 56.40625 -67.15625 C 56.40625 -76.5 52.527344 -83.726562 39.835938 -83.726562 C 34.019531 -83.726562 28.554688 -80.375 23.441406 -75.089844 L 24.851562 -78.613281 C 25.734375 -80.90625 23.972656 -83.550781 21.328125 -83.550781 C 19.742188 -83.550781 18.332031 -82.667969 17.804688 -81.082031 C 10.929688 -62.222656 -0.175781 -30.316406 -9.34375 -4.933594 C -10.046875 -2.820312 -8.988281 -0.882812 -7.050781 -0.175781 C -5.113281 0.351562 -2.996094 -0.527344 -2.292969 -2.644531 L 10.046875 -37.542969 C 15.6875 -52.527344 29.082031 -76.324219 39.835938 -76.324219 C 46.710938 -76.324219 49 -72.269531 49 -67.15625 C 49 -51.820312 35.253906 -31.375 35.253906 -14.804688 C 35.253906 -6.167969 39.484375 0 47.945312 0 C 59.929688 0 68.214844 -10.398438 80.199219 -37.015625 C 80.375 -37.542969 80.554688 -38.074219 80.554688 -38.601562 C 80.554688 -40.011719 79.671875 -41.246094 78.261719 -41.949219 Z M 78.261719 -41.949219 "/></g></g></g><g fill="#000000" fill-opacity="1"><g transform="translate(450.430406, 258.538644)"><g><path d="M 44.769531 -41.949219 C 44.242188 -42.128906 43.714844 -42.304688 43.183594 -42.304688 C 41.773438 -42.304688 40.363281 -41.421875 39.660156 -40.1875 C 31.375 -22.03125 22.914062 -7.402344 10.222656 -7.402344 C 6.699219 -7.402344 4.582031 -10.046875 4.582031 -14.804688 C 4.582031 -19.917969 6.875 -28.027344 14.101562 -48.472656 C 19.917969 -64.867188 22.914062 -72.972656 23.972656 -76.324219 L 38.425781 -76.324219 C 40.539062 -76.324219 42.128906 -77.910156 42.128906 -80.023438 C 42.128906 -81.964844 40.539062 -83.726562 38.425781 -83.726562 L 26.617188 -83.726562 C 27.851562 -87.074219 35.429688 -108.578125 34.902344 -107.523438 C 35.78125 -109.8125 34.019531 -112.457031 31.375 -112.457031 C 29.789062 -112.457031 28.378906 -111.574219 27.851562 -109.988281 C 27.671875 -109.285156 19.035156 -84.429688 18.683594 -83.726562 L 5.113281 -83.726562 C 2.996094 -83.726562 1.410156 -81.964844 1.410156 -80.023438 C 1.410156 -77.910156 2.996094 -76.324219 5.113281 -76.324219 L 16.214844 -76.324219 L 7.226562 -51.117188 C 1.585938 -36.664062 -2.820312 -21.328125 -2.820312 -14.804688 C -2.820312 -6.34375 1.761719 0 10.222656 0 C 26.441406 0 36.3125 -14.984375 46.535156 -37.015625 C 46.710938 -37.542969 46.886719 -38.074219 46.886719 -38.601562 C 46.886719 -40.011719 46.003906 -41.246094 44.769531 -41.949219 Z M 44.769531 -41.949219 "/></g></g></g><g fill="#000000" fill-opacity="1"><g transform="translate(487.092845, 258.538644)"><g><path d="M 63.808594 -41.949219 C 61.867188 -42.65625 59.753906 -41.773438 58.871094 -40.011719 C 49 -17.273438 37.722656 -7.050781 23.265625 -7.402344 C 12.691406 -7.753906 7.050781 -13.925781 7.402344 -23.972656 C 7.578125 -27.671875 8.109375 -31.023438 9.34375 -35.605469 C 28.90625 -40.363281 55.171875 -51.644531 55.171875 -70.328125 C 55.171875 -78.789062 49 -83.375 40.1875 -83.375 C 19.390625 -83.375 1.058594 -46.710938 0 -24.148438 C -0.351562 -9.695312 8.460938 0 23.089844 0 C 40.894531 0 54.289062 -11.632812 65.746094 -37.015625 C 65.921875 -37.542969 66.097656 -37.898438 66.097656 -38.425781 C 66.097656 -39.835938 65.21875 -41.246094 63.808594 -41.949219 Z M 12.164062 -44.066406 C 17.804688 -57.636719 28.027344 -75.96875 40.1875 -75.96875 C 44.066406 -75.96875 47.769531 -75.089844 47.769531 -70.328125 C 47.769531 -57.285156 26.792969 -48.648438 12.164062 -44.066406 Z M 12.164062 -44.066406 "/></g></g></g><g fill="#000000" fill-opacity="1"><g transform="translate(542.967807, 258.538644)"><g><path d="M 72.796875 -41.949219 C 72.269531 -42.128906 71.738281 -42.304688 71.210938 -42.304688 C 69.800781 -42.304688 68.566406 -41.421875 67.863281 -40.011719 C 57.816406 -17.273438 51.117188 -7.402344 42.480469 -7.402344 C 38.601562 -7.402344 37.191406 -10.398438 37.191406 -14.804688 C 37.367188 -17.804688 37.722656 -20.800781 38.777344 -24.5 C 39.835938 -28.90625 48.296875 -54.113281 50.589844 -59.929688 C 51.292969 -62.046875 50.410156 -64.335938 48.472656 -65.042969 C 46.535156 -65.746094 44.242188 -66.453125 41.773438 -67.15625 C 36.664062 -68.917969 30.671875 -70.859375 25.734375 -73.328125 C 27.851562 -80.199219 28.554688 -81.785156 28.554688 -84.605469 C 28.554688 -91.65625 24.675781 -96.242188 18.332031 -96.242188 C 12.691406 -96.242188 7.578125 -92.011719 7.578125 -84.785156 C 7.578125 -78.261719 11.28125 -73.679688 16.570312 -69.976562 L 14.453125 -64.6875 L 0.351562 -34.019531 C 0.175781 -33.492188 0 -32.960938 0 -32.433594 C 0 -31.023438 0.882812 -29.789062 2.113281 -29.082031 C 2.644531 -28.90625 3.171875 -28.730469 3.878906 -28.730469 C 5.113281 -28.730469 6.34375 -29.4375 7.050781 -30.847656 C 21.152344 -61.691406 22.386719 -64.160156 23.089844 -66.277344 C 26.96875 -64.335938 28.90625 -63.632812 42.304688 -59.226562 C 40.71875 -55.347656 32.960938 -31.902344 31.550781 -26.261719 C 30.316406 -21.855469 29.789062 -18.332031 29.789062 -14.804688 C 29.789062 -6.167969 34.019531 0 42.304688 0 L 42.480469 0 C 54.464844 0 63.277344 -10.753906 74.738281 -37.015625 C 74.914062 -37.542969 75.089844 -38.074219 75.089844 -38.601562 C 75.089844 -40.011719 74.207031 -41.246094 72.796875 -41.949219 Z M 21.152344 -84.785156 C 21.152344 -83.019531 20.09375 -79.847656 19.210938 -77.378906 C 16.570312 -79.496094 14.984375 -82.667969 14.984375 -85.488281 C 14.984375 -87.425781 16.039062 -88.835938 18.332031 -88.835938 C 19.742188 -88.835938 21.152344 -87.78125 21.152344 -84.785156 Z M 21.152344 -84.785156 "/></g></g></g><g fill="#000000" fill-opacity="1"><g transform="translate(607.832114, 258.538644)"><g><path d="M 63.808594 -41.949219 C 61.867188 -42.65625 59.753906 -41.773438 58.871094 -40.011719 C 49 -17.273438 37.722656 -7.050781 23.265625 -7.402344 C 12.691406 -7.753906 7.050781 -13.925781 7.402344 -23.972656 C 7.578125 -27.671875 8.109375 -31.023438 9.34375 -35.605469 C 28.90625 -40.363281 55.171875 -51.644531 55.171875 -70.328125 C 55.171875 -78.789062 49 -83.375 40.1875 -83.375 C 19.390625 -83.375 1.058594 -46.710938 0 -24.148438 C -0.351562 -9.695312 8.460938 0 23.089844 0 C 40.894531 0 54.289062 -11.632812 65.746094 -37.015625 C 65.921875 -37.542969 66.097656 -37.898438 66.097656 -38.425781 C 66.097656 -39.835938 65.21875 -41.246094 63.808594 -41.949219 Z M 12.164062 -44.066406 C 17.804688 -57.636719 28.027344 -75.96875 40.1875 -75.96875 C 44.066406 -75.96875 47.769531 -75.089844 47.769531 -70.328125 C 47.769531 -57.285156 26.792969 -48.648438 12.164062 -44.066406 Z M 12.164062 -44.066406 "/></g></g></g><g fill="#000000" fill-opacity="1"><g transform="translate(663.707064, 258.538644)"><g><path d="M 58.167969 -31.199219 C 57.992188 -43.183594 53.230469 -49.355469 44.066406 -66.277344 C 49.53125 -72.445312 53.9375 -80.199219 53.9375 -87.25 C 53.585938 -92.363281 50.589844 -96.417969 45.476562 -96.417969 C 38.25 -96.417969 32.609375 -88.660156 32.609375 -79.496094 C 32.609375 -75.441406 33.667969 -71.5625 35.253906 -67.863281 C 33.136719 -65.746094 31.375 -63.808594 29.261719 -61.339844 C 28.730469 -60.636719 28.378906 -59.753906 28.378906 -59.046875 C 28.378906 -57.992188 28.730469 -56.757812 29.613281 -56.050781 C 30.316406 -55.347656 31.375 -55.171875 32.257812 -55.171875 C 33.3125 -55.171875 34.371094 -55.699219 35.078125 -56.582031 C 36.132812 -57.992188 37.367188 -59.402344 38.601562 -60.636719 C 47.945312 -44.242188 50.589844 -39.128906 50.765625 -31.375 C 50.410156 -16.746094 40.1875 -7.402344 25.910156 -7.402344 C 15.6875 -7.402344 6.699219 -14.984375 6.699219 -25.734375 C 7.402344 -36.488281 13.75 -44.59375 23.441406 -44.59375 C 28.027344 -44.59375 32.433594 -40.1875 32.785156 -34.195312 C 32.785156 -32.082031 34.371094 -30.492188 36.488281 -30.492188 C 38.601562 -30.492188 40.1875 -32.082031 40.1875 -34.195312 C 39.835938 -43.890625 32.433594 -52 23.265625 -52 C 9.164062 -52 0.351562 -41.597656 -0.703125 -25.734375 C -0.703125 -11.457031 11.28125 0 25.910156 0 C 43.714844 0 57.816406 -12.164062 58.167969 -31.199219 Z M 40.894531 -74.03125 C 40.363281 -75.96875 40.011719 -77.734375 40.011719 -79.671875 C 40.011719 -82.140625 40.539062 -85.3125 42.65625 -87.425781 C 44.417969 -89.191406 46.359375 -89.71875 46.359375 -87.25 C 46.359375 -83.375 43.714844 -77.910156 40.894531 -74.03125 Z M 40.894531 -74.03125 "/></g></g></g><g fill="#000000" fill-opacity="1"><g transform="translate(731.567823, 258.538644)"><g><path d="M 44.769531 -41.949219 C 44.242188 -42.128906 43.714844 -42.304688 43.183594 -42.304688 C 41.773438 -42.304688 40.363281 -41.421875 39.660156 -40.1875 C 31.375 -22.03125 22.914062 -7.402344 10.222656 -7.402344 C 6.699219 -7.402344 4.582031 -10.046875 4.582031 -14.804688 C 4.582031 -19.917969 6.875 -28.027344 14.101562 -48.472656 C 19.917969 -64.867188 22.914062 -72.972656 23.972656 -76.324219 L 38.425781 -76.324219 C 40.539062 -76.324219 42.128906 -77.910156 42.128906 -80.023438 C 42.128906 -81.964844 40.539062 -83.726562 38.425781 -83.726562 L 26.617188 -83.726562 C 27.851562 -87.074219 35.429688 -108.578125 34.902344 -107.523438 C 35.78125 -109.8125 34.019531 -112.457031 31.375 -112.457031 C 29.789062 -112.457031 28.378906 -111.574219 27.851562 -109.988281 C 27.671875 -109.285156 19.035156 -84.429688 18.683594 -83.726562 L 5.113281 -83.726562 C 2.996094 -83.726562 1.410156 -81.964844 1.410156 -80.023438 C 1.410156 -77.910156 2.996094 -76.324219 5.113281 -76.324219 L 16.214844 -76.324219 L 7.226562 -51.117188 C 1.585938 -36.664062 -2.820312 -21.328125 -2.820312 -14.804688 C -2.820312 -6.34375 1.761719 0 10.222656 0 C 26.441406 0 36.3125 -14.984375 46.535156 -37.015625 C 46.710938 -37.542969 46.886719 -38.074219 46.886719 -38.601562 C 46.886719 -40.011719 46.003906 -41.246094 44.769531 -41.949219 Z M 44.769531 -41.949219 "/></g></g></g><g fill="#000000" fill-opacity="1"><g transform="translate(768.230251, 258.538644)"><g><path d="M 58.167969 -31.199219 C 57.992188 -43.183594 53.230469 -49.355469 44.066406 -66.277344 C 49.53125 -72.445312 53.9375 -80.199219 53.9375 -87.25 C 53.585938 -92.363281 50.589844 -96.417969 45.476562 -96.417969 C 38.25 -96.417969 32.609375 -88.660156 32.609375 -79.496094 C 32.609375 -75.441406 33.667969 -71.5625 35.253906 -67.863281 C 33.136719 -65.746094 31.375 -63.808594 29.261719 -61.339844 C 28.730469 -60.636719 28.378906 -59.753906 28.378906 -59.046875 C 28.378906 -57.992188 28.730469 -56.757812 29.613281 -56.050781 C 30.316406 -55.347656 31.375 -55.171875 32.257812 -55.171875 C 33.3125 -55.171875 34.371094 -55.699219 35.078125 -56.582031 C 36.132812 -57.992188 37.367188 -59.402344 38.601562 -60.636719 C 47.945312 -44.242188 50.589844 -39.128906 50.765625 -31.375 C 50.410156 -16.746094 40.1875 -7.402344 25.910156 -7.402344 C 15.6875 -7.402344 6.699219 -14.984375 6.699219 -25.734375 C 7.402344 -36.488281 13.75 -44.59375 23.441406 -44.59375 C 28.027344 -44.59375 32.433594 -40.1875 32.785156 -34.195312 C 32.785156 -32.082031 34.371094 -30.492188 36.488281 -30.492188 C 38.601562 -30.492188 40.1875 -32.082031 40.1875 -34.195312 C 39.835938 -43.890625 32.433594 -52 23.265625 -52 C 9.164062 -52 0.351562 -41.597656 -0.703125 -25.734375 C -0.703125 -11.457031 11.28125 0 25.910156 0 C 43.714844 0 57.816406 -12.164062 58.167969 -31.199219 Z M 40.894531 -74.03125 C 40.363281 -75.96875 40.011719 -77.734375 40.011719 -79.671875 C 40.011719 -82.140625 40.539062 -85.3125 42.65625 -87.425781 C 44.417969 -89.191406 46.359375 -89.71875 46.359375 -87.25 C 46.359375 -83.375 43.714844 -77.910156 40.894531 -74.03125 Z M 40.894531 -74.03125 "/></g></g></g><path stroke-linecap="butt" transform="matrix(2.583998, 0, 0, 2.583998, 137.285306, -81.704731)" fill="none" stroke-linejoin="miter" d="M 119.99779 41.784223 C 119.99779 38.184847 117.305439 35.713205 113.378022 35.713205 C 107.638068 35.713205 102.803626 43.019288 100.331984 49.528702 L 94.233755 50.874122 C 80.061495 54.142434 66.575551 55.626931 66.108433 69.551271 C 65.889235 77.900433 71.849899 84.520201 79.731943 84.520201 C 80.96852 84.520201 82.094742 83.504333 82.094742 82.267756 C 82.203585 80.922336 81.077363 79.796114 79.842298 79.796114 C 74.788659 79.796114 70.723677 75.511934 70.970085 69.661625 C 70.970085 60.570215 85.033502 57.850653 95.249623 55.489365 L 98.519447 54.830261 C 98.189894 55.956483 93.904203 69.661625 92.339586 74.961673 C 86.159724 95.780912 78.276168 124.016589 58.912704 124.016589 C 50.701108 124.016589 44.300537 117.479964 44.521246 108.140634 C 44.521246 98.473263 54.079774 89.463485 64.543815 89.463485 C 65.889235 89.463485 67.015458 88.474828 67.015458 87.212552 C 67.015458 85.865621 65.99959 84.739398 64.65417 84.739398 C 52.513645 84.520201 39.79716 95.094596 39.79716 108.031791 C 39.79716 119.951607 47.679204 128.740675 58.803861 128.740675 C 81.874033 128.740675 90.525536 99.049224 96.953318 76.308604 C 97.722777 73.397055 103.462731 54.830261 103.929849 53.483329 C 111.922248 51.341239 119.99779 47.05706 119.99779 41.784223 Z M 106.182293 47.85373 C 107.96762 44.035156 110.90638 40.190883 113.378022 40.190883 C 114.283535 40.190883 114.94264 40.877198 114.94264 41.784223 C 114.94264 43.56955 110.90638 46.837862 106.182293 47.85373 Z M 106.182293 47.85373 " stroke="#000000" stroke-width="3.656445" stroke-opacity="1" stroke-miterlimit="4"/><g fill="#000000" fill-opacity="1"><g transform="translate(240.120358, 236.127043)"><g><path d="M 207.269531 -209.886719 C 207.269531 -219.1875 200.292969 -225.582031 190.117188 -225.582031 C 175.292969 -225.582031 162.792969 -206.6875 156.398438 -189.828125 L 140.699219 -186.339844 C 104.070312 -177.910156 69.1875 -174.128906 68.023438 -138.082031 C 67.441406 -116.570312 82.847656 -99.417969 103.199219 -99.417969 C 106.394531 -99.417969 109.304688 -102.035156 109.304688 -105.234375 C 109.59375 -108.722656 106.6875 -111.628906 103.488281 -111.628906 C 90.40625 -111.628906 79.941406 -122.675781 80.523438 -137.792969 C 80.523438 -161.339844 116.859375 -168.316406 143.316406 -174.417969 L 151.746094 -176.164062 C 150.875 -173.257812 139.828125 -137.792969 135.757812 -124.128906 C 119.769531 -70.347656 99.417969 2.617188 49.417969 2.617188 C 28.199219 2.617188 11.628906 -14.246094 12.210938 -38.371094 C 12.210938 -63.371094 36.917969 -86.628906 63.953125 -86.628906 C 67.441406 -86.628906 70.347656 -89.246094 70.347656 -92.441406 C 70.347656 -95.929688 67.734375 -98.839844 64.246094 -98.839844 C 32.847656 -99.417969 0 -72.09375 0 -38.664062 C 0 -7.847656 20.347656 14.824219 49.128906 14.824219 C 108.722656 14.824219 131.105469 -61.917969 147.675781 -120.640625 C 149.710938 -128.199219 164.535156 -176.164062 165.699219 -179.652344 C 186.339844 -185.175781 207.269531 -196.222656 207.269531 -209.886719 Z M 171.511719 -194.1875 C 176.164062 -204.070312 183.722656 -213.953125 190.117188 -213.953125 C 192.441406 -213.953125 194.1875 -212.210938 194.1875 -209.886719 C 194.1875 -205.234375 183.722656 -196.804688 171.511719 -194.1875 Z M 171.511719 -194.1875 "/></g></g></g></svg>