<svg xmlns="http://www.w3.org/2000/svg" xmlns:xlink="http://www.w3.org/1999/xlink" width="1500" zoomAndPan="magnify" viewBox="0 0 1125 374.999991" height="500" preserveAspectRatio="xMidYMid meet" version="1.0"><defs><filter x="0%" y="0%" width="100%" height="100%" id="2aeb2ef0a2"><feColorMatrix values="0 0 0 0 1 0 0 0 0 1 0 0 0 0 1 0 0 0 1 0" color-interpolation-filters="sRGB"/></filter><g/><mask id="745133441f"><g filter="url(#2aeb2ef0a2)"><rect x="-112.5" width="1350" fill="#000000" y="-37.499999" height="449.999989" fill-opacity="0.2"/></g></mask><clipPath id="8aa5a7285f"><path d="M 0.238281 0.078125 L 837 0.078125 L 837 246.75 L 0.238281 246.75 Z M 0.238281 0.078125 " clip-rule="nonzero"/></clipPath><clipPath id="08c1e3c88b"><path d="M 29.589844 0.25 L 807.410156 0.25 C 815.164062 0.25 822.597656 3.328125 828.082031 8.8125 C 833.5625 14.292969 836.640625 21.726562 836.640625 29.480469 L 836.640625 217.519531 C 836.640625 225.273438 833.5625 232.707031 828.082031 238.1875 C 822.597656 243.671875 815.164062 246.75 807.410156 246.75 L 29.589844 246.75 C 21.835938 246.75 14.402344 243.671875 8.917969 238.1875 C 3.4375 232.707031 0.359375 225.273438 0.359375 217.519531 L 0.359375 29.480469 C 0.359375 21.726562 3.4375 14.292969 8.917969 8.8125 C 14.402344 3.328125 21.835938 0.25 29.589844 0.25 Z M 29.589844 0.25 " clip-rule="nonzero"/></clipPath><clipPath id="71fea6a010"><rect x="0" width="838" y="0" height="247"/></clipPath><clipPath id="060134aae0"><path d="M 408 265 L 820 265 L 820 265.5 L 408 265.5 Z M 590.714844 265.5 L 820 265.5 L 820 283.878906 L 590.714844 283.878906 Z M 408 265.5 L 511.988281 265.5 L 511.988281 283.878906 L 408 283.878906 Z M 408 283.878906 L 820 283.878906 L 820 284 L 408 284 Z M 408 283.878906 " clip-rule="nonzero"/></clipPath><clipPath id="c590233dba"><path d="M 408 265 L 820 265 L 820 265.5 L 408 265.5 Z M 590.714844 265.5 L 820 265.5 L 820 283.878906 L 590.714844 283.878906 Z M 408 265.5 L 511.988281 265.5 L 511.988281 283.878906 L 408 283.878906 Z M 408 283.878906 L 820 283.878906 L 820 284 L 408 284 Z M 408 283.878906 " clip-rule="nonzero"/></clipPath></defs><g mask="url(#745133441f)"><g transform="matrix(1, 0, 0, 1, 144, 64)"><g clip-path="url(#71fea6a010)"><g clip-path="url(#8aa5a7285f)"><g clip-path="url(#08c1e3c88b)"><path fill="#f05f1b" d="M 0.359375 0.25 L 837.113281 0.25 L 837.113281 246.75 L 0.359375 246.75 Z M 0.359375 0.25 " fill-opacity="1" fill-rule="nonzero"/></g></g></g></g></g><g clip-path="url(#060134aae0)"><path fill="#000000" d="M 408.398438 265.875 L 819.269531 265.875 L 819.269531 283.125 L 408.398438 283.125 Z M 408.398438 265.875 " fill-opacity="1" fill-rule="nonzero"/></g><path stroke-linecap="butt" transform="matrix(0.75, 0, 0, 0.75, 290.658892, 64.124996)" fill="none" stroke-linejoin="miter" d="M 262.04337 207.427103 C 263.41837 204.098977 260.840244 200.598977 257.340244 200.598977 C 255.444411 200.598977 253.553786 201.744811 252.861077 203.640644 C 244.657952 223.145854 236.397535 232.098979 226.527742 232.098979 C 221.131909 232.098979 217.173575 230.432312 214.590241 227.161479 C 225.3767 208.802103 232.897534 185.791684 232.897534 170.9896 C 232.897534 156.875016 224.918367 146.317724 209.371491 145.85939 C 197.663157 145.85939 186.131906 154.062516 176.262114 170.531267 C 168.517322 183.213559 156.293363 205.989602 156.293363 233.244813 C 156.293363 246.901063 161.46003 257.000022 176.720447 257.000022 C 188.02774 257.000022 200.017324 247.359397 208.683991 235.598979 C 213.84545 239.843771 219.986075 241.968772 226.527742 241.968772 C 240.642326 241.968772 251.715244 231.125021 262.04337 207.427103 Z M 207.532949 200.598977 C 205.183991 200.598977 203.058991 202.031269 202.600657 204.328144 C 200.933991 210.234394 200.475657 220.56252 203.058991 226.703146 C 195.314198 237.718771 185.444406 247.13023 176.720447 247.13023 C 169.204822 247.13023 166.392322 241.276063 166.392322 232.786479 C 166.392322 208.572936 178.845447 185.791684 184.928781 175.697934 C 191.756907 163.932308 200.24649 155.729183 209.142324 155.729183 C 217.173575 155.729183 223.027742 160.890641 223.027742 170.760433 C 223.027742 181.546893 218.548575 197.786477 211.262116 212.359395 C 211.491283 210.697936 211.491283 208.802103 212.241283 206.968769 C 213.15795 203.640644 210.803783 200.598977 207.532949 200.598977 Z M 345.960042 201.05731 C 345.21525 200.828144 344.522542 200.598977 343.835042 200.598977 C 341.944416 200.598977 340.27775 201.744811 339.361083 203.640644 C 325.933999 233.989604 317.038165 247.13023 305.506914 247.13023 C 300.345455 247.13023 298.449622 243.114605 298.449622 237.260438 C 298.678789 233.244813 299.194414 229.286479 300.574622 224.354187 C 302.006914 218.442728 313.251706 184.875018 316.350665 177.072934 C 317.27254 174.260434 316.064206 171.218767 313.480873 170.3021 C 310.902748 169.328142 307.861081 168.406267 304.590247 167.432308 C 297.762122 165.078141 289.788163 162.500016 283.189204 159.229183 C 285.996496 150.04689 286.975663 147.927099 286.975663 144.192723 C 286.975663 134.786473 281.751704 128.703139 273.319412 128.703139 C 265.803786 128.703139 258.975661 134.328139 258.975661 143.963557 C 258.975661 152.630224 263.907953 158.770849 270.965245 163.703141 L 268.152745 170.760433 L 249.335035 211.614603 C 249.105869 212.359395 248.876702 213.046895 248.876702 213.739603 C 248.876702 215.630228 250.022535 217.296895 251.689202 218.213562 C 252.376702 218.442728 253.121494 218.671895 254.038161 218.671895 C 255.704827 218.671895 257.308994 217.755228 258.282953 215.859395 C 277.105871 174.718767 278.710037 171.447934 279.689204 168.635433 C 284.850663 171.218767 287.433996 172.135434 305.277747 178.046892 C 303.152747 183.213559 292.824622 214.484395 290.933996 222.00002 C 289.324621 227.854187 288.57983 232.557313 288.57983 237.260438 C 288.57983 248.796897 294.262122 257.000022 305.277747 257.000022 L 305.506914 257.000022 C 321.517332 257.000022 333.220458 242.656272 348.543375 207.656269 C 348.772542 206.968769 349.001709 206.218769 349.001709 205.531269 C 349.001709 203.640644 347.793375 202.031269 345.960042 201.05731 Z M 277.105871 143.963557 C 277.105871 146.317724 275.673579 150.562516 274.465245 153.833349 C 270.965245 151.020849 268.845453 146.776057 268.845453 142.989598 C 268.845453 140.406265 270.277745 138.572931 273.319412 138.572931 C 275.210037 138.572931 277.105871 139.947931 277.105871 143.963557 Z M 395.032962 201.05731 C 394.345462 200.828144 393.657961 200.598977 392.970461 200.598977 C 391.074628 200.598977 389.184003 201.744811 388.262128 203.411477 C 377.18921 227.625021 365.887126 247.13023 349.017334 247.13023 C 344.314208 247.13023 341.444416 243.63023 341.444416 237.260438 C 341.444416 230.432312 344.543375 219.645853 354.178792 192.390643 C 361.928793 170.531267 365.887126 159.687516 367.319418 155.213557 L 386.600669 155.213557 C 389.41317 155.213557 391.532961 153.145849 391.532961 150.276057 C 391.532961 147.692724 389.41317 145.343765 386.600669 145.343765 L 370.819418 145.343765 C 372.486085 140.92189 382.585044 112.234388 381.892336 113.614596 C 383.043377 110.57293 380.746502 107.072929 377.18921 107.072929 C 375.06421 107.072929 373.173585 108.218763 372.486085 110.343763 C 372.256918 111.26043 360.720459 144.427098 360.262126 145.343765 L 342.189208 145.343765 C 339.376708 145.343765 337.256916 147.692724 337.256916 150.276057 C 337.256916 153.145849 339.376708 155.213557 342.189208 155.213557 L 356.991292 155.213557 L 345.001708 188.833351 C 337.486083 208.114603 331.574624 228.541687 331.574624 237.260438 C 331.574624 248.56773 337.715249 257.000022 349.017334 257.000022 C 370.590252 257.000022 383.788169 237.031271 397.387128 207.656269 C 397.616295 206.968769 397.902753 206.218769 397.902753 205.531269 C 397.902753 203.640644 396.699628 202.031269 395.032962 201.05731 Z M 476.163175 86.13022 C 472.83505 79.588553 466.751716 76.031261 459.236091 76.031261 C 440.189215 76.031261 426.76213 100.015637 417.63713 124.22918 L 409.376713 145.85939 L 390.324628 145.85939 C 387.517336 145.85939 385.392336 148.213557 385.392336 150.791682 C 385.392336 153.604182 387.517336 155.729183 390.324628 155.729183 L 405.647546 155.729183 C 391.303795 193.541685 383.782961 217.984395 366.397543 265.953148 C 360.032959 267.557315 353.720459 268.76044 347.809 269.682315 C 319.637123 274.843774 308.105873 285.687524 308.105873 300.494817 C 308.105873 314.322943 317.282956 323.500027 331.340249 323.27086 C 348.267334 323.041693 362.840251 306.343776 374.147544 274.156274 C 408.460046 264.057315 427.965255 242.197938 442.538173 207.885436 C 442.772548 207.197936 443.001715 206.447936 443.001715 205.760436 C 443.001715 203.869811 441.850673 202.260436 439.960048 201.286477 C 439.210048 201.05731 438.522548 200.828144 437.835048 200.828144 C 435.944423 200.828144 434.277756 202.031269 433.361089 203.869811 C 421.595463 231.640646 405.189212 253.213564 378.163169 262.395856 C 401.861087 194.74481 409.147546 174.718767 416.204838 155.729183 L 435.022548 155.729183 C 437.605881 155.729183 439.960048 153.604182 439.960048 150.791682 C 439.960048 148.213557 437.605881 145.85939 435.022548 145.85939 L 419.991297 145.85939 C 422.059005 139.947931 424.694422 133.635431 426.991297 127.958347 C 434.564214 107.989596 446.038173 85.437511 459.694424 86.13022 C 462.277758 86.13022 465.319425 86.875011 467.444425 90.375012 C 468.361091 92.265637 470.02255 93.187512 471.918383 93.187512 C 472.605883 93.187512 473.293383 92.958345 474.043383 92.729178 C 475.64755 91.807303 476.850675 90.145845 476.850675 88.250011 C 476.850675 87.562511 476.621509 86.875011 476.163175 86.13022 Z M 362.611084 276.968774 C 354.866292 300.723984 344.079833 313.171901 331.340249 313.401068 C 323.36629 313.630235 317.970457 308.468776 317.970457 300.260442 C 318.892332 289.416691 328.069416 283.338566 349.704834 279.552107 C 353.949626 278.859399 358.137126 277.942732 362.611084 276.968774 Z M 534.428804 207.427103 C 535.803804 204.098977 533.220471 200.598977 529.72047 200.598977 C 527.829845 200.598977 525.934012 201.744811 525.246512 203.640644 C 517.043386 223.145854 508.777761 232.098979 498.907968 232.098979 C 493.517343 232.098979 489.559009 230.432312 486.975676 227.161479 C 497.762135 208.802103 505.27776 185.791684 505.27776 170.9896 C 505.27776 156.875016 497.303802 146.317724 481.751717 145.85939 C 470.048592 145.85939 458.517341 154.062516 448.647548 170.531267 C 440.902756 183.213559 428.678797 205.989602 428.678797 233.244813 C 428.678797 246.901063 433.845464 257.000022 449.105882 257.000022 C 460.407966 257.000022 472.402758 247.359397 481.064217 235.598979 C 486.230884 239.843771 492.366301 241.968772 498.907968 241.968772 C 513.022553 241.968772 524.100678 231.125021 534.428804 207.427103 Z M 479.918384 200.598977 C 477.564217 200.598977 475.444425 202.031269 474.980884 204.328144 C 473.319425 210.234394 472.861092 220.56252 475.444425 226.703146 C 467.694425 237.718771 457.824632 247.13023 449.105882 247.13023 C 441.590256 247.13023 438.777756 241.276063 438.777756 232.786479 C 438.777756 208.572936 451.230882 185.791684 457.309007 175.697934 C 464.137133 163.932308 472.631925 155.729183 481.522551 155.729183 C 489.559009 155.729183 495.407968 160.890641 495.407968 170.760433 C 495.407968 181.546893 490.93401 197.786477 483.647551 212.359395 C 483.876717 210.697936 483.876717 208.802103 484.621509 206.968769 C 485.538176 203.640644 483.189217 200.598977 479.918384 200.598977 Z M 580.470474 201.05731 C 579.782974 200.828144 579.095474 200.598977 578.350682 200.598977 C 576.51214 200.598977 574.621515 201.744811 573.642348 203.411477 C 562.626723 227.625021 551.324639 247.13023 534.397554 247.13023 C 529.694429 247.13023 526.881929 243.63023 526.881929 237.260438 C 526.881929 233.015646 529.465262 222.458354 534.626721 206.447936 C 541.454846 186.484393 548.282972 167.718767 554.88193 148.901057 L 567.10589 113.151055 C 568.022556 110.57293 566.642348 107.760429 564.006931 106.843763 C 561.423598 106.093763 558.611097 107.302096 557.694431 109.885429 L 545.470471 145.572932 C 538.642346 165.078141 531.585054 184.875018 525.272553 203.411477 C 519.366303 222.00002 517.012136 230.432312 517.012136 237.260438 C 517.012136 248.56773 523.152762 257.000022 534.397554 257.000022 C 556.027764 257.000022 569.225681 237.031271 582.824641 207.656269 C 583.053807 206.968769 583.282974 206.218769 583.282974 205.531269 C 583.282974 203.640644 582.137141 202.031269 580.470474 201.05731 Z M 608.001726 133.864598 C 612.418393 133.864598 615.975684 130.307306 615.975684 125.833347 C 615.975684 121.41668 612.418393 117.859388 608.001726 117.859388 C 603.522559 117.859388 599.7361 121.41668 599.7361 125.833347 C 599.7361 130.307306 603.522559 133.864598 608.001726 133.864598 Z M 623.49131 201.05731 C 622.80381 200.828144 622.345477 200.598977 621.600685 200.598977 C 619.704851 200.598977 617.871518 201.744811 616.892351 203.640644 C 608.230892 222.916687 597.387142 247.13023 582.809016 247.13023 C 577.876724 247.13023 575.751723 244.088563 575.751723 237.260438 C 575.751723 227.161479 580.001724 216.317728 602.835059 152.171891 C 604.215267 148.213557 601.1736 145.85939 598.131933 145.85939 C 596.2361 145.85939 594.345475 147.005224 593.657975 149.130224 C 583.329849 175.927101 566.631931 218.901062 565.887139 237.260438 C 565.423598 248.046897 571.564223 257.000022 582.809016 257.000022 C 602.5486 257.000022 614.772559 233.015646 626.074643 207.656269 C 626.30381 206.968769 626.532977 206.218769 626.532977 205.531269 C 626.532977 203.640644 625.387143 201.744811 623.49131 201.05731 Z M 717.975691 207.427103 C 719.350691 204.098977 716.767358 200.598977 713.267357 200.598977 C 711.376732 200.598977 709.480899 201.744811 708.793399 203.640644 C 700.590273 223.145854 692.324648 232.098979 682.454855 232.098979 C 677.06423 232.098979 673.105897 230.432312 670.522563 227.161479 C 681.309022 208.802103 688.824648 185.791684 688.824648 170.9896 C 688.824648 156.875016 680.850689 146.317724 665.298604 145.85939 C 653.595479 145.85939 642.064228 154.062516 632.194435 170.531267 C 624.449643 183.213559 612.225684 205.989602 612.225684 233.244813 C 612.225684 246.901063 617.392351 257.000022 632.652769 257.000022 C 643.954853 257.000022 655.949645 247.359397 664.611104 235.598979 C 669.777771 239.843771 675.913188 241.968772 682.454855 241.968772 C 696.56944 241.968772 707.647565 231.125021 717.975691 207.427103 Z M 663.465271 200.598977 C 661.111104 200.598977 658.991312 202.031269 658.527771 204.328144 C 656.866312 210.234394 656.407979 220.56252 658.991312 226.703146 C 651.241312 237.718771 641.376728 247.13023 632.652769 247.13023 C 625.137143 247.13023 622.324643 241.276063 622.324643 232.786479 C 622.324643 208.572936 634.777769 185.791684 640.855894 175.697934 C 647.68402 163.932308 656.178812 155.729183 665.069438 155.729183 C 673.105897 155.729183 678.954855 160.890641 678.954855 170.760433 C 678.954855 181.546893 674.480897 197.786477 667.194438 212.359395 C 667.423604 210.697936 667.423604 208.802103 668.168396 206.968769 C 669.085063 203.640644 666.736104 200.598977 663.465271 200.598977 Z M 663.465271 200.598977 " stroke="#000000" stroke-width="7.638443" stroke-opacity="1" stroke-miterlimit="4"/><g clip-path="url(#c590233dba)"><path fill="#000000" d="M 408.398438 265.875 L 819.269531 265.875 L 819.269531 283.125 L 408.398438 283.125 Z M 408.398438 265.875 " fill-opacity="1" fill-rule="nonzero"/></g><g fill="#000000" fill-opacity="1"><g transform="translate(408.397166, 256.874983)"><g><path d="M 78.789062 -37.191406 C 79.847656 -39.660156 77.910156 -42.304688 75.265625 -42.304688 C 73.855469 -42.304688 72.445312 -41.421875 71.917969 -40.011719 C 65.746094 -25.382812 59.578125 -18.683594 52.175781 -18.683594 C 48.121094 -18.683594 45.125 -19.917969 43.183594 -22.386719 C 51.292969 -36.132812 56.933594 -53.410156 56.933594 -64.511719 C 56.933594 -75.089844 50.941406 -83.019531 39.308594 -83.375 C 30.492188 -83.375 21.855469 -77.203125 14.453125 -64.867188 C 8.636719 -55.347656 -0.527344 -38.25 -0.527344 -17.804688 C -0.527344 -7.578125 3.347656 0 14.804688 0 C 23.265625 0 32.257812 -7.226562 38.777344 -16.039062 C 42.65625 -12.867188 47.238281 -11.28125 52.175781 -11.28125 C 62.75 -11.28125 71.035156 -19.390625 78.789062 -37.191406 Z M 37.898438 -42.304688 C 36.132812 -42.304688 34.546875 -41.246094 34.195312 -39.484375 C 32.960938 -35.078125 32.609375 -27.320312 34.546875 -22.738281 C 28.730469 -14.453125 21.328125 -7.402344 14.804688 -7.402344 C 9.164062 -7.402344 7.050781 -11.808594 7.050781 -18.15625 C 7.050781 -36.3125 16.394531 -53.410156 20.976562 -60.988281 C 26.085938 -69.800781 32.433594 -75.96875 39.128906 -75.96875 C 45.125 -75.96875 49.53125 -72.09375 49.53125 -64.6875 C 49.53125 -56.582031 46.179688 -44.417969 40.71875 -33.492188 C 40.894531 -34.722656 40.894531 -36.132812 41.421875 -37.542969 C 42.128906 -40.011719 40.363281 -42.304688 37.898438 -42.304688 Z M 37.898438 -42.304688 "/></g></g></g><g fill="#000000" fill-opacity="1"><g transform="translate(477.315496, 256.874983)"><g><path d="M 72.796875 -41.949219 C 72.269531 -42.128906 71.738281 -42.304688 71.210938 -42.304688 C 69.800781 -42.304688 68.566406 -41.421875 67.863281 -40.011719 C 57.816406 -17.273438 51.117188 -7.402344 42.480469 -7.402344 C 38.601562 -7.402344 37.191406 -10.398438 37.191406 -14.804688 C 37.367188 -17.804688 37.722656 -20.800781 38.777344 -24.5 C 39.835938 -28.90625 48.296875 -54.113281 50.589844 -59.929688 C 51.292969 -62.046875 50.410156 -64.335938 48.472656 -65.042969 C 46.535156 -65.746094 44.242188 -66.453125 41.773438 -67.15625 C 36.664062 -68.917969 30.671875 -70.859375 25.734375 -73.328125 C 27.851562 -80.199219 28.554688 -81.785156 28.554688 -84.605469 C 28.554688 -91.65625 24.675781 -96.242188 18.332031 -96.242188 C 12.691406 -96.242188 7.578125 -92.011719 7.578125 -84.785156 C 7.578125 -78.261719 11.28125 -73.679688 16.570312 -69.976562 L 14.453125 -64.6875 L 0.351562 -34.019531 C 0.175781 -33.492188 0 -32.960938 0 -32.433594 C 0 -31.023438 0.882812 -29.789062 2.113281 -29.082031 C 2.644531 -28.90625 3.171875 -28.730469 3.878906 -28.730469 C 5.113281 -28.730469 6.34375 -29.4375 7.050781 -30.847656 C 21.152344 -61.691406 22.386719 -64.160156 23.089844 -66.277344 C 26.96875 -64.335938 28.90625 -63.632812 42.304688 -59.226562 C 40.71875 -55.347656 32.960938 -31.902344 31.550781 -26.261719 C 30.316406 -21.855469 29.789062 -18.332031 29.789062 -14.804688 C 29.789062 -6.167969 34.019531 0 42.304688 0 L 42.480469 0 C 54.464844 0 63.277344 -10.753906 74.738281 -37.015625 C 74.914062 -37.542969 75.089844 -38.074219 75.089844 -38.601562 C 75.089844 -40.011719 74.207031 -41.246094 72.796875 -41.949219 Z M 21.152344 -84.785156 C 21.152344 -83.019531 20.09375 -79.847656 19.210938 -77.378906 C 16.570312 -79.496094 14.984375 -82.667969 14.984375 -85.488281 C 14.984375 -87.425781 16.039062 -88.835938 18.332031 -88.835938 C 19.742188 -88.835938 21.152344 -87.78125 21.152344 -84.785156 Z M 21.152344 -84.785156 "/></g></g></g><g fill="#000000" fill-opacity="1"><g transform="translate(542.179802, 256.874983)"><g><path d="M 44.769531 -41.949219 C 44.242188 -42.128906 43.714844 -42.304688 43.183594 -42.304688 C 41.773438 -42.304688 40.363281 -41.421875 39.660156 -40.1875 C 31.375 -22.03125 22.914062 -7.402344 10.222656 -7.402344 C 6.699219 -7.402344 4.582031 -10.046875 4.582031 -14.804688 C 4.582031 -19.917969 6.875 -28.027344 14.101562 -48.472656 C 19.917969 -64.867188 22.914062 -72.972656 23.972656 -76.324219 L 38.425781 -76.324219 C 40.539062 -76.324219 42.128906 -77.910156 42.128906 -80.023438 C 42.128906 -81.964844 40.539062 -83.726562 38.425781 -83.726562 L 26.617188 -83.726562 C 27.851562 -87.074219 35.429688 -108.578125 34.902344 -107.523438 C 35.78125 -109.8125 34.019531 -112.457031 31.375 -112.457031 C 29.789062 -112.457031 28.378906 -111.574219 27.851562 -109.988281 C 27.671875 -109.285156 19.035156 -84.429688 18.683594 -83.726562 L 5.113281 -83.726562 C 2.996094 -83.726562 1.410156 -81.964844 1.410156 -80.023438 C 1.410156 -77.910156 2.996094 -76.324219 5.113281 -76.324219 L 16.214844 -76.324219 L 7.226562 -51.117188 C 1.585938 -36.664062 -2.820312 -21.328125 -2.820312 -14.804688 C -2.820312 -6.34375 1.761719 0 10.222656 0 C 26.441406 0 36.3125 -14.984375 46.535156 -37.015625 C 46.710938 -37.542969 46.886719 -38.074219 46.886719 -38.601562 C 46.886719 -40.011719 46.003906 -41.246094 44.769531 -41.949219 Z M 44.769531 -41.949219 "/></g></g></g><g fill="#000000" fill-opacity="1"><g transform="translate(578.842241, 256.874983)"><g><path d="M 68.917969 -128.144531 C 66.453125 -133.078125 61.867188 -135.722656 56.230469 -135.722656 C 41.949219 -135.722656 31.902344 -117.746094 25.03125 -99.589844 L 18.859375 -83.375 L 4.582031 -83.375 C 2.46875 -83.375 0.882812 -81.609375 0.882812 -79.671875 C 0.882812 -77.554688 2.46875 -75.96875 4.582031 -75.96875 L 16.039062 -75.96875 C 5.289062 -47.589844 -0.351562 -29.261719 -13.394531 6.699219 C -18.15625 7.933594 -22.914062 8.8125 -27.320312 9.519531 C -48.472656 13.394531 -57.109375 21.503906 -57.109375 32.609375 C -57.109375 43.007812 -50.234375 49.882812 -39.660156 49.707031 C -26.96875 49.53125 -16.039062 37.015625 -7.578125 12.867188 C 18.15625 5.289062 32.785156 -11.105469 43.714844 -36.839844 C 43.890625 -37.367188 44.066406 -37.898438 44.066406 -38.425781 C 44.066406 -39.835938 43.183594 -41.070312 41.773438 -41.773438 C 41.246094 -41.949219 40.71875 -42.128906 40.1875 -42.128906 C 38.777344 -42.128906 37.542969 -41.246094 36.839844 -39.835938 C 28.027344 -19.035156 15.6875 -2.820312 -4.582031 4.054688 C 13.21875 -46.710938 18.683594 -61.691406 23.972656 -75.96875 L 38.074219 -75.96875 C 40.011719 -75.96875 41.773438 -77.554688 41.773438 -79.671875 C 41.773438 -81.609375 40.011719 -83.375 38.074219 -83.375 L 26.792969 -83.375 C 28.378906 -87.78125 30.316406 -92.539062 32.082031 -96.769531 C 37.722656 -111.753906 46.359375 -128.671875 56.582031 -128.144531 C 58.519531 -128.144531 60.8125 -127.617188 62.398438 -124.972656 C 63.101562 -123.5625 64.335938 -122.855469 65.746094 -122.855469 C 66.277344 -122.855469 66.804688 -123.03125 67.332031 -123.210938 C 68.566406 -123.914062 69.449219 -125.148438 69.449219 -126.558594 C 69.449219 -127.085938 69.273438 -127.617188 68.917969 -128.144531 Z M -16.214844 14.984375 C -22.03125 32.785156 -30.140625 42.128906 -39.660156 42.304688 C -45.652344 42.480469 -49.707031 38.601562 -49.707031 32.433594 C -49 24.324219 -42.128906 19.742188 -25.910156 16.921875 C -22.738281 16.394531 -19.566406 15.6875 -16.214844 14.984375 Z M -16.214844 14.984375 "/></g></g></g><g fill="#000000" fill-opacity="1"><g transform="translate(612.68449, 256.874983)"><g><path d="M 78.789062 -37.191406 C 79.847656 -39.660156 77.910156 -42.304688 75.265625 -42.304688 C 73.855469 -42.304688 72.445312 -41.421875 71.917969 -40.011719 C 65.746094 -25.382812 59.578125 -18.683594 52.175781 -18.683594 C 48.121094 -18.683594 45.125 -19.917969 43.183594 -22.386719 C 51.292969 -36.132812 56.933594 -53.410156 56.933594 -64.511719 C 56.933594 -75.089844 50.941406 -83.019531 39.308594 -83.375 C 30.492188 -83.375 21.855469 -77.203125 14.453125 -64.867188 C 8.636719 -55.347656 -0.527344 -38.25 -0.527344 -17.804688 C -0.527344 -7.578125 3.347656 0 14.804688 0 C 23.265625 0 32.257812 -7.226562 38.777344 -16.039062 C 42.65625 -12.867188 47.238281 -11.28125 52.175781 -11.28125 C 62.75 -11.28125 71.035156 -19.390625 78.789062 -37.191406 Z M 37.898438 -42.304688 C 36.132812 -42.304688 34.546875 -41.246094 34.195312 -39.484375 C 32.960938 -35.078125 32.609375 -27.320312 34.546875 -22.738281 C 28.730469 -14.453125 21.328125 -7.402344 14.804688 -7.402344 C 9.164062 -7.402344 7.050781 -11.808594 7.050781 -18.15625 C 7.050781 -36.3125 16.394531 -53.410156 20.976562 -60.988281 C 26.085938 -69.800781 32.433594 -75.96875 39.128906 -75.96875 C 45.125 -75.96875 49.53125 -72.09375 49.53125 -64.6875 C 49.53125 -56.582031 46.179688 -44.417969 40.71875 -33.492188 C 40.894531 -34.722656 40.894531 -36.132812 41.421875 -37.542969 C 42.128906 -40.011719 40.363281 -42.304688 37.898438 -42.304688 Z M 37.898438 -42.304688 "/></g></g></g><g fill="#000000" fill-opacity="1"><g transform="translate(681.60282, 256.874983)"><g><path d="M 44.417969 -41.949219 C 43.890625 -42.128906 43.359375 -42.304688 42.832031 -42.304688 C 41.421875 -42.304688 40.011719 -41.421875 39.308594 -40.1875 C 31.023438 -22.03125 22.5625 -7.402344 9.871094 -7.402344 C 6.34375 -7.402344 4.230469 -10.046875 4.230469 -14.804688 C 4.230469 -17.980469 6.167969 -25.910156 10.046875 -37.898438 C 15.160156 -52.878906 20.269531 -66.980469 25.207031 -81.082031 L 34.371094 -107.875 C 35.078125 -109.8125 34.019531 -111.929688 32.082031 -112.632812 C 30.140625 -113.164062 28.027344 -112.28125 27.320312 -110.34375 L 18.15625 -83.550781 C 13.042969 -68.917969 7.753906 -54.113281 2.996094 -40.1875 C -1.410156 -26.261719 -3.171875 -19.917969 -3.171875 -14.804688 C -3.171875 -6.34375 1.410156 0 9.871094 0 C 26.085938 0 35.957031 -14.984375 46.179688 -37.015625 C 46.359375 -37.542969 46.535156 -38.074219 46.535156 -38.601562 C 46.535156 -40.011719 45.652344 -41.246094 44.417969 -41.949219 Z M 44.417969 -41.949219 "/></g></g></g><g fill="#000000" fill-opacity="1"><g transform="translate(717.912724, 256.874983)"><g><path d="M 28.730469 -92.363281 C 32.082031 -92.363281 34.722656 -95.007812 34.722656 -98.355469 C 34.722656 -101.703125 32.082031 -104.347656 28.730469 -104.347656 C 25.382812 -104.347656 22.5625 -101.703125 22.5625 -98.355469 C 22.5625 -95.007812 25.382812 -92.363281 28.730469 -92.363281 Z M 40.363281 -41.949219 C 39.835938 -42.128906 39.484375 -42.304688 38.953125 -42.304688 C 37.542969 -42.304688 36.132812 -41.421875 35.429688 -40.011719 C 28.90625 -25.558594 20.800781 -7.402344 9.871094 -7.402344 C 6.167969 -7.402344 4.582031 -9.695312 4.582031 -14.804688 C 4.582031 -22.386719 7.753906 -30.492188 24.851562 -78.613281 C 25.910156 -81.609375 23.621094 -83.375 21.328125 -83.375 C 19.917969 -83.375 18.507812 -82.492188 17.980469 -80.90625 C 10.222656 -60.8125 -2.292969 -28.554688 -2.820312 -14.804688 C -3.171875 -6.699219 1.410156 0 9.871094 0 C 24.675781 0 33.84375 -17.980469 42.304688 -37.015625 C 42.480469 -37.542969 42.65625 -38.074219 42.65625 -38.601562 C 42.65625 -40.011719 41.773438 -41.421875 40.363281 -41.949219 Z M 40.363281 -41.949219 "/></g></g></g><g fill="#000000" fill-opacity="1"><g transform="translate(750.344866, 256.874983)"><g><path d="M 78.789062 -37.191406 C 79.847656 -39.660156 77.910156 -42.304688 75.265625 -42.304688 C 73.855469 -42.304688 72.445312 -41.421875 71.917969 -40.011719 C 65.746094 -25.382812 59.578125 -18.683594 52.175781 -18.683594 C 48.121094 -18.683594 45.125 -19.917969 43.183594 -22.386719 C 51.292969 -36.132812 56.933594 -53.410156 56.933594 -64.511719 C 56.933594 -75.089844 50.941406 -83.019531 39.308594 -83.375 C 30.492188 -83.375 21.855469 -77.203125 14.453125 -64.867188 C 8.636719 -55.347656 -0.527344 -38.25 -0.527344 -17.804688 C -0.527344 -7.578125 3.347656 0 14.804688 0 C 23.265625 0 32.257812 -7.226562 38.777344 -16.039062 C 42.65625 -12.867188 47.238281 -11.28125 52.175781 -11.28125 C 62.75 -11.28125 71.035156 -19.390625 78.789062 -37.191406 Z M 37.898438 -42.304688 C 36.132812 -42.304688 34.546875 -41.246094 34.195312 -39.484375 C 32.960938 -35.078125 32.609375 -27.320312 34.546875 -22.738281 C 28.730469 -14.453125 21.328125 -7.402344 14.804688 -7.402344 C 9.164062 -7.402344 7.050781 -11.808594 7.050781 -18.15625 C 7.050781 -36.3125 16.394531 -53.410156 20.976562 -60.988281 C 26.085938 -69.800781 32.433594 -75.96875 39.128906 -75.96875 C 45.125 -75.96875 49.53125 -72.09375 49.53125 -64.6875 C 49.53125 -56.582031 46.179688 -44.417969 40.71875 -33.492188 C 40.894531 -34.722656 40.894531 -36.132812 41.421875 -37.542969 C 42.128906 -40.011719 40.363281 -42.304688 37.898438 -42.304688 Z M 37.898438 -42.304688 "/></g></g></g><path stroke-linecap="butt" transform="matrix(2.583998, 0, 0, 2.583998, 198.648956, -81.704731)" fill="none" stroke-linejoin="miter" d="M 116.798874 60.213452 C 116.798874 46.397955 105.867715 36.949782 90.569233 36.949782 C 67.415918 36.949782 54.478723 55.379011 54.478723 79.356207 C 54.478723 80.592784 55.46738 81.719006 56.841522 81.719006 C 58.186942 81.719006 59.202809 80.592784 59.202809 79.356207 C 59.202809 58.647323 70.106757 41.784223 89.443011 41.784223 C 102.626614 41.784223 112.074787 47.964084 112.074787 60.213452 C 112.074787 72.819583 103.506428 86.332738 90.569233 86.332738 C 87.657684 86.332738 84.499727 85.646423 81.340258 84.520201 C 81.010705 84.409846 80.791508 84.409846 80.461955 84.409846 C 79.335733 84.409846 78.209511 85.206516 78.209511 86.662291 C 78.209511 87.67967 78.759772 88.585183 79.77564 88.914735 C 83.26315 90.260155 86.752171 91.056825 90.239681 91.056825 C 106.115636 91.056825 116.798874 76.19825 116.798874 60.213452 Z M 87.657684 54.609552 C 89.003104 52.248264 91.585101 48.979952 94.523861 48.6504 C 95.54124 48.40248 96.776305 47.634532 96.529897 45.820483 C 96.419542 44.694261 95.182965 43.926313 94.056743 43.926313 C 90.569233 43.926313 85.625949 48.072927 83.483859 52.467462 C 80.214035 58.757678 77.412841 68.316206 74.365238 78.561049 C 67.167998 103.086995 60.658584 125.142811 45.580811 125.142811 C 39.290595 125.142811 33.989036 121.077829 33.989036 114.238863 C 33.989036 107.702239 39.290595 100.725708 45.470456 100.725708 C 46.129561 100.725708 46.815876 100.725708 47.366138 100.944905 C 48.849123 101.412023 50.413741 100.285801 50.413741 98.692461 C 50.413741 96.550371 48.052453 96.001621 45.689654 96.001621 C 36.791742 96.001621 29.264949 104.54277 29.264949 114.458061 C 29.264949 123.549471 36.241481 129.866898 45.470456 129.866898 C 65.273828 129.866898 72.579911 101.631221 78.97897 79.796114 C 81.807375 69.908034 84.60857 60.570215 87.657684 54.609552 Z M 87.657684 54.609552 " stroke="#000000" stroke-width="3.656445" stroke-opacity="1" stroke-miterlimit="4"/><g fill="#000000" fill-opacity="1"><g transform="translate(274.271277, 236.127043)"><g><path d="M 226.164062 -162.210938 C 226.164062 -197.964844 197.964844 -222.386719 158.429688 -222.386719 C 98.546875 -222.386719 65.117188 -174.710938 65.117188 -112.792969 C 65.117188 -109.59375 67.734375 -106.6875 71.222656 -106.6875 C 74.710938 -106.6875 77.324219 -109.59375 77.324219 -112.792969 C 77.324219 -166.28125 105.523438 -209.886719 155.523438 -209.886719 C 189.535156 -209.886719 213.953125 -193.898438 213.953125 -162.210938 C 213.953125 -129.652344 191.863281 -94.769531 158.429688 -94.769531 C 150.875 -94.769531 142.734375 -96.511719 134.59375 -99.417969 C 133.722656 -99.710938 133.140625 -99.710938 132.269531 -99.710938 C 129.363281 -99.710938 126.453125 -97.675781 126.453125 -93.894531 C 126.453125 -91.28125 127.90625 -88.953125 130.523438 -88.082031 C 139.535156 -84.59375 148.546875 -82.558594 157.558594 -82.558594 C 198.546875 -82.558594 226.164062 -120.929688 226.164062 -162.210938 Z M 150.875 -176.746094 C 154.363281 -182.851562 161.046875 -191.28125 168.605469 -192.152344 C 171.222656 -192.734375 174.417969 -194.769531 173.839844 -199.421875 C 173.546875 -202.328125 170.351562 -204.363281 167.441406 -204.363281 C 158.429688 -204.363281 145.640625 -193.605469 140.117188 -182.269531 C 131.6875 -165.988281 124.417969 -141.28125 116.570312 -114.828125 C 97.964844 -51.453125 81.105469 5.523438 42.152344 5.523438 C 25.871094 5.523438 12.210938 -4.941406 12.210938 -22.675781 C 12.210938 -39.535156 25.871094 -57.558594 41.859375 -57.558594 C 43.605469 -57.558594 45.347656 -57.558594 46.800781 -56.976562 C 50.582031 -55.8125 54.652344 -58.722656 54.652344 -62.792969 C 54.652344 -68.316406 48.546875 -69.769531 42.441406 -69.769531 C 19.476562 -69.769531 0 -47.675781 0 -22.09375 C 0 1.453125 18.023438 17.734375 41.859375 17.734375 C 93.023438 17.734375 111.917969 -55.234375 128.488281 -111.628906 C 135.757812 -137.210938 143.023438 -161.339844 150.875 -176.746094 Z M 150.875 -176.746094 "/></g></g></g></svg>