<svg xmlns="http://www.w3.org/2000/svg" xmlns:xlink="http://www.w3.org/1999/xlink" width="1500" zoomAndPan="magnify" viewBox="0 0 1125 374.999991" height="500" preserveAspectRatio="xMidYMid meet" version="1.0"><defs><filter x="0%" y="0%" width="100%" height="100%" id="4a903f23b2"><feColorMatrix values="0 0 0 0 1 0 0 0 0 1 0 0 0 0 1 0 0 0 1 0" color-interpolation-filters="sRGB"/></filter><g/><mask id="b484e493fc"><g filter="url(#4a903f23b2)"><rect x="-112.5" width="1350" fill="#000000" y="-37.499999" height="449.999989" fill-opacity="0.2"/></g></mask><clipPath id="a1b2b1bd4c"><path d="M 0.238281 0.078125 L 837 0.078125 L 837 246.75 L 0.238281 246.75 Z M 0.238281 0.078125 " clip-rule="nonzero"/></clipPath><clipPath id="2d12285184"><path d="M 29.589844 0.25 L 807.410156 0.25 C 815.164062 0.25 822.597656 3.328125 828.082031 8.8125 C 833.5625 14.292969 836.640625 21.726562 836.640625 29.480469 L 836.640625 217.519531 C 836.640625 225.273438 833.5625 232.707031 828.082031 238.1875 C 822.597656 243.671875 815.164062 246.75 807.410156 246.75 L 29.589844 246.75 C 21.835938 246.75 14.402344 243.671875 8.917969 238.1875 C 3.4375 232.707031 0.359375 225.273438 0.359375 217.519531 L 0.359375 29.480469 C 0.359375 21.726562 3.4375 14.292969 8.917969 8.8125 C 14.402344 3.328125 21.835938 0.25 29.589844 0.25 Z M 29.589844 0.25 " clip-rule="nonzero"/></clipPath><clipPath id="6e5631b583"><rect x="0" width="838" y="0" height="247"/></clipPath></defs><g mask="url(#b484e493fc)"><g transform="matrix(1, 0, 0, 1, 144, 64)"><g clip-path="url(#6e5631b583)"><g clip-path="url(#a1b2b1bd4c)"><g clip-path="url(#2d12285184)"><path fill="#f05f1b" d="M 0.359375 0.25 L 837.113281 0.25 L 837.113281 246.75 L 0.359375 246.75 Z M 0.359375 0.25 " fill-opacity="1" fill-rule="nonzero"/></g></g></g></g></g><g fill="#eb5e28" fill-opacity="1"><g transform="translate(416.187349, 264.665169)"><g><path d="M 78.789062 -37.191406 C 79.847656 -39.660156 77.910156 -42.304688 75.265625 -42.304688 C 73.855469 -42.304688 72.445312 -41.421875 71.917969 -40.011719 C 65.746094 -25.382812 59.578125 -18.683594 52.175781 -18.683594 C 48.121094 -18.683594 45.125 -19.917969 43.183594 -22.386719 C 51.292969 -36.132812 56.933594 -53.410156 56.933594 -64.511719 C 56.933594 -75.089844 50.941406 -83.019531 39.308594 -83.375 C 30.492188 -83.375 21.855469 -77.203125 14.453125 -64.867188 C 8.636719 -55.347656 -0.527344 -38.25 -0.527344 -17.804688 C -0.527344 -7.578125 3.347656 0 14.804688 0 C 23.265625 0 32.257812 -7.226562 38.777344 -16.039062 C 42.65625 -12.867188 47.238281 -11.28125 52.175781 -11.28125 C 62.75 -11.28125 71.035156 -19.390625 78.789062 -37.191406 Z M 37.898438 -42.304688 C 36.132812 -42.304688 34.546875 -41.246094 34.195312 -39.484375 C 32.960938 -35.078125 32.609375 -27.320312 34.546875 -22.738281 C 28.730469 -14.453125 21.328125 -7.402344 14.804688 -7.402344 C 9.164062 -7.402344 7.050781 -11.808594 7.050781 -18.15625 C 7.050781 -36.3125 16.394531 -53.410156 20.976562 -60.988281 C 26.085938 -69.800781 32.433594 -75.96875 39.128906 -75.96875 C 45.125 -75.96875 49.53125 -72.09375 49.53125 -64.6875 C 49.53125 -56.582031 46.179688 -44.417969 40.71875 -33.492188 C 40.894531 -34.722656 40.894531 -36.132812 41.421875 -37.542969 C 42.128906 -40.011719 40.363281 -42.304688 37.898438 -42.304688 Z M 37.898438 -42.304688 "/></g></g></g><g fill="#eb5e28" fill-opacity="1"><g transform="translate(485.105679, 264.665169)"><g><path d="M 72.796875 -41.949219 C 72.269531 -42.128906 71.738281 -42.304688 71.210938 -42.304688 C 69.800781 -42.304688 68.566406 -41.421875 67.863281 -40.011719 C 57.816406 -17.273438 51.117188 -7.402344 42.480469 -7.402344 C 38.601562 -7.402344 37.191406 -10.398438 37.191406 -14.804688 C 37.367188 -17.804688 37.722656 -20.800781 38.777344 -24.5 C 39.835938 -28.90625 48.296875 -54.113281 50.589844 -59.929688 C 51.292969 -62.046875 50.410156 -64.335938 48.472656 -65.042969 C 46.535156 -65.746094 44.242188 -66.453125 41.773438 -67.15625 C 36.664062 -68.917969 30.671875 -70.859375 25.734375 -73.328125 C 27.851562 -80.199219 28.554688 -81.785156 28.554688 -84.605469 C 28.554688 -91.65625 24.675781 -96.242188 18.332031 -96.242188 C 12.691406 -96.242188 7.578125 -92.011719 7.578125 -84.785156 C 7.578125 -78.261719 11.28125 -73.679688 16.570312 -69.976562 L 14.453125 -64.6875 L 0.351562 -34.019531 C 0.175781 -33.492188 0 -32.960938 0 -32.433594 C 0 -31.023438 0.882812 -29.789062 2.113281 -29.082031 C 2.644531 -28.90625 3.171875 -28.730469 3.878906 -28.730469 C 5.113281 -28.730469 6.34375 -29.4375 7.050781 -30.847656 C 21.152344 -61.691406 22.386719 -64.160156 23.089844 -66.277344 C 26.96875 -64.335938 28.90625 -63.632812 42.304688 -59.226562 C 40.71875 -55.347656 32.960938 -31.902344 31.550781 -26.261719 C 30.316406 -21.855469 29.789062 -18.332031 29.789062 -14.804688 C 29.789062 -6.167969 34.019531 0 42.304688 0 L 42.480469 0 C 54.464844 0 63.277344 -10.753906 74.738281 -37.015625 C 74.914062 -37.542969 75.089844 -38.074219 75.089844 -38.601562 C 75.089844 -40.011719 74.207031 -41.246094 72.796875 -41.949219 Z M 21.152344 -84.785156 C 21.152344 -83.019531 20.09375 -79.847656 19.210938 -77.378906 C 16.570312 -79.496094 14.984375 -82.667969 14.984375 -85.488281 C 14.984375 -87.425781 16.039062 -88.835938 18.332031 -88.835938 C 19.742188 -88.835938 21.152344 -87.78125 21.152344 -84.785156 Z M 21.152344 -84.785156 "/></g></g></g><g fill="#eb5e28" fill-opacity="1"><g transform="translate(549.969986, 264.665169)"><g><path d="M 44.769531 -41.949219 C 44.242188 -42.128906 43.714844 -42.304688 43.183594 -42.304688 C 41.773438 -42.304688 40.363281 -41.421875 39.660156 -40.1875 C 31.375 -22.03125 22.914062 -7.402344 10.222656 -7.402344 C 6.699219 -7.402344 4.582031 -10.046875 4.582031 -14.804688 C 4.582031 -19.917969 6.875 -28.027344 14.101562 -48.472656 C 19.917969 -64.867188 22.914062 -72.972656 23.972656 -76.324219 L 38.425781 -76.324219 C 40.539062 -76.324219 42.128906 -77.910156 42.128906 -80.023438 C 42.128906 -81.964844 40.539062 -83.726562 38.425781 -83.726562 L 26.617188 -83.726562 C 27.851562 -87.074219 35.429688 -108.578125 34.902344 -107.523438 C 35.78125 -109.8125 34.019531 -112.457031 31.375 -112.457031 C 29.789062 -112.457031 28.378906 -111.574219 27.851562 -109.988281 C 27.671875 -109.285156 19.035156 -84.429688 18.683594 -83.726562 L 5.113281 -83.726562 C 2.996094 -83.726562 1.410156 -81.964844 1.410156 -80.023438 C 1.410156 -77.910156 2.996094 -76.324219 5.113281 -76.324219 L 16.214844 -76.324219 L 7.226562 -51.117188 C 1.585938 -36.664062 -2.820312 -21.328125 -2.820312 -14.804688 C -2.820312 -6.34375 1.761719 0 10.222656 0 C 26.441406 0 36.3125 -14.984375 46.535156 -37.015625 C 46.710938 -37.542969 46.886719 -38.074219 46.886719 -38.601562 C 46.886719 -40.011719 46.003906 -41.246094 44.769531 -41.949219 Z M 44.769531 -41.949219 "/></g></g></g><g fill="#eb5e28" fill-opacity="1"><g transform="translate(586.632425, 264.665169)"><g><path d="M 68.917969 -128.144531 C 66.453125 -133.078125 61.867188 -135.722656 56.230469 -135.722656 C 41.949219 -135.722656 31.902344 -117.746094 25.03125 -99.589844 L 18.859375 -83.375 L 4.582031 -83.375 C 2.46875 -83.375 0.882812 -81.609375 0.882812 -79.671875 C 0.882812 -77.554688 2.46875 -75.96875 4.582031 -75.96875 L 16.039062 -75.96875 C 5.289062 -47.589844 -0.351562 -29.261719 -13.394531 6.699219 C -18.15625 7.933594 -22.914062 8.8125 -27.320312 9.519531 C -48.472656 13.394531 -57.109375 21.503906 -57.109375 32.609375 C -57.109375 43.007812 -50.234375 49.882812 -39.660156 49.707031 C -26.96875 49.53125 -16.039062 37.015625 -7.578125 12.867188 C 18.15625 5.289062 32.785156 -11.105469 43.714844 -36.839844 C 43.890625 -37.367188 44.066406 -37.898438 44.066406 -38.425781 C 44.066406 -39.835938 43.183594 -41.070312 41.773438 -41.773438 C 41.246094 -41.949219 40.71875 -42.128906 40.1875 -42.128906 C 38.777344 -42.128906 37.542969 -41.246094 36.839844 -39.835938 C 28.027344 -19.035156 15.6875 -2.820312 -4.582031 4.054688 C 13.21875 -46.710938 18.683594 -61.691406 23.972656 -75.96875 L 38.074219 -75.96875 C 40.011719 -75.96875 41.773438 -77.554688 41.773438 -79.671875 C 41.773438 -81.609375 40.011719 -83.375 38.074219 -83.375 L 26.792969 -83.375 C 28.378906 -87.78125 30.316406 -92.539062 32.082031 -96.769531 C 37.722656 -111.753906 46.359375 -128.671875 56.582031 -128.144531 C 58.519531 -128.144531 60.8125 -127.617188 62.398438 -124.972656 C 63.101562 -123.5625 64.335938 -122.855469 65.746094 -122.855469 C 66.277344 -122.855469 66.804688 -123.03125 67.332031 -123.210938 C 68.566406 -123.914062 69.449219 -125.148438 69.449219 -126.558594 C 69.449219 -127.085938 69.273438 -127.617188 68.917969 -128.144531 Z M -16.214844 14.984375 C -22.03125 32.785156 -30.140625 42.128906 -39.660156 42.304688 C -45.652344 42.480469 -49.707031 38.601562 -49.707031 32.433594 C -49 24.324219 -42.128906 19.742188 -25.910156 16.921875 C -22.738281 16.394531 -19.566406 15.6875 -16.214844 14.984375 Z M -16.214844 14.984375 "/></g></g></g><g fill="#eb5e28" fill-opacity="1"><g transform="translate(620.474673, 264.665169)"><g><path d="M 78.789062 -37.191406 C 79.847656 -39.660156 77.910156 -42.304688 75.265625 -42.304688 C 73.855469 -42.304688 72.445312 -41.421875 71.917969 -40.011719 C 65.746094 -25.382812 59.578125 -18.683594 52.175781 -18.683594 C 48.121094 -18.683594 45.125 -19.917969 43.183594 -22.386719 C 51.292969 -36.132812 56.933594 -53.410156 56.933594 -64.511719 C 56.933594 -75.089844 50.941406 -83.019531 39.308594 -83.375 C 30.492188 -83.375 21.855469 -77.203125 14.453125 -64.867188 C 8.636719 -55.347656 -0.527344 -38.25 -0.527344 -17.804688 C -0.527344 -7.578125 3.347656 0 14.804688 0 C 23.265625 0 32.257812 -7.226562 38.777344 -16.039062 C 42.65625 -12.867188 47.238281 -11.28125 52.175781 -11.28125 C 62.75 -11.28125 71.035156 -19.390625 78.789062 -37.191406 Z M 37.898438 -42.304688 C 36.132812 -42.304688 34.546875 -41.246094 34.195312 -39.484375 C 32.960938 -35.078125 32.609375 -27.320312 34.546875 -22.738281 C 28.730469 -14.453125 21.328125 -7.402344 14.804688 -7.402344 C 9.164062 -7.402344 7.050781 -11.808594 7.050781 -18.15625 C 7.050781 -36.3125 16.394531 -53.410156 20.976562 -60.988281 C 26.085938 -69.800781 32.433594 -75.96875 39.128906 -75.96875 C 45.125 -75.96875 49.53125 -72.09375 49.53125 -64.6875 C 49.53125 -56.582031 46.179688 -44.417969 40.71875 -33.492188 C 40.894531 -34.722656 40.894531 -36.132812 41.421875 -37.542969 C 42.128906 -40.011719 40.363281 -42.304688 37.898438 -42.304688 Z M 37.898438 -42.304688 "/></g></g></g><g fill="#eb5e28" fill-opacity="1"><g transform="translate(689.393004, 264.665169)"><g><path d="M 44.417969 -41.949219 C 43.890625 -42.128906 43.359375 -42.304688 42.832031 -42.304688 C 41.421875 -42.304688 40.011719 -41.421875 39.308594 -40.1875 C 31.023438 -22.03125 22.5625 -7.402344 9.871094 -7.402344 C 6.34375 -7.402344 4.230469 -10.046875 4.230469 -14.804688 C 4.230469 -17.980469 6.167969 -25.910156 10.046875 -37.898438 C 15.160156 -52.878906 20.269531 -66.980469 25.207031 -81.082031 L 34.371094 -107.875 C 35.078125 -109.8125 34.019531 -111.929688 32.082031 -112.632812 C 30.140625 -113.164062 28.027344 -112.28125 27.320312 -110.34375 L 18.15625 -83.550781 C 13.042969 -68.917969 7.753906 -54.113281 2.996094 -40.1875 C -1.410156 -26.261719 -3.171875 -19.917969 -3.171875 -14.804688 C -3.171875 -6.34375 1.410156 0 9.871094 0 C 26.085938 0 35.957031 -14.984375 46.179688 -37.015625 C 46.359375 -37.542969 46.535156 -38.074219 46.535156 -38.601562 C 46.535156 -40.011719 45.652344 -41.246094 44.417969 -41.949219 Z M 44.417969 -41.949219 "/></g></g></g><g fill="#eb5e28" fill-opacity="1"><g transform="translate(725.702907, 264.665169)"><g><path d="M 28.730469 -92.363281 C 32.082031 -92.363281 34.722656 -95.007812 34.722656 -98.355469 C 34.722656 -101.703125 32.082031 -104.347656 28.730469 -104.347656 C 25.382812 -104.347656 22.5625 -101.703125 22.5625 -98.355469 C 22.5625 -95.007812 25.382812 -92.363281 28.730469 -92.363281 Z M 40.363281 -41.949219 C 39.835938 -42.128906 39.484375 -42.304688 38.953125 -42.304688 C 37.542969 -42.304688 36.132812 -41.421875 35.429688 -40.011719 C 28.90625 -25.558594 20.800781 -7.402344 9.871094 -7.402344 C 6.167969 -7.402344 4.582031 -9.695312 4.582031 -14.804688 C 4.582031 -22.386719 7.753906 -30.492188 24.851562 -78.613281 C 25.910156 -81.609375 23.621094 -83.375 21.328125 -83.375 C 19.917969 -83.375 18.507812 -82.492188 17.980469 -80.90625 C 10.222656 -60.8125 -2.292969 -28.554688 -2.820312 -14.804688 C -3.171875 -6.699219 1.410156 0 9.871094 0 C 24.675781 0 33.84375 -17.980469 42.304688 -37.015625 C 42.480469 -37.542969 42.65625 -38.074219 42.65625 -38.601562 C 42.65625 -40.011719 41.773438 -41.421875 40.363281 -41.949219 Z M 40.363281 -41.949219 "/></g></g></g><g fill="#eb5e28" fill-opacity="1"><g transform="translate(758.135049, 264.665169)"><g><path d="M 78.789062 -37.191406 C 79.847656 -39.660156 77.910156 -42.304688 75.265625 -42.304688 C 73.855469 -42.304688 72.445312 -41.421875 71.917969 -40.011719 C 65.746094 -25.382812 59.578125 -18.683594 52.175781 -18.683594 C 48.121094 -18.683594 45.125 -19.917969 43.183594 -22.386719 C 51.292969 -36.132812 56.933594 -53.410156 56.933594 -64.511719 C 56.933594 -75.089844 50.941406 -83.019531 39.308594 -83.375 C 30.492188 -83.375 21.855469 -77.203125 14.453125 -64.867188 C 8.636719 -55.347656 -0.527344 -38.25 -0.527344 -17.804688 C -0.527344 -7.578125 3.347656 0 14.804688 0 C 23.265625 0 32.257812 -7.226562 38.777344 -16.039062 C 42.65625 -12.867188 47.238281 -11.28125 52.175781 -11.28125 C 62.75 -11.28125 71.035156 -19.390625 78.789062 -37.191406 Z M 37.898438 -42.304688 C 36.132812 -42.304688 34.546875 -41.246094 34.195312 -39.484375 C 32.960938 -35.078125 32.609375 -27.320312 34.546875 -22.738281 C 28.730469 -14.453125 21.328125 -7.402344 14.804688 -7.402344 C 9.164062 -7.402344 7.050781 -11.808594 7.050781 -18.15625 C 7.050781 -36.3125 16.394531 -53.410156 20.976562 -60.988281 C 26.085938 -69.800781 32.433594 -75.96875 39.128906 -75.96875 C 45.125 -75.96875 49.53125 -72.09375 49.53125 -64.6875 C 49.53125 -56.582031 46.179688 -44.417969 40.71875 -33.492188 C 40.894531 -34.722656 40.894531 -36.132812 41.421875 -37.542969 C 42.128906 -40.011719 40.363281 -42.304688 37.898438 -42.304688 Z M 37.898438 -42.304688 "/></g></g></g><g fill="#000000" fill-opacity="1"><g transform="translate(408.397166, 256.874983)"><g><path d="M 78.789062 -37.191406 C 79.847656 -39.660156 77.910156 -42.304688 75.265625 -42.304688 C 73.855469 -42.304688 72.445312 -41.421875 71.917969 -40.011719 C 65.746094 -25.382812 59.578125 -18.683594 52.175781 -18.683594 C 48.121094 -18.683594 45.125 -19.917969 43.183594 -22.386719 C 51.292969 -36.132812 56.933594 -53.410156 56.933594 -64.511719 C 56.933594 -75.089844 50.941406 -83.019531 39.308594 -83.375 C 30.492188 -83.375 21.855469 -77.203125 14.453125 -64.867188 C 8.636719 -55.347656 -0.527344 -38.25 -0.527344 -17.804688 C -0.527344 -7.578125 3.347656 0 14.804688 0 C 23.265625 0 32.257812 -7.226562 38.777344 -16.039062 C 42.65625 -12.867188 47.238281 -11.28125 52.175781 -11.28125 C 62.75 -11.28125 71.035156 -19.390625 78.789062 -37.191406 Z M 37.898438 -42.304688 C 36.132812 -42.304688 34.546875 -41.246094 34.195312 -39.484375 C 32.960938 -35.078125 32.609375 -27.320312 34.546875 -22.738281 C 28.730469 -14.453125 21.328125 -7.402344 14.804688 -7.402344 C 9.164062 -7.402344 7.050781 -11.808594 7.050781 -18.15625 C 7.050781 -36.3125 16.394531 -53.410156 20.976562 -60.988281 C 26.085938 -69.800781 32.433594 -75.96875 39.128906 -75.96875 C 45.125 -75.96875 49.53125 -72.09375 49.53125 -64.6875 C 49.53125 -56.582031 46.179688 -44.417969 40.71875 -33.492188 C 40.894531 -34.722656 40.894531 -36.132812 41.421875 -37.542969 C 42.128906 -40.011719 40.363281 -42.304688 37.898438 -42.304688 Z M 37.898438 -42.304688 "/></g></g></g><g fill="#000000" fill-opacity="1"><g transform="translate(477.315496, 256.874983)"><g><path d="M 72.796875 -41.949219 C 72.269531 -42.128906 71.738281 -42.304688 71.210938 -42.304688 C 69.800781 -42.304688 68.566406 -41.421875 67.863281 -40.011719 C 57.816406 -17.273438 51.117188 -7.402344 42.480469 -7.402344 C 38.601562 -7.402344 37.191406 -10.398438 37.191406 -14.804688 C 37.367188 -17.804688 37.722656 -20.800781 38.777344 -24.5 C 39.835938 -28.90625 48.296875 -54.113281 50.589844 -59.929688 C 51.292969 -62.046875 50.410156 -64.335938 48.472656 -65.042969 C 46.535156 -65.746094 44.242188 -66.453125 41.773438 -67.15625 C 36.664062 -68.917969 30.671875 -70.859375 25.734375 -73.328125 C 27.851562 -80.199219 28.554688 -81.785156 28.554688 -84.605469 C 28.554688 -91.65625 24.675781 -96.242188 18.332031 -96.242188 C 12.691406 -96.242188 7.578125 -92.011719 7.578125 -84.785156 C 7.578125 -78.261719 11.28125 -73.679688 16.570312 -69.976562 L 14.453125 -64.6875 L 0.351562 -34.019531 C 0.175781 -33.492188 0 -32.960938 0 -32.433594 C 0 -31.023438 0.882812 -29.789062 2.113281 -29.082031 C 2.644531 -28.90625 3.171875 -28.730469 3.878906 -28.730469 C 5.113281 -28.730469 6.34375 -29.4375 7.050781 -30.847656 C 21.152344 -61.691406 22.386719 -64.160156 23.089844 -66.277344 C 26.96875 -64.335938 28.90625 -63.632812 42.304688 -59.226562 C 40.71875 -55.347656 32.960938 -31.902344 31.550781 -26.261719 C 30.316406 -21.855469 29.789062 -18.332031 29.789062 -14.804688 C 29.789062 -6.167969 34.019531 0 42.304688 0 L 42.480469 0 C 54.464844 0 63.277344 -10.753906 74.738281 -37.015625 C 74.914062 -37.542969 75.089844 -38.074219 75.089844 -38.601562 C 75.089844 -40.011719 74.207031 -41.246094 72.796875 -41.949219 Z M 21.152344 -84.785156 C 21.152344 -83.019531 20.09375 -79.847656 19.210938 -77.378906 C 16.570312 -79.496094 14.984375 -82.667969 14.984375 -85.488281 C 14.984375 -87.425781 16.039062 -88.835938 18.332031 -88.835938 C 19.742188 -88.835938 21.152344 -87.78125 21.152344 -84.785156 Z M 21.152344 -84.785156 "/></g></g></g><g fill="#000000" fill-opacity="1"><g transform="translate(542.179802, 256.874983)"><g><path d="M 44.769531 -41.949219 C 44.242188 -42.128906 43.714844 -42.304688 43.183594 -42.304688 C 41.773438 -42.304688 40.363281 -41.421875 39.660156 -40.1875 C 31.375 -22.03125 22.914062 -7.402344 10.222656 -7.402344 C 6.699219 -7.402344 4.582031 -10.046875 4.582031 -14.804688 C 4.582031 -19.917969 6.875 -28.027344 14.101562 -48.472656 C 19.917969 -64.867188 22.914062 -72.972656 23.972656 -76.324219 L 38.425781 -76.324219 C 40.539062 -76.324219 42.128906 -77.910156 42.128906 -80.023438 C 42.128906 -81.964844 40.539062 -83.726562 38.425781 -83.726562 L 26.617188 -83.726562 C 27.851562 -87.074219 35.429688 -108.578125 34.902344 -107.523438 C 35.78125 -109.8125 34.019531 -112.457031 31.375 -112.457031 C 29.789062 -112.457031 28.378906 -111.574219 27.851562 -109.988281 C 27.671875 -109.285156 19.035156 -84.429688 18.683594 -83.726562 L 5.113281 -83.726562 C 2.996094 -83.726562 1.410156 -81.964844 1.410156 -80.023438 C 1.410156 -77.910156 2.996094 -76.324219 5.113281 -76.324219 L 16.214844 -76.324219 L 7.226562 -51.117188 C 1.585938 -36.664062 -2.820312 -21.328125 -2.820312 -14.804688 C -2.820312 -6.34375 1.761719 0 10.222656 0 C 26.441406 0 36.3125 -14.984375 46.535156 -37.015625 C 46.710938 -37.542969 46.886719 -38.074219 46.886719 -38.601562 C 46.886719 -40.011719 46.003906 -41.246094 44.769531 -41.949219 Z M 44.769531 -41.949219 "/></g></g></g><g fill="#000000" fill-opacity="1"><g transform="translate(578.842241, 256.874983)"><g><path d="M 68.917969 -128.144531 C 66.453125 -133.078125 61.867188 -135.722656 56.230469 -135.722656 C 41.949219 -135.722656 31.902344 -117.746094 25.03125 -99.589844 L 18.859375 -83.375 L 4.582031 -83.375 C 2.46875 -83.375 0.882812 -81.609375 0.882812 -79.671875 C 0.882812 -77.554688 2.46875 -75.96875 4.582031 -75.96875 L 16.039062 -75.96875 C 5.289062 -47.589844 -0.351562 -29.261719 -13.394531 6.699219 C -18.15625 7.933594 -22.914062 8.8125 -27.320312 9.519531 C -48.472656 13.394531 -57.109375 21.503906 -57.109375 32.609375 C -57.109375 43.007812 -50.234375 49.882812 -39.660156 49.707031 C -26.96875 49.53125 -16.039062 37.015625 -7.578125 12.867188 C 18.15625 5.289062 32.785156 -11.105469 43.714844 -36.839844 C 43.890625 -37.367188 44.066406 -37.898438 44.066406 -38.425781 C 44.066406 -39.835938 43.183594 -41.070312 41.773438 -41.773438 C 41.246094 -41.949219 40.71875 -42.128906 40.1875 -42.128906 C 38.777344 -42.128906 37.542969 -41.246094 36.839844 -39.835938 C 28.027344 -19.035156 15.6875 -2.820312 -4.582031 4.054688 C 13.21875 -46.710938 18.683594 -61.691406 23.972656 -75.96875 L 38.074219 -75.96875 C 40.011719 -75.96875 41.773438 -77.554688 41.773438 -79.671875 C 41.773438 -81.609375 40.011719 -83.375 38.074219 -83.375 L 26.792969 -83.375 C 28.378906 -87.78125 30.316406 -92.539062 32.082031 -96.769531 C 37.722656 -111.753906 46.359375 -128.671875 56.582031 -128.144531 C 58.519531 -128.144531 60.8125 -127.617188 62.398438 -124.972656 C 63.101562 -123.5625 64.335938 -122.855469 65.746094 -122.855469 C 66.277344 -122.855469 66.804688 -123.03125 67.332031 -123.210938 C 68.566406 -123.914062 69.449219 -125.148438 69.449219 -126.558594 C 69.449219 -127.085938 69.273438 -127.617188 68.917969 -128.144531 Z M -16.214844 14.984375 C -22.03125 32.785156 -30.140625 42.128906 -39.660156 42.304688 C -45.652344 42.480469 -49.707031 38.601562 -49.707031 32.433594 C -49 24.324219 -42.128906 19.742188 -25.910156 16.921875 C -22.738281 16.394531 -19.566406 15.6875 -16.214844 14.984375 Z M -16.214844 14.984375 "/></g></g></g><g fill="#000000" fill-opacity="1"><g transform="translate(612.68449, 256.874983)"><g><path d="M 78.789062 -37.191406 C 79.847656 -39.660156 77.910156 -42.304688 75.265625 -42.304688 C 73.855469 -42.304688 72.445312 -41.421875 71.917969 -40.011719 C 65.746094 -25.382812 59.578125 -18.683594 52.175781 -18.683594 C 48.121094 -18.683594 45.125 -19.917969 43.183594 -22.386719 C 51.292969 -36.132812 56.933594 -53.410156 56.933594 -64.511719 C 56.933594 -75.089844 50.941406 -83.019531 39.308594 -83.375 C 30.492188 -83.375 21.855469 -77.203125 14.453125 -64.867188 C 8.636719 -55.347656 -0.527344 -38.25 -0.527344 -17.804688 C -0.527344 -7.578125 3.347656 0 14.804688 0 C 23.265625 0 32.257812 -7.226562 38.777344 -16.039062 C 42.65625 -12.867188 47.238281 -11.28125 52.175781 -11.28125 C 62.75 -11.28125 71.035156 -19.390625 78.789062 -37.191406 Z M 37.898438 -42.304688 C 36.132812 -42.304688 34.546875 -41.246094 34.195312 -39.484375 C 32.960938 -35.078125 32.609375 -27.320312 34.546875 -22.738281 C 28.730469 -14.453125 21.328125 -7.402344 14.804688 -7.402344 C 9.164062 -7.402344 7.050781 -11.808594 7.050781 -18.15625 C 7.050781 -36.3125 16.394531 -53.410156 20.976562 -60.988281 C 26.085938 -69.800781 32.433594 -75.96875 39.128906 -75.96875 C 45.125 -75.96875 49.53125 -72.09375 49.53125 -64.6875 C 49.53125 -56.582031 46.179688 -44.417969 40.71875 -33.492188 C 40.894531 -34.722656 40.894531 -36.132812 41.421875 -37.542969 C 42.128906 -40.011719 40.363281 -42.304688 37.898438 -42.304688 Z M 37.898438 -42.304688 "/></g></g></g><g fill="#000000" fill-opacity="1"><g transform="translate(681.60282, 256.874983)"><g><path d="M 44.417969 -41.949219 C 43.890625 -42.128906 43.359375 -42.304688 42.832031 -42.304688 C 41.421875 -42.304688 40.011719 -41.421875 39.308594 -40.1875 C 31.023438 -22.03125 22.5625 -7.402344 9.871094 -7.402344 C 6.34375 -7.402344 4.230469 -10.046875 4.230469 -14.804688 C 4.230469 -17.980469 6.167969 -25.910156 10.046875 -37.898438 C 15.160156 -52.878906 20.269531 -66.980469 25.207031 -81.082031 L 34.371094 -107.875 C 35.078125 -109.8125 34.019531 -111.929688 32.082031 -112.632812 C 30.140625 -113.164062 28.027344 -112.28125 27.320312 -110.34375 L 18.15625 -83.550781 C 13.042969 -68.917969 7.753906 -54.113281 2.996094 -40.1875 C -1.410156 -26.261719 -3.171875 -19.917969 -3.171875 -14.804688 C -3.171875 -6.34375 1.410156 0 9.871094 0 C 26.085938 0 35.957031 -14.984375 46.179688 -37.015625 C 46.359375 -37.542969 46.535156 -38.074219 46.535156 -38.601562 C 46.535156 -40.011719 45.652344 -41.246094 44.417969 -41.949219 Z M 44.417969 -41.949219 "/></g></g></g><g fill="#000000" fill-opacity="1"><g transform="translate(717.912724, 256.874983)"><g><path d="M 28.730469 -92.363281 C 32.082031 -92.363281 34.722656 -95.007812 34.722656 -98.355469 C 34.722656 -101.703125 32.082031 -104.347656 28.730469 -104.347656 C 25.382812 -104.347656 22.5625 -101.703125 22.5625 -98.355469 C 22.5625 -95.007812 25.382812 -92.363281 28.730469 -92.363281 Z M 40.363281 -41.949219 C 39.835938 -42.128906 39.484375 -42.304688 38.953125 -42.304688 C 37.542969 -42.304688 36.132812 -41.421875 35.429688 -40.011719 C 28.90625 -25.558594 20.800781 -7.402344 9.871094 -7.402344 C 6.167969 -7.402344 4.582031 -9.695312 4.582031 -14.804688 C 4.582031 -22.386719 7.753906 -30.492188 24.851562 -78.613281 C 25.910156 -81.609375 23.621094 -83.375 21.328125 -83.375 C 19.917969 -83.375 18.507812 -82.492188 17.980469 -80.90625 C 10.222656 -60.8125 -2.292969 -28.554688 -2.820312 -14.804688 C -3.171875 -6.699219 1.410156 0 9.871094 0 C 24.675781 0 33.84375 -17.980469 42.304688 -37.015625 C 42.480469 -37.542969 42.65625 -38.074219 42.65625 -38.601562 C 42.65625 -40.011719 41.773438 -41.421875 40.363281 -41.949219 Z M 40.363281 -41.949219 "/></g></g></g><g fill="#000000" fill-opacity="1"><g transform="translate(750.344866, 256.874983)"><g><path d="M 78.789062 -37.191406 C 79.847656 -39.660156 77.910156 -42.304688 75.265625 -42.304688 C 73.855469 -42.304688 72.445312 -41.421875 71.917969 -40.011719 C 65.746094 -25.382812 59.578125 -18.683594 52.175781 -18.683594 C 48.121094 -18.683594 45.125 -19.917969 43.183594 -22.386719 C 51.292969 -36.132812 56.933594 -53.410156 56.933594 -64.511719 C 56.933594 -75.089844 50.941406 -83.019531 39.308594 -83.375 C 30.492188 -83.375 21.855469 -77.203125 14.453125 -64.867188 C 8.636719 -55.347656 -0.527344 -38.25 -0.527344 -17.804688 C -0.527344 -7.578125 3.347656 0 14.804688 0 C 23.265625 0 32.257812 -7.226562 38.777344 -16.039062 C 42.65625 -12.867188 47.238281 -11.28125 52.175781 -11.28125 C 62.75 -11.28125 71.035156 -19.390625 78.789062 -37.191406 Z M 37.898438 -42.304688 C 36.132812 -42.304688 34.546875 -41.246094 34.195312 -39.484375 C 32.960938 -35.078125 32.609375 -27.320312 34.546875 -22.738281 C 28.730469 -14.453125 21.328125 -7.402344 14.804688 -7.402344 C 9.164062 -7.402344 7.050781 -11.808594 7.050781 -18.15625 C 7.050781 -36.3125 16.394531 -53.410156 20.976562 -60.988281 C 26.085938 -69.800781 32.433594 -75.96875 39.128906 -75.96875 C 45.125 -75.96875 49.53125 -72.09375 49.53125 -64.6875 C 49.53125 -56.582031 46.179688 -44.417969 40.71875 -33.492188 C 40.894531 -34.722656 40.894531 -36.132812 41.421875 -37.542969 C 42.128906 -40.011719 40.363281 -42.304688 37.898438 -42.304688 Z M 37.898438 -42.304688 "/></g></g></g><g fill="#eb5e28" fill-opacity="1"><g transform="translate(287.119201, 248.974996)"><g><path d="M 226.164062 -162.210938 C 226.164062 -197.964844 197.964844 -222.386719 158.429688 -222.386719 C 98.546875 -222.386719 65.117188 -174.710938 65.117188 -112.792969 C 65.117188 -109.59375 67.734375 -106.6875 71.222656 -106.6875 C 74.710938 -106.6875 77.324219 -109.59375 77.324219 -112.792969 C 77.324219 -166.28125 105.523438 -209.886719 155.523438 -209.886719 C 189.535156 -209.886719 213.953125 -193.898438 213.953125 -162.210938 C 213.953125 -129.652344 191.863281 -94.769531 158.429688 -94.769531 C 150.875 -94.769531 142.734375 -96.511719 134.59375 -99.417969 C 133.722656 -99.710938 133.140625 -99.710938 132.269531 -99.710938 C 129.363281 -99.710938 126.453125 -97.675781 126.453125 -93.894531 C 126.453125 -91.28125 127.90625 -88.953125 130.523438 -88.082031 C 139.535156 -84.59375 148.546875 -82.558594 157.558594 -82.558594 C 198.546875 -82.558594 226.164062 -120.929688 226.164062 -162.210938 Z M 150.875 -176.746094 C 154.363281 -182.851562 161.046875 -191.28125 168.605469 -192.152344 C 171.222656 -192.734375 174.417969 -194.769531 173.839844 -199.421875 C 173.546875 -202.328125 170.351562 -204.363281 167.441406 -204.363281 C 158.429688 -204.363281 145.640625 -193.605469 140.117188 -182.269531 C 131.6875 -165.988281 124.417969 -141.28125 116.570312 -114.828125 C 97.964844 -51.453125 81.105469 5.523438 42.152344 5.523438 C 25.871094 5.523438 12.210938 -4.941406 12.210938 -22.675781 C 12.210938 -39.535156 25.871094 -57.558594 41.859375 -57.558594 C 43.605469 -57.558594 45.347656 -57.558594 46.800781 -56.976562 C 50.582031 -55.8125 54.652344 -58.722656 54.652344 -62.792969 C 54.652344 -68.316406 48.546875 -69.769531 42.441406 -69.769531 C 19.476562 -69.769531 0 -47.675781 0 -22.09375 C 0 1.453125 18.023438 17.734375 41.859375 17.734375 C 93.023438 17.734375 111.917969 -55.234375 128.488281 -111.628906 C 135.757812 -137.210938 143.023438 -161.339844 150.875 -176.746094 Z M 150.875 -176.746094 "/></g></g></g><g fill="#000000" fill-opacity="1"><g transform="translate(274.271277, 236.127072)"><g><path d="M 226.164062 -162.210938 C 226.164062 -197.964844 197.964844 -222.386719 158.429688 -222.386719 C 98.546875 -222.386719 65.117188 -174.710938 65.117188 -112.792969 C 65.117188 -109.59375 67.734375 -106.6875 71.222656 -106.6875 C 74.710938 -106.6875 77.324219 -109.59375 77.324219 -112.792969 C 77.324219 -166.28125 105.523438 -209.886719 155.523438 -209.886719 C 189.535156 -209.886719 213.953125 -193.898438 213.953125 -162.210938 C 213.953125 -129.652344 191.863281 -94.769531 158.429688 -94.769531 C 150.875 -94.769531 142.734375 -96.511719 134.59375 -99.417969 C 133.722656 -99.710938 133.140625 -99.710938 132.269531 -99.710938 C 129.363281 -99.710938 126.453125 -97.675781 126.453125 -93.894531 C 126.453125 -91.28125 127.90625 -88.953125 130.523438 -88.082031 C 139.535156 -84.59375 148.546875 -82.558594 157.558594 -82.558594 C 198.546875 -82.558594 226.164062 -120.929688 226.164062 -162.210938 Z M 150.875 -176.746094 C 154.363281 -182.851562 161.046875 -191.28125 168.605469 -192.152344 C 171.222656 -192.734375 174.417969 -194.769531 173.839844 -199.421875 C 173.546875 -202.328125 170.351562 -204.363281 167.441406 -204.363281 C 158.429688 -204.363281 145.640625 -193.605469 140.117188 -182.269531 C 131.6875 -165.988281 124.417969 -141.28125 116.570312 -114.828125 C 97.964844 -51.453125 81.105469 5.523438 42.152344 5.523438 C 25.871094 5.523438 12.210938 -4.941406 12.210938 -22.675781 C 12.210938 -39.535156 25.871094 -57.558594 41.859375 -57.558594 C 43.605469 -57.558594 45.347656 -57.558594 46.800781 -56.976562 C 50.582031 -55.8125 54.652344 -58.722656 54.652344 -62.792969 C 54.652344 -68.316406 48.546875 -69.769531 42.441406 -69.769531 C 19.476562 -69.769531 0 -47.675781 0 -22.09375 C 0 1.453125 18.023438 17.734375 41.859375 17.734375 C 93.023438 17.734375 111.917969 -55.234375 128.488281 -111.628906 C 135.757812 -137.210938 143.023438 -161.339844 150.875 -176.746094 Z M 150.875 -176.746094 "/></g></g></g><g fill="#eb5e28" fill-opacity="1"><g transform="translate(831.512779, 308.917391)"><g><path d="M 53.761719 -129.203125 C 51.820312 -129.90625 49.707031 -128.851562 49.179688 -126.910156 L -1.234375 16.570312 C -1.9375 18.507812 -1.058594 20.621094 0.882812 21.328125 C 2.820312 22.03125 4.933594 20.976562 5.640625 19.035156 L 56.050781 -124.441406 C 56.757812 -126.382812 55.699219 -128.496094 53.761719 -129.203125 Z M 53.761719 -129.203125 "/></g></g></g><g fill="#eb5e28" fill-opacity="1"><g transform="translate(868.175218, 308.917391)"><g><path d="M 15.511719 -31.726562 C 16.214844 -29.789062 18.332031 -28.730469 20.269531 -29.4375 L 77.734375 -51.117188 C 79.671875 -51.820312 80.730469 -53.9375 80.023438 -55.875 C 79.671875 -56.933594 78.789062 -57.636719 77.910156 -57.992188 L 32.960938 -77.910156 C 31.023438 -78.789062 28.90625 -77.910156 28.027344 -76.144531 C 27.144531 -74.207031 28.027344 -71.917969 29.964844 -71.210938 L 66.628906 -54.820312 L 17.625 -36.488281 C 15.6875 -35.78125 14.804688 -33.667969 15.511719 -31.726562 Z M 15.511719 -31.726562 "/></g></g></g><g fill="#000000" fill-opacity="1"><g transform="translate(823.722619, 301.127207)"><g><path d="M 53.761719 -129.203125 C 51.820312 -129.90625 49.707031 -128.851562 49.179688 -126.910156 L -1.234375 16.570312 C -1.9375 18.507812 -1.058594 20.621094 0.882812 21.328125 C 2.820312 22.03125 4.933594 20.976562 5.640625 19.035156 L 56.050781 -124.441406 C 56.757812 -126.382812 55.699219 -128.496094 53.761719 -129.203125 Z M 53.761719 -129.203125 "/></g></g></g><g fill="#000000" fill-opacity="1"><g transform="translate(860.385058, 301.127207)"><g><path d="M 15.511719 -31.726562 C 16.214844 -29.789062 18.332031 -28.730469 20.269531 -29.4375 L 77.734375 -51.117188 C 79.671875 -51.820312 80.730469 -53.9375 80.023438 -55.875 C 79.671875 -56.933594 78.789062 -57.636719 77.910156 -57.992188 L 32.960938 -77.910156 C 31.023438 -78.789062 28.90625 -77.910156 28.027344 -76.144531 C 27.144531 -74.207031 28.027344 -71.917969 29.964844 -71.210938 L 66.628906 -54.820312 L 17.625 -36.488281 C 15.6875 -35.78125 14.804688 -33.667969 15.511719 -31.726562 Z M 15.511719 -31.726562 "/></g></g></g><g fill="#eb5e28" fill-opacity="1"><g transform="translate(255.343268, 158.917402)"><g><path d="M 80.023438 -75.792969 C 79.320312 -77.734375 77.203125 -78.789062 75.265625 -78.085938 L 17.804688 -56.40625 C 15.863281 -55.699219 14.804688 -53.585938 15.511719 -51.644531 C 15.863281 -50.589844 16.746094 -49.882812 17.625 -49.53125 L 62.574219 -29.613281 C 64.511719 -28.730469 66.628906 -29.613281 67.507812 -31.375 C 68.390625 -33.3125 67.507812 -35.605469 65.570312 -36.3125 L 28.90625 -52.703125 L 77.910156 -71.035156 C 79.847656 -71.738281 80.730469 -73.855469 80.023438 -75.792969 Z M 80.023438 -75.792969 "/></g></g></g><g fill="#000000" fill-opacity="1"><g transform="translate(247.553083, 151.127217)"><g><path d="M 80.023438 -75.792969 C 79.320312 -77.734375 77.203125 -78.789062 75.265625 -78.085938 L 17.804688 -56.40625 C 15.863281 -55.699219 14.804688 -53.585938 15.511719 -51.644531 C 15.863281 -50.589844 16.746094 -49.882812 17.625 -49.53125 L 62.574219 -29.613281 C 64.511719 -28.730469 66.628906 -29.613281 67.507812 -31.375 C 68.390625 -33.3125 67.507812 -35.605469 65.570312 -36.3125 L 28.90625 -52.703125 L 77.910156 -71.035156 C 79.847656 -71.738281 80.730469 -73.855469 80.023438 -75.792969 Z M 80.023438 -75.792969 "/></g></g></g></svg>