<svg xmlns="http://www.w3.org/2000/svg" xmlns:xlink="http://www.w3.org/1999/xlink" width="1500" zoomAndPan="magnify" viewBox="0 0 1125 374.999991" height="500" preserveAspectRatio="xMidYMid meet" version="1.0"><defs><filter x="0%" y="0%" width="100%" height="100%" id="474782d2d9"><feColorMatrix values="0 0 0 0 1 0 0 0 0 1 0 0 0 0 1 0 0 0 1 0" color-interpolation-filters="sRGB"/></filter><g/><mask id="5f9fdc734d"><g filter="url(#474782d2d9)"><rect x="-112.5" width="1350" fill="#000000" y="-37.499999" height="449.999989" fill-opacity="0.2"/></g></mask><clipPath id="90b6e69a6f"><path d="M 0.238281 0.078125 L 837 0.078125 L 837 246.75 L 0.238281 246.75 Z M 0.238281 0.078125 " clip-rule="nonzero"/></clipPath><clipPath id="e91a734db4"><path d="M 29.589844 0.25 L 807.410156 0.25 C 815.164062 0.25 822.597656 3.328125 828.082031 8.808594 C 833.5625 14.292969 836.640625 21.726562 836.640625 29.480469 L 836.640625 217.519531 C 836.640625 225.273438 833.5625 232.707031 828.082031 238.1875 C 822.597656 243.671875 815.164062 246.75 807.410156 246.75 L 29.589844 246.75 C 21.835938 246.75 14.402344 243.671875 8.917969 238.1875 C 3.4375 232.707031 0.359375 225.273438 0.359375 217.519531 L 0.359375 29.480469 C 0.359375 21.726562 3.4375 14.292969 8.917969 8.808594 C 14.402344 3.328125 21.835938 0.25 29.589844 0.25 Z M 29.589844 0.25 " clip-rule="nonzero"/></clipPath><clipPath id="7e146baafa"><rect x="0" width="838" y="0" height="247"/></clipPath></defs><g mask="url(#5f9fdc734d)"><g transform="matrix(1, 0, 0, 1, 144, 64)"><g clip-path="url(#7e146baafa)"><g clip-path="url(#90b6e69a6f)"><g clip-path="url(#e91a734db4)"><path fill="#f05f1b" d="M 0.359375 0.25 L 837.113281 0.25 L 837.113281 246.75 L 0.359375 246.75 Z M 0.359375 0.25 " fill-opacity="1" fill-rule="nonzero"/></g></g></g></g></g><path fill="#000000" d="M 434.308594 265.875 L 793.359375 265.875 L 793.359375 283.125 L 434.308594 283.125 Z M 434.308594 265.875 " fill-opacity="1" fill-rule="nonzero"/><path stroke-linecap="butt" transform="matrix(0.75, 0, 0, 0.75, 290.658892, 64.124996)" fill="none" stroke-linejoin="miter" d="M 276.621495 201.05731 C 274.038162 200.140644 271.23087 201.286477 270.022537 203.640644 C 256.887119 233.989604 241.85066 247.588564 222.574617 247.13023 C 208.460033 246.671897 200.939199 238.41148 201.402741 225.041687 C 201.631907 220.104187 202.319407 215.630228 203.980866 209.546894 C 230.090242 203.177102 265.090245 188.145851 265.090245 163.244808 C 265.090245 151.942724 256.887119 145.85939 245.121493 145.85939 C 217.40795 145.85939 192.96524 194.74481 191.532948 224.81252 C 191.074615 244.088563 202.835032 257.000022 222.34545 257.000022 C 246.03816 257.000022 263.944411 241.510438 279.204829 207.656269 C 279.433996 206.968769 279.663162 206.447936 279.663162 205.760436 C 279.663162 203.869811 278.517329 202.031269 276.621495 201.05731 Z M 207.767324 198.24481 C 215.288158 180.171892 228.881909 155.729183 245.121493 155.729183 C 250.28816 155.729183 255.220452 156.875016 255.220452 163.244808 C 255.220452 180.630226 227.277742 192.161477 207.767324 198.24481 Z M 343.605875 215.401061 C 343.376708 199.390644 337.006916 191.187518 324.788165 168.635433 C 332.074624 160.432308 337.923583 150.04689 337.923583 140.635432 C 337.465249 133.864598 333.506916 128.416681 326.67879 128.416681 C 317.038165 128.416681 309.522539 138.802098 309.522539 151.020849 C 309.522539 156.416683 310.902748 161.578141 313.02254 166.515642 C 310.210039 169.328142 307.861081 171.906267 305.048581 175.234392 C 304.361081 176.156267 303.845456 177.302101 303.845456 178.276059 C 303.845456 179.656267 304.361081 181.317726 305.506914 182.234393 C 306.480872 183.213559 307.861081 183.442726 309.064206 183.442726 C 310.439206 183.442726 311.876706 182.755226 312.793373 181.546893 C 314.230873 179.656267 315.83504 177.817726 317.501706 176.156267 C 329.949624 198.015644 333.506916 204.843769 333.736083 215.171895 C 333.220458 234.682313 319.621498 247.13023 300.574622 247.13023 C 286.975663 247.13023 274.98087 237.031271 274.98087 222.68752 C 275.902745 208.343769 284.335038 197.55731 297.303789 197.55731 C 303.381914 197.55731 309.293373 203.411477 309.751706 211.385436 C 309.751706 214.255228 311.876706 216.317728 314.689206 216.317728 C 317.501706 216.317728 319.621498 214.255228 319.621498 211.385436 C 319.163165 198.473977 309.293373 187.687518 297.074622 187.687518 C 278.251704 187.687518 266.491286 201.515644 265.111078 222.68752 C 265.111078 241.739605 281.064204 257.000022 300.574622 257.000022 C 324.324624 257.000022 343.09025 240.760438 343.605875 215.401061 Z M 320.538165 158.312516 C 319.850665 155.729183 319.392332 153.375016 319.392332 150.791682 C 319.392332 147.463557 320.079832 143.276057 322.892332 140.406265 C 325.246499 138.057306 327.824624 137.364598 327.824624 140.635432 C 327.824624 145.85939 324.324624 153.145849 320.538165 158.312516 Z M 461.569424 201.05731 C 460.881924 200.828144 460.137133 200.598977 459.449632 200.598977 C 457.553799 200.598977 455.720466 201.744811 454.970466 203.640644 C 441.605881 233.703146 432.423589 247.13023 421.121505 247.13023 C 416.184005 247.13023 414.121505 244.088563 414.121505 237.260438 C 414.121505 230.890646 419.51213 211.901061 428.407964 187.687518 C 431.965256 178.276059 436.439214 165.598975 441.605881 151.942724 C 442.751715 148.901057 440.397548 145.343765 436.668381 145.343765 C 434.777756 145.343765 432.881922 146.54689 432.194422 148.442724 C 419.970463 181.776059 411.251713 206.677103 403.043379 223.145854 C 395.298587 239.156271 385.657961 247.13023 376.022544 247.13023 C 367.585043 247.13023 363.111084 242.197938 363.111084 232.557313 C 363.111084 223.145854 365.694418 218.213562 390.595461 151.942724 C 391.741295 148.901057 389.907961 145.343765 385.887128 145.343765 C 383.996503 145.343765 382.100669 146.54689 381.413169 148.442724 C 358.866293 206.968769 353.241292 220.796895 353.241292 232.557313 C 353.241292 248.56773 360.986084 257.000022 375.793377 257.000022 L 376.022544 257.000022 C 386.579836 257.000022 397.423587 249.94273 404.194421 240.302105 C 405.626712 250.63023 410.793379 257.000022 421.121505 257.000022 C 436.897548 257.000022 448.663173 242.656272 463.923591 207.656269 C 464.152758 206.968769 464.381924 206.218769 464.381924 205.531269 C 464.381924 203.640644 463.236091 202.031269 461.569424 201.05731 Z M 609.402767 205.531269 C 609.402767 202.947936 606.819434 200.598977 604.470475 200.598977 C 602.574642 200.598977 600.45485 201.744811 599.762142 203.640644 C 587.085058 233.244813 577.673599 247.13023 566.142348 247.13023 C 561.204848 247.13023 559.085056 244.088563 559.085056 237.260438 C 559.085056 217.06252 577.215265 190.041685 577.215265 167.432308 C 577.215265 154.984391 572.048598 145.343765 555.121514 145.343765 C 544.048596 145.343765 532.059012 156.187516 525.230887 166.973975 C 525.230887 154.520849 517.715261 145.343765 503.657969 145.343765 C 495.62151 145.343765 488.105884 150.791682 481.277759 158.770849 C 482.022551 156.416683 482.715259 154.520849 483.631926 152.401057 C 484.835051 149.35939 482.480884 145.85939 478.980884 145.85939 C 476.861092 145.85939 474.965259 147.005224 474.277758 149.130224 C 462.288174 182.984393 450.064215 216.833353 438.074631 250.63023 C 437.095464 253.213564 438.532964 256.083356 441.116298 257.000022 C 443.694423 257.687523 446.506923 256.541689 447.480882 253.729189 L 463.434008 208.343769 C 464.8663 204.614602 478.980884 178.734392 483.173592 172.369809 C 490.001718 162.786475 497.05901 155.213557 503.657969 155.213557 C 512.090261 155.213557 515.361094 159.687516 515.361094 168.406267 C 515.361094 176.614601 511.861094 187.171893 506.928802 201.515644 C 506.694427 202.031269 491.204843 248.046897 490.918385 248.796897 C 489.772551 251.838564 492.12151 255.338564 495.62151 255.338564 C 497.74651 255.338564 499.637135 254.187522 500.329844 252.067731 C 500.100677 252.526064 515.87672 206.447936 516.335053 205.072936 C 523.163178 186.026059 541.470471 155.213557 555.121514 155.213557 C 564.475681 155.213557 567.345473 160.661474 567.345473 167.432308 C 567.345473 186.71356 548.986097 215.859395 548.986097 237.260438 C 548.986097 248.796897 554.605889 257.000022 566.142348 257.000022 C 587.085058 257.000022 599.991308 228.083354 608.715267 208.343769 C 609.173601 206.677103 609.402767 206.218769 609.402767 205.531269 Z M 680.850689 201.05731 C 678.267355 200.140644 675.454855 201.286477 674.25173 203.640644 C 661.111104 233.989604 646.079853 247.588564 626.798602 247.13023 C 612.684018 246.671897 605.168392 238.41148 605.626725 225.041687 C 605.855892 220.104187 606.543392 215.630228 608.210059 209.546894 C 634.314227 203.177102 669.31423 188.145851 669.31423 163.244808 C 669.31423 151.942724 661.111104 145.85939 649.350687 145.85939 C 621.637143 145.85939 597.194433 194.74481 595.756933 224.81252 C 595.2986 244.088563 607.059017 257.000022 626.569435 257.000022 C 650.267353 257.000022 668.168396 241.510438 683.434022 207.656269 C 683.663189 206.968769 683.892356 206.447936 683.892356 205.760436 C 683.892356 203.869811 682.741314 202.031269 680.850689 201.05731 Z M 611.996518 198.24481 C 619.512143 180.171892 633.111102 155.729183 649.350687 155.729183 C 654.512145 155.729183 659.449646 156.875016 659.449646 163.244808 C 659.449646 180.630226 631.506935 192.161477 611.996518 198.24481 Z M 611.996518 198.24481 " stroke="#000000" stroke-width="7.638443" stroke-opacity="1" stroke-miterlimit="4"/><path fill="#000000" d="M 434.308594 265.875 L 793.359375 265.875 L 793.359375 283.125 L 434.308594 283.125 Z M 434.308594 265.875 " fill-opacity="1" fill-rule="nonzero"/><g fill="#000000" fill-opacity="1"><g transform="translate(434.30732, 256.874983)"><g><path d="M 63.808594 -41.949219 C 61.867188 -42.65625 59.753906 -41.773438 58.871094 -40.011719 C 49 -17.273438 37.722656 -7.050781 23.265625 -7.402344 C 12.691406 -7.753906 7.050781 -13.925781 7.402344 -23.972656 C 7.578125 -27.671875 8.109375 -31.023438 9.34375 -35.605469 C 28.90625 -40.363281 55.171875 -51.644531 55.171875 -70.328125 C 55.171875 -78.789062 49 -83.375 40.1875 -83.375 C 19.390625 -83.375 1.058594 -46.710938 0 -24.148438 C -0.351562 -9.695312 8.460938 0 23.089844 0 C 40.894531 0 54.289062 -11.632812 65.746094 -37.015625 C 65.921875 -37.542969 66.097656 -37.898438 66.097656 -38.425781 C 66.097656 -39.835938 65.21875 -41.246094 63.808594 -41.949219 Z M 12.164062 -44.066406 C 17.804688 -57.636719 28.027344 -75.96875 40.1875 -75.96875 C 44.066406 -75.96875 47.769531 -75.089844 47.769531 -70.328125 C 47.769531 -57.285156 26.792969 -48.648438 12.164062 -44.066406 Z M 12.164062 -44.066406 "/></g></g></g><g fill="#000000" fill-opacity="1"><g transform="translate(490.182282, 256.874983)"><g><path d="M 58.167969 -31.199219 C 57.992188 -43.183594 53.230469 -49.355469 44.066406 -66.277344 C 49.53125 -72.445312 53.9375 -80.199219 53.9375 -87.25 C 53.585938 -92.363281 50.589844 -96.417969 45.476562 -96.417969 C 38.25 -96.417969 32.609375 -88.660156 32.609375 -79.496094 C 32.609375 -75.441406 33.667969 -71.5625 35.253906 -67.863281 C 33.136719 -65.746094 31.375 -63.808594 29.261719 -61.339844 C 28.730469 -60.636719 28.378906 -59.753906 28.378906 -59.046875 C 28.378906 -57.992188 28.730469 -56.757812 29.613281 -56.050781 C 30.316406 -55.347656 31.375 -55.171875 32.257812 -55.171875 C 33.3125 -55.171875 34.371094 -55.699219 35.078125 -56.582031 C 36.132812 -57.992188 37.367188 -59.402344 38.601562 -60.636719 C 47.945312 -44.242188 50.589844 -39.128906 50.765625 -31.375 C 50.410156 -16.746094 40.1875 -7.402344 25.910156 -7.402344 C 15.6875 -7.402344 6.699219 -14.984375 6.699219 -25.734375 C 7.402344 -36.488281 13.75 -44.59375 23.441406 -44.59375 C 28.027344 -44.59375 32.433594 -40.1875 32.785156 -34.195312 C 32.785156 -32.082031 34.371094 -30.492188 36.488281 -30.492188 C 38.601562 -30.492188 40.1875 -32.082031 40.1875 -34.195312 C 39.835938 -43.890625 32.433594 -52 23.265625 -52 C 9.164062 -52 0.351562 -41.597656 -0.703125 -25.734375 C -0.703125 -11.457031 11.28125 0 25.910156 0 C 43.714844 0 57.816406 -12.164062 58.167969 -31.199219 Z M 40.894531 -74.03125 C 40.363281 -75.96875 40.011719 -77.734375 40.011719 -79.671875 C 40.011719 -82.140625 40.539062 -85.3125 42.65625 -87.425781 C 44.417969 -89.191406 46.359375 -89.71875 46.359375 -87.25 C 46.359375 -83.375 43.714844 -77.910156 40.894531 -74.03125 Z M 40.894531 -74.03125 "/></g></g></g><g fill="#000000" fill-opacity="1"><g transform="translate(558.043041, 256.874983)"><g><path d="M 78.789062 -41.949219 C 78.261719 -42.128906 77.734375 -42.304688 77.203125 -42.304688 C 75.792969 -42.304688 74.382812 -41.421875 73.855469 -40.011719 C 63.808594 -17.449219 56.933594 -7.402344 48.472656 -7.402344 C 44.769531 -7.402344 43.183594 -9.695312 43.183594 -14.804688 C 43.183594 -19.566406 47.238281 -33.84375 53.9375 -52 C 56.582031 -59.046875 59.929688 -68.566406 63.808594 -78.789062 C 64.6875 -81.082031 62.925781 -83.726562 60.105469 -83.726562 C 58.695312 -83.726562 57.285156 -82.84375 56.757812 -81.433594 C 47.589844 -56.40625 41.070312 -37.722656 34.902344 -25.382812 C 29.082031 -13.394531 21.855469 -7.402344 14.628906 -7.402344 C 8.285156 -7.402344 4.933594 -11.105469 4.933594 -18.332031 C 4.933594 -25.382812 6.875 -29.082031 25.558594 -78.789062 C 26.441406 -81.082031 25.03125 -83.726562 22.03125 -83.726562 C 20.621094 -83.726562 19.210938 -82.84375 18.683594 -81.433594 C 1.761719 -37.542969 -2.46875 -27.144531 -2.46875 -18.332031 C -2.46875 -6.34375 3.347656 0 14.453125 0 L 14.628906 0 C 22.5625 0 30.671875 -5.289062 35.78125 -12.515625 C 36.839844 -4.757812 40.71875 0 48.472656 0 C 60.28125 0 69.097656 -10.753906 80.554688 -37.015625 C 80.730469 -37.542969 80.90625 -38.074219 80.90625 -38.601562 C 80.90625 -40.011719 80.023438 -41.246094 78.789062 -41.949219 Z M 78.789062 -41.949219 "/></g></g></g><g fill="#000000" fill-opacity="1"><g transform="translate(628.723979, 256.874983)"><g><path d="M 118.980469 -38.601562 C 118.980469 -40.539062 117.039062 -42.304688 115.277344 -42.304688 C 113.867188 -42.304688 112.28125 -41.421875 111.753906 -40.011719 C 102.234375 -17.804688 95.183594 -7.402344 86.546875 -7.402344 C 82.84375 -7.402344 81.257812 -9.695312 81.257812 -14.804688 C 81.257812 -29.964844 94.832031 -50.234375 94.832031 -67.15625 C 94.832031 -76.5 90.953125 -83.726562 78.261719 -83.726562 C 69.976562 -83.726562 60.988281 -75.617188 55.875 -67.507812 C 55.875 -76.851562 50.234375 -83.726562 39.660156 -83.726562 C 33.667969 -83.726562 28.027344 -79.671875 22.914062 -73.679688 C 23.441406 -75.441406 23.972656 -76.851562 24.675781 -78.4375 C 25.558594 -80.730469 23.796875 -83.375 21.152344 -83.375 C 19.566406 -83.375 18.15625 -82.492188 17.625 -80.90625 C 8.636719 -55.523438 -0.527344 -30.140625 -9.519531 -4.757812 C -10.222656 -2.820312 -9.164062 -0.703125 -7.226562 0 C -5.289062 0.527344 -3.171875 -0.351562 -2.46875 -2.46875 L 9.519531 -36.488281 C 10.574219 -39.308594 21.152344 -58.695312 24.324219 -63.457031 C 29.4375 -70.683594 34.722656 -76.324219 39.660156 -76.324219 C 46.003906 -76.324219 48.472656 -72.972656 48.472656 -66.453125 C 48.472656 -60.28125 45.828125 -52.351562 42.128906 -41.597656 C 41.949219 -41.246094 30.316406 -6.699219 30.140625 -6.167969 C 29.261719 -3.878906 31.023438 -1.234375 33.667969 -1.234375 C 35.253906 -1.234375 36.664062 -2.113281 37.191406 -3.703125 C 37.015625 -3.347656 48.824219 -37.898438 49.179688 -38.953125 C 54.289062 -53.230469 68.039062 -76.324219 78.261719 -76.324219 C 85.3125 -76.324219 87.425781 -72.269531 87.425781 -67.15625 C 87.425781 -52.703125 73.679688 -30.847656 73.679688 -14.804688 C 73.679688 -6.167969 77.910156 0 86.546875 0 C 102.234375 0 111.929688 -21.679688 118.449219 -36.488281 C 118.800781 -37.722656 118.980469 -38.074219 118.980469 -38.601562 Z M 118.980469 -38.601562 "/></g></g></g><g fill="#000000" fill-opacity="1"><g transform="translate(737.477451, 256.874983)"><g><path d="M 63.808594 -41.949219 C 61.867188 -42.65625 59.753906 -41.773438 58.871094 -40.011719 C 49 -17.273438 37.722656 -7.050781 23.265625 -7.402344 C 12.691406 -7.753906 7.050781 -13.925781 7.402344 -23.972656 C 7.578125 -27.671875 8.109375 -31.023438 9.34375 -35.605469 C 28.90625 -40.363281 55.171875 -51.644531 55.171875 -70.328125 C 55.171875 -78.789062 49 -83.375 40.1875 -83.375 C 19.390625 -83.375 1.058594 -46.710938 0 -24.148438 C -0.351562 -9.695312 8.460938 0 23.089844 0 C 40.894531 0 54.289062 -11.632812 65.746094 -37.015625 C 65.921875 -37.542969 66.097656 -37.898438 66.097656 -38.425781 C 66.097656 -39.835938 65.21875 -41.246094 63.808594 -41.949219 Z M 12.164062 -44.066406 C 17.804688 -57.636719 28.027344 -75.96875 40.1875 -75.96875 C 44.066406 -75.96875 47.769531 -75.089844 47.769531 -70.328125 C 47.769531 -57.285156 26.792969 -48.648438 12.164062 -44.066406 Z M 12.164062 -44.066406 "/></g></g></g><path stroke-linecap="butt" transform="matrix(2.583998, 0, 0, 2.583998, 155.472104, -83.368353)" fill="none" stroke-linejoin="miter" d="M 115.000356 63.152042 C 115.550618 49.528531 104.536315 39.861161 88.551518 39.861161 C 66.055795 39.861161 52.680205 58.098403 52.680205 82.158743 C 52.680205 83.504163 53.806427 84.52003 55.043004 84.52003 C 56.388424 84.52003 57.404291 83.504163 57.404291 82.158743 C 57.404291 61.009952 68.308239 45.025154 88.551518 44.695602 C 101.157648 44.474893 110.605822 51.232226 110.276269 63.152042 C 109.700309 76.198079 96.763114 84.630385 81.464632 85.206346 C 79.679305 85.206346 78.773792 86.332568 78.773792 87.569145 C 78.773792 88.695367 79.679305 89.930432 81.464632 89.930432 C 92.946052 90.040787 95.528049 98.802645 95.528049 108.388384 C 95.528049 116.243217 93.632367 126.707258 93.632367 131.898462 C 93.632367 140.770675 97.670139 146.620984 105.99209 146.620984 C 107.447864 146.620984 108.574087 145.494762 108.574087 144.038987 C 108.574087 142.583213 107.447864 141.786543 105.99209 141.786543 C 100.938451 141.786543 98.575652 138.874994 98.356454 131.898462 C 98.356454 129.070057 100.252135 115.473758 100.252135 108.250818 C 100.252135 99.928867 98.575652 92.403586 92.725343 88.228249 C 105.441828 84.74074 114.533238 75.292566 115.000356 63.152042 Z M 89.237833 53.374316 C 90.364055 52.358448 91.59912 51.670621 92.725343 51.451424 C 93.742722 51.232226 94.75859 50.545911 94.75859 48.760584 C 94.75859 47.524007 93.522013 46.727337 92.149382 46.727337 C 90.583253 46.727337 88.111611 47.853559 86.078364 49.638886 C 80.008857 55.269997 76.959743 66.309999 73.361878 78.450524 C 68.089042 95.671898 61.66126 118.495662 45.924383 118.495662 C 39.744522 118.495662 34.33412 114.6786 34.33412 107.921266 C 34.33412 101.163933 39.744522 94.188913 45.924383 94.188913 C 46.583488 94.188913 47.269803 94.324967 47.847275 94.435321 C 49.522247 94.875228 50.757313 93.638651 50.757313 92.074034 C 50.757313 90.040787 48.835932 89.354472 45.814028 89.354472 C 37.27288 89.354472 29.610033 98.143541 29.610033 107.921266 C 29.610033 117.150242 36.805762 123.219748 46.033226 123.219748 C 64.710375 123.219748 71.686906 100.039222 77.866767 79.795944 C 81.024725 69.5511 84.403392 57.301733 89.237833 53.374316 Z M 89.237833 53.374316 " stroke="#000000" stroke-width="3.656445" stroke-opacity="1" stroke-miterlimit="4"/><g fill="#000000" fill-opacity="1"><g transform="translate(231.982675, 234.463421)"><g><path d="M 220.640625 -154.652344 C 222.09375 -189.828125 193.605469 -214.828125 152.328125 -214.828125 C 94.1875 -214.828125 59.59375 -167.734375 59.59375 -105.523438 C 59.59375 -102.035156 62.5 -99.417969 65.699219 -99.417969 C 69.1875 -99.417969 71.804688 -102.035156 71.804688 -105.523438 C 71.804688 -160.175781 100 -201.453125 152.328125 -202.328125 C 184.886719 -202.910156 209.304688 -185.464844 208.433594 -154.652344 C 206.976562 -120.929688 173.546875 -99.128906 134.011719 -97.675781 C 129.363281 -97.675781 127.035156 -94.769531 127.035156 -91.570312 C 127.035156 -88.664062 129.363281 -85.464844 134.011719 -85.464844 C 163.664062 -85.175781 170.351562 -62.5 170.351562 -37.789062 C 170.351562 -17.441406 165.40625 9.59375 165.40625 22.964844 C 165.40625 45.929688 175.875 61.046875 197.386719 61.046875 C 201.164062 61.046875 204.070312 58.140625 204.070312 54.359375 C 204.070312 50.582031 201.164062 48.546875 197.386719 48.546875 C 184.304688 48.546875 178.199219 40.988281 177.617188 22.964844 C 177.617188 15.699219 182.558594 -19.476562 182.558594 -38.082031 C 182.558594 -59.59375 178.199219 -79.070312 163.082031 -89.828125 C 195.933594 -98.839844 219.476562 -123.257812 220.640625 -154.652344 Z M 154.070312 -179.941406 C 156.976562 -182.558594 160.175781 -184.304688 163.082031 -184.886719 C 165.699219 -185.464844 168.316406 -187.210938 168.316406 -191.863281 C 168.316406 -195.058594 165.117188 -197.09375 161.628906 -197.09375 C 157.558594 -197.09375 151.164062 -194.1875 145.929688 -189.535156 C 130.234375 -175 122.382812 -146.511719 113.082031 -115.117188 C 99.417969 -70.640625 82.847656 -11.628906 42.152344 -11.628906 C 26.164062 -11.628906 12.210938 -21.511719 12.210938 -38.953125 C 12.210938 -56.394531 26.164062 -74.417969 42.152344 -74.417969 C 43.894531 -74.417969 45.640625 -74.128906 47.09375 -73.835938 C 51.453125 -72.675781 54.652344 -75.871094 54.652344 -79.941406 C 54.652344 -85.175781 49.710938 -86.917969 41.859375 -86.917969 C 19.769531 -86.917969 0 -64.246094 0 -38.953125 C 0 -15.117188 18.605469 0.582031 42.441406 0.582031 C 90.699219 0.582031 108.722656 -59.304688 124.710938 -111.628906 C 132.851562 -138.082031 141.570312 -169.769531 154.070312 -179.941406 Z M 154.070312 -179.941406 "/></g></g></g></svg>