<svg xmlns="http://www.w3.org/2000/svg" xmlns:xlink="http://www.w3.org/1999/xlink" width="1500" zoomAndPan="magnify" viewBox="0 0 1125 374.999991" height="500" preserveAspectRatio="xMidYMid meet" version="1.0"><defs><filter x="0%" y="0%" width="100%" height="100%" id="271d4f0152"><feColorMatrix values="0 0 0 0 1 0 0 0 0 1 0 0 0 0 1 0 0 0 1 0" color-interpolation-filters="sRGB"/></filter><g/><mask id="6752c7695d"><g filter="url(#271d4f0152)"><rect x="-112.5" width="1350" fill="#000000" y="-37.499999" height="449.999989" fill-opacity="0.2"/></g></mask><clipPath id="fddd1a01f2"><path d="M 0.238281 0.078125 L 837 0.078125 L 837 246.75 L 0.238281 246.75 Z M 0.238281 0.078125 " clip-rule="nonzero"/></clipPath><clipPath id="573c3f2c7b"><path d="M 29.589844 0.25 L 807.410156 0.25 C 815.164062 0.25 822.597656 3.328125 828.082031 8.8125 C 833.5625 14.292969 836.640625 21.726562 836.640625 29.480469 L 836.640625 217.519531 C 836.640625 225.273438 833.5625 232.707031 828.082031 238.1875 C 822.597656 243.671875 815.164062 246.75 807.410156 246.75 L 29.589844 246.75 C 21.835938 246.75 14.402344 243.671875 8.917969 238.1875 C 3.4375 232.707031 0.359375 225.273438 0.359375 217.519531 L 0.359375 29.480469 C 0.359375 21.726562 3.4375 14.292969 8.917969 8.8125 C 14.402344 3.328125 21.835938 0.25 29.589844 0.25 Z M 29.589844 0.25 " clip-rule="nonzero"/></clipPath><clipPath id="b1ab850096"><rect x="0" width="838" y="0" height="247"/></clipPath></defs><g mask="url(#6752c7695d)"><g transform="matrix(1, 0, 0, 1, 144, 64)"><g clip-path="url(#b1ab850096)"><g clip-path="url(#fddd1a01f2)"><g clip-path="url(#573c3f2c7b)"><path fill="#f05f1b" d="M 0.359375 0.25 L 837.113281 0.25 L 837.113281 246.75 L 0.359375 246.75 Z M 0.359375 0.25 " fill-opacity="1" fill-rule="nonzero"/></g></g></g></g></g><g fill="#eb5e28" fill-opacity="1"><g transform="translate(442.097504, 264.665169)"><g><path d="M 63.808594 -41.949219 C 61.867188 -42.65625 59.753906 -41.773438 58.871094 -40.011719 C 49 -17.273438 37.722656 -7.050781 23.265625 -7.402344 C 12.691406 -7.753906 7.050781 -13.925781 7.402344 -23.972656 C 7.578125 -27.671875 8.109375 -31.023438 9.34375 -35.605469 C 28.90625 -40.363281 55.171875 -51.644531 55.171875 -70.328125 C 55.171875 -78.789062 49 -83.375 40.1875 -83.375 C 19.390625 -83.375 1.058594 -46.710938 0 -24.148438 C -0.351562 -9.695312 8.460938 0 23.089844 0 C 40.894531 0 54.289062 -11.632812 65.746094 -37.015625 C 65.921875 -37.542969 66.097656 -37.898438 66.097656 -38.425781 C 66.097656 -39.835938 65.21875 -41.246094 63.808594 -41.949219 Z M 12.164062 -44.066406 C 17.804688 -57.636719 28.027344 -75.96875 40.1875 -75.96875 C 44.066406 -75.96875 47.769531 -75.089844 47.769531 -70.328125 C 47.769531 -57.285156 26.792969 -48.648438 12.164062 -44.066406 Z M 12.164062 -44.066406 "/></g></g></g><g fill="#eb5e28" fill-opacity="1"><g transform="translate(497.972465, 264.665169)"><g><path d="M 58.167969 -31.199219 C 57.992188 -43.183594 53.230469 -49.355469 44.066406 -66.277344 C 49.53125 -72.445312 53.9375 -80.199219 53.9375 -87.25 C 53.585938 -92.363281 50.589844 -96.417969 45.476562 -96.417969 C 38.25 -96.417969 32.609375 -88.660156 32.609375 -79.496094 C 32.609375 -75.441406 33.667969 -71.5625 35.253906 -67.863281 C 33.136719 -65.746094 31.375 -63.808594 29.261719 -61.339844 C 28.730469 -60.636719 28.378906 -59.753906 28.378906 -59.046875 C 28.378906 -57.992188 28.730469 -56.757812 29.613281 -56.050781 C 30.316406 -55.347656 31.375 -55.171875 32.257812 -55.171875 C 33.3125 -55.171875 34.371094 -55.699219 35.078125 -56.582031 C 36.132812 -57.992188 37.367188 -59.402344 38.601562 -60.636719 C 47.945312 -44.242188 50.589844 -39.128906 50.765625 -31.375 C 50.410156 -16.746094 40.1875 -7.402344 25.910156 -7.402344 C 15.6875 -7.402344 6.699219 -14.984375 6.699219 -25.734375 C 7.402344 -36.488281 13.75 -44.59375 23.441406 -44.59375 C 28.027344 -44.59375 32.433594 -40.1875 32.785156 -34.195312 C 32.785156 -32.082031 34.371094 -30.492188 36.488281 -30.492188 C 38.601562 -30.492188 40.1875 -32.082031 40.1875 -34.195312 C 39.835938 -43.890625 32.433594 -52 23.265625 -52 C 9.164062 -52 0.351562 -41.597656 -0.703125 -25.734375 C -0.703125 -11.457031 11.28125 0 25.910156 0 C 43.714844 0 57.816406 -12.164062 58.167969 -31.199219 Z M 40.894531 -74.03125 C 40.363281 -75.96875 40.011719 -77.734375 40.011719 -79.671875 C 40.011719 -82.140625 40.539062 -85.3125 42.65625 -87.425781 C 44.417969 -89.191406 46.359375 -89.71875 46.359375 -87.25 C 46.359375 -83.375 43.714844 -77.910156 40.894531 -74.03125 Z M 40.894531 -74.03125 "/></g></g></g><g fill="#eb5e28" fill-opacity="1"><g transform="translate(565.833224, 264.665169)"><g><path d="M 78.789062 -41.949219 C 78.261719 -42.128906 77.734375 -42.304688 77.203125 -42.304688 C 75.792969 -42.304688 74.382812 -41.421875 73.855469 -40.011719 C 63.808594 -17.449219 56.933594 -7.402344 48.472656 -7.402344 C 44.769531 -7.402344 43.183594 -9.695312 43.183594 -14.804688 C 43.183594 -19.566406 47.238281 -33.84375 53.9375 -52 C 56.582031 -59.046875 59.929688 -68.566406 63.808594 -78.789062 C 64.6875 -81.082031 62.925781 -83.726562 60.105469 -83.726562 C 58.695312 -83.726562 57.285156 -82.84375 56.757812 -81.433594 C 47.589844 -56.40625 41.070312 -37.722656 34.902344 -25.382812 C 29.082031 -13.394531 21.855469 -7.402344 14.628906 -7.402344 C 8.285156 -7.402344 4.933594 -11.105469 4.933594 -18.332031 C 4.933594 -25.382812 6.875 -29.082031 25.558594 -78.789062 C 26.441406 -81.082031 25.03125 -83.726562 22.03125 -83.726562 C 20.621094 -83.726562 19.210938 -82.84375 18.683594 -81.433594 C 1.761719 -37.542969 -2.46875 -27.144531 -2.46875 -18.332031 C -2.46875 -6.34375 3.347656 0 14.453125 0 L 14.628906 0 C 22.5625 0 30.671875 -5.289062 35.78125 -12.515625 C 36.839844 -4.757812 40.71875 0 48.472656 0 C 60.28125 0 69.097656 -10.753906 80.554688 -37.015625 C 80.730469 -37.542969 80.90625 -38.074219 80.90625 -38.601562 C 80.90625 -40.011719 80.023438 -41.246094 78.789062 -41.949219 Z M 78.789062 -41.949219 "/></g></g></g><g fill="#eb5e28" fill-opacity="1"><g transform="translate(636.514163, 264.665169)"><g><path d="M 118.980469 -38.601562 C 118.980469 -40.539062 117.039062 -42.304688 115.277344 -42.304688 C 113.867188 -42.304688 112.28125 -41.421875 111.753906 -40.011719 C 102.234375 -17.804688 95.183594 -7.402344 86.546875 -7.402344 C 82.84375 -7.402344 81.257812 -9.695312 81.257812 -14.804688 C 81.257812 -29.964844 94.832031 -50.234375 94.832031 -67.15625 C 94.832031 -76.5 90.953125 -83.726562 78.261719 -83.726562 C 69.976562 -83.726562 60.988281 -75.617188 55.875 -67.507812 C 55.875 -76.851562 50.234375 -83.726562 39.660156 -83.726562 C 33.667969 -83.726562 28.027344 -79.671875 22.914062 -73.679688 C 23.441406 -75.441406 23.972656 -76.851562 24.675781 -78.4375 C 25.558594 -80.730469 23.796875 -83.375 21.152344 -83.375 C 19.566406 -83.375 18.15625 -82.492188 17.625 -80.90625 C 8.636719 -55.523438 -0.527344 -30.140625 -9.519531 -4.757812 C -10.222656 -2.820312 -9.164062 -0.703125 -7.226562 0 C -5.289062 0.527344 -3.171875 -0.351562 -2.46875 -2.46875 L 9.519531 -36.488281 C 10.574219 -39.308594 21.152344 -58.695312 24.324219 -63.457031 C 29.4375 -70.683594 34.722656 -76.324219 39.660156 -76.324219 C 46.003906 -76.324219 48.472656 -72.972656 48.472656 -66.453125 C 48.472656 -60.28125 45.828125 -52.351562 42.128906 -41.597656 C 41.949219 -41.246094 30.316406 -6.699219 30.140625 -6.167969 C 29.261719 -3.878906 31.023438 -1.234375 33.667969 -1.234375 C 35.253906 -1.234375 36.664062 -2.113281 37.191406 -3.703125 C 37.015625 -3.347656 48.824219 -37.898438 49.179688 -38.953125 C 54.289062 -53.230469 68.039062 -76.324219 78.261719 -76.324219 C 85.3125 -76.324219 87.425781 -72.269531 87.425781 -67.15625 C 87.425781 -52.703125 73.679688 -30.847656 73.679688 -14.804688 C 73.679688 -6.167969 77.910156 0 86.546875 0 C 102.234375 0 111.929688 -21.679688 118.449219 -36.488281 C 118.800781 -37.722656 118.980469 -38.074219 118.980469 -38.601562 Z M 118.980469 -38.601562 "/></g></g></g><g fill="#eb5e28" fill-opacity="1"><g transform="translate(745.267635, 264.665169)"><g><path d="M 63.808594 -41.949219 C 61.867188 -42.65625 59.753906 -41.773438 58.871094 -40.011719 C 49 -17.273438 37.722656 -7.050781 23.265625 -7.402344 C 12.691406 -7.753906 7.050781 -13.925781 7.402344 -23.972656 C 7.578125 -27.671875 8.109375 -31.023438 9.34375 -35.605469 C 28.90625 -40.363281 55.171875 -51.644531 55.171875 -70.328125 C 55.171875 -78.789062 49 -83.375 40.1875 -83.375 C 19.390625 -83.375 1.058594 -46.710938 0 -24.148438 C -0.351562 -9.695312 8.460938 0 23.089844 0 C 40.894531 0 54.289062 -11.632812 65.746094 -37.015625 C 65.921875 -37.542969 66.097656 -37.898438 66.097656 -38.425781 C 66.097656 -39.835938 65.21875 -41.246094 63.808594 -41.949219 Z M 12.164062 -44.066406 C 17.804688 -57.636719 28.027344 -75.96875 40.1875 -75.96875 C 44.066406 -75.96875 47.769531 -75.089844 47.769531 -70.328125 C 47.769531 -57.285156 26.792969 -48.648438 12.164062 -44.066406 Z M 12.164062 -44.066406 "/></g></g></g><g fill="#000000" fill-opacity="1"><g transform="translate(434.30732, 256.874983)"><g><path d="M 63.808594 -41.949219 C 61.867188 -42.65625 59.753906 -41.773438 58.871094 -40.011719 C 49 -17.273438 37.722656 -7.050781 23.265625 -7.402344 C 12.691406 -7.753906 7.050781 -13.925781 7.402344 -23.972656 C 7.578125 -27.671875 8.109375 -31.023438 9.34375 -35.605469 C 28.90625 -40.363281 55.171875 -51.644531 55.171875 -70.328125 C 55.171875 -78.789062 49 -83.375 40.1875 -83.375 C 19.390625 -83.375 1.058594 -46.710938 0 -24.148438 C -0.351562 -9.695312 8.460938 0 23.089844 0 C 40.894531 0 54.289062 -11.632812 65.746094 -37.015625 C 65.921875 -37.542969 66.097656 -37.898438 66.097656 -38.425781 C 66.097656 -39.835938 65.21875 -41.246094 63.808594 -41.949219 Z M 12.164062 -44.066406 C 17.804688 -57.636719 28.027344 -75.96875 40.1875 -75.96875 C 44.066406 -75.96875 47.769531 -75.089844 47.769531 -70.328125 C 47.769531 -57.285156 26.792969 -48.648438 12.164062 -44.066406 Z M 12.164062 -44.066406 "/></g></g></g><g fill="#000000" fill-opacity="1"><g transform="translate(490.182282, 256.874983)"><g><path d="M 58.167969 -31.199219 C 57.992188 -43.183594 53.230469 -49.355469 44.066406 -66.277344 C 49.53125 -72.445312 53.9375 -80.199219 53.9375 -87.25 C 53.585938 -92.363281 50.589844 -96.417969 45.476562 -96.417969 C 38.25 -96.417969 32.609375 -88.660156 32.609375 -79.496094 C 32.609375 -75.441406 33.667969 -71.5625 35.253906 -67.863281 C 33.136719 -65.746094 31.375 -63.808594 29.261719 -61.339844 C 28.730469 -60.636719 28.378906 -59.753906 28.378906 -59.046875 C 28.378906 -57.992188 28.730469 -56.757812 29.613281 -56.050781 C 30.316406 -55.347656 31.375 -55.171875 32.257812 -55.171875 C 33.3125 -55.171875 34.371094 -55.699219 35.078125 -56.582031 C 36.132812 -57.992188 37.367188 -59.402344 38.601562 -60.636719 C 47.945312 -44.242188 50.589844 -39.128906 50.765625 -31.375 C 50.410156 -16.746094 40.1875 -7.402344 25.910156 -7.402344 C 15.6875 -7.402344 6.699219 -14.984375 6.699219 -25.734375 C 7.402344 -36.488281 13.75 -44.59375 23.441406 -44.59375 C 28.027344 -44.59375 32.433594 -40.1875 32.785156 -34.195312 C 32.785156 -32.082031 34.371094 -30.492188 36.488281 -30.492188 C 38.601562 -30.492188 40.1875 -32.082031 40.1875 -34.195312 C 39.835938 -43.890625 32.433594 -52 23.265625 -52 C 9.164062 -52 0.351562 -41.597656 -0.703125 -25.734375 C -0.703125 -11.457031 11.28125 0 25.910156 0 C 43.714844 0 57.816406 -12.164062 58.167969 -31.199219 Z M 40.894531 -74.03125 C 40.363281 -75.96875 40.011719 -77.734375 40.011719 -79.671875 C 40.011719 -82.140625 40.539062 -85.3125 42.65625 -87.425781 C 44.417969 -89.191406 46.359375 -89.71875 46.359375 -87.25 C 46.359375 -83.375 43.714844 -77.910156 40.894531 -74.03125 Z M 40.894531 -74.03125 "/></g></g></g><g fill="#000000" fill-opacity="1"><g transform="translate(558.043041, 256.874983)"><g><path d="M 78.789062 -41.949219 C 78.261719 -42.128906 77.734375 -42.304688 77.203125 -42.304688 C 75.792969 -42.304688 74.382812 -41.421875 73.855469 -40.011719 C 63.808594 -17.449219 56.933594 -7.402344 48.472656 -7.402344 C 44.769531 -7.402344 43.183594 -9.695312 43.183594 -14.804688 C 43.183594 -19.566406 47.238281 -33.84375 53.9375 -52 C 56.582031 -59.046875 59.929688 -68.566406 63.808594 -78.789062 C 64.6875 -81.082031 62.925781 -83.726562 60.105469 -83.726562 C 58.695312 -83.726562 57.285156 -82.84375 56.757812 -81.433594 C 47.589844 -56.40625 41.070312 -37.722656 34.902344 -25.382812 C 29.082031 -13.394531 21.855469 -7.402344 14.628906 -7.402344 C 8.285156 -7.402344 4.933594 -11.105469 4.933594 -18.332031 C 4.933594 -25.382812 6.875 -29.082031 25.558594 -78.789062 C 26.441406 -81.082031 25.03125 -83.726562 22.03125 -83.726562 C 20.621094 -83.726562 19.210938 -82.84375 18.683594 -81.433594 C 1.761719 -37.542969 -2.46875 -27.144531 -2.46875 -18.332031 C -2.46875 -6.34375 3.347656 0 14.453125 0 L 14.628906 0 C 22.5625 0 30.671875 -5.289062 35.78125 -12.515625 C 36.839844 -4.757812 40.71875 0 48.472656 0 C 60.28125 0 69.097656 -10.753906 80.554688 -37.015625 C 80.730469 -37.542969 80.90625 -38.074219 80.90625 -38.601562 C 80.90625 -40.011719 80.023438 -41.246094 78.789062 -41.949219 Z M 78.789062 -41.949219 "/></g></g></g><g fill="#000000" fill-opacity="1"><g transform="translate(628.723979, 256.874983)"><g><path d="M 118.980469 -38.601562 C 118.980469 -40.539062 117.039062 -42.304688 115.277344 -42.304688 C 113.867188 -42.304688 112.28125 -41.421875 111.753906 -40.011719 C 102.234375 -17.804688 95.183594 -7.402344 86.546875 -7.402344 C 82.84375 -7.402344 81.257812 -9.695312 81.257812 -14.804688 C 81.257812 -29.964844 94.832031 -50.234375 94.832031 -67.15625 C 94.832031 -76.5 90.953125 -83.726562 78.261719 -83.726562 C 69.976562 -83.726562 60.988281 -75.617188 55.875 -67.507812 C 55.875 -76.851562 50.234375 -83.726562 39.660156 -83.726562 C 33.667969 -83.726562 28.027344 -79.671875 22.914062 -73.679688 C 23.441406 -75.441406 23.972656 -76.851562 24.675781 -78.4375 C 25.558594 -80.730469 23.796875 -83.375 21.152344 -83.375 C 19.566406 -83.375 18.15625 -82.492188 17.625 -80.90625 C 8.636719 -55.523438 -0.527344 -30.140625 -9.519531 -4.757812 C -10.222656 -2.820312 -9.164062 -0.703125 -7.226562 0 C -5.289062 0.527344 -3.171875 -0.351562 -2.46875 -2.46875 L 9.519531 -36.488281 C 10.574219 -39.308594 21.152344 -58.695312 24.324219 -63.457031 C 29.4375 -70.683594 34.722656 -76.324219 39.660156 -76.324219 C 46.003906 -76.324219 48.472656 -72.972656 48.472656 -66.453125 C 48.472656 -60.28125 45.828125 -52.351562 42.128906 -41.597656 C 41.949219 -41.246094 30.316406 -6.699219 30.140625 -6.167969 C 29.261719 -3.878906 31.023438 -1.234375 33.667969 -1.234375 C 35.253906 -1.234375 36.664062 -2.113281 37.191406 -3.703125 C 37.015625 -3.347656 48.824219 -37.898438 49.179688 -38.953125 C 54.289062 -53.230469 68.039062 -76.324219 78.261719 -76.324219 C 85.3125 -76.324219 87.425781 -72.269531 87.425781 -67.15625 C 87.425781 -52.703125 73.679688 -30.847656 73.679688 -14.804688 C 73.679688 -6.167969 77.910156 0 86.546875 0 C 102.234375 0 111.929688 -21.679688 118.449219 -36.488281 C 118.800781 -37.722656 118.980469 -38.074219 118.980469 -38.601562 Z M 118.980469 -38.601562 "/></g></g></g><g fill="#000000" fill-opacity="1"><g transform="translate(737.477451, 256.874983)"><g><path d="M 63.808594 -41.949219 C 61.867188 -42.65625 59.753906 -41.773438 58.871094 -40.011719 C 49 -17.273438 37.722656 -7.050781 23.265625 -7.402344 C 12.691406 -7.753906 7.050781 -13.925781 7.402344 -23.972656 C 7.578125 -27.671875 8.109375 -31.023438 9.34375 -35.605469 C 28.90625 -40.363281 55.171875 -51.644531 55.171875 -70.328125 C 55.171875 -78.789062 49 -83.375 40.1875 -83.375 C 19.390625 -83.375 1.058594 -46.710938 0 -24.148438 C -0.351562 -9.695312 8.460938 0 23.089844 0 C 40.894531 0 54.289062 -11.632812 65.746094 -37.015625 C 65.921875 -37.542969 66.097656 -37.898438 66.097656 -38.425781 C 66.097656 -39.835938 65.21875 -41.246094 63.808594 -41.949219 Z M 12.164062 -44.066406 C 17.804688 -57.636719 28.027344 -75.96875 40.1875 -75.96875 C 44.066406 -75.96875 47.769531 -75.089844 47.769531 -70.328125 C 47.769531 -57.285156 26.792969 -48.648438 12.164062 -44.066406 Z M 12.164062 -44.066406 "/></g></g></g><g fill="#eb5e28" fill-opacity="1"><g transform="translate(244.830599, 247.311313)"><g><path d="M 220.640625 -154.652344 C 222.09375 -189.828125 193.605469 -214.828125 152.328125 -214.828125 C 94.1875 -214.828125 59.59375 -167.734375 59.59375 -105.523438 C 59.59375 -102.035156 62.5 -99.417969 65.699219 -99.417969 C 69.1875 -99.417969 71.804688 -102.035156 71.804688 -105.523438 C 71.804688 -160.175781 100 -201.453125 152.328125 -202.328125 C 184.886719 -202.910156 209.304688 -185.464844 208.433594 -154.652344 C 206.976562 -120.929688 173.546875 -99.128906 134.011719 -97.675781 C 129.363281 -97.675781 127.035156 -94.769531 127.035156 -91.570312 C 127.035156 -88.664062 129.363281 -85.464844 134.011719 -85.464844 C 163.664062 -85.175781 170.351562 -62.5 170.351562 -37.789062 C 170.351562 -17.441406 165.40625 9.59375 165.40625 22.964844 C 165.40625 45.929688 175.875 61.046875 197.386719 61.046875 C 201.164062 61.046875 204.070312 58.140625 204.070312 54.359375 C 204.070312 50.582031 201.164062 48.546875 197.386719 48.546875 C 184.304688 48.546875 178.199219 40.988281 177.617188 22.964844 C 177.617188 15.699219 182.558594 -19.476562 182.558594 -38.082031 C 182.558594 -59.59375 178.199219 -79.070312 163.082031 -89.828125 C 195.933594 -98.839844 219.476562 -123.257812 220.640625 -154.652344 Z M 154.070312 -179.941406 C 156.976562 -182.558594 160.175781 -184.304688 163.082031 -184.886719 C 165.699219 -185.464844 168.316406 -187.210938 168.316406 -191.863281 C 168.316406 -195.058594 165.117188 -197.09375 161.628906 -197.09375 C 157.558594 -197.09375 151.164062 -194.1875 145.929688 -189.535156 C 130.234375 -175 122.382812 -146.511719 113.082031 -115.117188 C 99.417969 -70.640625 82.847656 -11.628906 42.152344 -11.628906 C 26.164062 -11.628906 12.210938 -21.511719 12.210938 -38.953125 C 12.210938 -56.394531 26.164062 -74.417969 42.152344 -74.417969 C 43.894531 -74.417969 45.640625 -74.128906 47.09375 -73.835938 C 51.453125 -72.675781 54.652344 -75.871094 54.652344 -79.941406 C 54.652344 -85.175781 49.710938 -86.917969 41.859375 -86.917969 C 19.769531 -86.917969 0 -64.246094 0 -38.953125 C 0 -15.117188 18.605469 0.582031 42.441406 0.582031 C 90.699219 0.582031 108.722656 -59.304688 124.710938 -111.628906 C 132.851562 -138.082031 141.570312 -169.769531 154.070312 -179.941406 Z M 154.070312 -179.941406 "/></g></g></g><g fill="#000000" fill-opacity="1"><g transform="translate(231.982675, 234.463389)"><g><path d="M 220.640625 -154.652344 C 222.09375 -189.828125 193.605469 -214.828125 152.328125 -214.828125 C 94.1875 -214.828125 59.59375 -167.734375 59.59375 -105.523438 C 59.59375 -102.035156 62.5 -99.417969 65.699219 -99.417969 C 69.1875 -99.417969 71.804688 -102.035156 71.804688 -105.523438 C 71.804688 -160.175781 100 -201.453125 152.328125 -202.328125 C 184.886719 -202.910156 209.304688 -185.464844 208.433594 -154.652344 C 206.976562 -120.929688 173.546875 -99.128906 134.011719 -97.675781 C 129.363281 -97.675781 127.035156 -94.769531 127.035156 -91.570312 C 127.035156 -88.664062 129.363281 -85.464844 134.011719 -85.464844 C 163.664062 -85.175781 170.351562 -62.5 170.351562 -37.789062 C 170.351562 -17.441406 165.40625 9.59375 165.40625 22.964844 C 165.40625 45.929688 175.875 61.046875 197.386719 61.046875 C 201.164062 61.046875 204.070312 58.140625 204.070312 54.359375 C 204.070312 50.582031 201.164062 48.546875 197.386719 48.546875 C 184.304688 48.546875 178.199219 40.988281 177.617188 22.964844 C 177.617188 15.699219 182.558594 -19.476562 182.558594 -38.082031 C 182.558594 -59.59375 178.199219 -79.070312 163.082031 -89.828125 C 195.933594 -98.839844 219.476562 -123.257812 220.640625 -154.652344 Z M 154.070312 -179.941406 C 156.976562 -182.558594 160.175781 -184.304688 163.082031 -184.886719 C 165.699219 -185.464844 168.316406 -187.210938 168.316406 -191.863281 C 168.316406 -195.058594 165.117188 -197.09375 161.628906 -197.09375 C 157.558594 -197.09375 151.164062 -194.1875 145.929688 -189.535156 C 130.234375 -175 122.382812 -146.511719 113.082031 -115.117188 C 99.417969 -70.640625 82.847656 -11.628906 42.152344 -11.628906 C 26.164062 -11.628906 12.210938 -21.511719 12.210938 -38.953125 C 12.210938 -56.394531 26.164062 -74.417969 42.152344 -74.417969 C 43.894531 -74.417969 45.640625 -74.128906 47.09375 -73.835938 C 51.453125 -72.675781 54.652344 -75.871094 54.652344 -79.941406 C 54.652344 -85.175781 49.710938 -86.917969 41.859375 -86.917969 C 19.769531 -86.917969 0 -64.246094 0 -38.953125 C 0 -15.117188 18.605469 0.582031 42.441406 0.582031 C 90.699219 0.582031 108.722656 -59.304688 124.710938 -111.628906 C 132.851562 -138.082031 141.570312 -169.769531 154.070312 -179.941406 Z M 154.070312 -179.941406 "/></g></g></g><g fill="#eb5e28" fill-opacity="1"><g transform="translate(804.788349, 324.873099)"><g><path d="M 53.761719 -129.203125 C 51.820312 -129.90625 49.707031 -128.851562 49.179688 -126.910156 L -1.234375 16.570312 C -1.9375 18.507812 -1.058594 20.621094 0.882812 21.328125 C 2.820312 22.03125 4.933594 20.976562 5.640625 19.035156 L 56.050781 -124.441406 C 56.757812 -126.382812 55.699219 -128.496094 53.761719 -129.203125 Z M 53.761719 -129.203125 "/></g></g></g><g fill="#eb5e28" fill-opacity="1"><g transform="translate(841.450787, 324.873099)"><g><path d="M 15.511719 -31.726562 C 16.214844 -29.789062 18.332031 -28.730469 20.269531 -29.4375 L 77.734375 -51.117188 C 79.671875 -51.820312 80.730469 -53.9375 80.023438 -55.875 C 79.671875 -56.933594 78.789062 -57.636719 77.910156 -57.992188 L 32.960938 -77.910156 C 31.023438 -78.789062 28.90625 -77.910156 28.027344 -76.144531 C 27.144531 -74.207031 28.027344 -71.917969 29.964844 -71.210938 L 66.628906 -54.820312 L 17.625 -36.488281 C 15.6875 -35.78125 14.804688 -33.667969 15.511719 -31.726562 Z M 15.511719 -31.726562 "/></g></g></g><g fill="#000000" fill-opacity="1"><g transform="translate(796.998189, 317.082913)"><g><path d="M 53.761719 -129.203125 C 51.820312 -129.90625 49.707031 -128.851562 49.179688 -126.910156 L -1.234375 16.570312 C -1.9375 18.507812 -1.058594 20.621094 0.882812 21.328125 C 2.820312 22.03125 4.933594 20.976562 5.640625 19.035156 L 56.050781 -124.441406 C 56.757812 -126.382812 55.699219 -128.496094 53.761719 -129.203125 Z M 53.761719 -129.203125 "/></g></g></g><g fill="#000000" fill-opacity="1"><g transform="translate(833.660628, 317.082913)"><g><path d="M 15.511719 -31.726562 C 16.214844 -29.789062 18.332031 -28.730469 20.269531 -29.4375 L 77.734375 -51.117188 C 79.671875 -51.820312 80.730469 -53.9375 80.023438 -55.875 C 79.671875 -56.933594 78.789062 -57.636719 77.910156 -57.992188 L 32.960938 -77.910156 C 31.023438 -78.789062 28.90625 -77.910156 28.027344 -76.144531 C 27.144531 -74.207031 28.027344 -71.917969 29.964844 -71.210938 L 66.628906 -54.820312 L 17.625 -36.488281 C 15.6875 -35.78125 14.804688 -33.667969 15.511719 -31.726562 Z M 15.511719 -31.726562 "/></g></g></g><g fill="#eb5e28" fill-opacity="1"><g transform="translate(143.26959, 220.412996)"><g><path d="M 80.023438 -75.792969 C 79.320312 -77.734375 77.203125 -78.789062 75.265625 -78.085938 L 17.804688 -56.40625 C 15.863281 -55.699219 14.804688 -53.585938 15.511719 -51.644531 C 15.863281 -50.589844 16.746094 -49.882812 17.625 -49.53125 L 62.574219 -29.613281 C 64.511719 -28.730469 66.628906 -29.613281 67.507812 -31.375 C 68.390625 -33.3125 67.507812 -35.605469 65.570312 -36.3125 L 28.90625 -52.703125 L 77.910156 -71.035156 C 79.847656 -71.738281 80.730469 -73.855469 80.023438 -75.792969 Z M 80.023438 -75.792969 "/></g></g></g><g fill="#000000" fill-opacity="1"><g transform="translate(135.479404, 212.622811)"><g><path d="M 80.023438 -75.792969 C 79.320312 -77.734375 77.203125 -78.789062 75.265625 -78.085938 L 17.804688 -56.40625 C 15.863281 -55.699219 14.804688 -53.585938 15.511719 -51.644531 C 15.863281 -50.589844 16.746094 -49.882812 17.625 -49.53125 L 62.574219 -29.613281 C 64.511719 -28.730469 66.628906 -29.613281 67.507812 -31.375 C 68.390625 -33.3125 67.507812 -35.605469 65.570312 -36.3125 L 28.90625 -52.703125 L 77.910156 -71.035156 C 79.847656 -71.738281 80.730469 -73.855469 80.023438 -75.792969 Z M 80.023438 -75.792969 "/></g></g></g></svg>