<svg xmlns="http://www.w3.org/2000/svg" xmlns:xlink="http://www.w3.org/1999/xlink" width="1280" zoomAndPan="magnify" viewBox="0 0 960 599.999999" height="800" preserveAspectRatio="xMidYMid meet" version="1.0"><defs><clipPath id="9b298b97b9"><path d="M 0 0 L 396.546875 0 L 396.546875 367 L 0 367 Z M 0 0 " clip-rule="nonzero"/></clipPath></defs><path fill="#f1f1f1" d="M 38.011719 306.148438 C -41.492188 306.148438 -116.238281 275.1875 -172.457031 218.96875 C -228.675781 162.75 -259.636719 88.003906 -259.636719 8.5 C -259.636719 -71.003906 -228.675781 -145.753906 -172.457031 -201.96875 C -116.238281 -258.1875 -41.492188 -289.148438 38.011719 -289.148438 C 117.515625 -289.148438 192.261719 -258.1875 248.480469 -201.96875 C 304.699219 -145.753906 335.660156 -71.003906 335.660156 8.5 C 335.660156 88.003906 304.699219 162.75 248.480469 218.96875 C 192.261719 275.191406 117.515625 306.148438 38.011719 306.148438 Z M 38.011719 -286.332031 C -124.554688 -286.332031 -256.816406 -154.070312 -256.816406 8.5 C -256.816406 171.070312 -124.558594 303.332031 38.011719 303.332031 C 200.582031 303.332031 332.839844 171.070312 332.839844 8.5 C 332.839844 -154.070312 200.582031 -286.332031 38.011719 -286.332031 Z M 38.011719 -286.332031 " fill-opacity="1" fill-rule="nonzero"/><path fill="#f1f1f1" d="M 38.011719 238.25 C -88.671875 238.25 -191.738281 135.183594 -191.738281 8.496094 C -191.738281 -118.1875 -88.671875 -221.25 38.011719 -221.25 C 164.695312 -221.25 267.761719 -118.1875 267.761719 8.496094 C 267.757812 135.183594 164.695312 238.25 38.011719 238.25 Z M 38.011719 -219.074219 C -87.46875 -219.074219 -189.558594 -116.984375 -189.558594 8.5 C -189.558594 133.984375 -87.46875 236.074219 38.011719 236.074219 C 163.496094 236.074219 265.582031 133.984375 265.582031 8.5 C 265.582031 -116.984375 163.496094 -219.074219 38.011719 -219.074219 Z M 38.011719 -219.074219 " fill-opacity="1" fill-rule="nonzero"/><g clip-path="url(#9b298b97b9)"><path fill="#f1f1f1" d="M 38.011719 366.960938 C -57.734375 366.960938 -147.753906 329.675781 -215.460938 261.96875 C -283.164062 194.265625 -320.449219 104.25 -320.449219 8.496094 C -320.449219 -87.25 -283.164062 -177.269531 -215.460938 -244.972656 C -147.753906 -312.675781 -57.734375 -349.964844 38.011719 -349.964844 C 133.761719 -349.964844 223.777344 -312.675781 291.484375 -244.972656 C 359.1875 -177.265625 396.472656 -87.25 396.472656 8.5 C 396.472656 104.25 359.1875 194.265625 291.484375 261.972656 C 223.777344 329.675781 133.761719 366.960938 38.011719 366.960938 Z M 38.011719 -346.566406 C -157.769531 -346.566406 -317.050781 -187.285156 -317.050781 8.5 C -317.050781 204.28125 -157.769531 363.570312 38.011719 363.570312 C 233.796875 363.570312 393.078125 204.28125 393.078125 8.496094 C 393.078125 -187.285156 233.796875 -346.566406 38.011719 -346.566406 Z M 38.011719 -346.566406 " fill-opacity="1" fill-rule="nonzero"/></g></svg>