<svg xmlns="http://www.w3.org/2000/svg" xmlns:xlink="http://www.w3.org/1999/xlink" width="1500" zoomAndPan="magnify" viewBox="0 0 1125 374.999991" height="500" preserveAspectRatio="xMidYMid meet" version="1.0"><defs><clipPath id="3b4f933dae"><path d="M 108 112 L 1067.925781 112 L 1067.925781 263 L 108 263 Z M 108 112 " clip-rule="nonzero"/></clipPath><clipPath id="b98d01bfd7"><path d="M 441.464844 155.539062 C 436.429688 153.320312 423.867188 154.28125 414.960938 153.558594 C 414.691406 154.039062 415.441406 154.128906 416.191406 154.191406 C 416.761719 155.660156 409.984375 152.359375 411.09375 155.148438 C 406.417969 155.328125 398.503906 153.949219 395.894531 155.179688 C 400.960938 155.359375 406.027344 155.539062 411.066406 155.71875 C 415.441406 154.757812 416.910156 156.109375 421.199219 155.507812 C 421.859375 155.417969 417.992188 154.398438 417.421875 154.789062 C 419.730469 153.171875 426.054688 155.148438 433.878906 154.730469 C 434.058594 155.988281 429.382812 154.878906 427.554688 155.148438 C 426.386719 156.738281 437.269531 155.148438 441.464844 155.539062 Z M 405.21875 142.796875 C 402.851562 141.566406 415.351562 142.796875 419.128906 142.707031 C 419.21875 142.347656 419.339844 142.015625 420.417969 142.167969 C 419.820312 144.625 409.804688 142.347656 405.21875 142.796875 Z M 415.082031 150.113281 C 421.378906 150.683594 424.554688 148.914062 427.703125 151.132812 C 423.867188 150.621094 416.792969 151.492188 415.082031 150.113281 Z M 369.449219 152.421875 C 371.9375 152 384.351562 150.832031 390.945312 152.691406 C 383.390625 153.410156 377.84375 154.578125 369.449219 152.421875 Z M 664.167969 148.285156 C 664.136719 149.0625 664.796875 149.542969 665.484375 149.960938 C 661.527344 149.933594 655.710938 146.363281 650.40625 148.851562 C 651.484375 148.34375 654.332031 149.242188 654.183594 149.273438 C 650.226562 149.722656 645.128906 149.871094 641.230469 150.171875 C 637.332031 150.441406 634.636719 150.953125 635.472656 152.242188 C 632.238281 150.652344 625.761719 151.191406 622.882812 150.832031 C 625.101562 150.503906 622.3125 150.230469 621.59375 149.722656 C 630.136719 149.902344 639.042969 149.933594 644.167969 149.121094 C 644.140625 148.34375 641.949219 148.671875 641.652344 148.074219 C 652.144531 147.054688 688.992188 148.882812 664.167969 148.285156 Z M 599.015625 150.863281 C 592.570312 151.222656 571.015625 150.832031 587.714844 150.410156 C 591.222656 149.601562 596.679688 150.441406 600.246094 148.523438 C 604.953125 149.902344 616.707031 147.832031 617.84375 150.953125 C 613.828125 149.722656 592.960938 153.320312 599.015625 150.863281 Z M 457.925781 154.820312 C 463.621094 154.667969 467.308594 154.039062 470.546875 155.71875 C 466.738281 155.269531 459.664062 156.167969 457.925781 154.820312 Z M 539.953125 146.035156 C 544.179688 146.425781 549.128906 146.484375 551.257812 147.804688 C 545.710938 148.042969 542.441406 147.203125 539.953125 146.035156 Z M 321.152344 140.039062 C 321.808594 138.929688 327.328125 138.988281 332.542969 139.378906 C 337.789062 139.738281 342.765625 140.429688 342.316406 140.667969 C 335.152344 140.488281 326.488281 139.378906 321.152344 140.039062 Z M 493.394531 147.953125 C 499.808594 147.324219 508.804688 147.953125 514.800781 147.113281 C 511.472656 148.851562 498.429688 149.003906 493.394531 147.953125 Z M 275.160156 144.386719 C 269.433594 143.9375 264.035156 143.246094 257.832031 141.269531 C 270.664062 143.695312 285.683594 143.214844 294.617188 145.765625 C 286.941406 144.984375 280.855469 144.867188 275.160156 144.386719 Z M 218.433594 131.792969 C 219.035156 132.0625 219.632812 132.332031 220.203125 132.574219 C 219.363281 132.394531 218.40625 132.242188 218.433594 131.792969 Z M 220.773438 132.691406 C 220.683594 132.691406 220.59375 132.691406 220.472656 132.664062 C 220.382812 132.632812 220.292969 132.601562 220.234375 132.542969 C 220.414062 132.601562 220.59375 132.632812 220.773438 132.691406 Z M 311.015625 142.285156 C 309.367188 140.636719 293.566406 141.507812 297.554688 139.589844 C 297.914062 140.636719 314.164062 140.277344 311.015625 142.285156 Z M 246.199219 134.492188 C 250.273438 135.0625 253.960938 135.660156 255.792969 136.980469 C 248.085938 135.839844 239.453125 134.820312 234.207031 132.722656 C 237.683594 133.503906 242.148438 133.921875 246.199219 134.492188 Z M 205.394531 129.246094 C 208.960938 130.175781 215.738281 130.144531 217.234375 131.613281 C 213.636719 130.804688 206.832031 130.773438 205.394531 129.246094 Z M 186.445312 127.925781 C 175.59375 125.648438 164.796875 123.007812 152.175781 120.878906 C 155.324219 120.371094 159.371094 120.582031 163.839844 121.148438 C 168.335938 121.71875 173.375 122.5 178.410156 123.398438 C 163.898438 119.382812 147.917969 119.113281 132.71875 115.574219 C 130.378906 114.765625 133.046875 113.023438 131.191406 112.15625 C 125.164062 111.675781 123.542969 115.125 117.128906 114.34375 C 118.238281 116.234375 123.15625 117.402344 125.671875 119.050781 C 123.09375 116.863281 126.992188 117.28125 128.730469 116.894531 C 131.21875 117.492188 131.910156 118.421875 132.539062 119.351562 C 131.640625 117.582031 137.15625 118.332031 142.792969 119.261719 C 145.820312 122.769531 138.714844 121.71875 136.644531 124.296875 C 138.503906 125.675781 142.613281 126.578125 146.148438 127.597656 C 149.6875 128.617188 152.6875 129.636719 152.207031 131.554688 C 155.144531 131.734375 158.5625 132.332031 161.980469 132.902344 C 165.367188 133.441406 168.757812 133.863281 171.515625 133.832031 C 169.777344 131.734375 165.097656 132.964844 162.039062 131.945312 C 167.136719 130.894531 173.402344 130.714844 180.417969 131.285156 C 183.957031 131.492188 187.675781 131.855469 191.542969 132.332031 C 193.460938 132.574219 195.4375 132.84375 197.417969 133.144531 C 199.425781 133.414062 201.464844 133.710938 203.535156 133.980469 C 219.964844 136.53125 238.074219 139.707031 254.144531 141.476562 C 239.183594 137.941406 230.308594 136.832031 220.503906 132.691406 C 207.972656 132.125 197.207031 130.175781 186.445312 127.925781 Z M 164.828125 130.175781 C 161.921875 129.964844 157.183594 131.644531 154.003906 129.003906 C 157.332031 129.546875 163.269531 128.796875 164.828125 130.175781 Z M 229.558594 130.984375 C 225.03125 130.144531 217.027344 128.707031 210.429688 128.285156 C 213.367188 126.605469 231.625 130.503906 229.558594 130.984375 Z M 283.972656 139.078125 C 287.242188 139.347656 290.539062 139.617188 293.808594 139.859375 C 294.855469 142.675781 284.574219 139.019531 283.824219 140.789062 C 285.863281 141.027344 295.007812 141.359375 291.167969 141.957031 C 281.605469 141.238281 258.851562 139.347656 259.359375 138.480469 C 261.519531 138.390625 266.433594 139.917969 266.734375 138.660156 C 264.425781 137.28125 260.019531 136.589844 257.230469 135.363281 C 261.070312 133.5625 264.457031 138.390625 268.203125 136.472656 C 269.222656 135 262.386719 136.351562 263.4375 134.851562 C 269.011719 135.453125 274.589844 135.992188 279.925781 136.679688 C 285.261719 137.308594 290.421875 137.96875 295.1875 138.808594 C 291.710938 139.078125 286.492188 138.300781 283.972656 139.078125 Z M 173.582031 117.132812 C 171.664062 116.382812 169.6875 115.875 167.675781 115.515625 C 165.699219 115.125 163.777344 114.792969 161.980469 114.523438 C 158.414062 113.984375 155.414062 113.535156 154.09375 112.425781 C 161.410156 113.355469 166.566406 112.753906 173.222656 112.933594 C 174.273438 114.765625 175.261719 115.8125 173.582031 117.132812 Z M 368.042969 155.269531 C 372.480469 155.359375 376.136719 155.75 378.117188 156.859375 C 373.679688 156.769531 370.019531 156.347656 368.042969 155.269531 Z M 830.171875 227.855469 C 838.386719 226.863281 847.082031 225.574219 852.328125 226.355469 C 845.042969 226.773438 836.320312 228.0625 830.171875 227.855469 Z M 877.0625 168.699219 C 872.746094 168.550781 868.546875 168.339844 865.371094 167.472656 C 868.910156 167.742188 880.75 165.882812 879.402344 167.203125 C 877.542969 167.5625 874.726562 167.652344 874.453125 168.492188 C 876.222656 168.191406 879.3125 167.921875 877.0625 168.699219 Z M 909.234375 201.410156 C 917.238281 199.609375 923.355469 199.882812 911.871094 201.558594 C 906.265625 202.21875 897.511719 204.5 893.851562 203.71875 C 897.179688 204.019531 897.511719 200.871094 898.890625 202.398438 C 898.109375 202.550781 897.390625 202.699219 897.691406 203.148438 C 900.207031 200.992188 904.316406 201.917969 909.234375 201.410156 Z M 115.390625 203.71875 C 114.941406 204.679688 110.890625 203 109.902344 203.539062 C 124.535156 209.085938 127.863281 218.320312 123.035156 224.046875 C 131.488281 225.664062 134.097656 228.152344 136.796875 230.761719 C 139.496094 233.339844 142.28125 235.949219 151.097656 237.179688 C 154.273438 237.957031 149.296875 238.40625 148.070312 238.347656 C 154.605469 239.335938 162.28125 240.503906 170.585938 241.792969 C 178.859375 243.113281 187.734375 244.253906 196.699219 245.511719 C 214.628906 247.792969 233.007812 249.828125 247.757812 250.789062 C 250.09375 249.859375 247.695312 250.039062 247.996094 248.480469 C 296.835938 252.347656 344.597656 255.585938 391.457031 258.285156 C 438.347656 261.101562 485.296875 263.140625 532.007812 262.332031 C 544.691406 262.09375 557.011719 261.703125 569.726562 261.132812 C 626.929688 258.945312 685.8125 256.125 741.699219 249.980469 C 747.515625 249.320312 755.550781 248.511719 763.644531 247.851562 C 771.738281 247.191406 779.953125 246.683594 786.070312 246.351562 C 787.597656 246.113281 787.089844 245.183594 787.210938 244.492188 C 790.835938 245.300781 798.632812 243.714844 804.238281 243.414062 C 804.808594 242.453125 791.617188 244.074219 788.410156 243.234375 C 791.738281 241.792969 799.023438 242.722656 807.957031 241.316406 C 805.347656 240.566406 801.0625 240.777344 797.375 240.625 C 804.628906 238.675781 810.625 238.226562 817.160156 237.898438 C 823.695312 237.597656 830.800781 237.085938 840.277344 235.410156 C 843.09375 235.347656 842.644531 234.300781 842.675781 233.371094 C 852.058594 232.261719 859.703125 232.378906 870.046875 230.550781 C 863.542969 229.382812 853.859375 229.773438 843.125 230.941406 C 832.390625 232.082031 820.636719 233.941406 809.90625 234.71875 C 813.863281 233.820312 818.269531 233.160156 822.917969 232.441406 C 827.5625 231.691406 832.480469 231.03125 837.457031 230.371094 C 847.410156 229.054688 857.695312 227.945312 866.808594 226.324219 C 857.246094 226.445312 847.53125 227.195312 838.417969 228.332031 C 829.304688 229.441406 820.789062 230.972656 813.5625 232.050781 C 812.0625 230.433594 816.351562 230.730469 818.628906 230.402344 C 810.476562 230.640625 788.320312 233.519531 782.351562 234.570312 C 780.851562 233.96875 778.574219 233.578125 776.144531 233.28125 C 773.71875 232.980469 771.167969 232.800781 769.128906 232.800781 C 764.664062 235.527344 746.226562 235.617188 734.234375 237.269531 C 738.308594 234.960938 747.992188 234.660156 756.148438 233.820312 C 756.507812 233.398438 752.910156 233.191406 752.222656 233.550781 C 756.480469 231.390625 767.871094 230.613281 779.953125 229.710938 C 792.007812 228.691406 804.75 227.792969 811.613281 225.875 L 820.039062 225.035156 L 828.433594 224.046875 C 838.175781 222.9375 829.601562 222.875 824.476562 223.925781 C 813.113281 225.003906 804.660156 226.324219 796.023438 226.835938 C 801.121094 226.203125 808.226562 224.796875 815.453125 223.355469 C 819.078125 222.667969 822.707031 221.828125 826.15625 221.078125 C 829.601562 220.328125 832.871094 219.640625 835.6875 219.097656 C 837.039062 218.859375 855.867188 217.058594 847.230469 217.121094 C 842.074219 217.089844 836.46875 218.019531 830.742188 218.917969 C 825.015625 219.820312 819.199219 220.75 813.652344 220.449219 C 818.058594 219.699219 823.964844 216.429688 829.003906 217.570312 C 833.949219 215.679688 840.304688 214.242188 847.5 213.042969 C 854.667969 211.8125 862.671875 211.003906 870.855469 209.863281 C 879.042969 208.785156 887.40625 207.796875 895.382812 206.65625 C 899.371094 206.085938 903.238281 205.515625 906.925781 204.828125 C 910.613281 204.078125 914.089844 203.300781 917.328125 202.460938 C 919.726562 201.917969 930.039062 200.691406 926.203125 200.359375 C 905.90625 204.648438 884.230469 207.554688 862.164062 210.644531 C 865.550781 208.90625 872.175781 208.007812 878.710938 207.105469 C 878.621094 205.699219 864.800781 207.285156 874.546875 205.367188 C 871.667969 205.457031 868.1875 205.726562 864.261719 206.117188 C 860.332031 206.507812 855.957031 206.835938 851.398438 207.347656 C 842.253906 208.304688 832.242188 209.535156 823.097656 210.703125 C 827.925781 209.144531 834.820312 207.644531 842.675781 206.265625 C 846.601562 205.578125 850.738281 204.917969 854.996094 204.257812 C 857.125 203.929688 859.253906 203.628906 861.414062 203.300781 C 863.542969 202.9375 865.699219 202.578125 867.828125 202.25 C 884.886719 199.402344 901.046875 196.941406 906.984375 194.84375 C 912.441406 194.15625 918.316406 193.195312 922.453125 193.40625 C 926.953125 191.15625 917.417969 193.015625 914.628906 193.554688 C 920.597656 190.648438 919.667969 191.457031 927.070312 189.6875 C 923.925781 187.949219 915.140625 192.746094 906.714844 193.136719 C 919.15625 192.445312 904.855469 195.175781 901.527344 193.34375 C 903.085938 192.867188 908.632812 191.214844 914.058594 190.136719 C 913.699219 188.90625 908.632812 190.796875 906.355469 190.855469 C 915.167969 187.078125 936.90625 184.589844 944.042969 182.132812 C 946.710938 182.070312 953.933594 179.855469 947.730469 180.902344 C 936.726562 182.640625 918.136719 187.886719 913.402344 186.148438 C 918.765625 184.53125 924.644531 182.972656 930.878906 181.472656 C 933.996094 180.722656 937.175781 179.972656 940.445312 179.285156 C 943.683594 178.5625 947.007812 177.875 950.308594 177.09375 C 963.589844 174.039062 977.378906 171.339844 989.941406 169.089844 C 996.957031 167.980469 999.597656 166.003906 991.082031 168.25 C 989.074219 168.492188 991.953125 166.992188 989.582031 167.410156 C 975.101562 169.421875 961.96875 172.117188 948.027344 175.238281 C 941.042969 176.707031 933.816406 178.113281 926.113281 179.613281 C 918.40625 181.082031 910.28125 182.671875 901.347656 184.050781 C 903.988281 182.101562 914.898438 182.164062 917.597656 180.183594 C 915.527344 180.214844 908.785156 181.144531 901.167969 182.253906 C 893.554688 183.269531 885.066406 184.652344 879.582031 186.03125 C 882.519531 184.621094 877.332031 185.820312 870.496094 187.199219 C 867.078125 187.886719 863.242188 188.636719 859.824219 189.085938 C 856.40625 189.476562 853.378906 189.65625 851.578125 189.269531 C 854.667969 188.636719 858.175781 188.007812 861.921875 187.199219 C 865.671875 186.390625 869.71875 185.578125 873.914062 184.859375 C 882.28125 183.390625 891.214844 182.191406 899.699219 181.953125 C 911.152344 178.265625 926.023438 174.066406 942.78125 170.378906 C 951.148438 168.402344 959.960938 166.332031 969.046875 164.503906 C 978.128906 162.644531 987.542969 161.054688 996.929688 159.195312 C 996.597656 158.777344 995.550781 158.898438 995.429688 158.328125 C 1001.695312 156.976562 1024.03125 151.582031 1010.121094 153.859375 C 990.421875 157.609375 935.917969 170.441406 910.042969 173.796875 C 910.433594 174.367188 912.589844 173.765625 912.742188 174.515625 C 905.996094 176.253906 904.195312 174.847656 898.710938 175.625 C 895.5 176.734375 903.804688 175.65625 905.1875 175.777344 C 897.960938 179.3125 888.1875 177.785156 882.28125 177.996094 C 875.054688 178.175781 864.921875 180.453125 855.566406 181.800781 C 846.210938 183.121094 837.699219 183.839844 833.859375 181.472656 C 829.332031 185.910156 824.894531 181.351562 816.140625 183.601562 C 815.722656 185.488281 821.988281 183.332031 822.648438 184.5625 C 823.035156 186.148438 816.113281 184.5 820.1875 185.460938 C 810.023438 184.679688 799.441406 185.851562 788.230469 187.378906 C 782.621094 188.097656 776.894531 188.96875 770.960938 189.476562 C 765.054688 189.957031 758.96875 190.226562 752.699219 190.015625 C 759.265625 188.578125 767.78125 187.707031 776.714844 186.570312 C 785.652344 185.398438 794.976562 184.199219 803.191406 182.550781 C 802.5 181.324219 796.921875 182.941406 794.253906 182.851562 C 798.84375 181.082031 805.617188 180.035156 813.054688 179.253906 C 820.488281 178.382812 828.582031 177.574219 835.808594 176.554688 C 838.328125 176.253906 840.847656 175.957031 843.394531 175.65625 C 846.511719 175.355469 845.464844 174.695312 843.335938 175.085938 C 839.136719 175.597656 834.910156 176.105469 830.710938 176.617188 C 826.875 176.164062 817.878906 178.234375 811.644531 177.664062 C 808.796875 177.636719 809.964844 178.925781 807.988281 179.195312 C 802.558594 179.074219 795.875 179.703125 788.949219 180.484375 C 791.886719 178.503906 800.070312 178.324219 806.546875 177.574219 C 806.878906 175.148438 803.878906 178.085938 800.160156 177.636719 C 798.664062 175.835938 804 176.347656 806.367188 175.867188 C 800.550781 174.875 794.34375 177.363281 788.617188 177.035156 C 798.691406 173.585938 814.703125 174.1875 826.484375 173.046875 C 823.996094 173.976562 819.859375 174.636719 816.230469 175.054688 C 812.605469 175.445312 809.457031 175.566406 808.914062 175.625 C 810.894531 176.074219 813.53125 176.226562 816.53125 176.046875 C 819.53125 175.867188 822.917969 175.445312 826.394531 174.964844 C 833.378906 173.976562 840.875 172.71875 846.84375 172.359375 C 845.402344 171.1875 840.90625 171.878906 836.617188 172.417969 C 837.007812 171.070312 842.792969 171.429688 845.375 170.769531 C 840.007812 169.988281 833.351562 170.558594 826.003906 171.488281 C 822.316406 171.96875 818.480469 172.476562 814.523438 172.988281 C 810.566406 173.40625 806.457031 173.765625 802.351562 173.949219 C 814.820312 170.738281 826.90625 171.96875 836.199219 168.96875 C 840.367188 168.671875 828.375 168.730469 823.578125 169.929688 C 823.007812 169 824.445312 168.730469 825.945312 168.460938 C 823.066406 168.371094 819.621094 168.582031 815.8125 168.96875 C 811.972656 169.332031 807.777344 169.71875 803.398438 170.257812 C 794.644531 171.25 785.230469 172.476562 776.804688 173.019531 C 784.929688 169.480469 802.109375 169.121094 815.660156 167.410156 C 832.210938 165.640625 823.335938 165.492188 811.824219 167.230469 C 819.917969 165.550781 828.105469 164.234375 836.257812 163.125 C 844.414062 161.953125 852.570312 161.054688 860.515625 159.585938 C 856.585938 157.636719 847.382812 159.765625 836.5 160.816406 C 838.65625 159.285156 843.722656 158.71875 848.882812 158.148438 C 840.214844 158.355469 828.671875 159.886719 816.621094 161.566406 C 804.539062 163.09375 791.886719 164.53125 781.152344 165.011719 C 794.375 163.363281 806.21875 160.214844 816.203125 160.90625 C 817.339844 158.238281 823.128906 160.933594 819.710938 158.148438 C 827.175781 157.667969 835.328125 157.128906 843.785156 156.589844 C 848.011719 156.316406 852.296875 156.046875 856.617188 155.71875 C 860.902344 155.300781 865.222656 154.878906 869.507812 154.398438 C 878.082031 153.46875 886.507812 152.359375 894.363281 151.042969 C 902.21875 149.722656 909.472656 147.832031 915.738281 145.855469 C 922.125 144.296875 906.175781 146.304688 905.664062 146.394531 C 898.410156 147.5625 890.195312 148.464844 881.5 149.542969 C 872.804688 150.621094 863.570312 151.761719 854.1875 152.960938 C 844.773438 153.949219 835.179688 155 825.734375 156.109375 C 821.027344 156.679688 816.351562 157.21875 811.792969 157.757812 C 807.207031 158.265625 802.710938 158.746094 798.332031 159.226562 C 801.992188 157.488281 811.253906 157.847656 817.039062 156.707031 C 818 155.988281 815.273438 156.289062 811.765625 156.679688 C 808.285156 157.066406 804.027344 157.609375 801.960938 157.699219 C 806.097656 156.558594 810.445312 155.71875 814.972656 154.789062 C 819.5 153.890625 824.207031 153.082031 829.09375 152.300781 C 833.980469 151.550781 839.015625 150.800781 844.203125 149.992188 C 849.390625 149.183594 854.726562 148.433594 860.152344 147.265625 C 860.0625 146.394531 852.6875 147.503906 858.746094 146.304688 C 850.738281 146.15625 843.542969 146.605469 835.867188 147.472656 C 828.195312 148.285156 820.007812 149.394531 809.964844 149.902344 C 813.203125 148.285156 821.929688 148.285156 827.292969 147.265625 C 838.566406 145.675781 824.175781 146.753906 819.769531 147.59375 C 810.894531 148.914062 802.441406 149.421875 792.1875 150.292969 C 781.933594 151.070312 769.878906 152.179688 753.628906 153.378906 C 754.050781 152.03125 759.777344 152.660156 762.324219 152.121094 C 746.136719 153.140625 727.757812 151.160156 709.617188 152.992188 C 709.828125 155.480469 717.234375 154.101562 722.238281 153.980469 C 710.246094 155.359375 695.105469 156.617188 680.804688 156.648438 C 666.476562 156.558594 652.984375 155.449219 644.320312 152.660156 C 632.597656 153.378906 626.898438 153.109375 614.1875 153.46875 C 610.980469 153.53125 612.660156 153.949219 612.957031 154.667969 C 597.96875 153.949219 580.308594 154.488281 562.949219 155.359375 C 545.589844 156.136719 528.5 156.707031 514.769531 155.898438 C 527.152344 154.609375 536.117188 155.328125 548.796875 154.25 C 547.539062 153.289062 542.980469 153.828125 542.503906 152.480469 C 534.078125 154.640625 521.15625 154.820312 508.113281 154.730469 C 495.070312 154.609375 481.941406 154.460938 473.125 156.410156 C 485.417969 155.390625 493.453125 155.628906 513.539062 155.867188 C 513.992188 156.859375 512.550781 156.949219 510.992188 156.976562 C 521.636719 158.65625 533.328125 156.136719 545.050781 157.699219 C 539.113281 159.40625 532.398438 159.855469 525.472656 159.917969 C 518.546875 159.976562 511.441406 159.675781 504.667969 159.796875 C 486.675781 160.1875 470.335938 160.753906 450.28125 160.484375 C 452.949219 159.644531 456.964844 159.464844 461.703125 159.617188 C 448.75 158.117188 423.65625 160.933594 409.835938 157.515625 C 404.886719 159.078125 394.664062 158.835938 384.769531 158.328125 C 374.878906 157.757812 365.34375 156.949219 361.714844 157.367188 C 360.277344 156.4375 356.5 156.4375 356.796875 154.820312 C 346.15625 155.300781 327.988281 154.398438 319.230469 152.179688 C 325.679688 151.640625 341.449219 152.121094 354.371094 152.960938 C 342.675781 149.722656 324.777344 149.78125 307.058594 147.324219 C 307.390625 148.132812 310.148438 148.011719 311.976562 148.253906 C 289.429688 147.652344 263.796875 147.023438 244.160156 142.765625 C 243.980469 141.179688 248.714844 144.867188 247.9375 142.046875 C 241.640625 141.777344 239.210938 140.160156 233.425781 139.707031 C 233.484375 140.789062 237.503906 140.546875 238.132812 141.449219 C 229.648438 140.609375 221.761719 139.796875 214.085938 139.289062 C 210.28125 138.988281 206.53125 138.6875 202.84375 138.390625 C 199.15625 138.121094 195.5 137.851562 191.871094 137.488281 C 188.242188 137.128906 184.644531 136.769531 180.988281 136.441406 C 177.359375 136.050781 173.761719 135.511719 170.074219 135 C 162.730469 134.011719 155.324219 132.453125 147.5 130.65625 C 142.613281 131.792969 133.347656 129.457031 127.773438 129.964844 C 131.667969 131.492188 127.261719 131.554688 132.449219 131.164062 C 134.128906 134.070312 130.5 135.960938 127.203125 138.238281 C 123.964844 140.488281 120.996094 143.246094 124.265625 148.222656 C 119.738281 148.433594 121.6875 150.441406 118.117188 151.941406 C 126.394531 154.101562 120.125 158.777344 126.121094 161.207031 C 125.523438 161.746094 123.753906 161.355469 122.195312 161.117188 C 120.636719 160.84375 119.257812 160.726562 119.4375 161.894531 C 121.894531 163.0625 119.015625 165.433594 120.304688 168.730469 C 119.167969 169.628906 116.617188 169.332031 113.679688 168.730469 C 113.710938 170.859375 119.105469 172.207031 121.65625 173.828125 C 113.890625 173.527344 118.957031 178.445312 110.980469 178.804688 C 113.050781 184.199219 110.351562 187.378906 109.003906 190.738281 C 108.3125 192.414062 107.984375 194.15625 108.765625 196.253906 C 109.542969 198.140625 111.460938 200.660156 115.390625 203.71875 Z M 777.4375 180.332031 C 777.855469 179.285156 775.425781 179.042969 777.285156 178.59375 C 779.175781 179.945312 790.296875 177.125 790.027344 178.503906 C 787.71875 179.761719 781.722656 179.761719 777.4375 180.332031 Z M 773.65625 180.691406 C 776.265625 181.054688 787.71875 179.402344 783.941406 181.441406 C 782.082031 180.273438 774.40625 182.492188 773.65625 180.691406 Z M 813.382812 193.644531 C 821.835938 193.164062 832.78125 190.765625 837.546875 190.796875 C 837.90625 191.488281 839.675781 191.726562 836.410156 192.085938 C 830.800781 193.226562 827.144531 193.433594 823.367188 193.613281 C 821.476562 193.703125 819.558594 193.765625 817.371094 193.914062 C 815.152344 194.035156 812.664062 194.214844 809.605469 194.574219 C 803.371094 195.023438 810.746094 193.585938 813.382812 193.644531 Z M 611.757812 159.226562 C 617.90625 158.566406 624.589844 160.695312 624.410156 161.234375 C 619.433594 160.933594 615.117188 160.304688 611.757812 159.226562 Z M 595.417969 161.324219 C 599.257812 161.683594 606.242188 160.335938 608.011719 161.625 C 604.203125 161.355469 597.1875 162.644531 595.417969 161.324219 Z M 591.613281 158.445312 C 581.238281 158.027344 569.515625 158.148438 565.136719 156.410156 C 574.851562 157.546875 582.945312 156.410156 591.613281 158.445312 Z M 560.132812 160.515625 C 566.1875 160.933594 576.921875 159.167969 579.050781 161.476562 C 575.992188 160.933594 552.367188 161.65625 560.132812 160.515625 Z M 648.007812 151.820312 C 658.019531 152.242188 674.269531 150.710938 674.539062 155.929688 C 668.214844 154.007812 647.496094 153.351562 648.007812 151.820312 Z M 874.515625 224.617188 C 870.226562 225.183594 861.984375 225.003906 862.640625 224.527344 C 865.789062 224.527344 871.9375 222.488281 873.074219 223.65625 C 870.765625 224.253906 873.707031 224.195312 874.515625 224.617188 Z M 892.59375 169.390625 C 887.105469 170.890625 873.734375 172.898438 873.464844 170.378906 C 878.441406 171.070312 887.675781 167.589844 892.59375 169.390625 Z M 836.167969 179.3125 C 834.878906 178.234375 829.003906 179.972656 828.375 178.503906 L 835.960938 177.574219 C 835.570312 178.65625 837.996094 178.863281 836.167969 179.3125 Z M 481.878906 158.207031 C 484.097656 157.757812 485.839844 156.316406 486.917969 158.296875 C 485.089844 159.554688 483.859375 157.515625 483.109375 158.808594 L 473.007812 158.65625 C 473.605469 157.367188 479.242188 158.507812 481.878906 158.207031 Z M 860.542969 179.253906 C 859.285156 179.433594 858.023438 179.613281 856.734375 179.761719 C 840.007812 181.441406 853.769531 177.457031 860.542969 179.253906 Z M 882.101562 176.734375 C 875.203125 177.066406 864.320312 179.195312 862.941406 177.753906 C 868.820312 177.726562 877.664062 175.804688 882.101562 176.734375 Z M 134.546875 235.5 C 133.4375 234.839844 131.101562 234.71875 128.160156 234.449219 C 125.222656 234.179688 121.683594 233.730469 118.207031 232.378906 C 119.078125 228.214844 135.925781 234.121094 134.546875 235.5 Z M 875.953125 143.125 C 880.570312 142.40625 884.558594 142.136719 887.285156 142.675781 C 882.761719 143.304688 877.511719 144.386719 875.953125 143.125 Z M 1048.136719 132.664062 C 1055.78125 130.59375 1059.46875 129.125 1067.925781 128.226562 C 1059.949219 129.996094 1053.894531 134.101562 1048.136719 132.664062 Z M 987.003906 125.109375 C 992.550781 122.410156 1002.265625 123.667969 987.003906 125.109375 Z M 840.847656 144.957031 C 846.722656 144.625 855.625 142.4375 859.523438 143.15625 C 853.707031 143.695312 844.773438 145.792969 840.847656 144.957031 Z M 685.722656 153.140625 C 692.648438 153.019531 701.3125 151.941406 703.382812 154.398438 C 699.066406 153.171875 686.351562 156.378906 685.722656 153.140625 Z M 956.183594 184.441406 C 954.296875 185.101562 950.816406 186.121094 947.339844 186.839844 C 943.832031 187.527344 940.355469 187.980469 938.40625 187.679688 C 940.023438 186.988281 943.589844 186.121094 947.21875 185.460938 C 950.816406 184.742188 954.445312 184.230469 956.183594 184.441406 Z M 963.679688 210.105469 C 961.96875 211.304688 952.707031 211.332031 949.617188 213.371094 C 948.929688 211.425781 961.820312 209.714844 963.679688 210.105469 Z M 1052.632812 155.390625 C 1043.878906 156.617188 1030.027344 161.953125 1029.789062 159.375 C 1037.824219 159.105469 1047.746094 154.398438 1052.632812 155.390625 Z M 962.78125 177.816406 C 957.804688 177.964844 953.84375 181.113281 951.417969 180.035156 C 952.257812 178.984375 965.835938 176.316406 962.78125 177.816406 Z M 1010.988281 157.667969 C 1015.847656 156.410156 1019.953125 155.300781 1023.941406 154.429688 C 1025.921875 154.007812 1027.898438 153.621094 1029.90625 153.320312 C 1031.886719 152.960938 1033.925781 152.660156 1036.054688 152.449219 C 1052.605469 148.851562 1035.8125 152.75 1027.480469 155.148438 C 1021.574219 156.769531 1014.019531 160.964844 1011.378906 159.347656 C 1018.90625 157.546875 1014.648438 157.457031 1010.988281 157.667969 Z M 1010.988281 157.667969 " clip-rule="nonzero"/></clipPath><linearGradient x1="0.0000176433" gradientTransform="matrix(-2.998126, 0, 0, 2.998126, 1067.924058, 112.095947)" y1="25.087" x2="320.179975" gradientUnits="userSpaceOnUse" y2="25.087" id="5d490e157b"><stop stop-opacity="1" stop-color="rgb(100%, 33.299255%, 0%)" offset="0"/><stop stop-opacity="1" stop-color="rgb(100%, 33.554077%, 0.370789%)" offset="0.00390625"/><stop stop-opacity="1" stop-color="rgb(100%, 33.810425%, 0.741577%)" offset="0.0078125"/><stop stop-opacity="1" stop-color="rgb(100%, 34.066772%, 1.112366%)" offset="0.0117188"/><stop stop-opacity="1" stop-color="rgb(100%, 34.32312%, 1.483154%)" offset="0.015625"/><stop stop-opacity="1" stop-color="rgb(100%, 34.577942%, 1.853943%)" offset="0.0195312"/><stop stop-opacity="1" stop-color="rgb(100%, 34.83429%, 2.224731%)" offset="0.0234375"/><stop stop-opacity="1" stop-color="rgb(100%, 35.090637%, 2.59552%)" offset="0.0273437"/><stop stop-opacity="1" stop-color="rgb(100%, 35.346985%, 2.966309%)" offset="0.03125"/><stop stop-opacity="1" stop-color="rgb(100%, 35.601807%, 3.337097%)" offset="0.0351562"/><stop stop-opacity="1" stop-color="rgb(100%, 35.858154%, 3.707886%)" offset="0.0390625"/><stop stop-opacity="1" stop-color="rgb(100%, 36.114502%, 4.078674%)" offset="0.0429687"/><stop stop-opacity="1" stop-color="rgb(100%, 36.37085%, 4.449463%)" offset="0.046875"/><stop stop-opacity="1" stop-color="rgb(100%, 36.625671%, 4.820251%)" offset="0.0507812"/><stop stop-opacity="1" stop-color="rgb(100%, 36.882019%, 5.19104%)" offset="0.0546875"/><stop stop-opacity="1" stop-color="rgb(100%, 37.138367%, 5.561829%)" offset="0.0585937"/><stop stop-opacity="1" stop-color="rgb(100%, 37.394714%, 5.932617%)" offset="0.0625"/><stop stop-opacity="1" stop-color="rgb(100%, 37.649536%, 6.303406%)" offset="0.0664062"/><stop stop-opacity="1" stop-color="rgb(100%, 37.905884%, 6.674194%)" offset="0.0703125"/><stop stop-opacity="1" stop-color="rgb(100%, 38.162231%, 7.044983%)" offset="0.0742188"/><stop stop-opacity="1" stop-color="rgb(100%, 38.418579%, 7.415771%)" offset="0.078125"/><stop stop-opacity="1" stop-color="rgb(100%, 38.673401%, 7.78656%)" offset="0.0820312"/><stop stop-opacity="1" stop-color="rgb(100%, 38.929749%, 8.157349%)" offset="0.0859375"/><stop stop-opacity="1" stop-color="rgb(100%, 39.186096%, 8.528137%)" offset="0.0898438"/><stop stop-opacity="1" stop-color="rgb(100%, 39.442444%, 8.898926%)" offset="0.09375"/><stop stop-opacity="1" stop-color="rgb(100%, 39.697266%, 9.269714%)" offset="0.0976562"/><stop stop-opacity="1" stop-color="rgb(100%, 39.953613%, 9.640503%)" offset="0.101562"/><stop stop-opacity="1" stop-color="rgb(100%, 40.208435%, 10.011292%)" offset="0.105469"/><stop stop-opacity="1" stop-color="rgb(100%, 40.464783%, 10.38208%)" offset="0.109375"/><stop stop-opacity="1" stop-color="rgb(100%, 40.72113%, 10.752869%)" offset="0.113281"/><stop stop-opacity="1" stop-color="rgb(100%, 40.977478%, 11.123657%)" offset="0.117187"/><stop stop-opacity="1" stop-color="rgb(100%, 41.2323%, 11.494446%)" offset="0.121094"/><stop stop-opacity="1" stop-color="rgb(100%, 41.488647%, 11.865234%)" offset="0.125"/><stop stop-opacity="1" stop-color="rgb(100%, 41.744995%, 12.236023%)" offset="0.128906"/><stop stop-opacity="1" stop-color="rgb(100%, 42.001343%, 12.606812%)" offset="0.132812"/><stop stop-opacity="1" stop-color="rgb(100%, 42.256165%, 12.9776%)" offset="0.136719"/><stop stop-opacity="1" stop-color="rgb(100%, 42.512512%, 13.348389%)" offset="0.140625"/><stop stop-opacity="1" stop-color="rgb(100%, 42.76886%, 13.719177%)" offset="0.144531"/><stop stop-opacity="1" stop-color="rgb(100%, 43.025208%, 14.089966%)" offset="0.148437"/><stop stop-opacity="1" stop-color="rgb(100%, 43.280029%, 14.460754%)" offset="0.152344"/><stop stop-opacity="1" stop-color="rgb(100%, 43.536377%, 14.831543%)" offset="0.15625"/><stop stop-opacity="1" stop-color="rgb(100%, 43.792725%, 15.202332%)" offset="0.160156"/><stop stop-opacity="1" stop-color="rgb(100%, 44.049072%, 15.57312%)" offset="0.164062"/><stop stop-opacity="1" stop-color="rgb(100%, 44.303894%, 15.943909%)" offset="0.167969"/><stop stop-opacity="1" stop-color="rgb(100%, 44.560242%, 16.314697%)" offset="0.171875"/><stop stop-opacity="1" stop-color="rgb(100%, 44.816589%, 16.685486%)" offset="0.175781"/><stop stop-opacity="1" stop-color="rgb(100%, 45.072937%, 17.056274%)" offset="0.179687"/><stop stop-opacity="1" stop-color="rgb(100%, 45.327759%, 17.427063%)" offset="0.183594"/><stop stop-opacity="1" stop-color="rgb(100%, 45.584106%, 17.797852%)" offset="0.1875"/><stop stop-opacity="1" stop-color="rgb(100%, 45.840454%, 18.16864%)" offset="0.191406"/><stop stop-opacity="1" stop-color="rgb(100%, 46.096802%, 18.539429%)" offset="0.195312"/><stop stop-opacity="1" stop-color="rgb(100%, 46.351624%, 18.910217%)" offset="0.199219"/><stop stop-opacity="1" stop-color="rgb(100%, 46.607971%, 19.281006%)" offset="0.203125"/><stop stop-opacity="1" stop-color="rgb(100%, 46.864319%, 19.651794%)" offset="0.207031"/><stop stop-opacity="1" stop-color="rgb(100%, 47.120667%, 20.024109%)" offset="0.210937"/><stop stop-opacity="1" stop-color="rgb(100%, 47.375488%, 20.394897%)" offset="0.214844"/><stop stop-opacity="1" stop-color="rgb(100%, 47.631836%, 20.765686%)" offset="0.21875"/><stop stop-opacity="1" stop-color="rgb(100%, 47.886658%, 21.136475%)" offset="0.222656"/><stop stop-opacity="1" stop-color="rgb(100%, 48.143005%, 21.507263%)" offset="0.226562"/><stop stop-opacity="1" stop-color="rgb(100%, 48.399353%, 21.878052%)" offset="0.230469"/><stop stop-opacity="1" stop-color="rgb(100%, 48.655701%, 22.24884%)" offset="0.234375"/><stop stop-opacity="1" stop-color="rgb(100%, 48.910522%, 22.619629%)" offset="0.238281"/><stop stop-opacity="1" stop-color="rgb(100%, 49.16687%, 22.990417%)" offset="0.242187"/><stop stop-opacity="1" stop-color="rgb(100%, 49.423218%, 23.361206%)" offset="0.246094"/><stop stop-opacity="1" stop-color="rgb(100%, 49.679565%, 23.731995%)" offset="0.25"/><stop stop-opacity="1" stop-color="rgb(100%, 49.934387%, 24.102783%)" offset="0.253906"/><stop stop-opacity="1" stop-color="rgb(100%, 50.190735%, 24.473572%)" offset="0.257812"/><stop stop-opacity="1" stop-color="rgb(100%, 50.447083%, 24.84436%)" offset="0.261719"/><stop stop-opacity="1" stop-color="rgb(100%, 50.70343%, 25.215149%)" offset="0.265625"/><stop stop-opacity="1" stop-color="rgb(100%, 50.958252%, 25.585938%)" offset="0.269531"/><stop stop-opacity="1" stop-color="rgb(100%, 51.2146%, 25.956726%)" offset="0.273437"/><stop stop-opacity="1" stop-color="rgb(100%, 51.470947%, 26.327515%)" offset="0.277344"/><stop stop-opacity="1" stop-color="rgb(100%, 51.727295%, 26.698303%)" offset="0.28125"/><stop stop-opacity="1" stop-color="rgb(100%, 51.982117%, 27.069092%)" offset="0.285156"/><stop stop-opacity="1" stop-color="rgb(100%, 52.238464%, 27.43988%)" offset="0.289062"/><stop stop-opacity="1" stop-color="rgb(100%, 52.494812%, 27.810669%)" offset="0.292969"/><stop stop-opacity="1" stop-color="rgb(100%, 52.75116%, 28.181458%)" offset="0.296875"/><stop stop-opacity="1" stop-color="rgb(100%, 53.005981%, 28.552246%)" offset="0.300781"/><stop stop-opacity="1" stop-color="rgb(100%, 53.262329%, 28.923035%)" offset="0.304687"/><stop stop-opacity="1" stop-color="rgb(100%, 53.518677%, 29.293823%)" offset="0.308594"/><stop stop-opacity="1" stop-color="rgb(100%, 53.775024%, 29.664612%)" offset="0.3125"/><stop stop-opacity="1" stop-color="rgb(100%, 54.029846%, 30.0354%)" offset="0.316406"/><stop stop-opacity="1" stop-color="rgb(100%, 54.286194%, 30.406189%)" offset="0.320312"/><stop stop-opacity="1" stop-color="rgb(100%, 54.541016%, 30.776978%)" offset="0.324219"/><stop stop-opacity="1" stop-color="rgb(100%, 54.797363%, 31.147766%)" offset="0.328125"/><stop stop-opacity="1" stop-color="rgb(100%, 55.053711%, 31.518555%)" offset="0.332031"/><stop stop-opacity="1" stop-color="rgb(100%, 55.310059%, 31.889343%)" offset="0.335937"/><stop stop-opacity="1" stop-color="rgb(100%, 55.56488%, 32.260132%)" offset="0.339844"/><stop stop-opacity="1" stop-color="rgb(100%, 55.821228%, 32.63092%)" offset="0.34375"/><stop stop-opacity="1" stop-color="rgb(100%, 56.077576%, 33.001709%)" offset="0.347656"/><stop stop-opacity="1" stop-color="rgb(100%, 56.333923%, 33.372498%)" offset="0.351562"/><stop stop-opacity="1" stop-color="rgb(100%, 56.588745%, 33.743286%)" offset="0.355469"/><stop stop-opacity="1" stop-color="rgb(100%, 56.845093%, 34.114075%)" offset="0.359375"/><stop stop-opacity="1" stop-color="rgb(100%, 57.10144%, 34.484863%)" offset="0.363281"/><stop stop-opacity="1" stop-color="rgb(100%, 57.357788%, 34.855652%)" offset="0.367187"/><stop stop-opacity="1" stop-color="rgb(100%, 57.61261%, 35.22644%)" offset="0.371094"/><stop stop-opacity="1" stop-color="rgb(100%, 57.868958%, 35.597229%)" offset="0.375"/><stop stop-opacity="1" stop-color="rgb(100%, 58.125305%, 35.968018%)" offset="0.378906"/><stop stop-opacity="1" stop-color="rgb(100%, 58.381653%, 36.338806%)" offset="0.382812"/><stop stop-opacity="1" stop-color="rgb(100%, 58.636475%, 36.709595%)" offset="0.386719"/><stop stop-opacity="1" stop-color="rgb(100%, 58.892822%, 37.080383%)" offset="0.390625"/><stop stop-opacity="1" stop-color="rgb(100%, 59.14917%, 37.451172%)" offset="0.394531"/><stop stop-opacity="1" stop-color="rgb(100%, 59.405518%, 37.82196%)" offset="0.398437"/><stop stop-opacity="1" stop-color="rgb(100%, 59.660339%, 38.192749%)" offset="0.402344"/><stop stop-opacity="1" stop-color="rgb(100%, 59.916687%, 38.563538%)" offset="0.40625"/><stop stop-opacity="1" stop-color="rgb(100%, 60.173035%, 38.934326%)" offset="0.410156"/><stop stop-opacity="1" stop-color="rgb(100%, 60.429382%, 39.306641%)" offset="0.414062"/><stop stop-opacity="1" stop-color="rgb(100%, 60.684204%, 39.677429%)" offset="0.417969"/><stop stop-opacity="1" stop-color="rgb(100%, 60.940552%, 40.048218%)" offset="0.421875"/><stop stop-opacity="1" stop-color="rgb(100%, 61.195374%, 40.419006%)" offset="0.425781"/><stop stop-opacity="1" stop-color="rgb(100%, 61.451721%, 40.789795%)" offset="0.429687"/><stop stop-opacity="1" stop-color="rgb(100%, 61.708069%, 41.160583%)" offset="0.433594"/><stop stop-opacity="1" stop-color="rgb(100%, 61.964417%, 41.531372%)" offset="0.4375"/><stop stop-opacity="1" stop-color="rgb(100%, 62.219238%, 41.902161%)" offset="0.441406"/><stop stop-opacity="1" stop-color="rgb(100%, 62.475586%, 42.272949%)" offset="0.445312"/><stop stop-opacity="1" stop-color="rgb(100%, 62.731934%, 42.643738%)" offset="0.449219"/><stop stop-opacity="1" stop-color="rgb(100%, 62.988281%, 43.014526%)" offset="0.453125"/><stop stop-opacity="1" stop-color="rgb(100%, 63.243103%, 43.385315%)" offset="0.457031"/><stop stop-opacity="1" stop-color="rgb(100%, 63.499451%, 43.756104%)" offset="0.460937"/><stop stop-opacity="1" stop-color="rgb(100%, 63.755798%, 44.126892%)" offset="0.464844"/><stop stop-opacity="1" stop-color="rgb(100%, 64.012146%, 44.497681%)" offset="0.46875"/><stop stop-opacity="1" stop-color="rgb(100%, 64.266968%, 44.868469%)" offset="0.472656"/><stop stop-opacity="1" stop-color="rgb(100%, 64.523315%, 45.239258%)" offset="0.476562"/><stop stop-opacity="1" stop-color="rgb(100%, 64.779663%, 45.610046%)" offset="0.480469"/><stop stop-opacity="1" stop-color="rgb(100%, 65.036011%, 45.980835%)" offset="0.484375"/><stop stop-opacity="1" stop-color="rgb(100%, 65.290833%, 46.351624%)" offset="0.488281"/><stop stop-opacity="1" stop-color="rgb(100%, 65.54718%, 46.722412%)" offset="0.492187"/><stop stop-opacity="1" stop-color="rgb(100%, 65.803528%, 47.093201%)" offset="0.496094"/><stop stop-opacity="1" stop-color="rgb(100%, 66.059875%, 47.463989%)" offset="0.5"/><stop stop-opacity="1" stop-color="rgb(100%, 66.314697%, 47.834778%)" offset="0.503906"/><stop stop-opacity="1" stop-color="rgb(100%, 66.571045%, 48.205566%)" offset="0.507812"/><stop stop-opacity="1" stop-color="rgb(100%, 66.827393%, 48.576355%)" offset="0.511719"/><stop stop-opacity="1" stop-color="rgb(100%, 67.08374%, 48.947144%)" offset="0.515625"/><stop stop-opacity="1" stop-color="rgb(100%, 67.338562%, 49.317932%)" offset="0.519531"/><stop stop-opacity="1" stop-color="rgb(100%, 67.59491%, 49.688721%)" offset="0.523437"/><stop stop-opacity="1" stop-color="rgb(100%, 67.851257%, 50.059509%)" offset="0.527344"/><stop stop-opacity="1" stop-color="rgb(100%, 68.107605%, 50.430298%)" offset="0.53125"/><stop stop-opacity="1" stop-color="rgb(100%, 68.362427%, 50.801086%)" offset="0.535156"/><stop stop-opacity="1" stop-color="rgb(100%, 68.618774%, 51.171875%)" offset="0.539062"/><stop stop-opacity="1" stop-color="rgb(100%, 68.873596%, 51.542664%)" offset="0.542969"/><stop stop-opacity="1" stop-color="rgb(100%, 69.129944%, 51.913452%)" offset="0.546875"/><stop stop-opacity="1" stop-color="rgb(100%, 69.386292%, 52.284241%)" offset="0.550781"/><stop stop-opacity="1" stop-color="rgb(100%, 69.642639%, 52.655029%)" offset="0.554687"/><stop stop-opacity="1" stop-color="rgb(100%, 69.897461%, 53.025818%)" offset="0.558594"/><stop stop-opacity="1" stop-color="rgb(100%, 70.153809%, 53.396606%)" offset="0.5625"/><stop stop-opacity="1" stop-color="rgb(100%, 70.410156%, 53.767395%)" offset="0.566406"/><stop stop-opacity="1" stop-color="rgb(100%, 70.666504%, 54.138184%)" offset="0.570312"/><stop stop-opacity="1" stop-color="rgb(100%, 70.921326%, 54.508972%)" offset="0.574219"/><stop stop-opacity="1" stop-color="rgb(100%, 71.177673%, 54.879761%)" offset="0.578125"/><stop stop-opacity="1" stop-color="rgb(100%, 71.434021%, 55.250549%)" offset="0.582031"/><stop stop-opacity="1" stop-color="rgb(100%, 71.690369%, 55.621338%)" offset="0.585937"/><stop stop-opacity="1" stop-color="rgb(100%, 71.94519%, 55.992126%)" offset="0.589844"/><stop stop-opacity="1" stop-color="rgb(100%, 72.201538%, 56.362915%)" offset="0.59375"/><stop stop-opacity="1" stop-color="rgb(100%, 72.457886%, 56.733704%)" offset="0.597656"/><stop stop-opacity="1" stop-color="rgb(100%, 72.714233%, 57.104492%)" offset="0.601562"/><stop stop-opacity="1" stop-color="rgb(100%, 72.969055%, 57.475281%)" offset="0.605469"/><stop stop-opacity="1" stop-color="rgb(100%, 73.225403%, 57.846069%)" offset="0.609375"/><stop stop-opacity="1" stop-color="rgb(100%, 73.48175%, 58.216858%)" offset="0.613281"/><stop stop-opacity="1" stop-color="rgb(100%, 73.738098%, 58.589172%)" offset="0.617187"/><stop stop-opacity="1" stop-color="rgb(100%, 73.99292%, 58.959961%)" offset="0.621094"/><stop stop-opacity="1" stop-color="rgb(100%, 74.249268%, 59.33075%)" offset="0.625"/><stop stop-opacity="1" stop-color="rgb(100%, 74.505615%, 59.701538%)" offset="0.628906"/><stop stop-opacity="1" stop-color="rgb(100%, 74.761963%, 60.072327%)" offset="0.632812"/><stop stop-opacity="1" stop-color="rgb(100%, 75.016785%, 60.443115%)" offset="0.636719"/><stop stop-opacity="1" stop-color="rgb(100%, 75.273132%, 60.813904%)" offset="0.640625"/><stop stop-opacity="1" stop-color="rgb(100%, 75.527954%, 61.184692%)" offset="0.644531"/><stop stop-opacity="1" stop-color="rgb(100%, 75.784302%, 61.555481%)" offset="0.648437"/><stop stop-opacity="1" stop-color="rgb(100%, 76.040649%, 61.92627%)" offset="0.652344"/><stop stop-opacity="1" stop-color="rgb(100%, 76.296997%, 62.297058%)" offset="0.65625"/><stop stop-opacity="1" stop-color="rgb(100%, 76.551819%, 62.667847%)" offset="0.660156"/><stop stop-opacity="1" stop-color="rgb(100%, 76.808167%, 63.038635%)" offset="0.664062"/><stop stop-opacity="1" stop-color="rgb(100%, 77.064514%, 63.409424%)" offset="0.667969"/><stop stop-opacity="1" stop-color="rgb(100%, 77.320862%, 63.780212%)" offset="0.671875"/><stop stop-opacity="1" stop-color="rgb(100%, 77.575684%, 64.151001%)" offset="0.675781"/><stop stop-opacity="1" stop-color="rgb(100%, 77.832031%, 64.52179%)" offset="0.679687"/><stop stop-opacity="1" stop-color="rgb(100%, 78.088379%, 64.892578%)" offset="0.683594"/><stop stop-opacity="1" stop-color="rgb(100%, 78.344727%, 65.263367%)" offset="0.6875"/><stop stop-opacity="1" stop-color="rgb(100%, 78.599548%, 65.634155%)" offset="0.691406"/><stop stop-opacity="1" stop-color="rgb(100%, 78.855896%, 66.004944%)" offset="0.695312"/><stop stop-opacity="1" stop-color="rgb(100%, 79.112244%, 66.375732%)" offset="0.699219"/><stop stop-opacity="1" stop-color="rgb(100%, 79.368591%, 66.746521%)" offset="0.703125"/><stop stop-opacity="1" stop-color="rgb(100%, 79.623413%, 67.11731%)" offset="0.707031"/><stop stop-opacity="1" stop-color="rgb(100%, 79.879761%, 67.488098%)" offset="0.710937"/><stop stop-opacity="1" stop-color="rgb(100%, 80.136108%, 67.858887%)" offset="0.714844"/><stop stop-opacity="1" stop-color="rgb(100%, 80.392456%, 68.229675%)" offset="0.71875"/><stop stop-opacity="1" stop-color="rgb(100%, 80.647278%, 68.600464%)" offset="0.722656"/><stop stop-opacity="1" stop-color="rgb(100%, 80.903625%, 68.971252%)" offset="0.726562"/><stop stop-opacity="1" stop-color="rgb(100%, 81.159973%, 69.342041%)" offset="0.730469"/><stop stop-opacity="1" stop-color="rgb(100%, 81.416321%, 69.71283%)" offset="0.734375"/><stop stop-opacity="1" stop-color="rgb(100%, 81.671143%, 70.083618%)" offset="0.738281"/><stop stop-opacity="1" stop-color="rgb(100%, 81.92749%, 70.454407%)" offset="0.742187"/><stop stop-opacity="1" stop-color="rgb(100%, 82.183838%, 70.825195%)" offset="0.746094"/><stop stop-opacity="1" stop-color="rgb(100%, 82.440186%, 71.195984%)" offset="0.75"/><stop stop-opacity="1" stop-color="rgb(100%, 82.695007%, 71.566772%)" offset="0.753906"/><stop stop-opacity="1" stop-color="rgb(100%, 82.951355%, 71.937561%)" offset="0.757812"/><stop stop-opacity="1" stop-color="rgb(100%, 83.206177%, 72.30835%)" offset="0.761719"/><stop stop-opacity="1" stop-color="rgb(100%, 83.462524%, 72.679138%)" offset="0.765625"/><stop stop-opacity="1" stop-color="rgb(100%, 83.718872%, 73.049927%)" offset="0.769531"/><stop stop-opacity="1" stop-color="rgb(100%, 83.97522%, 73.420715%)" offset="0.773437"/><stop stop-opacity="1" stop-color="rgb(100%, 84.230042%, 73.791504%)" offset="0.777344"/><stop stop-opacity="1" stop-color="rgb(100%, 84.486389%, 74.162292%)" offset="0.78125"/><stop stop-opacity="1" stop-color="rgb(100%, 84.742737%, 74.533081%)" offset="0.785156"/><stop stop-opacity="1" stop-color="rgb(100%, 84.999084%, 74.90387%)" offset="0.789062"/><stop stop-opacity="1" stop-color="rgb(100%, 85.253906%, 75.274658%)" offset="0.792969"/><stop stop-opacity="1" stop-color="rgb(100%, 85.510254%, 75.645447%)" offset="0.796875"/><stop stop-opacity="1" stop-color="rgb(100%, 85.766602%, 76.016235%)" offset="0.800781"/><stop stop-opacity="1" stop-color="rgb(100%, 86.022949%, 76.387024%)" offset="0.804687"/><stop stop-opacity="1" stop-color="rgb(100%, 86.277771%, 76.757812%)" offset="0.808594"/><stop stop-opacity="1" stop-color="rgb(100%, 86.534119%, 77.128601%)" offset="0.8125"/><stop stop-opacity="1" stop-color="rgb(100%, 86.790466%, 77.49939%)" offset="0.816406"/><stop stop-opacity="1" stop-color="rgb(100%, 87.046814%, 77.871704%)" offset="0.820312"/><stop stop-opacity="1" stop-color="rgb(100%, 87.301636%, 78.242493%)" offset="0.824219"/><stop stop-opacity="1" stop-color="rgb(100%, 87.557983%, 78.613281%)" offset="0.828125"/><stop stop-opacity="1" stop-color="rgb(100%, 87.814331%, 78.98407%)" offset="0.832031"/><stop stop-opacity="1" stop-color="rgb(100%, 88.070679%, 79.354858%)" offset="0.835937"/><stop stop-opacity="1" stop-color="rgb(100%, 88.3255%, 79.725647%)" offset="0.839844"/><stop stop-opacity="1" stop-color="rgb(100%, 88.581848%, 80.096436%)" offset="0.84375"/><stop stop-opacity="1" stop-color="rgb(100%, 88.838196%, 80.467224%)" offset="0.847656"/><stop stop-opacity="1" stop-color="rgb(100%, 89.094543%, 80.838013%)" offset="0.851562"/><stop stop-opacity="1" stop-color="rgb(100%, 89.349365%, 81.208801%)" offset="0.855469"/><stop stop-opacity="1" stop-color="rgb(100%, 89.605713%, 81.57959%)" offset="0.859375"/><stop stop-opacity="1" stop-color="rgb(100%, 89.860535%, 81.950378%)" offset="0.863281"/><stop stop-opacity="1" stop-color="rgb(100%, 90.116882%, 82.321167%)" offset="0.867187"/><stop stop-opacity="1" stop-color="rgb(100%, 90.37323%, 82.691956%)" offset="0.871094"/><stop stop-opacity="1" stop-color="rgb(100%, 90.629578%, 83.062744%)" offset="0.875"/><stop stop-opacity="1" stop-color="rgb(100%, 90.884399%, 83.433533%)" offset="0.878906"/><stop stop-opacity="1" stop-color="rgb(100%, 91.140747%, 83.804321%)" offset="0.882812"/><stop stop-opacity="1" stop-color="rgb(100%, 91.397095%, 84.17511%)" offset="0.886719"/><stop stop-opacity="1" stop-color="rgb(100%, 91.653442%, 84.545898%)" offset="0.890625"/><stop stop-opacity="1" stop-color="rgb(100%, 91.908264%, 84.916687%)" offset="0.894531"/><stop stop-opacity="1" stop-color="rgb(100%, 92.164612%, 85.287476%)" offset="0.898437"/><stop stop-opacity="1" stop-color="rgb(100%, 92.420959%, 85.658264%)" offset="0.902344"/><stop stop-opacity="1" stop-color="rgb(100%, 92.677307%, 86.029053%)" offset="0.90625"/><stop stop-opacity="1" stop-color="rgb(100%, 92.932129%, 86.399841%)" offset="0.910156"/><stop stop-opacity="1" stop-color="rgb(100%, 93.188477%, 86.77063%)" offset="0.914062"/><stop stop-opacity="1" stop-color="rgb(100%, 93.444824%, 87.141418%)" offset="0.917969"/><stop stop-opacity="1" stop-color="rgb(100%, 93.701172%, 87.512207%)" offset="0.921875"/><stop stop-opacity="1" stop-color="rgb(100%, 93.955994%, 87.882996%)" offset="0.925781"/><stop stop-opacity="1" stop-color="rgb(100%, 94.212341%, 88.253784%)" offset="0.929687"/><stop stop-opacity="1" stop-color="rgb(100%, 94.468689%, 88.624573%)" offset="0.933594"/><stop stop-opacity="1" stop-color="rgb(100%, 94.725037%, 88.995361%)" offset="0.9375"/><stop stop-opacity="1" stop-color="rgb(100%, 94.979858%, 89.36615%)" offset="0.941406"/><stop stop-opacity="1" stop-color="rgb(100%, 95.236206%, 89.736938%)" offset="0.945312"/><stop stop-opacity="1" stop-color="rgb(100%, 95.492554%, 90.107727%)" offset="0.949219"/><stop stop-opacity="1" stop-color="rgb(100%, 95.748901%, 90.478516%)" offset="0.953125"/><stop stop-opacity="1" stop-color="rgb(100%, 96.003723%, 90.849304%)" offset="0.957031"/><stop stop-opacity="1" stop-color="rgb(100%, 96.260071%, 91.220093%)" offset="0.960937"/><stop stop-opacity="1" stop-color="rgb(100%, 96.514893%, 91.590881%)" offset="0.964844"/><stop stop-opacity="1" stop-color="rgb(100%, 96.77124%, 91.96167%)" offset="0.96875"/><stop stop-opacity="1" stop-color="rgb(100%, 97.027588%, 92.332458%)" offset="0.972656"/><stop stop-opacity="1" stop-color="rgb(100%, 97.283936%, 92.703247%)" offset="0.976562"/><stop stop-opacity="1" stop-color="rgb(100%, 97.538757%, 93.074036%)" offset="0.980469"/><stop stop-opacity="1" stop-color="rgb(100%, 97.795105%, 93.444824%)" offset="0.984375"/><stop stop-opacity="1" stop-color="rgb(100%, 98.051453%, 93.815613%)" offset="0.988281"/><stop stop-opacity="1" stop-color="rgb(100%, 98.3078%, 94.186401%)" offset="0.992187"/><stop stop-opacity="1" stop-color="rgb(100%, 98.553467%, 94.541931%)" offset="0.996094"/><stop stop-opacity="1" stop-color="rgb(100%, 98.799133%, 94.898987%)" offset="1"/></linearGradient></defs><g clip-path="url(#3b4f933dae)"><g clip-path="url(#b98d01bfd7)"><path fill="url(#5d490e157b)" d="M 1067.925781 111.675781 L 1067.925781 263.140625 L 107.984375 263.140625 L 107.984375 111.675781 Z M 1067.925781 111.675781 " fill-rule="nonzero"/></g></g></svg>