<svg xmlns="http://www.w3.org/2000/svg" xmlns:xlink="http://www.w3.org/1999/xlink" width="1280" zoomAndPan="magnify" viewBox="0 0 960 599.999999" height="800" preserveAspectRatio="xMidYMid meet" version="1.0"><defs><clipPath id="f5a235b429"><path d="M 0 268.578125 L 960 268.578125 L 960 600 L 0 600 Z M 0 268.578125 " clip-rule="nonzero"/></clipPath><clipPath id="34d0566706"><path d="M -76.210938 268.578125 L 1098.960938 268.578125 C 1108.90625 268.578125 1118.445312 272.53125 1125.480469 279.5625 C 1132.511719 286.59375 1136.460938 296.132812 1136.460938 306.078125 L 1136.460938 733 C 1136.460938 742.945312 1132.511719 752.484375 1125.480469 759.515625 C 1118.445312 766.550781 1108.90625 770.5 1098.960938 770.5 L -76.210938 770.5 C -86.15625 770.5 -95.695312 766.550781 -102.730469 759.515625 C -109.761719 752.484375 -113.710938 742.945312 -113.710938 733 L -113.710938 306.078125 C -113.710938 296.132812 -109.761719 286.59375 -102.730469 279.5625 C -95.695312 272.53125 -86.15625 268.578125 -76.210938 268.578125 Z M -76.210938 268.578125 " clip-rule="nonzero"/></clipPath></defs><g clip-path="url(#f5a235b429)"><g clip-path="url(#34d0566706)"><path fill="#0d221b" d="M -113.710938 268.578125 L 1137.171875 268.578125 L 1137.171875 770.5 L -113.710938 770.5 Z M -113.710938 268.578125 " fill-opacity="1" fill-rule="nonzero"/></g></g></svg>