<svg xmlns="http://www.w3.org/2000/svg" xmlns:xlink="http://www.w3.org/1999/xlink" width="1280" zoomAndPan="magnify" viewBox="0 0 960 599.999999" height="800" preserveAspectRatio="xMidYMid meet" version="1.0"><defs><clipPath id="ddd48e4202"><path d="M 0 342 L 958.757812 342 L 958.757812 600 L 0 600 Z M 0 342 " clip-rule="nonzero"/></clipPath><clipPath id="d5e5f9a7ed"><path d="M 37.5 342 L 920.785156 342 C 930.730469 342 940.265625 345.949219 947.300781 352.984375 C 954.332031 360.015625 958.285156 369.554688 958.285156 379.5 L 958.285156 599.148438 C 958.285156 609.09375 954.332031 618.632812 947.300781 625.664062 C 940.265625 632.699219 930.730469 636.648438 920.785156 636.648438 L 37.5 636.648438 C 27.554688 636.648438 18.015625 632.699219 10.984375 625.664062 C 3.949219 618.632812 0 609.09375 0 599.148438 L 0 379.5 C 0 369.554688 3.949219 360.015625 10.984375 352.984375 C 18.015625 345.949219 27.554688 342 37.5 342 Z M 37.5 342 " clip-rule="nonzero"/></clipPath></defs><g clip-path="url(#ddd48e4202)"><g clip-path="url(#d5e5f9a7ed)"><path fill="#0d221b" d="M 0 342 L 958.757812 342 L 958.757812 636.648438 L 0 636.648438 Z M 0 342 " fill-opacity="1" fill-rule="nonzero"/></g></g></svg>