<svg xmlns="http://www.w3.org/2000/svg" xmlns:xlink="http://www.w3.org/1999/xlink" width="500" zoomAndPan="magnify" viewBox="0 0 375 374.999991" height="500" preserveAspectRatio="xMidYMid meet" version="1.0"><defs><filter x="0%" y="0%" width="100%" height="100%" id="287da0ad53"><feColorMatrix values="0 0 0 0 1 0 0 0 0 1 0 0 0 0 1 0 0 0 1 0" color-interpolation-filters="sRGB"/></filter><g/><mask id="8f3300940c"><g filter="url(#287da0ad53)"><rect x="-37.5" width="450" fill="#000000" y="-37.499999" height="449.999989" fill-opacity="0.7"/></g></mask><clipPath id="9b8b840159"><path d="M 0 0.652344 L 375 0.652344 L 375 146.671875 L 0 146.671875 Z M 0 0.652344 " clip-rule="nonzero"/></clipPath><clipPath id="6d1eb274db"><path d="M 17.25 0.652344 L 357.75 0.652344 C 367.277344 0.652344 375 8.375 375 17.902344 L 375 129.421875 C 375 138.949219 367.277344 146.671875 357.75 146.671875 L 17.25 146.671875 C 7.722656 146.671875 0 138.949219 0 129.421875 L 0 17.902344 C 0 8.375 7.722656 0.652344 17.25 0.652344 Z M 17.25 0.652344 " clip-rule="nonzero"/></clipPath><clipPath id="57bb0b1df7"><rect x="0" width="375" y="0" height="147"/></clipPath></defs><g mask="url(#8f3300940c)"><g transform="matrix(1, 0, 0, 1, 0, 155)"><g clip-path="url(#57bb0b1df7)"><g clip-path="url(#9b8b840159)"><g clip-path="url(#6d1eb274db)"><path fill="#fff2ec" d="M 0 0.652344 L 374.746094 0.652344 L 374.746094 146.671875 L 0 146.671875 Z M 0 0.652344 " fill-opacity="1" fill-rule="nonzero"/></g></g></g></g></g><g fill="#545454" fill-opacity="1"><g transform="translate(23.292908, 251.238227)"><g><path d="M 0.179688 -128.265625 C -1.425781 -111.519531 10.867188 -100.476562 27.96875 -100.476562 C 45.605469 -100.476562 66.269531 -115.441406 81.058594 -125.953125 L 66.984375 -82.839844 L 48.632812 -55.046875 C 43.46875 -47.566406 24.941406 -23.871094 24.941406 -10.867188 C 24.941406 -4.277344 27.792969 0 34.027344 0 C 50.238281 0 52.910156 -16.925781 73.398438 -79.632812 C 87.472656 -100.652344 104.21875 -124.527344 121.496094 -124.527344 C 132.363281 -124.527344 136.105469 -118.46875 136.285156 -109.207031 C 136.285156 -99.585938 132.898438 -87.113281 123.636719 -59.5 C 112.054688 -25.117188 101.011719 3.027344 100.832031 12.46875 C 100.832031 26.902344 107.246094 35.628906 120.074219 35.628906 C 122.03125 35.628906 123.636719 34.027344 123.636719 32.066406 C 123.636719 30.285156 122.03125 28.683594 120.074219 28.683594 C 111.699219 28.324219 107.957031 23.335938 107.957031 12.46875 C 108.136719 4.277344 122.566406 -33.847656 130.40625 -57.1875 C 139.847656 -85.15625 143.410156 -97.980469 143.230469 -109.207031 C 143.230469 -122.746094 137.710938 -131.652344 121.496094 -131.652344 C 105.640625 -131.652344 93.882812 -119.183594 80.878906 -102.4375 L 91.210938 -133.96875 C 91.570312 -135.035156 91.390625 -136.105469 90.679688 -137.175781 C 89.964844 -138.242188 88.894531 -138.601562 87.828125 -138.601562 C 87.113281 -138.601562 86.402344 -138.421875 85.867188 -138.066406 C 83.195312 -136.285156 80.167969 -134.144531 76.960938 -131.652344 C 64.667969 -122.921875 43.824219 -107.425781 27.96875 -107.425781 C 13.894531 -107.425781 7.125 -114.015625 7.125 -128.089844 C 7.125 -130.40625 5.34375 -131.652344 3.5625 -131.652344 C 1.960938 -131.652344 0.355469 -130.582031 0.179688 -128.265625 Z M 58.253906 -56.117188 C 45.605469 -15.5 42.398438 -7.125 34.203125 -7.125 C 32.601562 -7.125 31.890625 -8.371094 31.890625 -10.6875 C 32.246094 -21.199219 49.167969 -43.824219 54.335938 -50.773438 C 56.472656 -53.621094 57.363281 -54.691406 58.253906 -56.117188 Z M 58.253906 -56.117188 "/></g></g></g><path stroke-linecap="butt" transform="matrix(3.470662, 0, 0, 3.470662, 15.419282, 52.478173)" fill="none" stroke-linejoin="miter" d="M 0.0502694 18.043642 C -0.413439 22.868685 3.133029 26.051615 8.058242 26.051615 C 13.145527 26.051615 19.098327 21.740928 23.359491 18.707691 L 19.298667 31.12652 L 14.011041 39.134492 C 12.519746 41.289836 7.180348 48.120529 7.180348 51.867338 C 7.180348 53.771693 8.007594 54.99962 9.799399 54.99962 C 14.473624 54.99962 15.251349 50.125055 21.1535 32.053936 C 25.200818 26.002093 30.025861 19.121877 35.000596 19.121877 C 38.134004 19.121877 39.212238 20.863034 39.26176 23.532733 C 39.26176 26.302603 38.297202 29.898593 35.627503 37.857044 C 32.281374 47.756991 29.098444 55.877514 29.048922 58.596736 C 29.048922 62.744224 30.903755 65.263106 34.599916 65.263106 C 35.163794 65.263106 35.627503 64.799398 35.627503 64.235519 C 35.627503 63.722289 35.163794 63.25858 34.599916 63.25858 C 32.181204 63.15841 31.104095 61.729018 31.104095 58.596736 C 31.153618 56.228672 35.314612 45.25049 37.570125 38.521092 C 40.289347 30.462471 41.316934 26.766311 41.267411 23.532733 C 41.267411 19.635107 39.675946 17.066703 35.000596 17.066703 C 30.440047 17.066703 27.055652 20.662694 23.308843 25.487737 L 26.279053 16.402655 C 26.379223 16.088639 26.329701 15.788129 26.128235 15.475238 C 25.915514 15.173603 25.615004 15.061052 25.302114 15.061052 C 25.100648 15.061052 24.900308 15.1117 24.73711 15.224251 C 23.972892 15.738607 23.096123 16.352007 22.168706 17.066703 C 18.634618 19.585585 12.632297 24.047089 8.058242 24.047089 C 3.997418 24.047089 2.054795 22.153989 2.054795 18.09429 C 2.054795 17.430242 1.541564 17.066703 1.027208 17.066703 C 0.5635 17.066703 0.0997916 17.379594 0.0502694 18.043642 Z M 16.779785 38.833982 C 13.145527 50.539241 12.218111 52.944447 9.850047 52.944447 C 9.398719 52.944447 9.185999 52.580908 9.185999 51.91686 C 9.286169 48.897128 14.160734 42.36807 15.652029 40.375925 C 16.266555 39.548679 16.529923 39.247043 16.779785 38.833982 Z M 16.779785 38.833982 " stroke="#f05f1b" stroke-width="1.924991" stroke-opacity="1" stroke-miterlimit="4"/><g fill="#545454" fill-opacity="1"><g transform="translate(166.001228, 209.257741)"><g><path d="M 35.464844 -18.839844 C 35.226562 -18.917969 34.988281 -19 34.75 -19 C 34.117188 -19 33.5625 -18.601562 33.246094 -17.96875 L 33.167969 -17.730469 C 30.554688 -11.875 26.757812 -3.324219 21.847656 -3.324219 C 20.1875 -3.324219 19.472656 -4.273438 19.472656 -6.648438 C 19.472656 -10.132812 22.085938 -17.019531 24.933594 -25.015625 L 28.894531 -35.621094 C 29.289062 -36.570312 28.65625 -37.839844 27.390625 -37.839844 C 26.675781 -37.839844 26.042969 -37.441406 25.804688 -36.808594 C 25.410156 -35.78125 24.933594 -34.59375 24.460938 -33.246094 C 23.035156 -36.097656 20.582031 -37.441406 17.257812 -37.441406 C 7.757812 -37.441406 -0.238281 -18.917969 -0.238281 -8.550781 C -0.238281 -3.800781 1.820312 0 6.253906 0 C 9.65625 0 12.980469 -2.214844 16.148438 -6.648438 C 16.148438 -2.769531 18.046875 0 21.847656 0 C 28.972656 0 33.246094 -9.738281 36.253906 -16.386719 L 36.335938 -16.625 C 36.414062 -16.859375 36.492188 -17.097656 36.492188 -17.335938 C 36.492188 -17.96875 36.097656 -18.523438 35.464844 -18.839844 Z M 6.175781 -3.324219 C 3.800781 -3.324219 3.085938 -5.621094 3.085938 -9.101562 C 3.246094 -16.941406 9.972656 -33.960938 17.257812 -34.117188 C 20.105469 -34.117188 22.164062 -31.980469 22.324219 -28.339844 L 20.421875 -23.273438 C 17.257812 -15.199219 12.585938 -3.324219 6.175781 -3.324219 Z M 6.175781 -3.324219 "/></g></g></g><g fill="#545454" fill-opacity="1"><g transform="translate(197.901536, 209.257741)"><g><path d="M 53.433594 -17.335938 C 53.433594 -18.207031 52.5625 -19 51.769531 -19 C 51.136719 -19 50.425781 -18.601562 50.1875 -17.96875 C 45.914062 -7.996094 42.746094 -3.324219 38.867188 -3.324219 C 37.207031 -3.324219 36.492188 -4.355469 36.492188 -6.648438 C 36.492188 -13.457031 42.589844 -22.5625 42.589844 -30.160156 C 42.589844 -34.355469 40.847656 -37.601562 35.148438 -37.601562 C 31.425781 -37.601562 27.390625 -33.960938 25.09375 -30.316406 C 25.09375 -34.515625 22.5625 -37.601562 17.8125 -37.601562 C 15.121094 -37.601562 12.585938 -35.78125 10.289062 -33.089844 C 10.527344 -33.878906 10.765625 -34.515625 11.082031 -35.226562 C 11.476562 -36.253906 10.6875 -37.441406 9.5 -37.441406 C 8.785156 -37.441406 8.152344 -37.046875 7.914062 -36.335938 C 3.878906 -24.933594 -0.238281 -13.535156 -4.273438 -2.136719 C -4.589844 -1.265625 -4.117188 -0.316406 -3.246094 0 C -2.375 0.238281 -1.425781 -0.160156 -1.109375 -1.109375 L 4.273438 -16.386719 C 4.75 -17.652344 9.5 -26.359375 10.925781 -28.496094 C 13.21875 -31.742188 15.59375 -34.277344 17.8125 -34.277344 C 20.660156 -34.277344 21.769531 -32.773438 21.769531 -29.84375 C 21.769531 -27.074219 20.582031 -23.511719 18.917969 -18.683594 C 18.839844 -18.523438 13.617188 -3.007812 13.535156 -2.769531 C 13.140625 -1.742188 13.933594 -0.554688 15.121094 -0.554688 C 15.832031 -0.554688 16.464844 -0.949219 16.703125 -1.664062 C 16.625 -1.503906 21.925781 -17.019531 22.085938 -17.496094 C 24.382812 -23.90625 30.554688 -34.277344 35.148438 -34.277344 C 38.3125 -34.277344 39.261719 -32.457031 39.261719 -30.160156 C 39.261719 -23.667969 33.089844 -13.851562 33.089844 -6.648438 C 33.089844 -2.769531 34.988281 0 38.867188 0 C 45.914062 0 50.265625 -9.738281 53.195312 -16.386719 C 53.355469 -16.941406 53.433594 -17.097656 53.433594 -17.335938 Z M 53.433594 -17.335938 "/></g></g></g><g fill="#545454" fill-opacity="1"><g transform="translate(246.741473, 209.257741)"><g><path d="M 35.464844 -18.839844 C 35.226562 -18.917969 34.988281 -19 34.75 -19 C 34.117188 -19 33.5625 -18.601562 33.246094 -17.96875 L 33.167969 -17.730469 C 30.554688 -11.875 26.757812 -3.324219 21.847656 -3.324219 C 20.1875 -3.324219 19.472656 -4.273438 19.472656 -6.648438 C 19.472656 -10.132812 22.085938 -17.019531 24.933594 -25.015625 L 28.894531 -35.621094 C 29.289062 -36.570312 28.65625 -37.839844 27.390625 -37.839844 C 26.675781 -37.839844 26.042969 -37.441406 25.804688 -36.808594 C 25.410156 -35.78125 24.933594 -34.59375 24.460938 -33.246094 C 23.035156 -36.097656 20.582031 -37.441406 17.257812 -37.441406 C 7.757812 -37.441406 -0.238281 -18.917969 -0.238281 -8.550781 C -0.238281 -3.800781 1.820312 0 6.253906 0 C 9.65625 0 12.980469 -2.214844 16.148438 -6.648438 C 16.148438 -2.769531 18.046875 0 21.847656 0 C 28.972656 0 33.246094 -9.738281 36.253906 -16.386719 L 36.335938 -16.625 C 36.414062 -16.859375 36.492188 -17.097656 36.492188 -17.335938 C 36.492188 -17.96875 36.097656 -18.523438 35.464844 -18.839844 Z M 6.175781 -3.324219 C 3.800781 -3.324219 3.085938 -5.621094 3.085938 -9.101562 C 3.246094 -16.941406 9.972656 -33.960938 17.257812 -34.117188 C 20.105469 -34.117188 22.164062 -31.980469 22.324219 -28.339844 L 20.421875 -23.273438 C 17.257812 -15.199219 12.585938 -3.324219 6.175781 -3.324219 Z M 6.175781 -3.324219 "/></g></g></g><g fill="#545454" fill-opacity="1"><g transform="translate(278.641781, 209.257741)"><g><path d="M 35.148438 -18.839844 C 34.910156 -18.917969 34.671875 -19 34.433594 -19 C 33.800781 -19 33.246094 -18.601562 32.929688 -17.96875 C 28.101562 -7.519531 25.253906 -3.324219 21.53125 -3.324219 C 19.867188 -3.324219 19.15625 -4.355469 19.15625 -6.648438 C 19.15625 -12.746094 25.332031 -23.113281 25.332031 -30.160156 C 25.332031 -34.355469 23.589844 -37.601562 17.890625 -37.601562 C 15.277344 -37.601562 12.824219 -36.097656 10.527344 -33.722656 L 11.160156 -35.304688 C 11.558594 -36.335938 10.765625 -37.523438 9.578125 -37.523438 C 8.867188 -37.523438 8.234375 -37.125 7.996094 -36.414062 C 4.90625 -27.945312 -0.078125 -13.617188 -4.195312 -2.214844 C -4.511719 -1.265625 -4.039062 -0.394531 -3.167969 -0.078125 C -2.296875 0.160156 -1.347656 -0.238281 -1.027344 -1.1875 L 4.511719 -16.859375 C 7.046875 -23.589844 13.0625 -34.277344 17.890625 -34.277344 C 20.976562 -34.277344 22.007812 -32.457031 22.007812 -30.160156 C 22.007812 -23.273438 15.832031 -14.089844 15.832031 -6.648438 C 15.832031 -2.769531 17.730469 0 21.53125 0 C 26.914062 0 30.636719 -4.671875 36.019531 -16.625 C 36.097656 -16.859375 36.175781 -17.097656 36.175781 -17.335938 C 36.175781 -17.96875 35.78125 -18.523438 35.148438 -18.839844 Z M 35.148438 -18.839844 "/></g></g></g><path stroke-linecap="butt" transform="matrix(1.542176, 0, 0, 1.542176, 162.502611, 120.939441)" fill="none" stroke-linejoin="miter" d="M 22.994931 42.782747 C 22.845487 42.732088 22.683379 42.681429 22.531402 42.681429 C 22.118532 42.681429 21.766452 42.932191 21.553684 43.345061 L 21.505558 43.497038 C 19.81355 47.30659 17.343927 52.843612 14.160013 52.843612 C 13.08351 52.843612 12.632646 52.230639 12.632646 50.688074 C 12.632646 48.433751 14.324654 43.960567 16.166106 38.783224 L 18.734515 31.90374 C 18.997941 31.290767 18.585071 30.462493 17.756797 30.462493 C 17.293268 30.462493 16.893062 30.72592 16.730954 31.126125 C 16.480192 31.804955 16.166106 32.567372 15.864686 33.446305 C 14.937627 31.589655 13.346937 30.72592 11.191399 30.72592 C 5.026206 30.72592 -0.151137 42.732088 -0.151137 49.462128 C -0.151137 52.532059 1.17866 54.99915 4.061153 54.99915 C 6.264817 54.99915 8.420355 53.557903 10.477108 50.688074 C 10.477108 53.208356 11.705587 54.99915 14.160013 54.99915 C 18.785173 54.99915 21.553684 48.684513 23.509119 44.373437 L 23.559778 44.221461 C 23.610437 44.072017 23.661096 43.909908 23.661096 43.757931 C 23.661096 43.345061 23.410334 42.995514 22.994931 42.782747 Z M 3.99783 52.843612 C 2.46793 52.843612 2.004401 51.354239 2.004401 49.097383 C 2.105718 44.008693 6.467453 32.982775 11.191399 32.881458 C 13.032851 32.881458 14.37278 34.259381 14.474098 36.627686 L 13.245619 39.912918 C 11.191399 45.151052 8.156928 52.843612 3.99783 52.843612 Z M 55.335597 43.757931 C 55.335597 43.195617 54.770749 42.681429 54.256561 42.681429 C 53.843691 42.681429 53.380162 42.932191 53.230718 43.345061 C 50.459674 49.811674 48.405454 52.843612 45.887705 52.843612 C 44.808669 52.843612 44.34514 52.17998 44.34514 50.688074 C 44.34514 46.278213 48.304136 40.376447 48.304136 35.437201 C 48.304136 32.719349 47.176975 30.61447 43.481405 30.61447 C 41.062441 30.61447 38.443374 32.982775 36.951468 35.338416 C 36.951468 32.618031 35.310119 30.61447 32.240187 30.61447 C 30.484855 30.61447 28.843505 31.804955 27.3516 33.54509 C 27.516241 33.030901 27.665685 32.618031 27.865788 32.154502 C 28.129214 31.49087 27.615026 30.72592 26.850076 30.72592 C 26.386547 30.72592 25.973677 30.976682 25.824233 31.440211 C 23.205166 38.833883 20.53544 46.227555 17.916373 53.608562 C 17.703605 54.173409 18.015158 54.799047 18.580005 54.99915 C 19.144852 55.151126 19.757825 54.900365 19.970593 54.284859 L 23.455927 44.373437 C 23.76748 43.557829 26.850076 37.906824 27.76447 36.516236 C 29.256376 34.424022 30.79894 32.767475 32.240187 32.767475 C 34.08164 32.767475 34.795931 33.745192 34.795931 35.649968 C 34.795931 37.443295 34.030981 39.748276 32.954478 42.881532 C 32.903819 42.995514 29.519802 53.046247 29.456479 53.208356 C 29.205717 53.871988 29.719905 54.636938 30.484855 54.636938 C 30.948384 54.636938 31.361255 54.386176 31.513231 53.922647 C 31.462573 54.021432 34.909913 43.960567 35.008698 43.659146 C 36.500604 39.497515 40.497594 32.767475 43.481405 32.767475 C 45.522961 32.767475 46.148598 33.95796 46.148598 35.437201 C 46.148598 39.649492 42.138944 46.014787 42.138944 50.688074 C 42.138944 53.208356 43.367423 54.99915 45.887705 54.99915 C 50.459674 54.99915 53.281377 48.684513 55.186153 44.373437 C 55.284938 44.008693 55.335597 43.909908 55.335597 43.757931 Z M 75.350943 42.782747 C 75.198966 42.732088 75.036857 42.681429 74.887413 42.681429 C 74.47201 42.681429 74.122463 42.932191 73.909696 43.345061 L 73.859037 43.497038 C 72.167028 47.30659 69.699938 52.843612 66.516024 52.843612 C 65.436989 52.843612 64.986124 52.230639 64.986124 50.688074 C 64.986124 48.433751 66.678133 43.960567 68.519585 38.783224 L 71.090526 31.90374 C 71.353953 31.290767 70.938549 30.462493 70.112809 30.462493 C 69.649279 30.462493 69.246541 30.72592 69.084432 31.126125 C 68.83367 31.804955 68.519585 32.567372 68.220697 33.446305 C 67.293639 31.589655 65.700415 30.72592 63.544877 30.72592 C 57.379685 30.72592 52.204874 42.732088 52.204874 49.462128 C 52.204874 52.532059 53.532138 54.99915 56.414632 54.99915 C 58.620829 54.99915 60.776366 53.557903 62.830586 50.688074 C 62.830586 53.208356 64.059066 54.99915 66.516024 54.99915 C 71.138652 54.99915 73.909696 48.684513 75.865131 44.373437 L 75.913257 44.221461 C 75.963916 44.072017 76.014575 43.909908 76.014575 43.757931 C 76.014575 43.345061 75.763813 42.995514 75.350943 42.782747 Z M 56.351308 52.843612 C 54.823941 52.843612 54.360412 51.354239 54.360412 49.097383 C 54.459197 44.008693 58.820932 32.982775 63.544877 32.881458 C 65.388863 32.881458 66.728792 34.259381 66.830109 36.627686 L 65.60163 39.912918 C 63.544877 45.151052 60.51294 52.843612 56.351308 52.843612 Z M 95.834884 42.782747 C 95.672775 42.732088 95.520799 42.681429 95.371355 42.681429 C 94.958484 42.681429 94.59374 42.932191 94.393637 43.345061 C 91.260382 50.12576 89.41893 52.843612 86.999965 52.843612 C 85.923463 52.843612 85.459934 52.17998 85.459934 50.688074 C 85.459934 46.741743 89.469588 40.011703 89.469588 35.437201 C 89.469588 32.719349 88.342427 30.61447 84.644325 30.61447 C 82.952316 30.61447 81.361626 31.589655 79.86972 33.132219 L 80.28259 32.103843 C 80.533352 31.440211 80.019164 30.662596 79.256747 30.662596 C 78.793217 30.662596 78.377814 30.926023 78.22837 31.389552 C 76.222276 36.878448 72.990236 46.164231 70.32051 53.557903 C 70.120407 54.173409 70.421828 54.748388 70.984142 54.951024 C 71.548989 55.100467 72.161963 54.849706 72.37473 54.236733 L 75.95885 44.072017 C 77.612864 39.697618 81.511069 32.767475 84.644325 32.767475 C 86.637754 32.767475 87.314051 33.95796 87.314051 35.437201 C 87.314051 39.912918 83.304396 45.865343 83.304396 50.688074 C 83.304396 53.208356 84.543007 54.99915 86.999965 54.99915 C 90.497965 54.99915 92.901731 51.967212 96.399731 44.221461 C 96.45039 44.072017 96.498516 43.909908 96.498516 43.757931 C 96.498516 43.345061 96.23509 42.995514 95.834884 42.782747 Z M 95.834884 42.782747 " stroke="#f05f1b" stroke-width="1.924991" stroke-opacity="1" stroke-miterlimit="4"/><g fill="#f05f1b" fill-opacity="0.4"><g transform="translate(154.715766, 261.312094)"><g><path d="M 61.863281 -45.023438 C 61.863281 -45.742188 61.265625 -46.21875 60.609375 -46.21875 C 56.964844 -46.21875 50.996094 -38.632812 48.007812 -34.8125 C 42.992188 -28.421875 37.621094 -21.617188 30.8125 -21.617188 C 30.09375 -21.617188 29.558594 -21.019531 29.558594 -20.363281 C 29.558594 -19.644531 30.09375 -19.109375 30.8125 -19.109375 C 35.949219 -18.988281 38.214844 -15.527344 38.214844 -8.179688 C 38.15625 -5.433594 37.859375 -2.566406 37.558594 -0.121094 C 37.261719 2.449219 37.140625 2.984375 37.140625 4.71875 C 37.140625 9.496094 39.292969 12.539062 43.710938 12.539062 C 44.367188 12.539062 44.964844 11.941406 44.964844 11.285156 C 44.964844 10.570312 44.367188 9.972656 43.710938 9.972656 C 40.964844 9.972656 39.648438 8.300781 39.648438 4.71875 C 39.648438 3.34375 39.710938 2.925781 40.066406 0.179688 C 40.367188 -2.328125 40.722656 -5.253906 40.722656 -8.179688 C 40.722656 -13.136719 39.828125 -17.972656 36.1875 -20.242188 C 41.5625 -22.570312 45.859375 -28.066406 49.980469 -33.261719 C 53.742188 -38.039062 57.265625 -42.574219 60.96875 -43.769531 C 61.503906 -43.949219 61.863281 -44.425781 61.863281 -45.023438 Z M 34.394531 -35.949219 C 35.410156 -37.917969 37.023438 -39.351562 38.992188 -40.425781 C 39.46875 -40.664062 39.710938 -41.082031 39.710938 -41.5625 C 39.710938 -41.738281 39.648438 -41.917969 39.589844 -42.097656 C 39.351562 -42.574219 38.933594 -42.816406 38.457031 -42.816406 C 38.277344 -42.816406 38.039062 -42.753906 37.859375 -42.636719 C 36.542969 -41.917969 35.410156 -41.082031 34.035156 -39.769531 C 31.109375 -40.304688 28.484375 -41.140625 26.035156 -41.917969 C 21.972656 -43.171875 18.273438 -44.308594 13.855469 -44.308594 C 8.597656 -44.308594 3.523438 -39.53125 3.523438 -33.679688 C 3.523438 -28.484375 7.164062 -25.019531 12.898438 -25.019531 C 15.046875 -25.019531 17.375 -25.558594 19.464844 -26.511719 C 19.945312 -26.75 20.183594 -27.167969 20.183594 -27.648438 C 20.183594 -28.125 19.824219 -28.902344 18.988281 -28.902344 C 18.75 -28.902344 18.570312 -28.839844 18.390625 -28.78125 C 16.601562 -28.003906 14.691406 -27.527344 12.957031 -27.527344 C 8.898438 -27.527344 6.03125 -29.5 6.03125 -33.679688 C 6.03125 -37.917969 9.851562 -41.800781 13.855469 -41.800781 C 17.855469 -41.800781 21.4375 -40.664062 25.257812 -39.46875 C 27.46875 -38.8125 29.796875 -38.097656 32.363281 -37.5 L 32.1875 -37.140625 C 29.855469 -32.902344 28.183594 -27.46875 26.8125 -23.167969 L 24.421875 -15.882812 C 21.675781 -7.40625 18.929688 0.777344 10.390625 0.777344 C 5.433594 0.777344 2.507812 -2.507812 2.507812 -7.40625 C 2.867188 -13.136719 7.464844 -17.554688 12.898438 -17.554688 C 13.613281 -17.554688 14.152344 -18.152344 14.152344 -18.871094 C 14.152344 -19.527344 13.613281 -20.125 12.898438 -20.125 C 6.210938 -20.003906 0.359375 -14.691406 0 -7.464844 C -0.121094 -1.492188 3.640625 3.285156 10.332031 3.285156 C 20.839844 3.285156 23.824219 -5.671875 26.871094 -15.109375 C 26.992188 -15.40625 27.585938 -17.4375 29.199219 -22.390625 C 30.574219 -26.632812 32.246094 -31.945312 34.394531 -35.949219 Z M 34.394531 -35.949219 "/></g></g></g><g fill="#f05f1b" fill-opacity="0.4"><g transform="translate(202.843107, 261.312094)"><g><path d="M 26.511719 -14.210938 C 26.332031 -14.273438 26.15625 -14.332031 25.976562 -14.332031 C 25.496094 -14.332031 25.078125 -14.03125 24.839844 -13.554688 C 21.4375 -5.851562 19.109375 -2.507812 16.242188 -2.507812 C 14.988281 -2.507812 14.449219 -3.285156 14.449219 -5.015625 C 14.449219 -9.316406 19.109375 -18.210938 19.109375 -22.75 C 19.109375 -25.914062 17.734375 -28.363281 13.496094 -28.363281 C 11.585938 -28.363281 9.792969 -27.289062 8.0625 -25.558594 C 10.089844 -31.230469 11.40625 -34.992188 11.941406 -36.542969 C 12.242188 -37.320312 11.644531 -38.214844 10.75 -38.214844 C 10.210938 -38.214844 9.734375 -37.917969 9.554688 -37.441406 C 7.582031 -31.648438 2.449219 -17.4375 -3.222656 -1.671875 C -3.464844 -1.015625 -3.105469 -0.296875 -2.449219 -0.0585938 C -1.792969 0.121094 -1.074219 -0.179688 -0.835938 -0.894531 C 4.476562 -15.464844 5.015625 -17.792969 8.777344 -22.570312 C 10.332031 -24.484375 12.003906 -25.855469 13.496094 -25.855469 C 15.824219 -25.855469 16.601562 -24.484375 16.601562 -22.75 C 16.601562 -18.152344 11.941406 -10.507812 11.941406 -5.015625 C 11.941406 -2.089844 13.316406 0 16.242188 0 C 20.300781 0 23.109375 -3.523438 27.167969 -12.539062 C 27.230469 -12.71875 27.289062 -12.898438 27.289062 -13.015625 C 27.289062 -13.554688 26.992188 -13.972656 26.511719 -14.210938 Z M 26.511719 -14.210938 "/></g></g></g><g fill="#f05f1b" fill-opacity="0.4"><g transform="translate(226.667939, 261.312094)"><g><path d="M 26.691406 -12.597656 C 27.050781 -13.433594 26.394531 -14.332031 25.496094 -14.332031 C 25.019531 -14.332031 24.542969 -14.03125 24.363281 -13.554688 C 22.273438 -8.597656 20.183594 -6.328125 17.675781 -6.328125 C 16.300781 -6.328125 15.285156 -6.746094 14.628906 -7.582031 C 17.375 -12.242188 19.289062 -18.09375 19.289062 -21.855469 C 19.289062 -25.4375 17.257812 -28.125 13.316406 -28.246094 C 10.332031 -28.246094 7.40625 -26.15625 4.898438 -21.972656 C 2.925781 -18.75 -0.179688 -12.957031 -0.179688 -6.03125 C -0.179688 -2.566406 1.132812 0 5.015625 0 C 7.882812 0 10.925781 -2.449219 13.136719 -5.433594 C 14.449219 -4.359375 16.003906 -3.820312 17.675781 -3.820312 C 21.257812 -3.820312 24.066406 -6.570312 26.691406 -12.597656 Z M 12.839844 -14.332031 C 12.242188 -14.332031 11.703125 -13.972656 11.585938 -13.375 C 11.167969 -11.882812 11.046875 -9.253906 11.703125 -7.703125 C 9.734375 -4.898438 7.226562 -2.507812 5.015625 -2.507812 C 3.105469 -2.507812 2.386719 -4 2.386719 -6.152344 C 2.386719 -12.300781 5.554688 -18.09375 7.105469 -20.660156 C 8.835938 -23.648438 10.988281 -25.738281 13.257812 -25.738281 C 15.285156 -25.738281 16.78125 -24.421875 16.78125 -21.914062 C 16.78125 -19.167969 15.644531 -15.046875 13.792969 -11.34375 C 13.855469 -11.761719 13.855469 -12.242188 14.03125 -12.71875 C 14.273438 -13.554688 13.675781 -14.332031 12.839844 -14.332031 Z M 12.839844 -14.332031 "/></g></g></g><g fill="#f05f1b" fill-opacity="0.4"><g transform="translate(250.015076, 261.312094)"><g><path d="M 19.707031 -10.570312 C 19.644531 -14.628906 18.035156 -16.71875 14.929688 -22.453125 C 16.78125 -24.542969 18.273438 -27.167969 18.273438 -29.558594 C 18.152344 -31.289062 17.136719 -32.664062 15.40625 -32.664062 C 12.957031 -32.664062 11.046875 -30.035156 11.046875 -26.929688 C 11.046875 -25.558594 11.40625 -24.242188 11.941406 -22.988281 C 11.226562 -22.273438 10.628906 -21.617188 9.914062 -20.78125 C 9.734375 -20.542969 9.613281 -20.242188 9.613281 -20.003906 C 9.613281 -19.644531 9.734375 -19.226562 10.03125 -18.988281 C 10.269531 -18.75 10.628906 -18.691406 10.925781 -18.691406 C 11.285156 -18.691406 11.644531 -18.871094 11.882812 -19.167969 C 12.242188 -19.644531 12.660156 -20.125 13.078125 -20.542969 C 16.242188 -14.988281 17.136719 -13.257812 17.199219 -10.628906 C 17.078125 -5.671875 13.613281 -2.507812 8.777344 -2.507812 C 5.316406 -2.507812 2.269531 -5.074219 2.269531 -8.71875 C 2.507812 -12.359375 4.65625 -15.109375 7.941406 -15.109375 C 9.496094 -15.109375 10.988281 -13.613281 11.105469 -11.585938 C 11.105469 -10.867188 11.644531 -10.332031 12.359375 -10.332031 C 13.078125 -10.332031 13.613281 -10.867188 13.613281 -11.585938 C 13.496094 -14.867188 10.988281 -17.617188 7.882812 -17.617188 C 3.105469 -17.617188 0.121094 -14.09375 -0.238281 -8.71875 C -0.238281 -3.882812 3.820312 0 8.777344 0 C 14.808594 0 19.585938 -4.121094 19.707031 -10.570312 Z M 13.855469 -25.078125 C 13.675781 -25.738281 13.554688 -26.332031 13.554688 -26.992188 C 13.554688 -27.828125 13.734375 -28.902344 14.449219 -29.617188 C 15.046875 -30.214844 15.703125 -30.394531 15.703125 -29.558594 C 15.703125 -28.246094 14.808594 -26.394531 13.855469 -25.078125 Z M 13.855469 -25.078125 "/></g></g></g><g fill="#f05f1b" fill-opacity="0.4"><g transform="translate(273.003946, 261.312094)"><g><path d="M 15.046875 -14.210938 C 14.867188 -14.273438 14.691406 -14.332031 14.511719 -14.332031 C 14.03125 -14.332031 13.554688 -14.03125 13.316406 -13.613281 C 10.507812 -7.464844 7.644531 -2.507812 3.34375 -2.507812 C 2.148438 -2.507812 1.433594 -3.402344 1.433594 -5.015625 C 1.433594 -6.089844 2.089844 -8.777344 3.402344 -12.839844 C 5.136719 -17.914062 6.867188 -22.691406 8.539062 -27.46875 L 11.644531 -36.542969 C 11.882812 -37.203125 11.523438 -37.917969 10.867188 -38.15625 C 10.210938 -38.335938 9.496094 -38.039062 9.253906 -37.378906 L 6.152344 -28.304688 C 4.417969 -23.347656 2.628906 -18.332031 1.015625 -13.613281 C -0.476562 -8.898438 -1.074219 -6.746094 -1.074219 -5.015625 C -1.074219 -2.148438 0.476562 0 3.34375 0 C 8.835938 0 12.179688 -5.074219 15.644531 -12.539062 C 15.703125 -12.71875 15.765625 -12.898438 15.765625 -13.078125 C 15.765625 -13.554688 15.464844 -13.972656 15.046875 -14.210938 Z M 15.046875 -14.210938 "/></g></g></g><g fill="#f05f1b" fill-opacity="0.4"><g transform="translate(285.304486, 261.312094)"><g><path d="M 26.75 -14.210938 C 26.574219 -14.273438 26.394531 -14.332031 26.214844 -14.332031 C 25.738281 -14.332031 25.320312 -14.03125 25.078125 -13.554688 L 25.019531 -13.375 C 23.050781 -8.957031 20.183594 -2.507812 16.480469 -2.507812 C 15.226562 -2.507812 14.691406 -3.222656 14.691406 -5.015625 C 14.691406 -7.644531 16.660156 -12.839844 18.808594 -18.871094 L 21.796875 -26.871094 C 22.09375 -27.585938 21.617188 -28.542969 20.660156 -28.542969 C 20.125 -28.542969 19.644531 -28.246094 19.464844 -27.765625 C 19.167969 -26.992188 18.808594 -26.09375 18.453125 -25.078125 C 17.375 -27.230469 15.527344 -28.246094 13.015625 -28.246094 C 5.851562 -28.246094 -0.179688 -14.273438 -0.179688 -6.449219 C -0.179688 -2.867188 1.375 0 4.71875 0 C 7.285156 0 9.792969 -1.671875 12.179688 -5.015625 C 12.179688 -2.089844 13.613281 0 16.480469 0 C 21.855469 0 25.078125 -7.34375 27.347656 -12.359375 L 27.410156 -12.539062 C 27.46875 -12.71875 27.527344 -12.898438 27.527344 -13.078125 C 27.527344 -13.554688 27.230469 -13.972656 26.75 -14.210938 Z M 4.65625 -2.507812 C 2.867188 -2.507812 2.328125 -4.238281 2.328125 -6.867188 C 2.449219 -12.777344 7.523438 -25.617188 13.015625 -25.738281 C 15.167969 -25.738281 16.71875 -24.125 16.839844 -21.378906 L 15.40625 -17.554688 C 13.015625 -11.464844 9.496094 -2.507812 4.65625 -2.507812 Z M 4.65625 -2.507812 "/></g></g></g><g fill="#000000" fill-opacity="1"><g transform="translate(152.076616, 258.672944)"><g><path d="M 61.863281 -45.023438 C 61.863281 -45.742188 61.265625 -46.21875 60.609375 -46.21875 C 56.964844 -46.21875 50.996094 -38.632812 48.007812 -34.8125 C 42.992188 -28.421875 37.621094 -21.617188 30.8125 -21.617188 C 30.09375 -21.617188 29.558594 -21.019531 29.558594 -20.363281 C 29.558594 -19.644531 30.09375 -19.109375 30.8125 -19.109375 C 35.949219 -18.988281 38.214844 -15.527344 38.214844 -8.179688 C 38.15625 -5.433594 37.859375 -2.566406 37.558594 -0.121094 C 37.261719 2.449219 37.140625 2.984375 37.140625 4.71875 C 37.140625 9.496094 39.292969 12.539062 43.710938 12.539062 C 44.367188 12.539062 44.964844 11.941406 44.964844 11.285156 C 44.964844 10.570312 44.367188 9.972656 43.710938 9.972656 C 40.964844 9.972656 39.648438 8.300781 39.648438 4.71875 C 39.648438 3.34375 39.710938 2.925781 40.066406 0.179688 C 40.367188 -2.328125 40.722656 -5.253906 40.722656 -8.179688 C 40.722656 -13.136719 39.828125 -17.972656 36.1875 -20.242188 C 41.5625 -22.570312 45.859375 -28.066406 49.980469 -33.261719 C 53.742188 -38.039062 57.265625 -42.574219 60.96875 -43.769531 C 61.503906 -43.949219 61.863281 -44.425781 61.863281 -45.023438 Z M 34.394531 -35.949219 C 35.410156 -37.917969 37.023438 -39.351562 38.992188 -40.425781 C 39.46875 -40.664062 39.710938 -41.082031 39.710938 -41.5625 C 39.710938 -41.738281 39.648438 -41.917969 39.589844 -42.097656 C 39.351562 -42.574219 38.933594 -42.816406 38.457031 -42.816406 C 38.277344 -42.816406 38.039062 -42.753906 37.859375 -42.636719 C 36.542969 -41.917969 35.410156 -41.082031 34.035156 -39.769531 C 31.109375 -40.304688 28.484375 -41.140625 26.035156 -41.917969 C 21.972656 -43.171875 18.273438 -44.308594 13.855469 -44.308594 C 8.597656 -44.308594 3.523438 -39.53125 3.523438 -33.679688 C 3.523438 -28.484375 7.164062 -25.019531 12.898438 -25.019531 C 15.046875 -25.019531 17.375 -25.558594 19.464844 -26.511719 C 19.945312 -26.75 20.183594 -27.167969 20.183594 -27.648438 C 20.183594 -28.125 19.824219 -28.902344 18.988281 -28.902344 C 18.75 -28.902344 18.570312 -28.839844 18.390625 -28.78125 C 16.601562 -28.003906 14.691406 -27.527344 12.957031 -27.527344 C 8.898438 -27.527344 6.03125 -29.5 6.03125 -33.679688 C 6.03125 -37.917969 9.851562 -41.800781 13.855469 -41.800781 C 17.855469 -41.800781 21.4375 -40.664062 25.257812 -39.46875 C 27.46875 -38.8125 29.796875 -38.097656 32.363281 -37.5 L 32.1875 -37.140625 C 29.855469 -32.902344 28.183594 -27.46875 26.8125 -23.167969 L 24.421875 -15.882812 C 21.675781 -7.40625 18.929688 0.777344 10.390625 0.777344 C 5.433594 0.777344 2.507812 -2.507812 2.507812 -7.40625 C 2.867188 -13.136719 7.464844 -17.554688 12.898438 -17.554688 C 13.613281 -17.554688 14.152344 -18.152344 14.152344 -18.871094 C 14.152344 -19.527344 13.613281 -20.125 12.898438 -20.125 C 6.210938 -20.003906 0.359375 -14.691406 0 -7.464844 C -0.121094 -1.492188 3.640625 3.285156 10.332031 3.285156 C 20.839844 3.285156 23.824219 -5.671875 26.871094 -15.109375 C 26.992188 -15.40625 27.585938 -17.4375 29.199219 -22.390625 C 30.574219 -26.632812 32.246094 -31.945312 34.394531 -35.949219 Z M 34.394531 -35.949219 "/></g></g></g><g fill="#000000" fill-opacity="1"><g transform="translate(200.203957, 258.672944)"><g><path d="M 26.511719 -14.210938 C 26.332031 -14.273438 26.15625 -14.332031 25.976562 -14.332031 C 25.496094 -14.332031 25.078125 -14.03125 24.839844 -13.554688 C 21.4375 -5.851562 19.109375 -2.507812 16.242188 -2.507812 C 14.988281 -2.507812 14.449219 -3.285156 14.449219 -5.015625 C 14.449219 -9.316406 19.109375 -18.210938 19.109375 -22.75 C 19.109375 -25.914062 17.734375 -28.363281 13.496094 -28.363281 C 11.585938 -28.363281 9.792969 -27.289062 8.0625 -25.558594 C 10.089844 -31.230469 11.40625 -34.992188 11.941406 -36.542969 C 12.242188 -37.320312 11.644531 -38.214844 10.75 -38.214844 C 10.210938 -38.214844 9.734375 -37.917969 9.554688 -37.441406 C 7.582031 -31.648438 2.449219 -17.4375 -3.222656 -1.671875 C -3.464844 -1.015625 -3.105469 -0.296875 -2.449219 -0.0585938 C -1.792969 0.121094 -1.074219 -0.179688 -0.835938 -0.894531 C 4.476562 -15.464844 5.015625 -17.792969 8.777344 -22.570312 C 10.332031 -24.484375 12.003906 -25.855469 13.496094 -25.855469 C 15.824219 -25.855469 16.601562 -24.484375 16.601562 -22.75 C 16.601562 -18.152344 11.941406 -10.507812 11.941406 -5.015625 C 11.941406 -2.089844 13.316406 0 16.242188 0 C 20.300781 0 23.109375 -3.523438 27.167969 -12.539062 C 27.230469 -12.71875 27.289062 -12.898438 27.289062 -13.015625 C 27.289062 -13.554688 26.992188 -13.972656 26.511719 -14.210938 Z M 26.511719 -14.210938 "/></g></g></g><g fill="#000000" fill-opacity="1"><g transform="translate(224.028789, 258.672944)"><g><path d="M 26.691406 -12.597656 C 27.050781 -13.433594 26.394531 -14.332031 25.496094 -14.332031 C 25.019531 -14.332031 24.542969 -14.03125 24.363281 -13.554688 C 22.273438 -8.597656 20.183594 -6.328125 17.675781 -6.328125 C 16.300781 -6.328125 15.285156 -6.746094 14.628906 -7.582031 C 17.375 -12.242188 19.289062 -18.09375 19.289062 -21.855469 C 19.289062 -25.4375 17.257812 -28.125 13.316406 -28.246094 C 10.332031 -28.246094 7.40625 -26.15625 4.898438 -21.972656 C 2.925781 -18.75 -0.179688 -12.957031 -0.179688 -6.03125 C -0.179688 -2.566406 1.132812 0 5.015625 0 C 7.882812 0 10.925781 -2.449219 13.136719 -5.433594 C 14.449219 -4.359375 16.003906 -3.820312 17.675781 -3.820312 C 21.257812 -3.820312 24.066406 -6.570312 26.691406 -12.597656 Z M 12.839844 -14.332031 C 12.242188 -14.332031 11.703125 -13.972656 11.585938 -13.375 C 11.167969 -11.882812 11.046875 -9.253906 11.703125 -7.703125 C 9.734375 -4.898438 7.226562 -2.507812 5.015625 -2.507812 C 3.105469 -2.507812 2.386719 -4 2.386719 -6.152344 C 2.386719 -12.300781 5.554688 -18.09375 7.105469 -20.660156 C 8.835938 -23.648438 10.988281 -25.738281 13.257812 -25.738281 C 15.285156 -25.738281 16.78125 -24.421875 16.78125 -21.914062 C 16.78125 -19.167969 15.644531 -15.046875 13.792969 -11.34375 C 13.855469 -11.761719 13.855469 -12.242188 14.03125 -12.71875 C 14.273438 -13.554688 13.675781 -14.332031 12.839844 -14.332031 Z M 12.839844 -14.332031 "/></g></g></g><g fill="#000000" fill-opacity="1"><g transform="translate(247.375926, 258.672944)"><g><path d="M 19.707031 -10.570312 C 19.644531 -14.628906 18.035156 -16.71875 14.929688 -22.453125 C 16.78125 -24.542969 18.273438 -27.167969 18.273438 -29.558594 C 18.152344 -31.289062 17.136719 -32.664062 15.40625 -32.664062 C 12.957031 -32.664062 11.046875 -30.035156 11.046875 -26.929688 C 11.046875 -25.558594 11.40625 -24.242188 11.941406 -22.988281 C 11.226562 -22.273438 10.628906 -21.617188 9.914062 -20.78125 C 9.734375 -20.542969 9.613281 -20.242188 9.613281 -20.003906 C 9.613281 -19.644531 9.734375 -19.226562 10.03125 -18.988281 C 10.269531 -18.75 10.628906 -18.691406 10.925781 -18.691406 C 11.285156 -18.691406 11.644531 -18.871094 11.882812 -19.167969 C 12.242188 -19.644531 12.660156 -20.125 13.078125 -20.542969 C 16.242188 -14.988281 17.136719 -13.257812 17.199219 -10.628906 C 17.078125 -5.671875 13.613281 -2.507812 8.777344 -2.507812 C 5.316406 -2.507812 2.269531 -5.074219 2.269531 -8.71875 C 2.507812 -12.359375 4.65625 -15.109375 7.941406 -15.109375 C 9.496094 -15.109375 10.988281 -13.613281 11.105469 -11.585938 C 11.105469 -10.867188 11.644531 -10.332031 12.359375 -10.332031 C 13.078125 -10.332031 13.613281 -10.867188 13.613281 -11.585938 C 13.496094 -14.867188 10.988281 -17.617188 7.882812 -17.617188 C 3.105469 -17.617188 0.121094 -14.09375 -0.238281 -8.71875 C -0.238281 -3.882812 3.820312 0 8.777344 0 C 14.808594 0 19.585938 -4.121094 19.707031 -10.570312 Z M 13.855469 -25.078125 C 13.675781 -25.738281 13.554688 -26.332031 13.554688 -26.992188 C 13.554688 -27.828125 13.734375 -28.902344 14.449219 -29.617188 C 15.046875 -30.214844 15.703125 -30.394531 15.703125 -29.558594 C 15.703125 -28.246094 14.808594 -26.394531 13.855469 -25.078125 Z M 13.855469 -25.078125 "/></g></g></g><g fill="#000000" fill-opacity="1"><g transform="translate(270.364796, 258.672944)"><g><path d="M 15.046875 -14.210938 C 14.867188 -14.273438 14.691406 -14.332031 14.511719 -14.332031 C 14.03125 -14.332031 13.554688 -14.03125 13.316406 -13.613281 C 10.507812 -7.464844 7.644531 -2.507812 3.34375 -2.507812 C 2.148438 -2.507812 1.433594 -3.402344 1.433594 -5.015625 C 1.433594 -6.089844 2.089844 -8.777344 3.402344 -12.839844 C 5.136719 -17.914062 6.867188 -22.691406 8.539062 -27.46875 L 11.644531 -36.542969 C 11.882812 -37.203125 11.523438 -37.917969 10.867188 -38.15625 C 10.210938 -38.335938 9.496094 -38.039062 9.253906 -37.378906 L 6.152344 -28.304688 C 4.417969 -23.347656 2.628906 -18.332031 1.015625 -13.613281 C -0.476562 -8.898438 -1.074219 -6.746094 -1.074219 -5.015625 C -1.074219 -2.148438 0.476562 0 3.34375 0 C 8.835938 0 12.179688 -5.074219 15.644531 -12.539062 C 15.703125 -12.71875 15.765625 -12.898438 15.765625 -13.078125 C 15.765625 -13.554688 15.464844 -13.972656 15.046875 -14.210938 Z M 15.046875 -14.210938 "/></g></g></g><g fill="#000000" fill-opacity="1"><g transform="translate(282.665336, 258.672944)"><g><path d="M 26.75 -14.210938 C 26.574219 -14.273438 26.394531 -14.332031 26.214844 -14.332031 C 25.738281 -14.332031 25.320312 -14.03125 25.078125 -13.554688 L 25.019531 -13.375 C 23.050781 -8.957031 20.183594 -2.507812 16.480469 -2.507812 C 15.226562 -2.507812 14.691406 -3.222656 14.691406 -5.015625 C 14.691406 -7.644531 16.660156 -12.839844 18.808594 -18.871094 L 21.796875 -26.871094 C 22.09375 -27.585938 21.617188 -28.542969 20.660156 -28.542969 C 20.125 -28.542969 19.644531 -28.246094 19.464844 -27.765625 C 19.167969 -26.992188 18.808594 -26.09375 18.453125 -25.078125 C 17.375 -27.230469 15.527344 -28.246094 13.015625 -28.246094 C 5.851562 -28.246094 -0.179688 -14.273438 -0.179688 -6.449219 C -0.179688 -2.867188 1.375 0 4.71875 0 C 7.285156 0 9.792969 -1.671875 12.179688 -5.015625 C 12.179688 -2.089844 13.613281 0 16.480469 0 C 21.855469 0 25.078125 -7.34375 27.347656 -12.359375 L 27.410156 -12.539062 C 27.46875 -12.71875 27.527344 -12.898438 27.527344 -13.078125 C 27.527344 -13.554688 27.230469 -13.972656 26.75 -14.210938 Z M 4.65625 -2.507812 C 2.867188 -2.507812 2.328125 -4.238281 2.328125 -6.867188 C 2.449219 -12.777344 7.523438 -25.617188 13.015625 -25.738281 C 15.167969 -25.738281 16.71875 -24.125 16.839844 -21.378906 L 15.40625 -17.554688 C 13.015625 -11.464844 9.496094 -2.507812 4.65625 -2.507812 Z M 4.65625 -2.507812 "/></g></g></g></svg>