<svg xmlns="http://www.w3.org/2000/svg" xmlns:xlink="http://www.w3.org/1999/xlink" width="1280" zoomAndPan="magnify" viewBox="0 0 960 599.999999" height="800" preserveAspectRatio="xMidYMid meet" version="1.0"><defs><filter x="0%" y="0%" width="100%" height="100%" id="a6052c232b"><feColorMatrix values="0 0 0 0 1 0 0 0 0 1 0 0 0 0 1 0 0 0 1 0" color-interpolation-filters="sRGB"/></filter><g/><mask id="ede52bce49"><g filter="url(#a6052c232b)"><rect x="-96" width="1152" fill="#000000" y="-60" height="719.999999" fill-opacity="0.74"/></g></mask><clipPath id="98b7ba1b26"><path d="M 0.960938 0 L 556.621094 0 L 556.621094 555.65625 L 0.960938 555.65625 Z M 0.960938 0 " clip-rule="nonzero"/></clipPath><clipPath id="f8bcebb169"><path d="M 278.789062 0 C 125.351562 0 0.960938 124.386719 0.960938 277.828125 C 0.960938 431.269531 125.351562 555.65625 278.789062 555.65625 C 432.230469 555.65625 556.621094 431.269531 556.621094 277.828125 C 556.621094 124.386719 432.230469 0 278.789062 0 Z M 278.789062 0 " clip-rule="nonzero"/></clipPath><clipPath id="8c5282086b"><rect x="0" width="557" y="0" height="556"/></clipPath><mask id="522ef1cfd4"><g filter="url(#a6052c232b)"><rect x="-96" width="1152" fill="#000000" y="-60" height="719.999999" fill-opacity="0.77"/></g></mask><clipPath id="ddc2a2ea68"><path d="M 0.25 0.859375 L 306.269531 0.859375 L 306.269531 306.878906 L 0.25 306.878906 Z M 0.25 0.859375 " clip-rule="nonzero"/></clipPath><clipPath id="f089182b32"><path d="M 153.261719 0.859375 C 68.753906 0.859375 0.25 69.363281 0.25 153.867188 C 0.25 238.371094 68.753906 306.878906 153.261719 306.878906 C 237.765625 306.878906 306.269531 238.371094 306.269531 153.867188 C 306.269531 69.363281 237.765625 0.859375 153.261719 0.859375 Z M 153.261719 0.859375 " clip-rule="nonzero"/></clipPath><clipPath id="a398a04789"><rect x="0" width="307" y="0" height="307"/></clipPath></defs><g fill="#000000" fill-opacity="1"><g transform="translate(156.519428, 436.004336)"><g/></g></g><g fill="#000000" fill-opacity="1"><g transform="translate(160.385188, 436.004336)"><g/></g></g><g fill="#000000" fill-opacity="1"><g transform="translate(164.250948, 436.004336)"><g/></g></g><g fill="#000000" fill-opacity="1"><g transform="translate(168.116708, 436.004336)"><g/></g></g><g fill="#000000" fill-opacity="1"><g transform="translate(171.982468, 436.004336)"><g/></g></g><g fill="#000000" fill-opacity="1"><g transform="translate(175.848229, 436.004336)"><g/></g></g><g fill="#000000" fill-opacity="1"><g transform="translate(166.19349, 458.156034)"><g/></g></g><g mask="url(#ede52bce49)"><g transform="matrix(1, 0, 0, 1, 191, -0.000000000000034788)"><g clip-path="url(#8c5282086b)"><g clip-path="url(#98b7ba1b26)"><g clip-path="url(#f8bcebb169)"><path fill="#ff5500" d="M 0.960938 0 L 556.621094 0 L 556.621094 555.65625 L 0.960938 555.65625 Z M 0.960938 0 " fill-opacity="1" fill-rule="nonzero"/></g></g></g></g></g><g mask="url(#522ef1cfd4)"><g transform="matrix(1, 0, 0, 1, 497, 259)"><g clip-path="url(#a398a04789)"><g clip-path="url(#ddc2a2ea68)"><g clip-path="url(#f089182b32)"><path fill="#ccc5b9" d="M 0.25 0.859375 L 306.269531 0.859375 L 306.269531 306.878906 L 0.25 306.878906 Z M 0.25 0.859375 " fill-opacity="1" fill-rule="nonzero"/></g></g></g></g></g><path fill="#f9ebe2" d="M 549.980469 341.539062 C 549.980469 341.539062 614.835938 369.386719 618.457031 372.929688 C 622.078125 376.46875 610.613281 473.371094 610.613281 473.371094 L 614.535156 560.933594 L 453.097656 558.039062 C 453.097656 558.039062 444.644531 458.882812 447.964844 420.574219 C 451.285156 382.265625 456.714844 356.1875 456.714844 356.1875 L 482.0625 347.335938 L 488.101562 358.039062 Z M 549.980469 341.539062 " fill-opacity="1" fill-rule="nonzero"/><path fill="#8e6057" d="M 719.0625 542.269531 L 247.070312 542.269531 C 243.117188 542.335938 234.933594 551.742188 231.894531 554.363281 L 194.371094 588.582031 C 192.023438 590.609375 193.488281 592.578125 196.632812 592.578125 L 686.355469 592.578125 C 689.15625 592.578125 691.792969 591.269531 693.429688 589.066406 L 722.90625 549.402344 C 725.140625 546.398438 722.882812 542.203125 719.0625 542.269531 Z M 719.0625 542.269531 " fill-opacity="1" fill-rule="nonzero"/><path fill="#824434" d="M 449.730469 225.445312 C 448.648438 224.1875 448.253906 222.496094 447.898438 220.875 C 447.039062 216.957031 446.210938 212.734375 447.761719 209.035156 C 448.089844 209.347656 448.421875 209.664062 448.753906 209.980469 C 448.753906 208.378906 448.75 206.765625 449.054688 205.195312 C 449.289062 203.972656 449.71875 202.761719 450.414062 201.738281 C 450.679688 201.347656 451.273438 201.324219 451.5625 201.703125 C 452.175781 202.503906 453.050781 203.105469 454.023438 203.363281 C 454.199219 203.410156 454.390625 203.445312 454.558594 203.375 C 454.710938 203.3125 454.8125 203.171875 454.90625 203.035156 C 455.566406 202.039062 455.921875 200.777344 456.753906 199.976562 C 456.984375 199.753906 457.320312 199.675781 457.621094 199.773438 C 462.089844 201.238281 466.699219 202.273438 471.367188 202.871094 C 473.109375 203.09375 474.917969 203.273438 476.460938 204.121094 C 478.003906 204.972656 479.21875 206.699219 478.871094 208.425781 C 478.679688 209.371094 478.054688 210.1875 477.476562 210.921875 C 476.140625 212.625 474.523438 214.066406 472.75 215.308594 C 470.269531 217.042969 468.203125 219.316406 465.710938 221.035156 C 463.679688 222.445312 461.398438 223.457031 459.097656 224.367188 C 457.34375 225.066406 455.496094 225.722656 453.609375 225.59375 C 453.101562 225.558594 452.601562 225.46875 452.101562 225.378906 C 451.230469 225.222656 450.363281 225.066406 449.492188 224.910156 " fill-opacity="1" fill-rule="nonzero"/><path fill="#f3a372" d="M 539.703125 352.476562 L 524.609375 382.371094 L 495.363281 387.808594 L 483.273438 385.699219 L 483.273438 311.101562 L 537.355469 287.140625 L 537.460938 290.070312 Z M 539.703125 352.476562 " fill-opacity="1" fill-rule="nonzero"/><path fill="#d8834d" d="M 517.363281 308.082031 C 517.363281 308.082031 517.035156 311.605469 514.960938 316.21875 C 511.496094 323.957031 503.136719 334.75 483.273438 337.046875 L 483.273438 312.707031 Z M 517.363281 308.082031 " fill-opacity="1" fill-rule="nonzero"/><path fill="#f3a372" d="M 541.058594 255.488281 C 541.050781 255.523438 538.929688 275.910156 537.460938 290.066406 C 536.679688 297.609375 536.078125 303.382812 536.078125 303.382812 C 530.09375 308.40625 523.195312 312.785156 514.964844 316.21875 C 506.109375 319.925781 495.71875 322.535156 483.273438 323.679688 C 481.554688 323.839844 479.789062 323.972656 477.992188 324.078125 C 474.269531 324.078125 470.785156 323.820312 467.648438 323.128906 C 458.242188 321.035156 451.96875 314.960938 451.96875 299.839844 L 449.628906 224.484375 C 469.960938 208.398438 502.652344 223.800781 521.59375 234.878906 C 528.242188 238.777344 542.03125 246.128906 541.058594 255.488281 Z M 541.058594 255.488281 " fill-opacity="1" fill-rule="nonzero"/><path fill="#582c2b" d="M 463.796875 268.6875 C 463.796875 269.238281 463.738281 269.769531 463.625 270.277344 C 463.511719 270.785156 463.347656 271.238281 463.136719 271.625 C 462.925781 272.015625 462.679688 272.316406 462.40625 272.527344 C 462.128906 272.738281 461.84375 272.84375 461.542969 272.84375 C 461.246094 272.84375 460.957031 272.738281 460.679688 272.527344 C 460.40625 272.316406 460.160156 272.015625 459.949219 271.625 C 459.738281 271.238281 459.574219 270.785156 459.460938 270.277344 C 459.347656 269.769531 459.289062 269.238281 459.289062 268.6875 C 459.289062 268.132812 459.347656 267.605469 459.460938 267.09375 C 459.574219 266.585938 459.738281 266.136719 459.949219 265.746094 C 460.160156 265.355469 460.40625 265.054688 460.679688 264.84375 C 460.957031 264.632812 461.246094 264.527344 461.542969 264.527344 C 461.84375 264.527344 462.128906 264.632812 462.40625 264.84375 C 462.679688 265.054688 462.925781 265.355469 463.136719 265.746094 C 463.347656 266.136719 463.511719 266.585938 463.625 267.09375 C 463.738281 267.605469 463.796875 268.132812 463.796875 268.6875 Z M 463.796875 268.6875 " fill-opacity="1" fill-rule="nonzero"/><path fill="#582c2b" d="M 498.5 268.6875 C 498.5 269.238281 498.441406 269.769531 498.328125 270.277344 C 498.210938 270.785156 498.050781 271.238281 497.839844 271.625 C 497.628906 272.015625 497.382812 272.316406 497.109375 272.527344 C 496.832031 272.738281 496.542969 272.84375 496.246094 272.84375 C 495.945312 272.84375 495.660156 272.738281 495.382812 272.527344 C 495.109375 272.316406 494.863281 272.015625 494.652344 271.625 C 494.441406 271.238281 494.277344 270.785156 494.164062 270.277344 C 494.050781 269.769531 493.992188 269.238281 493.992188 268.6875 C 493.992188 268.132812 494.050781 267.605469 494.164062 267.09375 C 494.277344 266.585938 494.441406 266.136719 494.652344 265.746094 C 494.863281 265.355469 495.109375 265.054688 495.382812 264.84375 C 495.660156 264.632812 495.945312 264.527344 496.246094 264.527344 C 496.542969 264.527344 496.832031 264.632812 497.109375 264.84375 C 497.382812 265.054688 497.628906 265.355469 497.839844 265.746094 C 498.050781 266.136719 498.210938 266.585938 498.328125 267.09375 C 498.441406 267.605469 498.5 268.132812 498.5 268.6875 Z M 498.5 268.6875 " fill-opacity="1" fill-rule="nonzero"/><path fill="#824434" d="M 490.210938 254.390625 C 490.210938 253.738281 490.210938 253.082031 490.210938 252.429688 C 490.210938 250.941406 491.527344 249.320312 493.09375 249.089844 C 497.566406 248.113281 506.65625 249.214844 511.855469 253.359375 C 513.164062 254.347656 512.804688 256.097656 511.367188 255.714844 C 505.382812 254.210938 498.996094 254.339844 492.953125 256.101562 C 491.445312 256.539062 490.210938 255.824219 490.210938 254.390625 Z M 490.210938 254.390625 " fill-opacity="1" fill-rule="nonzero"/><path fill="#824434" d="M 472.105469 255.296875 C 472.105469 254.644531 472.105469 253.988281 472.105469 253.332031 C 472.105469 251.847656 470.929688 250.226562 469.535156 249.996094 C 465.546875 249.019531 457.445312 250.121094 452.8125 254.265625 C 451.644531 255.25 451.964844 257 453.246094 256.621094 C 458.582031 255.113281 464.273438 255.246094 469.660156 257.003906 C 471.007812 257.445312 472.105469 256.730469 472.105469 255.296875 Z M 472.105469 255.296875 " fill-opacity="1" fill-rule="nonzero"/><path fill="#582c2b" d="M 478.9375 287.585938 C 478.90625 287.585938 478.867188 287.578125 478.835938 287.570312 C 475.429688 286.738281 473.796875 284.882812 472.484375 283.390625 L 472.3125 283.199219 C 471.90625 282.738281 471.703125 282.144531 471.742188 281.527344 C 471.78125 280.886719 472.085938 280.277344 472.574219 279.851562 C 478.464844 274.6875 475.476562 259.699219 475.441406 259.546875 C 475.394531 259.308594 475.546875 259.074219 475.789062 259.023438 C 476.027344 258.976562 476.261719 259.128906 476.3125 259.371094 C 476.441406 260.007812 479.433594 275.015625 473.160156 280.515625 C 472.847656 280.789062 472.652344 281.179688 472.625 281.582031 C 472.601562 281.960938 472.726562 282.324219 472.976562 282.609375 L 473.148438 282.804688 C 474.441406 284.273438 475.910156 285.941406 479.042969 286.707031 C 479.28125 286.765625 479.429688 287.007812 479.367188 287.242188 C 479.320312 287.449219 479.136719 287.585938 478.9375 287.585938 Z M 478.9375 287.585938 " fill-opacity="1" fill-rule="nonzero"/><path fill="#582c2b" d="M 483.972656 300.148438 C 478.265625 300.148438 472.496094 299.574219 472.132812 299.539062 C 471.890625 299.515625 471.710938 299.296875 471.734375 299.054688 C 471.761719 298.808594 471.976562 298.632812 472.222656 298.65625 C 472.355469 298.671875 485.65625 299.996094 491.851562 298.664062 C 492.09375 298.613281 492.328125 298.765625 492.378906 299.003906 C 492.429688 299.246094 492.277344 299.480469 492.035156 299.53125 C 489.875 299.996094 486.933594 300.148438 483.972656 300.148438 Z M 483.972656 300.148438 " fill-opacity="1" fill-rule="nonzero"/><path fill="#824434" d="M 533.816406 272.84375 C 533.816406 272.84375 530.949219 244.363281 515.9375 234.097656 C 496.929688 226.546875 450.082031 224.398438 450.503906 237.972656 C 450.640625 242.375 450.332031 242.082031 450.195312 242.84375 C 449.765625 241.238281 449.628906 231.980469 449.628906 231.980469 C 449.628906 231.980469 444.195312 202.953125 467.269531 201.804688 C 496.453125 200.355469 517.75 196.066406 530.195312 214.617188 C 530.195312 214.617188 531.347656 214.496094 537.054688 215.09375 C 544.429688 215.871094 549.910156 222.296875 549.980469 229.714844 C 550.105469 243.128906 546.945312 265.652344 546.945312 265.652344 Z M 533.816406 272.84375 " fill-opacity="1" fill-rule="nonzero"/><path fill="#f3a372" d="M 531.609375 268.6875 C 531.609375 268.6875 546.652344 256.96875 551.230469 267.820312 C 555.808594 278.671875 540.628906 290.96875 535.085938 288.796875 Z M 531.609375 268.6875 " fill-opacity="1" fill-rule="nonzero"/><path fill="#774036" d="M 539.183594 277.128906 C 539.078125 277.128906 538.96875 277.09375 538.882812 277.019531 C 538.679688 276.851562 538.652344 276.554688 538.820312 276.355469 C 539.363281 275.707031 544.160156 270.027344 546.421875 269.878906 C 546.683594 269.859375 546.90625 270.058594 546.925781 270.316406 C 546.945312 270.578125 546.746094 270.800781 546.488281 270.820312 C 545.085938 270.914062 541.488281 274.632812 539.546875 276.960938 C 539.453125 277.070312 539.316406 277.128906 539.183594 277.128906 Z M 539.183594 277.128906 " fill-opacity="1" fill-rule="nonzero"/><path fill="#774036" d="M 543.402344 277.699219 C 543.246094 277.699219 543.09375 277.621094 543.003906 277.480469 C 541.964844 275.839844 540.101562 276.394531 540.027344 276.417969 C 539.777344 276.496094 539.515625 276.355469 539.433594 276.109375 C 539.355469 275.859375 539.492188 275.597656 539.738281 275.515625 C 540.640625 275.226562 542.652344 275.164062 543.800781 276.972656 C 543.9375 277.195312 543.875 277.484375 543.652344 277.625 C 543.574219 277.675781 543.488281 277.699219 543.402344 277.699219 Z M 543.402344 277.699219 " fill-opacity="1" fill-rule="nonzero"/><path fill="#582c2b" d="M 454.054688 219.167969 C 452.476562 216.96875 451.453125 214.503906 451.007812 211.832031 C 450.941406 211.445312 450.910156 211.179688 450.871094 210.785156 C 450.832031 210.402344 450.808594 210.015625 450.796875 209.632812 C 450.789062 209.398438 450.597656 209.175781 450.351562 209.1875 C 450.117188 209.199219 449.902344 209.382812 449.90625 209.632812 C 450 212.429688 450.746094 215.191406 452.066406 217.65625 C 452.429688 218.335938 452.839844 218.988281 453.285156 219.613281 C 453.425781 219.808594 453.675781 219.902344 453.890625 219.773438 C 454.089844 219.660156 454.195312 219.363281 454.054688 219.167969 Z M 454.054688 219.167969 " fill-opacity="1" fill-rule="nonzero"/><path fill="#582c2b" d="M 459.234375 211.113281 C 458.832031 210.757812 458.460938 210.367188 458.121094 209.949219 C 458.101562 209.921875 458.074219 209.890625 458.050781 209.859375 C 458.046875 209.855469 458.003906 209.796875 458.039062 209.84375 C 458.003906 209.796875 457.964844 209.746094 457.929688 209.699219 C 457.851562 209.589844 457.769531 209.476562 457.695312 209.363281 C 457.542969 209.136719 457.402344 208.90625 457.265625 208.664062 C 457.136719 208.425781 457.011719 208.183594 456.898438 207.9375 C 456.875 207.882812 456.847656 207.824219 456.824219 207.769531 C 456.789062 207.6875 456.808594 207.730469 456.816406 207.75 C 456.804688 207.722656 456.792969 207.691406 456.78125 207.664062 C 456.726562 207.53125 456.679688 207.398438 456.628906 207.261719 C 456.449219 206.757812 456.308594 206.234375 456.214844 205.707031 C 456.199219 205.632812 456.1875 205.558594 456.175781 205.484375 C 456.171875 205.453125 456.164062 205.425781 456.160156 205.394531 C 456.148438 205.300781 456.164062 205.4375 456.152344 205.332031 C 456.132812 205.183594 456.117188 205.03125 456.105469 204.882812 C 456.082031 204.578125 456.074219 204.277344 456.078125 203.976562 C 456.082031 203.742188 455.871094 203.523438 455.636719 203.53125 C 455.390625 203.542969 455.195312 203.726562 455.191406 203.976562 C 455.152344 206.238281 455.910156 208.515625 457.285156 210.3125 C 457.679688 210.828125 458.117188 211.3125 458.609375 211.742188 C 458.789062 211.902344 459.058594 211.921875 459.234375 211.742188 C 459.394531 211.578125 459.414062 211.269531 459.234375 211.113281 Z M 459.234375 211.113281 " fill-opacity="1" fill-rule="nonzero"/><path fill="#582c2b" d="M 496.558594 209.773438 C 495.523438 208.792969 494.699219 207.589844 494.183594 206.261719 C 494.144531 206.40625 494.109375 206.550781 494.070312 206.691406 C 494.148438 206.625 494.199219 206.589844 494.3125 206.527344 C 494.328125 206.519531 494.441406 206.460938 494.394531 206.480469 C 494.457031 206.453125 494.523438 206.433594 494.589844 206.414062 C 494.652344 206.398438 494.710938 206.382812 494.773438 206.371094 C 494.796875 206.367188 494.820312 206.359375 494.839844 206.359375 C 494.777344 206.367188 494.855469 206.359375 494.863281 206.355469 C 494.992188 206.347656 495.121094 206.34375 495.25 206.347656 C 495.492188 206.359375 495.679688 206.394531 495.949219 206.464844 C 496.207031 206.535156 496.460938 206.621094 496.707031 206.71875 C 497.179688 206.90625 497.726562 207.191406 498.214844 207.441406 C 498.761719 207.71875 499.296875 208.007812 499.828125 208.308594 C 501.941406 209.5 503.957031 210.859375 505.84375 212.378906 C 506.917969 213.242188 507.949219 214.160156 508.9375 215.117188 C 509.148438 214.90625 509.355469 214.699219 509.5625 214.492188 C 508.738281 213.710938 507.980469 212.855469 507.320312 211.929688 C 506.984375 211.464844 506.671875 210.980469 506.386719 210.488281 C 506.25 210.253906 506.097656 210.015625 506.011719 209.757812 C 505.972656 209.644531 505.941406 209.523438 505.9375 209.410156 C 505.9375 209.359375 505.9375 209.3125 505.945312 209.265625 C 505.953125 209.242188 505.957031 209.21875 505.964844 209.199219 C 505.964844 209.199219 506 209.089844 505.980469 209.144531 C 505.960938 209.1875 506.011719 209.085938 506.019531 209.066406 C 506.03125 209.046875 506.042969 209.027344 506.058594 209.007812 C 506.054688 209.011719 506.011719 209.066406 506.042969 209.027344 C 506.070312 209 506.097656 208.96875 506.125 208.941406 C 506.144531 208.925781 506.160156 208.910156 506.179688 208.894531 C 506.148438 208.917969 506.132812 208.925781 506.175781 208.902344 C 506.210938 208.882812 506.246094 208.859375 506.28125 208.839844 C 506.3125 208.824219 506.40625 208.789062 506.324219 208.816406 C 506.414062 208.785156 506.503906 208.757812 506.59375 208.742188 C 506.625 208.734375 506.738281 208.71875 506.652344 208.730469 C 506.699219 208.726562 506.746094 208.71875 506.792969 208.714844 C 506.894531 208.707031 507 208.707031 507.101562 208.714844 C 507.199219 208.71875 507.300781 208.726562 507.398438 208.738281 C 507.3125 208.726562 507.472656 208.753906 507.488281 208.753906 C 507.542969 208.761719 507.597656 208.773438 507.652344 208.789062 C 508.132812 208.894531 508.589844 209.09375 509.039062 209.28125 C 509.535156 209.492188 510.019531 209.726562 510.5 209.972656 C 512.480469 211 514.300781 212.308594 516.011719 213.738281 C 517.820312 215.246094 519.53125 216.875 521.222656 218.519531 C 523.039062 220.285156 524.820312 222.089844 526.554688 223.941406 C 526.769531 224.171875 526.984375 224.402344 527.199219 224.632812 C 527.363281 224.808594 527.660156 224.796875 527.824219 224.632812 C 528 224.457031 527.988281 224.183594 527.824219 224.007812 C 526.03125 222.078125 524.195312 220.191406 522.3125 218.347656 C 520.542969 216.617188 518.753906 214.898438 516.859375 213.300781 C 515.0625 211.785156 513.15625 210.375 511.070312 209.277344 C 510.554688 209.003906 510.023438 208.75 509.484375 208.519531 C 508.996094 208.308594 508.488281 208.082031 507.96875 207.953125 C 507.164062 207.753906 506.03125 207.699219 505.425781 208.390625 C 504.535156 209.40625 505.460938 210.730469 506.050781 211.644531 C 506.710938 212.664062 507.464844 213.621094 508.304688 214.492188 C 508.507812 214.707031 508.722656 214.914062 508.933594 215.121094 C 509.347656 215.511719 509.972656 214.890625 509.5625 214.492188 C 507.722656 212.710938 505.738281 211.085938 503.628906 209.636719 C 502.59375 208.925781 501.523438 208.253906 500.429688 207.632812 C 499.339844 207.011719 498.21875 206.394531 497.058594 205.914062 C 495.898438 205.429688 494.472656 205.164062 493.441406 206.066406 C 493.332031 206.15625 493.273438 206.359375 493.324219 206.496094 C 493.898438 207.972656 494.777344 209.308594 495.929688 210.398438 C 496.101562 210.558594 496.382812 210.570312 496.554688 210.398438 C 496.726562 210.234375 496.734375 209.9375 496.558594 209.773438 Z M 496.558594 209.773438 " fill-opacity="1" fill-rule="nonzero"/><path fill="#582c2b" d="M 537.117188 243.457031 C 537.214844 245.058594 537.3125 246.660156 537.410156 248.257812 C 537.421875 248.449219 537.539062 248.640625 537.734375 248.6875 C 537.917969 248.730469 538.140625 248.664062 538.234375 248.484375 C 538.796875 247.394531 539.339844 246.292969 539.863281 245.183594 C 539.589844 245.144531 539.324219 245.113281 539.050781 245.074219 C 539.457031 247.011719 539.558594 249.011719 539.359375 251 C 539.335938 251.234375 539.578125 251.453125 539.804688 251.445312 C 540.0625 251.433594 540.222656 251.25 540.246094 251 C 540.453125 248.945312 540.332031 246.863281 539.90625 244.839844 C 539.832031 244.480469 539.257812 244.390625 539.097656 244.730469 C 538.574219 245.84375 538.03125 246.941406 537.46875 248.035156 C 537.746094 248.109375 538.019531 248.183594 538.296875 248.257812 C 538.199219 246.65625 538.101562 245.058594 538.003906 243.457031 C 537.988281 243.226562 537.808594 243 537.558594 243.011719 C 537.328125 243.027344 537.097656 243.210938 537.117188 243.457031 Z M 537.117188 243.457031 " fill-opacity="1" fill-rule="nonzero"/><path fill="#582c2b" d="M 476.832031 219.550781 C 476.671875 219.359375 476.515625 219.144531 476.359375 218.902344 C 476.207031 218.65625 476.0625 218.402344 475.9375 218.140625 C 475.816406 217.890625 475.730469 217.683594 475.636719 217.394531 C 475.59375 217.265625 475.550781 217.132812 475.519531 217 C 475.5 216.929688 475.480469 216.859375 475.464844 216.789062 C 475.453125 216.753906 475.4375 216.59375 475.445312 216.703125 C 475.441406 216.65625 475.433594 216.609375 475.433594 216.5625 C 475.433594 216.539062 475.433594 216.515625 475.433594 216.492188 C 475.433594 216.488281 475.445312 216.371094 475.4375 216.445312 C 475.429688 216.507812 475.4375 216.4375 475.445312 216.421875 C 475.449219 216.394531 475.457031 216.367188 475.464844 216.339844 C 475.472656 216.300781 475.5 216.300781 475.453125 216.359375 C 475.476562 216.332031 475.53125 216.273438 475.453125 216.347656 C 475.464844 216.332031 475.480469 216.320312 475.492188 216.304688 C 475.488281 216.3125 475.414062 216.371094 475.476562 216.324219 C 475.460938 216.332031 475.445312 216.339844 475.429688 216.34375 C 475.441406 216.34375 475.449219 216.339844 475.460938 216.335938 C 475.449219 216.339844 475.4375 216.339844 475.425781 216.339844 C 475.441406 216.339844 475.453125 216.339844 475.46875 216.339844 C 475.457031 216.339844 475.445312 216.339844 475.433594 216.335938 C 475.476562 216.351562 475.484375 216.351562 475.457031 216.339844 C 475.414062 216.3125 475.492188 216.359375 475.5 216.367188 C 475.515625 216.375 475.589844 216.425781 475.535156 216.386719 C 475.566406 216.410156 475.59375 216.4375 475.621094 216.460938 C 476.0625 216.878906 476.449219 217.378906 476.824219 217.859375 C 477.003906 218.085938 477.21875 218.378906 477.40625 218.644531 C 477.609375 218.9375 477.804688 219.234375 477.992188 219.535156 C 478.09375 219.695312 478.304688 219.796875 478.492188 219.738281 C 478.671875 219.683594 478.828125 219.511719 478.816406 219.308594 C 478.730469 217.671875 478.644531 216.03125 478.554688 214.390625 C 478.542969 214.160156 478.359375 213.9375 478.109375 213.945312 C 477.878906 213.957031 477.652344 214.144531 477.667969 214.390625 C 477.753906 216.03125 477.84375 217.671875 477.929688 219.308594 C 478.207031 219.234375 478.480469 219.160156 478.757812 219.085938 C 478.371094 218.46875 477.949219 217.871094 477.5 217.296875 C 477.277344 217.007812 477.046875 216.726562 476.808594 216.453125 C 476.59375 216.207031 476.386719 215.941406 476.128906 215.734375 C 475.8125 215.480469 475.394531 215.351562 475.019531 215.570312 C 474.722656 215.742188 474.59375 216.058594 474.558594 216.386719 C 474.527344 216.667969 474.582031 216.945312 474.65625 217.214844 C 474.746094 217.539062 474.855469 217.859375 474.988281 218.171875 C 475.296875 218.902344 475.699219 219.566406 476.207031 220.179688 C 476.359375 220.363281 476.675781 220.335938 476.832031 220.179688 C 477.011719 219.996094 476.984375 219.738281 476.832031 219.550781 Z M 476.832031 219.550781 " fill-opacity="1" fill-rule="nonzero"/><path fill="#f9ebe2" d="M 483.273438 335.535156 L 496.863281 346.855469 C 497.835938 347.667969 499.222656 347.753906 500.289062 347.066406 L 539.183594 326.355469 L 549.980469 341.539062 C 549.980469 341.539062 540.304688 389.679688 520.390625 391.75 C 500.472656 393.820312 465.355469 381.742188 465.355469 381.742188 C 462.515625 366.476562 475.832031 353.441406 483.273438 335.535156 Z M 483.273438 335.535156 " fill-opacity="1" fill-rule="nonzero"/><path fill="#f9ebe2" d="M 456.714844 355.28125 C 456.714844 355.28125 428.804688 368.265625 425.632812 370.984375 C 422.46875 373.699219 360.457031 505.050781 360.457031 505.050781 L 338.730469 543.144531 L 403.910156 544.046875 L 461.542969 436.398438 Z M 456.714844 355.28125 " fill-opacity="1" fill-rule="nonzero"/><path fill="#b44856" d="M 504.707031 366.109375 C 503.15625 367.585938 501.109375 368.835938 498.5 369.171875 C 494.957031 369.625 493.304688 367.515625 492.550781 365.207031 C 495.777344 359.484375 498.5 353.089844 498.5 353.089844 C 498.5 353.089844 501.878906 360.496094 504.707031 366.109375 Z M 504.707031 366.109375 " fill-opacity="1" fill-rule="nonzero"/><path fill="#774036" d="M 508.425781 372.738281 C 508.179688 372.738281 508.066406 372.648438 507.96875 372.570312 C 507.765625 372.410156 507.144531 371.914062 504.3125 366.3125 C 502.09375 361.898438 499.503906 356.324219 498.515625 354.175781 C 497.640625 356.152344 495.429688 361.015625 492.945312 365.425781 C 491.179688 368.546875 489.585938 370.898438 488.207031 372.417969 C 488.042969 372.597656 487.765625 372.609375 487.585938 372.453125 C 485.527344 370.625 478.320312 353 477.503906 350.996094 C 477.410156 350.769531 477.519531 350.511719 477.75 350.417969 C 477.976562 350.324219 478.234375 350.433594 478.328125 350.660156 C 480.402344 355.765625 485.925781 368.851562 487.878906 371.449219 C 489.136719 369.976562 490.582031 367.804688 492.175781 364.992188 C 495.351562 359.359375 498.074219 352.980469 498.101562 352.917969 C 498.167969 352.757812 498.328125 352.652344 498.503906 352.648438 C 498.679688 352.652344 498.839844 352.75 498.914062 352.910156 C 498.945312 352.984375 502.320312 360.371094 505.109375 365.914062 C 507.4375 370.523438 508.230469 371.597656 508.484375 371.839844 C 508.488281 371.839844 508.492188 371.839844 508.5 371.839844 C 509.5 371.839844 514.929688 368.664062 525.003906 361.460938 C 533.886719 355.105469 542.742188 348.222656 547.5625 343.925781 C 547.746094 343.765625 548.027344 343.78125 548.1875 343.964844 C 548.351562 344.144531 548.335938 344.425781 548.152344 344.589844 C 543.257812 348.957031 533.953125 356.175781 524.996094 362.554688 C 520.589844 365.695312 516.746094 368.296875 513.875 370.070312 C 510.3125 372.261719 509.003906 372.738281 508.425781 372.738281 Z M 508.425781 372.738281 " fill-opacity="1" fill-rule="nonzero"/><path fill="#b44856" d="M 494.539062 365.691406 L 483.273438 490.796875 L 502.433594 522.035156 L 520.199219 490.992188 L 502.429688 365.394531 Z M 494.539062 365.691406 " fill-opacity="1" fill-rule="nonzero"/><path fill="#774036" d="M 447.710938 462.679688 C 447.464844 462.679688 447.269531 462.480469 447.269531 462.234375 L 447.523438 415.675781 C 447.523438 415.433594 447.722656 415.234375 447.964844 415.234375 C 447.964844 415.234375 447.96875 415.234375 447.96875 415.234375 C 448.214844 415.234375 448.410156 415.433594 448.410156 415.679688 L 448.15625 462.238281 C 448.152344 462.480469 447.953125 462.679688 447.710938 462.679688 Z M 447.710938 462.679688 " fill-opacity="1" fill-rule="nonzero"/><path fill="#774036" d="M 591.289062 387.019531 C 591.226562 387.019531 591.160156 387.003906 591.101562 386.976562 C 590.878906 386.871094 590.785156 386.605469 590.886719 386.386719 C 595.902344 375.777344 614.945312 370.234375 615.753906 370 C 615.988281 369.933594 616.234375 370.070312 616.300781 370.304688 C 616.367188 370.539062 616.234375 370.785156 615.996094 370.855469 C 615.800781 370.910156 596.53125 376.523438 591.6875 386.765625 C 591.613281 386.925781 591.453125 387.019531 591.289062 387.019531 Z M 591.289062 387.019531 " fill-opacity="1" fill-rule="nonzero"/><path fill="#4d7491" d="M 515.371094 552.921875 C 515.371094 552.921875 478.894531 554.292969 417.640625 547.949219 L 430.765625 573.769531 Z M 515.371094 552.921875 " fill-opacity="1" fill-rule="nonzero"/><path fill="#9db9d6" d="M 436.136719 577.769531 L 263.679688 572.933594 L 218.402344 438.679688 C 216.960938 434.402344 220.371094 430.050781 225.125 430.097656 L 391.386719 431.675781 C 394.554688 431.703125 397.300781 433.742188 398.082031 436.636719 Z M 436.136719 577.769531 " fill-opacity="1" fill-rule="nonzero"/><path fill="#9db9d6" d="M 517.519531 555.347656 L 436.132812 577.769531 L 433.195312 568.851562 C 433.195312 568.851562 493.125 556.808594 511.785156 553.214844 C 516.992188 552.214844 517.324219 553.964844 517.519531 555.347656 Z M 517.519531 555.347656 " fill-opacity="1" fill-rule="nonzero"/><path fill="#f3a372" d="M 516.6875 516.472656 C 516.6875 516.472656 492.90625 511.398438 488.5 514.671875 C 484.09375 517.945312 467.097656 526.34375 469.824219 529.496094 C 472.554688 532.644531 489.671875 527.605469 492.128906 525.085938 C 494.585938 522.566406 505.074219 526.136719 505.074219 526.136719 Z M 516.6875 516.472656 " fill-opacity="1" fill-rule="nonzero"/><path fill="#f3a372" d="M 570.480469 532.246094 C 570.480469 532.246094 557.503906 536.171875 554.183594 533.753906 C 550.863281 531.339844 520.273438 512.820312 515.75 513.40625 C 511.222656 513.992188 472.296875 539.660156 473.503906 542.378906 C 474.707031 545.09375 480.253906 543.71875 486.589844 541.605469 C 492.925781 539.492188 500.546875 534.960938 500.546875 534.960938 C 500.546875 534.960938 493.757812 541.125 496.246094 544.046875 C 498.734375 546.96875 505.976562 558.066406 507.789062 558.066406 C 509.597656 558.066406 512.539062 551.117188 509.371094 547.34375 C 506.203125 543.570312 515.710938 540.625 516.839844 541.53125 C 517.972656 542.433594 547.394531 564.886719 552.144531 564.875 C 556.898438 564.859375 577.851562 560.484375 577.851562 560.484375 Z M 570.480469 532.246094 " fill-opacity="1" fill-rule="nonzero"/><path fill="#582c2b" d="M 500.546875 535.40625 C 500.429688 535.40625 500.308594 535.359375 500.222656 535.269531 C 500.054688 535.089844 500.0625 534.808594 500.242188 534.640625 C 501.394531 533.558594 511.578125 524.078125 514.71875 524.5625 C 514.960938 524.597656 515.128906 524.824219 515.09375 525.066406 C 515.058594 525.304688 514.832031 525.472656 514.589844 525.4375 C 512.53125 525.132812 505.25 531.160156 500.851562 535.289062 C 500.765625 535.367188 500.65625 535.40625 500.546875 535.40625 Z M 500.546875 535.40625 " fill-opacity="1" fill-rule="nonzero"/><path fill="#f9ebe2" d="M 618.457031 370.984375 C 618.457031 370.984375 691.332031 454.984375 705.816406 499.957031 C 720.300781 544.929688 635.269531 562.578125 583.152344 571.203125 L 563.613281 531.695312 C 562.257812 528.953125 563.78125 525.660156 566.746094 524.917969 C 584.9375 520.378906 639.957031 506.554688 641.089844 505.050781 C 642.449219 503.253906 587.679688 436.398438 587.679688 436.398438 Z M 618.457031 370.984375 " fill-opacity="1" fill-rule="nonzero"/><path fill="#774036" d="M 610.613281 465.648438 C 610.457031 465.648438 610.308594 465.566406 610.226562 465.421875 L 595.441406 439.175781 C 595.320312 438.960938 595.394531 438.691406 595.609375 438.570312 C 595.820312 438.449219 596.089844 438.527344 596.210938 438.738281 L 610.996094 464.988281 C 611.117188 465.203125 611.042969 465.46875 610.828125 465.589844 C 610.761719 465.628906 610.6875 465.648438 610.613281 465.648438 Z M 610.613281 465.648438 " fill-opacity="1" fill-rule="nonzero"/><path fill="#774036" d="M 641.089844 505.5 C 640.910156 505.5 640.738281 505.386719 640.675781 505.207031 C 640.589844 504.976562 640.710938 504.722656 640.941406 504.636719 C 641.761719 504.339844 661.152344 497.386719 668.941406 502.429688 C 669.148438 502.5625 669.207031 502.839844 669.074219 503.042969 C 668.941406 503.25 668.667969 503.308594 668.460938 503.175781 C 661.039062 498.367188 641.441406 505.402344 641.242188 505.472656 C 641.191406 505.488281 641.140625 505.5 641.089844 505.5 Z M 641.089844 505.5 " fill-opacity="1" fill-rule="nonzero"/><path fill="#774036" d="M 643.949219 504.558594 C 643.804688 504.558594 643.664062 504.488281 643.578125 504.359375 C 643.445312 504.15625 643.5 503.882812 643.703125 503.746094 C 643.800781 503.679688 653.613281 497.171875 659.679688 494.25 C 659.902344 494.144531 660.164062 494.234375 660.273438 494.457031 C 660.378906 494.675781 660.285156 494.941406 660.066406 495.046875 C 654.054688 497.945312 644.289062 504.417969 644.191406 504.484375 C 644.121094 504.535156 644.03125 504.558594 643.949219 504.558594 Z M 643.949219 504.558594 " fill-opacity="1" fill-rule="nonzero"/><path fill="#774036" d="M 564.085938 527.117188 C 564.042969 527.117188 563.992188 527.113281 563.949219 527.097656 C 563.714844 527.019531 563.589844 526.769531 563.667969 526.535156 C 563.769531 526.21875 563.863281 525.945312 571.742188 523.6875 C 575.808594 522.519531 581.449219 520.976562 588.515625 519.09375 C 600.539062 515.890625 612.671875 512.773438 612.792969 512.742188 C 613.03125 512.683594 613.269531 512.824219 613.332031 513.0625 C 613.394531 513.300781 613.25 513.539062 613.011719 513.601562 C 594.308594 518.398438 566.0625 525.882812 564.433594 526.949219 C 564.351562 527.058594 564.222656 527.117188 564.085938 527.117188 Z M 564.085938 527.117188 " fill-opacity="1" fill-rule="nonzero"/><path fill="#774036" d="M 609.519531 565.757812 C 609.34375 565.757812 609.179688 565.652344 609.109375 565.480469 L 590.429688 519.101562 C 590.335938 518.871094 590.445312 518.613281 590.675781 518.523438 C 590.902344 518.433594 591.160156 518.542969 591.25 518.769531 L 609.929688 565.148438 C 610.019531 565.378906 609.910156 565.636719 609.683594 565.726562 C 609.632812 565.746094 609.574219 565.757812 609.519531 565.757812 Z M 609.519531 565.757812 " fill-opacity="1" fill-rule="nonzero"/><path fill="#774036" d="M 600.519531 557.269531 C 600.789062 557.3125 601.039062 557.40625 601.269531 557.550781 C 601.5 557.691406 601.695312 557.875 601.855469 558.09375 C 602.011719 558.316406 602.125 558.558594 602.1875 558.820312 C 602.25 559.085938 602.257812 559.351562 602.214844 559.621094 C 602.171875 559.890625 602.078125 560.140625 601.933594 560.371094 C 601.792969 560.601562 601.609375 560.796875 601.390625 560.957031 C 601.171875 561.113281 600.925781 561.226562 600.664062 561.289062 C 600.398438 561.351562 600.132812 561.359375 599.863281 561.316406 C 599.597656 561.273438 599.347656 561.179688 599.117188 561.035156 C 598.886719 560.894531 598.691406 560.710938 598.53125 560.492188 C 598.371094 560.269531 598.261719 560.027344 598.199219 559.765625 C 598.136719 559.5 598.128906 559.234375 598.171875 558.964844 C 598.214844 558.695312 598.308594 558.445312 598.449219 558.214844 C 598.59375 557.984375 598.773438 557.789062 598.996094 557.628906 C 599.214844 557.472656 599.457031 557.359375 599.722656 557.296875 C 599.988281 557.234375 600.253906 557.226562 600.519531 557.269531 Z M 600.519531 557.269531 " fill-opacity="1" fill-rule="nonzero"/><path fill="#774036" d="M 587.699219 560.433594 C 587.960938 560.496094 588.203125 560.605469 588.425781 560.765625 C 588.644531 560.925781 588.828125 561.121094 588.96875 561.351562 C 589.113281 561.582031 589.207031 561.832031 589.25 562.101562 C 589.292969 562.367188 589.28125 562.636719 589.21875 562.898438 C 589.15625 563.164062 589.046875 563.40625 588.886719 563.625 C 588.730469 563.847656 588.535156 564.027344 588.304688 564.171875 C 588.074219 564.316406 587.824219 564.40625 587.554688 564.453125 C 587.285156 564.496094 587.019531 564.484375 586.757812 564.421875 C 586.492188 564.359375 586.25 564.25 586.027344 564.089844 C 585.808594 563.933594 585.628906 563.738281 585.484375 563.503906 C 585.34375 563.273438 585.25 563.023438 585.207031 562.757812 C 585.160156 562.488281 585.171875 562.222656 585.234375 561.957031 C 585.296875 561.691406 585.40625 561.449219 585.566406 561.230469 C 585.722656 561.007812 585.917969 560.828125 586.148438 560.683594 C 586.382812 560.542969 586.632812 560.449219 586.898438 560.40625 C 587.167969 560.363281 587.433594 560.371094 587.699219 560.433594 Z M 587.699219 560.433594 " fill-opacity="1" fill-rule="nonzero"/><path fill="#582c2b" d="M 496.761719 524.695312 C 496.613281 524.695312 496.464844 524.617188 496.382812 524.480469 C 496.257812 524.269531 496.324219 523.996094 496.535156 523.871094 L 508.695312 516.617188 C 508.90625 516.488281 509.179688 516.558594 509.304688 516.769531 C 509.429688 516.980469 509.359375 517.253906 509.148438 517.378906 L 496.988281 524.632812 C 496.917969 524.675781 496.835938 524.695312 496.761719 524.695312 Z M 496.761719 524.695312 " fill-opacity="1" fill-rule="nonzero"/><path fill="#582c2b" d="M 193.207031 590.597656 L 690.980469 590.597656 L 690.980469 600.328125 L 193.207031 600.328125 Z M 193.207031 590.597656 " fill-opacity="1" fill-rule="nonzero"/><path fill="#582c2b" d="M 690.980469 600.328125 L 722.738281 558.941406 C 723.863281 557.472656 724.414062 555.617188 724.285156 553.746094 L 723.78125 546.648438 L 690.980469 590.601562 Z M 690.980469 600.328125 " fill-opacity="1" fill-rule="nonzero"/><path fill="#4d7491" d="M 223.535156 436.886719 L 223.550781 436 L 388.308594 438.523438 L 388.296875 439.414062 Z M 223.535156 436.886719 " fill-opacity="1" fill-rule="nonzero"/><path fill="#4d7491" d="M 321.464844 503.257812 C 321.757812 503.550781 322.019531 503.871094 322.25 504.214844 C 322.480469 504.558594 322.675781 504.925781 322.835938 505.308594 C 322.992188 505.691406 323.113281 506.085938 323.195312 506.492188 C 323.273438 506.902344 323.316406 507.3125 323.316406 507.726562 C 323.316406 508.140625 323.273438 508.554688 323.195312 508.960938 C 323.113281 509.367188 322.992188 509.761719 322.835938 510.148438 C 322.675781 510.53125 322.480469 510.894531 322.25 511.238281 C 322.019531 511.585938 321.757812 511.90625 321.464844 512.199219 C 321.171875 512.492188 320.851562 512.753906 320.507812 512.984375 C 320.164062 513.214844 319.800781 513.410156 319.414062 513.570312 C 319.03125 513.726562 318.636719 513.847656 318.230469 513.929688 C 317.824219 514.007812 317.414062 514.050781 317 514.050781 C 316.582031 514.050781 316.171875 514.007812 315.765625 513.929688 C 315.359375 513.847656 314.964844 513.726562 314.582031 513.570312 C 314.199219 513.410156 313.832031 513.214844 313.488281 512.984375 C 313.144531 512.753906 312.824219 512.492188 312.53125 512.199219 C 312.238281 511.90625 311.976562 511.585938 311.746094 511.238281 C 311.515625 510.894531 311.320312 510.53125 311.160156 510.148438 C 311.003906 509.761719 310.882812 509.367188 310.800781 508.960938 C 310.722656 508.554688 310.679688 508.144531 310.679688 507.726562 C 310.679688 507.3125 310.722656 506.902344 310.800781 506.496094 C 310.882812 506.085938 311.003906 505.691406 311.160156 505.308594 C 311.320312 504.925781 311.515625 504.558594 311.746094 504.214844 C 311.976562 503.871094 312.238281 503.550781 312.53125 503.257812 C 312.824219 502.964844 313.144531 502.703125 313.488281 502.472656 C 313.832031 502.242188 314.199219 502.046875 314.582031 501.886719 C 314.964844 501.726562 315.359375 501.609375 315.765625 501.527344 C 316.171875 501.445312 316.582031 501.40625 317 501.40625 C 317.414062 501.40625 317.824219 501.445312 318.230469 501.527344 C 318.636719 501.609375 319.03125 501.726562 319.414062 501.886719 C 319.800781 502.046875 320.164062 502.238281 320.507812 502.472656 C 320.851562 502.703125 321.171875 502.964844 321.464844 503.257812 Z M 321.464844 503.257812 " fill-opacity="1" fill-rule="nonzero"/><path fill="#774036" d="M 497.730469 369.09375 C 496.996094 369.09375 496.300781 368.996094 495.652344 368.792969 C 493.445312 368.109375 492.601562 366.5 492.566406 366.429688 C 492.457031 366.210938 492.542969 365.945312 492.761719 365.832031 C 492.976562 365.722656 493.246094 365.808594 493.359375 366.027344 C 493.390625 366.085938 494.089844 367.394531 495.941406 367.957031 C 498.027344 368.589844 500.683594 368.035156 503.835938 366.308594 C 504.050781 366.191406 504.320312 366.269531 504.4375 366.484375 C 504.550781 366.699219 504.476562 366.96875 504.261719 367.085938 C 501.820312 368.421875 499.632812 369.09375 497.730469 369.09375 Z M 497.730469 369.09375 " fill-opacity="1" fill-rule="nonzero"/></svg>