<svg xmlns="http://www.w3.org/2000/svg" xmlns:xlink="http://www.w3.org/1999/xlink" width="1280" zoomAndPan="magnify" viewBox="0 0 960 599.999999" height="800" preserveAspectRatio="xMidYMid meet" version="1.0"><defs><filter x="0%" y="0%" width="100%" height="100%" id="529a79b28a"><feColorMatrix values="0 0 0 0 1 0 0 0 0 1 0 0 0 0 1 0 0 0 1 0" color-interpolation-filters="sRGB"/></filter><mask id="4311320156"><g filter="url(#529a79b28a)"><rect x="-96" width="1152" fill="#000000" y="-60" height="719.999999" fill-opacity="0.18"/></g></mask><clipPath id="ea3c2208f6"><path d="M 0 0 L 287 0 L 287 366 L 0 366 Z M 0 0 " clip-rule="nonzero"/></clipPath><clipPath id="11abf77a2d"><path d="M 0 0 L 220 0 L 220 299 L 0 299 Z M 0 0 " clip-rule="nonzero"/></clipPath><clipPath id="01eb482811"><path d="M 0 0 L 346.574219 0 L 346.574219 425.535156 L 0 425.535156 Z M 0 0 " clip-rule="nonzero"/></clipPath><clipPath id="ddb9da3d80"><rect x="0" width="347" y="0" height="426"/></clipPath><mask id="b342dc5ac3"><g filter="url(#529a79b28a)"><rect x="-96" width="1152" fill="#000000" y="-60" height="719.999999" fill-opacity="0.18"/></g></mask><clipPath id="08ecc9f306"><path d="M 60 60 L 443 60 L 443 320 L 60 320 Z M 60 60 " clip-rule="nonzero"/></clipPath><clipPath id="169b110edb"><path d="M 127 127 L 443 127 L 443 320 L 127 320 Z M 127 127 " clip-rule="nonzero"/></clipPath><clipPath id="adb776b23f"><path d="M 0.84375 0.242188 L 443 0.242188 L 443 320 L 0.84375 320 Z M 0.84375 0.242188 " clip-rule="nonzero"/></clipPath><clipPath id="14e670bbc4"><rect x="0" width="443" y="0" height="320"/></clipPath></defs><g mask="url(#4311320156)"><g transform="matrix(1, 0, 0, 1, 0, -0.000000000000034788)"><g clip-path="url(#ddb9da3d80)"><g clip-path="url(#ea3c2208f6)"><path fill="#1b1a1a" d="M -6.742188 365.484375 C -85.074219 365.484375 -158.722656 334.980469 -214.113281 279.585938 C -269.503906 224.195312 -300.007812 150.550781 -300.007812 72.21875 C -300.007812 -6.117188 -269.503906 -79.761719 -214.113281 -135.152344 C -158.722656 -190.542969 -85.074219 -221.046875 -6.742188 -221.046875 C 71.59375 -221.046875 145.238281 -190.542969 200.628906 -135.152344 C 256.019531 -79.761719 286.523438 -6.117188 286.523438 72.21875 C 286.523438 150.550781 256.019531 224.199219 200.628906 279.585938 C 145.238281 334.980469 71.59375 365.484375 -6.742188 365.484375 Z M -6.742188 -218.269531 C -166.917969 -218.269531 -297.230469 -87.957031 -297.230469 72.214844 C -297.230469 232.394531 -166.917969 362.707031 -6.742188 362.707031 C 153.433594 362.707031 283.746094 232.394531 283.746094 72.214844 C 283.742188 -87.957031 153.433594 -218.269531 -6.742188 -218.269531 Z M -6.742188 -218.269531 " fill-opacity="1" fill-rule="nonzero"/></g><g clip-path="url(#11abf77a2d)"><path fill="#1b1a1a" d="M -6.742188 298.585938 C -131.558594 298.585938 -233.109375 197.035156 -233.109375 72.214844 C -233.109375 -52.601562 -131.558594 -154.148438 -6.742188 -154.148438 C 118.078125 -154.148438 219.625 -52.601562 219.625 72.214844 C 219.621094 197.035156 118.074219 298.585938 -6.742188 298.585938 Z M -6.742188 -152.003906 C -130.375 -152.003906 -230.960938 -51.417969 -230.960938 72.214844 C -230.960938 195.851562 -130.375 296.441406 -6.742188 296.441406 C 116.890625 296.441406 217.476562 195.851562 217.476562 72.214844 C 217.476562 -51.417969 116.890625 -152.003906 -6.742188 -152.003906 Z M -6.742188 -152.003906 " fill-opacity="1" fill-rule="nonzero"/></g><g clip-path="url(#01eb482811)"><path fill="#1b1a1a" d="M -6.742188 425.402344 C -101.082031 425.402344 -189.773438 388.664062 -256.480469 321.957031 C -323.1875 255.246094 -359.925781 166.554688 -359.925781 72.214844 C -359.925781 -22.121094 -323.1875 -110.8125 -256.480469 -177.523438 C -189.773438 -244.230469 -101.082031 -280.964844 -6.742188 -280.964844 C 87.597656 -280.964844 176.289062 -244.230469 242.996094 -177.519531 C 309.703125 -110.8125 346.4375 -22.125 346.4375 72.214844 C 346.4375 166.558594 309.703125 255.25 242.996094 321.957031 C 176.285156 388.664062 87.597656 425.402344 -6.742188 425.402344 Z M -6.742188 -277.617188 C -199.640625 -277.617188 -356.578125 -120.683594 -356.578125 72.214844 C -356.578125 265.117188 -199.640625 422.058594 -6.742188 422.058594 C 186.15625 422.058594 343.09375 265.117188 343.09375 72.214844 C 343.09375 -120.683594 186.15625 -277.617188 -6.742188 -277.617188 Z M -6.742188 -277.617188 " fill-opacity="1" fill-rule="nonzero"/></g></g></g></g><g mask="url(#b342dc5ac3)"><g transform="matrix(1, 0, 0, 1, 517, 280)"><g clip-path="url(#14e670bbc4)"><g clip-path="url(#08ecc9f306)"><path fill="#1b1a1a" d="M 354.027344 646.695312 C 275.691406 646.695312 202.046875 616.1875 146.65625 560.796875 C 91.265625 505.40625 60.761719 431.761719 60.761719 353.425781 C 60.761719 275.09375 91.265625 201.449219 146.65625 146.058594 C 202.046875 90.667969 275.691406 60.160156 354.027344 60.160156 C 432.359375 60.160156 506.003906 90.667969 561.394531 146.058594 C 616.785156 201.449219 647.292969 275.09375 647.292969 353.425781 C 647.292969 431.761719 616.785156 505.40625 561.394531 560.796875 C 506.003906 616.191406 432.359375 646.695312 354.027344 646.695312 Z M 354.027344 62.941406 C 193.851562 62.941406 63.539062 193.25 63.539062 353.425781 C 63.539062 513.601562 193.851562 643.914062 354.027344 643.914062 C 514.203125 643.914062 644.511719 513.605469 644.511719 353.425781 C 644.511719 193.25 514.203125 62.941406 354.027344 62.941406 Z M 354.027344 62.941406 " fill-opacity="1" fill-rule="nonzero"/></g><g clip-path="url(#169b110edb)"><path fill="#1b1a1a" d="M 354.027344 579.792969 C 229.207031 579.792969 127.660156 478.246094 127.660156 353.425781 C 127.660156 228.609375 229.207031 127.0625 354.027344 127.0625 C 478.84375 127.0625 580.390625 228.609375 580.390625 353.425781 C 580.390625 478.246094 478.84375 579.792969 354.027344 579.792969 Z M 354.027344 129.207031 C 230.390625 129.207031 129.804688 229.792969 129.804688 353.425781 C 129.804688 477.0625 230.390625 577.648438 354.027344 577.648438 C 477.660156 577.648438 578.246094 477.0625 578.246094 353.425781 C 578.246094 229.792969 477.660156 129.207031 354.027344 129.207031 Z M 354.027344 129.207031 " fill-opacity="1" fill-rule="nonzero"/></g><g clip-path="url(#adb776b23f)"><path fill="#1b1a1a" d="M 354.027344 706.609375 C 259.6875 706.609375 170.996094 669.875 104.289062 603.164062 C 37.582031 536.457031 0.84375 447.765625 0.84375 353.425781 C 0.84375 259.089844 37.582031 170.394531 104.289062 103.6875 C 170.996094 36.980469 259.6875 0.242188 354.027344 0.242188 C 448.367188 0.242188 537.054688 36.980469 603.765625 103.6875 C 670.472656 170.394531 707.207031 259.085938 707.207031 353.425781 C 707.207031 447.765625 670.472656 536.457031 603.761719 603.167969 C 537.054688 669.875 448.367188 706.609375 354.027344 706.609375 Z M 354.027344 3.589844 C 161.125 3.589844 4.191406 160.527344 4.191406 353.425781 C 4.191406 546.328125 161.128906 703.265625 354.027344 703.265625 C 546.925781 703.265625 703.863281 546.328125 703.863281 353.425781 C 703.863281 160.527344 546.925781 3.589844 354.027344 3.589844 Z M 354.027344 3.589844 " fill-opacity="1" fill-rule="nonzero"/></g></g></g></g></svg>