<svg xmlns="http://www.w3.org/2000/svg" xmlns:xlink="http://www.w3.org/1999/xlink" width="1280" zoomAndPan="magnify" viewBox="0 0 960 599.999999" height="800" preserveAspectRatio="xMidYMid meet" version="1.0"><defs><g/><clipPath id="d8c3ca43a0"><path d="M 0 219 L 851.363281 219 L 851.363281 355 L 0 355 Z M 0 219 " clip-rule="nonzero"/></clipPath><clipPath id="642e731bc5"><path d="M 551.765625 258.816406 C 556.292969 256.824219 567.574219 257.6875 575.574219 257.039062 C 575.816406 257.46875 575.140625 257.550781 574.46875 257.605469 C 573.957031 258.925781 580.042969 255.960938 579.046875 258.46875 C 583.246094 258.628906 590.359375 257.390625 592.699219 258.492188 C 588.148438 258.65625 583.597656 258.816406 579.074219 258.980469 C 575.140625 258.117188 573.824219 259.328125 569.972656 258.789062 C 569.378906 258.710938 572.851562 257.792969 573.363281 258.144531 C 571.292969 256.691406 565.609375 258.46875 558.582031 258.089844 C 558.417969 259.222656 562.621094 258.226562 564.261719 258.46875 C 565.3125 259.894531 555.539062 258.46875 551.765625 258.816406 Z M 584.324219 247.371094 C 586.453125 246.269531 575.222656 247.371094 571.828125 247.292969 C 571.75 246.96875 571.640625 246.671875 570.671875 246.804688 C 571.210938 249.015625 580.203125 246.96875 584.324219 247.371094 Z M 575.464844 253.941406 C 569.808594 254.453125 566.957031 252.867188 564.128906 254.859375 C 567.574219 254.402344 573.929688 255.179688 575.464844 253.941406 Z M 616.453125 256.015625 C 614.21875 255.640625 603.070312 254.589844 597.144531 256.257812 C 603.929688 256.90625 608.914062 257.957031 616.453125 256.015625 Z M 351.730469 252.300781 C 351.757812 253 351.164062 253.429688 350.546875 253.808594 C 354.101562 253.78125 359.324219 250.578125 364.09375 252.8125 C 363.121094 252.355469 360.5625 253.160156 360.699219 253.1875 C 364.253906 253.59375 368.832031 253.726562 372.332031 253.996094 C 375.832031 254.238281 378.257812 254.695312 377.503906 255.855469 C 380.410156 254.425781 386.230469 254.914062 388.8125 254.589844 C 386.820312 254.292969 389.324219 254.050781 389.972656 253.59375 C 382.296875 253.753906 374.296875 253.78125 369.695312 253.054688 C 369.71875 252.355469 371.6875 252.648438 371.957031 252.113281 C 362.53125 251.195312 329.433594 252.839844 351.730469 252.300781 Z M 410.25 254.617188 C 416.039062 254.9375 435.402344 254.589844 420.402344 254.210938 C 417.25 253.484375 412.351562 254.238281 409.144531 252.515625 C 404.917969 253.753906 394.363281 251.894531 393.339844 254.695312 C 396.945312 253.59375 415.691406 256.824219 410.25 254.617188 Z M 536.984375 258.171875 C 531.867188 258.035156 528.554688 257.46875 525.644531 258.980469 C 529.066406 258.574219 535.421875 259.382812 536.984375 258.171875 Z M 463.300781 250.28125 C 459.503906 250.628906 455.0625 250.683594 453.148438 251.871094 C 458.132812 252.085938 461.066406 251.332031 463.300781 250.28125 Z M 659.835938 244.894531 C 659.246094 243.898438 654.289062 243.953125 649.601562 244.300781 C 644.890625 244.625 640.421875 245.246094 640.824219 245.460938 C 647.261719 245.296875 655.042969 244.300781 659.835938 244.894531 Z M 505.125 252.003906 C 499.359375 251.4375 491.28125 252.003906 485.894531 251.25 C 488.886719 252.8125 500.601562 252.945312 505.125 252.003906 Z M 701.148438 248.800781 C 706.289062 248.394531 711.136719 247.777344 716.710938 246 C 705.1875 248.179688 691.695312 247.75 683.667969 250.039062 C 690.5625 249.335938 696.03125 249.230469 701.148438 248.800781 Z M 752.097656 237.488281 C 751.558594 237.730469 751.023438 237.972656 750.511719 238.1875 C 751.265625 238.027344 752.125 237.894531 752.097656 237.488281 Z M 750 238.296875 C 750.078125 238.296875 750.160156 238.296875 750.265625 238.269531 C 750.347656 238.242188 750.429688 238.214844 750.484375 238.160156 C 750.320312 238.214844 750.160156 238.242188 750 238.296875 Z M 668.9375 246.914062 C 670.421875 245.433594 684.613281 246.214844 681.03125 244.492188 C 680.707031 245.433594 666.113281 245.109375 668.9375 246.914062 Z M 727.160156 239.914062 C 723.5 240.425781 720.1875 240.960938 718.542969 242.148438 C 725.464844 241.125 733.222656 240.207031 737.933594 238.324219 C 734.808594 239.023438 730.796875 239.402344 727.160156 239.914062 Z M 763.8125 235.199219 C 760.609375 236.035156 754.523438 236.007812 753.175781 237.328125 C 756.40625 236.601562 762.519531 236.574219 763.8125 235.199219 Z M 780.832031 234.015625 C 790.582031 231.96875 800.277344 229.597656 811.613281 227.6875 C 808.785156 227.226562 805.152344 227.417969 801.136719 227.929688 C 797.097656 228.441406 792.574219 229.140625 788.050781 229.949219 C 801.085938 226.339844 815.4375 226.097656 829.089844 222.917969 C 831.191406 222.191406 828.796875 220.628906 830.464844 219.847656 C 835.878906 219.417969 837.332031 222.515625 843.09375 221.816406 C 842.097656 223.511719 837.683594 224.5625 835.417969 226.042969 C 837.734375 224.078125 834.234375 224.453125 832.671875 224.105469 C 830.4375 224.644531 829.820312 225.476562 829.253906 226.3125 C 830.0625 224.722656 825.105469 225.398438 820.042969 226.230469 C 817.324219 229.382812 823.707031 228.441406 825.5625 230.757812 C 823.894531 231.996094 820.203125 232.804688 817.027344 233.71875 C 813.847656 234.632812 811.15625 235.550781 811.585938 237.273438 C 808.949219 237.433594 805.878906 237.972656 802.808594 238.484375 C 799.765625 238.96875 796.722656 239.347656 794.242188 239.320312 C 795.804688 237.433594 800.007812 238.539062 802.753906 237.625 C 798.175781 236.679688 792.546875 236.519531 786.246094 237.03125 C 783.066406 237.21875 779.730469 237.542969 776.253906 237.972656 C 774.53125 238.1875 772.753906 238.429688 770.976562 238.699219 C 769.171875 238.941406 767.339844 239.210938 765.484375 239.453125 C 750.726562 241.742188 734.460938 244.597656 720.023438 246.1875 C 733.464844 243.007812 741.433594 242.011719 750.242188 238.296875 C 761.496094 237.785156 771.164062 236.035156 780.832031 234.015625 Z M 800.25 236.035156 C 802.863281 235.847656 807.117188 237.355469 809.972656 234.984375 C 806.980469 235.46875 801.648438 234.796875 800.25 236.035156 Z M 742.109375 236.761719 C 746.175781 236.007812 753.363281 234.714844 759.289062 234.335938 C 756.648438 232.828125 740.25 236.332031 742.109375 236.761719 Z M 693.230469 244.03125 C 690.292969 244.273438 687.332031 244.515625 684.398438 244.734375 C 683.453125 247.265625 692.691406 243.980469 693.363281 245.566406 C 691.535156 245.78125 683.320312 246.078125 686.765625 246.617188 C 695.355469 245.972656 715.796875 244.273438 715.339844 243.492188 C 713.398438 243.414062 708.984375 244.785156 708.714844 243.65625 C 710.789062 242.417969 714.746094 241.796875 717.25 240.691406 C 713.804688 239.078125 710.761719 243.414062 707.394531 241.691406 C 706.480469 240.371094 712.621094 241.582031 711.675781 240.234375 C 706.667969 240.773438 701.660156 241.257812 696.867188 241.878906 C 692.070312 242.445312 687.441406 243.035156 683.15625 243.789062 C 686.28125 244.03125 690.96875 243.332031 693.230469 244.03125 Z M 792.386719 224.320312 C 794.109375 223.648438 795.886719 223.1875 797.691406 222.867188 C 799.46875 222.515625 801.191406 222.21875 802.808594 221.976562 C 806.011719 221.492188 808.707031 221.089844 809.890625 220.09375 C 803.320312 220.925781 798.6875 220.386719 792.710938 220.550781 C 791.765625 222.191406 790.878906 223.136719 792.386719 224.320312 Z M 617.71875 258.574219 C 613.734375 258.65625 610.449219 259.003906 608.667969 260.003906 C 612.65625 259.921875 615.941406 259.542969 617.71875 258.574219 Z M 202.621094 323.773438 C 195.242188 322.882812 187.433594 321.726562 182.71875 322.425781 C 189.261719 322.800781 197.101562 323.960938 202.621094 323.773438 Z M 160.5 270.640625 C 164.378906 270.503906 168.148438 270.316406 171.003906 269.535156 C 167.828125 269.777344 157.191406 268.109375 158.402344 269.292969 C 160.070312 269.617188 162.601562 269.695312 162.84375 270.449219 C 161.257812 270.179688 158.480469 269.9375 160.5 270.640625 Z M 131.605469 300.019531 C 124.414062 298.402344 118.921875 298.648438 129.234375 300.15625 C 134.273438 300.746094 142.136719 302.792969 145.421875 302.09375 C 142.433594 302.363281 142.136719 299.535156 140.898438 300.910156 C 141.597656 301.042969 142.242188 301.179688 141.972656 301.582031 C 139.710938 299.644531 136.023438 300.476562 131.605469 300.019531 Z M 844.65625 302.09375 C 845.0625 302.957031 848.695312 301.445312 849.585938 301.933594 C 836.441406 306.914062 833.453125 315.207031 837.789062 320.351562 C 830.195312 321.804688 827.851562 324.042969 825.429688 326.382812 C 823.003906 328.699219 820.5 331.042969 812.582031 332.148438 C 809.730469 332.847656 814.199219 333.25 815.304688 333.199219 C 809.433594 334.085938 802.539062 335.136719 795.078125 336.292969 C 787.644531 337.480469 779.675781 338.503906 771.621094 339.632812 C 755.519531 341.679688 739.011719 343.511719 725.761719 344.375 C 723.660156 343.539062 725.816406 343.699219 725.546875 342.300781 C 681.675781 345.773438 638.777344 348.683594 596.6875 351.105469 C 554.566406 353.636719 512.394531 355.46875 470.4375 354.742188 C 459.046875 354.527344 447.980469 354.175781 436.5625 353.664062 C 385.179688 351.699219 332.289062 349.167969 282.089844 343.644531 C 276.867188 343.054688 269.648438 342.328125 262.378906 341.734375 C 255.105469 341.140625 247.726562 340.683594 242.234375 340.386719 C 240.859375 340.171875 241.320312 339.335938 241.210938 338.71875 C 237.953125 339.445312 230.949219 338.019531 225.914062 337.75 C 225.402344 336.886719 237.253906 338.339844 240.132812 337.585938 C 237.144531 336.292969 230.601562 337.128906 222.574219 335.863281 C 224.917969 335.191406 228.769531 335.378906 232.082031 335.246094 C 225.566406 333.492188 220.179688 333.089844 214.308594 332.792969 C 208.4375 332.523438 202.054688 332.066406 193.546875 330.558594 C 191.011719 330.503906 191.417969 329.5625 191.390625 328.726562 C 182.960938 327.730469 176.09375 327.839844 166.804688 326.195312 C 172.648438 325.144531 181.34375 325.496094 190.988281 326.546875 C 200.628906 327.570312 211.183594 329.238281 220.824219 329.9375 C 217.269531 329.132812 213.3125 328.539062 209.136719 327.890625 C 204.964844 327.21875 200.546875 326.625 196.078125 326.035156 C 187.136719 324.847656 177.898438 323.851562 169.710938 322.398438 C 178.300781 322.507812 187.027344 323.179688 195.214844 324.203125 C 203.402344 325.199219 211.050781 326.574219 217.539062 327.542969 C 218.886719 326.089844 215.035156 326.359375 212.988281 326.0625 C 220.3125 326.277344 240.214844 328.863281 245.574219 329.804688 C 246.921875 329.265625 248.964844 328.914062 251.148438 328.644531 C 253.328125 328.378906 255.617188 328.214844 257.449219 328.214844 C 261.460938 330.667969 278.023438 330.746094 288.796875 332.226562 C 285.132812 330.15625 276.433594 329.886719 269.109375 329.132812 C 268.789062 328.753906 272.019531 328.566406 272.636719 328.890625 C 268.8125 326.949219 258.582031 326.25 247.726562 325.441406 C 236.902344 324.527344 225.457031 323.71875 219.289062 321.996094 L 211.722656 321.242188 L 204.183594 320.351562 C 195.429688 319.355469 203.132812 319.300781 207.738281 320.246094 C 217.945312 321.214844 225.539062 322.398438 233.292969 322.855469 C 228.714844 322.292969 222.332031 321.023438 215.84375 319.734375 C 212.585938 319.113281 209.324219 318.359375 206.230469 317.6875 C 203.132812 317.011719 200.195312 316.394531 197.664062 315.910156 C 196.453125 315.691406 179.542969 314.078125 187.296875 314.132812 C 191.929688 314.105469 196.964844 314.9375 202.109375 315.746094 C 207.253906 316.554688 212.476562 317.390625 217.457031 317.121094 C 213.5 316.445312 208.195312 313.511719 203.671875 314.535156 C 199.226562 312.839844 193.519531 311.546875 187.054688 310.46875 C 180.617188 309.363281 173.429688 308.636719 166.078125 307.613281 C 158.722656 306.644531 151.210938 305.757812 144.046875 304.734375 C 140.464844 304.222656 136.992188 303.710938 133.679688 303.089844 C 130.367188 302.417969 127.242188 301.714844 124.335938 300.960938 C 122.179688 300.476562 112.917969 299.375 116.363281 299.078125 C 134.59375 302.929688 154.066406 305.539062 173.886719 308.3125 C 170.84375 306.753906 164.890625 305.945312 159.019531 305.136719 C 159.101562 303.871094 171.515625 305.296875 162.765625 303.574219 C 165.347656 303.65625 168.472656 303.898438 172 304.246094 C 175.527344 304.597656 179.460938 304.894531 183.554688 305.351562 C 191.765625 306.214844 200.761719 307.316406 208.976562 308.367188 C 204.640625 306.96875 198.445312 305.621094 191.390625 304.382812 C 187.863281 303.761719 184.144531 303.171875 180.324219 302.578125 C 178.410156 302.28125 176.5 302.011719 174.558594 301.714844 C 172.648438 301.394531 170.707031 301.070312 168.796875 300.773438 C 153.472656 298.214844 138.957031 296.007812 133.625 294.121094 C 128.722656 293.503906 123.445312 292.640625 119.730469 292.828125 C 115.691406 290.808594 124.253906 292.480469 126.757812 292.964844 C 121.398438 290.351562 122.234375 291.078125 115.582031 289.492188 C 118.410156 287.929688 126.300781 292.238281 133.867188 292.585938 C 122.691406 291.96875 135.539062 294.417969 138.527344 292.777344 C 137.125 292.34375 132.144531 290.863281 127.269531 289.894531 C 127.59375 288.789062 132.144531 290.488281 134.191406 290.539062 C 126.273438 287.148438 106.75 284.914062 100.339844 282.703125 C 97.945312 282.648438 91.453125 280.65625 97.027344 281.601562 C 106.910156 283.160156 123.609375 287.875 127.863281 286.3125 C 123.042969 284.859375 117.765625 283.457031 112.164062 282.113281 C 109.363281 281.4375 106.507812 280.765625 103.570312 280.144531 C 100.664062 279.5 97.675781 278.878906 94.710938 278.179688 C 82.78125 275.433594 70.394531 273.007812 59.109375 270.988281 C 52.808594 269.992188 50.4375 268.214844 58.085938 270.234375 C 59.890625 270.449219 57.304688 269.105469 59.433594 269.480469 C 72.441406 271.285156 84.238281 273.710938 96.757812 276.511719 C 103.035156 277.828125 109.523438 279.09375 116.445312 280.441406 C 123.367188 281.761719 130.664062 283.1875 138.6875 284.425781 C 136.320312 282.675781 126.515625 282.730469 124.09375 280.953125 C 125.949219 280.980469 132.011719 281.816406 138.851562 282.8125 C 145.691406 283.726562 153.3125 284.964844 158.238281 286.203125 C 155.601562 284.9375 160.257812 286.015625 166.398438 287.253906 C 169.46875 287.875 172.917969 288.546875 175.988281 288.953125 C 179.054688 289.300781 181.777344 289.464844 183.390625 289.113281 C 180.617188 288.546875 177.46875 287.980469 174.101562 287.253906 C 170.734375 286.527344 167.101562 285.800781 163.328125 285.15625 C 155.816406 283.835938 147.789062 282.757812 140.167969 282.542969 C 129.882812 279.230469 116.523438 275.460938 101.472656 272.148438 C 93.957031 270.371094 86.039062 268.511719 77.882812 266.871094 C 69.722656 265.199219 61.265625 263.773438 52.835938 262.101562 C 53.132812 261.726562 54.074219 261.832031 54.183594 261.320312 C 48.554688 260.109375 28.492188 255.261719 40.988281 257.308594 C 58.679688 260.675781 107.636719 272.203125 130.878906 275.21875 C 130.527344 275.730469 128.589844 275.191406 128.457031 275.863281 C 134.515625 277.425781 136.128906 276.160156 141.058594 276.859375 C 143.941406 277.855469 136.480469 276.886719 135.242188 276.996094 C 141.730469 280.171875 150.511719 278.800781 155.816406 278.988281 C 162.304688 279.148438 171.410156 281.195312 179.8125 282.40625 C 188.210938 283.59375 195.859375 284.238281 199.308594 282.113281 C 203.375 286.097656 207.359375 282.003906 215.222656 284.023438 C 215.601562 285.71875 209.972656 283.78125 209.378906 284.886719 C 209.03125 286.3125 215.25 284.832031 211.589844 285.691406 C 220.71875 284.992188 230.222656 286.042969 240.296875 287.417969 C 245.332031 288.0625 250.476562 288.84375 255.808594 289.300781 C 261.113281 289.734375 266.578125 289.976562 272.207031 289.785156 C 266.308594 288.492188 258.660156 287.714844 250.636719 286.691406 C 242.609375 285.640625 234.234375 284.5625 226.855469 283.082031 C 227.476562 281.976562 232.484375 283.429688 234.882812 283.351562 C 230.761719 281.761719 224.675781 280.820312 217.996094 280.117188 C 211.320312 279.335938 204.046875 278.609375 197.558594 277.695312 C 195.296875 277.425781 193.035156 277.15625 190.746094 276.886719 C 187.945312 276.617188 188.886719 276.023438 190.796875 276.375 C 194.566406 276.832031 198.367188 277.292969 202.136719 277.75 C 205.582031 277.34375 213.660156 279.203125 219.261719 278.691406 C 221.820312 278.664062 220.769531 279.824219 222.546875 280.066406 C 227.421875 279.957031 233.429688 280.523438 239.648438 281.222656 C 237.011719 279.445312 229.65625 279.285156 223.839844 278.609375 C 223.542969 276.429688 226.238281 279.070312 229.578125 278.664062 C 230.921875 277.046875 226.128906 277.507812 224.003906 277.074219 C 229.226562 276.1875 234.800781 278.421875 239.945312 278.125 C 230.898438 275.027344 216.515625 275.566406 205.933594 274.542969 C 208.167969 275.378906 211.882812 275.972656 215.144531 276.347656 C 218.402344 276.699219 221.230469 276.804688 221.714844 276.859375 C 219.9375 277.265625 217.566406 277.398438 214.875 277.238281 C 212.179688 277.074219 209.136719 276.699219 206.011719 276.269531 C 199.738281 275.378906 193.007812 274.246094 187.648438 273.925781 C 188.941406 272.875 192.980469 273.492188 196.832031 273.980469 C 196.480469 272.765625 191.28125 273.089844 188.96875 272.496094 C 193.789062 271.796875 199.765625 272.308594 206.363281 273.144531 C 209.675781 273.574219 213.121094 274.03125 216.679688 274.492188 C 220.234375 274.867188 223.921875 275.191406 227.609375 275.351562 C 216.410156 272.46875 205.554688 273.574219 197.207031 270.882812 C 193.464844 270.613281 204.234375 270.667969 208.542969 271.742188 C 209.054688 270.910156 207.765625 270.667969 206.417969 270.425781 C 209.003906 270.34375 212.101562 270.53125 215.519531 270.882812 C 218.964844 271.203125 222.738281 271.554688 226.667969 272.039062 C 234.53125 272.929688 242.988281 274.03125 250.554688 274.515625 C 243.257812 271.339844 227.828125 271.015625 215.65625 269.480469 C 200.789062 267.890625 208.761719 267.757812 219.101562 269.320312 C 211.832031 267.8125 204.476562 266.625 197.152344 265.628906 C 189.828125 264.582031 182.503906 263.773438 175.367188 262.453125 C 178.894531 260.703125 187.164062 262.613281 196.9375 263.558594 C 195 262.183594 190.449219 261.671875 185.816406 261.160156 C 193.597656 261.347656 203.96875 262.722656 214.792969 264.230469 C 225.644531 265.601562 237.011719 266.894531 246.652344 267.328125 C 234.773438 265.847656 224.136719 263.019531 215.167969 263.636719 C 214.144531 261.242188 208.949219 263.664062 212.019531 261.160156 C 205.3125 260.730469 197.988281 260.246094 190.394531 259.757812 C 186.597656 259.515625 182.746094 259.273438 178.867188 258.980469 C 175.015625 258.601562 171.140625 258.226562 167.289062 257.792969 C 159.585938 256.957031 152.019531 255.960938 144.964844 254.777344 C 137.90625 253.59375 131.390625 251.894531 125.761719 250.117188 C 120.027344 248.71875 134.351562 250.523438 134.8125 250.605469 C 141.328125 251.652344 148.707031 252.460938 156.515625 253.429688 C 164.324219 254.402344 172.621094 255.425781 181.050781 256.5 C 189.503906 257.390625 198.125 258.332031 206.605469 259.328125 C 210.832031 259.839844 215.035156 260.324219 219.128906 260.808594 C 223.25 261.269531 227.289062 261.699219 231.21875 262.128906 C 227.933594 260.566406 219.613281 260.890625 214.414062 259.867188 C 213.554688 259.222656 216.003906 259.492188 219.15625 259.839844 C 222.277344 260.191406 226.101562 260.675781 227.960938 260.757812 C 224.246094 259.734375 220.339844 258.980469 216.273438 258.144531 C 212.207031 257.335938 207.980469 256.609375 203.589844 255.910156 C 199.199219 255.234375 194.675781 254.5625 190.015625 253.835938 C 185.359375 253.109375 180.566406 252.433594 175.691406 251.382812 C 175.769531 250.605469 182.394531 251.601562 176.957031 250.523438 C 184.144531 250.386719 190.609375 250.792969 197.503906 251.574219 C 204.398438 252.300781 211.75 253.296875 220.769531 253.753906 C 217.863281 252.300781 210.027344 252.300781 205.207031 251.382812 C 195.078125 249.957031 208.007812 250.925781 211.964844 251.679688 C 219.9375 252.867188 227.53125 253.324219 236.742188 254.105469 C 245.949219 254.804688 256.777344 255.800781 271.371094 256.878906 C 270.996094 255.667969 265.851562 256.230469 263.5625 255.746094 C 278.105469 256.664062 294.613281 254.886719 310.90625 256.527344 C 310.71875 258.761719 304.066406 257.523438 299.566406 257.417969 C 310.339844 258.65625 323.941406 259.785156 336.785156 259.8125 C 349.65625 259.734375 361.777344 258.738281 369.558594 256.230469 C 380.089844 256.878906 385.207031 256.636719 396.625 256.960938 C 399.503906 257.011719 397.996094 257.390625 397.726562 258.035156 C 411.191406 257.390625 427.054688 257.875 442.648438 258.65625 C 458.238281 259.355469 473.589844 259.867188 485.921875 259.140625 C 474.800781 257.980469 466.75 258.628906 455.359375 257.660156 C 456.488281 256.796875 460.582031 257.28125 461.011719 256.070312 C 468.582031 258.007812 480.1875 258.171875 491.902344 258.089844 C 503.617188 257.980469 515.410156 257.847656 523.328125 259.597656 C 512.289062 258.683594 505.070312 258.898438 487.027344 259.113281 C 486.625 260.003906 487.917969 260.082031 489.316406 260.109375 C 479.757812 261.617188 469.253906 259.355469 458.722656 260.757812 C 464.054688 262.292969 470.089844 262.695312 476.308594 262.75 C 482.53125 262.804688 488.914062 262.535156 495 262.640625 C 511.15625 262.992188 525.832031 263.503906 543.847656 263.261719 C 541.453125 262.507812 537.84375 262.34375 533.589844 262.480469 C 545.222656 261.132812 567.761719 263.664062 580.179688 260.59375 C 584.621094 261.996094 593.804688 261.78125 602.691406 261.320312 C 611.578125 260.808594 620.140625 260.082031 623.402344 260.460938 C 624.691406 259.625 628.085938 259.625 627.816406 258.171875 C 637.378906 258.601562 653.695312 257.792969 661.558594 255.800781 C 655.769531 255.316406 641.605469 255.746094 630 256.5 C 640.5 253.59375 656.578125 253.648438 672.492188 251.4375 C 672.199219 252.164062 669.71875 252.058594 668.078125 252.273438 C 688.328125 251.734375 711.355469 251.167969 728.992188 247.34375 C 729.15625 245.917969 724.898438 249.230469 725.601562 246.699219 C 731.253906 246.457031 733.4375 245.003906 738.632812 244.597656 C 738.578125 245.566406 734.972656 245.351562 734.40625 246.160156 C 742.027344 245.40625 749.109375 244.679688 756.003906 244.222656 C 759.421875 243.953125 762.789062 243.683594 766.101562 243.414062 C 769.414062 243.171875 772.699219 242.929688 775.957031 242.605469 C 779.21875 242.28125 782.449219 241.960938 785.734375 241.664062 C 788.992188 241.3125 792.222656 240.828125 795.535156 240.371094 C 802.132812 239.480469 808.785156 238.082031 815.816406 236.464844 C 820.203125 237.488281 828.527344 235.386719 833.535156 235.847656 C 830.035156 237.21875 833.992188 237.273438 829.332031 236.921875 C 827.824219 239.535156 831.085938 241.230469 834.046875 243.277344 C 836.953125 245.296875 839.621094 247.777344 836.6875 252.246094 C 840.753906 252.433594 839 254.238281 842.207031 255.585938 C 834.773438 257.523438 840.402344 261.726562 835.015625 263.90625 C 835.554688 264.390625 837.144531 264.042969 838.542969 263.824219 C 839.945312 263.582031 841.183594 263.476562 841.019531 264.527344 C 838.8125 265.578125 841.398438 267.703125 840.242188 270.667969 C 841.261719 271.472656 843.550781 271.203125 846.191406 270.667969 C 846.164062 272.578125 841.316406 273.789062 839.027344 275.246094 C 846.003906 274.976562 841.453125 279.390625 848.617188 279.714844 C 846.757812 284.5625 849.179688 287.417969 850.394531 290.433594 C 851.011719 291.941406 851.308594 293.503906 850.609375 295.386719 C 849.910156 297.085938 848.183594 299.347656 844.65625 302.09375 Z M 249.988281 281.089844 C 249.613281 280.144531 251.792969 279.929688 250.125 279.527344 C 248.429688 280.738281 238.4375 278.207031 238.679688 279.445312 C 240.753906 280.578125 246.140625 280.578125 249.988281 281.089844 Z M 253.382812 281.410156 C 251.039062 281.734375 240.753906 280.253906 244.144531 282.085938 C 245.816406 281.035156 252.710938 283.027344 253.382812 281.410156 Z M 217.699219 293.046875 C 210.105469 292.613281 200.277344 290.460938 195.996094 290.488281 C 195.671875 291.105469 194.082031 291.320312 197.019531 291.644531 C 202.054688 292.667969 205.339844 292.855469 208.734375 293.019531 C 210.429688 293.097656 212.152344 293.152344 214.121094 293.289062 C 216.113281 293.394531 218.347656 293.558594 221.09375 293.878906 C 226.695312 294.285156 220.070312 292.992188 217.699219 293.046875 Z M 398.804688 262.128906 C 393.285156 261.535156 387.277344 263.449219 387.441406 263.933594 C 391.910156 263.664062 395.789062 263.097656 398.804688 262.128906 Z M 413.480469 264.015625 C 410.035156 264.335938 403.761719 263.125 402.171875 264.285156 C 405.589844 264.042969 411.894531 265.199219 413.480469 264.015625 Z M 416.902344 261.429688 C 426.21875 261.050781 436.75 261.160156 440.679688 259.597656 C 431.957031 260.621094 424.683594 259.597656 416.902344 261.429688 Z M 445.179688 263.289062 C 439.738281 263.664062 430.097656 262.074219 428.183594 264.148438 C 430.933594 263.664062 452.152344 264.3125 445.179688 263.289062 Z M 366.246094 255.476562 C 357.253906 255.855469 342.65625 254.480469 342.414062 259.167969 C 348.097656 257.445312 366.703125 256.851562 366.246094 255.476562 Z M 162.789062 320.863281 C 166.640625 321.375 174.046875 321.214844 173.457031 320.78125 C 170.628906 320.78125 165.105469 318.953125 164.082031 320.003906 C 166.15625 320.539062 163.519531 320.488281 162.789062 320.863281 Z M 146.550781 271.257812 C 151.480469 272.605469 163.492188 274.410156 163.734375 272.148438 C 159.261719 272.765625 150.96875 269.644531 146.550781 271.257812 Z M 197.234375 280.171875 C 198.390625 279.203125 203.671875 280.765625 204.234375 279.445312 L 197.421875 278.609375 C 197.773438 279.582031 195.589844 279.769531 197.234375 280.171875 Z M 515.464844 261.214844 C 513.472656 260.808594 511.910156 259.515625 510.941406 261.292969 C 512.582031 262.425781 513.6875 260.59375 514.359375 261.753906 L 523.4375 261.617188 C 522.898438 260.460938 517.835938 261.484375 515.464844 261.214844 Z M 175.339844 280.117188 C 176.472656 280.28125 177.601562 280.441406 178.761719 280.578125 C 193.789062 282.085938 181.425781 278.503906 175.339844 280.117188 Z M 155.976562 277.855469 C 162.171875 278.152344 171.945312 280.066406 173.1875 278.773438 C 167.90625 278.746094 159.964844 277.023438 155.976562 277.855469 Z M 827.449219 330.640625 C 828.445312 330.046875 830.546875 329.9375 833.183594 329.695312 C 835.824219 329.453125 839 329.050781 842.125 327.839844 C 841.34375 324.09375 826.210938 329.402344 827.449219 330.640625 Z M 161.5 247.667969 C 157.351562 247.023438 153.769531 246.78125 151.320312 247.265625 C 155.386719 247.828125 160.097656 248.800781 161.5 247.667969 Z M 6.839844 238.269531 C -0.0273438 236.410156 -3.339844 235.09375 -10.933594 234.285156 C -3.769531 235.871094 1.667969 239.5625 6.839844 238.269531 Z M 61.75 231.484375 C 56.769531 229.058594 48.042969 230.191406 61.75 231.484375 Z M 193.035156 249.3125 C 187.753906 249.015625 179.757812 247.046875 176.257812 247.695312 C 181.480469 248.179688 189.503906 250.066406 193.035156 249.3125 Z M 332.367188 256.664062 C 326.148438 256.554688 318.363281 255.585938 316.507812 257.792969 C 320.386719 256.691406 331.804688 259.570312 332.367188 256.664062 Z M 89.433594 284.777344 C 91.128906 285.371094 94.253906 286.285156 97.378906 286.933594 C 100.527344 287.550781 103.652344 287.957031 105.402344 287.6875 C 103.949219 287.066406 100.746094 286.285156 97.484375 285.691406 C 94.253906 285.046875 90.996094 284.589844 89.433594 284.777344 Z M 82.703125 307.828125 C 84.238281 308.90625 92.558594 308.933594 95.332031 310.765625 C 95.949219 309.015625 84.371094 307.480469 82.703125 307.828125 Z M 2.800781 258.683594 C 10.664062 259.785156 23.105469 264.582031 23.320312 262.265625 C 16.105469 262.023438 7.191406 257.792969 2.800781 258.683594 Z M 83.507812 278.824219 C 87.980469 278.960938 91.535156 281.789062 93.714844 280.820312 C 92.960938 279.875 80.761719 277.480469 83.507812 278.824219 Z M 40.207031 260.730469 C 35.84375 259.597656 32.152344 258.601562 28.570312 257.820312 C 26.792969 257.445312 25.015625 257.09375 23.214844 256.824219 C 21.4375 256.5 19.605469 256.230469 17.691406 256.042969 C 2.828125 252.8125 17.90625 256.3125 25.394531 258.46875 C 30.699219 259.921875 37.484375 263.691406 39.855469 262.238281 C 33.097656 260.621094 36.921875 260.539062 40.207031 260.730469 Z M 40.207031 260.730469 " clip-rule="nonzero"/></clipPath><linearGradient x1="4.060177" gradientTransform="matrix(2.692993, 0, 0, 2.692993, -10.93403, 219.79567)" y1="25.087" x2="320.179954" gradientUnits="userSpaceOnUse" y2="25.087" id="a370839675"><stop stop-opacity="1" stop-color="rgb(100%, 34.129333%, 1.202393%)" offset="0"/><stop stop-opacity="1" stop-color="rgb(100%, 34.382629%, 1.568604%)" offset="0.00390625"/><stop stop-opacity="1" stop-color="rgb(100%, 34.635925%, 1.934814%)" offset="0.0078125"/><stop stop-opacity="1" stop-color="rgb(100%, 34.887695%, 2.301025%)" offset="0.0117187"/><stop stop-opacity="1" stop-color="rgb(100%, 35.140991%, 2.667236%)" offset="0.015625"/><stop stop-opacity="1" stop-color="rgb(100%, 35.392761%, 3.033447%)" offset="0.0195312"/><stop stop-opacity="1" stop-color="rgb(100%, 35.646057%, 3.399658%)" offset="0.0234375"/><stop stop-opacity="1" stop-color="rgb(100%, 35.897827%, 3.765869%)" offset="0.0273438"/><stop stop-opacity="1" stop-color="rgb(100%, 36.151123%, 4.13208%)" offset="0.03125"/><stop stop-opacity="1" stop-color="rgb(100%, 36.404419%, 4.498291%)" offset="0.0351563"/><stop stop-opacity="1" stop-color="rgb(100%, 36.657715%, 4.864502%)" offset="0.0390625"/><stop stop-opacity="1" stop-color="rgb(100%, 36.909485%, 5.230713%)" offset="0.0429688"/><stop stop-opacity="1" stop-color="rgb(100%, 37.162781%, 5.596924%)" offset="0.046875"/><stop stop-opacity="1" stop-color="rgb(100%, 37.414551%, 5.963135%)" offset="0.0507813"/><stop stop-opacity="1" stop-color="rgb(100%, 37.667847%, 6.329346%)" offset="0.0546875"/><stop stop-opacity="1" stop-color="rgb(100%, 37.919617%, 6.694031%)" offset="0.0585938"/><stop stop-opacity="1" stop-color="rgb(100%, 38.172913%, 7.060242%)" offset="0.0625"/><stop stop-opacity="1" stop-color="rgb(100%, 38.424683%, 7.426453%)" offset="0.0664063"/><stop stop-opacity="1" stop-color="rgb(100%, 38.677979%, 7.792664%)" offset="0.0703125"/><stop stop-opacity="1" stop-color="rgb(100%, 38.931274%, 8.158875%)" offset="0.0742188"/><stop stop-opacity="1" stop-color="rgb(100%, 39.18457%, 8.525085%)" offset="0.078125"/><stop stop-opacity="1" stop-color="rgb(100%, 39.43634%, 8.891296%)" offset="0.0820313"/><stop stop-opacity="1" stop-color="rgb(100%, 39.689636%, 9.257507%)" offset="0.0859375"/><stop stop-opacity="1" stop-color="rgb(100%, 39.941406%, 9.623718%)" offset="0.0898438"/><stop stop-opacity="1" stop-color="rgb(100%, 40.194702%, 9.989929%)" offset="0.09375"/><stop stop-opacity="1" stop-color="rgb(100%, 40.446472%, 10.35614%)" offset="0.0976563"/><stop stop-opacity="1" stop-color="rgb(100%, 40.699768%, 10.722351%)" offset="0.101563"/><stop stop-opacity="1" stop-color="rgb(100%, 40.951538%, 11.088562%)" offset="0.105469"/><stop stop-opacity="1" stop-color="rgb(100%, 41.204834%, 11.454773%)" offset="0.109375"/><stop stop-opacity="1" stop-color="rgb(100%, 41.45813%, 11.820984%)" offset="0.113281"/><stop stop-opacity="1" stop-color="rgb(100%, 41.711426%, 12.187195%)" offset="0.117188"/><stop stop-opacity="1" stop-color="rgb(100%, 41.963196%, 12.55188%)" offset="0.121094"/><stop stop-opacity="1" stop-color="rgb(100%, 42.216492%, 12.918091%)" offset="0.125"/><stop stop-opacity="1" stop-color="rgb(100%, 42.468262%, 13.284302%)" offset="0.128906"/><stop stop-opacity="1" stop-color="rgb(100%, 42.721558%, 13.650513%)" offset="0.132813"/><stop stop-opacity="1" stop-color="rgb(100%, 42.973328%, 14.016724%)" offset="0.136719"/><stop stop-opacity="1" stop-color="rgb(100%, 43.226624%, 14.382935%)" offset="0.140625"/><stop stop-opacity="1" stop-color="rgb(100%, 43.478394%, 14.749146%)" offset="0.144531"/><stop stop-opacity="1" stop-color="rgb(100%, 43.731689%, 15.115356%)" offset="0.148438"/><stop stop-opacity="1" stop-color="rgb(100%, 43.984985%, 15.481567%)" offset="0.152344"/><stop stop-opacity="1" stop-color="rgb(100%, 44.238281%, 15.847778%)" offset="0.15625"/><stop stop-opacity="1" stop-color="rgb(100%, 44.490051%, 16.213989%)" offset="0.160156"/><stop stop-opacity="1" stop-color="rgb(100%, 44.743347%, 16.5802%)" offset="0.164062"/><stop stop-opacity="1" stop-color="rgb(100%, 44.995117%, 16.946411%)" offset="0.167969"/><stop stop-opacity="1" stop-color="rgb(100%, 45.248413%, 17.312622%)" offset="0.171875"/><stop stop-opacity="1" stop-color="rgb(100%, 45.500183%, 17.678833%)" offset="0.175781"/><stop stop-opacity="1" stop-color="rgb(100%, 45.753479%, 18.045044%)" offset="0.179688"/><stop stop-opacity="1" stop-color="rgb(100%, 46.006775%, 18.409729%)" offset="0.183594"/><stop stop-opacity="1" stop-color="rgb(100%, 46.260071%, 18.77594%)" offset="0.1875"/><stop stop-opacity="1" stop-color="rgb(100%, 46.511841%, 19.142151%)" offset="0.191406"/><stop stop-opacity="1" stop-color="rgb(100%, 46.765137%, 19.508362%)" offset="0.195313"/><stop stop-opacity="1" stop-color="rgb(100%, 47.016907%, 19.874573%)" offset="0.199219"/><stop stop-opacity="1" stop-color="rgb(100%, 47.270203%, 20.240784%)" offset="0.203125"/><stop stop-opacity="1" stop-color="rgb(100%, 47.521973%, 20.606995%)" offset="0.207031"/><stop stop-opacity="1" stop-color="rgb(100%, 47.775269%, 20.973206%)" offset="0.210938"/><stop stop-opacity="1" stop-color="rgb(100%, 48.027039%, 21.339417%)" offset="0.214844"/><stop stop-opacity="1" stop-color="rgb(100%, 48.280334%, 21.705627%)" offset="0.21875"/><stop stop-opacity="1" stop-color="rgb(100%, 48.53363%, 22.071838%)" offset="0.222656"/><stop stop-opacity="1" stop-color="rgb(100%, 48.786926%, 22.438049%)" offset="0.226563"/><stop stop-opacity="1" stop-color="rgb(100%, 49.038696%, 22.80426%)" offset="0.230469"/><stop stop-opacity="1" stop-color="rgb(100%, 49.291992%, 23.170471%)" offset="0.234375"/><stop stop-opacity="1" stop-color="rgb(100%, 49.543762%, 23.536682%)" offset="0.238281"/><stop stop-opacity="1" stop-color="rgb(100%, 49.797058%, 23.902893%)" offset="0.242188"/><stop stop-opacity="1" stop-color="rgb(100%, 50.048828%, 24.267578%)" offset="0.246094"/><stop stop-opacity="1" stop-color="rgb(100%, 50.302124%, 24.633789%)" offset="0.25"/><stop stop-opacity="1" stop-color="rgb(100%, 50.553894%, 25%)" offset="0.253906"/><stop stop-opacity="1" stop-color="rgb(100%, 50.80719%, 25.366211%)" offset="0.257813"/><stop stop-opacity="1" stop-color="rgb(100%, 51.060486%, 25.732422%)" offset="0.261719"/><stop stop-opacity="1" stop-color="rgb(100%, 51.313782%, 26.098633%)" offset="0.265625"/><stop stop-opacity="1" stop-color="rgb(100%, 51.565552%, 26.464844%)" offset="0.269531"/><stop stop-opacity="1" stop-color="rgb(100%, 51.818848%, 26.831055%)" offset="0.273438"/><stop stop-opacity="1" stop-color="rgb(100%, 52.070618%, 27.197266%)" offset="0.277344"/><stop stop-opacity="1" stop-color="rgb(100%, 52.323914%, 27.563477%)" offset="0.28125"/><stop stop-opacity="1" stop-color="rgb(100%, 52.575684%, 27.929688%)" offset="0.285156"/><stop stop-opacity="1" stop-color="rgb(100%, 52.828979%, 28.295898%)" offset="0.289062"/><stop stop-opacity="1" stop-color="rgb(100%, 53.08075%, 28.662109%)" offset="0.292969"/><stop stop-opacity="1" stop-color="rgb(100%, 53.334045%, 29.02832%)" offset="0.296875"/><stop stop-opacity="1" stop-color="rgb(100%, 53.587341%, 29.394531%)" offset="0.300781"/><stop stop-opacity="1" stop-color="rgb(100%, 53.840637%, 29.760742%)" offset="0.304688"/><stop stop-opacity="1" stop-color="rgb(100%, 54.092407%, 30.125427%)" offset="0.308594"/><stop stop-opacity="1" stop-color="rgb(100%, 54.345703%, 30.491638%)" offset="0.3125"/><stop stop-opacity="1" stop-color="rgb(100%, 54.597473%, 30.857849%)" offset="0.316406"/><stop stop-opacity="1" stop-color="rgb(100%, 54.850769%, 31.22406%)" offset="0.320312"/><stop stop-opacity="1" stop-color="rgb(100%, 55.102539%, 31.590271%)" offset="0.324219"/><stop stop-opacity="1" stop-color="rgb(100%, 55.355835%, 31.956482%)" offset="0.328125"/><stop stop-opacity="1" stop-color="rgb(100%, 55.609131%, 32.322693%)" offset="0.332031"/><stop stop-opacity="1" stop-color="rgb(100%, 55.862427%, 32.688904%)" offset="0.335938"/><stop stop-opacity="1" stop-color="rgb(100%, 56.114197%, 33.055115%)" offset="0.339844"/><stop stop-opacity="1" stop-color="rgb(100%, 56.367493%, 33.421326%)" offset="0.34375"/><stop stop-opacity="1" stop-color="rgb(100%, 56.619263%, 33.787537%)" offset="0.347656"/><stop stop-opacity="1" stop-color="rgb(100%, 56.872559%, 34.153748%)" offset="0.351562"/><stop stop-opacity="1" stop-color="rgb(100%, 57.124329%, 34.519958%)" offset="0.355469"/><stop stop-opacity="1" stop-color="rgb(100%, 57.377625%, 34.886169%)" offset="0.359375"/><stop stop-opacity="1" stop-color="rgb(100%, 57.629395%, 35.25238%)" offset="0.363281"/><stop stop-opacity="1" stop-color="rgb(100%, 57.88269%, 35.618591%)" offset="0.367188"/><stop stop-opacity="1" stop-color="rgb(100%, 58.135986%, 35.983276%)" offset="0.371094"/><stop stop-opacity="1" stop-color="rgb(100%, 58.389282%, 36.349487%)" offset="0.375"/><stop stop-opacity="1" stop-color="rgb(100%, 58.641052%, 36.715698%)" offset="0.378906"/><stop stop-opacity="1" stop-color="rgb(100%, 58.894348%, 37.081909%)" offset="0.382812"/><stop stop-opacity="1" stop-color="rgb(100%, 59.146118%, 37.44812%)" offset="0.386719"/><stop stop-opacity="1" stop-color="rgb(100%, 59.399414%, 37.814331%)" offset="0.390625"/><stop stop-opacity="1" stop-color="rgb(100%, 59.651184%, 38.180542%)" offset="0.394531"/><stop stop-opacity="1" stop-color="rgb(100%, 59.90448%, 38.546753%)" offset="0.398438"/><stop stop-opacity="1" stop-color="rgb(100%, 60.15625%, 38.912964%)" offset="0.402344"/><stop stop-opacity="1" stop-color="rgb(100%, 60.409546%, 39.279175%)" offset="0.40625"/><stop stop-opacity="1" stop-color="rgb(100%, 60.662842%, 39.645386%)" offset="0.410156"/><stop stop-opacity="1" stop-color="rgb(100%, 60.916138%, 40.011597%)" offset="0.414062"/><stop stop-opacity="1" stop-color="rgb(100%, 61.167908%, 40.377808%)" offset="0.417969"/><stop stop-opacity="1" stop-color="rgb(100%, 61.421204%, 40.744019%)" offset="0.421875"/><stop stop-opacity="1" stop-color="rgb(100%, 61.672974%, 41.110229%)" offset="0.425781"/><stop stop-opacity="1" stop-color="rgb(100%, 61.92627%, 41.47644%)" offset="0.429688"/><stop stop-opacity="1" stop-color="rgb(100%, 62.17804%, 41.841125%)" offset="0.433594"/><stop stop-opacity="1" stop-color="rgb(100%, 62.431335%, 42.207336%)" offset="0.4375"/><stop stop-opacity="1" stop-color="rgb(100%, 62.683105%, 42.573547%)" offset="0.441406"/><stop stop-opacity="1" stop-color="rgb(100%, 62.936401%, 42.939758%)" offset="0.445312"/><stop stop-opacity="1" stop-color="rgb(100%, 63.189697%, 43.305969%)" offset="0.449219"/><stop stop-opacity="1" stop-color="rgb(100%, 63.442993%, 43.67218%)" offset="0.453125"/><stop stop-opacity="1" stop-color="rgb(100%, 63.694763%, 44.038391%)" offset="0.457031"/><stop stop-opacity="1" stop-color="rgb(100%, 63.948059%, 44.404602%)" offset="0.460938"/><stop stop-opacity="1" stop-color="rgb(100%, 64.199829%, 44.770813%)" offset="0.464844"/><stop stop-opacity="1" stop-color="rgb(100%, 64.453125%, 45.137024%)" offset="0.46875"/><stop stop-opacity="1" stop-color="rgb(100%, 64.704895%, 45.503235%)" offset="0.472656"/><stop stop-opacity="1" stop-color="rgb(100%, 64.958191%, 45.869446%)" offset="0.476562"/><stop stop-opacity="1" stop-color="rgb(100%, 65.209961%, 46.235657%)" offset="0.480469"/><stop stop-opacity="1" stop-color="rgb(100%, 65.463257%, 46.601868%)" offset="0.484375"/><stop stop-opacity="1" stop-color="rgb(100%, 65.716553%, 46.968079%)" offset="0.488281"/><stop stop-opacity="1" stop-color="rgb(100%, 65.969849%, 47.33429%)" offset="0.492188"/><stop stop-opacity="1" stop-color="rgb(100%, 66.221619%, 47.698975%)" offset="0.496094"/><stop stop-opacity="1" stop-color="rgb(100%, 66.474915%, 48.065186%)" offset="0.5"/><stop stop-opacity="1" stop-color="rgb(100%, 66.726685%, 48.431396%)" offset="0.503906"/><stop stop-opacity="1" stop-color="rgb(100%, 66.97998%, 48.797607%)" offset="0.507813"/><stop stop-opacity="1" stop-color="rgb(100%, 67.23175%, 49.163818%)" offset="0.511719"/><stop stop-opacity="1" stop-color="rgb(100%, 67.485046%, 49.530029%)" offset="0.515625"/><stop stop-opacity="1" stop-color="rgb(100%, 67.738342%, 49.89624%)" offset="0.519531"/><stop stop-opacity="1" stop-color="rgb(100%, 67.991638%, 50.262451%)" offset="0.523438"/><stop stop-opacity="1" stop-color="rgb(100%, 68.243408%, 50.628662%)" offset="0.527344"/><stop stop-opacity="1" stop-color="rgb(100%, 68.496704%, 50.994873%)" offset="0.53125"/><stop stop-opacity="1" stop-color="rgb(100%, 68.748474%, 51.361084%)" offset="0.535156"/><stop stop-opacity="1" stop-color="rgb(100%, 69.00177%, 51.727295%)" offset="0.539062"/><stop stop-opacity="1" stop-color="rgb(100%, 69.25354%, 52.093506%)" offset="0.542969"/><stop stop-opacity="1" stop-color="rgb(100%, 69.506836%, 52.459717%)" offset="0.546875"/><stop stop-opacity="1" stop-color="rgb(100%, 69.758606%, 52.825928%)" offset="0.550781"/><stop stop-opacity="1" stop-color="rgb(100%, 70.011902%, 53.192139%)" offset="0.554687"/><stop stop-opacity="1" stop-color="rgb(100%, 70.265198%, 53.556824%)" offset="0.558594"/><stop stop-opacity="1" stop-color="rgb(100%, 70.518494%, 53.923035%)" offset="0.5625"/><stop stop-opacity="1" stop-color="rgb(100%, 70.770264%, 54.289246%)" offset="0.566406"/><stop stop-opacity="1" stop-color="rgb(100%, 71.02356%, 54.655457%)" offset="0.570312"/><stop stop-opacity="1" stop-color="rgb(100%, 71.27533%, 55.021667%)" offset="0.574219"/><stop stop-opacity="1" stop-color="rgb(100%, 71.528625%, 55.387878%)" offset="0.578125"/><stop stop-opacity="1" stop-color="rgb(100%, 71.780396%, 55.754089%)" offset="0.582031"/><stop stop-opacity="1" stop-color="rgb(100%, 72.033691%, 56.1203%)" offset="0.585937"/><stop stop-opacity="1" stop-color="rgb(100%, 72.285461%, 56.486511%)" offset="0.589844"/><stop stop-opacity="1" stop-color="rgb(100%, 72.538757%, 56.852722%)" offset="0.59375"/><stop stop-opacity="1" stop-color="rgb(100%, 72.792053%, 57.218933%)" offset="0.597656"/><stop stop-opacity="1" stop-color="rgb(100%, 73.045349%, 57.585144%)" offset="0.601562"/><stop stop-opacity="1" stop-color="rgb(100%, 73.297119%, 57.951355%)" offset="0.605469"/><stop stop-opacity="1" stop-color="rgb(100%, 73.550415%, 58.317566%)" offset="0.609375"/><stop stop-opacity="1" stop-color="rgb(100%, 73.802185%, 58.683777%)" offset="0.613281"/><stop stop-opacity="1" stop-color="rgb(100%, 74.055481%, 59.049988%)" offset="0.617187"/><stop stop-opacity="1" stop-color="rgb(100%, 74.307251%, 59.414673%)" offset="0.621094"/><stop stop-opacity="1" stop-color="rgb(100%, 74.560547%, 59.780884%)" offset="0.625"/><stop stop-opacity="1" stop-color="rgb(100%, 74.812317%, 60.147095%)" offset="0.628906"/><stop stop-opacity="1" stop-color="rgb(100%, 75.065613%, 60.513306%)" offset="0.632812"/><stop stop-opacity="1" stop-color="rgb(100%, 75.318909%, 60.879517%)" offset="0.636719"/><stop stop-opacity="1" stop-color="rgb(100%, 75.572205%, 61.245728%)" offset="0.640625"/><stop stop-opacity="1" stop-color="rgb(100%, 75.823975%, 61.611938%)" offset="0.644531"/><stop stop-opacity="1" stop-color="rgb(100%, 76.077271%, 61.978149%)" offset="0.648437"/><stop stop-opacity="1" stop-color="rgb(100%, 76.329041%, 62.34436%)" offset="0.652344"/><stop stop-opacity="1" stop-color="rgb(100%, 76.582336%, 62.710571%)" offset="0.65625"/><stop stop-opacity="1" stop-color="rgb(100%, 76.834106%, 63.076782%)" offset="0.660156"/><stop stop-opacity="1" stop-color="rgb(100%, 77.087402%, 63.442993%)" offset="0.664062"/><stop stop-opacity="1" stop-color="rgb(100%, 77.340698%, 63.809204%)" offset="0.667969"/><stop stop-opacity="1" stop-color="rgb(100%, 77.593994%, 64.175415%)" offset="0.671875"/><stop stop-opacity="1" stop-color="rgb(100%, 77.845764%, 64.541626%)" offset="0.675781"/><stop stop-opacity="1" stop-color="rgb(100%, 78.09906%, 64.907837%)" offset="0.679688"/><stop stop-opacity="1" stop-color="rgb(100%, 78.35083%, 65.272522%)" offset="0.683594"/><stop stop-opacity="1" stop-color="rgb(100%, 78.604126%, 65.638733%)" offset="0.6875"/><stop stop-opacity="1" stop-color="rgb(100%, 78.855896%, 66.004944%)" offset="0.691406"/><stop stop-opacity="1" stop-color="rgb(100%, 79.109192%, 66.371155%)" offset="0.695312"/><stop stop-opacity="1" stop-color="rgb(100%, 79.360962%, 66.737366%)" offset="0.699219"/><stop stop-opacity="1" stop-color="rgb(100%, 79.614258%, 67.103577%)" offset="0.703125"/><stop stop-opacity="1" stop-color="rgb(100%, 79.867554%, 67.469788%)" offset="0.707031"/><stop stop-opacity="1" stop-color="rgb(100%, 80.12085%, 67.835999%)" offset="0.710937"/><stop stop-opacity="1" stop-color="rgb(100%, 80.37262%, 68.202209%)" offset="0.714844"/><stop stop-opacity="1" stop-color="rgb(100%, 80.625916%, 68.56842%)" offset="0.71875"/><stop stop-opacity="1" stop-color="rgb(100%, 80.877686%, 68.934631%)" offset="0.722656"/><stop stop-opacity="1" stop-color="rgb(100%, 81.130981%, 69.300842%)" offset="0.726562"/><stop stop-opacity="1" stop-color="rgb(100%, 81.382751%, 69.667053%)" offset="0.730469"/><stop stop-opacity="1" stop-color="rgb(100%, 81.636047%, 70.033264%)" offset="0.734375"/><stop stop-opacity="1" stop-color="rgb(100%, 81.887817%, 70.399475%)" offset="0.738281"/><stop stop-opacity="1" stop-color="rgb(100%, 82.141113%, 70.765686%)" offset="0.742188"/><stop stop-opacity="1" stop-color="rgb(100%, 82.394409%, 71.130371%)" offset="0.746094"/><stop stop-opacity="1" stop-color="rgb(100%, 82.647705%, 71.496582%)" offset="0.75"/><stop stop-opacity="1" stop-color="rgb(100%, 82.899475%, 71.862793%)" offset="0.753906"/><stop stop-opacity="1" stop-color="rgb(100%, 83.152771%, 72.229004%)" offset="0.757812"/><stop stop-opacity="1" stop-color="rgb(100%, 83.404541%, 72.595215%)" offset="0.761719"/><stop stop-opacity="1" stop-color="rgb(100%, 83.657837%, 72.961426%)" offset="0.765625"/><stop stop-opacity="1" stop-color="rgb(100%, 83.909607%, 73.327637%)" offset="0.769531"/><stop stop-opacity="1" stop-color="rgb(100%, 84.162903%, 73.693848%)" offset="0.773437"/><stop stop-opacity="1" stop-color="rgb(100%, 84.414673%, 74.060059%)" offset="0.777344"/><stop stop-opacity="1" stop-color="rgb(100%, 84.667969%, 74.42627%)" offset="0.78125"/><stop stop-opacity="1" stop-color="rgb(100%, 84.921265%, 74.79248%)" offset="0.785156"/><stop stop-opacity="1" stop-color="rgb(100%, 85.174561%, 75.158691%)" offset="0.789062"/><stop stop-opacity="1" stop-color="rgb(100%, 85.426331%, 75.524902%)" offset="0.792969"/><stop stop-opacity="1" stop-color="rgb(100%, 85.679626%, 75.891113%)" offset="0.796875"/><stop stop-opacity="1" stop-color="rgb(100%, 85.931396%, 76.257324%)" offset="0.800781"/><stop stop-opacity="1" stop-color="rgb(100%, 86.184692%, 76.623535%)" offset="0.804688"/><stop stop-opacity="1" stop-color="rgb(100%, 86.436462%, 76.98822%)" offset="0.808594"/><stop stop-opacity="1" stop-color="rgb(100%, 86.689758%, 77.354431%)" offset="0.8125"/><stop stop-opacity="1" stop-color="rgb(100%, 86.943054%, 77.720642%)" offset="0.816406"/><stop stop-opacity="1" stop-color="rgb(100%, 87.19635%, 78.086853%)" offset="0.820312"/><stop stop-opacity="1" stop-color="rgb(100%, 87.44812%, 78.453064%)" offset="0.824219"/><stop stop-opacity="1" stop-color="rgb(100%, 87.701416%, 78.819275%)" offset="0.828125"/><stop stop-opacity="1" stop-color="rgb(100%, 87.953186%, 79.185486%)" offset="0.832031"/><stop stop-opacity="1" stop-color="rgb(100%, 88.206482%, 79.551697%)" offset="0.835937"/><stop stop-opacity="1" stop-color="rgb(100%, 88.458252%, 79.917908%)" offset="0.839844"/><stop stop-opacity="1" stop-color="rgb(100%, 88.711548%, 80.284119%)" offset="0.84375"/><stop stop-opacity="1" stop-color="rgb(100%, 88.963318%, 80.65033%)" offset="0.847656"/><stop stop-opacity="1" stop-color="rgb(100%, 89.216614%, 81.016541%)" offset="0.851562"/><stop stop-opacity="1" stop-color="rgb(100%, 89.46991%, 81.382751%)" offset="0.855469"/><stop stop-opacity="1" stop-color="rgb(100%, 89.723206%, 81.748962%)" offset="0.859375"/><stop stop-opacity="1" stop-color="rgb(100%, 89.974976%, 82.115173%)" offset="0.863281"/><stop stop-opacity="1" stop-color="rgb(100%, 90.228271%, 82.481384%)" offset="0.867188"/><stop stop-opacity="1" stop-color="rgb(100%, 90.480042%, 82.846069%)" offset="0.871094"/><stop stop-opacity="1" stop-color="rgb(100%, 90.733337%, 83.21228%)" offset="0.875"/><stop stop-opacity="1" stop-color="rgb(100%, 90.985107%, 83.578491%)" offset="0.878906"/><stop stop-opacity="1" stop-color="rgb(100%, 91.238403%, 83.944702%)" offset="0.882812"/><stop stop-opacity="1" stop-color="rgb(100%, 91.490173%, 84.310913%)" offset="0.886719"/><stop stop-opacity="1" stop-color="rgb(100%, 91.743469%, 84.677124%)" offset="0.890625"/><stop stop-opacity="1" stop-color="rgb(100%, 91.996765%, 85.043335%)" offset="0.894531"/><stop stop-opacity="1" stop-color="rgb(100%, 92.250061%, 85.409546%)" offset="0.898437"/><stop stop-opacity="1" stop-color="rgb(100%, 92.501831%, 85.775757%)" offset="0.902344"/><stop stop-opacity="1" stop-color="rgb(100%, 92.755127%, 86.141968%)" offset="0.90625"/><stop stop-opacity="1" stop-color="rgb(100%, 93.006897%, 86.508179%)" offset="0.910156"/><stop stop-opacity="1" stop-color="rgb(100%, 93.260193%, 86.87439%)" offset="0.914063"/><stop stop-opacity="1" stop-color="rgb(100%, 93.511963%, 87.240601%)" offset="0.917969"/><stop stop-opacity="1" stop-color="rgb(100%, 93.765259%, 87.606812%)" offset="0.921875"/><stop stop-opacity="1" stop-color="rgb(100%, 94.017029%, 87.973022%)" offset="0.925781"/><stop stop-opacity="1" stop-color="rgb(100%, 94.270325%, 88.339233%)" offset="0.929688"/><stop stop-opacity="1" stop-color="rgb(100%, 94.523621%, 88.703918%)" offset="0.933594"/><stop stop-opacity="1" stop-color="rgb(100%, 94.776917%, 89.070129%)" offset="0.9375"/><stop stop-opacity="1" stop-color="rgb(100%, 95.028687%, 89.43634%)" offset="0.941406"/><stop stop-opacity="1" stop-color="rgb(100%, 95.281982%, 89.802551%)" offset="0.945312"/><stop stop-opacity="1" stop-color="rgb(100%, 95.533752%, 90.168762%)" offset="0.949219"/><stop stop-opacity="1" stop-color="rgb(100%, 95.787048%, 90.534973%)" offset="0.953125"/><stop stop-opacity="1" stop-color="rgb(100%, 96.038818%, 90.901184%)" offset="0.957031"/><stop stop-opacity="1" stop-color="rgb(100%, 96.292114%, 91.267395%)" offset="0.960937"/><stop stop-opacity="1" stop-color="rgb(100%, 96.54541%, 91.633606%)" offset="0.964844"/><stop stop-opacity="1" stop-color="rgb(100%, 96.798706%, 91.999817%)" offset="0.96875"/><stop stop-opacity="1" stop-color="rgb(100%, 97.050476%, 92.366028%)" offset="0.972656"/><stop stop-opacity="1" stop-color="rgb(100%, 97.303772%, 92.732239%)" offset="0.976563"/><stop stop-opacity="1" stop-color="rgb(100%, 97.555542%, 93.09845%)" offset="0.980469"/><stop stop-opacity="1" stop-color="rgb(100%, 97.808838%, 93.464661%)" offset="0.984375"/><stop stop-opacity="1" stop-color="rgb(100%, 98.060608%, 93.830872%)" offset="0.988281"/><stop stop-opacity="1" stop-color="rgb(100%, 98.313904%, 94.197083%)" offset="0.992188"/><stop stop-opacity="1" stop-color="rgb(100%, 98.556519%, 94.548035%)" offset="0.996094"/><stop stop-opacity="1" stop-color="rgb(100%, 98.799133%, 94.898987%)" offset="1"/></linearGradient></defs><g clip-path="url(#d8c3ca43a0)"><g clip-path="url(#642e731bc5)"><path fill="url(#a370839675)" d="M 0 219.417969 L 0 355.46875 L 851.308594 355.46875 L 851.308594 219.417969 Z M 0 219.417969 " fill-rule="nonzero"/></g></g><g fill="#0d221b" fill-opacity="1"><g transform="translate(244.497631, 346.61487)"><g><path d="M 19.28125 87.863281 C 21.476562 87.863281 22.699219 85.421875 23.917969 83.226562 C 24.164062 82.492188 24.648438 81.515625 25.136719 81.027344 C 27.824219 76.636719 30.996094 72 32.949219 66.628906 C 40.269531 45.394531 51.496094 26.113281 62.234375 7.320312 C 68.09375 -2.929688 74.195312 -13.667969 79.808594 -24.40625 C 86.398438 -38.074219 96.648438 -43.929688 112.757812 -43.929688 C 116.660156 -43.929688 121.054688 -43.6875 126.179688 -42.953125 C 130.085938 -42.464844 133.988281 -41.492188 138.140625 -40.515625 C 140.824219 -39.78125 143.753906 -39.292969 146.679688 -38.5625 L 147.65625 -38.5625 C 148.878906 -38.316406 150.097656 -38.074219 151.074219 -38.074219 C 152.78125 -38.074219 153.515625 -38.804688 153.269531 -40.515625 C 153.269531 -41.492188 152.78125 -42.222656 152.292969 -42.710938 C 151.5625 -43.441406 150.097656 -43.6875 148.632812 -43.6875 C 147.65625 -43.6875 146.925781 -43.929688 145.949219 -44.175781 C 130.816406 -47.59375 115.683594 -48.566406 97.867188 -49.542969 L 95.917969 -49.789062 L 96.894531 -51.253906 C 106.898438 -65.164062 116.417969 -79.808594 125.691406 -93.964844 L 131.550781 -102.75 C 140.578125 -116.417969 151.074219 -132.28125 162.546875 -146.925781 C 168.402344 -154.492188 174.015625 -161.324219 179.628906 -167.425781 C 181.582031 -169.378906 183.046875 -171.332031 184.753906 -173.285156 C 187.683594 -176.945312 190.613281 -180.605469 194.515625 -183.777344 C 194.761719 -184.023438 196.226562 -185 197.933594 -185 L 198.910156 -185 L 199.15625 -184.753906 C 199.644531 -184.753906 200.375 -184.265625 200.863281 -183.289062 C 205.988281 -174.75 191.101562 -122.273438 188.171875 -112.023438 C 181.582031 -89.816406 174.015625 -67.605469 166.9375 -46.128906 C 156.199219 -14.15625 144.972656 18.792969 136.917969 52.960938 C 136.675781 53.449219 136.429688 54.425781 135.941406 55.15625 C 135.210938 56.867188 134.476562 58.574219 135.210938 59.796875 C 135.453125 60.527344 135.941406 61.015625 136.675781 61.257812 C 137.652344 61.992188 138.628906 62.234375 139.117188 62.234375 C 141.066406 62.234375 141.554688 59.796875 142.042969 57.597656 C 142.289062 56.867188 142.289062 56.132812 142.53125 55.644531 C 150.832031 32.703125 158.882812 10.496094 166.207031 -12.203125 C 169.136719 -20.988281 172.0625 -29.777344 174.992188 -38.5625 C 187.929688 -77.125 201.351562 -116.90625 208.429688 -159.371094 C 209.648438 -167.914062 211.113281 -176.457031 207.695312 -185.976562 C 205.988281 -191.34375 203.304688 -193.785156 199.886719 -193.785156 C 198.421875 -193.785156 196.957031 -193.542969 195.492188 -192.808594 C 188.902344 -189.878906 184.265625 -185 179.875 -179.875 C 155.222656 -151.074219 133.988281 -118.859375 113.734375 -87.863281 C 106.898438 -77.613281 100.308594 -67.605469 93.71875 -57.597656 C 89.328125 -51.253906 84.691406 -48.566406 77.125 -48.566406 C 77.125 -48.566406 72.730469 -48.8125 71.023438 -48.8125 C 54.914062 -48.8125 38.5625 -46.371094 20.746094 -41.734375 L 19.28125 -41.246094 C 15.863281 -40.515625 12.933594 -39.78125 13.179688 -36.121094 C 13.179688 -33.4375 15.375 -31.972656 18.792969 -30.019531 C 19.523438 -29.53125 20.257812 -29.289062 20.988281 -28.800781 C 31.484375 -22.210938 38.074219 -13.667969 41.003906 -2.195312 C 44.664062 11.714844 43.6875 22.941406 37.828125 32.460938 C 30.996094 43.6875 22.453125 58.574219 16.351562 74.683594 C 16.109375 75.660156 15.863281 76.390625 15.375 77.125 C 13.421875 81.273438 12.445312 83.957031 16.109375 86.640625 C 17.328125 87.375 18.304688 87.863281 19.28125 87.863281 Z M 81.273438 -42.953125 L 83.226562 -42.710938 L 48.566406 13.179688 L 48.082031 10.25 C 46.128906 -7.320312 39.292969 -20.257812 26.601562 -30.019531 C 23.675781 -32.214844 22.941406 -33.925781 23.1875 -34.902344 C 23.1875 -35.878906 23.675781 -37.097656 26.847656 -37.828125 C 40.269531 -40.515625 54.425781 -43.441406 70.289062 -43.441406 C 73.949219 -43.441406 77.613281 -43.199219 81.273438 -42.953125 Z M 81.273438 -42.953125 "/></g></g></g><g fill="#0d221b" fill-opacity="1"><g transform="translate(438.526028, 346.61487)"><g><path d="M 3.90625 -14.886719 C 5.371094 -20.5 7.566406 -25.871094 9.519531 -30.996094 C 10.738281 -34.414062 11.960938 -37.585938 13.179688 -41.003906 C 13.910156 -43.199219 15.621094 -44.175781 17.328125 -44.90625 C 17.816406 -45.152344 18.546875 -45.394531 19.035156 -45.640625 C 45.394531 -61.257812 67.847656 -81.273438 85.175781 -104.703125 C 93.964844 -116.417969 102.75 -130.816406 102.507812 -150.097656 C 102.507812 -154.980469 100.796875 -159.371094 97.867188 -162.300781 C 95.183594 -164.984375 91.765625 -166.207031 87.863281 -166.207031 C 86.398438 -166.207031 84.691406 -165.960938 82.980469 -165.472656 C 77.367188 -164.007812 73.21875 -160.105469 70.046875 -156.445312 C 58.574219 -144.484375 49.054688 -130.328125 40.027344 -116.660156 L 34.414062 -108.363281 C 13.421875 -77.367188 -0.730469 -41.980469 -7.566406 -2.929688 L -8.054688 -0.488281 C -9.273438 5.859375 -10.738281 12.933594 -3.417969 18.0625 C -0.730469 20.011719 1.464844 20.746094 3.90625 20.746094 C 8.054688 20.746094 11.714844 17.816406 14.644531 15.132812 L 16.351562 13.667969 C 26.601562 5.125 36.851562 -3.660156 37.097656 -18.546875 C 37.097656 -26.113281 39.78125 -28.066406 45.394531 -29.289062 C 53.449219 -30.996094 61.503906 -32.703125 69.558594 -34.65625 L 82.25 -37.585938 C 83.46875 -37.828125 84.933594 -38.074219 85.175781 -38.804688 C 85.175781 -39.292969 85.175781 -39.78125 84.691406 -40.515625 C 83.957031 -41.734375 83.226562 -41.980469 82.492188 -41.980469 C 81.761719 -41.980469 81.027344 -41.734375 80.296875 -41.492188 L 79.320312 -41.246094 C 74.925781 -40.269531 70.289062 -39.050781 65.410156 -38.074219 C 53.207031 -35.390625 36.851562 -31.972656 19.523438 -30.265625 C 17.328125 -30.019531 15.863281 -29.53125 15.375 -28.554688 C 15.132812 -27.824219 15.132812 -26.847656 15.621094 -25.871094 C 16.351562 -23.917969 18.0625 -22.941406 20.746094 -22.941406 C 21.234375 -22.941406 21.476562 -22.941406 22.699219 -22.941406 C 23.675781 -23.1875 24.894531 -23.1875 26.359375 -23.675781 C 27.335938 -24.164062 28.066406 -24.40625 29.289062 -24.40625 C 30.507812 -24.40625 31.972656 -23.917969 33.191406 -22.453125 C 35.144531 -20.011719 34.65625 -18.0625 33.925781 -15.863281 C 31.484375 -8.542969 27.335938 -2.195312 21.964844 2.929688 C 17.816406 6.832031 12.933594 11.472656 6.589844 13.179688 C 6.101562 13.421875 5.371094 13.421875 4.882812 13.421875 C 3.90625 13.421875 2.929688 13.179688 2.195312 12.691406 C 0 10.984375 0 7.566406 0.242188 5.613281 C 0.730469 -1.707031 1.953125 -8.542969 3.90625 -14.886719 Z M 20.5 -60.527344 C 22.699219 -65.652344 25.136719 -71.023438 27.824219 -75.902344 C 44.417969 -105.191406 61.015625 -130.085938 78.832031 -151.5625 L 79.5625 -152.539062 C 82.003906 -155.46875 84.933594 -159.128906 88.839844 -159.128906 C 90.058594 -159.128906 91.523438 -158.882812 92.742188 -157.90625 C 99.089844 -154.003906 97.625 -146.679688 96.40625 -141.3125 L 96.160156 -140.089844 C 93.230469 -125.9375 86.398438 -112.511719 74.925781 -98.355469 C 58.820312 -78.832031 40.269531 -63.699219 18.546875 -52.230469 L 17.328125 -53.207031 C 18.304688 -55.644531 19.523438 -58.085938 20.5 -60.527344 Z M 20.5 -60.527344 "/></g></g></g><g fill="#0d221b" fill-opacity="1"><g transform="translate(516.869565, 346.61487)"><g><path d="M 87.617188 -39.539062 C 87.128906 -39.539062 86.640625 -39.539062 86.398438 -39.539062 C 83.957031 -39.539062 82.003906 -38.804688 80.050781 -37.828125 C 78.34375 -37.097656 76.878906 -36.367188 74.925781 -36.121094 C 71.023438 -35.632812 66.871094 -35.144531 61.992188 -35.144531 C 60.039062 -35.144531 58.085938 -35.390625 55.890625 -35.390625 C 52.472656 -35.632812 50.277344 -36.367188 49.054688 -37.828125 C 47.835938 -39.050781 47.59375 -41.003906 48.324219 -43.6875 C 49.542969 -48.566406 49.542969 -53.695312 48.082031 -59.0625 C 46.371094 -65.410156 43.441406 -69.070312 38.804688 -71.265625 C 36.609375 -72.242188 34.65625 -72.730469 32.949219 -72.730469 C 30.019531 -72.730469 27.335938 -71.511719 24.894531 -69.3125 C 21.722656 -66.628906 18.792969 -63.699219 16.109375 -60.769531 C 4.148438 -48.324219 -2.441406 -33.679688 -3.660156 -17.085938 C -3.90625 -10.738281 -3.90625 -4.148438 2.683594 0 C 4.882812 1.707031 7.320312 2.441406 9.761719 2.441406 C 13.421875 2.441406 17.085938 0.488281 19.523438 -1.21875 C 29.777344 -7.808594 37.339844 -16.351562 41.980469 -26.601562 C 44.175781 -30.996094 46.617188 -32.949219 50.519531 -32.949219 C 51.984375 -32.949219 53.695312 -32.703125 55.644531 -32.214844 C 59.550781 -31.238281 63.457031 -30.75 67.117188 -30.75 C 71.511719 -30.75 75.660156 -31.484375 80.050781 -32.703125 C 82.492188 -33.4375 90.058594 -35.878906 89.570312 -38.804688 C 89.570312 -38.804688 89.082031 -39.292969 87.617188 -39.539062 Z M 36.851562 -36.851562 C 36.851562 -36.121094 36.851562 -35.390625 36.609375 -34.65625 C 32.214844 -24.164062 25.625 -10.984375 11.472656 -3.90625 C 10.25 -3.171875 9.03125 -2.929688 7.808594 -2.929688 C 6.34375 -2.929688 5.125 -3.417969 4.148438 -4.394531 C 2.929688 -5.613281 2.195312 -7.808594 2.195312 -10.496094 C 2.441406 -26.113281 8.785156 -38.316406 18.546875 -51.496094 C 19.28125 -52.71875 20.011719 -53.207031 20.988281 -53.207031 C 22.699219 -53.207031 24.164062 -51.496094 25.382812 -50.03125 C 26.113281 -49.300781 26.601562 -48.8125 27.089844 -48.324219 C 29.53125 -46.371094 31.972656 -43.929688 34.167969 -41.734375 C 34.902344 -41.003906 35.878906 -40.027344 37.097656 -38.5625 C 36.851562 -37.828125 36.851562 -37.339844 36.851562 -36.851562 Z M 39.050781 -46.617188 C 38.804688 -45.640625 38.5625 -44.664062 38.316406 -43.441406 L 38.074219 -42.222656 L 37.097656 -43.199219 C 36.121094 -44.175781 35.144531 -44.90625 33.925781 -45.882812 C 30.265625 -48.8125 26.601562 -51.742188 28.3125 -56.867188 C 28.800781 -58.332031 31.238281 -60.769531 33.679688 -60.769531 C 34.65625 -60.769531 35.632812 -60.527344 36.367188 -59.796875 C 41.003906 -55.402344 40.027344 -51.007812 39.050781 -46.617188 Z M 39.050781 -46.617188 "/></g></g></g><g fill="#0d221b" fill-opacity="1"><g transform="translate(599.6062, 346.61487)"><g><path d="M 137.40625 -38.316406 C 136.917969 -38.804688 136.429688 -39.050781 135.941406 -39.050781 C 135.453125 -39.050781 134.964844 -38.5625 134.476562 -37.828125 C 134.476562 -37.585938 134.234375 -37.339844 133.988281 -37.097656 C 125.9375 -28.3125 115.683594 -20.257812 101.53125 -11.714844 C 93.964844 -7.320312 85.910156 -2.929688 74.925781 -2.929688 C 69.558594 -2.929688 66.140625 -4.148438 63.945312 -6.34375 C 61.746094 -8.542969 60.769531 -11.960938 61.257812 -16.597656 C 61.992188 -22.941406 63.945312 -28.800781 66.140625 -34.414062 C 67.117188 -37.097656 68.09375 -39.539062 68.824219 -42.222656 C 69.070312 -43.199219 69.800781 -44.417969 70.289062 -45.394531 C 71.265625 -47.835938 72.488281 -50.277344 71.753906 -52.230469 C 71.265625 -53.449219 70.289062 -54.183594 68.824219 -55.15625 C 67.605469 -55.890625 66.386719 -56.132812 65.652344 -56.132812 C 62.96875 -56.132812 61.992188 -52.960938 61.015625 -50.277344 C 60.527344 -49.300781 60.285156 -48.324219 60.039062 -47.347656 C 51.984375 -30.507812 38.316406 -17.085938 17.816406 -6.34375 C 15.132812 -4.882812 11.472656 -3.171875 7.808594 -3.171875 C 7.320312 -3.171875 7.078125 -3.171875 6.589844 -3.171875 C 5.371094 -3.171875 4.636719 -3.660156 3.90625 -4.394531 C 2.683594 -5.859375 2.441406 -7.566406 2.683594 -9.03125 C 3.90625 -24.40625 11.472656 -37.828125 18.792969 -50.519531 C 21.722656 -55.890625 24.40625 -60.769531 26.847656 -65.898438 C 28.066406 -68.335938 28.800781 -70.289062 26.601562 -72 C 25.382812 -72.972656 24.40625 -73.460938 23.675781 -73.460938 C 22.210938 -73.460938 20.988281 -72.488281 19.769531 -71.023438 C 4.148438 -50.765625 -4.148438 -31.972656 -6.589844 -11.472656 C -7.078125 -6.34375 -5.371094 -2.441406 -1.21875 1.21875 C 0.976562 3.171875 3.417969 4.148438 6.34375 4.148438 C 8.054688 4.148438 9.761719 3.660156 11.714844 3.171875 C 18.546875 0.976562 25.136719 -2.441406 30.75 -7.078125 C 35.390625 -10.984375 40.027344 -14.644531 44.664062 -18.546875 L 51.496094 -24.648438 L 51.742188 -22.941406 C 52.960938 -12.933594 56.132812 -5.859375 60.769531 -1.707031 C 63.945312 0.976562 68.09375 2.441406 72.730469 2.441406 C 75.171875 2.441406 77.855469 1.953125 80.785156 1.21875 C 104.703125 -5.125 122.03125 -19.769531 137.164062 -34.65625 C 137.894531 -35.390625 138.628906 -36.121094 138.628906 -36.851562 C 138.382812 -37.339844 138.140625 -37.828125 137.40625 -38.316406 Z M 137.40625 -38.316406 "/></g></g></g><g fill="#0d221b" fill-opacity="1"><g transform="translate(731.155013, 346.61487)"><g><path d="M 140.578125 -119.835938 C 139.601562 -120.8125 137.652344 -120.8125 135.699219 -120.8125 C 135.210938 -121.054688 134.476562 -121.054688 133.988281 -121.054688 C 112.023438 -123.496094 92.988281 -124.714844 75.414062 -124.714844 L 53.9375 -124.714844 L 54.425781 -125.9375 C 60.527344 -138.628906 68.09375 -148.878906 75.171875 -158.640625 C 77.613281 -161.8125 79.808594 -164.984375 82.25 -168.402344 C 84.445312 -171.574219 85.664062 -173.773438 82.492188 -176.457031 C 81.515625 -177.433594 80.539062 -177.921875 79.5625 -177.921875 C 78.101562 -177.921875 77.125 -176.457031 75.902344 -175.238281 C 75.660156 -174.75 75.414062 -174.261719 74.925781 -174.015625 C 62.96875 -160.835938 53.695312 -147.414062 46.617188 -133.015625 C 43.441406 -126.179688 38.074219 -124.714844 30.996094 -124.472656 C 23.917969 -124.472656 16.839844 -124.226562 9.761719 -124.226562 C 2.195312 -124.226562 -5.371094 -124.472656 -12.933594 -124.472656 C -20.5 -124.472656 -28.066406 -124.714844 -35.632812 -124.714844 C -49.789062 -124.714844 -68.335938 -124.472656 -86.640625 -122.761719 L -87.375 -122.761719 C -87.375 -122.761719 -90.058594 -122.761719 -90.546875 -122.761719 C -92.742188 -122.761719 -93.230469 -122.273438 -92.988281 -120.566406 C -92.5 -119.589844 -92.253906 -118.859375 -91.523438 -118.125 C -90.792969 -117.636719 -89.816406 -117.394531 -88.839844 -117.394531 C -87.617188 -117.394531 -86.398438 -117.636719 -85.175781 -117.882812 C -75.660156 -120.324219 -65.164062 -120.566406 -55.15625 -120.566406 C -51.253906 -120.566406 -47.105469 -120.566406 -43.199219 -120.8125 C -33.925781 -121.296875 -23.675781 -121.296875 -11.226562 -121.296875 C -3.660156 -121.296875 3.90625 -121.296875 11.714844 -121.296875 C 19.035156 -121.296875 26.601562 -121.054688 33.925781 -121.054688 L 34.414062 -121.054688 L 34.65625 -120.566406 C 37.585938 -116.171875 36.609375 -114.464844 35.878906 -112.757812 C 33.191406 -107.386719 30.507812 -101.773438 27.824219 -96.160156 C 21.964844 -84.691406 16.109375 -72.730469 10.984375 -60.527344 L 9.761719 -57.355469 C -5.859375 -19.769531 -21.722656 19.035156 -25.625 62.96875 L -25.871094 65.164062 C -26.359375 71.511719 -27.089844 78.34375 -24.894531 85.421875 C -22.699219 92.253906 -18.304688 95.429688 -11.226562 95.429688 L -10.984375 95.429688 C -9.519531 95.429688 -7.808594 94.941406 -8.296875 92.5 C -8.296875 91.523438 -8.785156 90.792969 -9.273438 90.058594 C -9.761719 89.816406 -10.25 89.570312 -10.738281 89.328125 C -13.910156 89.082031 -15.863281 88.105469 -17.328125 86.640625 C -19.28125 84.445312 -19.28125 81.761719 -19.28125 79.074219 C -19.28125 78.34375 -19.28125 77.855469 -19.28125 77.125 C -19.523438 61.257812 -17.328125 44.90625 -12.691406 26.113281 C -0.488281 -21.722656 21.476562 -64.1875 42.710938 -105.433594 L 46.859375 -113.734375 C 49.054688 -117.882812 52.472656 -118.613281 57.597656 -118.613281 C 57.597656 -118.613281 57.597656 -118.613281 57.84375 -118.613281 C 61.992188 -118.613281 66.386719 -118.613281 70.535156 -118.613281 L 82.980469 -118.613281 C 99.578125 -118.613281 116.90625 -118.371094 134.964844 -115.929688 L 135.941406 -115.929688 C 136.917969 -115.683594 138.140625 -115.441406 139.117188 -115.441406 C 141.554688 -115.441406 141.800781 -116.417969 141.554688 -117.394531 C 141.554688 -118.371094 141.3125 -119.347656 140.578125 -119.835938 Z M 140.578125 -119.835938 "/></g></g></g><g fill="#0d221b" fill-opacity="1"><g transform="translate(773.152659, 346.61487)"><g/></g></g></svg>