<svg xmlns="http://www.w3.org/2000/svg" xmlns:xlink="http://www.w3.org/1999/xlink" zoomAndPan="magnify" preserveAspectRatio="xMidYMid meet" version="1.0" viewBox="18.64 204.18 923.36 191.62"><defs><g/><clipPath id="6b4bda09d3"><path d="M 18.839844 204.390625 L 941.320312 204.390625 L 941.320312 395.609375 L 18.839844 395.609375 Z M 18.839844 204.390625 " clip-rule="nonzero"/></clipPath><clipPath id="8d8a935343"><path d="M 56.339844 204.390625 L 903.660156 204.390625 C 924.371094 204.390625 941.160156 221.179688 941.160156 241.890625 L 941.160156 358.109375 C 941.160156 378.820312 924.371094 395.609375 903.660156 395.609375 L 56.339844 395.609375 C 35.628906 395.609375 18.839844 378.820312 18.839844 358.109375 L 18.839844 241.890625 C 18.839844 221.179688 35.628906 204.390625 56.339844 204.390625 Z M 56.339844 204.390625 " clip-rule="nonzero"/></clipPath><clipPath id="9c10593d73"><path d="M 18.84375 204.390625 L 942 204.390625 L 942 394.921875 L 18.84375 394.921875 Z M 18.84375 204.390625 " clip-rule="nonzero"/></clipPath><clipPath id="434629aed8"><path d="M 56.34375 204.390625 L 903.613281 204.390625 C 924.320312 204.390625 941.109375 221.179688 941.109375 241.886719 L 941.109375 358.101562 C 941.109375 378.808594 924.320312 395.597656 903.613281 395.597656 L 56.34375 395.597656 C 35.632812 395.597656 18.84375 378.808594 18.84375 358.101562 L 18.84375 241.886719 C 18.84375 221.179688 35.632812 204.390625 56.34375 204.390625 Z M 56.34375 204.390625 " clip-rule="nonzero"/></clipPath><clipPath id="aace2921f3"><path d="M 772.476562 232.273438 L 907.925781 232.273438 L 907.925781 367.726562 L 772.476562 367.726562 Z M 772.476562 232.273438 " clip-rule="nonzero"/></clipPath><clipPath id="b6e176fcd9"><path d="M 840.203125 232.273438 C 802.796875 232.273438 772.476562 262.597656 772.476562 300 C 772.476562 337.402344 802.796875 367.726562 840.203125 367.726562 C 877.605469 367.726562 907.925781 337.402344 907.925781 300 C 907.925781 262.597656 877.605469 232.273438 840.203125 232.273438 Z M 840.203125 232.273438 " clip-rule="nonzero"/></clipPath><clipPath id="d0f371f8f1"><path d="M 808 262 L 878 262 L 878 338 L 808 338 Z M 808 262 " clip-rule="nonzero"/></clipPath><clipPath id="691fea3231"><path d="M 840.175781 262.636719 L 878.304688 300.765625 L 840.175781 338.898438 L 802.042969 300.765625 Z M 840.175781 262.636719 " clip-rule="nonzero"/></clipPath><clipPath id="5466ecfe4f"><path d="M 840.175781 262.636719 L 878.304688 300.765625 L 840.175781 338.898438 L 802.042969 300.765625 Z M 840.175781 262.636719 " clip-rule="nonzero"/></clipPath></defs><g clip-path="url(#6b4bda09d3)"><g clip-path="url(#8d8a935343)"><path fill="#ff5500" d="M 18.839844 204.390625 L 941.320312 204.390625 L 941.320312 395.609375 L 18.839844 395.609375 Z M 18.839844 204.390625 " fill-opacity="1" fill-rule="nonzero"/></g></g><g clip-path="url(#9c10593d73)"><g clip-path="url(#434629aed8)"><path stroke-linecap="butt" transform="matrix(3.59496, 0, 0, 3.59496, 18.845696, 204.39089)" fill="none" stroke-linejoin="miter" d="M 10.43073 -0.0000736251 L 246.113358 -0.0000736251 C 251.874462 -0.0000736251 256.543543 4.670094 256.543543 10.430111 L 256.543543 42.757274 C 256.543543 48.517291 251.874462 53.187459 246.113358 53.187459 L 10.43073 53.187459 C 4.669626 53.187459 -0.000541335 48.517291 -0.000541335 42.757274 L -0.000541335 10.430111 C -0.000541335 4.670094 4.669626 -0.0000736251 10.43073 -0.0000736251 Z M 10.43073 -0.0000736251 " stroke="#faf8f4" stroke-width="0.417251" stroke-opacity="1" stroke-miterlimit="4"/></g></g><g clip-path="url(#aace2921f3)"><g clip-path="url(#b6e176fcd9)"><path fill="#faf8f4" d="M 772.476562 232.273438 L 907.925781 232.273438 L 907.925781 367.726562 L 772.476562 367.726562 Z M 772.476562 232.273438 " fill-opacity="1" fill-rule="nonzero"/></g></g><g clip-path="url(#d0f371f8f1)"><g clip-path="url(#691fea3231)"><g clip-path="url(#5466ecfe4f)"><path fill="#0d221b" d="M 877.507812 299.972656 L 840.210938 337.269531 L 832.746094 329.804688 L 857.300781 305.25 L 808.117188 305.25 L 808.117188 294.691406 L 857.300781 294.691406 L 832.746094 270.136719 L 840.210938 262.671875 Z M 877.507812 299.972656 " fill-opacity="1" fill-rule="nonzero"/></g></g></g><g fill="#0d221b" fill-opacity="1"><g transform="translate(206.957319, 327.455437)"><g><path d="M 0.601562 0 L 14.457031 0 L 19.960938 -15.359375 L 47.429688 -15.359375 L 52.882812 0 L 66.589844 0 L 38.425781 -70.695312 L 28.917969 -70.695312 Z M 24.265625 -26.214844 L 33.722656 -52.03125 L 43.125 -26.214844 Z M 24.265625 -26.214844 "/></g></g></g><g fill="#0d221b" fill-opacity="1"><g transform="translate(268.80557, 327.455437)"><g><path d="M 34.222656 1 C 48.078125 1 55.632812 -11.15625 55.632812 -25.015625 C 55.632812 -38.925781 48.078125 -51.03125 34.019531 -51.03125 C 28.667969 -51.03125 23.464844 -49.28125 19.960938 -44.976562 L 19.960938 -70.695312 L 7.355469 -70.695312 L 7.355469 0 L 19.960938 0 L 19.960938 -5.003906 C 23.464844 -0.699219 29.019531 1 34.222656 1 Z M 31.167969 -10.257812 C 22.765625 -10.257812 18.863281 -16.609375 18.863281 -25.015625 C 18.863281 -33.421875 22.765625 -39.976562 31.167969 -39.976562 C 39.574219 -39.976562 43.328125 -33.320312 43.328125 -25.015625 C 43.328125 -16.710938 39.574219 -10.257812 31.167969 -10.257812 Z M 31.167969 -10.257812 "/></g></g></g><g fill="#0d221b" fill-opacity="1"><g transform="translate(322.300309, 327.455437)"><g><path d="M 28.167969 1 C 43.628906 1 53.785156 -10.957031 53.785156 -25.117188 C 53.785156 -39.222656 43.628906 -51.03125 28.167969 -51.03125 C 12.707031 -51.03125 2.550781 -39.222656 2.550781 -25.117188 C 2.550781 -10.957031 12.707031 1 28.167969 1 Z M 28.167969 -9.507812 C 18.960938 -9.507812 15.257812 -16.910156 15.257812 -25.117188 C 15.257812 -33.320312 18.960938 -40.476562 28.167969 -40.476562 C 37.421875 -40.476562 41.074219 -33.320312 41.074219 -25.117188 C 41.074219 -16.910156 37.421875 -9.507812 28.167969 -9.507812 Z M 28.167969 -9.507812 "/></g></g></g><g fill="#0d221b" fill-opacity="1"><g transform="translate(373.394039, 327.455437)"><g><path d="M 23.964844 1 C 29.917969 1 35.121094 -1.152344 38.722656 -5.855469 L 38.722656 0 L 51.132812 0 L 51.132812 -49.980469 L 38.722656 -49.980469 L 38.722656 -27.46875 C 38.722656 -13.007812 32.871094 -10.054688 27.167969 -10.054688 C 19.761719 -10.054688 18.109375 -15.058594 18.109375 -23.265625 L 18.109375 -49.980469 L 5.753906 -49.980469 L 5.753906 -23.664062 C 5.753906 -8.605469 11.355469 1 23.964844 1 Z M 23.964844 1 "/></g></g></g><g fill="#0d221b" fill-opacity="1"><g transform="translate(426.438588, 327.455437)"><g><path d="M 25.015625 1 C 28.46875 1 32.171875 0.199219 34.019531 -0.5 L 34.019531 -11.558594 C 32.371094 -10.757812 29.617188 -9.757812 27.066406 -9.757812 C 23.863281 -9.757812 21.414062 -11.15625 21.414062 -15.960938 L 21.414062 -39.773438 L 34.019531 -39.773438 L 34.019531 -49.980469 L 21.414062 -49.980469 L 21.414062 -71.09375 L 9.507812 -62.390625 L 9.507812 -49.980469 L 1.25 -49.980469 L 1.25 -39.773438 L 9.304688 -39.773438 L 9.304688 -13.808594 C 9.304688 -4.703125 15.160156 1 25.015625 1 Z M 25.015625 1 "/></g></g></g><g fill="#0d221b" fill-opacity="1"><g transform="translate(458.824441, 327.455437)"><g/></g></g><g fill="#0d221b" fill-opacity="1"><g transform="translate(478.104784, 327.455437)"><g><path d="M 7.253906 0 L 19.5625 0 L 19.5625 -27.46875 C 19.5625 -34.121094 23.464844 -39.675781 30.117188 -39.675781 C 36.371094 -39.675781 38.023438 -34.722656 38.023438 -28.667969 L 38.023438 0 L 50.429688 0 L 50.429688 -27.46875 C 50.429688 -34.121094 54.285156 -39.675781 60.886719 -39.675781 C 67.191406 -39.675781 68.941406 -34.621094 68.941406 -28.46875 L 68.941406 0 L 81.351562 0 L 81.351562 -30.019531 C 81.351562 -40.574219 75.695312 -51.03125 62.890625 -51.03125 C 56.433594 -51.03125 50.230469 -48.378906 46.328125 -42.226562 C 43.027344 -48.179688 38.324219 -51.03125 32.269531 -51.03125 C 27.566406 -51.03125 22.863281 -49.28125 19.5625 -44.777344 L 19.5625 -49.980469 L 7.253906 -49.980469 Z M 7.253906 0 "/></g></g></g><g fill="#0d221b" fill-opacity="1"><g transform="translate(559.961438, 327.455437)"><g><path d="M 28.066406 1 C 36.472656 1 43.125 -1.953125 48.582031 -8.003906 L 40.175781 -15.359375 C 36.671875 -11.457031 32.671875 -10.054688 28.167969 -10.054688 C 20.3125 -10.054688 16.710938 -14.457031 15.660156 -21.011719 L 49.980469 -21.011719 C 50.230469 -21.714844 50.429688 -23.765625 50.429688 -25.816406 C 50.429688 -36.972656 44.777344 -51.03125 27.265625 -51.03125 C 10.355469 -51.03125 2.75 -37.824219 2.75 -24.816406 C 2.75 -11.355469 10.855469 1 28.066406 1 Z M 15.660156 -29.820312 C 16.808594 -36.074219 19.960938 -40.773438 27.167969 -40.773438 C 33.519531 -40.773438 37.625 -36.972656 38.425781 -29.820312 Z M 15.660156 -29.820312 "/></g></g></g><g fill="#0d221b" fill-opacity="1"><g transform="translate(608.003874, 327.455437)"><g><path d="M 11.257812 -21.414062 L 20.511719 -21.414062 L 21.914062 -71.746094 L 9.855469 -71.746094 Z M 9.207031 0 L 22.5625 0 L 22.5625 -13.207031 L 9.207031 -13.207031 Z M 9.207031 0 "/></g></g></g></svg>