<svg xmlns="http://www.w3.org/2000/svg" xmlns:xlink="http://www.w3.org/1999/xlink" zoomAndPan="magnify" preserveAspectRatio="xMidYMid meet" version="1.0" viewBox="31.32 186.71 897 226.5"><defs><clipPath id="194eeaaf70"><path d="M 31.324219 186.710938 L 147 186.710938 L 147 302 L 31.324219 302 Z M 31.324219 186.710938 " clip-rule="nonzero"/></clipPath><clipPath id="5c337bc498"><path d="M 254 186.710938 L 370 186.710938 L 370 302 L 254 302 Z M 254 186.710938 " clip-rule="nonzero"/></clipPath><clipPath id="21ce848eef"><path d="M 478 186.710938 L 594 186.710938 L 594 302 L 478 302 Z M 478 186.710938 " clip-rule="nonzero"/></clipPath><clipPath id="e03ec30603"><path d="M 702 186.710938 L 817 186.710938 L 817 302 L 702 302 Z M 702 186.710938 " clip-rule="nonzero"/></clipPath><clipPath id="d27578a314"><path d="M 143 298 L 258 298 L 258 413.210938 L 143 413.210938 Z M 143 298 " clip-rule="nonzero"/></clipPath><clipPath id="d741d292cb"><path d="M 366 298 L 482 298 L 482 413.210938 L 366 413.210938 Z M 366 298 " clip-rule="nonzero"/></clipPath><clipPath id="ab4433d1fe"><path d="M 590 298 L 706 298 L 706 413.210938 L 590 413.210938 Z M 590 298 " clip-rule="nonzero"/></clipPath><clipPath id="25a723e603"><path d="M 813 298 L 928.324219 298 L 928.324219 413.210938 L 813 413.210938 Z M 813 298 " clip-rule="nonzero"/></clipPath></defs><path fill="#ff5500" d="M 32.902344 188.289062 L 144.683594 188.289062 L 144.683594 300.070312 L 32.902344 300.070312 Z M 32.902344 188.289062 " fill-opacity="1" fill-rule="nonzero"/><g clip-path="url(#194eeaaf70)"><path stroke-linecap="butt" transform="matrix(1.518568, 0, 0, 1.518568, 15.316875, -166.661721)" fill="none" stroke-linejoin="miter" d="M 11.580299 233.740499 L 85.189955 233.740499 L 85.189955 307.350155 L 11.580299 307.350155 Z M 11.580299 233.740499 " stroke="#231f20" stroke-width="2" stroke-opacity="1" stroke-miterlimit="10"/></g><path fill="#ff5500" d="M 256.449219 188.289062 L 368.230469 188.289062 L 368.230469 300.070312 L 256.449219 300.070312 Z M 256.449219 188.289062 " fill-opacity="1" fill-rule="nonzero"/><g clip-path="url(#5c337bc498)"><path stroke-linecap="butt" transform="matrix(1.518568, 0, 0, 1.518568, 15.316875, -166.661721)" fill="none" stroke-linejoin="miter" d="M 158.789322 233.740499 L 232.398978 233.740499 L 232.398978 307.350155 L 158.789322 307.350155 Z M 158.789322 233.740499 " stroke="#231f20" stroke-width="2" stroke-opacity="1" stroke-miterlimit="10"/></g><path fill="#ff5500" d="M 480 188.289062 L 591.78125 188.289062 L 591.78125 300.070312 L 480 300.070312 Z M 480 188.289062 " fill-opacity="1" fill-rule="nonzero"/><g clip-path="url(#21ce848eef)"><path stroke-linecap="butt" transform="matrix(1.518568, 0, 0, 1.518568, 15.316875, -166.661721)" fill="none" stroke-linejoin="miter" d="M 306.000917 233.740499 L 379.610574 233.740499 L 379.610574 307.350155 L 306.000917 307.350155 Z M 306.000917 233.740499 " stroke="#231f20" stroke-width="2" stroke-opacity="1" stroke-miterlimit="10"/></g><path fill="#ff5500" d="M 703.546875 188.289062 L 815.328125 188.289062 L 815.328125 300.070312 L 703.546875 300.070312 Z M 703.546875 188.289062 " fill-opacity="1" fill-rule="nonzero"/><g clip-path="url(#e03ec30603)"><path stroke-linecap="butt" transform="matrix(1.518568, 0, 0, 1.518568, 15.316875, -166.661721)" fill="none" stroke-linejoin="miter" d="M 453.20994 233.740499 L 526.819597 233.740499 L 526.819597 307.350155 L 453.20994 307.350155 Z M 453.20994 233.740499 " stroke="#231f20" stroke-width="2" stroke-opacity="1" stroke-miterlimit="10"/></g><path fill="#ff5500" d="M 144.667969 300.070312 L 256.449219 300.070312 L 256.449219 411.851562 L 144.667969 411.851562 Z M 144.667969 300.070312 " fill-opacity="1" fill-rule="nonzero"/><g clip-path="url(#d27578a314)"><path stroke-linecap="butt" transform="matrix(1.518568, 0, 0, 1.518568, 15.316875, -166.661721)" fill="none" stroke-linejoin="miter" d="M 85.179666 307.350155 L 158.789322 307.350155 L 158.789322 380.959811 L 85.179666 380.959811 Z M 85.179666 307.350155 " stroke="#231f20" stroke-width="2" stroke-opacity="1" stroke-miterlimit="10"/></g><path fill="#ff5500" d="M 368.21875 300.070312 L 480 300.070312 L 480 411.851562 L 368.21875 411.851562 Z M 368.21875 300.070312 " fill-opacity="1" fill-rule="nonzero"/><g clip-path="url(#d741d292cb)"><path stroke-linecap="butt" transform="matrix(1.518568, 0, 0, 1.518568, 15.316875, -166.661721)" fill="none" stroke-linejoin="miter" d="M 232.391261 307.350155 L 306.000917 307.350155 L 306.000917 380.959811 L 232.391261 380.959811 Z M 232.391261 307.350155 " stroke="#231f20" stroke-width="2" stroke-opacity="1" stroke-miterlimit="10"/></g><path fill="#ff5500" d="M 591.78125 300.070312 L 703.5625 300.070312 L 703.5625 411.851562 L 591.78125 411.851562 Z M 591.78125 300.070312 " fill-opacity="1" fill-rule="nonzero"/><g clip-path="url(#ab4433d1fe)"><path stroke-linecap="butt" transform="matrix(1.518568, 0, 0, 1.518568, 15.316875, -166.661721)" fill="none" stroke-linejoin="miter" d="M 379.610574 307.350155 L 453.22023 307.350155 L 453.22023 380.959811 L 379.610574 380.959811 Z M 379.610574 307.350155 " stroke="#231f20" stroke-width="2" stroke-opacity="1" stroke-miterlimit="10"/></g><path fill="#ff5500" d="M 815.328125 300.070312 L 927.109375 300.070312 L 927.109375 411.851562 L 815.328125 411.851562 Z M 815.328125 300.070312 " fill-opacity="1" fill-rule="nonzero"/><g clip-path="url(#25a723e603)"><path stroke-linecap="butt" transform="matrix(1.518568, 0, 0, 1.518568, 15.316875, -166.661721)" fill="none" stroke-linejoin="miter" d="M 526.819597 307.350155 L 600.429253 307.350155 L 600.429253 380.959811 L 526.819597 380.959811 Z M 526.819597 307.350155 " stroke="#231f20" stroke-width="2" stroke-opacity="1" stroke-miterlimit="10"/></g></svg>