<svg xmlns="http://www.w3.org/2000/svg" xmlns:xlink="http://www.w3.org/1999/xlink" zoomAndPan="magnify" preserveAspectRatio="xMidYMid meet" version="1.0" viewBox="11.02 202.92 937.95 194.15"><defs><g/><clipPath id="856528840d"><path d="M 12.003906 203.921875 L 948 203.921875 L 948 396.078125 L 12.003906 396.078125 Z M 12.003906 203.921875 " clip-rule="nonzero"/></clipPath><clipPath id="8f9e9413ed"><path d="M 49.503906 203.921875 L 910.496094 203.921875 C 920.441406 203.921875 929.976562 207.871094 937.011719 214.902344 C 944.042969 221.9375 947.996094 231.476562 947.996094 241.421875 L 947.996094 358.578125 C 947.996094 368.523438 944.042969 378.0625 937.011719 385.097656 C 929.976562 392.128906 920.441406 396.078125 910.496094 396.078125 L 49.503906 396.078125 C 39.558594 396.078125 30.023438 392.128906 22.988281 385.097656 C 15.957031 378.0625 12.003906 368.523438 12.003906 358.578125 L 12.003906 241.421875 C 12.003906 231.476562 15.957031 221.9375 22.988281 214.902344 C 30.023438 207.871094 39.558594 203.921875 49.503906 203.921875 Z M 49.503906 203.921875 " clip-rule="nonzero"/></clipPath><clipPath id="aa7150f7a2"><path d="M 12.023438 203.921875 L 948 203.921875 L 948 395.921875 L 12.023438 395.921875 Z M 12.023438 203.921875 " clip-rule="nonzero"/></clipPath><clipPath id="091e8879a0"><path d="M 49.519531 203.921875 L 910.476562 203.921875 C 920.421875 203.921875 929.960938 207.871094 936.992188 214.902344 C 944.027344 221.9375 947.976562 231.472656 947.976562 241.417969 L 947.976562 358.574219 C 947.976562 368.519531 944.027344 378.058594 936.992188 385.089844 C 929.960938 392.121094 920.421875 396.074219 910.476562 396.074219 L 49.519531 396.074219 C 39.574219 396.074219 30.039062 392.121094 23.003906 385.089844 C 15.972656 378.058594 12.023438 368.519531 12.023438 358.574219 L 12.023438 241.417969 C 12.023438 231.472656 15.972656 221.9375 23.003906 214.902344 C 30.039062 207.871094 39.574219 203.921875 49.519531 203.921875 Z M 49.519531 203.921875 " clip-rule="nonzero"/></clipPath><clipPath id="b60c3a95a5"><path d="M 35.800781 231.269531 L 173.257812 231.269531 L 173.257812 368.730469 L 35.800781 368.730469 Z M 35.800781 231.269531 " clip-rule="nonzero"/></clipPath><clipPath id="0ffce71b5e"><path d="M 104.53125 231.269531 C 66.570312 231.269531 35.800781 262.042969 35.800781 300 C 35.800781 337.957031 66.570312 368.730469 104.53125 368.730469 C 142.488281 368.730469 173.257812 337.957031 173.257812 300 C 173.257812 262.042969 142.488281 231.269531 104.53125 231.269531 Z M 104.53125 231.269531 " clip-rule="nonzero"/></clipPath><clipPath id="2c0d9416b6"><path d="M 783.601562 231.269531 L 921.0625 231.269531 L 921.0625 368.730469 L 783.601562 368.730469 Z M 783.601562 231.269531 " clip-rule="nonzero"/></clipPath><clipPath id="037dcb8c62"><path d="M 852.332031 231.269531 C 814.375 231.269531 783.601562 262.042969 783.601562 300 C 783.601562 337.957031 814.375 368.730469 852.332031 368.730469 C 890.289062 368.730469 921.0625 337.957031 921.0625 300 C 921.0625 262.042969 890.289062 231.269531 852.332031 231.269531 Z M 852.332031 231.269531 " clip-rule="nonzero"/></clipPath><clipPath id="9edc87242b"><path d="M 64.882812 260.355469 L 144.382812 260.355469 L 144.382812 339.855469 L 64.882812 339.855469 Z M 64.882812 260.355469 " clip-rule="nonzero"/></clipPath><clipPath id="1d4a8f78b1"><path d="M 812.6875 261.324219 L 892 261.324219 L 892 340.824219 L 812.6875 340.824219 Z M 812.6875 261.324219 " clip-rule="nonzero"/></clipPath></defs><g clip-path="url(#856528840d)"><g clip-path="url(#8f9e9413ed)"><path fill="#0d221b" d="M 12.003906 203.921875 L 948.03125 203.921875 L 948.03125 396.078125 L 12.003906 396.078125 Z M 12.003906 203.921875 " fill-opacity="1" fill-rule="nonzero"/></g></g><g clip-path="url(#aa7150f7a2)"><g clip-path="url(#091e8879a0)"><path stroke-linecap="butt" transform="matrix(0.75, 0, 0, 0.75, 12.022128, 203.920324)" fill="none" stroke-linejoin="miter" d="M 49.99654 0.00206787 L 1197.939297 0.00206787 C 1211.199714 0.00206787 1223.918465 5.267693 1233.293465 14.642693 C 1242.673674 24.022902 1247.939299 36.736444 1247.939299 49.996862 L 1247.939299 206.205202 C 1247.939299 219.465619 1242.673674 232.184369 1233.293465 241.55937 C 1223.918465 250.93437 1211.199714 256.205204 1197.939297 256.205204 L 49.99654 256.205204 C 36.736122 256.205204 24.02258 250.93437 14.642371 241.55937 C 5.267371 232.184369 0.00174572 219.465619 0.00174572 206.205202 L 0.00174572 49.996862 C 0.00174572 36.736444 5.267371 24.022902 14.642371 14.642693 C 24.02258 5.267693 36.736122 0.00206787 49.99654 0.00206787 Z M 49.99654 0.00206787 " stroke="#faf8f4" stroke-width="2" stroke-opacity="1" stroke-miterlimit="4"/></g></g><g clip-path="url(#b60c3a95a5)"><g clip-path="url(#0ffce71b5e)"><path fill="#ff5500" d="M 35.800781 231.269531 L 173.257812 231.269531 L 173.257812 368.730469 L 35.800781 368.730469 Z M 35.800781 231.269531 " fill-opacity="1" fill-rule="nonzero"/></g></g><g fill="#faf8f4" fill-opacity="1"><g transform="translate(314.077878, 318.241148)"><g><path d="M 7.046875 0 L 18.945312 0 C 34.105469 0 42.714844 -8.34375 42.714844 -23.136719 C 42.714844 -38.558594 34.269531 -46.96875 19.011719 -46.96875 L 7.046875 -46.96875 Z M 12.332031 -4.820312 L 12.332031 -42.25 L 18.878906 -42.25 C 31.277344 -42.25 37.429688 -35.632812 37.429688 -23.5 C 37.429688 -10.570312 29.085938 -4.820312 18.148438 -4.820312 Z M 12.332031 -4.820312 "/></g></g></g><g fill="#faf8f4" fill-opacity="1"><g transform="translate(357.263156, 318.241148)"><g><path d="M 13.328125 0.664062 C 18.050781 0.664062 22.570312 -1.429688 24.996094 -6.414062 L 25.097656 0 L 29.316406 0 L 29.316406 -20.375 C 29.316406 -28.453125 24.765625 -33.90625 16.320312 -33.90625 C 10.835938 -33.90625 6.78125 -31.511719 3.789062 -27.390625 L 7.414062 -24.566406 C 9.007812 -26.859375 11.867188 -29.582031 16.621094 -29.582031 C 22.636719 -29.582031 24.765625 -25.230469 24.765625 -18.980469 L 17.183594 -18.980469 C 7.746094 -18.980469 2.558594 -15.890625 2.558594 -9.242188 C 2.558594 -2.992188 7.082031 0.664062 13.328125 0.664062 Z M 13.894531 -3.523438 C 10.4375 -3.523438 7.679688 -5.152344 7.679688 -9.109375 C 7.679688 -13.527344 11.070312 -15.222656 17.652344 -15.222656 L 24.765625 -15.222656 C 24.765625 -9.871094 20.707031 -3.523438 13.894531 -3.523438 Z M 13.894531 -3.523438 "/></g></g></g><g fill="#faf8f4" fill-opacity="1"><g transform="translate(387.78642, 318.241148)"><g><path d="M 14.824219 0.664062 C 16.851562 0.664062 18.546875 0.300781 19.28125 0 L 19.28125 -4.253906 C 18.25 -3.757812 17.050781 -3.421875 15.957031 -3.421875 C 13.527344 -3.421875 11.734375 -5.117188 11.734375 -8.777344 L 11.734375 -29.152344 L 20.144531 -29.152344 L 20.144531 -33.207031 L 11.734375 -33.207031 L 11.734375 -45.339844 L 6.8125 -40.6875 L 6.8125 -33.207031 L 1.460938 -33.207031 L 1.460938 -29.152344 L 6.78125 -29.152344 L 6.78125 -8.808594 C 6.78125 -3.125 8.941406 0.664062 14.824219 0.664062 Z M 14.824219 0.664062 "/></g></g></g><g fill="#faf8f4" fill-opacity="1"><g transform="translate(406.611444, 318.241148)"><g><path d="M 13.328125 0.664062 C 18.050781 0.664062 22.570312 -1.429688 24.996094 -6.414062 L 25.097656 0 L 29.316406 0 L 29.316406 -20.375 C 29.316406 -28.453125 24.765625 -33.90625 16.320312 -33.90625 C 10.835938 -33.90625 6.78125 -31.511719 3.789062 -27.390625 L 7.414062 -24.566406 C 9.007812 -26.859375 11.867188 -29.582031 16.621094 -29.582031 C 22.636719 -29.582031 24.765625 -25.230469 24.765625 -18.980469 L 17.183594 -18.980469 C 7.746094 -18.980469 2.558594 -15.890625 2.558594 -9.242188 C 2.558594 -2.992188 7.082031 0.664062 13.328125 0.664062 Z M 13.894531 -3.523438 C 10.4375 -3.523438 7.679688 -5.152344 7.679688 -9.109375 C 7.679688 -13.527344 11.070312 -15.222656 17.652344 -15.222656 L 24.765625 -15.222656 C 24.765625 -9.871094 20.707031 -3.523438 13.894531 -3.523438 Z M 13.894531 -3.523438 "/></g></g></g><g fill="#faf8f4" fill-opacity="1"><g transform="translate(437.134707, 318.241148)"><g/></g></g><g fill="#faf8f4" fill-opacity="1"><g transform="translate(451.572884, 318.241148)"><g><path d="M 2.09375 0 L 7.84375 0 L 11.433594 -10.203125 L 32.078125 -10.203125 L 35.667969 0 L 41.316406 0 L 23.800781 -46.96875 L 19.746094 -46.96875 Z M 13.195312 -15.023438 L 21.804688 -39.222656 L 30.28125 -15.023438 Z M 13.195312 -15.023438 "/></g></g></g><g fill="#faf8f4" fill-opacity="1"><g transform="translate(491.434792, 318.241148)"><g><path d="M 5.585938 0 L 10.539062 0 L 10.539062 -17.25 C 10.539062 -25.496094 14.691406 -29.582031 19.910156 -29.582031 C 25.761719 -29.582031 27.457031 -24.265625 27.457031 -19.679688 L 27.457031 0 L 32.375 0 L 32.375 -20.175781 C 32.375 -27.488281 29.152344 -33.804688 21.242188 -33.804688 C 16.421875 -33.804688 12.730469 -31.3125 10.539062 -27.421875 L 10.539062 -33.207031 L 5.585938 -33.207031 Z M 5.585938 0 "/></g></g></g><g fill="#faf8f4" fill-opacity="1"><g transform="translate(525.08201, 318.241148)"><g><path d="M 13.328125 0.664062 C 18.050781 0.664062 22.570312 -1.429688 24.996094 -6.414062 L 25.097656 0 L 29.316406 0 L 29.316406 -20.375 C 29.316406 -28.453125 24.765625 -33.90625 16.320312 -33.90625 C 10.835938 -33.90625 6.78125 -31.511719 3.789062 -27.390625 L 7.414062 -24.566406 C 9.007812 -26.859375 11.867188 -29.582031 16.621094 -29.582031 C 22.636719 -29.582031 24.765625 -25.230469 24.765625 -18.980469 L 17.183594 -18.980469 C 7.746094 -18.980469 2.558594 -15.890625 2.558594 -9.242188 C 2.558594 -2.992188 7.082031 0.664062 13.328125 0.664062 Z M 13.894531 -3.523438 C 10.4375 -3.523438 7.679688 -5.152344 7.679688 -9.109375 C 7.679688 -13.527344 11.070312 -15.222656 17.652344 -15.222656 L 24.765625 -15.222656 C 24.765625 -9.871094 20.707031 -3.523438 13.894531 -3.523438 Z M 13.894531 -3.523438 "/></g></g></g><g fill="#faf8f4" fill-opacity="1"><g transform="translate(555.605267, 318.241148)"><g><path d="M 12.132812 -3.65625 C 10.636719 -3.65625 10.503906 -5.453125 10.503906 -5.550781 L 10.503906 -46.96875 L 5.484375 -46.96875 L 5.484375 -6.714844 C 5.484375 -2.726562 5.851562 0.664062 10.871094 0.664062 C 12.566406 0.664062 14.292969 0.332031 15.355469 0 L 15.355469 -3.988281 C 14.625 -3.855469 13.296875 -3.65625 12.132812 -3.65625 Z M 12.132812 -3.65625 "/></g></g></g><g fill="#faf8f4" fill-opacity="1"><g transform="translate(569.27907, 318.241148)"><g><path d="M 8.242188 14.292969 L 13.460938 14.292969 L 31.246094 -33.207031 L 25.828125 -33.207031 L 16.386719 -6.050781 L 6.648438 -33.207031 L 1.164062 -33.207031 L 13.925781 -0.167969 Z M 8.242188 14.292969 "/></g></g></g><g fill="#faf8f4" fill-opacity="1"><g transform="translate(598.140645, 318.241148)"><g><path d="M 14.792969 0.664062 C 20.542969 0.664062 26.195312 -2.625 26.195312 -9.472656 C 26.195312 -21.671875 8.277344 -17.652344 8.277344 -25.296875 C 8.277344 -28.023438 10.503906 -29.882812 14.09375 -29.882812 C 17.652344 -29.882812 20.078125 -28.089844 21.507812 -25.195312 L 25.164062 -27.289062 C 23.136719 -31.246094 19.378906 -33.90625 14.261719 -33.90625 C 8.609375 -33.90625 3.722656 -30.679688 3.722656 -24.699219 C 3.722656 -13.429688 21.375 -17.816406 21.375 -8.875 C 21.375 -5.285156 18.613281 -3.390625 14.859375 -3.390625 C 10.402344 -3.390625 7.746094 -6.183594 6.582031 -9.707031 L 2.394531 -7.546875 C 3.921875 -3.15625 8.542969 0.664062 14.792969 0.664062 Z M 14.792969 0.664062 "/></g></g></g><g fill="#faf8f4" fill-opacity="1"><g transform="translate(623.446221, 318.241148)"><g><path d="M 14.824219 0.664062 C 16.851562 0.664062 18.546875 0.300781 19.28125 0 L 19.28125 -4.253906 C 18.25 -3.757812 17.050781 -3.421875 15.957031 -3.421875 C 13.527344 -3.421875 11.734375 -5.117188 11.734375 -8.777344 L 11.734375 -29.152344 L 20.144531 -29.152344 L 20.144531 -33.207031 L 11.734375 -33.207031 L 11.734375 -45.339844 L 6.8125 -40.6875 L 6.8125 -33.207031 L 1.460938 -33.207031 L 1.460938 -29.152344 L 6.78125 -29.152344 L 6.78125 -8.808594 C 6.78125 -3.125 8.941406 0.664062 14.824219 0.664062 Z M 14.824219 0.664062 "/></g></g></g><g clip-path="url(#2c0d9416b6)"><g clip-path="url(#037dcb8c62)"><path fill="#ff5500" d="M 783.601562 231.269531 L 921.0625 231.269531 L 921.0625 368.730469 L 783.601562 368.730469 Z M 783.601562 231.269531 " fill-opacity="1" fill-rule="nonzero"/></g></g><g clip-path="url(#9edc87242b)"><path fill="#0d221b" d="M 143.816406 300.871094 L 140.179688 299.457031 L 141.03125 299.125 C 141.265625 299.03125 141.382812 298.859375 141.382812 298.605469 C 141.382812 298.351562 141.265625 298.179688 141.03125 298.085938 L 125.582031 292.0625 L 133.085938 274.964844 C 133.1875 274.730469 133.148438 274.523438 132.96875 274.34375 C 132.789062 274.164062 132.582031 274.125 132.351562 274.230469 L 128.691406 275.835938 L 130.296875 272.175781 C 130.398438 271.945312 130.359375 271.738281 130.179688 271.558594 C 130 271.378906 129.796875 271.339844 129.5625 271.441406 L 112.464844 278.945312 L 106.441406 263.496094 C 106.347656 263.257812 106.175781 263.140625 105.921875 263.140625 C 105.667969 263.140625 105.496094 263.257812 105.402344 263.496094 L 105.070312 264.34375 L 103.652344 260.710938 C 103.5625 260.472656 103.386719 260.355469 103.132812 260.355469 C 102.878906 260.355469 102.707031 260.472656 102.613281 260.710938 L 95.253906 279.582031 L 76.707031 271.441406 C 76.472656 271.339844 76.265625 271.378906 76.085938 271.558594 C 75.90625 271.738281 75.867188 271.941406 75.972656 272.175781 L 84.113281 290.726562 L 65.238281 298.085938 C 65.003906 298.175781 64.882812 298.351562 64.882812 298.605469 C 64.882812 298.859375 65.003906 299.03125 65.238281 299.125 L 68.875 300.542969 L 68.027344 300.875 C 67.789062 300.964844 67.671875 301.136719 67.671875 301.390625 C 67.671875 301.644531 67.789062 301.820312 68.027344 301.910156 L 83.476562 307.9375 L 75.972656 325.035156 C 75.867188 325.265625 75.90625 325.472656 76.085938 325.652344 C 76.265625 325.832031 76.472656 325.871094 76.707031 325.769531 L 80.363281 324.164062 L 78.757812 327.820312 C 78.65625 328.054688 78.695312 328.261719 78.875 328.4375 C 79.054688 328.617188 79.257812 328.65625 79.492188 328.554688 L 96.589844 321.050781 L 102.613281 336.5 C 102.707031 336.738281 102.878906 336.855469 103.132812 336.855469 C 103.386719 336.855469 103.5625 336.738281 103.652344 336.5 L 103.984375 335.652344 L 105.402344 339.289062 C 105.496094 339.523438 105.667969 339.640625 105.921875 339.640625 C 106.175781 339.640625 106.347656 339.523438 106.441406 339.289062 L 113.800781 320.414062 L 132.351562 328.554688 C 132.582031 328.65625 132.789062 328.617188 132.96875 328.4375 C 133.148438 328.261719 133.1875 328.054688 133.085938 327.820312 L 124.941406 309.269531 L 143.816406 301.910156 C 144.050781 301.820312 144.171875 301.644531 144.171875 301.390625 C 144.171875 301.136719 144.050781 300.964844 143.816406 300.871094 Z M 96.082031 316.679688 C 96.023438 316.53125 95.921875 316.429688 95.777344 316.367188 C 95.628906 316.308594 95.484375 316.308594 95.339844 316.375 L 77.566406 324.171875 L 85.367188 306.398438 C 85.429688 306.253906 85.433594 306.109375 85.371094 305.960938 C 85.3125 305.816406 85.207031 305.714844 85.058594 305.65625 L 66.976562 298.605469 L 85.058594 291.554688 C 85.207031 291.496094 85.3125 291.394531 85.371094 291.246094 C 85.433594 291.101562 85.429688 290.957031 85.367188 290.8125 L 77.566406 273.035156 L 95.339844 280.835938 C 95.484375 280.902344 95.628906 280.902344 95.777344 280.839844 C 95.921875 280.78125 96.023438 280.675781 96.082031 280.527344 L 103.132812 262.445312 L 110.183594 280.527344 C 110.242188 280.675781 110.34375 280.78125 110.492188 280.839844 C 110.636719 280.902344 110.78125 280.902344 110.925781 280.835938 L 128.699219 273.035156 L 120.902344 290.808594 C 120.839844 290.953125 120.835938 291.101562 120.898438 291.246094 C 120.957031 291.394531 121.0625 291.496094 121.207031 291.550781 L 139.292969 298.605469 L 121.207031 305.65625 C 121.0625 305.710938 120.957031 305.816406 120.898438 305.960938 C 120.835938 306.105469 120.839844 306.253906 120.902344 306.398438 L 128.703125 324.171875 L 110.929688 316.371094 C 110.785156 316.308594 110.636719 316.308594 110.492188 316.367188 C 110.347656 316.425781 110.242188 316.53125 110.1875 316.679688 L 103.132812 334.761719 Z M 96.082031 316.679688 " fill-opacity="1" fill-rule="nonzero"/></g><path fill="#faf8f4" d="M 96.082031 316.679688 C 96.023438 316.53125 95.921875 316.429688 95.777344 316.367188 C 95.628906 316.308594 95.484375 316.308594 95.339844 316.375 L 77.566406 324.171875 L 85.367188 306.398438 C 85.429688 306.253906 85.433594 306.109375 85.371094 305.960938 C 85.3125 305.816406 85.207031 305.714844 85.058594 305.65625 L 66.976562 298.605469 L 85.058594 291.554688 C 85.207031 291.496094 85.3125 291.394531 85.371094 291.246094 C 85.433594 291.101562 85.429688 290.957031 85.367188 290.8125 L 77.566406 273.035156 L 95.339844 280.835938 C 95.484375 280.902344 95.628906 280.902344 95.777344 280.839844 C 95.921875 280.78125 96.023438 280.675781 96.082031 280.527344 L 103.132812 262.445312 L 110.183594 280.527344 C 110.242188 280.675781 110.34375 280.78125 110.492188 280.839844 C 110.636719 280.902344 110.78125 280.902344 110.925781 280.835938 L 128.699219 273.035156 L 120.902344 290.808594 C 120.839844 290.953125 120.835938 291.101562 120.898438 291.246094 C 120.957031 291.394531 121.0625 291.496094 121.207031 291.550781 L 139.292969 298.605469 L 121.207031 305.65625 C 121.0625 305.710938 120.957031 305.816406 120.898438 305.960938 C 120.835938 306.105469 120.839844 306.253906 120.902344 306.398438 L 128.703125 324.171875 L 110.929688 316.371094 C 110.785156 316.308594 110.636719 316.308594 110.492188 316.367188 C 110.347656 316.425781 110.242188 316.53125 110.1875 316.679688 L 103.132812 334.761719 Z M 96.082031 316.679688 " fill-opacity="1" fill-rule="nonzero"/><g clip-path="url(#1d4a8f78b1)"><path fill="#0d221b" d="M 891.617188 301.84375 L 887.984375 300.425781 L 888.832031 300.097656 C 889.070312 300.003906 889.1875 299.832031 889.1875 299.578125 C 889.1875 299.324219 889.070312 299.148438 888.832031 299.058594 L 873.382812 293.03125 L 880.886719 275.933594 C 880.988281 275.703125 880.949219 275.496094 880.769531 275.316406 C 880.589844 275.136719 880.386719 275.097656 880.152344 275.199219 L 876.496094 276.804688 L 878.101562 273.148438 C 878.203125 272.914062 878.164062 272.710938 877.984375 272.53125 C 877.804688 272.351562 877.597656 272.3125 877.367188 272.414062 L 860.265625 279.917969 L 854.242188 264.46875 C 854.152344 264.230469 853.976562 264.113281 853.722656 264.113281 C 853.46875 264.113281 853.296875 264.230469 853.203125 264.46875 L 852.875 265.316406 L 851.457031 261.679688 C 851.363281 261.445312 851.191406 261.324219 850.9375 261.324219 C 850.683594 261.324219 850.507812 261.445312 850.417969 261.679688 L 843.058594 280.554688 L 824.507812 272.414062 C 824.273438 272.308594 824.070312 272.347656 823.890625 272.527344 C 823.710938 272.707031 823.671875 272.914062 823.773438 273.148438 L 831.914062 291.695312 L 813.039062 299.058594 C 812.804688 299.148438 812.6875 299.320312 812.6875 299.574219 C 812.6875 299.828125 812.804688 300.003906 813.039062 300.09375 L 816.675781 301.511719 L 815.828125 301.84375 C 815.589844 301.9375 815.472656 302.109375 815.472656 302.363281 C 815.472656 302.617188 815.589844 302.789062 815.828125 302.882812 L 831.277344 308.90625 L 823.773438 326.003906 C 823.671875 326.238281 823.710938 326.445312 823.890625 326.625 C 824.070312 326.804688 824.273438 326.84375 824.507812 326.738281 L 828.164062 325.132812 L 826.558594 328.792969 C 826.457031 329.023438 826.496094 329.230469 826.675781 329.410156 C 826.855469 329.589844 827.0625 329.628906 827.292969 329.527344 L 844.394531 322.023438 L 850.417969 337.472656 C 850.507812 337.707031 850.683594 337.828125 850.9375 337.828125 C 851.191406 337.828125 851.363281 337.707031 851.457031 337.472656 L 851.785156 336.625 L 853.203125 340.257812 C 853.296875 340.496094 853.46875 340.613281 853.722656 340.613281 C 853.976562 340.613281 854.152344 340.496094 854.242188 340.257812 L 861.601562 321.386719 L 880.152344 329.527344 C 880.386719 329.628906 880.589844 329.589844 880.769531 329.410156 C 880.949219 329.230469 880.988281 329.023438 880.886719 328.792969 L 872.746094 310.242188 L 891.617188 302.882812 C 891.855469 302.789062 891.972656 302.617188 891.972656 302.363281 C 891.972656 302.109375 891.855469 301.9375 891.617188 301.84375 Z M 843.886719 317.652344 C 843.828125 317.503906 843.726562 317.398438 843.578125 317.339844 C 843.433594 317.28125 843.285156 317.28125 843.140625 317.34375 L 825.367188 325.144531 L 833.167969 307.371094 C 833.230469 307.226562 833.234375 307.082031 833.171875 306.933594 C 833.113281 306.789062 833.007812 306.6875 832.863281 306.628906 L 814.777344 299.578125 L 832.863281 292.527344 C 833.007812 292.46875 833.113281 292.367188 833.171875 292.21875 C 833.234375 292.074219 833.230469 291.925781 833.167969 291.78125 L 825.367188 274.007812 L 843.140625 281.808594 C 843.285156 281.871094 843.433594 281.875 843.578125 281.8125 C 843.726562 281.753906 843.828125 281.648438 843.886719 281.5 L 850.9375 263.417969 L 857.988281 281.5 C 858.042969 281.648438 858.144531 281.753906 858.292969 281.8125 C 858.4375 281.875 858.585938 281.871094 858.730469 281.808594 L 876.503906 274.007812 L 868.703125 291.78125 C 868.640625 291.925781 868.636719 292.070312 868.699219 292.21875 C 868.757812 292.363281 868.863281 292.464844 869.011719 292.523438 L 887.09375 299.574219 L 869.011719 306.625 C 868.863281 306.683594 868.757812 306.785156 868.699219 306.933594 C 868.636719 307.078125 868.640625 307.222656 868.703125 307.371094 L 876.503906 325.140625 L 858.730469 317.34375 C 858.585938 317.28125 858.441406 317.277344 858.292969 317.339844 C 858.148438 317.398438 858.046875 317.503906 857.988281 317.648438 L 850.9375 335.734375 Z M 843.886719 317.652344 " fill-opacity="1" fill-rule="nonzero"/></g><path fill="#faf8f4" d="M 843.886719 317.652344 C 843.828125 317.503906 843.726562 317.398438 843.578125 317.339844 C 843.433594 317.28125 843.285156 317.28125 843.140625 317.34375 L 825.367188 325.144531 L 833.167969 307.371094 C 833.230469 307.226562 833.234375 307.082031 833.171875 306.933594 C 833.113281 306.789062 833.007812 306.6875 832.863281 306.628906 L 814.777344 299.578125 L 832.863281 292.527344 C 833.007812 292.46875 833.113281 292.367188 833.171875 292.21875 C 833.234375 292.074219 833.230469 291.925781 833.167969 291.78125 L 825.367188 274.007812 L 843.140625 281.808594 C 843.285156 281.871094 843.433594 281.875 843.578125 281.8125 C 843.726562 281.753906 843.828125 281.648438 843.886719 281.5 L 850.9375 263.417969 L 857.988281 281.5 C 858.042969 281.648438 858.144531 281.753906 858.292969 281.8125 C 858.4375 281.875 858.585938 281.871094 858.730469 281.808594 L 876.503906 274.007812 L 868.703125 291.78125 C 868.640625 291.925781 868.636719 292.070312 868.699219 292.21875 C 868.757812 292.363281 868.863281 292.464844 869.011719 292.523438 L 887.09375 299.574219 L 869.011719 306.625 C 868.863281 306.683594 868.757812 306.785156 868.699219 306.933594 C 868.636719 307.078125 868.640625 307.222656 868.703125 307.371094 L 876.503906 325.140625 L 858.730469 317.34375 C 858.585938 317.28125 858.441406 317.277344 858.292969 317.339844 C 858.148438 317.398438 858.046875 317.503906 857.988281 317.648438 L 850.9375 335.734375 Z M 843.886719 317.652344 " fill-opacity="1" fill-rule="nonzero"/></svg>