<svg xmlns="http://www.w3.org/2000/svg" xmlns:xlink="http://www.w3.org/1999/xlink" width="500" zoomAndPan="magnify" viewBox="0 0 375 374.999991" height="500" preserveAspectRatio="xMidYMid meet" version="1.0"><defs><filter x="0%" y="0%" width="100%" height="100%" id="88811d38cc"><feColorMatrix values="0 0 0 0 1 0 0 0 0 1 0 0 0 0 1 0 0 0 1 0" color-interpolation-filters="sRGB"/></filter><mask id="cbf277fbdf"><g filter="url(#88811d38cc)"><rect x="-37.5" width="450" fill="#000000" y="-37.499999" height="449.999989" fill-opacity="0.25"/></g></mask><clipPath id="3ab283b469"><path d="M 0 0 L 375 0 L 375 375 L 0 375 Z M 0 0 " clip-rule="nonzero"/></clipPath><clipPath id="4becd1d0c4"><path d="M 47.25 0 L 327.75 0 C 340.28125 0 352.300781 4.976562 361.160156 13.839844 C 370.023438 22.699219 375 34.71875 375 47.25 L 375 327.75 C 375 353.84375 353.84375 375 327.75 375 L 47.25 375 C 34.71875 375 22.699219 370.023438 13.839844 361.160156 C 4.976562 352.300781 0 340.28125 0 327.75 L 0 47.25 C 0 21.15625 21.15625 0 47.25 0 Z M 47.25 0 " clip-rule="nonzero"/></clipPath><clipPath id="514badcb99"><rect x="0" width="375" y="0" height="375"/></clipPath><clipPath id="56e36c68a3"><path d="M 43.453125 18.085938 L 320.988281 18.085938 L 320.988281 360.890625 L 43.453125 360.890625 Z M 43.453125 18.085938 " clip-rule="nonzero"/></clipPath><clipPath id="9b5fca0b29"><path d="M 112.011719 99 L 255.980469 99 L 255.980469 360.890625 L 112.011719 360.890625 Z M 112.011719 99 " clip-rule="nonzero"/></clipPath><clipPath id="edecd5c203"><path d="M 51 18.085938 L 320.988281 18.085938 L 320.988281 348.570312 L 51 348.570312 Z M 51 18.085938 " clip-rule="nonzero"/></clipPath><clipPath id="8ea730b328"><path d="M 43.453125 28.371094 L 312.882812 28.371094 L 312.882812 360.890625 L 43.453125 360.890625 Z M 43.453125 28.371094 " clip-rule="nonzero"/></clipPath></defs><g mask="url(#cbf277fbdf)"><g transform="matrix(1, 0, 0, 1, 0, 0)"><g clip-path="url(#514badcb99)"><g clip-path="url(#3ab283b469)"><g clip-path="url(#4becd1d0c4)"><rect x="-82.5" width="540" fill="#f05f1b" height="539.999987" y="-82.499998" fill-opacity="1"/></g></g></g></g></g><g clip-path="url(#56e36c68a3)"><path fill="#e99189" d="M 310.320312 326.964844 L 310.320312 326.984375 C 310.300781 327.003906 310.285156 327.023438 310.269531 327.042969 C 308.355469 329.71875 306.179688 331.988281 303.75 333.738281 C 293.121094 343.386719 285.90625 343.726562 285.902344 343.726562 C 273.964844 348.941406 259.199219 352.457031 253.019531 343.027344 C 252.382812 342.0625 251.855469 340.984375 251.429688 339.820312 C 249.171875 345.535156 245.65625 351.5 240.179688 356.03125 C 222.808594 356.640625 212.898438 348.726562 209.523438 345.410156 C 203.789062 346.355469 195.863281 347.421875 186.621094 348.027344 C 186.636719 348.3125 186.417969 348.554688 186.136719 348.566406 C 186.128906 348.570312 186.117188 348.570312 186.109375 348.570312 C 185.839844 348.570312 185.617188 348.359375 185.601562 348.085938 C 177.957031 348.554688 169.460938 348.695312 160.601562 348.183594 C 157.742188 351.417969 152.101562 357.585938 147.902344 360.875 C 117.234375 361.578125 105.65625 340.285156 105.65625 340.285156 L 106.523438 334.417969 C 101.332031 331.617188 96.386719 328.320312 91.816406 324.417969 L 92.113281 320.582031 C 82.53125 328.769531 71.230469 334.246094 65.675781 329.824219 C 65.207031 329.449219 64.777344 329.007812 64.394531 328.488281 C 59.644531 323.355469 43.238281 303.890625 43.453125 280.117188 C 43.710938 252.328125 60.363281 218.96875 60.363281 218.96875 C 60.363281 218.96875 60.351562 219 60.328125 219.046875 C 62.847656 213.398438 65.632812 207.964844 68.621094 203.0625 C 76.277344 190.480469 89.839844 176.722656 102.980469 166.394531 L 91.816406 159.972656 C 95.128906 142.382812 109.660156 136.007812 109.660156 136.007812 L 124.265625 148.644531 C 125.355469 147.757812 133.011719 141.984375 140.167969 147.308594 C 140.195312 147.269531 140.222656 147.230469 140.265625 147.199219 C 140.492188 147.03125 140.8125 147.078125 140.980469 147.300781 C 140.992188 147.316406 141.023438 147.367188 141.070312 147.425781 C 142.167969 147.070312 144.929688 146.410156 147.511719 147.671875 C 152.453125 146.4375 166.953125 143.191406 168.886719 147.144531 L 169.566406 139.828125 L 170.183594 133.132812 L 170.257812 132.332031 C 169.605469 132.066406 168.964844 131.78125 168.335938 131.46875 C 161.851562 128.257812 158.015625 122.851562 156.035156 113.042969 C 155.140625 113.292969 154.1875 113.40625 153.207031 113.339844 C 148.558594 113.023438 145.046875 109 145.359375 104.347656 C 145.609375 100.734375 148.105469 97.8125 151.390625 96.84375 C 148.765625 90.425781 149.316406 85.042969 150.910156 80.890625 C 147.707031 79.574219 144.28125 78.097656 140.945312 76.546875 C 133.15625 73.082031 123.394531 68.574219 121.847656 67.074219 C 119.214844 64.523438 120.726562 61.378906 124.769531 57.601562 C 128.816406 53.828125 155.84375 31.285156 162.210938 28.960938 C 172.285156 22.246094 181.179688 17.429688 184.523438 18.15625 C 193.351562 20.074219 249.765625 46.367188 249.957031 49.246094 C 250.050781 50.625 243.734375 58.40625 236.289062 66.246094 C 251.214844 79.703125 251.929688 90.085938 251.464844 94.167969 C 252.753906 94.578125 254.660156 95.597656 255.5 98.121094 C 257.742188 104.863281 256.335938 112.46875 256.335938 112.46875 C 251.554688 116.308594 243.664062 111.824219 243.664062 111.824219 C 243.664062 111.824219 245.03125 108.089844 245.6875 102.6875 C 246.515625 95.867188 248.601562 94.589844 248.601562 94.589844 L 248.984375 94.421875 C 250.203125 83.125 242.429688 73.574219 235.273438 67.3125 C 230.816406 71.941406 226.054688 76.484375 222.070312 79.640625 C 224.6875 85.132812 223.375 92.125 221.855469 96.921875 C 225.542969 98.117188 228.097656 101.691406 227.820312 105.726562 C 227.492188 110.5 223.367188 114.097656 218.601562 113.769531 C 217.71875 113.710938 216.871094 113.519531 216.082031 113.21875 C 214.320312 122.167969 211.03125 126.628906 205.417969 130.585938 C 204.414062 131.296875 203.347656 131.898438 202.226562 132.414062 L 204.308594 148.097656 C 204.34375 148.085938 219.296875 141.367188 237.121094 146.972656 C 237.121094 146.972656 258.789062 147.734375 274.851562 169.917969 C 290.910156 192.097656 314.109375 244.105469 319.210938 268.328125 C 323.296875 287.75 320.328125 312.898438 310.320312 326.964844 " fill-opacity="1" fill-rule="nonzero"/></g><g clip-path="url(#9b5fca0b29)"><path fill="#dc4d4e" d="M 150.847656 150.992188 C 150.875 150.980469 150.890625 150.960938 150.917969 150.949219 C 151.1875 150.859375 151.476562 150.996094 151.566406 151.261719 C 151.574219 151.273438 151.582031 151.304688 151.59375 151.335938 C 153 151.152344 156.964844 151.265625 158.613281 157.820312 C 158.886719 157.753906 159.160156 157.917969 159.230469 158.191406 C 159.234375 158.203125 159.238281 158.226562 159.246094 158.265625 C 160.4375 158.28125 163.378906 159.210938 164.507812 167.558594 C 164.507812 167.558594 164.507812 171.648438 163.457031 178.054688 L 164.816406 179.140625 C 166.300781 167.988281 167.597656 159.0625 168.363281 153.707031 C 168.453125 153.085938 168.539062 152.507812 168.609375 151.984375 C 168.90625 149.894531 169.082031 148.601562 169.097656 148.246094 C 169.117188 147.828125 169.042969 147.464844 168.886719 147.144531 C 166.953125 143.191406 152.453125 146.4375 147.511719 147.671875 C 148.726562 148.269531 149.902344 149.300781 150.847656 150.992188 Z M 155.550781 290.507812 C 155.550781 266.820312 157.863281 238.816406 160.578125 213.941406 L 153.703125 207.296875 C 153.171875 208.296875 152.625 209.296875 152.042969 210.300781 C 140.773438 229.691406 126.421875 270.941406 117.246094 279.546875 C 117.117188 279.664062 116.984375 279.777344 116.855469 279.894531 C 116.75 280.933594 116.648438 281.96875 116.546875 283 C 116.546875 283.007812 116.542969 283.023438 116.542969 283.035156 L 117 282.15625 L 112.070312 338.695312 C 124.863281 357.496094 147.902344 360.875 147.902344 360.875 C 152.101562 357.585938 157.742188 351.417969 160.601562 348.183594 C 161.734375 346.90625 162.433594 346.085938 162.433594 346.085938 C 162.433594 346.085938 155.550781 314.984375 155.550781 290.507812 Z M 253.574219 314.949219 C 250.832031 305.664062 248.523438 295.910156 246.589844 285.960938 L 237.886719 277.515625 C 234.398438 280.167969 230.320312 282.203125 225.652344 282.859375 L 207.113281 261.113281 L 204.113281 263.867188 C 203.980469 263.90625 203.863281 263.925781 203.742188 263.957031 C 204.347656 277.085938 205.15625 288.523438 206.03125 298.304688 C 205.988281 295.3125 205.972656 293.480469 205.972656 293.480469 C 206.660156 303.183594 211.886719 342.261719 211.886719 342.261719 C 224.480469 354.273438 238.320312 355.863281 240.007812 356.015625 C 240.03125 356.019531 240.054688 356.019531 240.074219 356.019531 C 240.09375 356.023438 240.117188 356.027344 240.128906 356.027344 C 240.160156 356.027344 240.179688 356.03125 240.179688 356.03125 C 245.65625 351.5 249.171875 345.535156 251.429688 339.820312 C 255.269531 330.101562 255.476562 321.101562 255.476562 321.101562 C 254.820312 319.078125 254.1875 317.023438 253.574219 314.949219 Z M 204.066406 153.253906 C 203.945312 155.929688 203.835938 158.578125 203.730469 161.195312 C 203.042969 178.554688 202.710938 194.628906 202.652344 209.429688 L 204.113281 210.601562 C 211.550781 209.242188 227.175781 212.613281 235.71875 219.652344 C 233.21875 199.476562 228.980469 156.277344 237.121094 146.972656 C 219.296875 141.367188 204.34375 148.085938 204.308594 148.097656 C 204.308594 148.097656 204.304688 148.101562 204.304688 148.101562 C 204.222656 149.832031 204.144531 151.546875 204.066406 153.253906 Z M 231.894531 246.910156 L 240.542969 251.097656 C 236.726562 248.929688 233.558594 247.328125 231.894531 246.910156 Z M 216.21875 252.777344 L 215.292969 253.621094 C 218.816406 250.832031 223 248.101562 226.859375 247.078125 C 221.441406 248.4375 216.21875 252.777344 216.21875 252.777344 Z M 175.972656 108.054688 C 176.003906 104.605469 173.984375 101.621094 171.058594 100.242188 C 170.589844 101.050781 169.921875 101.5625 169.1875 101.554688 C 168.238281 101.542969 167.421875 100.691406 167.003906 99.4375 C 162.507812 99.652344 158.90625 103.332031 158.863281 107.886719 C 158.816406 112.613281 162.605469 116.484375 167.332031 116.523438 C 172.058594 116.574219 175.921875 112.78125 175.972656 108.054688 Z M 200.53125 100.835938 C 200.914062 101.265625 201.382812 101.519531 201.890625 101.519531 C 202.8125 101.535156 203.621094 100.71875 204.054688 99.511719 C 204.46875 99.453125 204.894531 99.414062 205.328125 99.417969 C 210.050781 99.464844 213.847656 103.328125 213.804688 108.050781 C 213.753906 112.78125 209.890625 116.570312 205.164062 116.523438 C 200.441406 116.480469 196.648438 112.613281 196.695312 107.890625 C 196.722656 104.941406 198.242188 102.355469 200.53125 100.835938 " fill-opacity="1" fill-rule="nonzero"/></g><path fill="#cdeaec" d="M 253.019531 257.136719 L 240.542969 251.097656 L 231.894531 246.910156 C 230.351562 246.492188 228.640625 246.605469 226.859375 247.078125 C 223 248.101562 218.816406 250.832031 215.292969 253.621094 C 210.621094 257.324219 207.113281 261.113281 207.113281 261.113281 L 225.652344 282.859375 C 230.320312 282.203125 234.398438 280.167969 237.886719 277.515625 C 247.910156 269.886719 253.019531 257.136719 253.019531 257.136719 Z M 118.363281 175.246094 L 118.75 175.46875 L 119.609375 175.964844 C 119.609375 175.964844 119.808594 175.902344 120.144531 175.765625 C 120.867188 175.460938 122.246094 174.773438 123.839844 173.414062 C 126.964844 170.753906 130.910156 165.542969 132.359375 155.648438 L 131.125 154.578125 L 130.433594 153.980469 L 124.265625 148.644531 L 109.660156 136.007812 C 109.660156 136.007812 95.128906 142.382812 91.816406 159.972656 L 102.980469 166.394531 L 111.46875 171.28125 Z M 203.558594 210.707031 C 203.738281 210.667969 203.925781 210.632812 204.113281 210.601562 L 202.652344 209.429688 L 185.277344 195.519531 L 184.339844 194.769531 L 164.816406 179.140625 L 163.457031 178.054688 C 162.222656 185.574219 159.535156 196.28125 153.703125 207.296875 L 160.578125 213.941406 L 178.765625 231.511719 L 181.097656 228.554688 C 188.800781 218.613281 196.84375 212.238281 203.558594 210.707031 Z M 185.671875 186.890625 C 185.789062 186.683594 186.035156 186.574219 186.265625 186.652344 C 186.535156 186.738281 186.683594 187.027344 186.59375 187.292969 C 186.59375 187.296875 186.59375 187.308594 186.585938 187.328125 C 187.148438 187.503906 187.683594 187.492188 188.179688 187.253906 C 192.527344 185.160156 199.320312 171.195312 203.730469 161.195312 C 203.835938 158.578125 203.945312 155.929688 204.066406 153.253906 C 192.046875 156.691406 174.988281 153.433594 168.609375 151.984375 C 168.539062 152.507812 168.453125 153.085938 168.363281 153.707031 C 171.265625 161.511719 179.722656 183.144531 185.671875 186.890625 Z M 235.273438 67.3125 C 235.613281 66.957031 235.953125 66.601562 236.289062 66.246094 C 251.214844 79.703125 251.929688 90.085938 251.464844 94.167969 C 252.753906 94.578125 254.660156 95.597656 255.5 98.121094 C 257.742188 104.863281 256.335938 112.46875 256.335938 112.46875 C 251.554688 116.308594 243.664062 111.824219 243.664062 111.824219 C 243.664062 111.824219 245.03125 108.089844 245.6875 102.6875 C 246.515625 95.867188 248.601562 94.589844 248.601562 94.589844 L 248.984375 94.421875 C 250.203125 83.125 242.429688 73.574219 235.273438 67.3125 " fill-opacity="1" fill-rule="nonzero"/><g clip-path="url(#edecd5c203)"><path fill="#304850" d="M 181.449219 114.496094 C 181.253906 114.699219 181.253906 115.023438 181.460938 115.21875 C 181.542969 115.300781 183.5 117.171875 186.199219 117.171875 C 186.3125 117.171875 186.425781 117.167969 186.542969 117.164062 C 188.429688 117.050781 190.171875 116.027344 191.71875 114.113281 C 191.894531 113.894531 191.859375 113.574219 191.640625 113.394531 C 191.425781 113.21875 191.101562 113.25 190.921875 113.46875 C 189.566406 115.144531 188.074219 116.042969 186.492188 116.140625 C 184.085938 116.289062 182.191406 114.503906 182.171875 114.488281 C 181.972656 114.289062 181.644531 114.292969 181.449219 114.496094 Z M 310.320312 326.964844 C 320.328125 312.898438 323.296875 287.75 319.210938 268.328125 C 314.109375 244.105469 290.910156 192.097656 274.851562 169.917969 C 258.789062 147.734375 237.121094 146.972656 237.121094 146.972656 C 228.980469 156.277344 233.21875 199.476562 235.71875 219.652344 C 236.117188 219.976562 236.507812 220.308594 236.871094 220.652344 C 237.894531 221.613281 239.507812 223.179688 241.550781 225.175781 L 239.675781 207.28125 C 239.640625 207 239.847656 206.753906 240.128906 206.722656 C 240.398438 206.691406 240.660156 206.894531 240.6875 207.179688 L 242.628906 225.683594 C 242.648438 225.84375 242.585938 225.988281 242.480469 226.09375 C 257.753906 241.097656 293.207031 276.742188 293.207031 276.742188 L 297.609375 280.617188 C 302.582031 280.75 310.214844 283.148438 312.070312 296.117188 C 312.898438 301.933594 312.316406 307.726562 311.089844 313 C 310.820312 313.933594 305.351562 332.300781 285.902344 343.726562 C 285.90625 343.726562 293.121094 343.386719 303.75 333.738281 C 306.179688 331.988281 308.355469 329.71875 310.269531 327.042969 C 310.285156 327.023438 310.300781 327.003906 310.320312 326.984375 Z M 118.363281 175.246094 C 118.375 175.253906 118.515625 175.355469 118.75 175.46875 Z M 123.839844 173.414062 C 122.246094 174.773438 120.867188 175.460938 120.144531 175.765625 C 121.132812 175.738281 122.445312 175.226562 123.839844 173.414062 Z M 130.433594 153.980469 L 131.125 154.578125 C 130.886719 154.339844 130.65625 154.148438 130.433594 153.980469 Z M 62.246094 319.570312 C 62.246094 319.570312 66.296875 295.523438 82.214844 278.488281 C 78.601562 269.980469 79.976562 254.96875 86.464844 245.320312 C 86.464844 245.320312 109.023438 205.164062 110.363281 200.574219 C 111.703125 195.984375 108.046875 175.164062 109.574219 170.191406 L 111.46875 171.28125 L 102.980469 166.394531 C 89.839844 176.722656 76.277344 190.480469 68.621094 203.0625 C 65.632812 207.964844 62.847656 213.398438 60.328125 219.046875 C 59.402344 221.136719 39.253906 267.6875 62.246094 319.570312 Z M 153.253906 108.964844 C 153.25 108.964844 152.535156 109.066406 152.253906 108.683594 C 152.105469 108.480469 151.863281 107.796875 152.816406 105.863281 C 153.53125 104.425781 153.628906 103.15625 153.105469 102.082031 C 152.238281 100.285156 149.953125 99.785156 149.855469 99.765625 C 149.582031 99.710938 149.308594 99.882812 149.25 100.160156 C 149.195312 100.4375 149.371094 100.710938 149.644531 100.765625 C 149.664062 100.769531 151.539062 101.1875 152.1875 102.53125 C 152.5625 103.304688 152.46875 104.273438 151.902344 105.410156 C 151 107.230469 150.847656 108.503906 151.4375 109.296875 C 151.882812 109.898438 152.609375 110 153.046875 110 C 153.257812 110 153.40625 109.976562 153.421875 109.972656 C 153.703125 109.929688 153.886719 109.664062 153.839844 109.386719 C 153.796875 109.109375 153.53125 108.921875 153.253906 108.964844 Z M 169.1875 101.554688 C 169.921875 101.5625 170.589844 101.050781 171.058594 100.242188 C 171.46875 99.523438 171.730469 98.570312 171.742188 97.515625 C 171.757812 95.789062 171.105469 94.316406 170.175781 93.714844 C 170.71875 93.546875 171.132812 93.503906 171.144531 93.5 C 171.425781 93.476562 171.628906 93.222656 171.605469 92.945312 C 171.574219 92.664062 171.3125 92.457031 171.046875 92.484375 C 170.933594 92.496094 168.285156 92.769531 166.988281 94.738281 C 166.847656 94.949219 166.894531 95.226562 167.082031 95.394531 C 166.851562 95.996094 166.710938 96.707031 166.707031 97.46875 C 166.699219 98.179688 166.808594 98.851562 167.003906 99.4375 C 167.421875 100.691406 168.238281 101.542969 169.1875 101.554688 Z M 220.710938 101.578125 C 219.925781 102.476562 219.6875 103.730469 220 105.300781 C 220.417969 107.421875 220 108.019531 219.800781 108.175781 C 219.429688 108.46875 218.773438 108.183594 218.769531 108.183594 C 218.511719 108.0625 218.207031 108.175781 218.089844 108.433594 C 217.972656 108.691406 218.082031 108.992188 218.339844 109.109375 C 218.367188 109.125 218.820312 109.332031 219.363281 109.332031 C 219.710938 109.332031 220.09375 109.246094 220.433594 108.980469 C 221.210938 108.371094 221.398438 107.101562 221.003906 105.105469 C 220.757812 103.863281 220.917969 102.898438 221.480469 102.25 C 222.457031 101.125 224.378906 101.210938 224.394531 101.214844 C 224.710938 101.238281 224.917969 101.015625 224.933594 100.734375 C 224.949219 100.453125 224.734375 100.210938 224.453125 100.195312 C 224.355469 100.1875 222.027344 100.070312 220.710938 101.578125 Z M 204.054688 99.511719 C 204.253906 98.945312 204.375 98.289062 204.378906 97.589844 C 204.398438 95.914062 203.765625 94.472656 202.855469 93.890625 C 203.109375 93.832031 203.28125 93.816406 203.285156 93.8125 C 203.570312 93.789062 203.773438 93.542969 203.753906 93.261719 C 203.730469 92.980469 203.484375 92.773438 203.203125 92.792969 C 203.09375 92.804688 200.546875 93.03125 199.746094 95.152344 C 199.683594 95.316406 199.71875 95.484375 199.808594 95.613281 C 199.601562 96.183594 199.480469 96.84375 199.472656 97.546875 C 199.464844 98.914062 199.882812 100.121094 200.53125 100.835938 C 200.914062 101.265625 201.382812 101.519531 201.890625 101.519531 C 202.8125 101.535156 203.621094 100.71875 204.054688 99.511719 Z M 180.949219 92.445312 C 180.722656 92.28125 180.398438 92.328125 180.234375 92.554688 C 180.066406 92.785156 180.113281 93.101562 180.34375 93.269531 C 180.367188 93.289062 182.816406 95.125 183.007812 97.445312 C 183.097656 98.550781 182.652344 99.617188 181.6875 100.613281 C 179.457031 102.902344 179.5625 104.65625 180.046875 105.726562 C 180.703125 107.179688 182.371094 108.011719 183.664062 108.011719 C 183.714844 108.011719 183.761719 108.007812 183.808594 108.007812 C 184.089844 107.996094 184.304688 107.753906 184.292969 107.472656 C 184.277344 107.1875 184.066406 106.972656 183.757812 106.984375 C 182.957031 107.03125 181.5 106.460938 180.980469 105.300781 C 180.476562 104.1875 180.972656 102.8125 182.421875 101.324219 C 183.605469 100.105469 184.144531 98.769531 184.023438 97.355469 C 183.792969 94.566406 181.0625 92.53125 180.949219 92.445312 Z M 188.179688 187.253906 C 187.683594 187.492188 187.148438 187.503906 186.585938 187.328125 C 186.503906 187.609375 185.921875 189.773438 185.277344 195.519531 L 202.652344 209.429688 C 202.710938 194.628906 203.042969 178.554688 203.730469 161.195312 C 199.320312 171.195312 192.527344 185.160156 188.179688 187.253906 Z M 184.339844 194.769531 C 185.015625 189.007812 185.605469 187.046875 185.625 186.976562 C 185.632812 186.945312 185.65625 186.921875 185.671875 186.890625 C 179.722656 183.144531 171.265625 161.511719 168.363281 153.707031 C 167.597656 159.0625 166.300781 167.988281 164.816406 179.140625 Z M 182.339844 255.621094 C 179.351562 253.746094 178.757812 249.617188 178.644531 248.183594 C 178.636719 248.183594 178.625 248.1875 178.617188 248.1875 C 178.496094 248.1875 178.375 248.148438 178.28125 248.058594 C 178.132812 247.929688 178.085938 247.738281 178.125 247.5625 C 171.191406 245.8125 173.0625 238.753906 173.0625 238.753906 L 178.765625 231.511719 L 160.578125 213.941406 C 157.863281 238.816406 155.550781 266.820312 155.550781 290.507812 C 155.550781 314.984375 162.433594 346.085938 162.433594 346.085938 C 162.433594 346.085938 161.734375 346.90625 160.601562 348.183594 C 169.460938 348.695312 177.957031 348.554688 185.601562 348.085938 C 185.601562 348.085938 185.597656 348.085938 185.597656 348.085938 C 183.453125 308.59375 182.542969 278.480469 182.339844 255.621094 Z M 208.199219 343.980469 C 206.707031 333.996094 206.1875 308.886719 206.03125 298.304688 C 205.15625 288.523438 204.347656 277.085938 203.742188 263.957031 C 198.765625 265.257812 196.59375 262.613281 195.933594 261.511719 C 195.859375 261.550781 195.777344 261.574219 195.695312 261.574219 C 195.585938 261.574219 195.476562 261.539062 195.382812 261.464844 C 195.292969 261.394531 195.242188 261.304688 195.214844 261.203125 C 190.417969 262.488281 188.027344 258.363281 187.359375 256.9375 C 187.292969 256.964844 187.226562 256.984375 187.15625 256.984375 C 187.046875 256.984375 186.933594 256.949219 186.839844 256.875 C 186.726562 256.785156 186.664062 256.65625 186.648438 256.523438 C 185.359375 256.632812 184.273438 256.476562 183.367188 256.128906 C 183.582031 278.894531 184.488281 308.832031 186.621094 348.027344 C 195.863281 347.421875 203.789062 346.355469 209.523438 345.410156 C 208.636719 344.542969 208.199219 343.980469 208.199219 343.980469 Z M 116.542969 283.035156 C 116.542969 283.023438 116.546875 283.007812 116.546875 283 C 116.535156 283.027344 116.527344 283.058594 116.515625 283.089844 Z M 105.402344 305.359375 C 102.4375 310.425781 97.550781 315.941406 92.113281 320.582031 L 91.816406 324.417969 C 96.386719 328.320312 101.332031 331.617188 106.523438 334.417969 L 112.847656 291.628906 C 110.824219 295.792969 108.335938 300.339844 105.402344 305.359375 Z M 217.394531 48.015625 C 217.324219 50.613281 216.839844 68.179688 215.8125 71.109375 C 215.71875 71.378906 215.859375 71.671875 216.125 71.765625 C 216.183594 71.785156 216.238281 71.792969 216.296875 71.792969 C 216.507812 71.792969 216.703125 71.660156 216.777344 71.449219 C 217.9375 68.148438 218.40625 48.554688 218.425781 47.722656 C 218.429688 47.527344 218.324219 47.34375 218.152344 47.253906 C 180.734375 27.867188 154.539062 49.375 154.277344 49.597656 C 154.0625 49.777344 154.035156 50.101562 154.214844 50.316406 C 154.402344 50.535156 154.722656 50.558594 154.9375 50.378906 C 155.191406 50.164062 180.738281 29.195312 217.394531 48.015625 Z M 186.46875 77.765625 L 214.117188 72.101562 C 214.394531 72.046875 214.574219 71.777344 214.515625 71.5 C 214.457031 71.222656 214.191406 71.046875 213.910156 71.101562 L 186.316406 76.753906 C 184.027344 76.96875 167.421875 73.988281 158.957031 72.382812 C 158.675781 72.328125 158.410156 72.515625 158.359375 72.789062 C 158.308594 73.070312 158.488281 73.335938 158.765625 73.390625 C 159.742188 73.574219 181.9375 77.777344 186.117188 77.777344 C 186.253906 77.777344 186.371094 77.773438 186.46875 77.765625 Z M 151.390625 96.84375 C 148.765625 90.425781 149.316406 85.042969 150.910156 80.890625 C 147.707031 79.574219 144.28125 78.097656 140.945312 76.546875 C 146.410156 78.972656 150.910156 80.890625 150.910156 80.890625 C 151.710938 78.292969 156.699219 72.378906 156.699219 72.378906 L 153.777344 50.585938 C 148.085938 38.929688 162.214844 28.960938 162.214844 28.960938 C 162.214844 28.960938 162.210938 28.960938 162.210938 28.960938 C 172.285156 22.246094 181.179688 17.429688 184.523438 18.15625 C 193.351562 20.074219 249.765625 46.367188 249.957031 49.246094 C 250.050781 50.625 243.734375 58.40625 236.289062 66.246094 C 235.953125 66.601562 235.613281 66.957031 235.273438 67.3125 C 230.816406 71.941406 226.054688 76.484375 222.070312 79.640625 C 224.6875 85.132812 223.375 92.125 221.855469 96.921875 C 221.195312 96.707031 220.503906 96.558594 219.777344 96.507812 C 219.21875 96.472656 218.671875 96.492188 218.140625 96.558594 L 216.796875 101.554688 L 213.996094 102.917969 L 213.28125 98.832031 C 210.339844 97.378906 210.539062 91.464844 210.539062 91.464844 C 197.949219 94.148438 186.367188 82.25 186.367188 82.25 C 186.367188 86.28125 192.234375 88.585938 192.234375 88.585938 C 184.59375 89.636719 176.601562 81.921875 172.339844 76.976562 C 171.351562 79.519531 168.894531 84.835938 164.660156 88.105469 C 164.660156 88.105469 165.082031 93.304688 160.285156 94.320312 L 156.351562 100.699219 L 153.777344 98.832031 C 153.777344 98.832031 153.640625 97.941406 153.511719 96.496094 C 152.777344 96.519531 152.070312 96.644531 151.390625 96.84375 Z M 246.589844 285.960938 L 261.800781 300.726562 C 258.277344 305.222656 255.523438 310.09375 253.574219 314.949219 C 250.832031 305.664062 248.523438 295.910156 246.589844 285.960938 " fill-opacity="1" fill-rule="nonzero"/></g><g clip-path="url(#8ea730b328)"><path fill="#100f0d" d="M 214.117188 72.101562 C 214.394531 72.046875 214.574219 71.777344 214.515625 71.5 C 214.457031 71.222656 214.191406 71.046875 213.910156 71.101562 L 186.316406 76.753906 C 184.027344 76.96875 167.421875 73.988281 158.957031 72.382812 C 158.675781 72.328125 158.410156 72.515625 158.359375 72.789062 C 158.308594 73.070312 158.488281 73.335938 158.765625 73.390625 C 159.742188 73.574219 181.9375 77.777344 186.117188 77.777344 C 186.253906 77.777344 186.371094 77.773438 186.46875 77.765625 Z M 217.394531 48.015625 C 217.324219 50.613281 216.839844 68.179688 215.8125 71.109375 C 215.71875 71.378906 215.859375 71.671875 216.125 71.765625 C 216.183594 71.785156 216.238281 71.792969 216.296875 71.792969 C 216.507812 71.792969 216.703125 71.660156 216.777344 71.449219 C 217.9375 68.148438 218.40625 48.554688 218.425781 47.722656 C 218.429688 47.527344 218.324219 47.34375 218.152344 47.253906 C 180.734375 27.867188 154.539062 49.375 154.277344 49.597656 C 154.0625 49.777344 154.035156 50.101562 154.214844 50.316406 C 154.402344 50.535156 154.722656 50.558594 154.9375 50.378906 C 155.191406 50.164062 180.738281 29.195312 217.394531 48.015625 Z M 156.699219 72.378906 L 153.777344 50.585938 C 148.085938 38.929688 162.214844 28.960938 162.214844 28.960938 C 162.214844 28.960938 162.210938 28.960938 162.210938 28.960938 C 155.84375 31.285156 128.816406 53.828125 124.769531 57.601562 C 120.726562 61.378906 119.214844 64.523438 121.847656 67.074219 C 123.394531 68.574219 133.15625 73.082031 140.945312 76.546875 C 146.410156 78.972656 150.910156 80.890625 150.910156 80.890625 C 151.710938 78.292969 156.699219 72.378906 156.699219 72.378906 Z M 201.054688 134.414062 C 201.054688 134.414062 182.457031 140.90625 170.183594 133.132812 L 169.566406 139.828125 L 169.417969 141.402344 C 169.417969 141.402344 186.867188 146.011719 201.054688 134.414062 Z M 242.121094 226.25 C 242.136719 226.25 242.15625 226.25 242.171875 226.246094 C 242.296875 226.234375 242.402344 226.175781 242.480469 226.09375 C 242.585938 225.988281 242.648438 225.84375 242.628906 225.683594 L 240.6875 207.179688 C 240.660156 206.894531 240.398438 206.691406 240.128906 206.722656 C 239.847656 206.753906 239.640625 207 239.675781 207.28125 L 241.550781 225.175781 L 241.613281 225.792969 C 241.640625 226.054688 241.863281 226.25 242.121094 226.25 Z M 240.074219 356.019531 C 240.054688 356.019531 240.039062 356.019531 240.007812 356.015625 C 238.320312 355.863281 224.480469 354.273438 211.886719 342.261719 C 211.886719 342.261719 206.660156 303.183594 205.972656 293.480469 C 205.972656 293.480469 205.988281 295.3125 206.03125 298.304688 C 206.1875 308.886719 206.707031 333.996094 208.199219 343.980469 C 208.199219 343.980469 208.636719 344.542969 209.523438 345.410156 C 212.898438 348.726562 222.808594 356.640625 240.179688 356.03125 C 240.179688 356.03125 240.160156 356.027344 240.128906 356.027344 C 240.117188 356.027344 240.09375 356.023438 240.074219 356.019531 Z M 112.070312 338.695312 L 117 282.15625 L 116.542969 283.035156 L 116.515625 283.089844 C 116.527344 283.058594 116.535156 283.027344 116.546875 283 C 116.648438 281.96875 116.75 280.933594 116.855469 279.894531 C 107.621094 288.171875 91.914062 289.148438 85.125 282.859375 C 83.9375 281.761719 82.972656 280.261719 82.214844 278.488281 C 66.296875 295.523438 62.246094 319.570312 62.246094 319.570312 C 39.253906 267.6875 59.402344 221.136719 60.328125 219.046875 C 60.351562 219 60.363281 218.96875 60.363281 218.96875 C 60.363281 218.96875 43.710938 252.328125 43.453125 280.117188 C 43.238281 303.890625 59.644531 323.355469 64.394531 328.488281 C 64.777344 329.007812 65.207031 329.449219 65.675781 329.824219 C 71.230469 334.246094 82.53125 328.769531 92.113281 320.582031 C 97.550781 315.941406 102.4375 310.425781 105.402344 305.359375 C 108.335938 300.339844 110.824219 295.792969 112.847656 291.628906 L 106.523438 334.417969 L 105.65625 340.285156 C 105.65625 340.285156 117.234375 361.578125 147.902344 360.875 C 147.902344 360.875 124.863281 357.496094 112.070312 338.695312 Z M 208.152344 246.015625 C 208.324219 245.792969 208.289062 245.472656 208.066406 245.296875 C 207.84375 245.128906 207.523438 245.164062 207.347656 245.382812 L 195.292969 260.746094 C 195.191406 260.882812 195.171875 261.050781 195.214844 261.203125 C 195.242188 261.304688 195.292969 261.394531 195.382812 261.464844 C 195.476562 261.539062 195.585938 261.574219 195.695312 261.574219 C 195.777344 261.574219 195.859375 261.550781 195.933594 261.511719 C 195.996094 261.480469 196.054688 261.4375 196.101562 261.375 Z M 201.269531 239.488281 C 201.445312 239.265625 201.40625 238.941406 201.1875 238.765625 C 200.964844 238.59375 200.644531 238.628906 200.46875 238.847656 L 186.757812 256.15625 C 186.671875 256.265625 186.636719 256.394531 186.648438 256.523438 C 186.664062 256.65625 186.726562 256.785156 186.839844 256.875 C 186.933594 256.949219 187.046875 256.984375 187.15625 256.984375 C 187.226562 256.984375 187.292969 256.964844 187.359375 256.9375 C 187.433594 256.90625 187.503906 256.859375 187.558594 256.792969 Z M 193.988281 230.992188 C 194.175781 230.78125 194.152344 230.460938 193.941406 230.273438 C 193.730469 230.085938 193.40625 230.105469 193.21875 230.320312 L 178.230469 247.339844 C 178.175781 247.402344 178.144531 247.480469 178.125 247.5625 C 178.085938 247.738281 178.132812 247.929688 178.28125 248.058594 C 178.375 248.148438 178.496094 248.1875 178.617188 248.1875 C 178.625 248.1875 178.636719 248.183594 178.644531 248.183594 C 178.777344 248.175781 178.90625 248.121094 179 248.015625 Z M 158.613281 157.820312 C 158.613281 157.820312 158.609375 157.820312 158.609375 157.820312 C 158.335938 157.890625 158.171875 158.167969 158.238281 158.441406 C 158.246094 158.476562 159.140625 162.140625 158.234375 166.171875 C 158.171875 166.445312 158.347656 166.71875 158.621094 166.78125 C 158.660156 166.789062 158.699219 166.792969 158.734375 166.792969 C 158.96875 166.792969 159.179688 166.632812 159.234375 166.394531 C 160.132812 162.382812 159.378906 158.824219 159.246094 158.265625 C 159.238281 158.226562 159.234375 158.203125 159.230469 158.191406 C 159.160156 157.917969 158.886719 157.753906 158.613281 157.820312 Z M 150.917969 150.949219 C 150.890625 150.960938 150.875 150.980469 150.847656 150.992188 C 150.632812 151.109375 150.519531 151.363281 150.605469 151.601562 C 150.621094 151.652344 152.324219 156.625 150.71875 160.929688 C 150.617188 161.195312 150.753906 161.488281 151.019531 161.585938 C 151.078125 161.609375 151.136719 161.621094 151.199219 161.621094 C 151.402344 161.621094 151.597656 161.492188 151.675781 161.285156 C 153.332031 156.847656 151.808594 151.972656 151.59375 151.335938 C 151.582031 151.304688 151.574219 151.273438 151.566406 151.261719 C 151.476562 150.996094 151.1875 150.859375 150.917969 150.949219 Z M 140.160156 147.914062 C 140.195312 147.960938 143.566406 152.589844 141.929688 158.953125 C 141.859375 159.226562 142.023438 159.503906 142.300781 159.578125 C 142.339844 159.585938 142.382812 159.59375 142.425781 159.59375 C 142.65625 159.59375 142.863281 159.4375 142.921875 159.207031 C 144.554688 152.855469 141.625 148.234375 141.070312 147.425781 C 141.023438 147.367188 140.992188 147.316406 140.980469 147.300781 C 140.8125 147.078125 140.492188 147.03125 140.265625 147.199219 C 140.222656 147.230469 140.195312 147.269531 140.167969 147.308594 C 140.035156 147.484375 140.023438 147.730469 140.160156 147.914062 Z M 182.339844 255.621094 C 182.542969 278.480469 183.453125 308.59375 185.597656 348.085938 C 185.597656 348.085938 185.601562 348.085938 185.601562 348.085938 C 185.617188 348.359375 185.839844 348.570312 186.109375 348.570312 C 186.117188 348.570312 186.128906 348.570312 186.136719 348.566406 C 186.417969 348.554688 186.636719 348.3125 186.621094 348.027344 C 184.488281 308.832031 183.582031 278.894531 183.367188 256.128906 C 182.996094 255.988281 182.652344 255.820312 182.339844 255.621094 Z M 186.59375 187.292969 C 186.683594 187.027344 186.535156 186.738281 186.265625 186.652344 C 186.035156 186.574219 185.789062 186.683594 185.671875 186.890625 C 185.65625 186.921875 185.632812 186.945312 185.625 186.976562 C 185.605469 187.046875 185.015625 189.007812 184.339844 194.769531 L 185.277344 195.519531 C 185.921875 189.773438 186.503906 187.609375 186.585938 187.328125 C 186.59375 187.308594 186.59375 187.296875 186.59375 187.292969 Z M 285.902344 343.726562 C 273.964844 348.941406 259.199219 352.457031 253.019531 343.027344 C 252.382812 342.0625 251.855469 340.984375 251.429688 339.820312 C 255.269531 330.101562 255.476562 321.101562 255.476562 321.101562 C 254.820312 319.078125 254.1875 317.023438 253.574219 314.949219 C 255.523438 310.09375 258.277344 305.222656 261.800781 300.726562 L 270.847656 309.503906 C 300.234375 312.496094 300.160156 282.859375 300.160156 282.859375 L 297.609375 280.617188 C 302.582031 280.75 310.214844 283.148438 312.070312 296.117188 C 312.898438 301.933594 312.316406 307.726562 311.089844 313 C 310.820312 313.933594 305.351562 332.300781 285.902344 343.726562 " fill-opacity="1" fill-rule="nonzero"/></g></svg>