<svg xmlns="http://www.w3.org/2000/svg" xmlns:xlink="http://www.w3.org/1999/xlink" zoomAndPan="magnify" preserveAspectRatio="xMidYMid meet" version="1.0" viewBox="-96 -60 1152 720"><defs><filter x="0%" y="0%" width="100%" height="100%" id="f2c6c81dc7"><feColorMatrix values="0 0 0 0 1 0 0 0 0 1 0 0 0 0 1 0 0 0 1 0" color-interpolation-filters="sRGB"/></filter><g/><mask id="6e7315a1a8"><g filter="url(#f2c6c81dc7)"><rect x="-96" width="1152" fill="#000000" y="-60" height="719.999999" fill-opacity="0.67"/></g></mask><clipPath id="38375229bc"><path d="M 3 0.640625 L 946.890625 0.640625 L 946.890625 149 L 3 149 Z M 3 0.640625 " clip-rule="nonzero"/></clipPath><clipPath id="09e366604d"><path d="M 330.792969 43.539062 C 325.839844 41.355469 313.484375 42.300781 304.726562 41.59375 C 304.464844 42.0625 305.199219 42.152344 305.9375 42.210938 C 306.496094 43.65625 299.832031 40.414062 300.925781 43.15625 C 296.324219 43.332031 288.539062 41.976562 285.976562 43.183594 C 290.957031 43.363281 295.941406 43.539062 300.894531 43.714844 C 305.199219 42.773438 306.644531 44.097656 310.859375 43.507812 C 311.511719 43.421875 307.707031 42.417969 307.144531 42.800781 C 309.417969 41.210938 315.636719 43.15625 323.332031 42.742188 C 323.511719 43.980469 318.910156 42.890625 317.113281 43.15625 C 315.960938 44.71875 326.664062 43.15625 330.792969 43.539062 Z M 295.144531 31.007812 C 292.816406 29.796875 305.113281 31.007812 308.828125 30.917969 C 308.914062 30.566406 309.035156 30.242188 310.09375 30.386719 C 309.503906 32.804688 299.65625 30.566406 295.144531 31.007812 Z M 304.847656 38.203125 C 311.039062 38.761719 314.164062 37.023438 317.257812 39.203125 C 313.484375 38.703125 306.527344 39.558594 304.847656 38.203125 Z M 259.96875 40.472656 C 262.417969 40.058594 274.625 38.910156 281.109375 40.738281 C 273.679688 41.445312 268.226562 42.59375 259.96875 40.472656 Z M 549.8125 36.402344 C 549.78125 37.167969 550.429688 37.640625 551.109375 38.054688 C 547.214844 38.023438 541.496094 34.515625 536.277344 36.964844 C 537.339844 36.460938 540.140625 37.347656 539.992188 37.375 C 536.101562 37.820312 531.085938 37.964844 527.253906 38.261719 C 523.421875 38.527344 520.765625 39.027344 521.59375 40.296875 C 518.410156 38.734375 512.039062 39.261719 509.210938 38.910156 C 511.390625 38.585938 508.648438 38.320312 507.941406 37.820312 C 516.34375 37.996094 525.101562 38.023438 530.144531 37.230469 C 530.113281 36.460938 527.960938 36.785156 527.667969 36.195312 C 537.988281 35.195312 574.222656 36.992188 549.8125 36.402344 Z M 485.738281 38.9375 C 479.398438 39.292969 458.199219 38.910156 474.621094 38.496094 C 478.074219 37.699219 483.4375 38.527344 486.949219 36.640625 C 491.578125 37.996094 503.136719 35.960938 504.253906 39.027344 C 500.304688 37.820312 479.78125 41.355469 485.738281 38.9375 Z M 346.980469 42.832031 C 352.582031 42.683594 356.210938 42.0625 359.394531 43.714844 C 355.648438 43.273438 348.691406 44.15625 346.980469 42.832031 Z M 427.652344 34.191406 C 431.808594 34.574219 436.675781 34.632812 438.769531 35.929688 C 433.3125 36.167969 430.101562 35.339844 427.652344 34.191406 Z M 212.46875 28.292969 C 213.117188 27.203125 218.542969 27.261719 223.671875 27.644531 C 228.832031 28 233.726562 28.679688 233.285156 28.914062 C 226.238281 28.738281 217.71875 27.644531 212.46875 28.292969 Z M 381.863281 36.078125 C 388.171875 35.460938 397.015625 36.078125 402.914062 35.253906 C 399.640625 36.964844 386.816406 37.109375 381.863281 36.078125 Z M 167.238281 32.570312 C 161.605469 32.128906 156.300781 31.449219 150.195312 29.503906 C 162.816406 31.890625 177.585938 31.421875 186.375 33.925781 C 178.824219 33.160156 172.839844 33.042969 167.238281 32.570312 Z M 111.453125 20.1875 C 112.042969 20.453125 112.632812 20.71875 113.191406 20.953125 C 112.367188 20.777344 111.421875 20.628906 111.453125 20.1875 Z M 113.75 21.070312 C 113.664062 21.070312 113.574219 21.070312 113.457031 21.042969 C 113.367188 21.011719 113.28125 20.980469 113.222656 20.921875 C 113.398438 20.980469 113.574219 21.011719 113.75 21.070312 Z M 202.503906 30.507812 C 200.882812 28.882812 185.34375 29.738281 189.261719 27.851562 C 189.617188 28.882812 205.597656 28.53125 202.503906 30.507812 Z M 138.753906 22.839844 C 142.765625 23.398438 146.390625 23.988281 148.191406 25.289062 C 140.613281 24.167969 132.121094 23.164062 126.960938 21.101562 C 130.382812 21.867188 134.773438 22.28125 138.753906 22.839844 Z M 98.625 17.679688 C 102.132812 18.59375 108.796875 18.566406 110.273438 20.007812 C 106.734375 19.214844 100.042969 19.183594 98.625 17.679688 Z M 79.992188 16.382812 C 69.316406 14.140625 58.703125 11.546875 46.289062 9.453125 C 49.386719 8.953125 53.367188 9.160156 57.757812 9.71875 C 62.183594 10.277344 67.136719 11.046875 72.089844 11.929688 C 57.816406 7.980469 42.101562 7.714844 27.152344 4.234375 C 24.851562 3.4375 27.476562 1.726562 25.648438 0.875 C 19.722656 0.402344 18.128906 3.792969 11.820312 3.027344 C 12.910156 4.882812 17.746094 6.035156 20.222656 7.65625 C 17.6875 5.503906 21.523438 5.914062 23.230469 5.53125 C 25.679688 6.121094 26.355469 7.035156 26.976562 7.949219 C 26.089844 6.210938 31.515625 6.949219 37.058594 7.859375 C 40.039062 11.3125 33.050781 10.277344 31.015625 12.816406 C 32.84375 14.171875 36.882812 15.054688 40.363281 16.058594 C 43.84375 17.0625 46.789062 18.0625 46.320312 19.949219 C 49.207031 20.128906 52.570312 20.71875 55.929688 21.277344 C 59.261719 21.808594 62.59375 22.21875 65.308594 22.191406 C 63.597656 20.128906 58.996094 21.335938 55.988281 20.332031 C 61.003906 19.300781 67.164062 19.125 74.0625 19.683594 C 77.542969 19.890625 81.199219 20.246094 85.003906 20.71875 C 86.890625 20.953125 88.835938 21.21875 90.78125 21.511719 C 92.757812 21.777344 94.761719 22.074219 96.796875 22.339844 C 112.957031 24.84375 130.765625 27.96875 146.570312 29.710938 C 131.855469 26.230469 123.128906 25.140625 113.488281 21.070312 C 101.160156 20.511719 90.578125 18.59375 79.992188 16.382812 Z M 58.730469 18.59375 C 55.871094 18.386719 51.214844 20.039062 48.085938 17.445312 C 51.359375 17.976562 57.199219 17.238281 58.730469 18.59375 Z M 122.390625 19.390625 C 117.9375 18.566406 110.066406 17.148438 103.578125 16.738281 C 106.46875 15.085938 124.425781 18.917969 122.390625 19.390625 Z M 175.90625 27.351562 C 179.121094 27.617188 182.363281 27.882812 185.578125 28.117188 C 186.609375 30.890625 176.496094 27.292969 175.757812 29.03125 C 177.765625 29.269531 186.757812 29.59375 182.984375 30.183594 C 173.578125 29.472656 151.199219 27.617188 151.699219 26.761719 C 153.824219 26.671875 158.65625 28.175781 158.953125 26.9375 C 156.683594 25.582031 152.347656 24.902344 149.605469 23.695312 C 153.378906 21.925781 156.710938 26.671875 160.398438 24.785156 C 161.398438 23.339844 154.675781 24.667969 155.710938 23.195312 C 161.195312 23.785156 166.679688 24.3125 171.925781 24.992188 C 177.175781 25.613281 182.246094 26.261719 186.933594 27.085938 C 183.515625 27.351562 178.382812 26.585938 175.90625 27.351562 Z M 67.339844 5.769531 C 65.453125 5.03125 63.507812 4.53125 61.53125 4.175781 C 59.585938 3.792969 57.699219 3.46875 55.929688 3.203125 C 52.421875 2.671875 49.472656 2.230469 48.175781 1.136719 C 55.371094 2.050781 60.441406 1.464844 66.988281 1.640625 C 68.019531 3.4375 68.992188 4.46875 67.339844 5.769531 Z M 258.582031 43.273438 C 262.949219 43.363281 266.542969 43.746094 268.492188 44.835938 C 264.128906 44.746094 260.53125 44.335938 258.582031 43.273438 Z M 713.070312 114.65625 C 721.148438 113.683594 729.699219 112.417969 734.859375 113.183594 C 727.695312 113.597656 719.117188 114.863281 713.070312 114.65625 Z M 759.1875 56.484375 C 754.941406 56.335938 750.8125 56.128906 747.6875 55.273438 C 751.167969 55.539062 762.8125 53.710938 761.484375 55.007812 C 759.65625 55.363281 756.886719 55.449219 756.621094 56.277344 C 758.359375 55.980469 761.398438 55.714844 759.1875 56.484375 Z M 790.824219 88.652344 C 798.695312 86.882812 804.710938 87.148438 793.417969 88.796875 C 787.90625 89.449219 779.296875 91.6875 775.699219 90.921875 C 778.972656 91.214844 779.296875 88.121094 780.652344 89.625 C 779.886719 89.773438 779.175781 89.917969 779.472656 90.363281 C 781.949219 88.238281 785.988281 89.152344 790.824219 88.652344 Z M 10.109375 90.921875 C 9.667969 91.863281 5.6875 90.214844 4.714844 90.746094 C 19.105469 96.199219 22.375 105.28125 17.628906 110.914062 C 25.945312 112.503906 28.507812 114.953125 31.164062 117.515625 C 33.816406 120.054688 36.558594 122.617188 45.226562 123.828125 C 48.351562 124.59375 43.457031 125.035156 42.25 124.976562 C 48.675781 125.949219 56.226562 127.101562 64.394531 128.367188 C 72.53125 129.664062 81.257812 130.785156 90.074219 132.023438 C 107.707031 134.265625 125.78125 136.269531 140.289062 137.214844 C 142.589844 136.300781 140.230469 136.476562 140.523438 134.941406 C 188.554688 138.746094 235.527344 141.929688 281.613281 144.585938 C 327.726562 147.355469 373.902344 149.363281 419.839844 148.566406 C 432.3125 148.328125 444.429688 147.945312 456.933594 147.386719 C 513.191406 145.234375 571.097656 142.460938 626.058594 136.417969 C 631.78125 135.769531 639.683594 134.972656 647.644531 134.324219 C 655.605469 133.675781 663.683594 133.175781 669.699219 132.851562 C 671.203125 132.613281 670.699219 131.699219 670.820312 131.023438 C 674.386719 131.816406 682.050781 130.253906 687.566406 129.960938 C 688.125 129.015625 675.152344 130.609375 671.996094 129.785156 C 675.269531 128.367188 682.4375 129.28125 691.222656 127.894531 C 688.65625 127.160156 684.441406 127.367188 680.8125 127.21875 C 687.949219 125.300781 693.847656 124.859375 700.273438 124.535156 C 706.703125 124.238281 713.691406 123.738281 723.007812 122.085938 C 725.777344 122.027344 725.335938 120.996094 725.367188 120.082031 C 734.59375 118.992188 742.113281 119.109375 752.285156 117.3125 C 745.886719 116.160156 736.363281 116.542969 725.808594 117.695312 C 715.253906 118.816406 703.695312 120.644531 693.140625 121.410156 C 697.03125 120.523438 701.367188 119.875 705.933594 119.167969 C 710.503906 118.429688 715.339844 117.78125 720.234375 117.132812 C 730.023438 115.835938 740.136719 114.746094 749.101562 113.152344 C 739.695312 113.269531 730.144531 114.007812 721.179688 115.128906 C 712.214844 116.21875 703.84375 117.722656 696.734375 118.785156 C 695.261719 117.191406 699.476562 117.488281 701.71875 117.164062 C 693.699219 117.398438 671.910156 120.230469 666.042969 121.261719 C 664.566406 120.671875 662.328125 120.289062 659.9375 119.992188 C 657.550781 119.699219 655.042969 119.523438 653.039062 119.523438 C 648.644531 122.207031 630.511719 122.292969 618.71875 123.914062 C 622.726562 121.644531 632.25 121.351562 640.273438 120.523438 C 640.625 120.113281 637.085938 119.90625 636.410156 120.257812 C 640.597656 118.136719 651.800781 117.371094 663.683594 116.484375 C 675.535156 115.484375 688.066406 114.597656 694.820312 112.710938 L 703.105469 111.886719 L 711.359375 110.914062 C 720.945312 109.820312 712.511719 109.761719 707.46875 110.792969 C 696.292969 111.855469 687.980469 113.152344 679.488281 113.65625 C 684.5 113.035156 691.488281 111.648438 698.59375 110.234375 C 702.160156 109.554688 705.730469 108.730469 709.121094 107.992188 C 712.511719 107.257812 715.726562 106.578125 718.496094 106.046875 C 719.824219 105.8125 738.339844 104.042969 729.847656 104.101562 C 724.777344 104.070312 719.261719 104.984375 713.632812 105.871094 C 708 106.753906 702.28125 107.667969 696.824219 107.375 C 701.160156 106.636719 706.96875 103.421875 711.921875 104.542969 C 716.785156 102.6875 723.035156 101.269531 730.113281 100.089844 C 737.160156 98.882812 745.03125 98.085938 753.082031 96.964844 C 761.132812 95.90625 769.359375 94.929688 777.203125 93.8125 C 781.125 93.25 784.925781 92.691406 788.554688 92.011719 C 792.179688 91.277344 795.601562 90.507812 798.785156 89.683594 C 801.144531 89.152344 811.285156 87.945312 807.511719 87.621094 C 787.550781 91.835938 766.234375 94.695312 744.53125 97.734375 C 747.863281 96.023438 754.378906 95.136719 760.808594 94.253906 C 760.71875 92.867188 747.125 94.429688 756.710938 92.542969 C 753.878906 92.632812 750.457031 92.898438 746.597656 93.28125 C 742.734375 93.664062 738.429688 93.988281 733.945312 94.488281 C 724.953125 95.433594 715.105469 96.640625 706.113281 97.792969 C 710.859375 96.257812 717.640625 94.785156 725.367188 93.429688 C 729.230469 92.75 733.296875 92.101562 737.484375 91.453125 C 739.578125 91.128906 741.671875 90.832031 743.792969 90.507812 C 745.886719 90.15625 748.011719 89.800781 750.105469 89.476562 C 766.882812 86.675781 782.773438 84.257812 788.613281 82.195312 C 793.980469 81.515625 799.757812 80.570312 803.828125 80.777344 C 808.25 78.566406 798.875 80.394531 796.132812 80.925781 C 802 78.066406 801.085938 78.863281 808.367188 77.121094 C 805.273438 75.414062 796.632812 80.128906 788.347656 80.511719 C 800.582031 79.835938 786.519531 82.519531 783.246094 80.71875 C 784.78125 80.246094 790.234375 78.625 795.570312 77.566406 C 795.21875 76.355469 790.234375 78.214844 787.992188 78.273438 C 796.660156 74.558594 818.039062 72.109375 825.054688 69.691406 C 827.679688 69.632812 834.785156 67.453125 828.683594 68.484375 C 817.863281 70.195312 799.582031 75.351562 794.921875 73.644531 C 800.199219 72.050781 805.980469 70.519531 812.113281 69.042969 C 815.179688 68.304688 818.304688 67.570312 821.519531 66.890625 C 824.703125 66.183594 827.976562 65.503906 831.21875 64.738281 C 844.28125 61.730469 857.84375 59.078125 870.199219 56.867188 C 877.097656 55.773438 879.691406 53.828125 871.320312 56.039062 C 869.34375 56.277344 872.175781 54.800781 869.84375 55.214844 C 855.601562 57.191406 842.6875 59.84375 828.976562 62.910156 C 822.109375 64.355469 815 65.742188 807.425781 67.214844 C 799.847656 68.660156 791.855469 70.222656 783.070312 71.578125 C 785.664062 69.664062 796.398438 69.722656 799.050781 67.777344 C 797.015625 67.804688 790.382812 68.71875 782.890625 69.808594 C 775.402344 70.8125 767.058594 72.167969 761.664062 73.523438 C 764.550781 72.140625 759.453125 73.320312 752.730469 74.675781 C 749.367188 75.351562 745.59375 76.089844 742.230469 76.53125 C 738.871094 76.917969 735.894531 77.09375 734.125 76.710938 C 737.160156 76.089844 740.609375 75.472656 744.296875 74.675781 C 747.980469 73.878906 751.960938 73.082031 756.089844 72.375 C 764.316406 70.929688 773.101562 69.75 781.449219 69.515625 C 792.710938 65.886719 807.335938 61.761719 823.816406 58.132812 C 832.042969 56.1875 840.714844 54.152344 849.648438 52.355469 C 858.582031 50.527344 867.839844 48.964844 877.070312 47.136719 C 876.746094 46.722656 875.710938 46.839844 875.59375 46.28125 C 881.757812 44.953125 903.722656 39.648438 890.042969 41.886719 C 870.671875 45.574219 817.066406 58.191406 791.621094 61.496094 C 792.003906 62.054688 794.125 61.464844 794.273438 62.203125 C 787.640625 63.914062 785.871094 62.527344 780.472656 63.292969 C 777.320312 64.382812 785.488281 63.324219 786.84375 63.441406 C 779.738281 66.921875 770.125 65.417969 764.316406 65.625 C 757.210938 65.800781 747.246094 68.039062 738.046875 69.367188 C 728.84375 70.664062 720.472656 71.371094 716.699219 69.042969 C 712.246094 73.40625 707.882812 68.925781 699.273438 71.136719 C 698.859375 72.996094 705.019531 70.871094 705.671875 72.082031 C 706.054688 73.644531 699.242188 72.019531 703.253906 72.964844 C 693.257812 72.199219 682.847656 73.347656 671.820312 74.851562 C 666.308594 75.558594 660.675781 76.414062 654.835938 76.917969 C 649.027344 77.386719 643.042969 77.652344 636.878906 77.445312 C 643.339844 76.03125 651.710938 75.175781 660.5 74.054688 C 669.285156 72.90625 678.457031 71.726562 686.535156 70.105469 C 685.855469 68.894531 680.371094 70.488281 677.746094 70.398438 C 682.257812 68.660156 688.921875 67.628906 696.234375 66.863281 C 703.546875 66.007812 711.507812 65.210938 718.613281 64.207031 C 721.089844 63.914062 723.566406 63.617188 726.074219 63.324219 C 729.140625 63.027344 728.109375 62.378906 726.015625 62.761719 C 721.886719 63.265625 717.730469 63.765625 713.601562 64.265625 C 709.828125 63.824219 700.980469 65.859375 694.847656 65.296875 C 692.046875 65.269531 693.199219 66.539062 691.25 66.800781 C 685.914062 66.683594 679.339844 67.304688 672.527344 68.070312 C 675.417969 66.125 683.46875 65.949219 689.835938 65.210938 C 690.160156 62.820312 687.210938 65.710938 683.554688 65.269531 C 682.082031 63.5 687.332031 64 689.660156 63.53125 C 683.941406 62.558594 677.835938 65.003906 672.203125 64.679688 C 682.113281 61.289062 697.855469 61.878906 709.445312 60.757812 C 706.996094 61.671875 702.929688 62.320312 699.359375 62.734375 C 695.792969 63.117188 692.695312 63.234375 692.164062 63.292969 C 694.113281 63.734375 696.707031 63.882812 699.65625 63.707031 C 702.605469 63.53125 705.933594 63.117188 709.355469 62.644531 C 716.226562 61.671875 723.597656 60.433594 729.464844 60.078125 C 728.050781 58.929688 723.625 59.609375 719.410156 60.140625 C 719.792969 58.8125 725.484375 59.164062 728.019531 58.515625 C 722.742188 57.75 716.195312 58.3125 708.972656 59.226562 C 705.347656 59.695312 701.570312 60.199219 697.679688 60.699219 C 693.789062 61.113281 689.75 61.464844 685.707031 61.644531 C 697.972656 58.488281 709.855469 59.695312 718.996094 56.746094 C 723.097656 56.453125 711.300781 56.511719 706.585938 57.691406 C 706.023438 56.777344 707.4375 56.511719 708.914062 56.246094 C 706.082031 56.160156 702.691406 56.363281 698.949219 56.746094 C 695.171875 57.101562 691.046875 57.484375 686.742188 58.015625 C 678.132812 58.988281 668.871094 60.199219 660.585938 60.730469 C 668.578125 57.25 685.472656 56.894531 698.800781 55.214844 C 715.074219 53.476562 706.347656 53.328125 695.027344 55.039062 C 702.988281 53.386719 711.035156 52.089844 719.054688 51 C 727.078125 49.847656 735.097656 48.964844 742.910156 47.519531 C 739.046875 45.601562 729.996094 47.695312 719.292969 48.726562 C 721.414062 47.222656 726.398438 46.664062 731.46875 46.105469 C 722.949219 46.308594 711.597656 47.8125 699.742188 49.464844 C 687.859375 50.96875 675.417969 52.382812 664.863281 52.855469 C 677.867188 51.234375 689.511719 48.136719 699.332031 48.816406 C 700.453125 46.191406 706.140625 48.847656 702.78125 46.105469 C 710.121094 45.632812 718.140625 45.101562 726.457031 44.570312 C 730.613281 44.304688 734.832031 44.039062 739.078125 43.714844 C 743.292969 43.300781 747.539062 42.890625 751.753906 42.417969 C 760.1875 41.503906 768.472656 40.414062 776.199219 39.117188 C 783.925781 37.820312 791.058594 35.960938 797.222656 34.015625 C 803.503906 32.480469 787.816406 34.457031 787.316406 34.546875 C 780.179688 35.695312 772.101562 36.578125 763.550781 37.640625 C 755 38.703125 745.917969 39.824219 736.6875 41.003906 C 727.429688 41.976562 717.996094 43.007812 708.707031 44.097656 C 704.078125 44.660156 699.476562 45.191406 694.996094 45.71875 C 690.484375 46.222656 686.0625 46.695312 681.757812 47.164062 C 685.355469 45.457031 694.464844 45.808594 700.15625 44.6875 C 701.101562 43.980469 698.417969 44.277344 694.96875 44.660156 C 691.546875 45.042969 687.359375 45.574219 685.324219 45.660156 C 689.394531 44.542969 693.667969 43.714844 698.121094 42.800781 C 702.574219 41.917969 707.203125 41.121094 712.007812 40.355469 C 716.816406 39.617188 721.769531 38.878906 726.871094 38.082031 C 731.972656 37.289062 737.21875 36.550781 742.554688 35.402344 C 742.46875 34.546875 735.214844 35.636719 741.171875 34.457031 C 733.296875 34.308594 726.222656 34.753906 718.671875 35.605469 C 711.125 36.402344 703.074219 37.492188 693.199219 37.996094 C 696.382812 36.402344 704.960938 36.402344 710.242188 35.402344 C 721.328125 33.839844 707.175781 34.898438 702.839844 35.726562 C 694.113281 37.023438 685.796875 37.523438 675.714844 38.378906 C 665.628906 39.144531 653.777344 40.234375 637.792969 41.414062 C 638.207031 40.089844 643.839844 40.707031 646.34375 40.175781 C 630.421875 41.179688 612.347656 39.234375 594.511719 41.03125 C 594.714844 43.480469 602 42.125 606.921875 42.003906 C 595.128906 43.363281 580.238281 44.601562 566.175781 44.628906 C 552.082031 44.542969 538.8125 43.449219 530.292969 40.707031 C 518.761719 41.414062 513.160156 41.148438 500.660156 41.503906 C 497.503906 41.5625 499.15625 41.976562 499.449219 42.683594 C 484.707031 41.976562 467.339844 42.507812 450.269531 43.363281 C 433.195312 44.128906 416.390625 44.6875 402.886719 43.890625 C 415.0625 42.625 423.878906 43.332031 436.351562 42.269531 C 435.113281 41.328125 430.628906 41.859375 430.160156 40.53125 C 421.875 42.652344 409.164062 42.832031 396.339844 42.742188 C 383.511719 42.625 370.597656 42.476562 361.929688 44.394531 C 374.019531 43.390625 381.921875 43.628906 401.675781 43.863281 C 402.117188 44.835938 400.703125 44.925781 399.167969 44.953125 C 409.636719 46.605469 421.136719 44.128906 432.664062 45.660156 C 426.828125 47.34375 420.222656 47.785156 413.410156 47.84375 C 406.601562 47.902344 399.613281 47.609375 392.949219 47.726562 C 375.257812 48.109375 359.1875 48.667969 339.460938 48.402344 C 342.085938 47.578125 346.039062 47.402344 350.695312 47.546875 C 337.957031 46.074219 313.277344 48.847656 299.6875 45.484375 C 294.820312 47.019531 284.765625 46.78125 275.035156 46.28125 C 265.304688 45.71875 255.929688 44.925781 252.363281 45.335938 C 250.945312 44.421875 247.230469 44.421875 247.527344 42.832031 C 237.058594 43.300781 219.191406 42.417969 210.582031 40.234375 C 216.921875 39.707031 232.429688 40.175781 245.136719 41.003906 C 233.640625 37.820312 216.035156 37.878906 198.609375 35.460938 C 198.933594 36.253906 201.648438 36.136719 203.445312 36.375 C 181.273438 35.785156 156.0625 35.164062 136.75 30.976562 C 136.574219 29.414062 141.230469 33.042969 140.464844 30.269531 C 134.273438 30.003906 131.886719 28.414062 126.195312 27.96875 C 126.253906 29.03125 130.203125 28.796875 130.824219 29.679688 C 122.480469 28.855469 114.726562 28.058594 107.175781 27.558594 C 103.433594 27.261719 99.746094 26.96875 96.121094 26.671875 C 92.492188 26.40625 88.894531 26.140625 85.328125 25.789062 C 81.761719 25.433594 78.222656 25.082031 74.625 24.757812 C 71.058594 24.375 67.519531 23.84375 63.890625 23.339844 C 56.667969 22.367188 49.386719 20.835938 41.691406 19.066406 C 36.882812 20.1875 27.773438 17.886719 22.289062 18.386719 C 26.121094 19.890625 21.785156 19.949219 26.886719 19.566406 C 28.539062 22.425781 24.972656 24.285156 21.726562 26.527344 C 18.542969 28.738281 15.625 31.449219 18.839844 36.34375 C 14.386719 36.550781 16.300781 38.527344 12.792969 40 C 20.933594 42.125 14.769531 46.722656 20.667969 49.113281 C 20.078125 49.640625 18.335938 49.257812 16.804688 49.023438 C 15.269531 48.757812 13.914062 48.640625 14.089844 49.789062 C 16.507812 50.9375 13.679688 53.269531 14.945312 56.511719 C 13.824219 57.398438 11.320312 57.101562 8.429688 56.511719 C 8.460938 58.605469 13.765625 59.933594 16.273438 61.523438 C 8.636719 61.230469 13.621094 66.066406 5.777344 66.417969 C 7.8125 71.726562 5.15625 74.851562 3.832031 78.15625 C 3.152344 79.804688 2.828125 81.515625 3.59375 83.578125 C 4.359375 85.4375 6.25 87.914062 10.109375 90.921875 Z M 661.207031 67.921875 C 661.617188 66.890625 659.230469 66.65625 661.058594 66.210938 C 662.917969 67.539062 673.855469 64.769531 673.589844 66.125 C 671.320312 67.363281 665.421875 67.363281 661.207031 67.921875 Z M 657.492188 68.277344 C 660.054688 68.628906 671.320312 67.007812 667.605469 69.015625 C 665.777344 67.863281 658.226562 70.046875 657.492188 68.277344 Z M 696.558594 81.015625 C 704.875 80.542969 715.636719 78.183594 720.324219 78.214844 C 720.679688 78.890625 722.417969 79.128906 719.203125 79.480469 C 713.691406 80.601562 710.09375 80.808594 706.378906 80.984375 C 704.519531 81.074219 702.632812 81.132812 700.480469 81.28125 C 698.296875 81.398438 695.851562 81.574219 692.84375 81.929688 C 686.710938 82.371094 693.964844 80.957031 696.558594 81.015625 Z M 498.269531 47.164062 C 504.316406 46.515625 510.890625 48.609375 510.714844 49.140625 C 505.820312 48.847656 501.574219 48.226562 498.269531 47.164062 Z M 482.199219 49.230469 C 485.976562 49.582031 492.84375 48.257812 494.585938 49.523438 C 490.839844 49.257812 483.941406 50.527344 482.199219 49.230469 Z M 478.457031 46.398438 C 468.253906 45.984375 456.726562 46.105469 452.421875 44.394531 C 461.972656 45.515625 469.933594 44.394531 478.457031 46.398438 Z M 447.496094 48.433594 C 453.453125 48.847656 464.007812 47.105469 466.101562 49.375 C 463.09375 48.847656 439.859375 49.554688 447.496094 48.433594 Z M 533.917969 39.882812 C 543.765625 40.296875 559.746094 38.792969 560.011719 43.921875 C 553.792969 42.035156 533.417969 41.386719 533.917969 39.882812 Z M 756.679688 111.472656 C 752.464844 112.03125 744.355469 111.855469 745.003906 111.382812 C 748.097656 111.382812 754.144531 109.378906 755.265625 110.53125 C 752.996094 111.117188 755.882812 111.058594 756.679688 111.472656 Z M 774.460938 57.160156 C 769.0625 58.636719 755.914062 60.609375 755.648438 58.132812 C 760.542969 58.8125 769.625 55.390625 774.460938 57.160156 Z M 718.96875 66.921875 C 717.699219 65.859375 711.921875 67.570312 711.300781 66.125 L 718.761719 65.210938 C 718.378906 66.273438 720.765625 66.476562 718.96875 66.921875 Z M 370.539062 46.164062 C 372.722656 45.71875 374.433594 44.304688 375.492188 46.25 C 373.695312 47.488281 372.484375 45.484375 371.75 46.753906 L 361.8125 46.605469 C 362.402344 45.335938 367.945312 46.457031 370.539062 46.164062 Z M 742.941406 66.863281 C 741.703125 67.039062 740.460938 67.214844 739.195312 67.363281 C 722.742188 69.015625 736.277344 65.09375 742.941406 66.863281 Z M 764.140625 64.382812 C 757.359375 64.710938 746.65625 66.800781 745.296875 65.386719 C 751.078125 65.359375 759.777344 63.472656 764.140625 64.382812 Z M 28.953125 122.175781 C 27.859375 121.527344 25.5625 121.410156 22.671875 121.144531 C 19.78125 120.878906 16.300781 120.4375 12.882812 119.109375 C 13.738281 115.011719 30.308594 120.820312 28.953125 122.175781 Z M 758.09375 31.332031 C 762.636719 30.625 766.558594 30.359375 769.242188 30.890625 C 764.789062 31.507812 759.628906 32.570312 758.09375 31.332031 Z M 927.429688 21.042969 C 934.949219 19.007812 938.574219 17.5625 946.890625 16.675781 C 939.046875 18.417969 933.089844 22.457031 927.429688 21.042969 Z M 867.308594 13.609375 C 872.761719 10.957031 882.316406 12.195312 867.308594 13.609375 Z M 723.566406 33.128906 C 729.347656 32.804688 738.105469 30.652344 741.9375 31.359375 C 736.21875 31.890625 727.429688 33.957031 723.566406 33.128906 Z M 571.011719 41.179688 C 577.820312 41.0625 586.34375 40 588.378906 42.417969 C 584.132812 41.210938 571.628906 44.363281 571.011719 41.179688 Z M 836.996094 71.960938 C 835.140625 72.609375 831.71875 73.613281 828.300781 74.320312 C 824.851562 75 821.429688 75.441406 819.511719 75.148438 C 821.105469 74.46875 824.613281 73.613281 828.183594 72.964844 C 831.71875 72.257812 835.289062 71.757812 836.996094 71.960938 Z M 844.371094 97.203125 C 842.6875 98.382812 833.578125 98.410156 830.539062 100.414062 C 829.863281 98.5 842.542969 96.820312 844.371094 97.203125 Z M 931.851562 43.390625 C 923.242188 44.601562 909.621094 49.847656 909.382812 47.3125 C 917.285156 47.046875 927.046875 42.417969 931.851562 43.390625 Z M 843.484375 65.445312 C 838.589844 65.59375 834.699219 68.691406 832.308594 67.628906 C 833.136719 66.597656 846.492188 63.972656 843.484375 65.445312 Z M 890.898438 45.632812 C 895.671875 44.394531 899.714844 43.300781 903.636719 42.449219 C 905.582031 42.035156 907.527344 41.652344 909.503906 41.355469 C 911.449219 41.003906 913.453125 40.707031 915.546875 40.5 C 931.824219 36.964844 915.3125 40.796875 907.113281 43.15625 C 901.304688 44.746094 893.875 48.875 891.28125 47.285156 C 898.679688 45.515625 894.496094 45.425781 890.898438 45.632812 Z M 890.898438 45.632812 " clip-rule="nonzero"/></clipPath><linearGradient x1="0.00000389888" gradientTransform="matrix(-2.948535, 0, 0, 2.948535, 946.889832, 0.814328)" y1="25.087" x2="320.17996" gradientUnits="userSpaceOnUse" y2="25.087" id="c5b76d8062"><stop stop-opacity="1" stop-color="rgb(100%, 33.299255%, 0%)" offset="0"/><stop stop-opacity="1" stop-color="rgb(100%, 33.554077%, 0.370789%)" offset="0.00390625"/><stop stop-opacity="1" stop-color="rgb(100%, 33.810425%, 0.741577%)" offset="0.0078125"/><stop stop-opacity="1" stop-color="rgb(100%, 34.066772%, 1.112366%)" offset="0.0117188"/><stop stop-opacity="1" stop-color="rgb(100%, 34.32312%, 1.483154%)" offset="0.015625"/><stop stop-opacity="1" stop-color="rgb(100%, 34.577942%, 1.853943%)" offset="0.0195313"/><stop stop-opacity="1" stop-color="rgb(100%, 34.83429%, 2.224731%)" offset="0.0234375"/><stop stop-opacity="1" stop-color="rgb(100%, 35.090637%, 2.59552%)" offset="0.0273438"/><stop stop-opacity="1" stop-color="rgb(100%, 35.346985%, 2.966309%)" offset="0.03125"/><stop stop-opacity="1" stop-color="rgb(100%, 35.601807%, 3.337097%)" offset="0.0351563"/><stop stop-opacity="1" stop-color="rgb(100%, 35.858154%, 3.707886%)" offset="0.0390625"/><stop stop-opacity="1" stop-color="rgb(100%, 36.114502%, 4.078674%)" offset="0.0429688"/><stop stop-opacity="1" stop-color="rgb(100%, 36.37085%, 4.449463%)" offset="0.046875"/><stop stop-opacity="1" stop-color="rgb(100%, 36.625671%, 4.820251%)" offset="0.0507813"/><stop stop-opacity="1" stop-color="rgb(100%, 36.882019%, 5.19104%)" offset="0.0546875"/><stop stop-opacity="1" stop-color="rgb(100%, 37.138367%, 5.561829%)" offset="0.0585938"/><stop stop-opacity="1" stop-color="rgb(100%, 37.394714%, 5.932617%)" offset="0.0625"/><stop stop-opacity="1" stop-color="rgb(100%, 37.649536%, 6.303406%)" offset="0.0664063"/><stop stop-opacity="1" stop-color="rgb(100%, 37.905884%, 6.674194%)" offset="0.0703125"/><stop stop-opacity="1" stop-color="rgb(100%, 38.162231%, 7.044983%)" offset="0.0742188"/><stop stop-opacity="1" stop-color="rgb(100%, 38.418579%, 7.415771%)" offset="0.078125"/><stop stop-opacity="1" stop-color="rgb(100%, 38.673401%, 7.78656%)" offset="0.0820313"/><stop stop-opacity="1" stop-color="rgb(100%, 38.929749%, 8.157349%)" offset="0.0859375"/><stop stop-opacity="1" stop-color="rgb(100%, 39.186096%, 8.528137%)" offset="0.0898438"/><stop stop-opacity="1" stop-color="rgb(100%, 39.442444%, 8.898926%)" offset="0.09375"/><stop stop-opacity="1" stop-color="rgb(100%, 39.697266%, 9.269714%)" offset="0.0976563"/><stop stop-opacity="1" stop-color="rgb(100%, 39.953613%, 9.640503%)" offset="0.101563"/><stop stop-opacity="1" stop-color="rgb(100%, 40.208435%, 10.011292%)" offset="0.105469"/><stop stop-opacity="1" stop-color="rgb(100%, 40.464783%, 10.38208%)" offset="0.109375"/><stop stop-opacity="1" stop-color="rgb(100%, 40.72113%, 10.752869%)" offset="0.113281"/><stop stop-opacity="1" stop-color="rgb(100%, 40.977478%, 11.123657%)" offset="0.117188"/><stop stop-opacity="1" stop-color="rgb(100%, 41.2323%, 11.494446%)" offset="0.121094"/><stop stop-opacity="1" stop-color="rgb(100%, 41.488647%, 11.865234%)" offset="0.125"/><stop stop-opacity="1" stop-color="rgb(100%, 41.744995%, 12.236023%)" offset="0.128906"/><stop stop-opacity="1" stop-color="rgb(100%, 42.001343%, 12.606812%)" offset="0.132813"/><stop stop-opacity="1" stop-color="rgb(100%, 42.256165%, 12.9776%)" offset="0.136719"/><stop stop-opacity="1" stop-color="rgb(100%, 42.512512%, 13.348389%)" offset="0.140625"/><stop stop-opacity="1" stop-color="rgb(100%, 42.76886%, 13.719177%)" offset="0.144531"/><stop stop-opacity="1" stop-color="rgb(100%, 43.025208%, 14.089966%)" offset="0.148438"/><stop stop-opacity="1" stop-color="rgb(100%, 43.280029%, 14.460754%)" offset="0.152344"/><stop stop-opacity="1" stop-color="rgb(100%, 43.536377%, 14.831543%)" offset="0.15625"/><stop stop-opacity="1" stop-color="rgb(100%, 43.792725%, 15.202332%)" offset="0.160156"/><stop stop-opacity="1" stop-color="rgb(100%, 44.049072%, 15.57312%)" offset="0.164063"/><stop stop-opacity="1" stop-color="rgb(100%, 44.303894%, 15.943909%)" offset="0.167969"/><stop stop-opacity="1" stop-color="rgb(100%, 44.560242%, 16.314697%)" offset="0.171875"/><stop stop-opacity="1" stop-color="rgb(100%, 44.816589%, 16.685486%)" offset="0.175781"/><stop stop-opacity="1" stop-color="rgb(100%, 45.072937%, 17.056274%)" offset="0.179688"/><stop stop-opacity="1" stop-color="rgb(100%, 45.327759%, 17.427063%)" offset="0.183594"/><stop stop-opacity="1" stop-color="rgb(100%, 45.584106%, 17.797852%)" offset="0.1875"/><stop stop-opacity="1" stop-color="rgb(100%, 45.840454%, 18.16864%)" offset="0.191406"/><stop stop-opacity="1" stop-color="rgb(100%, 46.096802%, 18.539429%)" offset="0.195313"/><stop stop-opacity="1" stop-color="rgb(100%, 46.351624%, 18.910217%)" offset="0.199219"/><stop stop-opacity="1" stop-color="rgb(100%, 46.607971%, 19.281006%)" offset="0.203125"/><stop stop-opacity="1" stop-color="rgb(100%, 46.864319%, 19.651794%)" offset="0.207031"/><stop stop-opacity="1" stop-color="rgb(100%, 47.120667%, 20.024109%)" offset="0.210938"/><stop stop-opacity="1" stop-color="rgb(100%, 47.375488%, 20.394897%)" offset="0.214844"/><stop stop-opacity="1" stop-color="rgb(100%, 47.631836%, 20.765686%)" offset="0.21875"/><stop stop-opacity="1" stop-color="rgb(100%, 47.886658%, 21.136475%)" offset="0.222656"/><stop stop-opacity="1" stop-color="rgb(100%, 48.143005%, 21.507263%)" offset="0.226563"/><stop stop-opacity="1" stop-color="rgb(100%, 48.399353%, 21.878052%)" offset="0.230469"/><stop stop-opacity="1" stop-color="rgb(100%, 48.655701%, 22.24884%)" offset="0.234375"/><stop stop-opacity="1" stop-color="rgb(100%, 48.910522%, 22.619629%)" offset="0.238281"/><stop stop-opacity="1" stop-color="rgb(100%, 49.16687%, 22.990417%)" offset="0.242188"/><stop stop-opacity="1" stop-color="rgb(100%, 49.423218%, 23.361206%)" offset="0.246094"/><stop stop-opacity="1" stop-color="rgb(100%, 49.679565%, 23.731995%)" offset="0.25"/><stop stop-opacity="1" stop-color="rgb(100%, 49.934387%, 24.102783%)" offset="0.253906"/><stop stop-opacity="1" stop-color="rgb(100%, 50.190735%, 24.473572%)" offset="0.257812"/><stop stop-opacity="1" stop-color="rgb(100%, 50.447083%, 24.84436%)" offset="0.261719"/><stop stop-opacity="1" stop-color="rgb(100%, 50.70343%, 25.215149%)" offset="0.265625"/><stop stop-opacity="1" stop-color="rgb(100%, 50.958252%, 25.585938%)" offset="0.269531"/><stop stop-opacity="1" stop-color="rgb(100%, 51.2146%, 25.956726%)" offset="0.273438"/><stop stop-opacity="1" stop-color="rgb(100%, 51.470947%, 26.327515%)" offset="0.277344"/><stop stop-opacity="1" stop-color="rgb(100%, 51.727295%, 26.698303%)" offset="0.28125"/><stop stop-opacity="1" stop-color="rgb(100%, 51.982117%, 27.069092%)" offset="0.285156"/><stop stop-opacity="1" stop-color="rgb(100%, 52.238464%, 27.43988%)" offset="0.289062"/><stop stop-opacity="1" stop-color="rgb(100%, 52.494812%, 27.810669%)" offset="0.292969"/><stop stop-opacity="1" stop-color="rgb(100%, 52.75116%, 28.181458%)" offset="0.296875"/><stop stop-opacity="1" stop-color="rgb(100%, 53.005981%, 28.552246%)" offset="0.300781"/><stop stop-opacity="1" stop-color="rgb(100%, 53.262329%, 28.923035%)" offset="0.304688"/><stop stop-opacity="1" stop-color="rgb(100%, 53.518677%, 29.293823%)" offset="0.308594"/><stop stop-opacity="1" stop-color="rgb(100%, 53.775024%, 29.664612%)" offset="0.3125"/><stop stop-opacity="1" stop-color="rgb(100%, 54.029846%, 30.0354%)" offset="0.316406"/><stop stop-opacity="1" stop-color="rgb(100%, 54.286194%, 30.406189%)" offset="0.320312"/><stop stop-opacity="1" stop-color="rgb(100%, 54.541016%, 30.776978%)" offset="0.324219"/><stop stop-opacity="1" stop-color="rgb(100%, 54.797363%, 31.147766%)" offset="0.328125"/><stop stop-opacity="1" stop-color="rgb(100%, 55.053711%, 31.518555%)" offset="0.332031"/><stop stop-opacity="1" stop-color="rgb(100%, 55.310059%, 31.889343%)" offset="0.335938"/><stop stop-opacity="1" stop-color="rgb(100%, 55.56488%, 32.260132%)" offset="0.339844"/><stop stop-opacity="1" stop-color="rgb(100%, 55.821228%, 32.63092%)" offset="0.34375"/><stop stop-opacity="1" stop-color="rgb(100%, 56.077576%, 33.001709%)" offset="0.347656"/><stop stop-opacity="1" stop-color="rgb(100%, 56.333923%, 33.372498%)" offset="0.351562"/><stop stop-opacity="1" stop-color="rgb(100%, 56.588745%, 33.743286%)" offset="0.355469"/><stop stop-opacity="1" stop-color="rgb(100%, 56.845093%, 34.114075%)" offset="0.359375"/><stop stop-opacity="1" stop-color="rgb(100%, 57.10144%, 34.484863%)" offset="0.363281"/><stop stop-opacity="1" stop-color="rgb(100%, 57.357788%, 34.855652%)" offset="0.367188"/><stop stop-opacity="1" stop-color="rgb(100%, 57.61261%, 35.22644%)" offset="0.371094"/><stop stop-opacity="1" stop-color="rgb(100%, 57.868958%, 35.597229%)" offset="0.375"/><stop stop-opacity="1" stop-color="rgb(100%, 58.125305%, 35.968018%)" offset="0.378906"/><stop stop-opacity="1" stop-color="rgb(100%, 58.381653%, 36.338806%)" offset="0.382812"/><stop stop-opacity="1" stop-color="rgb(100%, 58.636475%, 36.709595%)" offset="0.386719"/><stop stop-opacity="1" stop-color="rgb(100%, 58.892822%, 37.080383%)" offset="0.390625"/><stop stop-opacity="1" stop-color="rgb(100%, 59.14917%, 37.451172%)" offset="0.394531"/><stop stop-opacity="1" stop-color="rgb(100%, 59.405518%, 37.82196%)" offset="0.398438"/><stop stop-opacity="1" stop-color="rgb(100%, 59.660339%, 38.192749%)" offset="0.402344"/><stop stop-opacity="1" stop-color="rgb(100%, 59.916687%, 38.563538%)" offset="0.40625"/><stop stop-opacity="1" stop-color="rgb(100%, 60.173035%, 38.934326%)" offset="0.410156"/><stop stop-opacity="1" stop-color="rgb(100%, 60.429382%, 39.306641%)" offset="0.414062"/><stop stop-opacity="1" stop-color="rgb(100%, 60.684204%, 39.677429%)" offset="0.417969"/><stop stop-opacity="1" stop-color="rgb(100%, 60.940552%, 40.048218%)" offset="0.421875"/><stop stop-opacity="1" stop-color="rgb(100%, 61.195374%, 40.419006%)" offset="0.425781"/><stop stop-opacity="1" stop-color="rgb(100%, 61.451721%, 40.789795%)" offset="0.429688"/><stop stop-opacity="1" stop-color="rgb(100%, 61.708069%, 41.160583%)" offset="0.433594"/><stop stop-opacity="1" stop-color="rgb(100%, 61.964417%, 41.531372%)" offset="0.4375"/><stop stop-opacity="1" stop-color="rgb(100%, 62.219238%, 41.902161%)" offset="0.441406"/><stop stop-opacity="1" stop-color="rgb(100%, 62.475586%, 42.272949%)" offset="0.445312"/><stop stop-opacity="1" stop-color="rgb(100%, 62.731934%, 42.643738%)" offset="0.449219"/><stop stop-opacity="1" stop-color="rgb(100%, 62.988281%, 43.014526%)" offset="0.453125"/><stop stop-opacity="1" stop-color="rgb(100%, 63.243103%, 43.385315%)" offset="0.457031"/><stop stop-opacity="1" stop-color="rgb(100%, 63.499451%, 43.756104%)" offset="0.460938"/><stop stop-opacity="1" stop-color="rgb(100%, 63.755798%, 44.126892%)" offset="0.464844"/><stop stop-opacity="1" stop-color="rgb(100%, 64.012146%, 44.497681%)" offset="0.46875"/><stop stop-opacity="1" stop-color="rgb(100%, 64.266968%, 44.868469%)" offset="0.472656"/><stop stop-opacity="1" stop-color="rgb(100%, 64.523315%, 45.239258%)" offset="0.476562"/><stop stop-opacity="1" stop-color="rgb(100%, 64.779663%, 45.610046%)" offset="0.480469"/><stop stop-opacity="1" stop-color="rgb(100%, 65.036011%, 45.980835%)" offset="0.484375"/><stop stop-opacity="1" stop-color="rgb(100%, 65.290833%, 46.351624%)" offset="0.488281"/><stop stop-opacity="1" stop-color="rgb(100%, 65.54718%, 46.722412%)" offset="0.492188"/><stop stop-opacity="1" stop-color="rgb(100%, 65.803528%, 47.093201%)" offset="0.496094"/><stop stop-opacity="1" stop-color="rgb(100%, 66.059875%, 47.463989%)" offset="0.5"/><stop stop-opacity="1" stop-color="rgb(100%, 66.314697%, 47.834778%)" offset="0.503906"/><stop stop-opacity="1" stop-color="rgb(100%, 66.571045%, 48.205566%)" offset="0.507812"/><stop stop-opacity="1" stop-color="rgb(100%, 66.827393%, 48.576355%)" offset="0.511719"/><stop stop-opacity="1" stop-color="rgb(100%, 67.08374%, 48.947144%)" offset="0.515625"/><stop stop-opacity="1" stop-color="rgb(100%, 67.338562%, 49.317932%)" offset="0.519531"/><stop stop-opacity="1" stop-color="rgb(100%, 67.59491%, 49.688721%)" offset="0.523437"/><stop stop-opacity="1" stop-color="rgb(100%, 67.851257%, 50.059509%)" offset="0.527344"/><stop stop-opacity="1" stop-color="rgb(100%, 68.107605%, 50.430298%)" offset="0.53125"/><stop stop-opacity="1" stop-color="rgb(100%, 68.362427%, 50.801086%)" offset="0.535156"/><stop stop-opacity="1" stop-color="rgb(100%, 68.618774%, 51.171875%)" offset="0.539063"/><stop stop-opacity="1" stop-color="rgb(100%, 68.873596%, 51.542664%)" offset="0.542969"/><stop stop-opacity="1" stop-color="rgb(100%, 69.129944%, 51.913452%)" offset="0.546875"/><stop stop-opacity="1" stop-color="rgb(100%, 69.386292%, 52.284241%)" offset="0.550781"/><stop stop-opacity="1" stop-color="rgb(100%, 69.642639%, 52.655029%)" offset="0.554688"/><stop stop-opacity="1" stop-color="rgb(100%, 69.897461%, 53.025818%)" offset="0.558594"/><stop stop-opacity="1" stop-color="rgb(100%, 70.153809%, 53.396606%)" offset="0.5625"/><stop stop-opacity="1" stop-color="rgb(100%, 70.410156%, 53.767395%)" offset="0.566406"/><stop stop-opacity="1" stop-color="rgb(100%, 70.666504%, 54.138184%)" offset="0.570312"/><stop stop-opacity="1" stop-color="rgb(100%, 70.921326%, 54.508972%)" offset="0.574219"/><stop stop-opacity="1" stop-color="rgb(100%, 71.177673%, 54.879761%)" offset="0.578125"/><stop stop-opacity="1" stop-color="rgb(100%, 71.434021%, 55.250549%)" offset="0.582031"/><stop stop-opacity="1" stop-color="rgb(100%, 71.690369%, 55.621338%)" offset="0.585937"/><stop stop-opacity="1" stop-color="rgb(100%, 71.94519%, 55.992126%)" offset="0.589844"/><stop stop-opacity="1" stop-color="rgb(100%, 72.201538%, 56.362915%)" offset="0.59375"/><stop stop-opacity="1" stop-color="rgb(100%, 72.457886%, 56.733704%)" offset="0.597656"/><stop stop-opacity="1" stop-color="rgb(100%, 72.714233%, 57.104492%)" offset="0.601563"/><stop stop-opacity="1" stop-color="rgb(100%, 72.969055%, 57.475281%)" offset="0.605469"/><stop stop-opacity="1" stop-color="rgb(100%, 73.225403%, 57.846069%)" offset="0.609375"/><stop stop-opacity="1" stop-color="rgb(100%, 73.48175%, 58.216858%)" offset="0.613281"/><stop stop-opacity="1" stop-color="rgb(100%, 73.738098%, 58.589172%)" offset="0.617188"/><stop stop-opacity="1" stop-color="rgb(100%, 73.99292%, 58.959961%)" offset="0.621094"/><stop stop-opacity="1" stop-color="rgb(100%, 74.249268%, 59.33075%)" offset="0.625"/><stop stop-opacity="1" stop-color="rgb(100%, 74.505615%, 59.701538%)" offset="0.628906"/><stop stop-opacity="1" stop-color="rgb(100%, 74.761963%, 60.072327%)" offset="0.632812"/><stop stop-opacity="1" stop-color="rgb(100%, 75.016785%, 60.443115%)" offset="0.636719"/><stop stop-opacity="1" stop-color="rgb(100%, 75.273132%, 60.813904%)" offset="0.640625"/><stop stop-opacity="1" stop-color="rgb(100%, 75.527954%, 61.184692%)" offset="0.644531"/><stop stop-opacity="1" stop-color="rgb(100%, 75.784302%, 61.555481%)" offset="0.648437"/><stop stop-opacity="1" stop-color="rgb(100%, 76.040649%, 61.92627%)" offset="0.652344"/><stop stop-opacity="1" stop-color="rgb(100%, 76.296997%, 62.297058%)" offset="0.65625"/><stop stop-opacity="1" stop-color="rgb(100%, 76.551819%, 62.667847%)" offset="0.660156"/><stop stop-opacity="1" stop-color="rgb(100%, 76.808167%, 63.038635%)" offset="0.664063"/><stop stop-opacity="1" stop-color="rgb(100%, 77.064514%, 63.409424%)" offset="0.667969"/><stop stop-opacity="1" stop-color="rgb(100%, 77.320862%, 63.780212%)" offset="0.671875"/><stop stop-opacity="1" stop-color="rgb(100%, 77.575684%, 64.151001%)" offset="0.675781"/><stop stop-opacity="1" stop-color="rgb(100%, 77.832031%, 64.52179%)" offset="0.679688"/><stop stop-opacity="1" stop-color="rgb(100%, 78.088379%, 64.892578%)" offset="0.683594"/><stop stop-opacity="1" stop-color="rgb(100%, 78.344727%, 65.263367%)" offset="0.6875"/><stop stop-opacity="1" stop-color="rgb(100%, 78.599548%, 65.634155%)" offset="0.691406"/><stop stop-opacity="1" stop-color="rgb(100%, 78.855896%, 66.004944%)" offset="0.695312"/><stop stop-opacity="1" stop-color="rgb(100%, 79.112244%, 66.375732%)" offset="0.699219"/><stop stop-opacity="1" stop-color="rgb(100%, 79.368591%, 66.746521%)" offset="0.703125"/><stop stop-opacity="1" stop-color="rgb(100%, 79.623413%, 67.11731%)" offset="0.707031"/><stop stop-opacity="1" stop-color="rgb(100%, 79.879761%, 67.488098%)" offset="0.710937"/><stop stop-opacity="1" stop-color="rgb(100%, 80.136108%, 67.858887%)" offset="0.714844"/><stop stop-opacity="1" stop-color="rgb(100%, 80.392456%, 68.229675%)" offset="0.71875"/><stop stop-opacity="1" stop-color="rgb(100%, 80.647278%, 68.600464%)" offset="0.722656"/><stop stop-opacity="1" stop-color="rgb(100%, 80.903625%, 68.971252%)" offset="0.726563"/><stop stop-opacity="1" stop-color="rgb(100%, 81.159973%, 69.342041%)" offset="0.730469"/><stop stop-opacity="1" stop-color="rgb(100%, 81.416321%, 69.71283%)" offset="0.734375"/><stop stop-opacity="1" stop-color="rgb(100%, 81.671143%, 70.083618%)" offset="0.738281"/><stop stop-opacity="1" stop-color="rgb(100%, 81.92749%, 70.454407%)" offset="0.742188"/><stop stop-opacity="1" stop-color="rgb(100%, 82.183838%, 70.825195%)" offset="0.746094"/><stop stop-opacity="1" stop-color="rgb(100%, 82.440186%, 71.195984%)" offset="0.75"/><stop stop-opacity="1" stop-color="rgb(100%, 82.695007%, 71.566772%)" offset="0.753906"/><stop stop-opacity="1" stop-color="rgb(100%, 82.951355%, 71.937561%)" offset="0.757812"/><stop stop-opacity="1" stop-color="rgb(100%, 83.206177%, 72.30835%)" offset="0.761719"/><stop stop-opacity="1" stop-color="rgb(100%, 83.462524%, 72.679138%)" offset="0.765625"/><stop stop-opacity="1" stop-color="rgb(100%, 83.718872%, 73.049927%)" offset="0.769531"/><stop stop-opacity="1" stop-color="rgb(100%, 83.97522%, 73.420715%)" offset="0.773437"/><stop stop-opacity="1" stop-color="rgb(100%, 84.230042%, 73.791504%)" offset="0.777344"/><stop stop-opacity="1" stop-color="rgb(100%, 84.486389%, 74.162292%)" offset="0.78125"/><stop stop-opacity="1" stop-color="rgb(100%, 84.742737%, 74.533081%)" offset="0.785156"/><stop stop-opacity="1" stop-color="rgb(100%, 84.999084%, 74.90387%)" offset="0.789063"/><stop stop-opacity="1" stop-color="rgb(100%, 85.253906%, 75.274658%)" offset="0.792969"/><stop stop-opacity="1" stop-color="rgb(100%, 85.510254%, 75.645447%)" offset="0.796875"/><stop stop-opacity="1" stop-color="rgb(100%, 85.766602%, 76.016235%)" offset="0.800781"/><stop stop-opacity="1" stop-color="rgb(100%, 86.022949%, 76.387024%)" offset="0.804688"/><stop stop-opacity="1" stop-color="rgb(100%, 86.277771%, 76.757812%)" offset="0.808594"/><stop stop-opacity="1" stop-color="rgb(100%, 86.534119%, 77.128601%)" offset="0.8125"/><stop stop-opacity="1" stop-color="rgb(100%, 86.790466%, 77.49939%)" offset="0.816406"/><stop stop-opacity="1" stop-color="rgb(100%, 87.046814%, 77.871704%)" offset="0.820312"/><stop stop-opacity="1" stop-color="rgb(100%, 87.301636%, 78.242493%)" offset="0.824219"/><stop stop-opacity="1" stop-color="rgb(100%, 87.557983%, 78.613281%)" offset="0.828125"/><stop stop-opacity="1" stop-color="rgb(100%, 87.814331%, 78.98407%)" offset="0.832031"/><stop stop-opacity="1" stop-color="rgb(100%, 88.070679%, 79.354858%)" offset="0.835937"/><stop stop-opacity="1" stop-color="rgb(100%, 88.3255%, 79.725647%)" offset="0.839844"/><stop stop-opacity="1" stop-color="rgb(100%, 88.581848%, 80.096436%)" offset="0.84375"/><stop stop-opacity="1" stop-color="rgb(100%, 88.838196%, 80.467224%)" offset="0.847656"/><stop stop-opacity="1" stop-color="rgb(100%, 89.094543%, 80.838013%)" offset="0.851563"/><stop stop-opacity="1" stop-color="rgb(100%, 89.349365%, 81.208801%)" offset="0.855469"/><stop stop-opacity="1" stop-color="rgb(100%, 89.605713%, 81.57959%)" offset="0.859375"/><stop stop-opacity="1" stop-color="rgb(100%, 89.860535%, 81.950378%)" offset="0.863281"/><stop stop-opacity="1" stop-color="rgb(100%, 90.116882%, 82.321167%)" offset="0.867188"/><stop stop-opacity="1" stop-color="rgb(100%, 90.37323%, 82.691956%)" offset="0.871094"/><stop stop-opacity="1" stop-color="rgb(100%, 90.629578%, 83.062744%)" offset="0.875"/><stop stop-opacity="1" stop-color="rgb(100%, 90.884399%, 83.433533%)" offset="0.878906"/><stop stop-opacity="1" stop-color="rgb(100%, 91.140747%, 83.804321%)" offset="0.882812"/><stop stop-opacity="1" stop-color="rgb(100%, 91.397095%, 84.17511%)" offset="0.886719"/><stop stop-opacity="1" stop-color="rgb(100%, 91.653442%, 84.545898%)" offset="0.890625"/><stop stop-opacity="1" stop-color="rgb(100%, 91.908264%, 84.916687%)" offset="0.894531"/><stop stop-opacity="1" stop-color="rgb(100%, 92.164612%, 85.287476%)" offset="0.898437"/><stop stop-opacity="1" stop-color="rgb(100%, 92.420959%, 85.658264%)" offset="0.902344"/><stop stop-opacity="1" stop-color="rgb(100%, 92.677307%, 86.029053%)" offset="0.90625"/><stop stop-opacity="1" stop-color="rgb(100%, 92.932129%, 86.399841%)" offset="0.910156"/><stop stop-opacity="1" stop-color="rgb(100%, 93.188477%, 86.77063%)" offset="0.914063"/><stop stop-opacity="1" stop-color="rgb(100%, 93.444824%, 87.141418%)" offset="0.917969"/><stop stop-opacity="1" stop-color="rgb(100%, 93.701172%, 87.512207%)" offset="0.921875"/><stop stop-opacity="1" stop-color="rgb(100%, 93.955994%, 87.882996%)" offset="0.925781"/><stop stop-opacity="1" stop-color="rgb(100%, 94.212341%, 88.253784%)" offset="0.929688"/><stop stop-opacity="1" stop-color="rgb(100%, 94.468689%, 88.624573%)" offset="0.933594"/><stop stop-opacity="1" stop-color="rgb(100%, 94.725037%, 88.995361%)" offset="0.9375"/><stop stop-opacity="1" stop-color="rgb(100%, 94.979858%, 89.36615%)" offset="0.941406"/><stop stop-opacity="1" stop-color="rgb(100%, 95.236206%, 89.736938%)" offset="0.945312"/><stop stop-opacity="1" stop-color="rgb(100%, 95.492554%, 90.107727%)" offset="0.949219"/><stop stop-opacity="1" stop-color="rgb(100%, 95.748901%, 90.478516%)" offset="0.953125"/><stop stop-opacity="1" stop-color="rgb(100%, 96.003723%, 90.849304%)" offset="0.957031"/><stop stop-opacity="1" stop-color="rgb(100%, 96.260071%, 91.220093%)" offset="0.960937"/><stop stop-opacity="1" stop-color="rgb(100%, 96.514893%, 91.590881%)" offset="0.964844"/><stop stop-opacity="1" stop-color="rgb(100%, 96.77124%, 91.96167%)" offset="0.96875"/><stop stop-opacity="1" stop-color="rgb(100%, 97.027588%, 92.332458%)" offset="0.972656"/><stop stop-opacity="1" stop-color="rgb(100%, 97.283936%, 92.703247%)" offset="0.976563"/><stop stop-opacity="1" stop-color="rgb(100%, 97.538757%, 93.074036%)" offset="0.980469"/><stop stop-opacity="1" stop-color="rgb(100%, 97.795105%, 93.444824%)" offset="0.984375"/><stop stop-opacity="1" stop-color="rgb(100%, 98.051453%, 93.815613%)" offset="0.988281"/><stop stop-opacity="1" stop-color="rgb(100%, 98.3078%, 94.186401%)" offset="0.992188"/><stop stop-opacity="1" stop-color="rgb(100%, 98.553467%, 94.541931%)" offset="0.996094"/><stop stop-opacity="1" stop-color="rgb(100%, 98.799133%, 94.898987%)" offset="1"/></linearGradient><clipPath id="b1467b05a5"><rect x="0" width="947" y="0" height="152"/></clipPath></defs><g mask="url(#6e7315a1a8)"><g transform="matrix(1, 0, 0, 1, 2, 194)"><g clip-path="url(#b1467b05a5)"><g clip-path="url(#38375229bc)"><g clip-path="url(#09e366604d)"><path fill="url(#c5b76d8062)" d="M 946.890625 0.640625 L 946.890625 149.363281 L 2.828125 149.363281 L 2.828125 0.640625 Z M 946.890625 0.640625 " fill-rule="nonzero"/></g></g></g></g></g><g fill="#000000" fill-opacity="1"><g transform="translate(21.182663, 328.050823)"><g><path d="M 22.726562 73.339844 C 24.585938 73.339844 26.238281 71.070312 27.476562 69.003906 C 28.097656 68.175781 28.714844 67.351562 29.128906 66.730469 C 50.410156 42.558594 69.828125 13.636719 90.488281 -24.585938 C 114.246094 -68.589844 129.121094 -104.125 138.417969 -140.070312 C 140.898438 -148.953125 142.550781 -157.21875 140.484375 -166.515625 C 139.039062 -171.886719 136.972656 -175.8125 133.875 -178.496094 C 131.1875 -180.5625 127.882812 -181.597656 124.164062 -181.597656 C 121.890625 -181.597656 119.410156 -181.183594 116.726562 -180.355469 C 86.976562 -171.679688 65.078125 -152.671875 43.796875 -134.078125 L 41.9375 -132.632812 C 30.988281 -123.128906 20.660156 -113.628906 13.015625 -101.851562 L 12.601562 -101.230469 C 11.570312 -99.992188 10.742188 -98.753906 11.15625 -97.304688 C 11.363281 -96.480469 11.984375 -95.859375 13.222656 -95.035156 C 14.046875 -94.207031 14.875 -94 15.703125 -94 C 16.941406 -94 18.179688 -95.035156 19.214844 -96.273438 C 22.726562 -99.578125 25.824219 -103.089844 28.921875 -106.808594 L 31.609375 -109.910156 C 51.648438 -132.21875 73.546875 -155.359375 103.296875 -170.855469 C 107.84375 -173.332031 113.628906 -176.433594 120.859375 -176.636719 L 122.511719 -176.636719 C 127.46875 -176.636719 130.566406 -175.8125 132.632812 -173.746094 C 134.699219 -171.472656 135.320312 -168.167969 134.90625 -163.210938 C 134.078125 -155.773438 132.632812 -148.335938 130.359375 -141.3125 C 116.933594 -99.578125 97.71875 -58.464844 68.382812 -7.644531 C 62.183594 2.6875 55.367188 12.601562 48.550781 22.3125 C 39.667969 34.914062 30.371094 48.136719 23.34375 62.390625 C 22.933594 63.21875 22.105469 64.25 21.484375 65.078125 C 20.039062 66.9375 18.59375 69.003906 19.007812 70.65625 C 19.214844 71.273438 19.625 71.894531 20.246094 72.308594 C 21.074219 73.132812 21.898438 73.339844 22.726562 73.339844 Z M 22.726562 73.339844 "/></g></g></g><g fill="#000000" fill-opacity="1"><g transform="translate(144.104118, 328.050823)"><g><path d="M 113.628906 -34.5 C 113.214844 -34.914062 113.007812 -34.914062 112.59375 -34.914062 C 111.355469 -34.914062 110.320312 -33.054688 109.703125 -31.816406 L 109.496094 -31.195312 C 104.332031 -21.484375 96.273438 -13.636719 89.867188 -7.230469 C 82.226562 0.414062 72.929688 8.675781 60.117188 12.601562 C 59.085938 13.015625 57.847656 13.429688 56.8125 13.429688 C 55.367188 13.429688 54.128906 12.808594 53.09375 11.777344 C 51.234375 9.917969 52.0625 7.851562 52.683594 6.40625 L 53.09375 5.578125 C 53.921875 3.097656 54.953125 0.621094 55.988281 -1.652344 C 57.847656 -5.992188 59.707031 -10.535156 60.945312 -15.289062 C 61.976562 -19.007812 61.152344 -22.3125 59.085938 -24.792969 C 57.019531 -27.0625 54.128906 -28.304688 50.410156 -28.304688 C 49.789062 -28.304688 48.964844 -28.304688 48.34375 -28.097656 C 43.179688 -27.476562 38.011719 -26.03125 32.433594 -23.550781 C 27.683594 -21.691406 23.136719 -19.832031 18.800781 -17.765625 C 17.355469 -16.941406 16.113281 -16.113281 14.667969 -15.289062 C 13.636719 -14.460938 12.601562 -13.636719 11.363281 -13.015625 C 10.328125 -12.601562 7.851562 -11.570312 5.992188 -11.570312 C 5.164062 -11.570312 4.546875 -11.777344 4.132812 -12.1875 C 2.890625 -13.222656 3.511719 -14.667969 3.71875 -15.082031 L 10.949219 -33.882812 C 11.15625 -34.292969 11.363281 -34.914062 11.777344 -35.535156 C 12.808594 -38.011719 14.875 -42.351562 13.636719 -45.039062 C 13.222656 -45.863281 12.601562 -46.277344 11.777344 -46.898438 C 11.15625 -47.105469 10.742188 -47.105469 10.328125 -47.105469 C 9.296875 -47.105469 8.46875 -46.070312 7.851562 -45.039062 L 7.4375 -44.417969 C 1.652344 -35.535156 -2.6875 -25.410156 -4.957031 -14.046875 L -5.164062 -13.222656 C -5.785156 -10.742188 -6.40625 -8.46875 -3.511719 -5.992188 C -2.066406 -4.75 -0.828125 -4.132812 0.414062 -4.132812 C 1.859375 -4.132812 3.304688 -4.957031 4.546875 -5.578125 L 5.164062 -5.992188 C 8.058594 -7.4375 10.742188 -8.882812 13.429688 -10.535156 C 19.417969 -13.84375 25.824219 -17.355469 32.847656 -19.832031 C 38.21875 -21.691406 43.589844 -23.136719 48.964844 -24.378906 C 49.789062 -24.585938 50.410156 -24.585938 50.824219 -24.585938 C 52.476562 -24.585938 53.714844 -24.171875 54.746094 -22.933594 C 56.605469 -21.074219 55.78125 -19.417969 55.367188 -18.386719 L 54.953125 -17.765625 C 54.335938 -15.90625 53.300781 -14.460938 52.269531 -12.808594 L 50.410156 -9.503906 C 47.515625 -4.75 44.625 0.207031 44.625 6.609375 C 44.625 10.125 45.449219 12.808594 47.308594 14.667969 C 49.167969 16.320312 51.855469 17.355469 55.367188 17.355469 L 55.78125 17.355469 C 59.292969 17.148438 61.773438 16.734375 64.042969 15.289062 C 85.324219 3.304688 101.230469 -11.15625 112.59375 -28.714844 C 112.800781 -29.128906 113.214844 -29.542969 113.628906 -29.957031 C 114.453125 -30.988281 115.488281 -31.816406 115.074219 -32.847656 C 115.074219 -33.46875 114.453125 -33.882812 113.628906 -34.5 Z M 113.628906 -34.5 "/></g></g></g><g fill="#000000" fill-opacity="1"><g transform="translate(253.390582, 328.050823)"><g><path d="M 119 -101.4375 C 118.171875 -102.265625 116.519531 -102.265625 114.867188 -102.265625 C 114.453125 -102.472656 113.832031 -102.472656 113.421875 -102.472656 C 94.828125 -104.535156 78.710938 -105.570312 63.835938 -105.570312 L 45.65625 -105.570312 L 46.070312 -106.601562 C 51.234375 -117.347656 57.640625 -126.023438 63.632812 -134.285156 C 65.695312 -136.972656 67.554688 -139.65625 69.621094 -142.550781 C 71.480469 -145.234375 72.515625 -147.09375 69.828125 -149.367188 C 69.003906 -150.195312 68.175781 -150.609375 67.351562 -150.609375 C 66.109375 -150.609375 65.285156 -149.367188 64.25 -148.335938 C 64.042969 -147.921875 63.835938 -147.507812 63.425781 -147.300781 C 53.300781 -136.144531 45.449219 -124.78125 39.460938 -112.59375 C 36.773438 -106.808594 32.230469 -105.570312 26.238281 -105.363281 C 20.246094 -105.363281 14.253906 -105.15625 8.265625 -105.15625 C 1.859375 -105.15625 -4.546875 -105.363281 -10.949219 -105.363281 C -17.355469 -105.363281 -23.757812 -105.570312 -30.164062 -105.570312 C -42.144531 -105.570312 -57.847656 -105.363281 -73.339844 -103.917969 L -73.960938 -103.917969 C -73.960938 -103.917969 -76.234375 -103.917969 -76.648438 -103.917969 C -78.507812 -103.917969 -78.917969 -103.503906 -78.710938 -102.058594 C -78.300781 -101.230469 -78.09375 -100.613281 -77.472656 -99.992188 C -76.851562 -99.578125 -76.027344 -99.371094 -75.199219 -99.371094 C -74.167969 -99.371094 -73.132812 -99.578125 -72.101562 -99.785156 C -64.042969 -101.851562 -55.160156 -102.058594 -46.691406 -102.058594 C -43.386719 -102.058594 -39.871094 -102.058594 -36.566406 -102.265625 C -28.714844 -102.675781 -20.039062 -102.675781 -9.503906 -102.675781 C -3.097656 -102.675781 3.304688 -102.675781 9.917969 -102.675781 C 16.113281 -102.675781 22.519531 -102.472656 28.714844 -102.472656 L 29.128906 -102.472656 L 29.335938 -102.058594 C 31.816406 -98.339844 30.988281 -96.894531 30.371094 -95.445312 C 28.097656 -90.902344 25.824219 -86.148438 23.550781 -81.398438 C 18.59375 -71.6875 13.636719 -61.566406 9.296875 -51.234375 L 8.265625 -48.550781 C -4.957031 -16.734375 -18.386719 16.113281 -21.691406 53.300781 L -21.898438 55.160156 C -22.3125 60.53125 -22.933594 66.316406 -21.074219 72.308594 C -19.214844 78.09375 -15.496094 80.777344 -9.503906 80.777344 L -9.296875 80.777344 C -8.058594 80.777344 -6.609375 80.367188 -7.023438 78.300781 C -7.023438 77.472656 -7.4375 76.851562 -7.851562 76.234375 C -8.265625 76.027344 -8.675781 75.820312 -9.089844 75.613281 C -11.777344 75.40625 -13.429688 74.582031 -14.667969 73.339844 C -16.320312 71.480469 -16.320312 69.210938 -16.320312 66.9375 C -16.320312 66.316406 -16.320312 65.902344 -16.320312 65.285156 C -16.527344 51.855469 -14.667969 38.011719 -10.742188 22.105469 C -0.414062 -18.386719 18.179688 -54.335938 36.152344 -89.25 L 39.667969 -96.273438 C 41.527344 -99.785156 44.417969 -100.40625 48.757812 -100.40625 L 48.964844 -100.40625 C 52.476562 -100.40625 56.195312 -100.40625 59.707031 -100.40625 L 70.242188 -100.40625 C 84.085938 -100.40625 98.957031 -100.199219 114.246094 -98.132812 L 115.074219 -98.132812 C 115.898438 -97.925781 116.933594 -97.71875 117.757812 -97.71875 C 119.824219 -97.71875 120.03125 -98.546875 119.824219 -99.371094 C 119.824219 -100.199219 119.617188 -101.023438 119 -101.4375 Z M 119 -101.4375 "/></g></g></g><g fill="#000000" fill-opacity="1"><g transform="translate(288.924193, 328.050823)"><g><path d="M 70.449219 -30.371094 C 69.621094 -29.75 68.796875 -28.921875 67.96875 -28.097656 C 67.351562 -27.683594 66.9375 -27.0625 66.316406 -26.652344 C 63.011719 -23.757812 59.914062 -21.484375 56.605469 -19.214844 C 49.375 -14.253906 42.144531 -10.949219 34.914062 -8.882812 C 30.164062 -7.4375 26.238281 -6.609375 21.691406 -6.609375 C 19.007812 -6.609375 16.527344 -6.816406 13.84375 -7.644531 C 10.535156 -8.46875 8.265625 -10.125 6.816406 -12.1875 C 5.578125 -13.84375 5.164062 -15.703125 5.578125 -17.5625 L 5.992188 -19.007812 C 7.230469 -25.410156 8.675781 -32.230469 17.972656 -33.675781 C 30.78125 -35.535156 39.460938 -39.667969 45.246094 -46.691406 C 47.722656 -49.789062 49.582031 -52.683594 46.484375 -57.019531 C 44.417969 -59.914062 41.527344 -61.359375 38.21875 -61.359375 C 37.1875 -61.359375 36.152344 -61.359375 34.914062 -60.945312 C 14.460938 -55.574219 2.066406 -43.179688 -1.652344 -24.585938 C -2.890625 -19.007812 -1.652344 -13.84375 1.859375 -9.917969 C 5.578125 -5.992188 11.15625 -3.71875 17.972656 -3.511719 L 19.007812 -3.511719 C 40.285156 -3.511719 55.367188 -15.289062 69.828125 -26.652344 L 71.273438 -27.683594 C 72.308594 -28.511719 74.167969 -29.957031 73.753906 -31.402344 C 72.722656 -31.402344 71.480469 -30.988281 70.449219 -30.371094 Z M 20.246094 -40.90625 C 26.445312 -48.34375 33.054688 -51.648438 41.320312 -54.128906 L 43.179688 -54.746094 L 42.144531 -53.09375 C 37.1875 -45.039062 30.78125 -42.144531 21.074219 -39.871094 L 19.007812 -39.460938 Z M 20.246094 -40.90625 "/></g></g></g><g fill="#000000" fill-opacity="1"><g transform="translate(359.371621, 328.050823)"><g><path d="M 90.074219 -32.023438 C 89.457031 -32.023438 88.835938 -31.609375 88.007812 -31.402344 C 87.597656 -31.195312 86.976562 -30.988281 86.5625 -30.78125 C 85.324219 -30.574219 84.085938 -30.371094 82.84375 -30.371094 C 75.199219 -30.371094 67.144531 -34.707031 61.359375 -41.730469 C 56.195312 -48.136719 52.886719 -51.234375 49.582031 -51.234375 C 47.515625 -51.234375 45.039062 -49.996094 41.113281 -47.105469 C 35.328125 -42.765625 29.957031 -38.21875 24.378906 -33.46875 L 15.703125 -26.238281 C 15.082031 -25.617188 14.460938 -24.996094 13.636719 -24.171875 C 11.984375 -22.519531 10.328125 -20.660156 7.644531 -20.039062 L 7.023438 -20.039062 L 6.816406 -20.453125 C 5.785156 -21.691406 8.675781 -28.097656 8.675781 -28.097656 C 10.125 -30.78125 11.363281 -33.46875 12.601562 -36.152344 C 14.460938 -40.285156 16.113281 -44.625 17.972656 -48.964844 L 19.417969 -52.886719 C 19.625 -53.300781 20.039062 -53.921875 20.246094 -54.335938 C 20.867188 -55.78125 21.898438 -57.226562 21.277344 -58.671875 C 20.867188 -59.5 20.246094 -60.117188 19.214844 -60.738281 C 18.59375 -61.152344 17.972656 -61.359375 17.355469 -61.359375 C 15.703125 -61.359375 14.460938 -59.292969 13.429688 -57.847656 L 13.222656 -57.226562 C 4.957031 -43.796875 -1.652344 -28.714844 -7.230469 -11.15625 L -7.4375 -10.328125 C -8.265625 -8.058594 -9.089844 -5.578125 -5.992188 -3.304688 C -4.957031 -2.480469 -3.925781 -2.066406 -3.097656 -2.066406 C -1.652344 -2.066406 -0.828125 -3.304688 0 -4.546875 C 0.414062 -4.957031 0.828125 -5.371094 1.238281 -5.785156 L 6.199219 -10.949219 C 17.148438 -22.3125 28.511719 -33.882812 41.527344 -43.179688 C 45.246094 -45.863281 47.308594 -47.308594 49.582031 -47.308594 C 52.476562 -47.308594 54.746094 -44.832031 59.707031 -39.046875 C 65.695312 -32.230469 74.582031 -27.890625 82.429688 -27.890625 C 85.53125 -27.890625 88.421875 -28.511719 90.695312 -29.957031 C 91.519531 -30.371094 91.726562 -30.988281 91.519531 -31.195312 C 91.519531 -31.402344 91.109375 -31.816406 90.074219 -32.023438 Z M 90.074219 -32.023438 "/></g></g></g><g fill="#000000" fill-opacity="1"><g transform="translate(446.759491, 328.050823)"><g><path d="M 70.449219 -30.371094 C 69.621094 -29.75 68.796875 -28.921875 67.96875 -28.097656 C 67.351562 -27.683594 66.9375 -27.0625 66.316406 -26.652344 C 63.011719 -23.757812 59.914062 -21.484375 56.605469 -19.214844 C 49.375 -14.253906 42.144531 -10.949219 34.914062 -8.882812 C 30.164062 -7.4375 26.238281 -6.609375 21.691406 -6.609375 C 19.007812 -6.609375 16.527344 -6.816406 13.84375 -7.644531 C 10.535156 -8.46875 8.265625 -10.125 6.816406 -12.1875 C 5.578125 -13.84375 5.164062 -15.703125 5.578125 -17.5625 L 5.992188 -19.007812 C 7.230469 -25.410156 8.675781 -32.230469 17.972656 -33.675781 C 30.78125 -35.535156 39.460938 -39.667969 45.246094 -46.691406 C 47.722656 -49.789062 49.582031 -52.683594 46.484375 -57.019531 C 44.417969 -59.914062 41.527344 -61.359375 38.21875 -61.359375 C 37.1875 -61.359375 36.152344 -61.359375 34.914062 -60.945312 C 14.460938 -55.574219 2.066406 -43.179688 -1.652344 -24.585938 C -2.890625 -19.007812 -1.652344 -13.84375 1.859375 -9.917969 C 5.578125 -5.992188 11.15625 -3.71875 17.972656 -3.511719 L 19.007812 -3.511719 C 40.285156 -3.511719 55.367188 -15.289062 69.828125 -26.652344 L 71.273438 -27.683594 C 72.308594 -28.511719 74.167969 -29.957031 73.753906 -31.402344 C 72.722656 -31.402344 71.480469 -30.988281 70.449219 -30.371094 Z M 20.246094 -40.90625 C 26.445312 -48.34375 33.054688 -51.648438 41.320312 -54.128906 L 43.179688 -54.746094 L 42.144531 -53.09375 C 37.1875 -45.039062 30.78125 -42.144531 21.074219 -39.871094 L 19.007812 -39.460938 Z M 20.246094 -40.90625 "/></g></g></g><g fill="#000000" fill-opacity="1"><g transform="translate(517.206944, 328.050823)"><g><path d="M 70.035156 -36.359375 C 69.828125 -36.566406 69.210938 -36.980469 67.554688 -36.980469 C 64.457031 -36.980469 60.324219 -35.742188 58.671875 -35.328125 C 49.167969 -32.433594 37.808594 -29.128906 27.269531 -24.171875 C 25.617188 -23.34375 24.171875 -22.933594 22.726562 -22.933594 C 18.59375 -22.933594 16.320312 -26.855469 13.015625 -32.023438 C 11.570312 -34.5 9.917969 -36.980469 8.058594 -39.046875 C 4.75 -42.765625 4.546875 -46.277344 7.023438 -48.964844 C 15.082031 -57.640625 25.824219 -62.804688 39.046875 -64.042969 L 39.667969 -64.25 C 40.078125 -64.25 40.492188 -64.25 41.113281 -64.25 C 42.558594 -64.25 43.796875 -63.632812 44.625 -62.390625 C 45.863281 -60.324219 45.039062 -58.671875 44.210938 -57.226562 C 42.765625 -54.335938 41.113281 -51.441406 39.667969 -48.34375 C 38.632812 -46.691406 38.21875 -45.246094 39.871094 -44.003906 C 40.492188 -43.589844 41.113281 -43.386719 41.730469 -43.386719 C 42.765625 -43.386719 43.589844 -44.003906 44.417969 -44.625 C 48.550781 -47.515625 50.824219 -51.027344 51.855469 -55.367188 C 52.886719 -59.085938 52.269531 -62.390625 50.203125 -64.871094 C 48.34375 -66.9375 45.449219 -67.96875 41.730469 -67.96875 L 40.699219 -67.96875 C 24.996094 -67.144531 11.570312 -61.152344 1.03125 -50.617188 C -2.066406 -47.308594 -2.273438 -43.179688 0.828125 -38.21875 L 2.480469 -35.742188 C 3.925781 -33.054688 5.578125 -30.371094 7.4375 -27.683594 C 12.601562 -20.453125 11.984375 -16.113281 5.578125 -12.808594 C -4.546875 -7.4375 -14.875 -1.238281 -22.105469 7.851562 C -27.683594 15.082031 -27.683594 23.550781 -22.3125 28.304688 C -20.246094 29.957031 -17.5625 30.988281 -14.875 30.988281 C -10.742188 30.988281 -6.40625 29.128906 -2.480469 25.617188 C 7.851562 16.734375 13.84375 7.230469 15.703125 -3.097656 C 17.765625 -14.460938 25.410156 -19.007812 33.675781 -23.136719 C 39.046875 -25.617188 45.039062 -28.097656 52.476562 -30.371094 C 56.195312 -31.609375 60.117188 -32.640625 63.835938 -33.46875 C 64.25 -33.675781 64.871094 -33.675781 65.492188 -33.882812 C 67.144531 -34.089844 70.65625 -34.5 70.449219 -35.535156 Z M -9.089844 25.410156 C -10.328125 26.03125 -12.1875 26.652344 -14.460938 26.652344 C -16.320312 26.652344 -17.765625 26.03125 -18.800781 24.996094 C -19.625 23.964844 -20.039062 22.519531 -20.039062 20.660156 C -19.417969 15.082031 -13.429688 9.710938 -8.882812 5.992188 L -7.4375 4.75 C -4.957031 2.273438 -2.066406 0.207031 1.238281 -2.273438 C 1.859375 -2.480469 2.6875 -3.097656 3.925781 -3.511719 C 5.785156 -4.546875 9.503906 -6.40625 9.710938 -7.4375 L 11.15625 -7.023438 C 8.46875 9.089844 2.066406 19.417969 -9.089844 25.410156 Z M -9.089844 25.410156 "/></g></g></g><g fill="#000000" fill-opacity="1"><g transform="translate(581.869844, 328.050823)"><g><path d="M 119 -101.4375 C 118.171875 -102.265625 116.519531 -102.265625 114.867188 -102.265625 C 114.453125 -102.472656 113.832031 -102.472656 113.421875 -102.472656 C 94.828125 -104.535156 78.710938 -105.570312 63.835938 -105.570312 L 45.65625 -105.570312 L 46.070312 -106.601562 C 51.234375 -117.347656 57.640625 -126.023438 63.632812 -134.285156 C 65.695312 -136.972656 67.554688 -139.65625 69.621094 -142.550781 C 71.480469 -145.234375 72.515625 -147.09375 69.828125 -149.367188 C 69.003906 -150.195312 68.175781 -150.609375 67.351562 -150.609375 C 66.109375 -150.609375 65.285156 -149.367188 64.25 -148.335938 C 64.042969 -147.921875 63.835938 -147.507812 63.425781 -147.300781 C 53.300781 -136.144531 45.449219 -124.78125 39.460938 -112.59375 C 36.773438 -106.808594 32.230469 -105.570312 26.238281 -105.363281 C 20.246094 -105.363281 14.253906 -105.15625 8.265625 -105.15625 C 1.859375 -105.15625 -4.546875 -105.363281 -10.949219 -105.363281 C -17.355469 -105.363281 -23.757812 -105.570312 -30.164062 -105.570312 C -42.144531 -105.570312 -57.847656 -105.363281 -73.339844 -103.917969 L -73.960938 -103.917969 C -73.960938 -103.917969 -76.234375 -103.917969 -76.648438 -103.917969 C -78.507812 -103.917969 -78.917969 -103.503906 -78.710938 -102.058594 C -78.300781 -101.230469 -78.09375 -100.613281 -77.472656 -99.992188 C -76.851562 -99.578125 -76.027344 -99.371094 -75.199219 -99.371094 C -74.167969 -99.371094 -73.132812 -99.578125 -72.101562 -99.785156 C -64.042969 -101.851562 -55.160156 -102.058594 -46.691406 -102.058594 C -43.386719 -102.058594 -39.871094 -102.058594 -36.566406 -102.265625 C -28.714844 -102.675781 -20.039062 -102.675781 -9.503906 -102.675781 C -3.097656 -102.675781 3.304688 -102.675781 9.917969 -102.675781 C 16.113281 -102.675781 22.519531 -102.472656 28.714844 -102.472656 L 29.128906 -102.472656 L 29.335938 -102.058594 C 31.816406 -98.339844 30.988281 -96.894531 30.371094 -95.445312 C 28.097656 -90.902344 25.824219 -86.148438 23.550781 -81.398438 C 18.59375 -71.6875 13.636719 -61.566406 9.296875 -51.234375 L 8.265625 -48.550781 C -4.957031 -16.734375 -18.386719 16.113281 -21.691406 53.300781 L -21.898438 55.160156 C -22.3125 60.53125 -22.933594 66.316406 -21.074219 72.308594 C -19.214844 78.09375 -15.496094 80.777344 -9.503906 80.777344 L -9.296875 80.777344 C -8.058594 80.777344 -6.609375 80.367188 -7.023438 78.300781 C -7.023438 77.472656 -7.4375 76.851562 -7.851562 76.234375 C -8.265625 76.027344 -8.675781 75.820312 -9.089844 75.613281 C -11.777344 75.40625 -13.429688 74.582031 -14.667969 73.339844 C -16.320312 71.480469 -16.320312 69.210938 -16.320312 66.9375 C -16.320312 66.316406 -16.320312 65.902344 -16.320312 65.285156 C -16.527344 51.855469 -14.667969 38.011719 -10.742188 22.105469 C -0.414062 -18.386719 18.179688 -54.335938 36.152344 -89.25 L 39.667969 -96.273438 C 41.527344 -99.785156 44.417969 -100.40625 48.757812 -100.40625 L 48.964844 -100.40625 C 52.476562 -100.40625 56.195312 -100.40625 59.707031 -100.40625 L 70.242188 -100.40625 C 84.085938 -100.40625 98.957031 -100.199219 114.246094 -98.132812 L 115.074219 -98.132812 C 115.898438 -97.925781 116.933594 -97.71875 117.757812 -97.71875 C 119.824219 -97.71875 120.03125 -98.546875 119.824219 -99.371094 C 119.824219 -100.199219 119.617188 -101.023438 119 -101.4375 Z M 119 -101.4375 "/></g></g></g><g fill="#000000" fill-opacity="1"><g transform="translate(617.40343, 328.050823)"><g><path d="M 70.035156 -36.359375 C 69.828125 -36.566406 69.210938 -36.980469 67.554688 -36.980469 C 64.457031 -36.980469 60.324219 -35.742188 58.671875 -35.328125 C 49.167969 -32.433594 37.808594 -29.128906 27.269531 -24.171875 C 25.617188 -23.34375 24.171875 -22.933594 22.726562 -22.933594 C 18.59375 -22.933594 16.320312 -26.855469 13.015625 -32.023438 C 11.570312 -34.5 9.917969 -36.980469 8.058594 -39.046875 C 4.75 -42.765625 4.546875 -46.277344 7.023438 -48.964844 C 15.082031 -57.640625 25.824219 -62.804688 39.046875 -64.042969 L 39.667969 -64.25 C 40.078125 -64.25 40.492188 -64.25 41.113281 -64.25 C 42.558594 -64.25 43.796875 -63.632812 44.625 -62.390625 C 45.863281 -60.324219 45.039062 -58.671875 44.210938 -57.226562 C 42.765625 -54.335938 41.113281 -51.441406 39.667969 -48.34375 C 38.632812 -46.691406 38.21875 -45.246094 39.871094 -44.003906 C 40.492188 -43.589844 41.113281 -43.386719 41.730469 -43.386719 C 42.765625 -43.386719 43.589844 -44.003906 44.417969 -44.625 C 48.550781 -47.515625 50.824219 -51.027344 51.855469 -55.367188 C 52.886719 -59.085938 52.269531 -62.390625 50.203125 -64.871094 C 48.34375 -66.9375 45.449219 -67.96875 41.730469 -67.96875 L 40.699219 -67.96875 C 24.996094 -67.144531 11.570312 -61.152344 1.03125 -50.617188 C -2.066406 -47.308594 -2.273438 -43.179688 0.828125 -38.21875 L 2.480469 -35.742188 C 3.925781 -33.054688 5.578125 -30.371094 7.4375 -27.683594 C 12.601562 -20.453125 11.984375 -16.113281 5.578125 -12.808594 C -4.546875 -7.4375 -14.875 -1.238281 -22.105469 7.851562 C -27.683594 15.082031 -27.683594 23.550781 -22.3125 28.304688 C -20.246094 29.957031 -17.5625 30.988281 -14.875 30.988281 C -10.742188 30.988281 -6.40625 29.128906 -2.480469 25.617188 C 7.851562 16.734375 13.84375 7.230469 15.703125 -3.097656 C 17.765625 -14.460938 25.410156 -19.007812 33.675781 -23.136719 C 39.046875 -25.617188 45.039062 -28.097656 52.476562 -30.371094 C 56.195312 -31.609375 60.117188 -32.640625 63.835938 -33.46875 C 64.25 -33.675781 64.871094 -33.675781 65.492188 -33.882812 C 67.144531 -34.089844 70.65625 -34.5 70.449219 -35.535156 Z M -9.089844 25.410156 C -10.328125 26.03125 -12.1875 26.652344 -14.460938 26.652344 C -16.320312 26.652344 -17.765625 26.03125 -18.800781 24.996094 C -19.625 23.964844 -20.039062 22.519531 -20.039062 20.660156 C -19.417969 15.082031 -13.429688 9.710938 -8.882812 5.992188 L -7.4375 4.75 C -4.957031 2.273438 -2.066406 0.207031 1.238281 -2.273438 C 1.859375 -2.480469 2.6875 -3.097656 3.925781 -3.511719 C 5.785156 -4.546875 9.503906 -6.40625 9.710938 -7.4375 L 11.15625 -7.023438 C 8.46875 9.089844 2.066406 19.417969 -9.089844 25.410156 Z M -9.089844 25.410156 "/></g></g></g></svg>