<svg xmlns="http://www.w3.org/2000/svg" xmlns:xlink="http://www.w3.org/1999/xlink" width="1280" zoomAndPan="magnify" viewBox="0 0 960 599.999999" height="800" preserveAspectRatio="xMidYMid meet" version="1.0"><defs><filter x="0%" y="0%" width="100%" height="100%" id="22fa027967"><feColorMatrix values="0 0 0 0 1 0 0 0 0 1 0 0 0 0 1 0 0 0 1 0" color-interpolation-filters="sRGB"/></filter><g/><mask id="7c4d370ca4"><g filter="url(#22fa027967)"><rect x="-96" width="1152" fill="#000000" y="-60" height="719.999999" fill-opacity="0.67"/></g></mask><clipPath id="5748d771c8"><path d="M 3.011719 0.199219 L 900.996094 0.199219 L 900.996094 141 L 3.011719 141 Z M 3.011719 0.199219 " clip-rule="nonzero"/></clipPath><clipPath id="84997ce1ae"><path d="M 315.007812 40.851562 C 310.296875 38.777344 298.546875 39.671875 290.214844 39 C 289.964844 39.449219 290.664062 39.53125 291.367188 39.589844 C 291.898438 40.964844 285.5625 37.878906 286.597656 40.488281 C 282.222656 40.65625 274.820312 39.363281 272.378906 40.515625 C 277.121094 40.683594 281.859375 40.851562 286.570312 41.019531 C 290.664062 40.121094 292.039062 41.382812 296.050781 40.824219 C 296.667969 40.738281 293.046875 39.785156 292.515625 40.148438 C 294.675781 38.636719 300.59375 40.488281 307.914062 40.09375 C 308.082031 41.273438 303.707031 40.234375 301.996094 40.488281 C 300.902344 41.972656 311.082031 40.488281 315.007812 40.851562 Z M 281.101562 28.933594 C 278.886719 27.78125 290.582031 28.933594 294.113281 28.847656 C 294.199219 28.511719 294.308594 28.203125 295.320312 28.34375 C 294.757812 30.644531 285.390625 28.511719 281.101562 28.933594 Z M 290.328125 35.773438 C 296.21875 36.308594 299.191406 34.652344 302.136719 36.730469 C 298.546875 36.25 291.925781 37.066406 290.328125 35.773438 Z M 247.644531 37.933594 C 249.972656 37.542969 261.582031 36.449219 267.753906 38.1875 C 260.683594 38.859375 255.496094 39.953125 247.644531 37.933594 Z M 523.320312 34.0625 C 523.292969 34.792969 523.910156 35.242188 524.554688 35.636719 C 520.855469 35.605469 515.414062 32.269531 510.449219 34.597656 C 511.460938 34.121094 514.125 34.960938 513.984375 34.988281 C 510.28125 35.410156 505.515625 35.550781 501.867188 35.832031 C 498.222656 36.082031 495.699219 36.558594 496.484375 37.765625 C 493.453125 36.28125 487.398438 36.785156 484.703125 36.449219 C 486.78125 36.140625 484.171875 35.886719 483.5 35.410156 C 491.492188 35.578125 499.820312 35.605469 504.617188 34.851562 C 504.589844 34.121094 502.542969 34.429688 502.261719 33.867188 C 512.078125 32.914062 546.542969 34.625 523.320312 34.0625 Z M 462.382812 36.476562 C 456.351562 36.8125 436.1875 36.449219 451.808594 36.054688 C 455.089844 35.296875 460.195312 36.082031 463.53125 34.289062 C 467.933594 35.578125 478.925781 33.644531 479.992188 36.558594 C 476.234375 35.410156 456.714844 38.777344 462.382812 36.476562 Z M 330.402344 40.179688 C 335.730469 40.039062 339.183594 39.449219 342.210938 41.019531 C 338.648438 40.597656 332.03125 41.441406 330.402344 40.179688 Z M 407.132812 31.960938 C 411.089844 32.324219 415.714844 32.382812 417.707031 33.617188 C 412.519531 33.839844 409.460938 33.054688 407.132812 31.960938 Z M 202.464844 26.351562 C 203.082031 25.316406 208.242188 25.371094 213.121094 25.734375 C 218.03125 26.070312 222.683594 26.714844 222.265625 26.941406 C 215.5625 26.773438 207.457031 25.734375 202.464844 26.351562 Z M 363.582031 33.757812 C 369.582031 33.167969 377.996094 33.757812 383.605469 32.96875 C 380.492188 34.597656 368.292969 34.738281 363.582031 33.757812 Z M 159.445312 30.417969 C 154.085938 29.996094 149.039062 29.351562 143.234375 27.5 C 155.238281 29.773438 169.289062 29.324219 177.644531 31.707031 C 170.464844 30.980469 164.773438 30.867188 159.445312 30.417969 Z M 106.382812 18.640625 C 106.945312 18.890625 107.503906 19.144531 108.039062 19.367188 C 107.253906 19.199219 106.355469 19.058594 106.382812 18.640625 Z M 108.570312 19.480469 C 108.488281 19.480469 108.402344 19.480469 108.292969 19.453125 C 108.207031 19.425781 108.121094 19.398438 108.066406 19.339844 C 108.234375 19.398438 108.402344 19.425781 108.570312 19.480469 Z M 192.984375 28.457031 C 191.441406 26.914062 176.664062 27.726562 180.394531 25.929688 C 180.730469 26.914062 195.929688 26.578125 192.984375 28.457031 Z M 132.351562 21.164062 C 136.167969 21.695312 139.617188 22.257812 141.328125 23.492188 C 134.121094 22.425781 126.042969 21.472656 121.136719 19.507812 C 124.386719 20.238281 128.566406 20.632812 132.351562 21.164062 Z M 94.183594 16.257812 C 97.523438 17.125 103.859375 17.097656 105.261719 18.472656 C 101.898438 17.714844 95.53125 17.6875 94.183594 16.257812 Z M 76.460938 15.023438 C 66.308594 12.890625 56.210938 10.421875 44.40625 8.433594 C 47.351562 7.953125 51.136719 8.152344 55.316406 8.683594 C 59.523438 9.21875 64.234375 9.945312 68.945312 10.789062 C 55.371094 7.03125 40.421875 6.777344 26.203125 3.46875 C 24.015625 2.710938 26.511719 1.085938 24.773438 0.269531 C 19.136719 -0.179688 17.625 3.046875 11.621094 2.316406 C 12.660156 4.085938 17.257812 5.179688 19.613281 6.722656 C 17.203125 4.671875 20.847656 5.066406 22.476562 4.703125 C 24.800781 5.261719 25.449219 6.132812 26.035156 7 C 25.195312 5.347656 30.355469 6.046875 35.628906 6.917969 C 38.460938 10.199219 31.8125 9.21875 29.878906 11.628906 C 31.617188 12.917969 35.460938 13.761719 38.769531 14.714844 C 42.078125 15.667969 44.882812 16.621094 44.433594 18.414062 C 47.183594 18.582031 50.378906 19.144531 53.578125 19.675781 C 56.746094 20.183594 59.914062 20.574219 62.496094 20.546875 C 60.867188 18.582031 56.492188 19.734375 53.632812 18.78125 C 58.398438 17.796875 64.261719 17.628906 70.824219 18.164062 C 74.132812 18.359375 77.609375 18.695312 81.226562 19.144531 C 83.023438 19.367188 84.875 19.621094 86.726562 19.902344 C 88.605469 20.152344 90.511719 20.433594 92.445312 20.6875 C 107.8125 23.070312 124.753906 26.042969 139.785156 27.699219 C 125.789062 24.390625 117.488281 23.351562 108.320312 19.480469 C 96.597656 18.949219 86.527344 17.125 76.460938 15.023438 Z M 56.242188 17.125 C 53.519531 16.929688 49.089844 18.5 46.117188 16.03125 C 49.230469 16.535156 54.78125 15.835938 56.242188 17.125 Z M 116.789062 17.882812 C 112.554688 17.097656 105.066406 15.75 98.894531 15.359375 C 101.644531 13.789062 118.722656 17.433594 116.789062 17.882812 Z M 167.6875 25.453125 C 170.746094 25.707031 173.832031 25.960938 176.886719 26.183594 C 177.871094 28.820312 168.25 25.398438 167.550781 27.054688 C 169.457031 27.277344 178.011719 27.585938 174.421875 28.148438 C 165.472656 27.472656 144.1875 25.707031 144.664062 24.894531 C 146.683594 24.808594 151.285156 26.238281 151.5625 25.0625 C 149.40625 23.773438 145.28125 23.128906 142.671875 21.976562 C 146.261719 20.292969 149.433594 24.808594 152.9375 23.015625 C 153.890625 21.640625 147.496094 22.902344 148.480469 21.5 C 153.695312 22.0625 158.910156 22.566406 163.902344 23.210938 C 168.894531 23.800781 173.71875 24.417969 178.179688 25.203125 C 174.925781 25.453125 170.046875 24.726562 167.6875 25.453125 Z M 64.429688 4.925781 C 62.632812 4.226562 60.785156 3.75 58.90625 3.410156 C 57.054688 3.046875 55.257812 2.738281 53.578125 2.484375 C 50.238281 1.980469 47.433594 1.5625 46.199219 0.523438 C 53.042969 1.390625 57.867188 0.832031 64.09375 1 C 65.074219 2.710938 66 3.691406 64.429688 4.925781 Z M 246.328125 40.597656 C 250.476562 40.683594 253.898438 41.046875 255.75 42.085938 C 251.597656 42 248.175781 41.609375 246.328125 40.597656 Z M 678.605469 108.496094 C 686.289062 107.570312 694.421875 106.363281 699.328125 107.09375 C 692.515625 107.484375 684.355469 108.691406 678.605469 108.496094 Z M 722.464844 53.164062 C 718.429688 53.023438 714.5 52.824219 711.527344 52.011719 C 714.839844 52.265625 725.914062 50.527344 724.652344 51.761719 C 722.914062 52.097656 720.277344 52.179688 720.027344 52.964844 C 721.679688 52.6875 724.570312 52.433594 722.464844 53.164062 Z M 752.558594 83.757812 C 760.046875 82.078125 765.765625 82.328125 755.027344 83.898438 C 749.78125 84.515625 741.59375 86.648438 738.171875 85.917969 C 741.285156 86.199219 741.59375 83.253906 742.882812 84.683594 C 742.152344 84.824219 741.480469 84.964844 741.761719 85.386719 C 744.117188 83.367188 747.957031 84.234375 752.558594 83.757812 Z M 9.996094 85.917969 C 9.574219 86.816406 5.789062 85.246094 4.863281 85.75 C 18.546875 90.9375 21.660156 99.578125 17.144531 104.933594 C 25.054688 106.449219 27.496094 108.773438 30.019531 111.214844 C 32.542969 113.625 35.152344 116.066406 43.394531 117.214844 C 46.367188 117.945312 41.714844 118.367188 40.5625 118.308594 C 46.675781 119.234375 53.855469 120.328125 61.625 121.535156 C 69.367188 122.769531 77.667969 123.835938 86.050781 125.011719 C 102.824219 127.144531 120.011719 129.050781 133.8125 129.949219 C 136 129.078125 133.753906 129.246094 134.035156 127.789062 C 179.71875 131.40625 224.394531 134.4375 268.230469 136.960938 C 312.089844 139.597656 356.007812 141.503906 399.703125 140.746094 C 411.566406 140.519531 423.089844 140.15625 434.980469 139.625 C 488.492188 137.578125 543.570312 134.941406 595.84375 129.191406 C 601.285156 128.574219 608.800781 127.816406 616.375 127.199219 C 623.945312 126.582031 631.628906 126.105469 637.351562 125.796875 C 638.78125 125.574219 638.304688 124.703125 638.417969 124.058594 C 641.808594 124.816406 649.101562 123.332031 654.347656 123.050781 C 654.878906 122.152344 642.539062 123.667969 639.539062 122.882812 C 642.652344 121.535156 649.464844 122.40625 657.824219 121.085938 C 655.382812 120.386719 651.375 120.582031 647.925781 120.441406 C 654.710938 118.617188 660.320312 118.199219 666.433594 117.890625 C 672.546875 117.609375 679.195312 117.132812 688.054688 115.5625 C 690.691406 115.503906 690.269531 114.523438 690.300781 113.65625 C 699.078125 112.617188 706.230469 112.730469 715.902344 111.019531 C 709.820312 109.925781 700.761719 110.289062 690.71875 111.382812 C 680.679688 112.449219 669.6875 114.1875 659.648438 114.917969 C 663.347656 114.074219 667.472656 113.457031 671.816406 112.785156 C 676.164062 112.085938 680.765625 111.46875 685.417969 110.851562 C 694.730469 109.617188 704.351562 108.578125 712.875 107.0625 C 703.929688 107.175781 694.84375 107.878906 686.316406 108.941406 C 677.792969 109.980469 669.828125 111.410156 663.066406 112.421875 C 661.664062 110.90625 665.675781 111.1875 667.808594 110.878906 C 660.179688 111.101562 639.453125 113.796875 633.875 114.777344 C 632.472656 114.214844 630.339844 113.851562 628.070312 113.570312 C 625.796875 113.289062 623.414062 113.121094 621.507812 113.121094 C 617.328125 115.675781 600.082031 115.757812 588.863281 117.300781 C 592.675781 115.140625 601.734375 114.859375 609.363281 114.074219 C 609.699219 113.683594 606.335938 113.488281 605.6875 113.824219 C 609.671875 111.804688 620.328125 111.074219 631.628906 110.234375 C 642.902344 109.28125 654.824219 108.4375 661.246094 106.644531 L 669.125 105.859375 L 676.976562 104.933594 C 686.09375 103.894531 678.070312 103.839844 673.277344 104.820312 C 662.648438 105.832031 654.738281 107.0625 646.660156 107.542969 C 651.429688 106.953125 658.078125 105.632812 664.835938 104.289062 C 668.226562 103.644531 671.621094 102.859375 674.847656 102.15625 C 678.070312 101.457031 681.128906 100.808594 683.765625 100.304688 C 685.027344 100.082031 702.640625 98.398438 694.5625 98.453125 C 689.738281 98.425781 684.496094 99.296875 679.136719 100.136719 C 673.78125 100.980469 668.339844 101.847656 663.152344 101.566406 C 667.273438 100.867188 672.800781 97.808594 677.511719 98.875 C 682.136719 97.109375 688.082031 95.761719 694.816406 94.640625 C 701.515625 93.492188 709.003906 92.734375 716.660156 91.667969 C 724.316406 90.660156 732.140625 89.734375 739.601562 88.667969 C 743.332031 88.132812 746.949219 87.601562 750.398438 86.957031 C 753.847656 86.253906 757.101562 85.527344 760.128906 84.742188 C 762.375 84.234375 772.019531 83.085938 768.429688 82.777344 C 749.445312 86.789062 729.167969 89.507812 708.527344 92.398438 C 711.699219 90.769531 717.894531 89.929688 724.007812 89.085938 C 723.925781 87.769531 710.996094 89.257812 720.109375 87.460938 C 717.417969 87.546875 714.164062 87.796875 710.492188 88.164062 C 706.816406 88.527344 702.722656 88.835938 698.460938 89.3125 C 689.90625 90.210938 680.539062 91.359375 671.984375 92.453125 C 676.5 90.996094 682.953125 89.59375 690.300781 88.300781 C 693.972656 87.65625 697.84375 87.039062 701.824219 86.421875 C 703.816406 86.113281 705.808594 85.835938 707.828125 85.527344 C 709.820312 85.191406 711.835938 84.851562 713.828125 84.542969 C 729.785156 81.878906 744.902344 79.582031 750.453125 77.617188 C 755.558594 76.972656 761.054688 76.074219 764.925781 76.269531 C 769.132812 74.167969 760.214844 75.90625 757.605469 76.410156 C 763.1875 73.691406 762.316406 74.449219 769.246094 72.792969 C 766.300781 71.167969 758.082031 75.65625 750.203125 76.019531 C 761.839844 75.375 748.464844 77.925781 745.351562 76.214844 C 746.808594 75.765625 751.996094 74.222656 757.074219 73.214844 C 756.738281 72.066406 751.996094 73.832031 749.867188 73.886719 C 758.109375 70.355469 778.441406 68.027344 785.117188 65.726562 C 787.613281 65.671875 794.371094 63.59375 788.566406 64.578125 C 778.273438 66.203125 760.886719 71.109375 756.457031 69.484375 C 761.476562 67.96875 766.972656 66.511719 772.804688 65.109375 C 775.722656 64.410156 778.695312 63.707031 781.753906 63.0625 C 784.78125 62.390625 787.894531 61.746094 790.980469 61.015625 C 803.402344 58.15625 816.304688 55.628906 828.054688 53.527344 C 834.617188 52.488281 837.085938 50.640625 829.121094 52.742188 C 827.242188 52.964844 829.933594 51.5625 827.71875 51.957031 C 814.171875 53.835938 801.886719 56.359375 788.847656 59.277344 C 782.3125 60.652344 775.554688 61.96875 768.347656 63.371094 C 761.140625 64.746094 753.539062 66.230469 745.183594 67.523438 C 747.652344 65.699219 757.859375 65.753906 760.382812 63.902344 C 758.449219 63.933594 752.136719 64.800781 745.015625 65.839844 C 737.890625 66.792969 729.953125 68.082031 724.820312 69.371094 C 727.570312 68.054688 722.71875 69.175781 716.324219 70.464844 C 713.128906 71.109375 709.539062 71.8125 706.339844 72.234375 C 703.144531 72.597656 700.3125 72.765625 698.628906 72.402344 C 701.515625 71.8125 704.796875 71.222656 708.304688 70.464844 C 711.808594 69.707031 715.59375 68.953125 719.523438 68.277344 C 727.347656 66.90625 735.703125 65.78125 743.640625 65.558594 C 754.351562 62.109375 768.261719 58.183594 783.941406 54.734375 C 791.765625 52.882812 800.007812 50.945312 808.507812 49.238281 C 817.003906 47.496094 825.8125 46.011719 834.589844 44.273438 C 834.28125 43.878906 833.296875 43.992188 833.1875 43.460938 C 839.046875 42.199219 859.941406 37.148438 846.929688 39.28125 C 828.503906 42.785156 777.519531 54.789062 753.316406 57.929688 C 753.679688 58.464844 755.699219 57.902344 755.839844 58.601562 C 749.53125 60.230469 747.847656 58.910156 742.714844 59.640625 C 739.714844 60.679688 747.480469 59.667969 748.773438 59.78125 C 742.011719 63.089844 732.871094 61.660156 727.347656 61.855469 C 720.585938 62.023438 711.109375 64.15625 702.359375 65.417969 C 693.609375 66.652344 685.644531 67.324219 682.054688 65.109375 C 677.820312 69.261719 673.667969 64.996094 665.480469 67.101562 C 665.085938 68.867188 670.949219 66.847656 671.566406 68 C 671.929688 69.484375 665.453125 67.941406 669.265625 68.839844 C 659.757812 68.109375 649.859375 69.203125 639.371094 70.632812 C 634.125 71.308594 628.769531 72.121094 623.21875 72.597656 C 617.691406 73.046875 612 73.296875 606.136719 73.101562 C 612.28125 71.757812 620.242188 70.941406 628.601562 69.878906 C 636.957031 68.785156 645.679688 67.660156 653.363281 66.121094 C 652.71875 64.96875 647.503906 66.484375 645.007812 66.398438 C 649.296875 64.746094 655.636719 63.761719 662.589844 63.035156 C 669.546875 62.222656 677.117188 61.464844 683.878906 60.511719 C 686.234375 60.230469 688.589844 59.949219 690.972656 59.667969 C 693.890625 59.386719 692.90625 58.773438 690.917969 59.136719 C 686.988281 59.613281 683.035156 60.089844 679.109375 60.566406 C 675.519531 60.144531 667.105469 62.082031 661.273438 61.546875 C 658.609375 61.519531 659.703125 62.726562 657.851562 62.976562 C 652.777344 62.867188 646.523438 63.453125 640.042969 64.183594 C 642.792969 62.332031 650.449219 62.164062 656.503906 61.464844 C 656.8125 59.191406 654.007812 61.941406 650.53125 61.519531 C 649.128906 59.835938 654.121094 60.3125 656.335938 59.867188 C 650.898438 58.941406 645.089844 61.265625 639.734375 60.960938 C 649.15625 57.734375 664.132812 58.292969 675.15625 57.230469 C 672.828125 58.097656 668.957031 58.714844 665.5625 59.109375 C 662.171875 59.472656 659.226562 59.585938 658.722656 59.640625 C 660.570312 60.0625 663.039062 60.203125 665.84375 60.035156 C 668.648438 59.867188 671.816406 59.472656 675.070312 59.023438 C 681.605469 58.097656 688.617188 56.921875 694.199219 56.585938 C 692.851562 55.492188 688.644531 56.136719 684.632812 56.640625 C 685 55.378906 690.410156 55.714844 692.824219 55.097656 C 687.804688 54.367188 681.578125 54.902344 674.707031 55.769531 C 671.257812 56.21875 667.667969 56.695312 663.964844 57.171875 C 660.261719 57.566406 656.421875 57.902344 652.578125 58.070312 C 664.246094 55.070312 675.546875 56.21875 684.242188 53.414062 C 688.140625 53.132812 676.921875 53.191406 672.433594 54.3125 C 671.902344 53.441406 673.25 53.191406 674.652344 52.9375 C 671.957031 52.855469 668.734375 53.050781 665.171875 53.414062 C 661.582031 53.75 657.65625 54.117188 653.5625 54.621094 C 645.371094 55.546875 636.566406 56.695312 628.683594 57.199219 C 636.285156 53.890625 652.355469 53.554688 665.03125 51.957031 C 680.511719 50.300781 672.210938 50.160156 661.441406 51.789062 C 669.011719 50.21875 676.667969 48.984375 684.296875 47.945312 C 691.925781 46.851562 699.554688 46.011719 706.984375 44.636719 C 703.3125 42.8125 694.703125 44.804688 684.523438 45.785156 C 686.542969 44.355469 691.28125 43.824219 696.105469 43.292969 C 688 43.488281 677.203125 44.917969 665.929688 46.488281 C 654.625 47.917969 642.792969 49.265625 632.753906 49.714844 C 645.121094 48.171875 656.195312 45.226562 665.535156 45.871094 C 666.601562 43.375 672.015625 45.898438 668.816406 43.292969 C 675.800781 42.84375 683.429688 42.335938 691.335938 41.832031 C 695.292969 41.582031 699.300781 41.328125 703.339844 41.019531 C 707.351562 40.625 711.390625 40.234375 715.398438 39.785156 C 723.421875 38.917969 731.300781 37.878906 738.648438 36.644531 C 745.996094 35.410156 752.78125 33.644531 758.644531 31.792969 C 764.617188 30.335938 749.699219 32.214844 749.222656 32.296875 C 742.433594 33.390625 734.75 34.234375 726.617188 35.242188 C 718.484375 36.25 709.847656 37.316406 701.070312 38.4375 C 692.261719 39.363281 683.289062 40.347656 674.453125 41.382812 C 670.050781 41.917969 665.675781 42.421875 661.414062 42.925781 C 657.121094 43.402344 652.914062 43.851562 648.820312 44.300781 C 652.242188 42.675781 660.910156 43.011719 666.320312 41.945312 C 667.21875 41.273438 664.667969 41.550781 661.386719 41.917969 C 658.132812 42.28125 654.148438 42.785156 652.214844 42.871094 C 656.085938 41.804688 660.152344 41.019531 664.386719 40.148438 C 668.621094 39.308594 673.023438 38.550781 677.59375 37.824219 C 682.167969 37.121094 686.878906 36.421875 691.730469 35.664062 C 696.582031 34.90625 701.574219 34.203125 706.648438 33.109375 C 706.566406 32.296875 699.667969 33.335938 705.332031 32.214844 C 697.84375 32.074219 691.113281 32.492188 683.933594 33.308594 C 676.753906 34.0625 669.097656 35.101562 659.703125 35.578125 C 662.730469 34.0625 670.890625 34.0625 675.914062 33.109375 C 686.457031 31.625 672.996094 32.632812 668.875 33.417969 C 660.570312 34.652344 652.664062 35.128906 643.074219 35.941406 C 633.480469 36.671875 622.207031 37.710938 607.007812 38.832031 C 607.398438 37.570312 612.757812 38.160156 615.140625 37.652344 C 599.996094 38.609375 582.804688 36.757812 565.835938 38.46875 C 566.035156 40.796875 572.960938 39.503906 577.644531 39.394531 C 566.425781 40.683594 552.265625 41.859375 538.886719 41.890625 C 525.480469 41.804688 512.863281 40.765625 504.757812 38.160156 C 493.792969 38.832031 488.460938 38.578125 476.570312 38.917969 C 473.570312 38.972656 475.140625 39.363281 475.421875 40.039062 C 461.398438 39.363281 444.882812 39.871094 428.644531 40.683594 C 412.40625 41.410156 396.421875 41.945312 383.578125 41.1875 C 395.160156 39.980469 403.542969 40.65625 415.40625 39.644531 C 414.230469 38.746094 409.964844 39.253906 409.515625 37.992188 C 401.636719 40.011719 389.550781 40.179688 377.351562 40.09375 C 365.152344 39.980469 352.867188 39.839844 344.621094 41.664062 C 356.121094 40.710938 363.636719 40.933594 382.425781 41.160156 C 382.847656 42.085938 381.5 42.167969 380.042969 42.199219 C 390 43.769531 400.9375 41.410156 411.902344 42.871094 C 406.347656 44.46875 400.066406 44.890625 393.589844 44.945312 C 387.109375 45 380.464844 44.722656 374.125 44.832031 C 357.296875 45.199219 342.015625 45.730469 323.253906 45.476562 C 325.75 44.691406 329.507812 44.523438 333.9375 44.664062 C 321.820312 43.261719 298.347656 45.898438 285.421875 42.703125 C 280.792969 44.160156 271.230469 43.9375 261.976562 43.460938 C 252.71875 42.925781 243.800781 42.167969 240.410156 42.5625 C 239.0625 41.691406 235.527344 41.691406 235.808594 40.179688 C 225.855469 40.625 208.859375 39.785156 200.667969 37.710938 C 206.699219 37.207031 221.449219 37.652344 233.539062 38.4375 C 222.601562 35.410156 205.859375 35.464844 189.285156 33.167969 C 189.59375 33.925781 192.171875 33.8125 193.882812 34.035156 C 172.792969 33.476562 148.816406 32.886719 130.445312 28.902344 C 130.277344 27.417969 134.707031 30.867188 133.980469 28.230469 C 128.089844 27.980469 125.820312 26.464844 120.40625 26.042969 C 120.460938 27.054688 124.21875 26.828125 124.808594 27.671875 C 116.871094 26.886719 109.496094 26.128906 102.316406 25.652344 C 98.757812 25.371094 95.25 25.089844 91.800781 24.808594 C 88.351562 24.558594 84.929688 24.304688 81.535156 23.96875 C 78.144531 23.632812 74.777344 23.296875 71.355469 22.988281 C 67.964844 22.621094 64.597656 22.117188 61.148438 21.640625 C 54.277344 20.714844 47.351562 19.257812 40.03125 17.574219 C 35.460938 18.640625 26.792969 16.453125 21.578125 16.929688 C 25.222656 18.359375 21.101562 18.414062 25.953125 18.050781 C 27.523438 20.769531 24.128906 22.539062 21.042969 24.667969 C 18.015625 26.773438 15.238281 29.351562 18.296875 34.007812 C 14.0625 34.203125 15.882812 36.082031 12.546875 37.484375 C 20.289062 39.503906 14.425781 43.878906 20.035156 46.152344 C 19.472656 46.65625 17.820312 46.292969 16.359375 46.066406 C 14.902344 45.816406 13.613281 45.703125 13.78125 46.796875 C 16.082031 47.890625 13.386719 50.105469 14.59375 53.191406 C 13.527344 54.03125 11.144531 53.75 8.398438 53.191406 C 8.425781 55.183594 13.472656 56.445312 15.855469 57.957031 C 8.59375 57.679688 13.332031 62.277344 5.871094 62.613281 C 7.808594 67.660156 5.285156 70.632812 4.023438 73.777344 C 3.375 75.347656 3.066406 76.972656 3.796875 78.9375 C 4.527344 80.703125 6.320312 83.058594 9.996094 85.917969 Z M 629.273438 64.042969 C 629.667969 63.0625 627.394531 62.839844 629.132812 62.417969 C 630.902344 63.679688 641.304688 61.042969 641.054688 62.332031 C 638.894531 63.511719 633.285156 63.511719 629.273438 64.042969 Z M 625.742188 64.378906 C 628.179688 64.71875 638.894531 63.175781 635.359375 65.082031 C 633.621094 63.988281 626.441406 66.0625 625.742188 64.378906 Z M 662.898438 76.496094 C 670.808594 76.046875 681.042969 73.804688 685.503906 73.832031 C 685.839844 74.476562 687.496094 74.699219 684.4375 75.039062 C 679.195312 76.101562 675.773438 76.300781 672.238281 76.46875 C 670.472656 76.550781 668.675781 76.609375 666.628906 76.75 C 664.554688 76.859375 662.226562 77.027344 659.367188 77.363281 C 653.53125 77.785156 660.433594 76.441406 662.898438 76.496094 Z M 474.300781 44.300781 C 480.050781 43.683594 486.304688 45.675781 486.136719 46.179688 C 481.480469 45.898438 477.441406 45.308594 474.300781 44.300781 Z M 459.015625 46.265625 C 462.605469 46.601562 469.140625 45.339844 470.792969 46.542969 C 467.234375 46.292969 460.671875 47.496094 459.015625 46.265625 Z M 455.453125 43.570312 C 445.75 43.179688 434.785156 43.292969 430.691406 41.664062 C 439.777344 42.730469 447.347656 41.664062 455.453125 43.570312 Z M 426.007812 45.507812 C 431.671875 45.898438 441.710938 44.246094 443.703125 46.402344 C 440.84375 45.898438 418.742188 46.570312 426.007812 45.507812 Z M 508.207031 37.375 C 517.574219 37.765625 532.773438 36.335938 533.027344 41.214844 C 527.109375 39.421875 507.730469 38.804688 508.207031 37.375 Z M 720.082031 105.464844 C 716.074219 106 708.359375 105.832031 708.976562 105.382812 C 711.921875 105.382812 717.671875 103.472656 718.738281 104.566406 C 716.578125 105.128906 719.324219 105.074219 720.082031 105.464844 Z M 736.992188 53.808594 C 731.863281 55.210938 719.351562 57.089844 719.101562 54.734375 C 723.757812 55.378906 732.394531 52.125 736.992188 53.808594 Z M 684.214844 63.089844 C 683.007812 62.082031 677.511719 63.707031 676.921875 62.332031 L 684.015625 61.464844 C 683.652344 62.472656 685.925781 62.667969 684.214844 63.089844 Z M 352.8125 43.347656 C 354.886719 42.925781 356.511719 41.582031 357.523438 43.429688 C 355.8125 44.609375 354.664062 42.703125 353.960938 43.90625 L 344.511719 43.769531 C 345.070312 42.5625 350.34375 43.628906 352.8125 43.347656 Z M 707.015625 63.035156 C 705.835938 63.203125 704.65625 63.371094 703.453125 63.511719 C 687.804688 65.082031 700.675781 61.351562 707.015625 63.035156 Z M 727.179688 60.679688 C 720.726562 60.988281 710.546875 62.976562 709.257812 61.632812 C 714.753906 61.605469 723.027344 59.808594 727.179688 60.679688 Z M 27.914062 115.644531 C 26.878906 115.027344 24.691406 114.917969 21.941406 114.664062 C 19.195312 114.410156 15.882812 113.992188 12.632812 112.730469 C 13.445312 108.832031 29.207031 114.355469 27.914062 115.644531 Z M 721.429688 29.242188 C 725.746094 28.566406 729.476562 28.316406 732.03125 28.820312 C 727.792969 29.410156 722.886719 30.417969 721.429688 29.242188 Z M 882.488281 19.453125 C 889.640625 17.519531 893.089844 16.144531 900.996094 15.300781 C 893.539062 16.957031 887.875 20.800781 882.488281 19.453125 Z M 825.304688 12.386719 C 830.492188 9.863281 839.582031 11.039062 825.304688 12.386719 Z M 688.589844 30.953125 C 694.085938 30.644531 702.414062 28.59375 706.058594 29.269531 C 700.621094 29.773438 692.261719 31.738281 688.589844 30.953125 Z M 543.484375 38.609375 C 549.964844 38.496094 558.070312 37.484375 560.003906 39.785156 C 555.964844 38.636719 544.074219 41.636719 543.484375 38.609375 Z M 796.476562 67.886719 C 794.710938 68.503906 791.457031 69.457031 788.203125 70.128906 C 784.921875 70.773438 781.667969 71.195312 779.84375 70.914062 C 781.359375 70.269531 784.699219 69.457031 788.089844 68.839844 C 791.457031 68.167969 794.847656 67.691406 796.476562 67.886719 Z M 803.488281 91.890625 C 801.886719 93.015625 793.222656 93.042969 790.335938 94.949219 C 789.6875 93.125 801.75 91.527344 803.488281 91.890625 Z M 886.695312 40.710938 C 878.507812 41.859375 865.550781 46.851562 865.324219 44.441406 C 872.839844 44.1875 882.125 39.785156 886.695312 40.710938 Z M 802.644531 61.6875 C 797.992188 61.828125 794.289062 64.773438 792.015625 63.761719 C 792.800781 62.78125 805.507812 60.285156 802.644531 61.6875 Z M 847.742188 42.84375 C 852.285156 41.664062 856.125 40.625 859.855469 39.8125 C 861.707031 39.421875 863.558594 39.054688 865.4375 38.777344 C 867.289062 38.4375 869.195312 38.160156 871.1875 37.960938 C 886.667969 34.597656 870.960938 38.242188 863.164062 40.488281 C 857.640625 42 850.574219 45.925781 848.105469 44.414062 C 855.144531 42.730469 851.164062 42.644531 847.742188 42.84375 Z M 847.742188 42.84375 " clip-rule="nonzero"/></clipPath><linearGradient x1="0.00000270427" gradientTransform="matrix(-2.804454, 0, 0, 2.804454, 900.997968, 0.214615)" y1="25.087" x2="320.17996" gradientUnits="userSpaceOnUse" y2="25.087" id="d96abb2c40"><stop stop-opacity="1" stop-color="rgb(100%, 33.299255%, 0%)" offset="0"/><stop stop-opacity="1" stop-color="rgb(100%, 33.554077%, 0.370789%)" offset="0.00390625"/><stop stop-opacity="1" stop-color="rgb(100%, 33.810425%, 0.741577%)" offset="0.0078125"/><stop stop-opacity="1" stop-color="rgb(100%, 34.066772%, 1.112366%)" offset="0.0117188"/><stop stop-opacity="1" stop-color="rgb(100%, 34.32312%, 1.483154%)" offset="0.015625"/><stop stop-opacity="1" stop-color="rgb(100%, 34.577942%, 1.853943%)" offset="0.0195312"/><stop stop-opacity="1" stop-color="rgb(100%, 34.83429%, 2.224731%)" offset="0.0234375"/><stop stop-opacity="1" stop-color="rgb(100%, 35.090637%, 2.59552%)" offset="0.0273437"/><stop stop-opacity="1" stop-color="rgb(100%, 35.346985%, 2.966309%)" offset="0.03125"/><stop stop-opacity="1" stop-color="rgb(100%, 35.601807%, 3.337097%)" offset="0.0351562"/><stop stop-opacity="1" stop-color="rgb(100%, 35.858154%, 3.707886%)" offset="0.0390625"/><stop stop-opacity="1" stop-color="rgb(100%, 36.114502%, 4.078674%)" offset="0.0429687"/><stop stop-opacity="1" stop-color="rgb(100%, 36.37085%, 4.449463%)" offset="0.046875"/><stop stop-opacity="1" stop-color="rgb(100%, 36.625671%, 4.820251%)" offset="0.0507812"/><stop stop-opacity="1" stop-color="rgb(100%, 36.882019%, 5.19104%)" offset="0.0546875"/><stop stop-opacity="1" stop-color="rgb(100%, 37.138367%, 5.561829%)" offset="0.0585937"/><stop stop-opacity="1" stop-color="rgb(100%, 37.394714%, 5.932617%)" offset="0.0625"/><stop stop-opacity="1" stop-color="rgb(100%, 37.649536%, 6.303406%)" offset="0.0664063"/><stop stop-opacity="1" stop-color="rgb(100%, 37.905884%, 6.674194%)" offset="0.0703125"/><stop stop-opacity="1" stop-color="rgb(100%, 38.162231%, 7.044983%)" offset="0.0742188"/><stop stop-opacity="1" stop-color="rgb(100%, 38.418579%, 7.415771%)" offset="0.078125"/><stop stop-opacity="1" stop-color="rgb(100%, 38.673401%, 7.78656%)" offset="0.0820312"/><stop stop-opacity="1" stop-color="rgb(100%, 38.929749%, 8.157349%)" offset="0.0859375"/><stop stop-opacity="1" stop-color="rgb(100%, 39.186096%, 8.528137%)" offset="0.0898438"/><stop stop-opacity="1" stop-color="rgb(100%, 39.442444%, 8.898926%)" offset="0.09375"/><stop stop-opacity="1" stop-color="rgb(100%, 39.697266%, 9.269714%)" offset="0.0976562"/><stop stop-opacity="1" stop-color="rgb(100%, 39.953613%, 9.640503%)" offset="0.101562"/><stop stop-opacity="1" stop-color="rgb(100%, 40.208435%, 10.011292%)" offset="0.105469"/><stop stop-opacity="1" stop-color="rgb(100%, 40.464783%, 10.38208%)" offset="0.109375"/><stop stop-opacity="1" stop-color="rgb(100%, 40.72113%, 10.752869%)" offset="0.113281"/><stop stop-opacity="1" stop-color="rgb(100%, 40.977478%, 11.123657%)" offset="0.117187"/><stop stop-opacity="1" stop-color="rgb(100%, 41.2323%, 11.494446%)" offset="0.121094"/><stop stop-opacity="1" stop-color="rgb(100%, 41.488647%, 11.865234%)" offset="0.125"/><stop stop-opacity="1" stop-color="rgb(100%, 41.744995%, 12.236023%)" offset="0.128906"/><stop stop-opacity="1" stop-color="rgb(100%, 42.001343%, 12.606812%)" offset="0.132812"/><stop stop-opacity="1" stop-color="rgb(100%, 42.256165%, 12.9776%)" offset="0.136719"/><stop stop-opacity="1" stop-color="rgb(100%, 42.512512%, 13.348389%)" offset="0.140625"/><stop stop-opacity="1" stop-color="rgb(100%, 42.76886%, 13.719177%)" offset="0.144531"/><stop stop-opacity="1" stop-color="rgb(100%, 43.025208%, 14.089966%)" offset="0.148437"/><stop stop-opacity="1" stop-color="rgb(100%, 43.280029%, 14.460754%)" offset="0.152344"/><stop stop-opacity="1" stop-color="rgb(100%, 43.536377%, 14.831543%)" offset="0.15625"/><stop stop-opacity="1" stop-color="rgb(100%, 43.792725%, 15.202332%)" offset="0.160156"/><stop stop-opacity="1" stop-color="rgb(100%, 44.049072%, 15.57312%)" offset="0.164062"/><stop stop-opacity="1" stop-color="rgb(100%, 44.303894%, 15.943909%)" offset="0.167969"/><stop stop-opacity="1" stop-color="rgb(100%, 44.560242%, 16.314697%)" offset="0.171875"/><stop stop-opacity="1" stop-color="rgb(100%, 44.816589%, 16.685486%)" offset="0.175781"/><stop stop-opacity="1" stop-color="rgb(100%, 45.072937%, 17.056274%)" offset="0.179687"/><stop stop-opacity="1" stop-color="rgb(100%, 45.327759%, 17.427063%)" offset="0.183594"/><stop stop-opacity="1" stop-color="rgb(100%, 45.584106%, 17.797852%)" offset="0.1875"/><stop stop-opacity="1" stop-color="rgb(100%, 45.840454%, 18.16864%)" offset="0.191406"/><stop stop-opacity="1" stop-color="rgb(100%, 46.096802%, 18.539429%)" offset="0.195312"/><stop stop-opacity="1" stop-color="rgb(100%, 46.351624%, 18.910217%)" offset="0.199219"/><stop stop-opacity="1" stop-color="rgb(100%, 46.607971%, 19.281006%)" offset="0.203125"/><stop stop-opacity="1" stop-color="rgb(100%, 46.864319%, 19.651794%)" offset="0.207031"/><stop stop-opacity="1" stop-color="rgb(100%, 47.120667%, 20.024109%)" offset="0.210937"/><stop stop-opacity="1" stop-color="rgb(100%, 47.375488%, 20.394897%)" offset="0.214844"/><stop stop-opacity="1" stop-color="rgb(100%, 47.631836%, 20.765686%)" offset="0.21875"/><stop stop-opacity="1" stop-color="rgb(100%, 47.886658%, 21.136475%)" offset="0.222656"/><stop stop-opacity="1" stop-color="rgb(100%, 48.143005%, 21.507263%)" offset="0.226562"/><stop stop-opacity="1" stop-color="rgb(100%, 48.399353%, 21.878052%)" offset="0.230469"/><stop stop-opacity="1" stop-color="rgb(100%, 48.655701%, 22.24884%)" offset="0.234375"/><stop stop-opacity="1" stop-color="rgb(100%, 48.910522%, 22.619629%)" offset="0.238281"/><stop stop-opacity="1" stop-color="rgb(100%, 49.16687%, 22.990417%)" offset="0.242187"/><stop stop-opacity="1" stop-color="rgb(100%, 49.423218%, 23.361206%)" offset="0.246094"/><stop stop-opacity="1" stop-color="rgb(100%, 49.679565%, 23.731995%)" offset="0.25"/><stop stop-opacity="1" stop-color="rgb(100%, 49.934387%, 24.102783%)" offset="0.253906"/><stop stop-opacity="1" stop-color="rgb(100%, 50.190735%, 24.473572%)" offset="0.257812"/><stop stop-opacity="1" stop-color="rgb(100%, 50.447083%, 24.84436%)" offset="0.261719"/><stop stop-opacity="1" stop-color="rgb(100%, 50.70343%, 25.215149%)" offset="0.265625"/><stop stop-opacity="1" stop-color="rgb(100%, 50.958252%, 25.585938%)" offset="0.269531"/><stop stop-opacity="1" stop-color="rgb(100%, 51.2146%, 25.956726%)" offset="0.273438"/><stop stop-opacity="1" stop-color="rgb(100%, 51.470947%, 26.327515%)" offset="0.277344"/><stop stop-opacity="1" stop-color="rgb(100%, 51.727295%, 26.698303%)" offset="0.28125"/><stop stop-opacity="1" stop-color="rgb(100%, 51.982117%, 27.069092%)" offset="0.285156"/><stop stop-opacity="1" stop-color="rgb(100%, 52.238464%, 27.43988%)" offset="0.289062"/><stop stop-opacity="1" stop-color="rgb(100%, 52.494812%, 27.810669%)" offset="0.292969"/><stop stop-opacity="1" stop-color="rgb(100%, 52.75116%, 28.181458%)" offset="0.296875"/><stop stop-opacity="1" stop-color="rgb(100%, 53.005981%, 28.552246%)" offset="0.300781"/><stop stop-opacity="1" stop-color="rgb(100%, 53.262329%, 28.923035%)" offset="0.304688"/><stop stop-opacity="1" stop-color="rgb(100%, 53.518677%, 29.293823%)" offset="0.308594"/><stop stop-opacity="1" stop-color="rgb(100%, 53.775024%, 29.664612%)" offset="0.3125"/><stop stop-opacity="1" stop-color="rgb(100%, 54.029846%, 30.0354%)" offset="0.316406"/><stop stop-opacity="1" stop-color="rgb(100%, 54.286194%, 30.406189%)" offset="0.320312"/><stop stop-opacity="1" stop-color="rgb(100%, 54.541016%, 30.776978%)" offset="0.324219"/><stop stop-opacity="1" stop-color="rgb(100%, 54.797363%, 31.147766%)" offset="0.328125"/><stop stop-opacity="1" stop-color="rgb(100%, 55.053711%, 31.518555%)" offset="0.332031"/><stop stop-opacity="1" stop-color="rgb(100%, 55.310059%, 31.889343%)" offset="0.335937"/><stop stop-opacity="1" stop-color="rgb(100%, 55.56488%, 32.260132%)" offset="0.339844"/><stop stop-opacity="1" stop-color="rgb(100%, 55.821228%, 32.63092%)" offset="0.34375"/><stop stop-opacity="1" stop-color="rgb(100%, 56.077576%, 33.001709%)" offset="0.347656"/><stop stop-opacity="1" stop-color="rgb(100%, 56.333923%, 33.372498%)" offset="0.351562"/><stop stop-opacity="1" stop-color="rgb(100%, 56.588745%, 33.743286%)" offset="0.355469"/><stop stop-opacity="1" stop-color="rgb(100%, 56.845093%, 34.114075%)" offset="0.359375"/><stop stop-opacity="1" stop-color="rgb(100%, 57.10144%, 34.484863%)" offset="0.363281"/><stop stop-opacity="1" stop-color="rgb(100%, 57.357788%, 34.855652%)" offset="0.367187"/><stop stop-opacity="1" stop-color="rgb(100%, 57.61261%, 35.22644%)" offset="0.371094"/><stop stop-opacity="1" stop-color="rgb(100%, 57.868958%, 35.597229%)" offset="0.375"/><stop stop-opacity="1" stop-color="rgb(100%, 58.125305%, 35.968018%)" offset="0.378906"/><stop stop-opacity="1" stop-color="rgb(100%, 58.381653%, 36.338806%)" offset="0.382812"/><stop stop-opacity="1" stop-color="rgb(100%, 58.636475%, 36.709595%)" offset="0.386719"/><stop stop-opacity="1" stop-color="rgb(100%, 58.892822%, 37.080383%)" offset="0.390625"/><stop stop-opacity="1" stop-color="rgb(100%, 59.14917%, 37.451172%)" offset="0.394531"/><stop stop-opacity="1" stop-color="rgb(100%, 59.405518%, 37.82196%)" offset="0.398437"/><stop stop-opacity="1" stop-color="rgb(100%, 59.660339%, 38.192749%)" offset="0.402344"/><stop stop-opacity="1" stop-color="rgb(100%, 59.916687%, 38.563538%)" offset="0.40625"/><stop stop-opacity="1" stop-color="rgb(100%, 60.173035%, 38.934326%)" offset="0.410156"/><stop stop-opacity="1" stop-color="rgb(100%, 60.429382%, 39.306641%)" offset="0.414062"/><stop stop-opacity="1" stop-color="rgb(100%, 60.684204%, 39.677429%)" offset="0.417969"/><stop stop-opacity="1" stop-color="rgb(100%, 60.940552%, 40.048218%)" offset="0.421875"/><stop stop-opacity="1" stop-color="rgb(100%, 61.195374%, 40.419006%)" offset="0.425781"/><stop stop-opacity="1" stop-color="rgb(100%, 61.451721%, 40.789795%)" offset="0.429687"/><stop stop-opacity="1" stop-color="rgb(100%, 61.708069%, 41.160583%)" offset="0.433594"/><stop stop-opacity="1" stop-color="rgb(100%, 61.964417%, 41.531372%)" offset="0.4375"/><stop stop-opacity="1" stop-color="rgb(100%, 62.219238%, 41.902161%)" offset="0.441406"/><stop stop-opacity="1" stop-color="rgb(100%, 62.475586%, 42.272949%)" offset="0.445312"/><stop stop-opacity="1" stop-color="rgb(100%, 62.731934%, 42.643738%)" offset="0.449219"/><stop stop-opacity="1" stop-color="rgb(100%, 62.988281%, 43.014526%)" offset="0.453125"/><stop stop-opacity="1" stop-color="rgb(100%, 63.243103%, 43.385315%)" offset="0.457031"/><stop stop-opacity="1" stop-color="rgb(100%, 63.499451%, 43.756104%)" offset="0.460938"/><stop stop-opacity="1" stop-color="rgb(100%, 63.755798%, 44.126892%)" offset="0.464844"/><stop stop-opacity="1" stop-color="rgb(100%, 64.012146%, 44.497681%)" offset="0.46875"/><stop stop-opacity="1" stop-color="rgb(100%, 64.266968%, 44.868469%)" offset="0.472656"/><stop stop-opacity="1" stop-color="rgb(100%, 64.523315%, 45.239258%)" offset="0.476562"/><stop stop-opacity="1" stop-color="rgb(100%, 64.779663%, 45.610046%)" offset="0.480469"/><stop stop-opacity="1" stop-color="rgb(100%, 65.036011%, 45.980835%)" offset="0.484375"/><stop stop-opacity="1" stop-color="rgb(100%, 65.290833%, 46.351624%)" offset="0.488281"/><stop stop-opacity="1" stop-color="rgb(100%, 65.54718%, 46.722412%)" offset="0.492188"/><stop stop-opacity="1" stop-color="rgb(100%, 65.803528%, 47.093201%)" offset="0.496094"/><stop stop-opacity="1" stop-color="rgb(100%, 66.059875%, 47.463989%)" offset="0.5"/><stop stop-opacity="1" stop-color="rgb(100%, 66.314697%, 47.834778%)" offset="0.503906"/><stop stop-opacity="1" stop-color="rgb(100%, 66.571045%, 48.205566%)" offset="0.507813"/><stop stop-opacity="1" stop-color="rgb(100%, 66.827393%, 48.576355%)" offset="0.511719"/><stop stop-opacity="1" stop-color="rgb(100%, 67.08374%, 48.947144%)" offset="0.515625"/><stop stop-opacity="1" stop-color="rgb(100%, 67.338562%, 49.317932%)" offset="0.519531"/><stop stop-opacity="1" stop-color="rgb(100%, 67.59491%, 49.688721%)" offset="0.523438"/><stop stop-opacity="1" stop-color="rgb(100%, 67.851257%, 50.059509%)" offset="0.527344"/><stop stop-opacity="1" stop-color="rgb(100%, 68.107605%, 50.430298%)" offset="0.53125"/><stop stop-opacity="1" stop-color="rgb(100%, 68.362427%, 50.801086%)" offset="0.535156"/><stop stop-opacity="1" stop-color="rgb(100%, 68.618774%, 51.171875%)" offset="0.539062"/><stop stop-opacity="1" stop-color="rgb(100%, 68.873596%, 51.542664%)" offset="0.542969"/><stop stop-opacity="1" stop-color="rgb(100%, 69.129944%, 51.913452%)" offset="0.546875"/><stop stop-opacity="1" stop-color="rgb(100%, 69.386292%, 52.284241%)" offset="0.550781"/><stop stop-opacity="1" stop-color="rgb(100%, 69.642639%, 52.655029%)" offset="0.554688"/><stop stop-opacity="1" stop-color="rgb(100%, 69.897461%, 53.025818%)" offset="0.558594"/><stop stop-opacity="1" stop-color="rgb(100%, 70.153809%, 53.396606%)" offset="0.5625"/><stop stop-opacity="1" stop-color="rgb(100%, 70.410156%, 53.767395%)" offset="0.566406"/><stop stop-opacity="1" stop-color="rgb(100%, 70.666504%, 54.138184%)" offset="0.570312"/><stop stop-opacity="1" stop-color="rgb(100%, 70.921326%, 54.508972%)" offset="0.574219"/><stop stop-opacity="1" stop-color="rgb(100%, 71.177673%, 54.879761%)" offset="0.578125"/><stop stop-opacity="1" stop-color="rgb(100%, 71.434021%, 55.250549%)" offset="0.582031"/><stop stop-opacity="1" stop-color="rgb(100%, 71.690369%, 55.621338%)" offset="0.585937"/><stop stop-opacity="1" stop-color="rgb(100%, 71.94519%, 55.992126%)" offset="0.589844"/><stop stop-opacity="1" stop-color="rgb(100%, 72.201538%, 56.362915%)" offset="0.59375"/><stop stop-opacity="1" stop-color="rgb(100%, 72.457886%, 56.733704%)" offset="0.597656"/><stop stop-opacity="1" stop-color="rgb(100%, 72.714233%, 57.104492%)" offset="0.601562"/><stop stop-opacity="1" stop-color="rgb(100%, 72.969055%, 57.475281%)" offset="0.605469"/><stop stop-opacity="1" stop-color="rgb(100%, 73.225403%, 57.846069%)" offset="0.609375"/><stop stop-opacity="1" stop-color="rgb(100%, 73.48175%, 58.216858%)" offset="0.613281"/><stop stop-opacity="1" stop-color="rgb(100%, 73.738098%, 58.589172%)" offset="0.617188"/><stop stop-opacity="1" stop-color="rgb(100%, 73.99292%, 58.959961%)" offset="0.621094"/><stop stop-opacity="1" stop-color="rgb(100%, 74.249268%, 59.33075%)" offset="0.625"/><stop stop-opacity="1" stop-color="rgb(100%, 74.505615%, 59.701538%)" offset="0.628906"/><stop stop-opacity="1" stop-color="rgb(100%, 74.761963%, 60.072327%)" offset="0.632812"/><stop stop-opacity="1" stop-color="rgb(100%, 75.016785%, 60.443115%)" offset="0.636719"/><stop stop-opacity="1" stop-color="rgb(100%, 75.273132%, 60.813904%)" offset="0.640625"/><stop stop-opacity="1" stop-color="rgb(100%, 75.527954%, 61.184692%)" offset="0.644531"/><stop stop-opacity="1" stop-color="rgb(100%, 75.784302%, 61.555481%)" offset="0.648438"/><stop stop-opacity="1" stop-color="rgb(100%, 76.040649%, 61.92627%)" offset="0.652344"/><stop stop-opacity="1" stop-color="rgb(100%, 76.296997%, 62.297058%)" offset="0.65625"/><stop stop-opacity="1" stop-color="rgb(100%, 76.551819%, 62.667847%)" offset="0.660156"/><stop stop-opacity="1" stop-color="rgb(100%, 76.808167%, 63.038635%)" offset="0.664062"/><stop stop-opacity="1" stop-color="rgb(100%, 77.064514%, 63.409424%)" offset="0.667969"/><stop stop-opacity="1" stop-color="rgb(100%, 77.320862%, 63.780212%)" offset="0.671875"/><stop stop-opacity="1" stop-color="rgb(100%, 77.575684%, 64.151001%)" offset="0.675781"/><stop stop-opacity="1" stop-color="rgb(100%, 77.832031%, 64.52179%)" offset="0.679687"/><stop stop-opacity="1" stop-color="rgb(100%, 78.088379%, 64.892578%)" offset="0.683594"/><stop stop-opacity="1" stop-color="rgb(100%, 78.344727%, 65.263367%)" offset="0.6875"/><stop stop-opacity="1" stop-color="rgb(100%, 78.599548%, 65.634155%)" offset="0.691406"/><stop stop-opacity="1" stop-color="rgb(100%, 78.855896%, 66.004944%)" offset="0.695312"/><stop stop-opacity="1" stop-color="rgb(100%, 79.112244%, 66.375732%)" offset="0.699219"/><stop stop-opacity="1" stop-color="rgb(100%, 79.368591%, 66.746521%)" offset="0.703125"/><stop stop-opacity="1" stop-color="rgb(100%, 79.623413%, 67.11731%)" offset="0.707031"/><stop stop-opacity="1" stop-color="rgb(100%, 79.879761%, 67.488098%)" offset="0.710937"/><stop stop-opacity="1" stop-color="rgb(100%, 80.136108%, 67.858887%)" offset="0.714844"/><stop stop-opacity="1" stop-color="rgb(100%, 80.392456%, 68.229675%)" offset="0.71875"/><stop stop-opacity="1" stop-color="rgb(100%, 80.647278%, 68.600464%)" offset="0.722656"/><stop stop-opacity="1" stop-color="rgb(100%, 80.903625%, 68.971252%)" offset="0.726562"/><stop stop-opacity="1" stop-color="rgb(100%, 81.159973%, 69.342041%)" offset="0.730469"/><stop stop-opacity="1" stop-color="rgb(100%, 81.416321%, 69.71283%)" offset="0.734375"/><stop stop-opacity="1" stop-color="rgb(100%, 81.671143%, 70.083618%)" offset="0.738281"/><stop stop-opacity="1" stop-color="rgb(100%, 81.92749%, 70.454407%)" offset="0.742188"/><stop stop-opacity="1" stop-color="rgb(100%, 82.183838%, 70.825195%)" offset="0.746094"/><stop stop-opacity="1" stop-color="rgb(100%, 82.440186%, 71.195984%)" offset="0.75"/><stop stop-opacity="1" stop-color="rgb(100%, 82.695007%, 71.566772%)" offset="0.753906"/><stop stop-opacity="1" stop-color="rgb(100%, 82.951355%, 71.937561%)" offset="0.757812"/><stop stop-opacity="1" stop-color="rgb(100%, 83.206177%, 72.30835%)" offset="0.761719"/><stop stop-opacity="1" stop-color="rgb(100%, 83.462524%, 72.679138%)" offset="0.765625"/><stop stop-opacity="1" stop-color="rgb(100%, 83.718872%, 73.049927%)" offset="0.769531"/><stop stop-opacity="1" stop-color="rgb(100%, 83.97522%, 73.420715%)" offset="0.773438"/><stop stop-opacity="1" stop-color="rgb(100%, 84.230042%, 73.791504%)" offset="0.777344"/><stop stop-opacity="1" stop-color="rgb(100%, 84.486389%, 74.162292%)" offset="0.78125"/><stop stop-opacity="1" stop-color="rgb(100%, 84.742737%, 74.533081%)" offset="0.785156"/><stop stop-opacity="1" stop-color="rgb(100%, 84.999084%, 74.90387%)" offset="0.789062"/><stop stop-opacity="1" stop-color="rgb(100%, 85.253906%, 75.274658%)" offset="0.792969"/><stop stop-opacity="1" stop-color="rgb(100%, 85.510254%, 75.645447%)" offset="0.796875"/><stop stop-opacity="1" stop-color="rgb(100%, 85.766602%, 76.016235%)" offset="0.800781"/><stop stop-opacity="1" stop-color="rgb(100%, 86.022949%, 76.387024%)" offset="0.804687"/><stop stop-opacity="1" stop-color="rgb(100%, 86.277771%, 76.757812%)" offset="0.808594"/><stop stop-opacity="1" stop-color="rgb(100%, 86.534119%, 77.128601%)" offset="0.8125"/><stop stop-opacity="1" stop-color="rgb(100%, 86.790466%, 77.49939%)" offset="0.816406"/><stop stop-opacity="1" stop-color="rgb(100%, 87.046814%, 77.871704%)" offset="0.820312"/><stop stop-opacity="1" stop-color="rgb(100%, 87.301636%, 78.242493%)" offset="0.824219"/><stop stop-opacity="1" stop-color="rgb(100%, 87.557983%, 78.613281%)" offset="0.828125"/><stop stop-opacity="1" stop-color="rgb(100%, 87.814331%, 78.98407%)" offset="0.832031"/><stop stop-opacity="1" stop-color="rgb(100%, 88.070679%, 79.354858%)" offset="0.835938"/><stop stop-opacity="1" stop-color="rgb(100%, 88.3255%, 79.725647%)" offset="0.839844"/><stop stop-opacity="1" stop-color="rgb(100%, 88.581848%, 80.096436%)" offset="0.84375"/><stop stop-opacity="1" stop-color="rgb(100%, 88.838196%, 80.467224%)" offset="0.847656"/><stop stop-opacity="1" stop-color="rgb(100%, 89.094543%, 80.838013%)" offset="0.851562"/><stop stop-opacity="1" stop-color="rgb(100%, 89.349365%, 81.208801%)" offset="0.855469"/><stop stop-opacity="1" stop-color="rgb(100%, 89.605713%, 81.57959%)" offset="0.859375"/><stop stop-opacity="1" stop-color="rgb(100%, 89.860535%, 81.950378%)" offset="0.863281"/><stop stop-opacity="1" stop-color="rgb(100%, 90.116882%, 82.321167%)" offset="0.867188"/><stop stop-opacity="1" stop-color="rgb(100%, 90.37323%, 82.691956%)" offset="0.871094"/><stop stop-opacity="1" stop-color="rgb(100%, 90.629578%, 83.062744%)" offset="0.875"/><stop stop-opacity="1" stop-color="rgb(100%, 90.884399%, 83.433533%)" offset="0.878906"/><stop stop-opacity="1" stop-color="rgb(100%, 91.140747%, 83.804321%)" offset="0.882812"/><stop stop-opacity="1" stop-color="rgb(100%, 91.397095%, 84.17511%)" offset="0.886719"/><stop stop-opacity="1" stop-color="rgb(100%, 91.653442%, 84.545898%)" offset="0.890625"/><stop stop-opacity="1" stop-color="rgb(100%, 91.908264%, 84.916687%)" offset="0.894531"/><stop stop-opacity="1" stop-color="rgb(100%, 92.164612%, 85.287476%)" offset="0.898438"/><stop stop-opacity="1" stop-color="rgb(100%, 92.420959%, 85.658264%)" offset="0.902344"/><stop stop-opacity="1" stop-color="rgb(100%, 92.677307%, 86.029053%)" offset="0.90625"/><stop stop-opacity="1" stop-color="rgb(100%, 92.932129%, 86.399841%)" offset="0.910156"/><stop stop-opacity="1" stop-color="rgb(100%, 93.188477%, 86.77063%)" offset="0.914062"/><stop stop-opacity="1" stop-color="rgb(100%, 93.444824%, 87.141418%)" offset="0.917969"/><stop stop-opacity="1" stop-color="rgb(100%, 93.701172%, 87.512207%)" offset="0.921875"/><stop stop-opacity="1" stop-color="rgb(100%, 93.955994%, 87.882996%)" offset="0.925781"/><stop stop-opacity="1" stop-color="rgb(100%, 94.212341%, 88.253784%)" offset="0.929687"/><stop stop-opacity="1" stop-color="rgb(100%, 94.468689%, 88.624573%)" offset="0.933594"/><stop stop-opacity="1" stop-color="rgb(100%, 94.725037%, 88.995361%)" offset="0.9375"/><stop stop-opacity="1" stop-color="rgb(100%, 94.979858%, 89.36615%)" offset="0.941406"/><stop stop-opacity="1" stop-color="rgb(100%, 95.236206%, 89.736938%)" offset="0.945313"/><stop stop-opacity="1" stop-color="rgb(100%, 95.492554%, 90.107727%)" offset="0.949219"/><stop stop-opacity="1" stop-color="rgb(100%, 95.748901%, 90.478516%)" offset="0.953125"/><stop stop-opacity="1" stop-color="rgb(100%, 96.003723%, 90.849304%)" offset="0.957031"/><stop stop-opacity="1" stop-color="rgb(100%, 96.260071%, 91.220093%)" offset="0.960938"/><stop stop-opacity="1" stop-color="rgb(100%, 96.514893%, 91.590881%)" offset="0.964844"/><stop stop-opacity="1" stop-color="rgb(100%, 96.77124%, 91.96167%)" offset="0.96875"/><stop stop-opacity="1" stop-color="rgb(100%, 97.027588%, 92.332458%)" offset="0.972656"/><stop stop-opacity="1" stop-color="rgb(100%, 97.283936%, 92.703247%)" offset="0.976562"/><stop stop-opacity="1" stop-color="rgb(100%, 97.538757%, 93.074036%)" offset="0.980469"/><stop stop-opacity="1" stop-color="rgb(100%, 97.795105%, 93.444824%)" offset="0.984375"/><stop stop-opacity="1" stop-color="rgb(100%, 98.051453%, 93.815613%)" offset="0.988281"/><stop stop-opacity="1" stop-color="rgb(100%, 98.3078%, 94.186401%)" offset="0.992188"/><stop stop-opacity="1" stop-color="rgb(100%, 98.553467%, 94.541931%)" offset="0.996094"/><stop stop-opacity="1" stop-color="rgb(100%, 98.799133%, 94.898987%)" offset="1"/></linearGradient><clipPath id="d40772d989"><rect x="0" width="901" y="0" height="144"/></clipPath></defs><g mask="url(#7c4d370ca4)"><g transform="matrix(1, 0, 0, 1, 59, 223)"><g clip-path="url(#d40772d989)"><g clip-path="url(#5748d771c8)"><g clip-path="url(#84997ce1ae)"><path fill="url(#d96abb2c40)" d="M 900.996094 0.199219 L 900.996094 141.503906 L 3.066406 141.503906 L 3.066406 0.199219 Z M 900.996094 0.199219 " fill-rule="nonzero"/></g></g></g></g></g><g fill="#000000" fill-opacity="1"><g transform="translate(60.035186, 349.941031)"><g><path d="M 48.929688 60.523438 C 52.070312 60.523438 53.054688 57.378906 53.644531 54.234375 C 54.429688 49.714844 55.214844 45.195312 53.25 40.675781 C 47.355469 26.921875 50.695312 16.308594 54.824219 5.699219 C 58.359375 -2.75 61.699219 -11.003906 65.238281 -19.453125 L 69.953125 -30.851562 C 71.132812 -33.796875 72.703125 -36.746094 76.832031 -36.746094 C 77.421875 -36.746094 78.207031 -36.546875 78.992188 -36.351562 C 85.671875 -35.171875 92.550781 -34.386719 99.820312 -34.386719 C 112.789062 -34.386719 125.5625 -36.746094 137.550781 -38.90625 C 161.523438 -43.621094 176.847656 -52.464844 186.085938 -66.417969 C 196.695312 -83.117188 190.601562 -103.75 170.5625 -119.273438 C 143.445312 -139.90625 114.753906 -143.445312 90.390625 -144.230469 L 83.511719 -144.425781 C 82.136719 -144.425781 80.761719 -144.425781 79.386719 -144.230469 C 76.042969 -144.035156 72.507812 -143.246094 69.167969 -142.65625 L 68.183594 -142.460938 C 29.867188 -134.796875 10.019531 -112.789062 9.433594 -77.421875 C 8.84375 -52.464844 20.238281 -26.921875 31.441406 -5.304688 C 38.710938 8.84375 44.410156 21.8125 40.085938 34.78125 C 38.710938 38.515625 39.300781 43.621094 39.890625 48.535156 L 40.085938 50.894531 C 40.28125 53.054688 41.460938 58.359375 46.765625 60.128906 C 47.550781 60.324219 48.339844 60.523438 48.929688 60.523438 Z M 150.714844 -127.527344 C 161.523438 -122.417969 176.457031 -113.773438 183.332031 -97.660156 C 190.800781 -80.171875 182.152344 -69.558594 172.722656 -61.699219 C 158.378906 -49.320312 139.121094 -45.585938 123.792969 -43.621094 C 114.164062 -42.445312 104.734375 -41.265625 94.320312 -41.265625 C 88.621094 -41.265625 82.921875 -41.65625 77.421875 -42.445312 L 76.042969 -42.640625 L 76.4375 -43.621094 C 79.777344 -51.089844 83.316406 -58.753906 87.046875 -66.023438 C 89.40625 -70.9375 91.765625 -75.652344 94.121094 -80.367188 C 97.070312 -86.261719 100.019531 -92.15625 102.769531 -98.050781 L 104.539062 -101.589844 C 107.679688 -108.269531 110.824219 -114.953125 113.574219 -121.828125 L 113.96875 -122.417969 C 116.328125 -127.332031 115.933594 -128.707031 115.148438 -129.097656 C 112.398438 -128.902344 110.628906 -126.347656 109.058594 -123.792969 L 105.324219 -117.507812 C 92.355469 -95.5 80.761719 -72.703125 71.328125 -53.25 L 70.347656 -51.285156 C 69.363281 -48.929688 61.109375 -31.242188 60.128906 -29.277344 C 56.003906 -20.828125 52.464844 -11.988281 48.730469 -2.554688 C 47.160156 1.375 45.585938 5.304688 43.820312 9.433594 L 43.230469 11.003906 L 37.335938 -1.375 C 33.601562 -8.644531 30.261719 -15.523438 27.117188 -22.402344 C 11.003906 -56.394531 8.84375 -83.707031 20.238281 -106.109375 C 28.886719 -123.597656 44.800781 -134.207031 68.773438 -138.726562 C 76.832031 -140.300781 85.082031 -141.085938 93.140625 -141.085938 C 112.59375 -141.085938 131.851562 -136.566406 150.714844 -127.527344 Z M 150.714844 -127.527344 "/></g></g></g><g fill="#000000" fill-opacity="1"><g transform="translate(244.347173, 349.941031)"><g><path d="M 70.542969 -31.832031 C 70.148438 -31.832031 69.757812 -31.832031 69.558594 -31.832031 C 67.59375 -31.832031 66.023438 -31.242188 64.453125 -30.457031 C 63.074219 -29.867188 61.898438 -29.277344 60.324219 -29.082031 C 57.179688 -28.6875 53.839844 -28.296875 49.910156 -28.296875 C 48.339844 -28.296875 46.765625 -28.492188 45 -28.492188 C 42.246094 -28.6875 40.480469 -29.277344 39.496094 -30.457031 C 38.515625 -31.441406 38.316406 -33.011719 38.90625 -35.171875 C 39.890625 -39.101562 39.890625 -43.230469 38.710938 -47.550781 C 37.335938 -52.660156 34.976562 -55.609375 31.242188 -57.378906 C 29.476562 -58.164062 27.902344 -58.554688 26.527344 -58.554688 C 24.167969 -58.554688 22.007812 -57.574219 20.042969 -55.804688 C 17.488281 -53.644531 15.128906 -51.285156 12.96875 -48.929688 C 3.339844 -38.90625 -1.964844 -27.117188 -2.949219 -13.753906 C -3.144531 -8.644531 -3.144531 -3.339844 2.160156 0 C 3.929688 1.375 5.894531 1.964844 7.859375 1.964844 C 10.808594 1.964844 13.753906 0.394531 15.71875 -0.984375 C 23.972656 -6.289062 30.0625 -13.164062 33.796875 -21.417969 C 35.566406 -24.957031 37.53125 -26.527344 40.675781 -26.527344 C 41.855469 -26.527344 43.230469 -26.332031 44.800781 -25.9375 C 47.945312 -25.152344 51.089844 -24.757812 54.035156 -24.757812 C 57.574219 -24.757812 60.914062 -25.347656 64.453125 -26.332031 C 66.417969 -26.921875 72.507812 -28.886719 72.113281 -31.242188 C 72.113281 -31.242188 71.722656 -31.636719 70.542969 -31.832031 Z M 29.671875 -29.671875 C 29.671875 -29.082031 29.671875 -28.492188 29.476562 -27.902344 C 25.9375 -19.453125 20.632812 -8.84375 9.234375 -3.144531 C 8.253906 -2.554688 7.269531 -2.359375 6.289062 -2.359375 C 5.109375 -2.359375 4.125 -2.75 3.339844 -3.535156 C 2.359375 -4.519531 1.769531 -6.289062 1.769531 -8.449219 C 1.964844 -21.023438 7.074219 -30.851562 14.933594 -41.460938 C 15.523438 -42.445312 16.113281 -42.835938 16.898438 -42.835938 C 18.273438 -42.835938 19.453125 -41.460938 20.4375 -40.28125 C 21.023438 -39.691406 21.417969 -39.300781 21.8125 -38.90625 C 23.777344 -37.335938 25.742188 -35.371094 27.511719 -33.601562 C 28.097656 -33.011719 28.886719 -32.226562 29.867188 -31.046875 C 29.671875 -30.457031 29.671875 -30.0625 29.671875 -29.671875 Z M 31.441406 -37.53125 C 31.242188 -36.746094 31.046875 -35.960938 30.851562 -34.976562 L 30.652344 -33.996094 L 29.867188 -34.78125 C 29.082031 -35.566406 28.296875 -36.15625 27.3125 -36.941406 C 24.367188 -39.300781 21.417969 -41.65625 22.792969 -45.785156 C 23.1875 -46.964844 25.152344 -48.929688 27.117188 -48.929688 C 27.902344 -48.929688 28.6875 -48.730469 29.277344 -48.140625 C 33.011719 -44.605469 32.226562 -41.066406 31.441406 -37.53125 Z M 31.441406 -37.53125 "/></g></g></g><g fill="#000000" fill-opacity="1"><g transform="translate(310.958856, 349.941031)"><g><path d="M 85.671875 -30.457031 C 85.082031 -30.457031 84.496094 -30.0625 83.707031 -29.867188 C 83.316406 -29.671875 82.726562 -29.476562 82.332031 -29.277344 C 81.152344 -29.082031 79.976562 -28.886719 78.796875 -28.886719 C 71.527344 -28.886719 63.863281 -33.011719 58.359375 -39.691406 C 53.449219 -45.785156 50.304688 -48.730469 47.160156 -48.730469 C 45.195312 -48.730469 42.835938 -47.550781 39.101562 -44.800781 C 33.601562 -40.675781 28.492188 -36.351562 23.1875 -31.832031 L 14.933594 -24.957031 C 14.34375 -24.367188 13.753906 -23.777344 12.96875 -22.992188 C 11.398438 -21.417969 9.824219 -19.648438 7.269531 -19.058594 L 6.679688 -19.058594 L 6.484375 -19.453125 C 5.503906 -20.632812 8.253906 -26.722656 8.253906 -26.722656 C 9.628906 -29.277344 10.808594 -31.832031 11.988281 -34.386719 C 13.753906 -38.316406 15.328125 -42.445312 17.09375 -46.570312 L 18.472656 -50.304688 C 18.667969 -50.695312 19.058594 -51.285156 19.257812 -51.679688 C 19.847656 -53.054688 20.828125 -54.429688 20.238281 -55.804688 C 19.847656 -56.589844 19.257812 -57.179688 18.273438 -57.769531 C 17.683594 -58.164062 17.09375 -58.359375 16.507812 -58.359375 C 14.933594 -58.359375 13.753906 -56.394531 12.773438 -55.019531 L 12.574219 -54.429688 C 4.714844 -41.65625 -1.570312 -27.3125 -6.878906 -10.609375 L -7.074219 -9.824219 C -7.859375 -7.664062 -8.644531 -5.304688 -5.699219 -3.144531 C -4.714844 -2.359375 -3.734375 -1.964844 -2.949219 -1.964844 C -1.570312 -1.964844 -0.785156 -3.144531 0 -4.324219 C 0.394531 -4.714844 0.785156 -5.109375 1.179688 -5.503906 L 5.894531 -10.414062 C 16.308594 -21.222656 27.117188 -32.226562 39.496094 -41.066406 C 43.03125 -43.621094 45 -45 47.160156 -45 C 49.910156 -45 52.070312 -42.640625 56.789062 -37.136719 C 62.488281 -30.652344 70.9375 -26.527344 78.402344 -26.527344 C 81.351562 -26.527344 84.101562 -27.117188 86.261719 -28.492188 C 87.046875 -28.886719 87.246094 -29.476562 87.046875 -29.671875 C 87.046875 -29.867188 86.65625 -30.261719 85.671875 -30.457031 Z M 85.671875 -30.457031 "/></g></g></g><g fill="#000000" fill-opacity="1"><g transform="translate(394.076101, 349.941031)"><g><path d="M 113.183594 -96.480469 C 112.398438 -97.265625 110.824219 -97.265625 109.253906 -97.265625 C 108.859375 -97.464844 108.269531 -97.464844 107.878906 -97.464844 C 90.191406 -99.429688 74.867188 -100.410156 60.71875 -100.410156 L 43.425781 -100.410156 L 43.820312 -101.394531 C 48.730469 -111.609375 54.824219 -119.863281 60.523438 -127.722656 C 62.488281 -130.277344 64.253906 -132.832031 66.21875 -135.582031 C 67.988281 -138.136719 68.972656 -139.90625 66.417969 -142.070312 C 65.628906 -142.855469 64.84375 -143.246094 64.058594 -143.246094 C 62.878906 -143.246094 62.09375 -142.070312 61.109375 -141.085938 C 60.914062 -140.691406 60.71875 -140.300781 60.324219 -140.101562 C 50.695312 -129.492188 43.230469 -118.683594 37.53125 -107.089844 C 34.976562 -101.589844 30.652344 -100.410156 24.957031 -100.214844 C 19.257812 -100.214844 13.558594 -100.019531 7.859375 -100.019531 C 1.769531 -100.019531 -4.324219 -100.214844 -10.414062 -100.214844 C -16.507812 -100.214844 -22.597656 -100.410156 -28.6875 -100.410156 C -40.085938 -100.410156 -55.019531 -100.214844 -69.757812 -98.839844 L -70.347656 -98.839844 C -70.347656 -98.839844 -72.507812 -98.839844 -72.902344 -98.839844 C -74.667969 -98.839844 -75.0625 -98.445312 -74.867188 -97.070312 C -74.472656 -96.285156 -74.277344 -95.695312 -73.6875 -95.105469 C -73.097656 -94.710938 -72.3125 -94.515625 -71.527344 -94.515625 C -70.542969 -94.515625 -69.558594 -94.710938 -68.578125 -94.910156 C -60.914062 -96.875 -52.464844 -97.070312 -44.410156 -97.070312 C -41.265625 -97.070312 -37.925781 -97.070312 -34.78125 -97.265625 C -27.3125 -97.660156 -19.058594 -97.660156 -9.039062 -97.660156 C -2.949219 -97.660156 3.144531 -97.660156 9.433594 -97.660156 C 15.328125 -97.660156 21.417969 -97.464844 27.3125 -97.464844 L 27.707031 -97.464844 L 27.902344 -97.070312 C 30.261719 -93.535156 29.476562 -92.15625 28.886719 -90.78125 C 26.722656 -86.460938 24.5625 -81.941406 22.402344 -77.421875 C 17.683594 -68.183594 12.96875 -58.554688 8.84375 -48.730469 L 7.859375 -46.175781 C -4.714844 -15.917969 -17.488281 15.328125 -20.632812 50.695312 L -20.828125 52.464844 C -21.222656 57.574219 -21.8125 63.074219 -20.042969 68.773438 C -18.273438 74.277344 -14.738281 76.832031 -9.039062 76.832031 L -8.84375 76.832031 C -7.664062 76.832031 -6.289062 76.4375 -6.679688 74.472656 C -6.679688 73.6875 -7.074219 73.097656 -7.46875 72.507812 C -7.859375 72.3125 -8.253906 72.113281 -8.644531 71.917969 C -11.199219 71.722656 -12.773438 70.9375 -13.953125 69.757812 C -15.523438 67.988281 -15.523438 65.828125 -15.523438 63.664062 C -15.523438 63.074219 -15.523438 62.683594 -15.523438 62.09375 C -15.71875 49.320312 -13.953125 36.15625 -10.21875 21.023438 C -0.394531 -17.488281 17.292969 -51.679688 34.386719 -84.886719 L 37.726562 -91.566406 C 39.496094 -94.910156 42.246094 -95.5 46.375 -95.5 L 46.570312 -95.5 C 49.910156 -95.5 53.449219 -95.5 56.789062 -95.5 L 66.808594 -95.5 C 79.976562 -95.5 94.121094 -95.300781 108.664062 -93.335938 L 109.449219 -93.335938 C 110.234375 -93.140625 111.21875 -92.945312 112.003906 -92.945312 C 113.96875 -92.945312 114.164062 -93.730469 113.96875 -94.515625 C 113.96875 -95.300781 113.773438 -96.085938 113.183594 -96.480469 Z M 113.183594 -96.480469 "/></g></g></g><g fill="#000000" fill-opacity="1"><g transform="translate(427.873193, 349.941031)"><g><path d="M 62.289062 -32.816406 C 61.308594 -32.816406 60.128906 -32.421875 59.144531 -32.027344 L 54.035156 -30.457031 C 47.75 -28.296875 41.265625 -26.332031 35.371094 -23.578125 C 26.332031 -19.453125 17.683594 -15.128906 8.253906 -10.414062 C 4.125 -8.449219 -0.195312 -6.289062 -4.519531 -3.929688 L -6.289062 -3.144531 L -5.503906 -4.914062 C 7.074219 -37.136719 20.238281 -65.039062 34.78125 -90.390625 L 35.371094 -91.566406 C 40.480469 -100.605469 45.785156 -109.84375 53.449219 -116.917969 C 53.839844 -117.113281 54.035156 -117.507812 54.429688 -117.703125 C 55.214844 -118.882812 56.199219 -119.863281 57.574219 -119.863281 C 58.359375 -119.863281 59.144531 -119.472656 59.933594 -119.078125 C 62.488281 -117.308594 62.09375 -114.753906 61.699219 -112.789062 C 61.699219 -112.398438 61.699219 -112.003906 61.503906 -111.414062 C 60.914062 -104.539062 58.359375 -98.445312 56.003906 -92.550781 L 55.414062 -91.566406 C 53.25 -86.066406 51.089844 -80.5625 49.125 -75.0625 C 48.730469 -74.472656 48.140625 -72.3125 50.5 -70.738281 C 50.894531 -70.347656 51.285156 -70.347656 51.679688 -70.347656 C 52.269531 -70.347656 53.054688 -70.738281 53.644531 -71.132812 C 62.878906 -76.242188 70.542969 -105.914062 65.433594 -117.703125 C 63.863281 -121.632812 61.503906 -123.792969 58.554688 -123.792969 C 57.179688 -123.792969 55.804688 -123.402344 54.429688 -122.613281 C 49.910156 -120.0625 46.765625 -116.128906 44.410156 -112.789062 C 27.3125 -88.03125 12.773438 -60.71875 0 -28.886719 C -7.46875 -9.824219 -16.898438 9.433594 -38.515625 18.472656 C -38.710938 18.667969 -39.101562 18.863281 -39.496094 19.257812 C -39.890625 19.648438 -40.28125 19.847656 -40.675781 20.042969 C -42.050781 21.023438 -42.835938 21.8125 -42.246094 23.1875 C -41.460938 25.347656 -40.085938 25.542969 -37.925781 25.542969 C -37.335938 25.542969 -36.941406 25.542969 -36.351562 25.742188 C -31.636719 26.332031 -28.492188 27.707031 -26.921875 29.867188 C -25.347656 31.832031 -25.152344 34.78125 -26.527344 38.515625 L -31.242188 52.859375 C -35.171875 64.058594 -39.101562 75.457031 -42.835938 87.246094 C -43.820312 90.191406 -44.800781 92.945312 -41.066406 96.085938 C -39.691406 97.265625 -38.316406 97.855469 -36.941406 97.855469 C -35.171875 97.855469 -33.601562 96.875 -32.027344 95.890625 C -13.753906 85.28125 -7.269531 57.574219 -17.683594 34.191406 L -17.882812 33.601562 C -18.472656 32.421875 -19.058594 31.242188 -18.667969 30.457031 C -17.292969 27.3125 -16.308594 23.972656 -15.328125 20.632812 C -13.164062 13.164062 -11.003906 5.503906 -3.734375 1.179688 C 19.648438 -13.164062 40.28125 -22.792969 61.308594 -28.6875 C 61.699219 -28.886719 62.09375 -28.886719 62.488281 -29.082031 C 63.664062 -29.277344 64.84375 -29.476562 65.039062 -30.261719 C 65.238281 -30.457031 65.238281 -30.652344 65.039062 -31.242188 C 64.453125 -32.226562 63.664062 -32.816406 62.289062 -32.816406 Z M -33.601562 80.367188 L -34.582031 79.777344 C -31.832031 66.023438 -27.707031 54.625 -23.382812 42.835938 L -22.402344 40.28125 L -21.222656 40.675781 C -18.078125 55.414062 -22.792969 70.347656 -33.601562 80.367188 Z M -17.683594 11.59375 C -20.042969 21.8125 -21.023438 25.542969 -23.972656 25.542969 C -25.9375 25.542969 -28.296875 24.167969 -32.421875 21.613281 L -33.40625 21.023438 L -17.292969 9.628906 Z M -17.683594 11.59375 "/></g></g></g><g fill="#000000" fill-opacity="1"><g transform="translate(488.393582, 349.941031)"><g><path d="M 70.542969 -31.832031 C 70.148438 -31.832031 69.757812 -31.832031 69.558594 -31.832031 C 67.59375 -31.832031 66.023438 -31.242188 64.453125 -30.457031 C 63.074219 -29.867188 61.898438 -29.277344 60.324219 -29.082031 C 57.179688 -28.6875 53.839844 -28.296875 49.910156 -28.296875 C 48.339844 -28.296875 46.765625 -28.492188 45 -28.492188 C 42.246094 -28.6875 40.480469 -29.277344 39.496094 -30.457031 C 38.515625 -31.441406 38.316406 -33.011719 38.90625 -35.171875 C 39.890625 -39.101562 39.890625 -43.230469 38.710938 -47.550781 C 37.335938 -52.660156 34.976562 -55.609375 31.242188 -57.378906 C 29.476562 -58.164062 27.902344 -58.554688 26.527344 -58.554688 C 24.167969 -58.554688 22.007812 -57.574219 20.042969 -55.804688 C 17.488281 -53.644531 15.128906 -51.285156 12.96875 -48.929688 C 3.339844 -38.90625 -1.964844 -27.117188 -2.949219 -13.753906 C -3.144531 -8.644531 -3.144531 -3.339844 2.160156 0 C 3.929688 1.375 5.894531 1.964844 7.859375 1.964844 C 10.808594 1.964844 13.753906 0.394531 15.71875 -0.984375 C 23.972656 -6.289062 30.0625 -13.164062 33.796875 -21.417969 C 35.566406 -24.957031 37.53125 -26.527344 40.675781 -26.527344 C 41.855469 -26.527344 43.230469 -26.332031 44.800781 -25.9375 C 47.945312 -25.152344 51.089844 -24.757812 54.035156 -24.757812 C 57.574219 -24.757812 60.914062 -25.347656 64.453125 -26.332031 C 66.417969 -26.921875 72.507812 -28.886719 72.113281 -31.242188 C 72.113281 -31.242188 71.722656 -31.636719 70.542969 -31.832031 Z M 29.671875 -29.671875 C 29.671875 -29.082031 29.671875 -28.492188 29.476562 -27.902344 C 25.9375 -19.453125 20.632812 -8.84375 9.234375 -3.144531 C 8.253906 -2.554688 7.269531 -2.359375 6.289062 -2.359375 C 5.109375 -2.359375 4.125 -2.75 3.339844 -3.535156 C 2.359375 -4.519531 1.769531 -6.289062 1.769531 -8.449219 C 1.964844 -21.023438 7.074219 -30.851562 14.933594 -41.460938 C 15.523438 -42.445312 16.113281 -42.835938 16.898438 -42.835938 C 18.273438 -42.835938 19.453125 -41.460938 20.4375 -40.28125 C 21.023438 -39.691406 21.417969 -39.300781 21.8125 -38.90625 C 23.777344 -37.335938 25.742188 -35.371094 27.511719 -33.601562 C 28.097656 -33.011719 28.886719 -32.226562 29.867188 -31.046875 C 29.671875 -30.457031 29.671875 -30.0625 29.671875 -29.671875 Z M 31.441406 -37.53125 C 31.242188 -36.746094 31.046875 -35.960938 30.851562 -34.976562 L 30.652344 -33.996094 L 29.867188 -34.78125 C 29.082031 -35.566406 28.296875 -36.15625 27.3125 -36.941406 C 24.367188 -39.300781 21.417969 -41.65625 22.792969 -45.785156 C 23.1875 -46.964844 25.152344 -48.929688 27.117188 -48.929688 C 27.902344 -48.929688 28.6875 -48.730469 29.277344 -48.140625 C 33.011719 -44.605469 32.226562 -41.066406 31.441406 -37.53125 Z M 31.441406 -37.53125 "/></g></g></g><g fill="#000000" fill-opacity="1"><g transform="translate(555.005241, 349.941031)"><g><path d="M 83.707031 -170.167969 C 82.53125 -171.148438 81.546875 -171.542969 80.761719 -171.542969 C 79.1875 -171.542969 78.207031 -170.167969 77.027344 -168.792969 C 76.832031 -168.398438 76.4375 -167.808594 76.042969 -167.417969 C 55.214844 -144.820312 42.050781 -116.71875 28.296875 -88.816406 C 3.929688 -39.691406 -20.632812 13.558594 -25.742188 72.3125 L -25.9375 74.472656 C -26.527344 80.957031 -27.117188 87.835938 -24.957031 94.910156 C -22.992188 101.785156 -18.472656 105.125 -11.199219 105.125 L -10.808594 105.125 C -9.433594 105.125 -7.859375 104.734375 -8.054688 102.179688 C -8.253906 101.394531 -8.644531 100.410156 -9.234375 99.820312 C -9.628906 99.429688 -10.21875 99.230469 -10.808594 99.035156 C -13.753906 98.640625 -16.113281 97.855469 -17.488281 96.285156 C -19.453125 94.121094 -19.257812 91.175781 -19.257812 88.621094 C -19.257812 87.835938 -19.257812 87.246094 -19.257812 86.65625 C -19.648438 70.542969 -17.488281 54.234375 -12.574219 34.976562 C 1.179688 -19.847656 25.152344 -71.527344 54.035156 -118.292969 C 60.523438 -128.902344 67.203125 -139.121094 74.277344 -149.140625 C 74.472656 -149.535156 74.667969 -149.730469 74.667969 -149.929688 C 77.617188 -154.054688 80.367188 -158.179688 83.511719 -161.914062 C 85.671875 -165.058594 86.851562 -167.417969 83.707031 -170.167969 Z M 83.707031 -170.167969 "/></g></g></g><g fill="#000000" fill-opacity="1"><g transform="translate(592.339243, 349.941031)"><g><path d="M 68.382812 -31.046875 C 66.023438 -33.011719 49.125 -17.09375 46.570312 -15.328125 C 38.90625 -9.628906 30.261719 -4.714844 20.238281 -2.359375 C 15.523438 -1.179688 9.234375 0.785156 4.519531 -3.929688 C 0 -8.449219 3.734375 -12.96875 5.304688 -16.898438 C 11.398438 -31.636719 19.648438 -44.800781 28.097656 -57.96875 C 29.082031 -59.933594 31.636719 -62.09375 28.097656 -64.84375 C 24.757812 -67.59375 22.992188 -64.84375 21.417969 -63.273438 C 9.433594 -50.105469 0.785156 -34.582031 -4.125 -16.703125 C -5.503906 -11.789062 -5.699219 -5.699219 0.195312 -0.589844 C 5.894531 4.519531 11.59375 3.535156 16.898438 2.160156 C 29.476562 -0.984375 40.675781 -6.878906 50.5 -13.753906 C 55.414062 -17.292969 60.128906 -21.023438 64.648438 -24.957031 C 65.828125 -25.9375 68.972656 -27.511719 68.972656 -29.476562 C 68.972656 -30.261719 68.773438 -30.851562 68.382812 -31.046875 Z M 36.546875 -74.277344 C 40.871094 -74.667969 43.820312 -76.242188 43.621094 -80.5625 C 42.445312 -84.691406 39.890625 -86.066406 36.746094 -85.671875 C 32.226562 -85.476562 29.671875 -83.511719 30.851562 -78.402344 C 31.832031 -75.0625 33.796875 -73.882812 36.546875 -74.277344 Z M 36.546875 -74.277344 "/></g></g></g><g fill="#000000" fill-opacity="1"><g transform="translate(657.182484, 349.941031)"><g><path d="M 70.542969 -31.832031 C 70.148438 -31.832031 69.757812 -31.832031 69.558594 -31.832031 C 67.59375 -31.832031 66.023438 -31.242188 64.453125 -30.457031 C 63.074219 -29.867188 61.898438 -29.277344 60.324219 -29.082031 C 57.179688 -28.6875 53.839844 -28.296875 49.910156 -28.296875 C 48.339844 -28.296875 46.765625 -28.492188 45 -28.492188 C 42.246094 -28.6875 40.480469 -29.277344 39.496094 -30.457031 C 38.515625 -31.441406 38.316406 -33.011719 38.90625 -35.171875 C 39.890625 -39.101562 39.890625 -43.230469 38.710938 -47.550781 C 37.335938 -52.660156 34.976562 -55.609375 31.242188 -57.378906 C 29.476562 -58.164062 27.902344 -58.554688 26.527344 -58.554688 C 24.167969 -58.554688 22.007812 -57.574219 20.042969 -55.804688 C 17.488281 -53.644531 15.128906 -51.285156 12.96875 -48.929688 C 3.339844 -38.90625 -1.964844 -27.117188 -2.949219 -13.753906 C -3.144531 -8.644531 -3.144531 -3.339844 2.160156 0 C 3.929688 1.375 5.894531 1.964844 7.859375 1.964844 C 10.808594 1.964844 13.753906 0.394531 15.71875 -0.984375 C 23.972656 -6.289062 30.0625 -13.164062 33.796875 -21.417969 C 35.566406 -24.957031 37.53125 -26.527344 40.675781 -26.527344 C 41.855469 -26.527344 43.230469 -26.332031 44.800781 -25.9375 C 47.945312 -25.152344 51.089844 -24.757812 54.035156 -24.757812 C 57.574219 -24.757812 60.914062 -25.347656 64.453125 -26.332031 C 66.417969 -26.921875 72.507812 -28.886719 72.113281 -31.242188 C 72.113281 -31.242188 71.722656 -31.636719 70.542969 -31.832031 Z M 29.671875 -29.671875 C 29.671875 -29.082031 29.671875 -28.492188 29.476562 -27.902344 C 25.9375 -19.453125 20.632812 -8.84375 9.234375 -3.144531 C 8.253906 -2.554688 7.269531 -2.359375 6.289062 -2.359375 C 5.109375 -2.359375 4.125 -2.75 3.339844 -3.535156 C 2.359375 -4.519531 1.769531 -6.289062 1.769531 -8.449219 C 1.964844 -21.023438 7.074219 -30.851562 14.933594 -41.460938 C 15.523438 -42.445312 16.113281 -42.835938 16.898438 -42.835938 C 18.273438 -42.835938 19.453125 -41.460938 20.4375 -40.28125 C 21.023438 -39.691406 21.417969 -39.300781 21.8125 -38.90625 C 23.777344 -37.335938 25.742188 -35.371094 27.511719 -33.601562 C 28.097656 -33.011719 28.886719 -32.226562 29.867188 -31.046875 C 29.671875 -30.457031 29.671875 -30.0625 29.671875 -29.671875 Z M 31.441406 -37.53125 C 31.242188 -36.746094 31.046875 -35.960938 30.851562 -34.976562 L 30.652344 -33.996094 L 29.867188 -34.78125 C 29.082031 -35.566406 28.296875 -36.15625 27.3125 -36.941406 C 24.367188 -39.300781 21.417969 -41.65625 22.792969 -45.785156 C 23.1875 -46.964844 25.152344 -48.929688 27.117188 -48.929688 C 27.902344 -48.929688 28.6875 -48.730469 29.277344 -48.140625 C 33.011719 -44.605469 32.226562 -41.066406 31.441406 -37.53125 Z M 31.441406 -37.53125 "/></g></g></g></svg>