<svg xmlns="http://www.w3.org/2000/svg" xmlns:xlink="http://www.w3.org/1999/xlink" width="1500" zoomAndPan="magnify" viewBox="0 0 1125 374.999991" height="500" preserveAspectRatio="xMidYMid meet" version="1.0"><defs><filter x="0%" y="0%" width="100%" height="100%" id="4c4a165e56"><feColorMatrix values="0 0 0 0 1 0 0 0 0 1 0 0 0 0 1 0 0 0 1 0" color-interpolation-filters="sRGB"/></filter><g/><mask id="376626cb68"><g filter="url(#4c4a165e56)"><rect x="-112.5" width="1350" fill="#000000" y="-37.499999" height="449.999989" fill-opacity="0.67"/></g></mask><clipPath id="559c4c3321"><path d="M 3 0.921875 L 1007.601562 0.921875 L 1007.601562 159 L 3 159 Z M 3 0.921875 " clip-rule="nonzero"/></clipPath><clipPath id="901985ee02"><path d="M 351.863281 46.425781 C 346.589844 44.101562 333.433594 45.105469 324.109375 44.351562 C 323.828125 44.855469 324.613281 44.949219 325.398438 45.011719 C 325.996094 46.550781 318.898438 43.097656 320.0625 46.015625 C 315.164062 46.207031 306.875 44.761719 304.144531 46.046875 C 309.449219 46.238281 314.753906 46.425781 320.03125 46.613281 C 324.613281 45.609375 326.152344 47.023438 330.640625 46.394531 C 331.332031 46.300781 327.28125 45.230469 326.683594 45.640625 C 329.101562 43.945312 335.726562 46.015625 343.921875 45.578125 C 344.109375 46.894531 339.210938 45.734375 337.296875 46.015625 C 336.074219 47.679688 347.46875 46.015625 351.863281 46.425781 Z M 313.90625 33.082031 C 311.429688 31.796875 324.519531 33.082031 328.476562 32.988281 C 328.570312 32.613281 328.695312 32.265625 329.824219 32.421875 C 329.195312 34.996094 318.710938 32.613281 313.90625 33.082031 Z M 324.238281 40.742188 C 330.828125 41.339844 334.15625 39.488281 337.453125 41.808594 C 333.433594 41.277344 326.027344 42.1875 324.238281 40.742188 Z M 276.453125 43.160156 C 279.058594 42.722656 292.058594 41.496094 298.964844 43.441406 C 291.054688 44.195312 285.246094 45.421875 276.453125 43.160156 Z M 585.0625 38.828125 C 585.03125 39.644531 585.71875 40.144531 586.441406 40.585938 C 582.296875 40.554688 576.207031 36.820312 570.652344 39.425781 C 571.78125 38.890625 574.761719 39.832031 574.605469 39.863281 C 570.460938 40.335938 565.125 40.492188 561.042969 40.804688 C 556.960938 41.089844 554.136719 41.621094 555.015625 42.972656 C 551.625 41.308594 544.84375 41.875 541.832031 41.496094 C 544.152344 41.152344 541.234375 40.867188 540.480469 40.335938 C 549.429688 40.523438 558.753906 40.554688 564.121094 39.707031 C 564.089844 38.890625 561.796875 39.234375 561.484375 38.609375 C 572.472656 37.539062 611.054688 39.457031 585.0625 38.828125 Z M 516.839844 41.527344 C 510.089844 41.90625 487.519531 41.496094 505.003906 41.058594 C 508.679688 40.210938 514.390625 41.089844 518.128906 39.078125 C 523.058594 40.523438 535.363281 38.355469 536.554688 41.621094 C 532.351562 40.335938 510.5 44.101562 516.839844 41.527344 Z M 369.097656 45.671875 C 375.0625 45.515625 378.925781 44.855469 382.316406 46.613281 C 378.328125 46.144531 370.921875 47.085938 369.097656 45.671875 Z M 454.992188 36.472656 C 459.421875 36.882812 464.601562 36.945312 466.828125 38.324219 C 461.023438 38.578125 457.601562 37.699219 454.992188 36.472656 Z M 225.878906 30.195312 C 226.570312 29.03125 232.34375 29.09375 237.808594 29.503906 C 243.300781 29.878906 248.511719 30.601562 248.042969 30.855469 C 240.539062 30.664062 231.464844 29.503906 225.878906 30.195312 Z M 406.238281 38.484375 C 412.957031 37.824219 422.375 38.484375 428.652344 37.601562 C 425.167969 39.425781 411.511719 39.582031 406.238281 38.484375 Z M 177.71875 34.746094 C 171.722656 34.277344 166.070312 33.554688 159.574219 31.480469 C 173.011719 34.023438 188.738281 33.523438 198.09375 36.191406 C 190.058594 35.375 183.683594 35.25 177.71875 34.746094 Z M 118.320312 21.5625 C 118.949219 21.84375 119.578125 22.125 120.171875 22.378906 C 119.292969 22.1875 118.289062 22.03125 118.320312 21.5625 Z M 120.769531 22.503906 C 120.675781 22.503906 120.582031 22.503906 120.457031 22.472656 C 120.363281 22.441406 120.269531 22.410156 120.207031 22.347656 C 120.394531 22.410156 120.582031 22.441406 120.769531 22.503906 Z M 215.265625 32.550781 C 213.539062 30.824219 196.996094 31.734375 201.171875 29.722656 C 201.546875 30.824219 218.5625 30.445312 215.265625 32.550781 Z M 147.390625 24.386719 C 151.664062 24.984375 155.523438 25.609375 157.4375 26.992188 C 149.371094 25.800781 140.328125 24.730469 134.835938 22.535156 C 138.476562 23.351562 143.15625 23.789062 147.390625 24.386719 Z M 104.664062 18.890625 C 108.402344 19.867188 115.496094 19.835938 117.066406 21.371094 C 113.296875 20.523438 106.171875 20.492188 104.664062 18.890625 Z M 84.824219 17.511719 C 73.457031 15.125 62.15625 12.363281 48.941406 10.132812 C 52.238281 9.601562 56.472656 9.820312 61.152344 10.414062 C 65.863281 11.011719 71.136719 11.828125 76.410156 12.769531 C 61.214844 8.5625 44.480469 8.28125 28.566406 4.578125 C 26.117188 3.730469 28.910156 1.90625 26.964844 0.996094 C 20.652344 0.496094 18.957031 4.105469 12.238281 3.289062 C 13.402344 5.265625 18.550781 6.492188 21.1875 8.21875 C 18.488281 5.925781 22.570312 6.367188 24.390625 5.957031 C 26.996094 6.585938 27.71875 7.558594 28.375 8.53125 C 27.433594 6.679688 33.210938 7.464844 39.113281 8.4375 C 42.285156 12.109375 34.84375 11.011719 32.675781 13.710938 C 34.625 15.15625 38.925781 16.097656 42.628906 17.164062 C 46.335938 18.234375 49.472656 19.300781 48.972656 21.308594 C 52.046875 21.5 55.628906 22.125 59.207031 22.722656 C 62.753906 23.289062 66.300781 23.726562 69.1875 23.695312 C 67.367188 21.5 62.472656 22.785156 59.269531 21.71875 C 64.605469 20.621094 71.167969 20.429688 78.511719 21.027344 C 82.21875 21.246094 86.109375 21.625 90.160156 22.125 C 92.171875 22.378906 94.242188 22.660156 96.3125 22.972656 C 98.417969 23.257812 100.550781 23.570312 102.71875 23.851562 C 119.921875 26.519531 138.882812 29.847656 155.710938 31.703125 C 140.046875 27.996094 130.753906 26.835938 120.488281 22.503906 C 107.363281 21.90625 96.09375 19.867188 84.824219 17.511719 Z M 62.1875 19.867188 C 59.144531 19.644531 54.183594 21.402344 50.855469 18.640625 C 54.339844 19.207031 60.554688 18.421875 62.1875 19.867188 Z M 129.96875 20.714844 C 125.226562 19.835938 116.847656 18.328125 109.9375 17.886719 C 113.015625 16.128906 132.136719 20.210938 129.96875 20.714844 Z M 186.949219 29.191406 C 190.371094 29.472656 193.824219 29.753906 197.246094 30.007812 C 198.34375 32.957031 187.578125 29.128906 186.792969 30.980469 C 188.925781 31.230469 198.503906 31.574219 194.484375 32.203125 C 184.46875 31.449219 160.640625 29.472656 161.175781 28.5625 C 163.433594 28.46875 168.582031 30.070312 168.898438 28.75 C 166.480469 27.304688 161.867188 26.585938 158.945312 25.296875 C 162.964844 23.414062 166.511719 28.46875 170.4375 26.457031 C 171.503906 24.921875 164.34375 26.332031 165.445312 24.761719 C 171.285156 25.390625 177.121094 25.957031 182.710938 26.679688 C 188.300781 27.335938 193.699219 28.027344 198.691406 28.90625 C 195.050781 29.191406 189.585938 28.375 186.949219 29.191406 Z M 71.355469 6.210938 C 69.347656 5.425781 67.273438 4.890625 65.171875 4.515625 C 63.097656 4.105469 61.089844 3.761719 59.207031 3.476562 C 55.46875 2.914062 52.332031 2.441406 50.949219 1.28125 C 58.609375 2.253906 64.007812 1.625 70.980469 1.8125 C 72.078125 3.730469 73.113281 4.828125 71.355469 6.210938 Z M 274.980469 46.144531 C 279.625 46.238281 283.457031 46.644531 285.527344 47.804688 C 280.882812 47.710938 277.050781 47.273438 274.980469 46.144531 Z M 758.890625 122.148438 C 767.492188 121.113281 776.597656 119.761719 782.089844 120.578125 C 774.460938 121.019531 765.328125 122.367188 758.890625 122.148438 Z M 807.992188 60.207031 C 803.472656 60.050781 799.074219 59.832031 795.746094 58.921875 C 799.453125 59.203125 811.851562 57.257812 810.441406 58.636719 C 808.492188 59.015625 805.542969 59.109375 805.261719 59.988281 C 807.113281 59.671875 810.347656 59.390625 807.992188 60.207031 Z M 841.679688 94.457031 C 850.058594 92.574219 856.464844 92.859375 844.441406 94.617188 C 838.570312 95.304688 829.402344 97.691406 825.574219 96.875 C 829.058594 97.191406 829.402344 93.894531 830.847656 95.496094 C 830.03125 95.652344 829.277344 95.808594 829.589844 96.28125 C 832.226562 94.019531 836.527344 94.992188 841.679688 94.457031 Z M 10.417969 96.875 C 9.949219 97.878906 5.710938 96.121094 4.675781 96.6875 C 19.996094 102.496094 23.480469 112.164062 18.425781 118.160156 C 27.277344 119.855469 30.007812 122.460938 32.835938 125.195312 C 35.660156 127.894531 38.578125 130.625 47.808594 131.910156 C 51.136719 132.726562 45.925781 133.199219 44.640625 133.136719 C 51.484375 134.171875 59.519531 135.398438 68.214844 136.746094 C 76.882812 138.128906 86.171875 139.320312 95.558594 140.640625 C 114.335938 143.027344 133.578125 145.160156 149.023438 146.164062 C 151.472656 145.191406 148.960938 145.378906 149.277344 143.746094 C 200.417969 147.796875 250.429688 151.1875 299.496094 154.011719 C 348.597656 156.964844 397.761719 159.097656 446.675781 158.25 C 459.953125 158 472.859375 157.59375 486.167969 156.996094 C 546.070312 154.703125 607.726562 151.753906 666.246094 145.316406 C 672.335938 144.625 680.75 143.777344 689.226562 143.089844 C 697.703125 142.398438 706.304688 141.863281 712.710938 141.519531 C 714.3125 141.265625 713.777344 140.292969 713.902344 139.570312 C 717.703125 140.417969 725.863281 138.757812 731.734375 138.441406 C 732.332031 137.4375 718.519531 139.132812 715.160156 138.253906 C 718.644531 136.746094 726.273438 137.71875 735.628906 136.246094 C 732.898438 135.460938 728.40625 135.679688 724.546875 135.523438 C 732.144531 133.480469 738.421875 133.011719 745.265625 132.664062 C 752.109375 132.351562 759.550781 131.816406 769.472656 130.058594 C 772.421875 129.996094 771.949219 128.898438 771.984375 127.925781 C 781.808594 126.761719 789.816406 126.890625 800.644531 124.972656 C 793.832031 123.75 783.691406 124.15625 772.453125 125.382812 C 761.214844 126.574219 748.90625 128.519531 737.667969 129.335938 C 741.8125 128.394531 746.425781 127.707031 751.292969 126.953125 C 756.160156 126.167969 761.308594 125.476562 766.519531 124.785156 C 776.941406 123.402344 787.710938 122.242188 797.253906 120.546875 C 787.238281 120.671875 777.070312 121.457031 767.523438 122.652344 C 757.980469 123.8125 749.066406 125.414062 741.5 126.542969 C 739.929688 124.847656 744.417969 125.164062 746.804688 124.816406 C 738.265625 125.066406 715.066406 128.082031 708.816406 129.179688 C 707.246094 128.554688 704.863281 128.144531 702.320312 127.832031 C 699.777344 127.515625 697.105469 127.328125 694.972656 127.328125 C 690.292969 130.183594 670.988281 130.28125 658.429688 132.007812 C 662.699219 129.589844 672.839844 129.273438 681.378906 128.394531 C 681.753906 127.957031 677.988281 127.738281 677.265625 128.113281 C 681.722656 125.851562 693.652344 125.035156 706.304688 124.09375 C 718.925781 123.027344 732.269531 122.085938 739.457031 120.078125 L 748.28125 119.199219 L 757.070312 118.160156 C 767.273438 117 758.292969 116.9375 752.925781 118.035156 C 741.027344 119.164062 732.175781 120.546875 723.132812 121.082031 C 728.46875 120.421875 735.910156 118.945312 743.476562 117.4375 C 747.273438 116.71875 751.074219 115.839844 754.683594 115.054688 C 758.292969 114.269531 761.714844 113.546875 764.667969 112.980469 C 766.082031 112.730469 785.796875 110.847656 776.753906 110.910156 C 771.355469 110.878906 765.484375 111.851562 759.488281 112.792969 C 753.492188 113.734375 747.402344 114.707031 741.59375 114.394531 C 746.207031 113.609375 752.390625 110.1875 757.667969 111.378906 C 762.847656 109.402344 769.503906 107.894531 777.035156 106.640625 C 784.539062 105.351562 792.921875 104.503906 801.492188 103.3125 C 810.0625 102.179688 818.824219 101.144531 827.171875 99.953125 C 831.347656 99.355469 835.398438 98.757812 839.261719 98.039062 C 843.121094 97.253906 846.765625 96.4375 850.15625 95.558594 C 852.664062 94.992188 863.464844 93.707031 859.445312 93.359375 C 838.191406 97.847656 815.496094 100.894531 792.390625 104.128906 C 795.9375 102.308594 802.875 101.367188 809.71875 100.421875 C 809.625 98.949219 795.152344 100.613281 805.355469 98.601562 C 802.339844 98.695312 798.699219 98.980469 794.585938 99.386719 C 790.472656 99.796875 785.890625 100.140625 781.117188 100.675781 C 771.542969 101.679688 761.058594 102.964844 751.480469 104.191406 C 756.535156 102.558594 763.757812 100.988281 771.984375 99.542969 C 776.09375 98.824219 780.425781 98.132812 784.886719 97.441406 C 787.113281 97.097656 789.34375 96.78125 791.605469 96.4375 C 793.832031 96.058594 796.09375 95.683594 798.324219 95.335938 C 816.1875 92.355469 833.105469 89.78125 839.324219 87.582031 C 845.035156 86.859375 851.191406 85.855469 855.523438 86.078125 C 860.230469 83.722656 850.25 85.667969 847.328125 86.234375 C 853.578125 83.1875 852.601562 84.035156 860.359375 82.183594 C 857.0625 80.363281 847.863281 85.386719 839.039062 85.792969 C 852.070312 85.070312 837.09375 87.929688 833.609375 86.011719 C 835.242188 85.511719 841.050781 83.785156 846.730469 82.65625 C 846.355469 81.367188 841.050781 83.34375 838.664062 83.40625 C 847.894531 79.453125 870.65625 76.847656 878.125 74.273438 C 880.921875 74.210938 888.488281 71.886719 881.988281 72.984375 C 870.464844 74.804688 851.003906 80.300781 846.042969 78.480469 C 851.660156 76.785156 857.816406 75.152344 864.34375 73.582031 C 867.609375 72.796875 870.9375 72.011719 874.359375 71.289062 C 877.75 70.535156 881.234375 69.8125 884.6875 68.996094 C 898.597656 65.796875 913.039062 62.96875 926.191406 60.617188 C 933.539062 59.453125 936.300781 57.382812 927.382812 59.738281 C 925.28125 59.988281 928.292969 58.417969 925.816406 58.859375 C 910.652344 60.960938 896.902344 63.785156 882.300781 67.050781 C 874.988281 68.589844 867.421875 70.066406 859.351562 71.636719 C 851.285156 73.171875 842.777344 74.835938 833.421875 76.28125 C 836.183594 74.242188 847.613281 74.304688 850.4375 72.230469 C 848.269531 72.261719 841.207031 73.234375 833.234375 74.398438 C 825.257812 75.464844 816.375 76.910156 810.628906 78.351562 C 813.707031 76.878906 808.273438 78.132812 801.117188 79.578125 C 797.539062 80.300781 793.519531 81.085938 789.941406 81.554688 C 786.359375 81.964844 783.191406 82.152344 781.304688 81.742188 C 784.539062 81.085938 788.214844 80.425781 792.136719 79.578125 C 796.0625 78.730469 800.300781 77.882812 804.695312 77.128906 C 813.453125 75.589844 822.808594 74.335938 831.695312 74.082031 C 843.6875 70.222656 859.257812 65.828125 876.808594 61.964844 C 885.566406 59.894531 894.796875 57.726562 904.308594 55.8125 C 913.820312 53.867188 923.679688 52.203125 933.507812 50.253906 C 933.160156 49.816406 932.0625 49.941406 931.9375 49.34375 C 938.496094 47.933594 961.886719 42.28125 947.320312 44.667969 C 926.695312 48.589844 869.617188 62.027344 842.527344 65.542969 C 842.933594 66.140625 845.195312 65.511719 845.351562 66.296875 C 838.289062 68.117188 836.402344 66.644531 830.660156 67.460938 C 827.300781 68.621094 835.996094 67.492188 837.441406 67.617188 C 829.875 71.320312 819.640625 69.71875 813.453125 69.941406 C 805.886719 70.128906 795.277344 72.515625 785.480469 73.925781 C 775.6875 75.308594 766.769531 76.0625 762.753906 73.582031 C 758.011719 78.226562 753.367188 73.457031 744.199219 75.808594 C 743.757812 77.789062 750.320312 75.527344 751.011719 76.816406 C 751.417969 78.480469 744.167969 76.753906 748.4375 77.757812 C 737.792969 76.941406 726.710938 78.164062 714.96875 79.765625 C 709.101562 80.519531 703.101562 81.429688 696.886719 81.964844 C 690.703125 82.464844 684.328125 82.75 677.769531 82.527344 C 684.644531 81.023438 693.558594 80.113281 702.914062 78.917969 C 712.269531 77.695312 722.035156 76.4375 730.636719 74.710938 C 729.914062 73.425781 724.074219 75.121094 721.28125 75.027344 C 726.085938 73.171875 733.179688 72.074219 740.964844 71.257812 C 748.75 70.347656 757.226562 69.5 764.792969 68.433594 C 767.429688 68.117188 770.066406 67.804688 772.734375 67.492188 C 776 67.175781 774.902344 66.484375 772.671875 66.894531 C 768.277344 67.429688 763.851562 67.960938 759.457031 68.496094 C 755.4375 68.023438 746.019531 70.191406 739.488281 69.59375 C 736.507812 69.5625 737.730469 70.914062 735.660156 71.195312 C 729.976562 71.070312 722.976562 71.730469 715.722656 72.546875 C 718.800781 70.472656 727.371094 70.285156 734.152344 69.5 C 734.496094 66.957031 731.359375 70.035156 727.464844 69.5625 C 725.894531 67.679688 731.484375 68.214844 733.964844 67.710938 C 727.875 66.675781 721.375 69.28125 715.378906 68.933594 C 725.925781 65.324219 742.691406 65.953125 755.03125 64.757812 C 752.425781 65.734375 748.089844 66.421875 744.292969 66.863281 C 740.492188 67.269531 737.199219 67.398438 736.632812 67.460938 C 738.703125 67.929688 741.46875 68.085938 744.605469 67.898438 C 747.746094 67.710938 751.292969 67.269531 754.933594 66.769531 C 762.25 65.734375 770.097656 64.414062 776.347656 64.039062 C 774.839844 62.8125 770.128906 63.535156 765.640625 64.101562 C 766.050781 62.6875 772.109375 63.0625 774.808594 62.375 C 769.1875 61.558594 762.21875 62.152344 754.527344 63.128906 C 750.664062 63.628906 746.648438 64.164062 742.503906 64.695312 C 738.359375 65.136719 734.058594 65.511719 729.757812 65.703125 C 742.816406 62.34375 755.46875 63.628906 765.203125 60.488281 C 769.566406 60.175781 757.007812 60.238281 751.984375 61.496094 C 751.386719 60.519531 752.894531 60.238281 754.464844 59.957031 C 751.449219 59.863281 747.839844 60.082031 743.851562 60.488281 C 739.835938 60.867188 735.441406 61.273438 730.855469 61.839844 C 721.6875 62.875 711.832031 64.164062 703.007812 64.726562 C 711.515625 61.023438 729.507812 60.648438 743.695312 58.855469 C 761.027344 57.003906 751.734375 56.847656 739.679688 58.667969 C 748.152344 56.910156 756.726562 55.53125 765.265625 54.367188 C 773.804688 53.144531 782.34375 52.203125 790.664062 50.664062 C 786.550781 48.621094 776.910156 50.851562 765.515625 51.949219 C 767.777344 50.347656 773.082031 49.753906 778.480469 49.15625 C 769.40625 49.375 757.320312 50.976562 744.699219 52.734375 C 732.050781 54.335938 718.800781 55.84375 707.5625 56.347656 C 721.40625 54.621094 733.808594 51.324219 744.261719 52.042969 C 745.453125 49.25 751.511719 52.078125 747.933594 49.15625 C 755.75 48.652344 764.289062 48.089844 773.144531 47.523438 C 777.570312 47.242188 782.058594 46.957031 786.582031 46.613281 C 791.070312 46.175781 795.589844 45.734375 800.082031 45.230469 C 809.058594 44.257812 817.882812 43.097656 826.105469 41.714844 C 834.332031 40.335938 841.929688 38.355469 848.492188 36.285156 C 855.175781 34.652344 838.476562 36.753906 837.941406 36.851562 C 830.34375 38.074219 821.742188 39.015625 812.636719 40.144531 C 803.535156 41.277344 793.863281 42.46875 784.039062 43.726562 C 774.179688 44.761719 764.132812 45.859375 754.246094 47.023438 C 749.316406 47.617188 744.417969 48.183594 739.644531 48.75 C 734.84375 49.28125 730.132812 49.785156 725.550781 50.285156 C 729.378906 48.464844 739.082031 48.84375 745.140625 47.648438 C 746.144531 46.894531 743.289062 47.210938 739.613281 47.617188 C 735.972656 48.027344 731.515625 48.589844 729.347656 48.6875 C 733.679688 47.492188 738.234375 46.613281 742.972656 45.640625 C 747.714844 44.699219 752.644531 43.851562 757.761719 43.035156 C 762.878906 42.25 768.152344 41.464844 773.582031 40.617188 C 779.015625 39.769531 784.601562 38.984375 790.285156 37.761719 C 790.191406 36.851562 782.46875 38.011719 788.808594 36.753906 C 780.425781 36.597656 772.894531 37.070312 764.855469 37.980469 C 756.820312 38.828125 748.25 39.988281 737.730469 40.523438 C 741.121094 38.828125 750.257812 38.828125 755.878906 37.761719 C 767.679688 36.097656 752.613281 37.226562 747.996094 38.105469 C 738.703125 39.488281 729.851562 40.019531 719.113281 40.929688 C 708.378906 41.746094 695.757812 42.910156 678.742188 44.164062 C 679.179688 42.753906 685.175781 43.410156 687.847656 42.847656 C 670.894531 43.914062 651.648438 41.839844 632.65625 43.757812 C 632.875 46.363281 640.628906 44.917969 645.871094 44.792969 C 633.3125 46.238281 617.460938 47.554688 602.484375 47.585938 C 587.476562 47.492188 573.351562 46.332031 564.277344 43.410156 C 552.003906 44.164062 546.039062 43.882812 532.726562 44.257812 C 529.367188 44.320312 531.125 44.761719 531.4375 45.515625 C 515.742188 44.761719 497.25 45.328125 479.074219 46.238281 C 460.894531 47.054688 443 47.648438 428.621094 46.800781 C 441.589844 45.453125 450.976562 46.207031 464.253906 45.074219 C 462.9375 44.070312 458.164062 44.636719 457.664062 43.222656 C 448.839844 45.484375 435.308594 45.671875 421.652344 45.578125 C 407.996094 45.453125 394.246094 45.296875 385.015625 47.335938 C 397.886719 46.269531 406.300781 46.519531 427.335938 46.769531 C 427.804688 47.804688 426.300781 47.902344 424.667969 47.933594 C 435.8125 49.691406 448.054688 47.054688 460.332031 48.6875 C 454.113281 50.476562 447.082031 50.945312 439.832031 51.007812 C 432.578125 51.070312 425.136719 50.757812 418.042969 50.882812 C 399.207031 51.292969 382.097656 51.886719 361.09375 51.605469 C 363.886719 50.726562 368.09375 50.539062 373.054688 50.695312 C 359.492188 49.125 333.214844 52.078125 318.742188 48.496094 C 313.5625 50.128906 302.855469 49.878906 292.496094 49.34375 C 282.136719 48.75 272.152344 47.902344 268.355469 48.339844 C 266.847656 47.367188 262.890625 47.367188 263.207031 45.671875 C 252.0625 46.175781 233.035156 45.230469 223.867188 42.910156 C 230.617188 42.34375 247.132812 42.847656 260.664062 43.726562 C 248.417969 40.335938 229.675781 40.398438 211.121094 37.824219 C 211.46875 38.671875 214.355469 38.546875 216.273438 38.796875 C 192.664062 38.167969 165.820312 37.507812 145.257812 33.050781 C 145.070312 31.386719 150.03125 35.25 149.214844 32.296875 C 142.621094 32.015625 140.078125 30.320312 134.019531 29.847656 C 134.082031 30.980469 138.289062 30.726562 138.949219 31.671875 C 130.0625 30.789062 121.804688 29.941406 113.769531 29.410156 C 109.78125 29.09375 105.859375 28.78125 101.996094 28.46875 C 98.136719 28.183594 94.304688 27.902344 90.507812 27.527344 C 86.707031 27.148438 82.941406 26.773438 79.109375 26.425781 C 75.3125 26.019531 71.542969 25.453125 67.683594 24.921875 C 59.992188 23.882812 52.238281 22.25 44.042969 20.367188 C 38.925781 21.5625 29.222656 19.113281 23.386719 19.644531 C 27.464844 21.246094 22.851562 21.308594 28.28125 20.902344 C 30.039062 23.945312 26.242188 25.925781 22.789062 28.3125 C 19.398438 30.664062 16.289062 33.554688 19.710938 38.765625 C 14.972656 38.984375 17.011719 41.089844 13.277344 42.65625 C 21.941406 44.917969 15.378906 49.816406 21.660156 52.359375 C 21.03125 52.925781 19.179688 52.515625 17.546875 52.265625 C 15.914062 51.980469 14.46875 51.855469 14.65625 53.082031 C 17.230469 54.304688 14.21875 56.785156 15.566406 60.238281 C 14.375 61.179688 11.707031 60.867188 8.628906 60.238281 C 8.660156 62.46875 14.3125 63.878906 16.980469 65.574219 C 8.847656 65.261719 14.15625 70.410156 5.804688 70.789062 C 7.96875 76.4375 5.144531 79.765625 3.730469 83.28125 C 3.011719 85.039062 2.664062 86.859375 3.480469 89.058594 C 4.296875 91.035156 6.304688 93.671875 10.417969 96.875 Z M 703.667969 72.386719 C 704.109375 71.289062 701.566406 71.039062 703.511719 70.566406 C 705.488281 71.980469 717.136719 69.027344 716.855469 70.472656 C 714.4375 71.792969 708.15625 71.792969 703.667969 72.386719 Z M 699.710938 72.765625 C 702.445312 73.140625 714.4375 71.414062 710.480469 73.550781 C 708.535156 72.324219 700.496094 74.648438 699.710938 72.765625 Z M 741.308594 86.328125 C 750.164062 85.824219 761.621094 83.3125 766.613281 83.34375 C 766.992188 84.066406 768.84375 84.316406 765.421875 84.695312 C 759.550781 85.886719 755.71875 86.109375 751.765625 86.296875 C 749.785156 86.390625 747.777344 86.453125 745.484375 86.609375 C 743.164062 86.734375 740.558594 86.925781 737.355469 87.300781 C 730.824219 87.773438 738.546875 86.265625 741.308594 86.328125 Z M 530.183594 50.285156 C 536.621094 49.597656 543.621094 51.824219 543.433594 52.390625 C 538.21875 52.078125 533.699219 51.417969 530.183594 50.285156 Z M 513.074219 52.484375 C 517.09375 52.859375 524.40625 51.449219 526.257812 52.796875 C 522.273438 52.515625 514.925781 53.867188 513.074219 52.484375 Z M 509.085938 49.46875 C 498.222656 49.03125 485.949219 49.15625 481.367188 47.335938 C 491.535156 48.527344 500.011719 47.335938 509.085938 49.46875 Z M 476.121094 51.636719 C 482.464844 52.078125 493.703125 50.222656 495.933594 52.640625 C 492.730469 52.078125 467.992188 52.828125 476.121094 51.636719 Z M 568.140625 42.53125 C 578.625 42.972656 595.640625 41.371094 595.921875 46.832031 C 589.300781 44.824219 567.605469 44.132812 568.140625 42.53125 Z M 805.324219 118.757812 C 800.832031 119.355469 792.199219 119.164062 792.890625 118.664062 C 796.1875 118.664062 802.625 116.527344 803.816406 117.753906 C 801.398438 118.382812 804.476562 118.316406 805.324219 118.757812 Z M 824.253906 60.929688 C 818.507812 62.5 804.507812 64.601562 804.222656 61.964844 C 809.4375 62.6875 819.105469 59.046875 824.253906 60.929688 Z M 765.171875 71.320312 C 763.820312 70.191406 757.667969 72.011719 757.007812 70.472656 L 764.949219 69.5 C 764.542969 70.628906 767.085938 70.851562 765.171875 71.320312 Z M 394.183594 49.21875 C 396.507812 48.75 398.328125 47.242188 399.457031 49.3125 C 397.542969 50.632812 396.253906 48.496094 395.46875 49.847656 L 384.890625 49.691406 C 385.519531 48.339844 391.421875 49.535156 394.183594 49.21875 Z M 790.695312 71.257812 C 789.375 71.445312 788.054688 71.636719 786.707031 71.792969 C 769.1875 73.550781 783.597656 69.375 790.695312 71.257812 Z M 813.265625 68.621094 C 806.046875 68.964844 794.648438 71.195312 793.203125 69.6875 C 799.359375 69.65625 808.621094 67.648438 813.265625 68.621094 Z M 30.480469 130.152344 C 29.320312 129.464844 26.871094 129.335938 23.792969 129.054688 C 20.714844 128.773438 17.011719 128.300781 13.371094 126.890625 C 14.28125 122.523438 31.925781 128.710938 30.480469 130.152344 Z M 806.832031 33.429688 C 811.664062 32.675781 815.839844 32.390625 818.695312 32.957031 C 813.957031 33.617188 808.460938 34.746094 806.832031 33.429688 Z M 987.128906 22.472656 C 995.132812 20.304688 998.996094 18.765625 1007.847656 17.824219 C 999.496094 19.675781 993.15625 23.976562 987.128906 22.472656 Z M 923.113281 14.558594 C 928.921875 11.734375 939.09375 13.054688 923.113281 14.558594 Z M 770.066406 35.34375 C 776.222656 34.996094 785.542969 32.707031 789.625 33.460938 C 783.535156 34.023438 774.179688 36.222656 770.066406 35.34375 Z M 607.632812 43.914062 C 614.886719 43.789062 623.957031 42.65625 626.125 45.230469 C 621.605469 43.945312 608.292969 47.304688 607.632812 43.914062 Z M 890.839844 76.6875 C 888.863281 77.378906 885.222656 78.449219 881.578125 79.199219 C 877.90625 79.921875 874.265625 80.394531 872.222656 80.078125 C 873.917969 79.359375 877.65625 78.449219 881.453125 77.757812 C 885.222656 77.003906 889.019531 76.46875 890.839844 76.6875 Z M 898.691406 103.5625 C 896.902344 104.820312 887.199219 104.851562 883.964844 106.984375 C 883.242188 104.945312 896.742188 103.15625 898.691406 103.5625 Z M 991.835938 46.269531 C 982.667969 47.554688 968.164062 53.144531 967.914062 50.445312 C 976.328125 50.160156 986.71875 45.230469 991.835938 46.269531 Z M 897.75 69.75 C 892.535156 69.910156 888.394531 73.203125 885.851562 72.074219 C 886.730469 70.976562 900.949219 68.179688 897.75 69.75 Z M 948.230469 48.652344 C 953.316406 47.335938 957.617188 46.175781 961.792969 45.265625 C 963.863281 44.824219 965.9375 44.417969 968.039062 44.101562 C 970.113281 43.726562 972.246094 43.410156 974.476562 43.191406 C 991.804688 39.425781 974.226562 43.503906 965.496094 46.015625 C 959.3125 47.710938 951.402344 52.109375 948.636719 50.414062 C 956.519531 48.527344 952.058594 48.433594 948.230469 48.652344 Z M 948.230469 48.652344 " clip-rule="nonzero"/></clipPath><linearGradient x1="0.0783894" gradientTransform="matrix(-3.139432, 0, 0, 3.139432, 1007.848028, 0.934904)" y1="25.087" x2="320.121597" gradientUnits="userSpaceOnUse" y2="25.087" id="44d63e60b2"><stop stop-opacity="1" stop-color="rgb(100%, 33.31604%, 0.0228882%)" offset="0"/><stop stop-opacity="1" stop-color="rgb(100%, 33.570862%, 0.393677%)" offset="0.00390625"/><stop stop-opacity="1" stop-color="rgb(100%, 33.827209%, 0.764465%)" offset="0.0078125"/><stop stop-opacity="1" stop-color="rgb(100%, 34.082031%, 1.133728%)" offset="0.0117188"/><stop stop-opacity="1" stop-color="rgb(100%, 34.338379%, 1.504517%)" offset="0.015625"/><stop stop-opacity="1" stop-color="rgb(100%, 34.593201%, 1.875305%)" offset="0.0195312"/><stop stop-opacity="1" stop-color="rgb(100%, 34.849548%, 2.246094%)" offset="0.0234375"/><stop stop-opacity="1" stop-color="rgb(100%, 35.105896%, 2.616882%)" offset="0.0273438"/><stop stop-opacity="1" stop-color="rgb(100%, 35.362244%, 2.987671%)" offset="0.03125"/><stop stop-opacity="1" stop-color="rgb(100%, 35.617065%, 3.358459%)" offset="0.0351562"/><stop stop-opacity="1" stop-color="rgb(100%, 35.873413%, 3.729248%)" offset="0.0390625"/><stop stop-opacity="1" stop-color="rgb(100%, 36.128235%, 4.100037%)" offset="0.0429688"/><stop stop-opacity="1" stop-color="rgb(100%, 36.384583%, 4.470825%)" offset="0.046875"/><stop stop-opacity="1" stop-color="rgb(100%, 36.64093%, 4.841614%)" offset="0.0507812"/><stop stop-opacity="1" stop-color="rgb(100%, 36.897278%, 5.212402%)" offset="0.0546875"/><stop stop-opacity="1" stop-color="rgb(100%, 37.1521%, 5.581665%)" offset="0.0585938"/><stop stop-opacity="1" stop-color="rgb(100%, 37.408447%, 5.952454%)" offset="0.0625"/><stop stop-opacity="1" stop-color="rgb(100%, 37.663269%, 6.323242%)" offset="0.0664062"/><stop stop-opacity="1" stop-color="rgb(100%, 37.919617%, 6.694031%)" offset="0.0703125"/><stop stop-opacity="1" stop-color="rgb(100%, 38.175964%, 7.064819%)" offset="0.0742188"/><stop stop-opacity="1" stop-color="rgb(100%, 38.432312%, 7.435608%)" offset="0.078125"/><stop stop-opacity="1" stop-color="rgb(100%, 38.687134%, 7.806396%)" offset="0.0820312"/><stop stop-opacity="1" stop-color="rgb(100%, 38.943481%, 8.177185%)" offset="0.0859375"/><stop stop-opacity="1" stop-color="rgb(100%, 39.198303%, 8.547974%)" offset="0.0898437"/><stop stop-opacity="1" stop-color="rgb(100%, 39.454651%, 8.918762%)" offset="0.09375"/><stop stop-opacity="1" stop-color="rgb(100%, 39.710999%, 9.289551%)" offset="0.0976563"/><stop stop-opacity="1" stop-color="rgb(100%, 39.967346%, 9.660339%)" offset="0.101563"/><stop stop-opacity="1" stop-color="rgb(100%, 40.222168%, 10.029602%)" offset="0.105469"/><stop stop-opacity="1" stop-color="rgb(100%, 40.478516%, 10.400391%)" offset="0.109375"/><stop stop-opacity="1" stop-color="rgb(100%, 40.733337%, 10.771179%)" offset="0.113281"/><stop stop-opacity="1" stop-color="rgb(100%, 40.989685%, 11.141968%)" offset="0.117188"/><stop stop-opacity="1" stop-color="rgb(100%, 41.246033%, 11.512756%)" offset="0.121094"/><stop stop-opacity="1" stop-color="rgb(100%, 41.50238%, 11.883545%)" offset="0.125"/><stop stop-opacity="1" stop-color="rgb(100%, 41.757202%, 12.254333%)" offset="0.128906"/><stop stop-opacity="1" stop-color="rgb(100%, 42.01355%, 12.625122%)" offset="0.132812"/><stop stop-opacity="1" stop-color="rgb(100%, 42.268372%, 12.995911%)" offset="0.136719"/><stop stop-opacity="1" stop-color="rgb(100%, 42.524719%, 13.366699%)" offset="0.140625"/><stop stop-opacity="1" stop-color="rgb(100%, 42.781067%, 13.737488%)" offset="0.144531"/><stop stop-opacity="1" stop-color="rgb(100%, 43.037415%, 14.108276%)" offset="0.148438"/><stop stop-opacity="1" stop-color="rgb(100%, 43.292236%, 14.477539%)" offset="0.152344"/><stop stop-opacity="1" stop-color="rgb(100%, 43.548584%, 14.848328%)" offset="0.15625"/><stop stop-opacity="1" stop-color="rgb(100%, 43.803406%, 15.219116%)" offset="0.160156"/><stop stop-opacity="1" stop-color="rgb(100%, 44.059753%, 15.589905%)" offset="0.164062"/><stop stop-opacity="1" stop-color="rgb(100%, 44.316101%, 15.960693%)" offset="0.167969"/><stop stop-opacity="1" stop-color="rgb(100%, 44.572449%, 16.331482%)" offset="0.171875"/><stop stop-opacity="1" stop-color="rgb(100%, 44.827271%, 16.702271%)" offset="0.175781"/><stop stop-opacity="1" stop-color="rgb(100%, 45.083618%, 17.073059%)" offset="0.179687"/><stop stop-opacity="1" stop-color="rgb(100%, 45.33844%, 17.443848%)" offset="0.183594"/><stop stop-opacity="1" stop-color="rgb(100%, 45.594788%, 17.814636%)" offset="0.1875"/><stop stop-opacity="1" stop-color="rgb(100%, 45.851135%, 18.183899%)" offset="0.191406"/><stop stop-opacity="1" stop-color="rgb(100%, 46.107483%, 18.554688%)" offset="0.195312"/><stop stop-opacity="1" stop-color="rgb(100%, 46.362305%, 18.925476%)" offset="0.199219"/><stop stop-opacity="1" stop-color="rgb(100%, 46.618652%, 19.296265%)" offset="0.203125"/><stop stop-opacity="1" stop-color="rgb(100%, 46.873474%, 19.667053%)" offset="0.207031"/><stop stop-opacity="1" stop-color="rgb(100%, 47.129822%, 20.037842%)" offset="0.210937"/><stop stop-opacity="1" stop-color="rgb(100%, 47.384644%, 20.40863%)" offset="0.214844"/><stop stop-opacity="1" stop-color="rgb(100%, 47.640991%, 20.779419%)" offset="0.21875"/><stop stop-opacity="1" stop-color="rgb(100%, 47.897339%, 21.150208%)" offset="0.222656"/><stop stop-opacity="1" stop-color="rgb(100%, 48.153687%, 21.520996%)" offset="0.226562"/><stop stop-opacity="1" stop-color="rgb(100%, 48.408508%, 21.891785%)" offset="0.230469"/><stop stop-opacity="1" stop-color="rgb(100%, 48.664856%, 22.262573%)" offset="0.234375"/><stop stop-opacity="1" stop-color="rgb(100%, 48.919678%, 22.631836%)" offset="0.238281"/><stop stop-opacity="1" stop-color="rgb(100%, 49.176025%, 23.002625%)" offset="0.242188"/><stop stop-opacity="1" stop-color="rgb(100%, 49.432373%, 23.373413%)" offset="0.246094"/><stop stop-opacity="1" stop-color="rgb(100%, 49.688721%, 23.744202%)" offset="0.25"/><stop stop-opacity="1" stop-color="rgb(100%, 49.943542%, 24.11499%)" offset="0.253906"/><stop stop-opacity="1" stop-color="rgb(100%, 50.19989%, 24.485779%)" offset="0.257812"/><stop stop-opacity="1" stop-color="rgb(100%, 50.454712%, 24.856567%)" offset="0.261719"/><stop stop-opacity="1" stop-color="rgb(100%, 50.71106%, 25.227356%)" offset="0.265625"/><stop stop-opacity="1" stop-color="rgb(100%, 50.967407%, 25.598145%)" offset="0.269531"/><stop stop-opacity="1" stop-color="rgb(100%, 51.223755%, 25.968933%)" offset="0.273438"/><stop stop-opacity="1" stop-color="rgb(100%, 51.478577%, 26.339722%)" offset="0.277344"/><stop stop-opacity="1" stop-color="rgb(100%, 51.734924%, 26.71051%)" offset="0.28125"/><stop stop-opacity="1" stop-color="rgb(100%, 51.989746%, 27.079773%)" offset="0.285156"/><stop stop-opacity="1" stop-color="rgb(100%, 52.246094%, 27.450562%)" offset="0.289062"/><stop stop-opacity="1" stop-color="rgb(100%, 52.502441%, 27.82135%)" offset="0.292969"/><stop stop-opacity="1" stop-color="rgb(100%, 52.758789%, 28.192139%)" offset="0.296875"/><stop stop-opacity="1" stop-color="rgb(100%, 53.013611%, 28.562927%)" offset="0.300781"/><stop stop-opacity="1" stop-color="rgb(100%, 53.269958%, 28.933716%)" offset="0.304688"/><stop stop-opacity="1" stop-color="rgb(100%, 53.52478%, 29.304504%)" offset="0.308594"/><stop stop-opacity="1" stop-color="rgb(100%, 53.781128%, 29.675293%)" offset="0.3125"/><stop stop-opacity="1" stop-color="rgb(100%, 54.037476%, 30.046082%)" offset="0.316406"/><stop stop-opacity="1" stop-color="rgb(100%, 54.293823%, 30.41687%)" offset="0.320312"/><stop stop-opacity="1" stop-color="rgb(100%, 54.548645%, 30.787659%)" offset="0.324219"/><stop stop-opacity="1" stop-color="rgb(100%, 54.804993%, 31.158447%)" offset="0.328125"/><stop stop-opacity="1" stop-color="rgb(100%, 55.059814%, 31.52771%)" offset="0.332031"/><stop stop-opacity="1" stop-color="rgb(100%, 55.316162%, 31.898499%)" offset="0.335938"/><stop stop-opacity="1" stop-color="rgb(100%, 55.57251%, 32.269287%)" offset="0.339844"/><stop stop-opacity="1" stop-color="rgb(100%, 55.828857%, 32.640076%)" offset="0.34375"/><stop stop-opacity="1" stop-color="rgb(100%, 56.083679%, 33.010864%)" offset="0.347656"/><stop stop-opacity="1" stop-color="rgb(100%, 56.340027%, 33.381653%)" offset="0.351562"/><stop stop-opacity="1" stop-color="rgb(100%, 56.594849%, 33.752441%)" offset="0.355469"/><stop stop-opacity="1" stop-color="rgb(100%, 56.851196%, 34.12323%)" offset="0.359375"/><stop stop-opacity="1" stop-color="rgb(100%, 57.107544%, 34.494019%)" offset="0.363281"/><stop stop-opacity="1" stop-color="rgb(100%, 57.363892%, 34.864807%)" offset="0.367187"/><stop stop-opacity="1" stop-color="rgb(100%, 57.618713%, 35.235596%)" offset="0.371094"/><stop stop-opacity="1" stop-color="rgb(100%, 57.875061%, 35.606384%)" offset="0.375"/><stop stop-opacity="1" stop-color="rgb(100%, 58.129883%, 35.975647%)" offset="0.378906"/><stop stop-opacity="1" stop-color="rgb(100%, 58.38623%, 36.346436%)" offset="0.382813"/><stop stop-opacity="1" stop-color="rgb(100%, 58.642578%, 36.717224%)" offset="0.386719"/><stop stop-opacity="1" stop-color="rgb(100%, 58.898926%, 37.088013%)" offset="0.390625"/><stop stop-opacity="1" stop-color="rgb(100%, 59.153748%, 37.458801%)" offset="0.394531"/><stop stop-opacity="1" stop-color="rgb(100%, 59.410095%, 37.82959%)" offset="0.398438"/><stop stop-opacity="1" stop-color="rgb(100%, 59.664917%, 38.200378%)" offset="0.402344"/><stop stop-opacity="1" stop-color="rgb(100%, 59.921265%, 38.571167%)" offset="0.40625"/><stop stop-opacity="1" stop-color="rgb(100%, 60.176086%, 38.941956%)" offset="0.410156"/><stop stop-opacity="1" stop-color="rgb(100%, 60.432434%, 39.312744%)" offset="0.414063"/><stop stop-opacity="1" stop-color="rgb(100%, 60.688782%, 39.683533%)" offset="0.417969"/><stop stop-opacity="1" stop-color="rgb(100%, 60.945129%, 40.054321%)" offset="0.421875"/><stop stop-opacity="1" stop-color="rgb(100%, 61.199951%, 40.423584%)" offset="0.425781"/><stop stop-opacity="1" stop-color="rgb(100%, 61.456299%, 40.794373%)" offset="0.429688"/><stop stop-opacity="1" stop-color="rgb(100%, 61.711121%, 41.165161%)" offset="0.433594"/><stop stop-opacity="1" stop-color="rgb(100%, 61.967468%, 41.53595%)" offset="0.4375"/><stop stop-opacity="1" stop-color="rgb(100%, 62.223816%, 41.906738%)" offset="0.441406"/><stop stop-opacity="1" stop-color="rgb(100%, 62.480164%, 42.277527%)" offset="0.445313"/><stop stop-opacity="1" stop-color="rgb(100%, 62.734985%, 42.648315%)" offset="0.449219"/><stop stop-opacity="1" stop-color="rgb(100%, 62.991333%, 43.019104%)" offset="0.453125"/><stop stop-opacity="1" stop-color="rgb(100%, 63.246155%, 43.389893%)" offset="0.457031"/><stop stop-opacity="1" stop-color="rgb(100%, 63.502502%, 43.760681%)" offset="0.460938"/><stop stop-opacity="1" stop-color="rgb(100%, 63.75885%, 44.13147%)" offset="0.464844"/><stop stop-opacity="1" stop-color="rgb(100%, 64.015198%, 44.502258%)" offset="0.46875"/><stop stop-opacity="1" stop-color="rgb(100%, 64.27002%, 44.871521%)" offset="0.472656"/><stop stop-opacity="1" stop-color="rgb(100%, 64.526367%, 45.24231%)" offset="0.476562"/><stop stop-opacity="1" stop-color="rgb(100%, 64.781189%, 45.613098%)" offset="0.480469"/><stop stop-opacity="1" stop-color="rgb(100%, 65.037537%, 45.983887%)" offset="0.484375"/><stop stop-opacity="1" stop-color="rgb(100%, 65.293884%, 46.354675%)" offset="0.488281"/><stop stop-opacity="1" stop-color="rgb(100%, 65.550232%, 46.725464%)" offset="0.492188"/><stop stop-opacity="1" stop-color="rgb(100%, 65.805054%, 47.096252%)" offset="0.496094"/><stop stop-opacity="1" stop-color="rgb(100%, 66.061401%, 47.467041%)" offset="0.5"/><stop stop-opacity="1" stop-color="rgb(100%, 66.316223%, 47.83783%)" offset="0.503906"/><stop stop-opacity="1" stop-color="rgb(100%, 66.572571%, 48.208618%)" offset="0.507812"/><stop stop-opacity="1" stop-color="rgb(100%, 66.828918%, 48.579407%)" offset="0.511719"/><stop stop-opacity="1" stop-color="rgb(100%, 67.085266%, 48.950195%)" offset="0.515625"/><stop stop-opacity="1" stop-color="rgb(100%, 67.340088%, 49.319458%)" offset="0.519531"/><stop stop-opacity="1" stop-color="rgb(100%, 67.596436%, 49.690247%)" offset="0.523438"/><stop stop-opacity="1" stop-color="rgb(100%, 67.851257%, 50.061035%)" offset="0.527344"/><stop stop-opacity="1" stop-color="rgb(100%, 68.107605%, 50.431824%)" offset="0.53125"/><stop stop-opacity="1" stop-color="rgb(100%, 68.363953%, 50.802612%)" offset="0.535156"/><stop stop-opacity="1" stop-color="rgb(100%, 68.6203%, 51.173401%)" offset="0.539062"/><stop stop-opacity="1" stop-color="rgb(100%, 68.875122%, 51.544189%)" offset="0.542969"/><stop stop-opacity="1" stop-color="rgb(100%, 69.13147%, 51.914978%)" offset="0.546875"/><stop stop-opacity="1" stop-color="rgb(100%, 69.386292%, 52.285767%)" offset="0.550781"/><stop stop-opacity="1" stop-color="rgb(100%, 69.642639%, 52.656555%)" offset="0.554688"/><stop stop-opacity="1" stop-color="rgb(100%, 69.898987%, 53.027344%)" offset="0.558594"/><stop stop-opacity="1" stop-color="rgb(100%, 70.155334%, 53.398132%)" offset="0.5625"/><stop stop-opacity="1" stop-color="rgb(100%, 70.410156%, 53.767395%)" offset="0.566406"/><stop stop-opacity="1" stop-color="rgb(100%, 70.666504%, 54.138184%)" offset="0.570312"/><stop stop-opacity="1" stop-color="rgb(100%, 70.921326%, 54.508972%)" offset="0.574219"/><stop stop-opacity="1" stop-color="rgb(100%, 71.177673%, 54.879761%)" offset="0.578125"/><stop stop-opacity="1" stop-color="rgb(100%, 71.434021%, 55.250549%)" offset="0.582031"/><stop stop-opacity="1" stop-color="rgb(100%, 71.690369%, 55.621338%)" offset="0.585938"/><stop stop-opacity="1" stop-color="rgb(100%, 71.94519%, 55.992126%)" offset="0.589844"/><stop stop-opacity="1" stop-color="rgb(100%, 72.201538%, 56.362915%)" offset="0.59375"/><stop stop-opacity="1" stop-color="rgb(100%, 72.45636%, 56.733704%)" offset="0.597656"/><stop stop-opacity="1" stop-color="rgb(100%, 72.712708%, 57.104492%)" offset="0.601562"/><stop stop-opacity="1" stop-color="rgb(100%, 72.967529%, 57.475281%)" offset="0.605469"/><stop stop-opacity="1" stop-color="rgb(100%, 73.223877%, 57.846069%)" offset="0.609375"/><stop stop-opacity="1" stop-color="rgb(100%, 73.480225%, 58.215332%)" offset="0.613281"/><stop stop-opacity="1" stop-color="rgb(100%, 73.736572%, 58.586121%)" offset="0.617188"/><stop stop-opacity="1" stop-color="rgb(100%, 73.991394%, 58.956909%)" offset="0.621094"/><stop stop-opacity="1" stop-color="rgb(100%, 74.247742%, 59.327698%)" offset="0.625"/><stop stop-opacity="1" stop-color="rgb(100%, 74.502563%, 59.698486%)" offset="0.628906"/><stop stop-opacity="1" stop-color="rgb(100%, 74.758911%, 60.069275%)" offset="0.632812"/><stop stop-opacity="1" stop-color="rgb(100%, 75.015259%, 60.440063%)" offset="0.636719"/><stop stop-opacity="1" stop-color="rgb(100%, 75.271606%, 60.810852%)" offset="0.640625"/><stop stop-opacity="1" stop-color="rgb(100%, 75.526428%, 61.181641%)" offset="0.644531"/><stop stop-opacity="1" stop-color="rgb(100%, 75.782776%, 61.552429%)" offset="0.648438"/><stop stop-opacity="1" stop-color="rgb(100%, 76.037598%, 61.923218%)" offset="0.652344"/><stop stop-opacity="1" stop-color="rgb(100%, 76.293945%, 62.294006%)" offset="0.65625"/><stop stop-opacity="1" stop-color="rgb(100%, 76.550293%, 62.663269%)" offset="0.660156"/><stop stop-opacity="1" stop-color="rgb(100%, 76.806641%, 63.034058%)" offset="0.664062"/><stop stop-opacity="1" stop-color="rgb(100%, 77.061462%, 63.404846%)" offset="0.667969"/><stop stop-opacity="1" stop-color="rgb(100%, 77.31781%, 63.775635%)" offset="0.671875"/><stop stop-opacity="1" stop-color="rgb(100%, 77.572632%, 64.146423%)" offset="0.675781"/><stop stop-opacity="1" stop-color="rgb(100%, 77.828979%, 64.517212%)" offset="0.679688"/><stop stop-opacity="1" stop-color="rgb(100%, 78.085327%, 64.888%)" offset="0.683594"/><stop stop-opacity="1" stop-color="rgb(100%, 78.341675%, 65.258789%)" offset="0.6875"/><stop stop-opacity="1" stop-color="rgb(100%, 78.596497%, 65.629578%)" offset="0.691406"/><stop stop-opacity="1" stop-color="rgb(100%, 78.852844%, 66.000366%)" offset="0.695312"/><stop stop-opacity="1" stop-color="rgb(100%, 79.107666%, 66.369629%)" offset="0.699219"/><stop stop-opacity="1" stop-color="rgb(100%, 79.364014%, 66.740417%)" offset="0.703125"/><stop stop-opacity="1" stop-color="rgb(100%, 79.620361%, 67.111206%)" offset="0.707031"/><stop stop-opacity="1" stop-color="rgb(100%, 79.876709%, 67.481995%)" offset="0.710937"/><stop stop-opacity="1" stop-color="rgb(100%, 80.131531%, 67.852783%)" offset="0.714844"/><stop stop-opacity="1" stop-color="rgb(100%, 80.387878%, 68.223572%)" offset="0.71875"/><stop stop-opacity="1" stop-color="rgb(100%, 80.6427%, 68.59436%)" offset="0.722656"/><stop stop-opacity="1" stop-color="rgb(100%, 80.899048%, 68.965149%)" offset="0.726562"/><stop stop-opacity="1" stop-color="rgb(100%, 81.155396%, 69.335938%)" offset="0.730469"/><stop stop-opacity="1" stop-color="rgb(100%, 81.411743%, 69.706726%)" offset="0.734375"/><stop stop-opacity="1" stop-color="rgb(100%, 81.666565%, 70.077515%)" offset="0.738281"/><stop stop-opacity="1" stop-color="rgb(100%, 81.922913%, 70.448303%)" offset="0.742187"/><stop stop-opacity="1" stop-color="rgb(100%, 82.177734%, 70.817566%)" offset="0.746094"/><stop stop-opacity="1" stop-color="rgb(100%, 82.434082%, 71.188354%)" offset="0.75"/><stop stop-opacity="1" stop-color="rgb(100%, 82.69043%, 71.559143%)" offset="0.753906"/><stop stop-opacity="1" stop-color="rgb(100%, 82.946777%, 71.929932%)" offset="0.757812"/><stop stop-opacity="1" stop-color="rgb(100%, 83.201599%, 72.30072%)" offset="0.761719"/><stop stop-opacity="1" stop-color="rgb(100%, 83.457947%, 72.671509%)" offset="0.765625"/><stop stop-opacity="1" stop-color="rgb(100%, 83.712769%, 73.042297%)" offset="0.769531"/><stop stop-opacity="1" stop-color="rgb(100%, 83.969116%, 73.413086%)" offset="0.773437"/><stop stop-opacity="1" stop-color="rgb(100%, 84.225464%, 73.783875%)" offset="0.777344"/><stop stop-opacity="1" stop-color="rgb(100%, 84.481812%, 74.154663%)" offset="0.78125"/><stop stop-opacity="1" stop-color="rgb(100%, 84.736633%, 74.525452%)" offset="0.785156"/><stop stop-opacity="1" stop-color="rgb(100%, 84.992981%, 74.89624%)" offset="0.789062"/><stop stop-opacity="1" stop-color="rgb(100%, 85.247803%, 75.265503%)" offset="0.792969"/><stop stop-opacity="1" stop-color="rgb(100%, 85.50415%, 75.636292%)" offset="0.796875"/><stop stop-opacity="1" stop-color="rgb(100%, 85.760498%, 76.00708%)" offset="0.800781"/><stop stop-opacity="1" stop-color="rgb(100%, 86.016846%, 76.377869%)" offset="0.804687"/><stop stop-opacity="1" stop-color="rgb(100%, 86.271667%, 76.748657%)" offset="0.808594"/><stop stop-opacity="1" stop-color="rgb(100%, 86.528015%, 77.119446%)" offset="0.8125"/><stop stop-opacity="1" stop-color="rgb(100%, 86.782837%, 77.490234%)" offset="0.816406"/><stop stop-opacity="1" stop-color="rgb(100%, 87.039185%, 77.861023%)" offset="0.820312"/><stop stop-opacity="1" stop-color="rgb(100%, 87.294006%, 78.231812%)" offset="0.824219"/><stop stop-opacity="1" stop-color="rgb(100%, 87.550354%, 78.6026%)" offset="0.828125"/><stop stop-opacity="1" stop-color="rgb(100%, 87.806702%, 78.973389%)" offset="0.832031"/><stop stop-opacity="1" stop-color="rgb(100%, 88.063049%, 79.344177%)" offset="0.835937"/><stop stop-opacity="1" stop-color="rgb(100%, 88.317871%, 79.71344%)" offset="0.839844"/><stop stop-opacity="1" stop-color="rgb(100%, 88.574219%, 80.084229%)" offset="0.84375"/><stop stop-opacity="1" stop-color="rgb(100%, 88.829041%, 80.455017%)" offset="0.847656"/><stop stop-opacity="1" stop-color="rgb(100%, 89.085388%, 80.825806%)" offset="0.851562"/><stop stop-opacity="1" stop-color="rgb(100%, 89.341736%, 81.196594%)" offset="0.855469"/><stop stop-opacity="1" stop-color="rgb(100%, 89.598083%, 81.567383%)" offset="0.859375"/><stop stop-opacity="1" stop-color="rgb(100%, 89.852905%, 81.938171%)" offset="0.863281"/><stop stop-opacity="1" stop-color="rgb(100%, 90.109253%, 82.30896%)" offset="0.867188"/><stop stop-opacity="1" stop-color="rgb(100%, 90.364075%, 82.679749%)" offset="0.871094"/><stop stop-opacity="1" stop-color="rgb(100%, 90.620422%, 83.050537%)" offset="0.875"/><stop stop-opacity="1" stop-color="rgb(100%, 90.87677%, 83.421326%)" offset="0.878906"/><stop stop-opacity="1" stop-color="rgb(100%, 91.133118%, 83.792114%)" offset="0.882812"/><stop stop-opacity="1" stop-color="rgb(100%, 91.387939%, 84.161377%)" offset="0.886719"/><stop stop-opacity="1" stop-color="rgb(100%, 91.644287%, 84.532166%)" offset="0.890625"/><stop stop-opacity="1" stop-color="rgb(100%, 91.899109%, 84.902954%)" offset="0.894531"/><stop stop-opacity="1" stop-color="rgb(100%, 92.155457%, 85.273743%)" offset="0.898438"/><stop stop-opacity="1" stop-color="rgb(100%, 92.411804%, 85.644531%)" offset="0.902344"/><stop stop-opacity="1" stop-color="rgb(100%, 92.668152%, 86.01532%)" offset="0.90625"/><stop stop-opacity="1" stop-color="rgb(100%, 92.922974%, 86.386108%)" offset="0.910156"/><stop stop-opacity="1" stop-color="rgb(100%, 93.179321%, 86.756897%)" offset="0.914062"/><stop stop-opacity="1" stop-color="rgb(100%, 93.434143%, 87.127686%)" offset="0.917969"/><stop stop-opacity="1" stop-color="rgb(100%, 93.690491%, 87.498474%)" offset="0.921875"/><stop stop-opacity="1" stop-color="rgb(100%, 93.946838%, 87.869263%)" offset="0.925781"/><stop stop-opacity="1" stop-color="rgb(100%, 94.203186%, 88.240051%)" offset="0.929688"/><stop stop-opacity="1" stop-color="rgb(100%, 94.458008%, 88.609314%)" offset="0.933594"/><stop stop-opacity="1" stop-color="rgb(100%, 94.714355%, 88.980103%)" offset="0.9375"/><stop stop-opacity="1" stop-color="rgb(100%, 94.969177%, 89.350891%)" offset="0.941406"/><stop stop-opacity="1" stop-color="rgb(100%, 95.225525%, 89.72168%)" offset="0.945312"/><stop stop-opacity="1" stop-color="rgb(100%, 95.481873%, 90.092468%)" offset="0.949219"/><stop stop-opacity="1" stop-color="rgb(100%, 95.73822%, 90.463257%)" offset="0.953125"/><stop stop-opacity="1" stop-color="rgb(100%, 95.993042%, 90.834045%)" offset="0.957031"/><stop stop-opacity="1" stop-color="rgb(100%, 96.24939%, 91.204834%)" offset="0.960938"/><stop stop-opacity="1" stop-color="rgb(100%, 96.504211%, 91.575623%)" offset="0.964844"/><stop stop-opacity="1" stop-color="rgb(100%, 96.760559%, 91.946411%)" offset="0.96875"/><stop stop-opacity="1" stop-color="rgb(100%, 97.016907%, 92.3172%)" offset="0.972656"/><stop stop-opacity="1" stop-color="rgb(100%, 97.273254%, 92.687988%)" offset="0.976562"/><stop stop-opacity="1" stop-color="rgb(100%, 97.528076%, 93.057251%)" offset="0.980469"/><stop stop-opacity="1" stop-color="rgb(100%, 97.784424%, 93.42804%)" offset="0.984375"/><stop stop-opacity="1" stop-color="rgb(100%, 98.039246%, 93.798828%)" offset="0.988281"/><stop stop-opacity="1" stop-color="rgb(100%, 98.295593%, 94.169617%)" offset="0.992188"/><stop stop-opacity="1" stop-color="rgb(100%, 98.547363%, 94.534302%)" offset="0.996094"/><stop stop-opacity="1" stop-color="rgb(100%, 98.799133%, 94.898987%)" offset="1"/></linearGradient><clipPath id="1ac51fa184"><rect x="0" width="1009" y="0" height="162"/></clipPath></defs><g mask="url(#376626cb68)"><g transform="matrix(1, 0, 0, 1, 112, 127)"><g clip-path="url(#1ac51fa184)"><g clip-path="url(#559c4c3321)"><g clip-path="url(#901985ee02)"><path fill="url(#44d63e60b2)" d="M 1007.601562 0.921875 L 1007.601562 159.097656 L 2.847656 159.097656 L 2.847656 0.921875 Z M 1007.601562 0.921875 " fill-rule="nonzero"/></g></g></g></g></g><g fill="#000000" fill-opacity="1"><g transform="translate(171.962593, 248.696907)"><g><path d="M 189.835938 58.070312 C 189.613281 57.632812 188.953125 56.972656 188.515625 56.53125 C 182.355469 51.472656 176.195312 46.195312 170.035156 40.914062 C 155.300781 28.15625 139.902344 14.957031 124.28125 3.519531 C 117.464844 -1.539062 110.425781 -6.160156 103.824219 -10.339844 C 100.527344 -12.539062 84.910156 -21.996094 84.027344 -22.65625 L 82.488281 -23.757812 L 84.25 -26.835938 C 85.347656 -29.035156 86.667969 -31.234375 87.546875 -33.433594 C 95.90625 -51.03125 108.886719 -60.710938 128.242188 -64.230469 C 157.277344 -69.511719 182.136719 -79.1875 201.933594 -93.046875 C 211.390625 -99.425781 221.730469 -107.34375 225.46875 -120.761719 C 227.230469 -126.921875 226.128906 -132.421875 222.609375 -136.601562 C 219.308594 -140.78125 213.589844 -143.199219 206.550781 -143.421875 L 205.230469 -143.421875 C 194.671875 -143.421875 185.875 -139.460938 177.957031 -135.5 C 149.140625 -120.105469 128.242188 -96.785156 109.546875 -74.351562 C 108.886719 -73.691406 108.445312 -73.03125 108.003906 -72.371094 C 106.464844 -69.949219 104.707031 -67.3125 100.304688 -67.3125 C 99.644531 -67.3125 98.765625 -67.3125 98.105469 -67.53125 L 96.785156 -67.75 L 98.105469 -71.269531 C 98.765625 -73.03125 99.207031 -74.789062 99.867188 -76.328125 L 114.382812 -108.226562 C 121.863281 -125.382812 129.5625 -142.320312 137.261719 -159.476562 L 137.703125 -160.578125 C 139.679688 -164.539062 140.5625 -167.617188 137.261719 -170.476562 C 135.722656 -171.578125 134.402344 -172.015625 133.300781 -172.015625 C 131.101562 -172.015625 129.34375 -170.035156 127.800781 -168.058594 L 126.703125 -166.957031 C 126.042969 -166.296875 125.164062 -165.199219 124.0625 -164.316406 C 122.082031 -162.339844 119.003906 -159.476562 119.664062 -157.9375 C 122.304688 -156.179688 123.84375 -154.640625 124.28125 -153.097656 C 124.941406 -151.339844 123.625 -150.238281 122.742188 -149.140625 C 122.304688 -148.699219 121.863281 -148.480469 121.644531 -148.039062 C 109.105469 -124.722656 97.226562 -99.425781 85.128906 -70.171875 C 82.707031 -64.453125 78.96875 -61.371094 72.371094 -59.613281 C 56.753906 -55.652344 42.234375 -51.03125 24.636719 -45.535156 C 20.015625 -44.214844 18.699219 -42.015625 20.238281 -38.933594 C 21.777344 -35.636719 25.296875 -34.976562 28.597656 -34.535156 C 37.175781 -33.875 45.753906 -31.457031 53.894531 -29.035156 L 57.632812 -27.9375 C 60.933594 -27.054688 62.910156 -25.957031 63.792969 -24.417969 C 64.890625 -22.65625 64.453125 -20.675781 63.351562 -18.039062 C 59.613281 -9.238281 30.136719 58.953125 26.617188 67.972656 L 23.535156 75.449219 C 19.355469 85.570312 15.179688 95.90625 11 106.246094 C 9.679688 109.546875 10.558594 111.964844 13.859375 113.945312 C 14.738281 114.382812 15.617188 114.605469 16.277344 114.605469 C 18.039062 114.605469 18.917969 113.285156 20.015625 111.746094 C 20.898438 110.203125 21.777344 108.226562 22.65625 106.464844 C 22.875 105.585938 23.316406 104.707031 23.757812 103.824219 C 27.277344 96.347656 30.355469 88.867188 33.433594 81.390625 C 38.054688 69.949219 68.851562 -1.101562 75.011719 -12.097656 C 76.988281 -15.398438 78.75 -16.9375 81.390625 -16.9375 C 83.148438 -16.9375 85.570312 -16.058594 88.867188 -14.078125 C 101.847656 -7.039062 115.042969 1.757812 131.101562 13.636719 C 133.300781 15.835938 136.382812 17.816406 139.242188 19.578125 C 140.5625 20.675781 142.101562 21.558594 143.199219 22.4375 C 147.601562 25.738281 151.78125 28.816406 155.957031 31.894531 C 161.457031 36.074219 166.515625 40.253906 171.796875 44.652344 C 174.4375 46.855469 176.855469 48.832031 179.496094 50.8125 C 180.15625 51.472656 181.035156 52.351562 181.914062 53.011719 C 183.894531 54.773438 185.875 56.53125 187.855469 57.632812 C 188.515625 58.070312 189.613281 58.511719 190.054688 58.511719 Z M 74.570312 -50.152344 L 74.128906 -48.832031 C 72.371094 -37.835938 71.269531 -32.996094 64.230469 -32.996094 C 59.171875 -32.996094 51.253906 -35.414062 38.054688 -39.15625 L 35.414062 -40.035156 L 37.613281 -40.914062 C 49.492188 -45.09375 60.273438 -47.734375 73.03125 -49.933594 Z M 217.769531 -135.722656 C 224.148438 -128.683594 220.191406 -122.523438 217.109375 -117.902344 C 208.972656 -105.367188 195.992188 -98.105469 183.234375 -92.386719 C 164.316406 -83.589844 142.980469 -76.988281 117.683594 -72.371094 L 114.824219 -71.929688 L 122.742188 -80.949219 C 143.199219 -105.144531 164.539062 -130.222656 199.511719 -139.460938 C 202.152344 -140.121094 204.570312 -140.5625 206.550781 -140.5625 C 211.171875 -140.5625 214.910156 -138.800781 217.769531 -135.722656 Z M 217.769531 -135.722656 "/></g></g></g><g fill="#000000" fill-opacity="1"><g transform="translate(326.598608, 248.696907)"><g><path d="M 75.011719 -32.335938 C 74.128906 -31.675781 73.25 -30.796875 72.371094 -29.914062 C 71.710938 -29.476562 71.269531 -28.816406 70.609375 -28.375 C 67.089844 -25.296875 63.792969 -22.875 60.273438 -20.457031 C 52.574219 -15.179688 44.875 -11.660156 37.175781 -9.457031 C 32.117188 -7.917969 27.9375 -7.039062 23.097656 -7.039062 C 20.238281 -7.039062 17.597656 -7.257812 14.738281 -8.140625 C 11.21875 -9.019531 8.796875 -10.777344 7.257812 -12.976562 C 5.9375 -14.738281 5.5 -16.71875 5.9375 -18.699219 L 6.378906 -20.238281 C 7.699219 -27.054688 9.238281 -34.316406 19.136719 -35.855469 C 32.777344 -37.835938 42.015625 -42.234375 48.171875 -49.714844 C 50.8125 -53.011719 52.792969 -56.09375 49.492188 -60.710938 C 47.292969 -63.792969 44.214844 -65.332031 40.695312 -65.332031 C 39.59375 -65.332031 38.496094 -65.332031 37.175781 -64.890625 C 15.398438 -59.171875 2.199219 -45.972656 -1.757812 -26.175781 C -3.078125 -20.238281 -1.757812 -14.738281 1.980469 -10.558594 C 5.9375 -6.378906 11.878906 -3.960938 19.136719 -3.738281 L 20.238281 -3.738281 C 42.894531 -3.738281 58.953125 -16.277344 74.351562 -28.375 L 75.890625 -29.476562 C 76.988281 -30.355469 78.96875 -31.894531 78.53125 -33.433594 C 77.429688 -33.433594 76.109375 -32.996094 75.011719 -32.335938 Z M 21.558594 -43.554688 C 28.15625 -51.472656 35.195312 -54.992188 43.992188 -57.632812 L 45.972656 -58.292969 L 44.875 -56.53125 C 39.59375 -47.953125 32.777344 -44.875 22.4375 -42.453125 L 20.238281 -42.015625 Z M 21.558594 -43.554688 "/></g></g></g><g fill="#000000" fill-opacity="1"><g transform="translate(401.606973, 248.696907)"><g><path d="M 74.570312 -38.714844 C 74.351562 -38.933594 73.691406 -39.375 71.929688 -39.375 C 68.628906 -39.375 64.230469 -38.054688 62.472656 -37.613281 C 52.351562 -34.535156 40.253906 -31.015625 29.035156 -25.738281 C 27.277344 -24.855469 25.738281 -24.417969 24.195312 -24.417969 C 19.796875 -24.417969 17.378906 -28.597656 13.859375 -34.09375 C 12.316406 -36.734375 10.558594 -39.375 8.578125 -41.574219 C 5.058594 -45.535156 4.839844 -49.273438 7.480469 -52.132812 C 16.058594 -61.371094 27.496094 -66.871094 41.574219 -68.191406 L 42.234375 -68.410156 C 42.675781 -68.410156 43.113281 -68.410156 43.773438 -68.410156 C 45.3125 -68.410156 46.632812 -67.75 47.511719 -66.429688 C 48.832031 -64.230469 47.953125 -62.472656 47.074219 -60.933594 C 45.535156 -57.851562 43.773438 -54.773438 42.234375 -51.472656 C 41.132812 -49.714844 40.695312 -48.171875 42.453125 -46.855469 C 43.113281 -46.414062 43.773438 -46.195312 44.433594 -46.195312 C 45.535156 -46.195312 46.414062 -46.855469 47.292969 -47.511719 C 51.691406 -50.59375 54.113281 -54.332031 55.210938 -58.953125 C 56.3125 -62.910156 55.652344 -66.429688 53.453125 -69.070312 C 51.472656 -71.269531 48.394531 -72.371094 44.433594 -72.371094 L 43.335938 -72.371094 C 26.617188 -71.492188 12.316406 -65.109375 1.101562 -53.894531 C -2.199219 -50.375 -2.417969 -45.972656 0.878906 -40.695312 L 2.640625 -38.054688 C 4.179688 -35.195312 5.9375 -32.335938 7.917969 -29.476562 C 13.417969 -21.777344 12.757812 -17.15625 5.9375 -13.636719 C -4.839844 -7.917969 -15.835938 -1.320312 -23.535156 8.359375 C -29.476562 16.058594 -29.476562 25.078125 -23.757812 30.136719 C -21.558594 31.894531 -18.699219 32.996094 -15.835938 32.996094 C -11.4375 32.996094 -6.820312 31.015625 -2.640625 27.277344 C 8.359375 17.816406 14.738281 7.699219 16.71875 -3.300781 C 18.917969 -15.398438 27.054688 -20.238281 35.855469 -24.636719 C 41.574219 -27.277344 47.953125 -29.914062 55.871094 -32.335938 C 59.832031 -33.65625 64.011719 -34.753906 67.972656 -35.636719 C 68.410156 -35.855469 69.070312 -35.855469 69.730469 -36.074219 C 71.492188 -36.296875 75.230469 -36.734375 75.011719 -37.835938 Z M -9.679688 27.054688 C -11 27.714844 -12.976562 28.375 -15.398438 28.375 C -17.378906 28.375 -18.917969 27.714844 -20.015625 26.617188 C -20.898438 25.515625 -21.335938 23.976562 -21.335938 21.996094 C -20.675781 16.058594 -14.296875 10.339844 -9.457031 6.378906 L -7.917969 5.058594 C -5.277344 2.417969 -2.199219 0.21875 1.320312 -2.417969 C 1.980469 -2.640625 2.859375 -3.300781 4.179688 -3.738281 C 6.160156 -4.839844 10.117188 -6.820312 10.339844 -7.917969 L 11.878906 -7.480469 C 9.019531 9.679688 2.199219 20.675781 -9.679688 27.054688 Z M -9.679688 27.054688 "/></g></g></g><g fill="#000000" fill-opacity="1"><g transform="translate(470.45628, 248.696907)"><g><path d="M 123.84375 -34.535156 C 123.402344 -34.976562 122.964844 -35.195312 122.523438 -35.195312 C 122.082031 -35.195312 121.644531 -34.753906 121.203125 -34.09375 C 121.203125 -33.875 120.984375 -33.65625 120.761719 -33.433594 C 113.503906 -25.515625 104.265625 -18.257812 91.507812 -10.558594 C 84.6875 -6.597656 77.429688 -2.640625 67.53125 -2.640625 C 62.691406 -2.640625 59.613281 -3.738281 57.632812 -5.71875 C 55.652344 -7.699219 54.773438 -10.777344 55.210938 -14.957031 C 55.871094 -20.675781 57.632812 -25.957031 59.613281 -31.015625 C 60.492188 -33.433594 61.371094 -35.636719 62.03125 -38.054688 C 62.25 -38.933594 62.910156 -40.035156 63.351562 -40.914062 C 64.230469 -43.113281 65.332031 -45.3125 64.671875 -47.074219 C 64.230469 -48.171875 63.351562 -48.832031 62.03125 -49.714844 C 60.933594 -50.375 59.832031 -50.59375 59.171875 -50.59375 C 56.753906 -50.59375 55.871094 -47.734375 54.992188 -45.3125 C 54.550781 -44.433594 54.332031 -43.554688 54.113281 -42.675781 C 46.855469 -27.496094 34.535156 -15.398438 16.058594 -5.71875 C 13.636719 -4.398438 10.339844 -2.859375 7.039062 -2.859375 C 6.597656 -2.859375 6.378906 -2.859375 5.9375 -2.859375 C 4.839844 -2.859375 4.179688 -3.300781 3.519531 -3.960938 C 2.417969 -5.277344 2.199219 -6.820312 2.417969 -8.140625 C 3.519531 -21.996094 10.339844 -34.09375 16.9375 -45.535156 C 19.578125 -50.375 21.996094 -54.773438 24.195312 -59.390625 C 25.296875 -61.589844 25.957031 -63.351562 23.976562 -64.890625 C 22.875 -65.769531 21.996094 -66.210938 21.335938 -66.210938 C 20.015625 -66.210938 18.917969 -65.332031 17.816406 -64.011719 C 3.738281 -45.753906 -3.738281 -28.816406 -5.9375 -10.339844 C -6.378906 -5.71875 -4.839844 -2.199219 -1.101562 1.101562 C 0.878906 2.859375 3.078125 3.738281 5.71875 3.738281 C 7.257812 3.738281 8.796875 3.300781 10.558594 2.859375 C 16.71875 0.878906 22.65625 -2.199219 27.714844 -6.378906 C 31.894531 -9.898438 36.074219 -13.199219 40.253906 -16.71875 L 46.414062 -22.21875 L 46.632812 -20.675781 C 47.734375 -11.660156 50.59375 -5.277344 54.773438 -1.539062 C 57.632812 0.878906 61.371094 2.199219 65.550781 2.199219 C 67.75 2.199219 70.171875 1.757812 72.808594 1.101562 C 94.367188 -4.621094 109.984375 -17.816406 123.625 -31.234375 C 124.28125 -31.894531 124.941406 -32.554688 124.941406 -33.214844 C 124.722656 -33.65625 124.503906 -34.09375 123.84375 -34.535156 Z M 123.84375 -34.535156 "/></g></g></g><g fill="#000000" fill-opacity="1"><g transform="translate(589.017879, 248.696907)"><g><path d="M 163.878906 -31.675781 C 163.4375 -32.335938 162.996094 -32.335938 162.996094 -32.335938 C 161.898438 -32.335938 160.136719 -31.015625 157.71875 -26.835938 C 153.980469 -20.457031 148.699219 -12.316406 141.660156 -5.71875 C 131.980469 3.519531 119.882812 13.417969 102.945312 17.378906 C 101.1875 17.816406 99.207031 18.257812 97.226562 18.257812 C 94.148438 18.257812 91.507812 17.15625 89.089844 14.738281 C 84.910156 10.777344 86.449219 7.039062 87.546875 4.179688 C 87.769531 3.519531 87.988281 3.078125 88.207031 2.417969 C 89.308594 -0.660156 90.628906 -3.738281 91.949219 -6.820312 C 93.488281 -10.777344 95.027344 -14.957031 96.347656 -19.136719 C 97.007812 -21.777344 96.785156 -23.757812 95.6875 -25.078125 C 94.585938 -26.394531 92.386719 -26.835938 90.847656 -26.835938 C 90.1875 -26.835938 89.527344 -26.617188 88.867188 -26.617188 C 83.808594 -25.957031 79.628906 -23.535156 75.667969 -21.335938 C 73.910156 -20.238281 72.148438 -19.136719 70.171875 -18.257812 C 67.972656 -17.378906 65.992188 -16.277344 64.011719 -14.957031 C 58.953125 -12.097656 53.894531 -9.238281 46.414062 -7.699219 L 44.652344 -7.480469 L 50.152344 -17.378906 C 53.234375 -23.097656 56.09375 -28.15625 58.730469 -33.433594 L 59.832031 -35.414062 C 62.03125 -40.035156 64.453125 -44.433594 66.652344 -49.273438 C 67.3125 -50.152344 67.75 -51.253906 68.410156 -52.132812 C 69.949219 -55.210938 71.929688 -58.511719 71.929688 -61.589844 C 71.929688 -64.453125 69.949219 -68.191406 66.871094 -69.289062 C 66.210938 -69.511719 65.550781 -69.730469 65.109375 -69.730469 C 62.910156 -69.730469 60.933594 -68.191406 59.390625 -66.871094 C 48.613281 -58.070312 38.496094 -48.171875 28.816406 -38.714844 C 22.875 -32.996094 16.9375 -27.277344 10.777344 -21.777344 C 10.558594 -21.558594 10.339844 -21.117188 9.457031 -21.117188 C 8.796875 -21.335938 8.359375 -21.558594 7.917969 -21.996094 C 7.480469 -22.875 7.480469 -23.976562 7.699219 -24.855469 L 16.277344 -46.414062 C 16.71875 -47.511719 17.15625 -48.832031 17.15625 -50.152344 C 16.9375 -51.253906 16.496094 -52.792969 15.179688 -53.453125 C 14.519531 -54.113281 13.859375 -54.113281 13.199219 -54.113281 C 12.757812 -54.113281 12.097656 -54.113281 11.660156 -53.671875 C 10.558594 -53.234375 9.898438 -52.351562 9.019531 -51.253906 C 3.078125 -42.015625 -1.539062 -31.894531 -4.398438 -20.457031 C -4.839844 -18.476562 -5.277344 -16.496094 -4.621094 -14.519531 C -4.179688 -12.539062 -2.640625 -10.339844 -0.660156 -9.898438 C -0.21875 -9.679688 0 -9.679688 0.441406 -9.679688 C 2.199219 -9.679688 3.519531 -10.777344 4.839844 -12.097656 C 13.859375 -20.457031 22.65625 -29.035156 31.234375 -37.394531 C 33.214844 -39.375 35.195312 -41.574219 36.953125 -43.554688 C 42.234375 -49.054688 47.734375 -54.773438 53.671875 -59.171875 C 54.113281 -59.613281 56.53125 -61.152344 58.511719 -61.152344 C 59.613281 -61.152344 60.273438 -60.710938 60.710938 -60.273438 C 61.589844 -59.171875 61.371094 -57.632812 59.832031 -54.113281 C 58.953125 -52.351562 57.632812 -50.59375 56.53125 -49.054688 C 55.652344 -47.953125 54.773438 -46.632812 53.894531 -45.3125 C 52.792969 -43.335938 51.472656 -41.355469 50.375 -39.15625 C 48.832031 -36.515625 47.074219 -33.65625 45.535156 -30.796875 C 42.015625 -24.855469 38.714844 -18.699219 38.273438 -11.21875 C 38.054688 -7.699219 38.714844 -5.058594 40.253906 -3.519531 C 41.355469 -2.417969 43.113281 -1.757812 45.3125 -1.757812 C 46.195312 -1.757812 47.292969 -1.980469 48.171875 -2.199219 C 52.792969 -2.859375 56.3125 -5.277344 59.613281 -7.480469 C 60.933594 -8.140625 62.25 -9.019531 63.570312 -9.679688 C 65.992188 -11.21875 68.191406 -12.976562 70.171875 -14.738281 C 73.46875 -17.816406 76.988281 -20.898438 82.269531 -21.996094 C 83.148438 -22.21875 84.027344 -22.21875 84.6875 -22.21875 C 86.226562 -22.21875 87.328125 -21.777344 87.988281 -20.898438 C 89.308594 -18.699219 87.546875 -14.957031 85.789062 -12.097656 C 85.347656 -11.21875 84.46875 -10.117188 83.808594 -9.238281 C 82.050781 -6.820312 80.289062 -4.398438 79.628906 -1.320312 C 78.089844 4.839844 77.210938 11.4375 84.027344 17.816406 C 87.328125 20.898438 91.066406 22.4375 95.90625 22.4375 C 103.386719 22.4375 111.085938 18.699219 116.144531 16.058594 L 116.804688 15.617188 C 122.742188 12.976562 128.242188 9.457031 133.523438 5.5 C 144.300781 -2.859375 153.980469 -13.417969 161.457031 -24.855469 C 164.316406 -29.257812 164.097656 -31.015625 163.878906 -31.675781 Z M 163.878906 -31.675781 "/></g></g></g><g fill="#000000" fill-opacity="1"><g transform="translate(747.833244, 248.696907)"><g><path d="M 75.011719 -32.335938 C 74.128906 -31.675781 73.25 -30.796875 72.371094 -29.914062 C 71.710938 -29.476562 71.269531 -28.816406 70.609375 -28.375 C 67.089844 -25.296875 63.792969 -22.875 60.273438 -20.457031 C 52.574219 -15.179688 44.875 -11.660156 37.175781 -9.457031 C 32.117188 -7.917969 27.9375 -7.039062 23.097656 -7.039062 C 20.238281 -7.039062 17.597656 -7.257812 14.738281 -8.140625 C 11.21875 -9.019531 8.796875 -10.777344 7.257812 -12.976562 C 5.9375 -14.738281 5.5 -16.71875 5.9375 -18.699219 L 6.378906 -20.238281 C 7.699219 -27.054688 9.238281 -34.316406 19.136719 -35.855469 C 32.777344 -37.835938 42.015625 -42.234375 48.171875 -49.714844 C 50.8125 -53.011719 52.792969 -56.09375 49.492188 -60.710938 C 47.292969 -63.792969 44.214844 -65.332031 40.695312 -65.332031 C 39.59375 -65.332031 38.496094 -65.332031 37.175781 -64.890625 C 15.398438 -59.171875 2.199219 -45.972656 -1.757812 -26.175781 C -3.078125 -20.238281 -1.757812 -14.738281 1.980469 -10.558594 C 5.9375 -6.378906 11.878906 -3.960938 19.136719 -3.738281 L 20.238281 -3.738281 C 42.894531 -3.738281 58.953125 -16.277344 74.351562 -28.375 L 75.890625 -29.476562 C 76.988281 -30.355469 78.96875 -31.894531 78.53125 -33.433594 C 77.429688 -33.433594 76.109375 -32.996094 75.011719 -32.335938 Z M 21.558594 -43.554688 C 28.15625 -51.472656 35.195312 -54.992188 43.992188 -57.632812 L 45.972656 -58.292969 L 44.875 -56.53125 C 39.59375 -47.953125 32.777344 -44.875 22.4375 -42.453125 L 20.238281 -42.015625 Z M 21.558594 -43.554688 "/></g></g></g></svg>